<svg width="126" height="186" viewBox="0 0 126 186" fill="none" xmlns="http://www.w3.org/2000/svg">
<path d="M83.9399 59.321C83.1714 56.3823 80.166 54.623 77.2273 55.3916L47.236 63.2351C44.2972 64.0036 42.538 67.009 43.3065 69.9477C44.0751 72.8864 47.0804 74.6457 50.0191 73.8771L80.0105 66.0337C82.9492 65.2651 84.7085 62.2598 83.9399 59.321Z" fill="white"/>
<rect width="10.3434" height="33.4906" transform="matrix(-0.979495 -0.20147 -0.20147 0.979495 56.3696 122.074)" fill="url(#paint0_linear_200_2148)"/>
<path d="M79.0731 106.694L74.5536 116.315L86.2592 123.421L98.0979 132.076L104 124.003L79.0731 106.694Z" fill="url(#paint1_linear_200_2148)"/>
<path d="M103.415 123.098L93.7275 125.58L97.5001 138.292L102.03 149.925L108.546 149.169L106.703 135.934L103.415 123.098Z" fill="#EFC6C6"/>
<path d="M49.3787 153.461L39.4205 151.912L39.1596 161.687L40.853 178.842L46.925 177.598L49.3787 153.461Z" fill="url(#paint2_linear_200_2148)"/>
<path d="M39.8081 175.535L35.5084 179.509C35.4107 179.599 35.3248 179.702 35.253 179.814C34.3778 181.18 35.9048 182.811 37.3257 182.028L41.0158 179.993C41.0949 179.95 41.1782 179.914 41.2646 179.888L49.3001 177.417C49.7314 177.285 49.9722 176.826 49.8366 176.396L49.5907 175.615L48.3328 174.167L48.2216 172.513C48.1935 172.096 47.6266 171.991 47.4516 172.372L47.347 172.678C47.1183 173.347 46.6771 173.924 46.0904 174.32C45.877 174.464 45.6472 174.582 45.4058 174.672L44.2102 175.116C43.8112 175.265 43.402 175.384 42.9859 175.473L42.4572 175.586C41.8862 175.709 41.2994 175.739 40.7189 175.676L40.0578 174.33L39.0002 173.889L39.8081 175.535Z" fill="#372828"/>
<path d="M108.076 146.514L113.677 147.03C113.804 147.042 113.929 147.07 114.05 147.113C115.516 147.643 115.305 149.779 113.764 150.012L109.762 150.619C109.676 150.632 109.592 150.653 109.51 150.684L101.941 153.498C101.535 153.649 101.083 153.44 100.935 153.033L100.666 152.294L100.778 150.455L99.8965 149.129C99.6737 148.794 100.045 148.383 100.401 148.571L100.659 148.743C101.225 149.12 101.899 149.302 102.577 149.26C102.824 149.245 103.068 149.201 103.305 149.128L104.476 148.768C104.867 148.648 105.248 148.5 105.618 148.325L106.087 148.102C106.594 147.862 107.059 147.542 107.464 147.154L107.181 145.741L107.73 144.787L108.076 146.514Z" fill="#372828"/>
<path d="M69.7119 102.098L64.5105 113.488L87.5559 127.981L95.9905 114.121L69.7119 102.098Z" fill="#272727"/>
<path d="M67.6782 116.043L68.5444 102.204L47.8171 103.643L41.6785 132.543L55.678 136.045L59.678 116.045L67.6782 116.043Z" fill="#272727"/>
<path d="M83.29 62L41.9897 64.2793L44.8795 108.589H47.757H78.5808H80.5195L83.29 62Z" fill="white"/>
<path d="M57.145 107.674L51.0557 115.706L52.0001 116.365L58.0617 108.369L57.145 107.674Z" fill="#517E82"/>
<path d="M69.1416 109.807L76.086 118.967L75.1377 119.62L68.2249 110.502L69.1416 109.807Z" fill="#517E82"/>
<path d="M60.0495 116.965L45.2585 115.002L44.7372 117.999L59.6683 119.941L60.0495 116.965Z" fill="#4EBDC5"/>
<path d="M70.6772 121.076L82.1375 112.152L83.9284 114.559L72.5205 123.443L70.6772 121.076Z" fill="#4EBDC5"/>
<path d="M66.0142 115.941L46.2213 96.0049L44.0923 98.1185L61.2041 115.429L65.861 115.926L66.0142 115.941Z" fill="#6D72CE"/>
<path d="M59.3662 115.9L79.1236 95.9996L81.2526 98.1133L63.8567 115.947L59.5192 115.885L59.3662 115.9Z" fill="#6D72CE"/>
<path d="M81.2886 95.998H43.7886L44.4574 102.998H81.2886V95.998Z" fill="#4EBEC5"/>
<path d="M72.0373 50H52.7724L54.3469 58.1309C52.5305 60.5527 54.3177 64.0008 57.3437 63.9128L66.3602 63.6506C69.0854 63.5713 70.874 60.7711 69.8 58.2651C69.3834 57.2929 69.3834 56.1925 69.8 55.2203L72.0373 50Z" fill="#EFC6C6"/>
<ellipse cx="26.9708" cy="26.0076" rx="26.9708" ry="26.0076" transform="matrix(-1 0 0 1 87.1812 3.63281)" fill="#EFC6C6"/>
<path d="M83.4967 13.9661L60.1572 4L35.6508 13.9661L29.3315 42.4407L37.038 35.322L38.6893 45.2881L44.7444 36.7458L47.4967 45.2881L51.3499 37.4576L54.6526 46L58.5059 38.8814L62.3591 45.2881L66.7627 34.6102L70.6159 43.8644L76.1205 37.4576L78.8728 42.4407L81.6251 35.322L89.3315 43.8644L88.7811 36.7458L83.4967 13.9661Z" fill="#3C2A27"/>
<path d="M82.6315 7L59.8315 0L35.8915 7L31.3315 28H88.3315L82.6315 7Z" fill="#5C7780"/>
<path d="M66.912 22.5909C66.2637 20.3401 64.5591 18.5464 62.3441 17.7846C60.8639 17.2755 59.2364 17.2707 57.7488 17.758C55.4028 18.5264 53.5629 20.4309 52.9071 22.8109L52.3827 24.7143L52.3315 25H57.8187H63.9341H64.7656H65.5659H67.3315L67.1944 23.5714L66.912 22.5909Z" fill="#3C2A27"/>
<path d="M58.2543 24.9831C58.0516 24.9825 57.851 25.0237 57.665 25.1042C56.5249 25.5976 56.4714 27.1946 57.5761 27.7631L57.6399 27.796C57.8516 27.9049 58.086 27.9621 58.324 27.9629L66.8576 27.9906L67.3042 28.005L67.3144 26.9052L67.3257 25.6795L67.3273 25.5128L67.3287 25.3524L67.332 24.9985L65.0981 25.0054L58.2543 24.9831Z" fill="#415055"/>
<path d="M61.3767 25.0041C61.5764 25.0034 61.7741 25.0437 61.9576 25.1225C63.0942 25.6105 63.1472 27.2022 62.0457 27.7647L61.9821 27.7972C61.7732 27.9039 61.5421 27.9599 61.3076 27.9607L52.7687 27.9888L52.322 28.0031L52.312 26.9119L52.3007 25.6957L52.2992 25.5303L52.2977 25.3711L52.2944 25.02L54.5283 25.0266L61.3767 25.0041Z" fill="#495B60"/>
<circle cx="0.5" cy="0.5" r="0.5" transform="matrix(-1 0 0 1 66.3315 26)" fill="#293235"/>
<circle cx="0.5" cy="0.5" r="0.5" transform="matrix(-1 0 0 1 64.3315 26)" fill="#293235"/>
<circle cx="0.5" cy="0.5" r="0.5" transform="matrix(-1 0 0 1 62.3315 26)" fill="#6E888F"/>
<circle cx="0.5" cy="0.5" r="0.5" transform="matrix(-1 0 0 1 60.3315 26)" fill="#6E888F"/>
<circle cx="0.5" cy="0.5" r="0.5" transform="matrix(-1 0 0 1 58.3315 26)" fill="#6E888F"/>
<circle cx="0.5" cy="0.5" r="0.5" transform="matrix(-1 0 0 1 56.3315 26)" fill="#6E888F"/>
<circle cx="0.5" cy="0.5" r="0.5" transform="matrix(-1 0 0 1 54.3315 26)" fill="#6E888F"/>
<rect x="78.6685" y="55.209" width="36" height="9.30704" rx="4.65352" transform="rotate(-36 78.6685 55.209)" fill="url(#paint3_linear_200_2148)"/>
<path d="M102.46 17.0155C102.46 15.2516 103.566 13.677 105.225 13.0775C107.898 12.1116 110.736 14.0307 110.835 16.8709L111.592 38.5343C111.68 41.0575 109.706 43.1744 107.183 43.2625C104.596 43.3528 102.451 41.2801 102.452 38.6922L102.46 17.0155Z" fill="url(#paint4_linear_200_2148)"/>
<rect width="12.1767" height="9.63245" transform="matrix(-0.78886 0.614573 0.614573 0.78886 84.9775 49.9883)" fill="white"/>
<rect width="26.2833" height="9.63245" rx="4.81622" transform="matrix(-0.751211 0.660063 0.660063 0.751211 41.6421 65.0977)" fill="url(#paint5_linear_200_2148)"/>
<path d="M23.8119 88.2109C25.7798 87.9502 27.3257 86.3977 27.578 84.4288C27.9305 81.6776 25.6673 79.2966 22.9017 79.5094L11.7204 80.3695C9.14114 80.568 7.21107 82.8197 7.40949 85.399C7.61565 88.079 10.03 90.0361 12.6947 89.6832L23.8119 88.2109Z" fill="url(#paint6_linear_200_2148)"/>
<path d="M44.3408 64.0547L33.9631 71.1668L40.3455 80.8522L49.7204 71.9043L44.3408 64.0547Z" fill="white"/>
<defs>
<linearGradient id="paint0_linear_200_2148" x1="5.17171" y1="0" x2="-0.617924" y2="17.4518" gradientUnits="userSpaceOnUse">
<stop stop-color="#EFC6C6"/>
<stop offset="1" stop-color="#C4A1A1"/>
</linearGradient>
<linearGradient id="paint1_linear_200_2148" x1="95" y1="123.598" x2="77.3715" y2="110.729" gradientUnits="userSpaceOnUse">
<stop stop-color="#EFC6C6"/>
<stop offset="1" stop-color="#AE8E8E"/>
</linearGradient>
<linearGradient id="paint2_linear_200_2148" x1="44.4217" y1="165.631" x2="45.974" y2="182.008" gradientUnits="userSpaceOnUse">
<stop stop-color="#C4A1A1"/>
<stop offset="1" stop-color="#EAC2C2"/>
</linearGradient>
<linearGradient id="paint3_linear_200_2148" x1="102.814" y1="59.8457" x2="79.297" y2="50.3465" gradientUnits="userSpaceOnUse">
<stop stop-color="#EFC6C6"/>
<stop offset="1" stop-color="#987F7F"/>
</linearGradient>
<linearGradient id="paint4_linear_200_2148" x1="105.58" y1="40.5849" x2="96.7992" y2="17.6361" gradientUnits="userSpaceOnUse">
<stop stop-color="#EFC6C6"/>
<stop offset="1" stop-color="#B29494"/>
</linearGradient>
<linearGradient id="paint5_linear_200_2148" x1="15.4968" y1="5.16648" x2="2.46485" y2="4.52198" gradientUnits="userSpaceOnUse">
<stop stop-color="#EFC6C6"/>
<stop offset="1" stop-color="#987F7F"/>
</linearGradient>
<linearGradient id="paint6_linear_200_2148" x1="21.5022" y1="83.8401" x2="10.5173" y2="80.3955" gradientUnits="userSpaceOnUse">
<stop stop-color="#EFC6C6"/>
<stop offset="1" stop-color="#B29494"/>
</linearGradient>
</defs>
</svg>
