<svg width="85" height="154" viewBox="0 0 85 154" fill="none" xmlns="http://www.w3.org/2000/svg">
<path d="M18.3897 59.321C19.1582 56.3823 22.1636 54.623 25.1023 55.3916L55.0936 63.2351C58.0324 64.0036 59.7916 67.009 59.0231 69.9477C58.2545 72.8864 55.2492 74.6457 52.3105 73.8771L22.3191 66.0337C19.3804 65.2651 17.6211 62.2598 18.3897 59.321Z" fill="white"/>
<rect x="23.2134" y="108.578" width="12.5222" height="15.4119" fill="#272727"/>
<path d="M34.998 114L30.498 107.5L49.9919 100.641L58.1702 113.704L47.5565 120.349L43.998 113L34.998 114Z" fill="#272727"/>
<path d="M18.9985 62L60.2988 64.2793L57.4091 108.589H54.5316H23.7078H21.769L18.9985 62Z" fill="white"/>
<path d="M45.1416 107.676L51.231 115.708L50.2865 116.367L44.2249 108.371L45.1416 107.676Z" fill="#517E82"/>
<path d="M35.0874 111L28.998 119.033L29.9425 119.691L36.0041 111.695L35.0874 111Z" fill="#517E82"/>
<path d="M45.646 117.318L56.869 110.479L58.379 113.072L47.2072 119.88L45.646 117.318Z" fill="#4EBDC5"/>
<path d="M36.1406 118L22.9978 118.025L23.0634 121.025L36.1463 121L36.1406 118Z" fill="#4EBDC5"/>
<path d="M38.4839 113.715L56.0653 96.0058L58.1943 98.1195L42.9985 113.5L38.6277 113.709L38.4839 113.715Z" fill="#6D72CE"/>
<path d="M40.7456 113.709L23.1642 96L21.0352 98.1136L36.498 114L40.6018 113.703L40.7456 113.709Z" fill="#6D72CE"/>
<path d="M20.998 96H58.498L57.8293 103H20.998V96Z" fill="#4EBEC5"/>
<path d="M30.2923 50H49.5572L47.9827 58.1309C49.7991 60.5527 48.0119 64.0008 44.9859 63.9128L35.9694 63.6506C33.2442 63.5713 31.4556 60.7711 32.5296 58.2651C32.9462 57.2929 32.9462 56.1925 32.5296 55.2203L30.2923 50Z" fill="#EFC6C6"/>
<ellipse cx="42.1193" cy="29.6404" rx="26.9708" ry="26.0076" fill="#EFC6C6"/>
<path d="M18.8329 13.9661L42.1724 4L66.6788 13.9661L72.998 42.4407L65.2916 35.322L63.6402 45.2881L57.5852 36.7458L54.8329 45.2881L50.9797 37.4576L47.6769 46L43.8237 38.8814L39.9705 45.2881L35.5669 34.6102L31.7136 43.8644L26.2091 37.4576L23.4568 42.4407L20.7045 35.322L12.998 43.8644L13.5485 36.7458L18.8329 13.9661Z" fill="#3C2A27"/>
<path d="M19.698 7L42.498 0L66.438 7L70.998 28H13.998L19.698 7Z" fill="#5C7780"/>
<path d="M35.4176 22.5909C36.0658 20.3401 37.7705 18.5464 39.9855 17.7846C41.4657 17.2755 43.0932 17.2707 44.5808 17.758C46.9268 18.5264 48.7667 20.4309 49.4224 22.8109L49.9469 24.7143L49.998 25H44.5109H38.3955H37.564H36.7636H34.998L35.1352 23.5714L35.4176 22.5909Z" fill="#3C2A27"/>
<path d="M44.0753 24.9831C44.278 24.9825 44.4786 25.0237 44.6646 25.1042C45.8047 25.5976 45.8581 27.1946 44.7535 27.7631L44.6896 27.796C44.478 27.9049 44.2436 27.9621 44.0056 27.9629L35.472 27.9906L35.0254 28.005L35.0152 26.9052L35.0039 25.6795L35.0023 25.5128L35.0008 25.3524L34.9976 24.9985L37.2315 25.0054L44.0753 24.9831Z" fill="#415055"/>
<path d="M40.9529 25.0041C40.7532 25.0034 40.5555 25.0437 40.3719 25.1225C39.2354 25.6105 39.1824 27.2022 40.2839 27.7647L40.3475 27.7972C40.5564 27.9039 40.7875 27.9599 41.022 27.9607L49.5609 27.9888L50.0075 28.0031L50.0176 26.9119L50.0289 25.6957L50.0304 25.5303L50.0319 25.3711L50.0351 25.02L47.8013 25.0266L40.9529 25.0041Z" fill="#495B60"/>
<circle cx="36.498" cy="26.5" r="0.5" fill="#293235"/>
<circle cx="38.498" cy="26.5" r="0.5" fill="#293235"/>
<circle cx="40.498" cy="26.5" r="0.5" fill="#6E888F"/>
<circle cx="42.498" cy="26.5" r="0.5" fill="#6E888F"/>
<circle cx="44.498" cy="26.5" r="0.5" fill="#6E888F"/>
<circle cx="46.498" cy="26.5" r="0.5" fill="#6E888F"/>
<circle cx="48.498" cy="26.5" r="0.5" fill="#6E888F"/>
<rect x="48.9971" y="119.545" width="10.3434" height="7.70596" transform="rotate(-32.3135 48.9971 119.545)" fill="url(#paint0_linear_193_1731)"/>
<rect x="24.4971" y="124.018" width="10" height="8" fill="url(#paint1_linear_193_1731)"/>
<path d="M24.4971 132.016H34.4971L33.998 139.5L32.498 146.5L25.998 147L24.498 139.5L24.4971 132.016Z" fill="#EFC6C6"/>
<path d="M52.4971 125.016L61.9971 120.516L58.4971 133.516L50.9971 134.014L52.4971 125.016Z" fill="url(#paint2_linear_193_1731)"/>
<path d="M59.2527 131.987L64.8636 133.661C64.9912 133.699 65.1134 133.753 65.2273 133.822C66.6149 134.663 65.9628 136.8 64.342 136.723L60.1331 136.522C60.0429 136.518 59.9524 136.523 59.8632 136.537L51.5612 137.86C51.1156 137.931 50.6974 137.625 50.6295 137.179L50.5062 136.37L50.9974 134.516L50.3687 132.982C50.2098 132.595 50.6727 132.251 50.9974 132.516L51.2262 132.744C51.7266 133.245 52.3768 133.568 53.0778 133.665C53.3328 133.7 53.5912 133.705 53.8474 133.679L55.1166 133.551C55.5401 133.509 55.96 133.436 56.3729 133.332L56.8975 133.201C57.4639 133.06 58.0041 132.828 58.4974 132.516L58.4976 131.016L59.2528 130.154L59.2527 131.987Z" fill="#372828"/>
<path d="M25.1103 146.146L20.4433 149.285C20.3372 149.357 20.2406 149.442 20.1559 149.537C19.1238 150.705 20.333 152.479 21.7972 151.944L25.5997 150.557C25.6812 150.527 25.7656 150.506 25.8514 150.493L33.8431 149.332C34.272 149.27 34.5682 148.87 34.5029 148.442L34.3845 147.664L33.4038 146.104L33.5419 144.518C33.5768 144.117 33.0541 143.935 32.8319 144.27L32.6875 144.545C32.3717 145.147 31.8679 145.63 31.2527 145.919C31.0289 146.024 30.7933 146.103 30.551 146.152L29.3506 146.398C28.95 146.48 28.544 146.533 28.1358 146.556L27.6173 146.586C27.0573 146.618 26.4957 146.56 25.954 146.415L25.5249 145.039L24.5859 144.465L25.1103 146.146Z" fill="#372828"/>
<rect width="22.3437" height="9.30704" rx="4.65352" transform="matrix(-0.704295 -0.709908 -0.709908 0.704295 22.3438 54.875)" fill="url(#paint3_linear_193_1731)"/>
<path d="M9.94291 28.5074C9.9236 26.6485 8.68712 25.0225 6.90104 24.5071C4.26846 23.7475 1.6235 25.6659 1.52788 28.4042L1.00524 43.3706C0.917576 45.8809 2.88153 47.987 5.39186 48.0747C7.98296 48.1651 10.1254 46.0746 10.0985 43.4821L9.94291 28.5074Z" fill="url(#paint4_linear_193_1731)"/>
<rect x="17.3525" y="49.9844" width="12.1767" height="9.63245" transform="rotate(37.9209 17.3525 49.9844)" fill="white"/>
<rect x="58.0391" y="60.5723" width="23.1249" height="9.63245" rx="4.81622" transform="rotate(-1 58.0391 60.5723)" fill="url(#paint5_linear_193_1731)"/>
<path d="M81.9365 65.1312C81.6694 67.0366 80.184 68.541 78.2822 68.8323C75.4792 69.2618 73.0196 66.941 73.2857 64.1177L74.7402 48.687C74.9842 46.0988 77.2801 44.1984 79.8683 44.4424C82.5398 44.6942 84.4606 47.1248 84.0881 49.7822L81.9365 65.1312Z" fill="url(#paint6_linear_193_1731)"/>
<path d="M49.998 64.6426L61.5355 59.626L66.353 70.1774L53.7926 73.3694L49.998 64.6426Z" fill="white"/>
<defs>
<linearGradient id="paint0_linear_193_1731" x1="54.1688" y1="119.545" x2="53.8305" y2="123.977" gradientUnits="userSpaceOnUse">
<stop stop-color="#EFC6C6"/>
<stop offset="1" stop-color="#C4A1A1"/>
</linearGradient>
<linearGradient id="paint1_linear_193_1731" x1="29.4971" y1="132.018" x2="29.4971" y2="124.018" gradientUnits="userSpaceOnUse">
<stop stop-color="#EFC6C6"/>
<stop offset="1" stop-color="#AE8E8E"/>
</linearGradient>
<linearGradient id="paint2_linear_193_1731" x1="50.2482" y1="124.728" x2="50.2482" y2="137.728" gradientUnits="userSpaceOnUse">
<stop stop-color="#C4A1A1"/>
<stop offset="1" stop-color="#EAC2C2"/>
</linearGradient>
<linearGradient id="paint3_linear_193_1731" x1="14.986" y1="4.63672" x2="-0.987421" y2="0.632107" gradientUnits="userSpaceOnUse">
<stop stop-color="#EFC6C6"/>
<stop offset="1" stop-color="#987F7F"/>
</linearGradient>
<linearGradient id="paint4_linear_193_1731" x1="6.99707" y1="46.002" x2="12.6979" y2="27.3078" gradientUnits="userSpaceOnUse">
<stop stop-color="#EFC6C6"/>
<stop offset="1" stop-color="#B29494"/>
</linearGradient>
<linearGradient id="paint5_linear_193_1731" x1="71.6736" y1="65.7387" x2="60.2014" y2="65.2396" gradientUnits="userSpaceOnUse">
<stop stop-color="#EFC6C6"/>
<stop offset="1" stop-color="#987F7F"/>
</linearGradient>
<linearGradient id="paint6_linear_193_1731" x1="77.7617" y1="61.5" x2="73.0262" y2="48.8307" gradientUnits="userSpaceOnUse">
<stop stop-color="#EFC6C6"/>
<stop offset="1" stop-color="#B29494"/>
</linearGradient>
</defs>
</svg>
