<svg width="110" height="180" viewBox="0 0 110 180" fill="none" xmlns="http://www.w3.org/2000/svg">
<path d="M37.2747 62.4812C37.486 59.454 40.1053 57.2413 43.1252 57.5389L67.4092 59.9325C70.4291 60.2301 72.7059 62.9254 72.4947 65.9526C72.2834 68.9798 69.664 71.1925 66.6441 70.8948L42.3602 68.5013C39.3403 68.2037 37.0635 65.5084 37.2747 62.4812Z" fill="white"/>
<rect width="8.74191" height="23.4673" transform="matrix(0.984856 -0.173376 0.123687 0.992321 67.2734 126.516)" fill="url(#paint0_linear_193_1850)"/>
<path d="M39.9644 128.004L47.93 131.226L42.4202 150.462L34.4545 147.24L39.9644 128.004Z" fill="url(#paint1_linear_193_1850)"/>
<path d="M34.8414 146.5L42.4504 150L41.5315 162.431L39.5446 173.859L34.0266 173.996L34.8413 161.586L34.8414 146.5Z" fill="url(#paint2_linear_193_1850)"/>
<path d="M70.6394 149.5L78.6332 148L75.2674 170.967L68.9565 172L70.6394 149.5Z" fill="url(#paint3_linear_193_1850)"/>
<path d="M75.2545 169.435L79.9423 171.096C80.0718 171.142 80.1938 171.206 80.3049 171.286C81.5517 172.184 80.7648 174.239 79.2079 174.151L76.0282 173.971C75.9305 173.966 75.832 173.972 75.7347 173.991L68.9043 175.284C68.4624 175.367 68.0557 175.072 67.9985 174.626L67.8948 173.817L68.3081 171.963L67.7497 170.344C67.6331 170.006 68.0551 169.718 68.3081 169.963L68.5778 170.283C68.9479 170.723 69.461 171.014 70.0324 171.108C70.2642 171.146 70.5016 171.151 70.738 171.123L71.7647 171C72.1272 170.956 72.4869 170.882 72.8399 170.777L73.2517 170.655C73.7413 170.509 74.2048 170.275 74.619 169.963L74.6191 168.463L75.2546 167.601L75.2545 169.435Z" fill="#372828"/>
<path d="M34.006 170.885L29.3343 171.546C29.209 171.564 29.0879 171.6 28.9743 171.653C27.6832 172.254 28.1027 174.357 29.5566 174.572L32.6541 175.03C32.7436 175.043 32.8322 175.067 32.9181 175.102L39.2306 177.666C39.6264 177.827 40.0431 177.623 40.1587 177.212L40.3684 176.466L40.2327 174.631L40.9785 173.218C41.139 172.914 40.7853 172.553 40.5083 172.737L40.2229 172.977C39.8028 173.329 39.2708 173.508 38.7139 173.485C38.4922 173.476 38.2702 173.436 38.0539 173.364L37.0919 173.046C36.7559 172.934 36.4267 172.794 36.108 172.627L35.7301 172.428C35.2889 172.196 34.884 171.885 34.5348 171.509L34.7413 170.089L34.2585 169.15L34.006 170.885Z" fill="#372828"/>
<rect width="10.7829" height="23.7448" transform="matrix(0.919489 0.393117 -0.289729 0.957109 44.7026 107)" fill="#272727"/>
<path d="M50.3529 114.1L46.5664 107.6L62.9695 100.741L68.9564 109L78.2128 126.5L66.4325 131L57.926 113.1L50.3529 114.1Z" fill="#272727"/>
<path d="M36.8911 62L71.6432 64.2793L69.2117 108.589H66.7904H40.8537H39.2224L36.8911 62Z" fill="white"/>
<path d="M58.8892 107.676L64.0131 115.708L63.2183 116.367L58.1178 108.371L58.8892 107.676Z" fill="#517E82"/>
<path d="M50.4292 111L45.1142 119.332L45.9098 119.989L51.2005 111.695L50.4292 111Z" fill="#517E82"/>
<path d="M59.3135 117.318L69.7699 109.745L71.0359 112.342L60.6271 119.88L59.3135 117.318Z" fill="#4EBDC5"/>
<path d="M52.0889 123.354L41.9285 116.685L40.7545 119.341L50.8685 125.98L52.0889 123.354Z" fill="#4EBDC5"/>
<path d="M53.2866 113.715L68.0805 96.0058L69.8719 98.1195L57.0855 113.5L53.4076 113.709L53.2866 113.715Z" fill="#6D72CE"/>
<path d="M55.1899 113.709L40.3961 96L38.6046 98.1136L51.6158 114L55.069 113.703L55.1899 113.709Z" fill="#6D72CE"/>
<path d="M38.5737 96H70.1281L69.5653 103H38.5737V96Z" fill="#4EBEC5"/>
<path d="M46.3939 50H62.6043L61.2795 58.1309C62.8882 60.68 60.9878 63.9899 57.9753 63.8858L52.0669 63.6815C49.2636 63.5846 47.368 60.7843 48.3195 58.1456C48.6465 57.2389 48.6465 56.2465 48.3195 55.3398L46.3939 50Z" fill="#EFC6C6"/>
<ellipse cx="56.346" cy="29.6404" rx="22.6946" ry="26.0076" fill="#EFC6C6"/>
<path d="M36.752 13.9661L56.391 4L77.0119 13.9661L82.3293 42.4407L75.8447 35.322L74.4551 45.2881L69.3601 36.7458L67.0442 45.2881L63.8019 37.4576L61.0228 46L57.7805 38.8814L54.5383 45.2881L50.8328 34.6102L47.5905 43.8644L42.9587 37.4576L40.6428 42.4407L38.3269 35.322L31.8423 43.8644L32.3055 36.7458L36.752 13.9661Z" fill="#3C2A27"/>
<path d="M37.4803 7L56.6654 0L76.8097 7L80.6467 28H32.6841L37.4803 7Z" fill="#5C7780"/>
<path d="M50.8776 21.8851C51.3167 20.0732 52.5989 18.5822 54.3247 17.8768C55.702 17.3138 57.2427 17.3009 58.6292 17.8406L58.6808 17.8607C60.512 18.5736 61.8729 20.1451 62.3167 22.0594L62.9322 24.7143L62.9753 25H58.3581H53.2123H52.5127H51.8392H50.3535L50.4689 23.5714L50.8776 21.8851Z" fill="#3C2A27"/>
<path d="M57.8922 24.9835C58.1275 24.9826 58.3594 25.0382 58.5684 25.1457C59.5862 25.6692 59.6359 27.1066 58.6568 27.7055L58.5983 27.7412C58.3625 27.8854 58.0918 27.9623 57.8158 27.9633L50.7525 27.9906L50.3767 28.005L50.3682 26.9052L50.3586 25.6795L50.3573 25.5128L50.3561 25.3524L50.3533 24.9985L52.233 25.0054L57.8922 24.9835Z" fill="#415055"/>
<path d="M55.4625 25.0045C55.2305 25.0035 55.0019 25.058 54.7956 25.1633C53.78 25.6815 53.7307 27.1149 54.708 27.7081L54.7662 27.7434C54.9991 27.8848 55.2661 27.9601 55.5382 27.9611L62.6075 27.9888L62.9833 28.0031L62.9918 26.9119L63.0013 25.6957L63.0026 25.5303L63.0038 25.3711L63.0065 25.02L61.1268 25.0266L55.4625 25.0045Z" fill="#495B60"/>
<ellipse cx="51.6155" cy="26.5" rx="0.420725" ry="0.5" fill="#293235"/>
<ellipse cx="53.2987" cy="26.5" rx="0.420725" ry="0.5" fill="#293235"/>
<ellipse cx="54.9818" cy="26.5" rx="0.420725" ry="0.5" fill="#6E888F"/>
<ellipse cx="56.6644" cy="26.5" rx="0.420725" ry="0.5" fill="#6E888F"/>
<ellipse cx="58.3475" cy="26.5" rx="0.420725" ry="0.5" fill="#6E888F"/>
<ellipse cx="60.0306" cy="26.5" rx="0.420725" ry="0.5" fill="#6E888F"/>
<ellipse cx="61.7127" cy="26.5" rx="0.420725" ry="0.5" fill="#6E888F"/>
<rect width="26.9956" height="7.87462" rx="3.93731" transform="matrix(-0.991191 -0.132438 -0.0941836 0.995555 40.0781 57.9062)" fill="url(#paint4_linear_193_1850)"/>
<path d="M8.35196 34.4854C7.71297 33.162 6.39998 32.4627 5.01888 32.7102C2.60323 33.1431 1.13592 36.1489 2.19007 38.505L12.1803 60.8343C13.0893 62.8659 15.3513 63.549 17.2328 62.3601C19.1534 61.1465 19.9277 58.4594 18.944 56.4221L8.35196 34.4854Z" fill="url(#paint5_linear_193_1850)"/>
<rect width="10.3083" height="9.59077" transform="matrix(0.979149 0.203141 -0.145335 0.989383 32.4785 55.875)" fill="white"/>
<rect width="28.6111" height="9.63202" rx="4.81601" transform="matrix(0.999785 -0.0207396 0.014686 0.999892 69.4727 60.5508)" fill="url(#paint6_linear_193_1850)"/>
<path d="M96.9359 67.861C96.1003 69.2368 94.5815 69.812 93.1282 69.303C90.7566 68.4722 89.6438 65.2379 90.9374 62.9352L101.188 44.6873C102.332 42.651 104.742 42.1771 106.572 43.6287C108.446 45.1155 108.976 48.0349 107.741 50.0686L96.9359 67.861Z" fill="url(#paint7_linear_193_1850)"/>
<path d="M62.7061 64.6328L72.4142 59.6162L76.4679 70.1677L65.899 73.3597L62.7061 64.6328Z" fill="white"/>
<defs>
<linearGradient id="paint0_linear_193_1850" x1="4.37095" y1="0" x2="0.899867" y2="12.6199" gradientUnits="userSpaceOnUse">
<stop stop-color="#EFC6C6"/>
<stop offset="1" stop-color="#C4A1A1"/>
</linearGradient>
<linearGradient id="paint1_linear_193_1850" x1="52.3283" y1="74.1963" x2="54.5014" y2="83.7695" gradientUnits="userSpaceOnUse">
<stop stop-color="#EFC6C6"/>
<stop offset="1" stop-color="#C39B9B"/>
</linearGradient>
<linearGradient id="paint2_linear_193_1850" x1="37.5195" y1="163.907" x2="39.3685" y2="150.052" gradientUnits="userSpaceOnUse">
<stop stop-color="#EFC6C6"/>
<stop offset="1" stop-color="#C39B9B"/>
</linearGradient>
<linearGradient id="paint3_linear_193_1850" x1="68.3264" y1="152.739" x2="68.3264" y2="179.706" gradientUnits="userSpaceOnUse">
<stop stop-color="#C4A1A1"/>
<stop offset="1" stop-color="#EAC2C2"/>
</linearGradient>
<linearGradient id="paint4_linear_193_1850" x1="18.106" y1="3.92309" x2="-0.0757474" y2="-2.58599" gradientUnits="userSpaceOnUse">
<stop stop-color="#EFC6C6"/>
<stop offset="1" stop-color="#987F7F"/>
</linearGradient>
<linearGradient id="paint5_linear_193_1850" x1="17.1629" y1="59.0201" x2="13.1025" y2="32.8231" gradientUnits="userSpaceOnUse">
<stop stop-color="#EFC6C6"/>
<stop offset="1" stop-color="#B29494"/>
</linearGradient>
<linearGradient id="paint6_linear_193_1850" x1="16.8693" y1="5.16625" x2="2.68955" y2="4.40285" gradientUnits="userSpaceOnUse">
<stop stop-color="#EFC6C6"/>
<stop offset="1" stop-color="#987F7F"/>
</linearGradient>
<linearGradient id="paint7_linear_193_1850" x1="96.247" y1="61.0665" x2="97.1347" y2="45.1181" gradientUnits="userSpaceOnUse">
<stop stop-color="#EFC6C6"/>
<stop offset="1" stop-color="#B29494"/>
</linearGradient>
</defs>
</svg>
