<svg width="85" height="154" viewBox="0 0 85 154" fill="none" xmlns="http://www.w3.org/2000/svg">
<path d="M66.3822 59.321C65.6137 56.3823 62.6083 54.623 59.6696 55.3916L29.6783 63.2351C26.7395 64.0036 24.9803 67.009 25.7488 69.9477C26.5174 72.8864 29.5227 74.6457 32.4614 73.8771L62.4528 66.0337C65.3915 65.2651 67.1508 62.2598 66.3822 59.321Z" fill="white"/>
<rect width="12.5222" height="15.4119" transform="matrix(-1 0 0 1 61.5585 108.578)" fill="#272727"/>
<path d="M49.7738 114L54.2738 107.5L34.78 100.641L26.6017 113.704L37.2154 120.349L40.7738 113L49.7738 114Z" fill="#272727"/>
<path d="M65.7733 62L24.4731 64.2793L27.3628 108.589H30.2403H61.0641H63.0028L65.7733 62Z" fill="white"/>
<path d="M39.6303 107.676L33.5409 115.708L34.4854 116.367L40.547 108.371L39.6303 107.676Z" fill="#517E82"/>
<path d="M49.6845 111L55.7738 119.033L54.8294 119.691L48.7678 111.695L49.6845 111Z" fill="#517E82"/>
<path d="M39.1259 117.318L27.9029 110.479L26.3929 113.072L37.5647 119.88L39.1259 117.318Z" fill="#4EBDC5"/>
<path d="M48.6313 118L61.7741 118.025L61.7085 121.025L48.6256 121L48.6313 118Z" fill="#4EBDC5"/>
<path d="M46.288 113.715L28.7066 96.0058L26.5776 98.1195L41.7733 113.5L46.1442 113.709L46.288 113.715Z" fill="#6D72CE"/>
<path d="M44.0263 113.709L61.6077 96L63.7367 98.1136L48.2738 114L44.1701 113.703L44.0263 113.709Z" fill="#6D72CE"/>
<path d="M63.7738 96H26.2738L26.9426 103H63.7738V96Z" fill="#4EBEC5"/>
<path d="M54.4796 50H35.2147L36.7892 58.1309C34.9728 60.5527 36.76 64.0008 39.786 63.9128L48.8025 63.6506C51.5277 63.5713 53.3163 60.7711 52.2423 58.2651C51.8257 57.2929 51.8257 56.1925 52.2423 55.2203L54.4796 50Z" fill="#EFC6C6"/>
<ellipse cx="26.9708" cy="26.0076" rx="26.9708" ry="26.0076" transform="matrix(-1 0 0 1 69.6234 3.63281)" fill="#EFC6C6"/>
<path d="M65.939 13.9661L42.5995 4L18.0931 13.9661L11.7738 42.4407L19.4803 35.322L21.1316 45.2881L27.1867 36.7458L29.939 45.2881L33.7922 37.4576L37.0949 46L40.9481 38.8814L44.8014 45.2881L49.205 34.6102L53.0582 43.8644L58.5628 37.4576L61.3151 42.4407L64.0674 35.322L71.7738 43.8644L71.2234 36.7458L65.939 13.9661Z" fill="#3C2A27"/>
<path d="M65.0738 7L42.2738 0L18.3338 7L13.7738 28H70.7738L65.0738 7Z" fill="#5C7780"/>
<path d="M49.3543 22.5909C48.706 20.3401 47.0014 18.5464 44.7864 17.7846C43.3062 17.2755 41.6787 17.2707 40.1911 17.758C37.8451 18.5264 36.0052 20.4309 35.3494 22.8109L34.825 24.7143L34.7738 25H40.2609H46.3764H47.2078H48.0082H49.7738L49.6367 23.5714L49.3543 22.5909Z" fill="#3C2A27"/>
<path d="M40.6966 24.9831C40.4939 24.9825 40.2933 25.0237 40.1073 25.1042C38.9671 25.5976 38.9137 27.1946 40.0184 27.7631L40.0822 27.796C40.2939 27.9049 40.5283 27.9621 40.7663 27.9629L49.2999 27.9906L49.7465 28.005L49.7567 26.9052L49.768 25.6795L49.7695 25.5128L49.771 25.3524L49.7743 24.9985L47.5404 25.0054L40.6966 24.9831Z" fill="#415055"/>
<path d="M43.819 25.0041C44.0187 25.0034 44.2164 25.0437 44.3999 25.1225C45.5365 25.6105 45.5895 27.2022 44.488 27.7647L44.4244 27.7972C44.2155 27.9039 43.9844 27.9599 43.7499 27.9607L35.211 27.9888L34.7643 28.0031L34.7542 26.9119L34.743 25.6957L34.7415 25.5303L34.74 25.3711L34.7367 25.02L36.9706 25.0266L43.819 25.0041Z" fill="#495B60"/>
<circle cx="0.5" cy="0.5" r="0.5" transform="matrix(-1 0 0 1 48.7738 26)" fill="#293235"/>
<circle cx="0.5" cy="0.5" r="0.5" transform="matrix(-1 0 0 1 46.7738 26)" fill="#293235"/>
<circle cx="0.5" cy="0.5" r="0.5" transform="matrix(-1 0 0 1 44.7738 26)" fill="#6E888F"/>
<circle cx="0.5" cy="0.5" r="0.5" transform="matrix(-1 0 0 1 42.7738 26)" fill="#6E888F"/>
<circle cx="0.5" cy="0.5" r="0.5" transform="matrix(-1 0 0 1 40.7738 26)" fill="#6E888F"/>
<circle cx="0.5" cy="0.5" r="0.5" transform="matrix(-1 0 0 1 38.7738 26)" fill="#6E888F"/>
<circle cx="0.5" cy="0.5" r="0.5" transform="matrix(-1 0 0 1 36.7738 26)" fill="#6E888F"/>
<rect width="10.3434" height="7.70596" transform="matrix(-0.845136 -0.534552 -0.534552 0.845136 35.7748 119.545)" fill="url(#paint0_linear_193_1802)"/>
<rect width="10" height="8" transform="matrix(-1 0 0 1 60.2748 124.018)" fill="url(#paint1_linear_193_1802)"/>
<path d="M60.2748 132.016H50.2748L50.7738 139.5L52.2738 146.5L58.7738 147L60.2738 139.5L60.2748 132.016Z" fill="#EFC6C6"/>
<path d="M32.2748 125.016L22.7748 120.516L26.2748 133.516L33.7748 134.014L32.2748 125.016Z" fill="url(#paint2_linear_193_1802)"/>
<path d="M25.5192 131.987L19.9083 133.661C19.7807 133.699 19.6585 133.753 19.5446 133.822C18.157 134.663 18.8091 136.8 20.4298 136.723L24.6388 136.522C24.729 136.518 24.8194 136.523 24.9086 136.537L33.2107 137.86C33.6563 137.931 34.0745 137.625 34.1424 137.179L34.2657 136.37L33.7745 134.516L34.4032 132.982C34.562 132.595 34.0992 132.251 33.7745 132.516L33.5457 132.744C33.0453 133.245 32.3951 133.568 31.6941 133.665C31.439 133.7 31.1807 133.705 30.9245 133.679L29.6553 133.551C29.2318 133.509 28.8119 133.436 28.399 133.332L27.8744 133.201C27.3079 133.06 26.7678 132.828 26.2745 132.516L26.2743 131.016L25.519 130.154L25.5192 131.987Z" fill="#372828"/>
<path d="M59.6616 146.146L64.3286 149.285C64.4347 149.357 64.5313 149.442 64.616 149.537C65.6481 150.705 64.4389 152.479 62.9747 151.944L59.1722 150.557C59.0907 150.527 59.0063 150.506 58.9205 150.493L50.9288 149.332C50.4998 149.27 50.2037 148.87 50.269 148.442L50.3874 147.664L51.368 146.104L51.23 144.518C51.1951 144.117 51.7178 143.935 51.94 144.27L52.0844 144.545C52.4002 145.147 52.904 145.63 53.5191 145.919C53.743 146.024 53.9785 146.103 54.2209 146.152L55.4213 146.398C55.8219 146.48 56.2279 146.533 56.6361 146.556L57.1546 146.586C57.7146 146.618 58.2762 146.56 58.8179 146.415L59.247 145.039L60.186 144.465L59.6616 146.146Z" fill="#372828"/>
<rect x="62.4281" y="54.873" width="22.3437" height="9.30704" rx="4.65352" transform="rotate(-45.2274 62.4281 54.873)" fill="url(#paint3_linear_193_1802)"/>
<path d="M74.829 28.5054C74.8483 26.6465 76.0848 25.0205 77.8708 24.5052C80.5034 23.7456 83.1484 25.6639 83.244 28.4022L83.7666 43.3686C83.8543 45.879 81.8903 47.985 79.38 48.0727C76.7889 48.1632 74.6465 46.0727 74.6734 43.4801L74.829 28.5054Z" fill="url(#paint4_linear_193_1802)"/>
<rect width="12.1767" height="9.63245" transform="matrix(-0.78886 0.614573 0.614573 0.78886 67.4193 49.9824)" fill="white"/>
<rect width="23.1249" height="9.63245" rx="4.81622" transform="matrix(-0.999848 -0.0174524 -0.0174524 0.999848 26.7328 60.5703)" fill="url(#paint5_linear_193_1802)"/>
<path d="M2.83541 65.1312C3.1025 67.0366 4.5879 68.541 6.48965 68.8323C9.29271 69.2618 11.7523 66.941 11.4861 64.1177L10.0317 48.687C9.7877 46.0988 7.49178 44.1984 4.90357 44.4424C2.23208 44.6942 0.311237 47.1248 0.68375 49.7822L2.83541 65.1312Z" fill="url(#paint6_linear_193_1802)"/>
<path d="M34.7738 64.6406L23.2364 59.624L18.4189 70.1755L30.9793 73.3675L34.7738 64.6406Z" fill="white"/>
<defs>
<linearGradient id="paint0_linear_193_1802" x1="5.17171" y1="0" x2="4.83342" y2="4.43167" gradientUnits="userSpaceOnUse">
<stop stop-color="#EFC6C6"/>
<stop offset="1" stop-color="#C4A1A1"/>
</linearGradient>
<linearGradient id="paint1_linear_193_1802" x1="5" y1="8" x2="5" y2="0" gradientUnits="userSpaceOnUse">
<stop stop-color="#EFC6C6"/>
<stop offset="1" stop-color="#AE8E8E"/>
</linearGradient>
<linearGradient id="paint2_linear_193_1802" x1="34.5237" y1="124.728" x2="34.5237" y2="137.728" gradientUnits="userSpaceOnUse">
<stop stop-color="#C4A1A1"/>
<stop offset="1" stop-color="#EAC2C2"/>
</linearGradient>
<linearGradient id="paint3_linear_193_1802" x1="77.4141" y1="59.5098" x2="61.4407" y2="55.5052" gradientUnits="userSpaceOnUse">
<stop stop-color="#EFC6C6"/>
<stop offset="1" stop-color="#987F7F"/>
</linearGradient>
<linearGradient id="paint4_linear_193_1802" x1="77.7748" y1="46" x2="72.0739" y2="27.3058" gradientUnits="userSpaceOnUse">
<stop stop-color="#EFC6C6"/>
<stop offset="1" stop-color="#B29494"/>
</linearGradient>
<linearGradient id="paint5_linear_193_1802" x1="13.6346" y1="5.16648" x2="2.16233" y2="4.6673" gradientUnits="userSpaceOnUse">
<stop stop-color="#EFC6C6"/>
<stop offset="1" stop-color="#987F7F"/>
</linearGradient>
<linearGradient id="paint6_linear_193_1802" x1="7.01016" y1="61.5" x2="11.7457" y2="48.8307" gradientUnits="userSpaceOnUse">
<stop stop-color="#EFC6C6"/>
<stop offset="1" stop-color="#B29494"/>
</linearGradient>
</defs>
</svg>
