<svg width="126" height="186" viewBox="0 0 126 186" fill="none" xmlns="http://www.w3.org/2000/svg">
<path d="M42.0601 59.321C42.8286 56.3823 45.834 54.623 48.7727 55.3916L78.764 63.2351C81.7028 64.0036 83.462 67.009 82.6935 69.9477C81.9249 72.8864 78.9196 74.6457 75.9809 73.8771L45.9895 66.0337C43.0508 65.2651 41.2915 62.2598 42.0601 59.321Z" fill="white"/>
<rect x="69.6299" y="122.074" width="10.3434" height="33.4906" transform="rotate(-11.6229 69.6299 122.074)" fill="url(#paint0_linear_197_2094)"/>
<path d="M43.2876 118.471L50.0263 126.692L40.4178 136.449L31.06 147.74L23.3604 141.36L43.2876 118.471Z" fill="url(#paint1_linear_197_2094)"/>
<path d="M23.8628 141.111L33.5498 143.594L29.7772 156.306L25.2478 167.939L18.7315 167.183L20.5745 153.948L23.8628 141.111Z" fill="#EFC6C6"/>
<path d="M76.6213 153.461L86.5795 151.912L86.8404 161.687L85.147 178.842L79.075 177.598L76.6213 153.461Z" fill="url(#paint2_linear_197_2094)"/>
<path d="M86.1919 175.535L90.4916 179.509C90.5893 179.599 90.6752 179.702 90.747 179.814C91.6222 181.18 90.0952 182.811 88.6743 182.028L84.9842 179.993C84.9051 179.95 84.8218 179.914 84.7354 179.888L76.6999 177.417C76.2686 177.285 76.0278 176.826 76.1634 176.396L76.4093 175.615L77.6672 174.167L77.7784 172.513C77.8065 172.096 78.3734 171.991 78.5484 172.372L78.653 172.678C78.8817 173.347 79.3229 173.924 79.9096 174.32C80.123 174.464 80.3528 174.582 80.5942 174.672L81.7898 175.116C82.1888 175.265 82.598 175.384 83.0141 175.473L83.5428 175.586C84.1138 175.709 84.7006 175.739 85.2811 175.676L85.9422 174.33L86.9998 173.889L86.1919 175.535Z" fill="#372828"/>
<path d="M17.924 164.514L12.3233 165.03C12.1959 165.042 12.0705 165.07 11.9502 165.113C10.4845 165.643 10.695 167.779 12.2361 168.012L16.2382 168.619C16.3239 168.632 16.4082 168.653 16.4895 168.684L24.059 171.498C24.4653 171.649 24.9169 171.44 25.0651 171.033L25.3341 170.294L25.2217 168.455L26.1035 167.129C26.3263 166.794 25.9552 166.383 25.5994 166.571L25.3407 166.743C24.7749 167.12 24.1015 167.302 23.4229 167.26C23.1761 167.245 22.9318 167.201 22.6954 167.128L21.5241 166.768C21.1333 166.648 20.7517 166.5 20.3823 166.325L19.913 166.102C19.4062 165.862 18.9411 165.542 18.5355 165.154L18.8187 163.741L18.2701 162.787L17.924 164.514Z" fill="#372828"/>
<path d="M51.062 104.002L60.588 112.13L45.8208 135L32.3213 126L51.062 104.002Z" fill="#272727"/>
<path d="M58.3213 115.998L57.4551 102.159L78.1824 103.598L84.3211 132.498L70.3215 136L66.3215 116L58.3213 115.998Z" fill="#272727"/>
<path d="M42.7095 62L84.0098 64.2793L81.12 108.589H78.2425H47.4187H45.48L42.7095 62Z" fill="white"/>
<path d="M68.8545 107.674L74.9439 115.706L73.9994 116.365L67.9378 108.369L68.8545 107.674Z" fill="#517E82"/>
<path d="M56.8579 109.807L49.9135 118.967L50.8619 119.62L57.7746 110.502L56.8579 109.807Z" fill="#517E82"/>
<path d="M65.95 116.965L80.741 115.002L81.2623 117.999L66.3312 119.941L65.95 116.965Z" fill="#4EBDC5"/>
<path d="M55.3223 121.076L43.862 112.152L42.0711 114.559L53.479 123.443L55.3223 121.076Z" fill="#4EBDC5"/>
<path d="M59.9854 115.941L79.7782 96.0049L81.9072 98.1185L64.7954 115.429L60.1385 115.926L59.9854 115.941Z" fill="#6D72CE"/>
<path d="M66.6333 115.9L46.8759 95.9996L44.747 98.1133L62.1428 115.947L66.4803 115.885L66.6333 115.9Z" fill="#6D72CE"/>
<path d="M44.7109 95.998H82.2109L81.5422 102.998H44.7109V95.998Z" fill="#4EBEC5"/>
<path d="M53.9627 50H73.2276L71.6531 58.1309C73.4695 60.5527 71.6823 64.0008 68.6563 63.9128L59.6398 63.6506C56.9146 63.5713 55.126 60.7711 56.2 58.2651C56.6166 57.2929 56.6166 56.1925 56.2 55.2203L53.9627 50Z" fill="#EFC6C6"/>
<ellipse cx="65.7897" cy="29.6404" rx="26.9708" ry="26.0076" fill="#EFC6C6"/>
<path d="M42.5033 13.9661L65.8428 4L90.3492 13.9661L96.6685 42.4407L88.962 35.322L87.3107 45.2881L81.2556 36.7458L78.5033 45.2881L74.6501 37.4576L71.3474 46L67.4941 38.8814L63.6409 45.2881L59.2373 34.6102L55.3841 43.8644L49.8795 37.4576L47.1272 42.4407L44.3749 35.322L36.6685 43.8644L37.2189 36.7458L42.5033 13.9661Z" fill="#3C2A27"/>
<path d="M43.3685 7L66.1685 0L90.1085 7L94.6685 28H37.6685L43.3685 7Z" fill="#5C7780"/>
<path d="M59.088 22.5909C59.7363 20.3401 61.4409 18.5464 63.6559 17.7846C65.1361 17.2755 66.7636 17.2707 68.2512 17.758C70.5972 18.5264 72.4371 20.4309 73.0929 22.8109L73.6173 24.7143L73.6685 25H68.1813H62.0659H61.2344H60.4341H58.6685L58.8056 23.5714L59.088 22.5909Z" fill="#3C2A27"/>
<path d="M67.7457 24.9831C67.9484 24.9825 68.149 25.0237 68.335 25.1042C69.4751 25.5976 69.5286 27.1946 68.4239 27.7631L68.3601 27.796C68.1484 27.9049 67.914 27.9621 67.676 27.9629L59.1424 27.9906L58.6958 28.005L58.6856 26.9052L58.6743 25.6795L58.6727 25.5128L58.6713 25.3524L58.668 24.9985L60.9019 25.0054L67.7457 24.9831Z" fill="#415055"/>
<path d="M64.6233 25.0041C64.4236 25.0034 64.2259 25.0437 64.0424 25.1225C62.9058 25.6105 62.8528 27.2022 63.9543 27.7647L64.0179 27.7972C64.2268 27.9039 64.4579 27.9599 64.6924 27.9607L73.2313 27.9888L73.678 28.0031L73.688 26.9119L73.6993 25.6957L73.7008 25.5303L73.7023 25.3711L73.7056 25.02L71.4717 25.0266L64.6233 25.0041Z" fill="#495B60"/>
<circle cx="60.1685" cy="26.5" r="0.5" fill="#293235"/>
<circle cx="62.1685" cy="26.5" r="0.5" fill="#293235"/>
<circle cx="64.1685" cy="26.5" r="0.5" fill="#6E888F"/>
<circle cx="66.1685" cy="26.5" r="0.5" fill="#6E888F"/>
<circle cx="68.1685" cy="26.5" r="0.5" fill="#6E888F"/>
<circle cx="70.1685" cy="26.5" r="0.5" fill="#6E888F"/>
<circle cx="72.1685" cy="26.5" r="0.5" fill="#6E888F"/>
<rect width="36" height="9.30704" rx="4.65352" transform="matrix(-0.809017 -0.587785 -0.587785 0.809017 47.3315 55.209)" fill="url(#paint3_linear_197_2094)"/>
<path d="M23.5403 17.0136C23.5396 15.2496 22.434 13.6751 20.7751 13.0755C18.1024 12.1096 15.2641 14.0288 15.1649 16.8689L14.4084 38.5324C14.3203 41.0556 16.2943 43.1724 18.8175 43.2605C21.4038 43.3509 23.5494 41.2781 23.5484 38.6902L23.5403 17.0136Z" fill="url(#paint4_linear_197_2094)"/>
<rect x="41.0225" y="49.9883" width="12.1767" height="9.63245" transform="rotate(37.9209 41.0225 49.9883)" fill="white"/>
<rect x="87.2378" y="67.6172" width="33.6296" height="9.63245" rx="4.81622" transform="rotate(51 87.2378 67.6172)" fill="url(#paint5_linear_197_2094)"/>
<path d="M100.972 98.0008C99.3096 96.9154 98.5863 94.8473 99.2095 92.9627C100.08 90.3292 103.15 89.16 105.552 90.5469L115.264 96.154C117.505 97.4475 118.272 100.312 116.979 102.553C115.635 104.88 112.612 105.602 110.361 104.132L100.972 98.0008Z" fill="url(#paint6_linear_197_2094)"/>
<path d="M81.6592 64.0547L92.0369 71.1668L85.6545 80.8522L76.2796 71.9043L81.6592 64.0547Z" fill="white"/>
<defs>
<linearGradient id="paint0_linear_197_2094" x1="74.8016" y1="122.074" x2="69.012" y2="139.526" gradientUnits="userSpaceOnUse">
<stop stop-color="#EFC6C6"/>
<stop offset="1" stop-color="#C4A1A1"/>
</linearGradient>
<linearGradient id="paint1_linear_197_2094" x1="27.2101" y1="144.55" x2="45.9257" y2="121.966" gradientUnits="userSpaceOnUse">
<stop stop-color="#EFC6C6"/>
<stop offset="1" stop-color="#AE8E8E"/>
</linearGradient>
<linearGradient id="paint2_linear_197_2094" x1="81.5783" y1="165.631" x2="80.026" y2="182.008" gradientUnits="userSpaceOnUse">
<stop stop-color="#C4A1A1"/>
<stop offset="1" stop-color="#EAC2C2"/>
</linearGradient>
<linearGradient id="paint3_linear_197_2094" x1="24.1453" y1="4.63672" x2="0.628542" y2="-4.86252" gradientUnits="userSpaceOnUse">
<stop stop-color="#EFC6C6"/>
<stop offset="1" stop-color="#987F7F"/>
</linearGradient>
<linearGradient id="paint4_linear_197_2094" x1="20.4205" y1="40.583" x2="29.2008" y2="17.6342" gradientUnits="userSpaceOnUse">
<stop stop-color="#EFC6C6"/>
<stop offset="1" stop-color="#B29494"/>
</linearGradient>
<linearGradient id="paint5_linear_197_2094" x1="107.066" y1="72.7837" x2="90.4175" y2="71.7302" gradientUnits="userSpaceOnUse">
<stop stop-color="#EFC6C6"/>
<stop offset="1" stop-color="#987F7F"/>
</linearGradient>
<linearGradient id="paint6_linear_197_2094" x1="104.943" y1="95.0571" x2="116.338" y2="96.6973" gradientUnits="userSpaceOnUse">
<stop stop-color="#EFC6C6"/>
<stop offset="1" stop-color="#B29494"/>
</linearGradient>
</defs>
</svg>
