<svg width="126" height="186" viewBox="0 0 126 186" fill="none" xmlns="http://www.w3.org/2000/svg">
<path d="M42.0601 59.321C42.8286 56.3823 45.834 54.623 48.7727 55.3916L78.764 63.2351C81.7028 64.0036 83.462 67.009 82.6935 69.9477C81.9249 72.8864 78.9196 74.6457 75.9809 73.8771L45.9895 66.0337C43.0508 65.2651 41.2915 62.2598 42.0601 59.321Z" fill="white"/>
<rect x="69.6304" y="122.074" width="10.3434" height="33.4906" transform="rotate(-11.6229 69.6304 122.074)" fill="url(#paint0_linear_197_2094)"/>
<path d="M46.9269 106.694L51.4464 116.315L39.7408 123.421L27.9021 132.076L22.0001 124.003L46.9269 106.694Z" fill="url(#paint1_linear_197_2094)"/>
<path d="M22.5854 123.098L32.2725 125.58L28.4999 138.292L23.9705 149.925L17.4542 149.169L19.2972 135.934L22.5854 123.098Z" fill="#EFC6C6"/>
<path d="M76.6208 153.461L86.579 151.912L86.8399 161.687L85.1465 178.842L79.0745 177.598L76.6208 153.461Z" fill="url(#paint2_linear_197_2094)"/>
<path d="M86.1914 175.535L90.4911 179.509C90.5888 179.599 90.6747 179.702 90.7465 179.814C91.6217 181.18 90.0947 182.811 88.6738 182.028L84.9838 179.993C84.9046 179.95 84.8213 179.914 84.7349 179.888L76.6994 177.417C76.2681 177.285 76.0273 176.826 76.1629 176.396L76.4088 175.615L77.6667 174.167L77.7779 172.513C77.806 172.096 78.3729 171.991 78.5479 172.372L78.6525 172.678C78.8812 173.347 79.3225 173.924 79.9091 174.32C80.1225 174.464 80.3523 174.582 80.5937 174.672L81.7894 175.116C82.1883 175.265 82.5975 175.384 83.0137 175.473L83.5424 175.586C84.1133 175.709 84.7002 175.739 85.2807 175.676L85.9417 174.33L86.9993 173.889L86.1914 175.535Z" fill="#372828"/>
<path d="M17.924 146.514L12.3233 147.03C12.1959 147.042 12.0705 147.07 11.9502 147.113C10.4845 147.643 10.695 149.779 12.2361 150.012L16.2382 150.619C16.3239 150.632 16.4082 150.653 16.4895 150.684L24.059 153.498C24.4653 153.649 24.9169 153.44 25.0651 153.033L25.3341 152.294L25.2217 150.455L26.1035 149.129C26.3263 148.794 25.9552 148.383 25.5994 148.571L25.3407 148.743C24.7749 149.12 24.1015 149.302 23.4229 149.26C23.1761 149.245 22.9318 149.201 22.6954 149.128L21.5241 148.768C21.1333 148.648 20.7517 148.5 20.3823 148.325L19.913 148.102C19.4062 147.862 18.9411 147.542 18.5355 147.154L18.8187 145.741L18.2701 144.787L17.924 146.514Z" fill="#372828"/>
<path d="M56.2876 102.098L61.489 113.488L38.4437 127.981L30.009 114.121L56.2876 102.098Z" fill="#272727"/>
<path d="M58.3213 116.043L57.4551 102.204L78.1824 103.643L84.3211 132.543L70.3215 136.045L66.3215 116.045L58.3213 116.043Z" fill="#272727"/>
<path d="M42.71 62L84.0103 64.2793L81.1205 108.589H78.243H47.4192H45.4805L42.71 62Z" fill="white"/>
<path d="M68.855 107.674L74.9443 115.706L73.9999 116.365L67.9383 108.369L68.855 107.674Z" fill="#517E82"/>
<path d="M56.8584 109.807L49.914 118.967L50.8623 119.62L57.7751 110.502L56.8584 109.807Z" fill="#517E82"/>
<path d="M65.9505 116.965L80.7415 115.002L81.2628 117.999L66.3317 119.941L65.9505 116.965Z" fill="#4EBDC5"/>
<path d="M55.3228 121.076L43.8625 112.152L42.0716 114.559L53.4795 123.443L55.3228 121.076Z" fill="#4EBDC5"/>
<path d="M59.9858 115.941L79.7787 96.0049L81.9077 98.1185L64.7959 115.429L60.139 115.926L59.9858 115.941Z" fill="#6D72CE"/>
<path d="M66.6338 115.9L46.8764 95.9996L44.7474 98.1133L62.1433 115.947L66.4808 115.885L66.6338 115.9Z" fill="#6D72CE"/>
<path d="M44.7114 95.998H82.2114L81.5426 102.998H44.7114V95.998Z" fill="#4EBEC5"/>
<path d="M53.9627 50H73.2276L71.6531 58.1309C73.4695 60.5527 71.6823 64.0008 68.6563 63.9128L59.6398 63.6506C56.9146 63.5713 55.126 60.7711 56.2 58.2651C56.6166 57.2929 56.6166 56.1925 56.2 55.2203L53.9627 50Z" fill="#EFC6C6"/>
<ellipse cx="65.7897" cy="29.6404" rx="26.9708" ry="26.0076" fill="#EFC6C6"/>
<path d="M42.5033 13.9661L65.8428 4L90.3492 13.9661L96.6685 42.4407L88.962 35.322L87.3107 45.2881L81.2556 36.7458L78.5033 45.2881L74.6501 37.4576L71.3474 46L67.4941 38.8814L63.6409 45.2881L59.2373 34.6102L55.3841 43.8644L49.8795 37.4576L47.1272 42.4407L44.3749 35.322L36.6685 43.8644L37.2189 36.7458L42.5033 13.9661Z" fill="#3C2A27"/>
<path d="M43.3685 7L66.1685 0L90.1085 7L94.6685 28H37.6685L43.3685 7Z" fill="#5C7780"/>
<path d="M59.088 22.5909C59.7363 20.3401 61.4409 18.5464 63.6559 17.7846C65.1361 17.2755 66.7636 17.2707 68.2512 17.758C70.5972 18.5264 72.4371 20.4309 73.0929 22.8109L73.6173 24.7143L73.6685 25H68.1813H62.0659H61.2344H60.4341H58.6685L58.8056 23.5714L59.088 22.5909Z" fill="#3C2A27"/>
<path d="M67.7457 24.9831C67.9484 24.9825 68.149 25.0237 68.335 25.1042C69.4751 25.5976 69.5286 27.1946 68.4239 27.7631L68.3601 27.796C68.1484 27.9049 67.914 27.9621 67.676 27.9629L59.1424 27.9906L58.6958 28.005L58.6856 26.9052L58.6743 25.6795L58.6727 25.5128L58.6713 25.3524L58.668 24.9985L60.9019 25.0054L67.7457 24.9831Z" fill="#415055"/>
<path d="M64.6233 25.0041C64.4236 25.0034 64.2259 25.0437 64.0424 25.1225C62.9058 25.6105 62.8528 27.2022 63.9543 27.7647L64.0179 27.7972C64.2268 27.9039 64.4579 27.9599 64.6924 27.9607L73.2313 27.9888L73.678 28.0031L73.688 26.9119L73.6993 25.6957L73.7008 25.5303L73.7023 25.3711L73.7056 25.02L71.4717 25.0266L64.6233 25.0041Z" fill="#495B60"/>
<circle cx="60.1685" cy="26.5" r="0.5" fill="#293235"/>
<circle cx="62.1685" cy="26.5" r="0.5" fill="#293235"/>
<circle cx="64.1685" cy="26.5" r="0.5" fill="#6E888F"/>
<circle cx="66.1685" cy="26.5" r="0.5" fill="#6E888F"/>
<circle cx="68.1685" cy="26.5" r="0.5" fill="#6E888F"/>
<circle cx="70.1685" cy="26.5" r="0.5" fill="#6E888F"/>
<circle cx="72.1685" cy="26.5" r="0.5" fill="#6E888F"/>
<rect width="36" height="9.30704" rx="4.65352" transform="matrix(-0.809017 -0.587785 -0.587785 0.809017 47.3315 55.209)" fill="url(#paint3_linear_197_2094)"/>
<path d="M23.5403 17.0136C23.5396 15.2496 22.434 13.6751 20.7751 13.0755C18.1024 12.1096 15.2641 14.0288 15.1649 16.8689L14.4084 38.5324C14.3203 41.0556 16.2943 43.1724 18.8175 43.2605C21.4038 43.3509 23.5494 41.2781 23.5484 38.6902L23.5403 17.0136Z" fill="url(#paint4_linear_197_2094)"/>
<rect x="41.0225" y="49.9883" width="12.1767" height="9.63245" transform="rotate(37.9209 41.0225 49.9883)" fill="white"/>
<rect x="84.3579" y="65.0977" width="26.2833" height="9.63245" rx="4.81622" transform="rotate(41.3046 84.3579 65.0977)" fill="url(#paint5_linear_197_2094)"/>
<path d="M102.188 88.2109C100.22 87.9502 98.6743 86.3977 98.422 84.4288C98.0695 81.6776 100.333 79.2966 103.098 79.5094L114.28 80.3695C116.859 80.568 118.789 82.8197 118.591 85.399C118.384 88.079 115.97 90.0361 113.305 89.6832L102.188 88.2109Z" fill="url(#paint6_linear_197_2094)"/>
<path d="M81.6592 64.0547L92.0369 71.1668L85.6545 80.8522L76.2796 71.9043L81.6592 64.0547Z" fill="white"/>
<defs>
<linearGradient id="paint0_linear_197_2094" x1="74.8021" y1="122.074" x2="69.0124" y2="139.526" gradientUnits="userSpaceOnUse">
<stop stop-color="#EFC6C6"/>
<stop offset="1" stop-color="#C4A1A1"/>
</linearGradient>
<linearGradient id="paint1_linear_197_2094" x1="31" y1="123.598" x2="48.6285" y2="110.729" gradientUnits="userSpaceOnUse">
<stop stop-color="#EFC6C6"/>
<stop offset="1" stop-color="#AE8E8E"/>
</linearGradient>
<linearGradient id="paint2_linear_197_2094" x1="81.5778" y1="165.631" x2="80.0255" y2="182.008" gradientUnits="userSpaceOnUse">
<stop stop-color="#C4A1A1"/>
<stop offset="1" stop-color="#EAC2C2"/>
</linearGradient>
<linearGradient id="paint3_linear_197_2094" x1="24.1453" y1="4.63672" x2="0.628542" y2="-4.86252" gradientUnits="userSpaceOnUse">
<stop stop-color="#EFC6C6"/>
<stop offset="1" stop-color="#987F7F"/>
</linearGradient>
<linearGradient id="paint4_linear_197_2094" x1="20.4205" y1="40.583" x2="29.2008" y2="17.6342" gradientUnits="userSpaceOnUse">
<stop stop-color="#EFC6C6"/>
<stop offset="1" stop-color="#B29494"/>
</linearGradient>
<linearGradient id="paint5_linear_197_2094" x1="99.8547" y1="70.2641" x2="86.8228" y2="69.6196" gradientUnits="userSpaceOnUse">
<stop stop-color="#EFC6C6"/>
<stop offset="1" stop-color="#987F7F"/>
</linearGradient>
<linearGradient id="paint6_linear_197_2094" x1="104.498" y1="83.8401" x2="115.483" y2="80.3955" gradientUnits="userSpaceOnUse">
<stop stop-color="#EFC6C6"/>
<stop offset="1" stop-color="#B29494"/>
</linearGradient>
</defs>
</svg>
