<svg width="86" height="143" viewBox="0 0 86 143" fill="none" xmlns="http://www.w3.org/2000/svg">
<path d="M20.8916 62.4812C21.1427 59.454 23.8002 57.2035 26.8274 57.4546L57.7213 60.0168C60.7485 60.2679 62.999 62.9254 62.7479 65.9526C62.4968 68.9798 59.8393 71.2302 56.8121 70.9792L25.9182 68.417C22.891 68.1659 20.6405 65.5084 20.8916 62.4812Z" fill="white"/>
<rect x="50.4341" y="119.549" width="10.3434" height="7.70596" transform="rotate(-32.3135 50.4341 119.549)" fill="url(#paint0_linear_193_1850)"/>
<rect x="25.0552" y="115.004" width="10" height="8" transform="rotate(26.8898 25.0552 115.004)" fill="url(#paint1_linear_193_1850)"/>
<path d="M21.438 122.004L31.437 123.004L30.437 130.488L29.438 137.488L22.938 137.988L22.437 130.488L21.438 122.004Z" fill="url(#paint2_linear_193_1850)"/>
<path d="M53.9341 125.02L63.4341 120.52L59.9341 133.52L52.4341 134.018L53.9341 125.02Z" fill="url(#paint3_linear_193_1850)"/>
<path d="M60.6897 131.991L66.3006 133.665C66.4282 133.703 66.5504 133.757 66.6643 133.826C68.0519 134.667 67.3998 136.804 65.7791 136.726L61.5701 136.526C61.4799 136.522 61.3895 136.527 61.3003 136.541L52.9982 137.863C52.5526 137.934 52.1344 137.629 52.0665 137.183L51.9432 136.374L52.4344 134.52L51.8057 132.986C51.6469 132.599 52.1097 132.255 52.4344 132.52L52.6632 132.748C53.1636 133.249 53.8138 133.572 54.5148 133.669C54.7699 133.704 55.0282 133.709 55.2844 133.683L56.5536 133.555C56.9771 133.513 57.397 133.439 57.8099 133.336L58.3345 133.205C58.901 133.063 59.4411 132.832 59.9344 132.52L59.9346 131.02L60.6898 130.158L60.6897 131.991Z" fill="#372828"/>
<path d="M21.9041 133.881L16.3191 134.546C16.1921 134.562 16.0675 134.593 15.9484 134.64C14.4973 135.208 14.7646 137.338 16.3113 137.53L20.3281 138.03C20.4142 138.04 20.499 138.06 20.5811 138.088L28.2227 140.7C28.6329 140.84 29.0788 140.619 29.2161 140.208L29.4653 139.462L29.304 137.627L30.1503 136.278C30.3641 135.937 29.9822 135.537 29.6316 135.734L29.3775 135.913C28.8219 136.304 28.1536 136.504 27.4742 136.481C27.227 136.472 26.9817 136.434 26.7434 136.368L25.5629 136.039C25.1691 135.93 24.7836 135.792 24.4097 135.626L23.9346 135.416C23.4216 135.189 22.9482 134.882 22.5325 134.505L22.778 133.085L22.2042 132.146L21.9041 133.881Z" fill="#372828"/>
<rect x="30.5029" y="101" width="12.5222" height="15.4119" transform="rotate(27.2878 30.5029 101)" fill="#272727"/>
<path d="M36.436 114.002L31.936 107.502L51.4299 100.643L59.6082 113.706L48.9945 120.351L45.436 113.002L36.436 114.002Z" fill="#272727"/>
<path d="M20.4355 62L61.7358 64.2793L58.8461 108.589H55.9686H25.1448H23.2061L20.4355 62Z" fill="white"/>
<path d="M46.5786 107.676L52.668 115.708L51.7235 116.367L45.6619 108.371L46.5786 107.676Z" fill="#517E82"/>
<path d="M36.5244 111L32.7025 116.042L33.6366 116.713L37.4411 111.695L36.5244 111Z" fill="#517E82"/>
<path d="M47.083 117.318L58.306 110.479L59.816 113.072L48.6442 119.88L47.083 117.318Z" fill="#4EBDC5"/>
<path d="M36.3921 117.354L24.8872 111L23.4893 113.655L34.9418 119.98L36.3921 117.354Z" fill="#4EBDC5"/>
<path d="M39.9209 113.715L57.5023 96.0058L59.6313 98.1195L44.4355 113.5L40.0647 113.709L39.9209 113.715Z" fill="#6D72CE"/>
<path d="M42.1826 113.709L24.6012 96L22.4722 98.1136L37.9351 114L42.0388 113.703L42.1826 113.709Z" fill="#6D72CE"/>
<path d="M22.4351 96H59.9351L59.2663 103H22.4351V96Z" fill="#4EBEC5"/>
<path d="M31.7293 50H50.9942L49.4197 58.1309C51.2361 60.5527 49.4489 64.0008 46.4229 63.9128L37.4064 63.6506C34.6812 63.5713 32.8926 60.7711 33.9666 58.2651C34.3832 57.2929 34.3832 56.1925 33.9666 55.2203L31.7293 50Z" fill="#EFC6C6"/>
<ellipse cx="43.5563" cy="29.6404" rx="26.9708" ry="26.0076" fill="#EFC6C6"/>
<path d="M20.2699 13.9661L43.6094 4L68.1158 13.9661L74.4351 42.4407L66.7286 35.322L65.0773 45.2881L59.0222 36.7458L56.2699 45.2881L52.4167 37.4576L49.114 46L45.2607 38.8814L41.4075 45.2881L37.0039 34.6102L33.1507 43.8644L27.6461 37.4576L24.8938 42.4407L22.1415 35.322L14.4351 43.8644L14.9855 36.7458L20.2699 13.9661Z" fill="#3C2A27"/>
<path d="M21.1351 7L43.9351 0L67.8751 7L72.4351 28H15.4351L21.1351 7Z" fill="#5C7780"/>
<path d="M36.8546 22.5909C37.5029 20.3401 39.2075 18.5464 41.4225 17.7846C42.9027 17.2755 44.5302 17.2707 46.0178 17.758C48.3638 18.5264 50.2037 20.4309 50.8595 22.8109L51.3839 24.7143L51.4351 25H45.9479H39.8325H39.001H38.2007H36.4351L36.5722 23.5714L36.8546 22.5909Z" fill="#3C2A27"/>
<path d="M45.5123 24.9831C45.715 24.9825 45.9156 25.0237 46.1016 25.1042C47.2418 25.5976 47.2952 27.1946 46.1905 27.7631L46.1267 27.796C45.915 27.9049 45.6806 27.9621 45.4426 27.9629L36.909 27.9906L36.4624 28.005L36.4522 26.9052L36.4409 25.6795L36.4393 25.5128L36.4379 25.3524L36.4346 24.9985L38.6685 25.0054L45.5123 24.9831Z" fill="#415055"/>
<path d="M42.3899 25.0041C42.1902 25.0034 41.9925 25.0437 41.809 25.1225C40.6724 25.6105 40.6194 27.2022 41.7209 27.7647L41.7845 27.7972C41.9934 27.9039 42.2245 27.9599 42.459 27.9607L50.9979 27.9888L51.4446 28.0031L51.4547 26.9119L51.4659 25.6957L51.4674 25.5303L51.4689 25.3711L51.4722 25.02L49.2383 25.0266L42.3899 25.0041Z" fill="#495B60"/>
<circle cx="37.9351" cy="26.5" r="0.5" fill="#293235"/>
<circle cx="39.9351" cy="26.5" r="0.5" fill="#293235"/>
<circle cx="41.9351" cy="26.5" r="0.5" fill="#6E888F"/>
<circle cx="43.9351" cy="26.5" r="0.5" fill="#6E888F"/>
<circle cx="45.9351" cy="26.5" r="0.5" fill="#6E888F"/>
<circle cx="47.9351" cy="26.5" r="0.5" fill="#6E888F"/>
<circle cx="49.9351" cy="26.5" r="0.5" fill="#6E888F"/>
<rect width="22.3437" height="7.88901" rx="3.9445" transform="matrix(-0.993739 -0.111726 -0.111726 0.993739 24.2217 57.8906)" fill="url(#paint4_linear_193_1850)"/>
<path d="M9.09672 42.6909C9.07741 40.8321 7.84093 39.2061 6.05485 38.6907C3.42227 37.9311 0.777309 39.8495 0.681685 42.5878L0.159047 57.5542C0.0713845 60.0645 2.03534 62.1706 4.54566 62.2583C7.13677 62.3487 9.27919 60.2582 9.25226 57.6657L9.09672 42.6909Z" fill="url(#paint5_linear_193_1850)"/>
<rect x="15.1919" y="55.875" width="12.1767" height="9.63245" transform="rotate(9.90251 15.1919 55.875)" fill="white"/>
<rect x="59.1562" y="60.5742" width="23.1249" height="9.63245" rx="4.81622" transform="rotate(-1 59.1562 60.5742)" fill="url(#paint6_linear_193_1850)"/>
<path d="M83.0537 65.1332C82.7866 67.0385 81.3012 68.543 79.3994 68.8343C76.5964 69.2637 74.1368 66.9429 74.4029 64.1197L75.8574 48.689C76.1014 46.1007 78.3973 44.2004 80.9855 44.4443C83.657 44.6961 85.5778 47.1268 85.2053 49.7841L83.0537 65.1332Z" fill="url(#paint7_linear_193_1850)"/>
<path d="M51.1152 64.6426L62.6527 59.626L67.4702 70.1774L54.9098 73.3694L51.1152 64.6426Z" fill="white"/>
<defs>
<linearGradient id="paint0_linear_193_1850" x1="55.6058" y1="119.549" x2="55.2675" y2="123.98" gradientUnits="userSpaceOnUse">
<stop stop-color="#EFC6C6"/>
<stop offset="1" stop-color="#C4A1A1"/>
</linearGradient>
<linearGradient id="paint1_linear_193_1850" x1="30.0552" y1="115.004" x2="31.0094" y2="119.268" gradientUnits="userSpaceOnUse">
<stop stop-color="#EFC6C6"/>
<stop offset="1" stop-color="#C39B9B"/>
</linearGradient>
<linearGradient id="paint2_linear_193_1850" x1="25.937" y1="132" x2="25.937" y2="124" gradientUnits="userSpaceOnUse">
<stop stop-color="#EFC6C6"/>
<stop offset="1" stop-color="#C39B9B"/>
</linearGradient>
<linearGradient id="paint3_linear_193_1850" x1="51.6852" y1="124.732" x2="51.6852" y2="137.732" gradientUnits="userSpaceOnUse">
<stop stop-color="#C4A1A1"/>
<stop offset="1" stop-color="#EAC2C2"/>
</linearGradient>
<linearGradient id="paint4_linear_193_1850" x1="14.986" y1="3.93026" x2="-0.6257" y2="-0.687186" gradientUnits="userSpaceOnUse">
<stop stop-color="#EFC6C6"/>
<stop offset="1" stop-color="#987F7F"/>
</linearGradient>
<linearGradient id="paint5_linear_193_1850" x1="6.15088" y1="60.1855" x2="11.8517" y2="41.4914" gradientUnits="userSpaceOnUse">
<stop stop-color="#EFC6C6"/>
<stop offset="1" stop-color="#B29494"/>
</linearGradient>
<linearGradient id="paint6_linear_193_1850" x1="72.7908" y1="65.7407" x2="61.3186" y2="65.2415" gradientUnits="userSpaceOnUse">
<stop stop-color="#EFC6C6"/>
<stop offset="1" stop-color="#987F7F"/>
</linearGradient>
<linearGradient id="paint7_linear_193_1850" x1="78.8789" y1="61.502" x2="74.1434" y2="48.8327" gradientUnits="userSpaceOnUse">
<stop stop-color="#EFC6C6"/>
<stop offset="1" stop-color="#B29494"/>
</linearGradient>
</defs>
</svg>
