<svg width="126" height="186" viewBox="0 0 126 186" fill="none" xmlns="http://www.w3.org/2000/svg">
<path d="M83.6435 59.321C82.875 56.3823 79.8696 54.623 76.9309 55.3916L46.9396 63.2351C44.0008 64.0036 42.2416 67.009 43.0101 69.9477C43.7787 72.8864 46.784 74.6457 49.7228 73.8771L79.7141 66.0337C82.6528 65.2651 84.4121 62.2598 83.6435 59.321Z" fill="white"/>
<rect width="10.3434" height="33.4906" transform="matrix(-0.979495 -0.20147 -0.20147 0.979495 56.0737 122.074)" fill="url(#paint0_linear_197_1947)"/>
<path d="M82.416 118.471L75.6773 126.692L85.2858 136.449L94.6436 147.74L102.343 141.36L82.416 118.471Z" fill="url(#paint1_linear_197_1947)"/>
<path d="M101.841 141.111L92.1538 143.594L95.9264 156.306L100.456 167.939L106.972 167.183L105.129 153.948L101.841 141.111Z" fill="#EFC6C6"/>
<path d="M49.0824 153.461L39.1241 151.912L38.8632 161.687L40.5566 178.842L46.6286 177.598L49.0824 153.461Z" fill="url(#paint2_linear_197_1947)"/>
<path d="M39.5117 175.535L35.2121 179.509C35.1143 179.599 35.0284 179.702 34.9566 179.814C34.0814 181.18 35.6084 182.811 37.0293 182.028L40.7194 179.993C40.7985 179.95 40.8819 179.914 40.9682 179.888L49.0037 177.417C49.435 177.285 49.6758 176.826 49.5403 176.396L49.2943 175.615L48.0364 174.167L47.9252 172.513C47.8971 172.096 47.3303 171.991 47.1552 172.372L47.0506 172.678C46.8219 173.347 46.3807 173.924 45.7941 174.32C45.5806 174.464 45.3508 174.582 45.1094 174.672L43.9138 175.116C43.5148 175.265 43.1056 175.384 42.6895 175.473L42.1608 175.586C41.5898 175.709 41.003 175.739 40.4225 175.676L39.7614 174.33L38.7038 173.889L39.5117 175.535Z" fill="#372828"/>
<path d="M107.78 164.514L113.38 165.03C113.508 165.042 113.633 165.07 113.753 165.113C115.219 165.643 115.009 167.779 113.468 168.012L109.465 168.619C109.38 168.632 109.295 168.653 109.214 168.684L101.645 171.498C101.238 171.649 100.787 171.44 100.638 171.033L100.37 170.294L100.482 168.455L99.6001 167.129C99.3774 166.794 99.7484 166.383 100.104 166.571L100.363 166.743C100.929 167.12 101.602 167.302 102.281 167.26C102.528 167.245 102.772 167.201 103.008 167.128L104.179 166.768C104.57 166.648 104.952 166.5 105.321 166.325L105.791 166.102C106.297 165.862 106.762 165.542 107.168 165.154L106.885 163.741L107.434 162.787L107.78 164.514Z" fill="#372828"/>
<path d="M74.6416 104.002L65.1156 112.13L79.8828 135L93.3823 126L74.6416 104.002Z" fill="#272727"/>
<path d="M67.3823 115.998L68.2485 102.159L47.5212 103.598L41.3826 132.498L55.3821 136L59.3821 116L67.3823 115.998Z" fill="#272727"/>
<path d="M82.9941 62L41.6938 64.2793L44.5836 108.589H47.4611H78.2849H80.2236L82.9941 62Z" fill="white"/>
<path d="M56.8477 107.672L50.7583 115.704L51.7027 116.363L57.7643 108.367L56.8477 107.672Z" fill="#517E82"/>
<path d="M68.8447 109.805L75.7891 118.965L74.8408 119.618L67.928 110.5L68.8447 109.805Z" fill="#517E82"/>
<path d="M59.7527 116.963L44.9616 115L44.4403 117.997L59.3714 119.939L59.7527 116.963Z" fill="#4EBDC5"/>
<path d="M70.3804 121.074L81.8406 112.15L83.6316 114.557L72.2236 123.441L70.3804 121.074Z" fill="#4EBDC5"/>
<path d="M66.0312 116.256L45.9252 96.0039L43.7962 98.1175L61.1794 115.701L65.8768 116.239L66.0312 116.256Z" fill="#6D72CE"/>
<path d="M58.8862 116.082L78.8266 95.9969L80.9556 98.1106L63.3972 116.108L59.04 116.066L58.8862 116.082Z" fill="#6D72CE"/>
<path d="M80.9912 95.9961H43.4912L44.16 102.996H80.9912V95.9961Z" fill="#4EBEC5"/>
<path d="M71.7409 50H52.476L54.0505 58.1309C52.2341 60.5527 54.0213 64.0008 57.0473 63.9128L66.0638 63.6506C68.789 63.5713 70.5776 60.7711 69.5036 58.2651C69.087 57.2929 69.087 56.1925 69.5036 55.2203L71.7409 50Z" fill="#EFC6C6"/>
<ellipse cx="26.9708" cy="26.0076" rx="26.9708" ry="26.0076" transform="matrix(-1 0 0 1 86.8848 3.63281)" fill="#EFC6C6"/>
<path d="M83.2003 13.9661L59.8608 4L35.3544 13.9661L29.0352 42.4407L36.7416 35.322L38.393 45.2881L44.448 36.7458L47.2003 45.2881L51.0535 37.4576L54.3563 46L58.2095 38.8814L62.0627 45.2881L66.4663 34.6102L70.3196 43.8644L75.8241 37.4576L78.5764 42.4407L81.3287 35.322L89.0352 43.8644L88.4847 36.7458L83.2003 13.9661Z" fill="#3C2A27"/>
<path d="M82.3352 7L59.5352 0L35.5952 7L31.0352 28H88.0352L82.3352 7Z" fill="#5C7780"/>
<path d="M66.6156 22.5909C65.9674 20.3401 64.2627 18.5464 62.0477 17.7846C60.5675 17.2755 58.94 17.2707 57.4524 17.758C55.1064 18.5264 53.2665 20.4309 52.6108 22.8109L52.0863 24.7143L52.0352 25H57.5223H63.6377H64.4692H65.2696H67.0352L66.898 23.5714L66.6156 22.5909Z" fill="#3C2A27"/>
<path d="M57.9579 24.9831C57.7552 24.9825 57.5546 25.0237 57.3686 25.1042C56.2285 25.5976 56.1751 27.1946 57.2797 27.7631L57.3436 27.796C57.5552 27.9049 57.7896 27.9621 58.0276 27.9629L66.5612 27.9906L67.0078 28.005L67.018 26.9052L67.0293 25.6795L67.0309 25.5128L67.0324 25.3524L67.0356 24.9985L64.8018 25.0054L57.9579 24.9831Z" fill="#415055"/>
<path d="M61.0803 25.0041C61.28 25.0034 61.4778 25.0437 61.6613 25.1225C62.7978 25.6105 62.8508 27.2022 61.7493 27.7647L61.6857 27.7972C61.4768 27.9039 61.2457 27.9599 61.0112 27.9607L52.4723 27.9888L52.0257 28.0031L52.0156 26.9119L52.0043 25.6957L52.0028 25.5303L52.0013 25.3711L51.9981 25.02L54.2319 25.0266L61.0803 25.0041Z" fill="#495B60"/>
<circle cx="0.5" cy="0.5" r="0.5" transform="matrix(-1 0 0 1 66.0352 26)" fill="#293235"/>
<circle cx="0.5" cy="0.5" r="0.5" transform="matrix(-1 0 0 1 64.0352 26)" fill="#293235"/>
<circle cx="0.5" cy="0.5" r="0.5" transform="matrix(-1 0 0 1 62.0352 26)" fill="#6E888F"/>
<circle cx="0.5" cy="0.5" r="0.5" transform="matrix(-1 0 0 1 60.0352 26)" fill="#6E888F"/>
<circle cx="0.5" cy="0.5" r="0.5" transform="matrix(-1 0 0 1 58.0352 26)" fill="#6E888F"/>
<circle cx="0.5" cy="0.5" r="0.5" transform="matrix(-1 0 0 1 56.0352 26)" fill="#6E888F"/>
<circle cx="0.5" cy="0.5" r="0.5" transform="matrix(-1 0 0 1 54.0352 26)" fill="#6E888F"/>
<rect x="78.3721" y="55.209" width="36" height="9.30704" rx="4.65352" transform="rotate(-36 78.3721 55.209)" fill="url(#paint3_linear_197_1947)"/>
<path d="M102.163 17.0136C102.163 15.2496 103.269 13.6751 104.928 13.0755C107.601 12.1096 110.439 14.0288 110.538 16.8689L111.295 38.5324C111.383 41.0556 109.409 43.1724 106.886 43.2605C104.299 43.3509 102.154 41.2781 102.155 38.6902L102.163 17.0136Z" fill="url(#paint4_linear_197_1947)"/>
<rect width="12.1767" height="9.63245" transform="matrix(-0.78886 0.614573 0.614573 0.78886 84.6807 49.9863)" fill="white"/>
<rect width="33.6296" height="9.63245" rx="4.81622" transform="matrix(-0.62932 0.777146 0.777146 0.62932 38.4658 67.6172)" fill="url(#paint5_linear_197_1947)"/>
<path d="M24.732 98.0008C26.394 96.9154 27.1173 94.8473 26.4941 92.9627C25.6232 90.3292 22.5533 89.16 20.1512 90.5469L10.4393 96.154C8.19897 97.4475 7.43138 100.312 8.72483 102.553C10.0688 104.88 13.0918 105.602 15.3423 104.132L24.732 98.0008Z" fill="url(#paint6_linear_197_1947)"/>
<path d="M44.0444 64.0547L33.6667 71.1668L40.0491 80.8522L49.424 71.9043L44.0444 64.0547Z" fill="white"/>
<defs>
<linearGradient id="paint0_linear_197_1947" x1="5.17171" y1="0" x2="-0.617924" y2="17.4518" gradientUnits="userSpaceOnUse">
<stop stop-color="#EFC6C6"/>
<stop offset="1" stop-color="#C4A1A1"/>
</linearGradient>
<linearGradient id="paint1_linear_197_1947" x1="98.4935" y1="144.55" x2="79.7779" y2="121.966" gradientUnits="userSpaceOnUse">
<stop stop-color="#EFC6C6"/>
<stop offset="1" stop-color="#AE8E8E"/>
</linearGradient>
<linearGradient id="paint2_linear_197_1947" x1="44.1253" y1="165.631" x2="45.6776" y2="182.008" gradientUnits="userSpaceOnUse">
<stop stop-color="#C4A1A1"/>
<stop offset="1" stop-color="#EAC2C2"/>
</linearGradient>
<linearGradient id="paint3_linear_197_1947" x1="102.517" y1="59.8457" x2="79.0006" y2="50.3465" gradientUnits="userSpaceOnUse">
<stop stop-color="#EFC6C6"/>
<stop offset="1" stop-color="#987F7F"/>
</linearGradient>
<linearGradient id="paint4_linear_197_1947" x1="105.283" y1="40.583" x2="96.5023" y2="17.6342" gradientUnits="userSpaceOnUse">
<stop stop-color="#EFC6C6"/>
<stop offset="1" stop-color="#B29494"/>
</linearGradient>
<linearGradient id="paint5_linear_197_1947" x1="19.8282" y1="5.16648" x2="3.17967" y2="4.11299" gradientUnits="userSpaceOnUse">
<stop stop-color="#EFC6C6"/>
<stop offset="1" stop-color="#987F7F"/>
</linearGradient>
<linearGradient id="paint6_linear_197_1947" x1="20.7604" y1="95.0571" x2="9.36552" y2="96.6973" gradientUnits="userSpaceOnUse">
<stop stop-color="#EFC6C6"/>
<stop offset="1" stop-color="#B29494"/>
</linearGradient>
</defs>
</svg>
