<svg width="47" height="49" viewBox="0 0 47 49" fill="none" xmlns="http://www.w3.org/2000/svg">
<g filter="url(#filter0_n_192_1616)">
<path d="M6.77583 22.972C3.34803 20.9626 2.7442 16.2558 5.55378 13.4462L7.96143 11.0386C8.31979 10.6802 8.70878 10.3539 9.12397 10.0632L10.2835 9.25157C18.3225 3.62426 28.9193 3.2516 37.3338 8.30027L40.1398 9.98389C40.7118 10.3271 41.2477 10.7271 41.7395 11.1778L44.5176 13.7245C46.0007 15.0839 46.4494 17.2388 45.6323 19.0773C45.2218 20.0009 44.5234 20.7669 43.6416 21.2607L36.3792 25.3277C34.061 26.6258 32.8297 29.2585 33.3194 31.8699L33.5081 32.8765C34.3493 37.363 29.8023 40.9459 25.6371 39.0787L25.367 38.9576C22.8834 37.8443 19.96 38.7828 18.5886 41.1338C16.5362 44.6521 11.4544 44.6576 9.39452 41.1436L7.64964 38.167C6.41958 36.0687 6.93532 33.3836 8.85526 31.8904C11.5602 29.7865 11.287 25.6165 8.33076 23.8835L6.77583 22.972Z" fill="url(#paint0_linear_192_1616)"/>
</g>
<circle cx="22.5" cy="28" r="5" fill="url(#paint1_radial_192_1616)"/>
<circle cx="22.5" cy="28" r="4" fill="#766868"/>
<path d="M20.25 25.75L22.5 25L24.75 25.75L25.5 28L24.75 30.25L22.5 31L20.25 30.25L19.5 28L20.25 25.75Z" fill="#D9D9D9"/>
<defs>
<filter id="filter0_n_192_1616" x="3.77588" y="4.75781" width="42.2603" height="39.0176" filterUnits="userSpaceOnUse" color-interpolation-filters="sRGB">
<feFlood flood-opacity="0" result="BackgroundImageFix"/>
<feBlend mode="normal" in="SourceGraphic" in2="BackgroundImageFix" result="shape"/>
<feTurbulence type="fractalNoise" baseFrequency="3.3333332538604736 5" stitchTiles="stitch" numOctaves="3" result="noise" seed="9188" />
<feColorMatrix in="noise" type="luminanceToAlpha" result="alphaNoise" />
<feComponentTransfer in="alphaNoise" result="coloredNoise1">
<feFuncA type="discrete" tableValues="1 1 1 1 1 1 1 1 1 1 1 1 1 1 1 1 1 1 1 1 1 1 1 1 1 1 1 1 1 1 1 1 1 1 1 1 1 1 1 1 1 1 1 1 1 1 1 1 1 1 1 0 0 0 0 0 0 0 0 0 0 0 0 0 0 0 0 0 0 0 0 0 0 0 0 0 0 0 0 0 0 0 0 0 0 0 0 0 0 0 0 0 0 0 0 0 0 0 0 0 "/>
</feComponentTransfer>
<feComposite operator="in" in2="shape" in="coloredNoise1" result="noise1Clipped" />
<feFlood flood-color="rgba(66, 3, 3, 0.25)" result="color1Flood" />
<feComposite operator="in" in2="noise1Clipped" in="color1Flood" result="color1" />
<feMerge result="effect1_noise_192_1616">
<feMergeNode in="shape" />
<feMergeNode in="color1" />
</feMerge>
</filter>
<linearGradient id="paint0_linear_192_1616" x1="24.5" y1="18.5" x2="24" y2="59.5" gradientUnits="userSpaceOnUse">
<stop stop-color="#4CD113"/>
<stop offset="1" stop-color="#1E3D2B"/>
</linearGradient>
<radialGradient id="paint1_radial_192_1616" cx="0" cy="0" r="1" gradientUnits="userSpaceOnUse" gradientTransform="translate(22.5 28) rotate(90) scale(5)">
<stop offset="0.774038" stop-color="#3B2F2F"/>
<stop offset="1" stop-color="#4CCB13"/>
</radialGradient>
</defs>
</svg>
