<svg width="75" height="59" viewBox="0 0 75 59" fill="none" xmlns="http://www.w3.org/2000/svg">
<g filter="url(#filter0_n_192_1615)">
<path d="M3.47064 10.3767C7.20828 4.85921 14.9289 3.85124 19.9578 8.22418C21.2996 9.391 22.902 10.2187 24.6301 10.6376L30.7298 12.1163C35.8337 13.3536 41.1616 13.3346 46.2565 12.0609L51.9523 10.6369C53.6227 10.2193 55.1575 9.37906 56.4092 8.19687C60.3577 4.46775 66.5563 4.55629 70.3967 8.39666L70.5457 8.54568C72.1375 10.1375 73.1637 12.2278 73.4612 14.4593C74.2811 20.6079 69.6267 26.1853 63.4274 26.3991L60.8857 26.4867C53.0538 26.7568 47.3007 33.9371 48.7449 41.6394L48.7781 41.8165C48.9257 42.6038 49 43.4031 49 44.2041V49.0437C49 51.5342 47.8274 53.8795 45.8349 55.3738C42.9804 57.5147 39.046 57.4802 36.2294 55.2895L30.2128 50.6099C28.4206 49.2161 26.9102 47.4938 25.762 45.5352L22.1714 39.41C20.1786 36.0105 16.6811 33.7681 12.7601 33.376C7.51933 32.8519 3.18992 29.0571 1.98358 23.9302L1.20016 20.6007C0.435208 17.3496 1.06569 13.9268 2.93882 11.1617L3.47064 10.3767Z" fill="url(#paint0_linear_192_1615)"/>
</g>
<circle cx="36" cy="27.5" r="5" fill="url(#paint1_radial_192_1615)"/>
<circle cx="36" cy="27.5" r="4" fill="#766868"/>
<path d="M33.75 25.25L36 24.5L38.25 25.25L39 27.5L38.25 29.75L36 30.5L33.75 29.75L33 27.5L33.75 25.25Z" fill="#D9D9D9"/>
<defs>
<filter id="filter0_n_192_1615" x="0.882324" y="5.45703" width="72.6729" height="51.5" filterUnits="userSpaceOnUse" color-interpolation-filters="sRGB">
<feFlood flood-opacity="0" result="BackgroundImageFix"/>
<feBlend mode="normal" in="SourceGraphic" in2="BackgroundImageFix" result="shape"/>
<feTurbulence type="fractalNoise" baseFrequency="3.3333332538604736 5" stitchTiles="stitch" numOctaves="3" result="noise" seed="9188" />
<feColorMatrix in="noise" type="luminanceToAlpha" result="alphaNoise" />
<feComponentTransfer in="alphaNoise" result="coloredNoise1">
<feFuncA type="discrete" tableValues="1 1 1 1 1 1 1 1 1 1 1 1 1 1 1 1 1 1 1 1 1 1 1 1 1 1 1 1 1 1 1 1 1 1 1 1 1 1 1 1 1 1 1 1 1 1 1 1 1 1 1 0 0 0 0 0 0 0 0 0 0 0 0 0 0 0 0 0 0 0 0 0 0 0 0 0 0 0 0 0 0 0 0 0 0 0 0 0 0 0 0 0 0 0 0 0 0 0 0 0 "/>
</feComponentTransfer>
<feComposite operator="in" in2="shape" in="coloredNoise1" result="noise1Clipped" />
<feFlood flood-color="rgba(66, 3, 3, 0.25)" result="color1Flood" />
<feComposite operator="in" in2="noise1Clipped" in="color1Flood" result="color1" />
<feMerge result="effect1_noise_192_1615">
<feMergeNode in="shape" />
<feMergeNode in="color1" />
</feMerge>
</filter>
<linearGradient id="paint0_linear_192_1615" x1="38" y1="18" x2="37.5" y2="59" gradientUnits="userSpaceOnUse">
<stop stop-color="#E05050"/>
<stop offset="1" stop-color="#7A2B2B"/>
</linearGradient>
<radialGradient id="paint1_radial_192_1615" cx="0" cy="0" r="1" gradientUnits="userSpaceOnUse" gradientTransform="translate(36 27.5) rotate(174.289) scale(5.02494)">
<stop offset="0.778846" stop-color="#3B2F2F"/>
<stop offset="1" stop-color="#B83D3D"/>
</radialGradient>
</defs>
</svg>
