<svg width="45" height="69" viewBox="0 0 45 69" fill="none" xmlns="http://www.w3.org/2000/svg">
<g filter="url(#filter0_n_192_1637)">
<path d="M2.97371 36.511C3.30083 33.7072 5.05753 31.2732 7.61554 30.0794C9.76412 29.0767 11.3686 27.1869 12.0094 24.9041L14.9266 14.5115C16.9332 7.36312 25.3444 4.27029 31.5038 8.41605C37.9379 12.7467 37.9169 22.222 31.4638 26.5241L26.1469 30.0687C25.7163 30.3558 25.264 30.6089 24.7941 30.8258L21.2699 32.4524C19.8861 33.091 19 34.476 19 36V39.5047C19 41.3185 17.9094 42.9544 16.2351 43.652C14.3334 44.4444 13.2143 46.4286 13.5199 48.4659L14.0803 52.2017C14.3264 53.8429 15.6656 55.1014 17.319 55.2451C20.5115 55.5227 21.7677 59.5269 19.3059 61.5784L15.2117 64.9903C12.85 66.9583 9.36138 66.7353 7.26949 64.4825L5.38125 62.449C4.82691 61.8521 4.0225 61.5531 3.21283 61.643C1.5692 61.8256 0.182959 60.4318 0.374596 58.7892L2.97371 36.511Z" fill="url(#paint0_linear_192_1637)"/>
</g>
<circle cx="24" cy="19" r="5" fill="url(#paint1_radial_192_1637)"/>
<circle cx="24" cy="19" r="4" fill="#766868"/>
<path d="M21.75 16.75L24 16L26.25 16.75L27 19L26.25 21.25L24 22L21.75 21.25L21 19L21.75 16.75Z" fill="#D9D9D9"/>
<circle cx="11" cy="60" r="3" fill="url(#paint2_radial_192_1637)"/>
<circle cx="11" cy="60" r="2" fill="#766868"/>
<path d="M9.7749 58.875L10.8999 58.5L12.0249 58.875L12.3999 60L12.0249 61.125L10.8999 61.5L9.7749 61.125L9.3999 60L9.7749 58.875Z" fill="#D9D9D9"/>
<defs>
<filter id="filter0_n_192_1637" x="0.356934" y="6.55273" width="35.9595" height="59.7793" filterUnits="userSpaceOnUse" color-interpolation-filters="sRGB">
<feFlood flood-opacity="0" result="BackgroundImageFix"/>
<feBlend mode="normal" in="SourceGraphic" in2="BackgroundImageFix" result="shape"/>
<feTurbulence type="fractalNoise" baseFrequency="3.3333332538604736 5" stitchTiles="stitch" numOctaves="3" result="noise" seed="9188" />
<feColorMatrix in="noise" type="luminanceToAlpha" result="alphaNoise" />
<feComponentTransfer in="alphaNoise" result="coloredNoise1">
<feFuncA type="discrete" tableValues="1 1 1 1 1 1 1 1 1 1 1 1 1 1 1 1 1 1 1 1 1 1 1 1 1 1 1 1 1 1 1 1 1 1 1 1 1 1 1 1 1 1 1 1 1 1 1 1 1 1 1 0 0 0 0 0 0 0 0 0 0 0 0 0 0 0 0 0 0 0 0 0 0 0 0 0 0 0 0 0 0 0 0 0 0 0 0 0 0 0 0 0 0 0 0 0 0 0 0 0 "/>
</feComponentTransfer>
<feComposite operator="in" in2="shape" in="coloredNoise1" result="noise1Clipped" />
<feFlood flood-color="rgba(66, 3, 3, 0.25)" result="color1Flood" />
<feComposite operator="in" in2="noise1Clipped" in="color1Flood" result="color1" />
<feMerge result="effect1_noise_192_1637">
<feMergeNode in="shape" />
<feMergeNode in="color1" />
</feMerge>
</filter>
<linearGradient id="paint0_linear_192_1637" x1="12.5" y1="28.5" x2="12" y2="69.5" gradientUnits="userSpaceOnUse">
<stop stop-color="#2561C8"/>
<stop offset="1" stop-color="#1C1B03"/>
</linearGradient>
<radialGradient id="paint1_radial_192_1637" cx="0" cy="0" r="1" gradientUnits="userSpaceOnUse" gradientTransform="translate(24 19) rotate(90) scale(5)">
<stop offset="0.774038" stop-color="#3B2F2F"/>
<stop offset="1" stop-color="#275BBC"/>
</radialGradient>
<radialGradient id="paint2_radial_192_1637" cx="0" cy="0" r="1" gradientUnits="userSpaceOnUse" gradientTransform="translate(11 60) rotate(90) scale(3)">
<stop offset="0.774038" stop-color="#3B2F2F"/>
<stop offset="1" stop-color="#1E3141"/>
</radialGradient>
</defs>
</svg>
