<svg width="36" height="64" viewBox="0 0 36 64" fill="none" xmlns="http://www.w3.org/2000/svg">
<g filter="url(#filter0_n_192_1647)">
<path d="M5.52591 37.6568C4.17112 33.8182 6.41373 29.6466 10.3628 28.6593C13.1527 27.9618 15.2183 25.6084 15.5479 22.7516L16.5 14.5C16.7117 11.4297 21.0059 10.9073 21.9477 13.8372L22 14L26.5268 23.8766C27.1593 25.2566 28.2127 26.4009 29.5358 27.1452C32.8757 29.0239 34.1535 33.1931 32.4397 36.6205L28.0895 45.321C27.3826 46.7348 27.1577 48.3409 27.449 49.8944C28.5263 55.6403 22.703 60.2289 17.3685 57.8376L16.2755 57.3477C15.7607 57.1169 15.2179 56.9545 14.661 56.8647L8.56855 55.882C5.30989 55.3564 4.24554 51.1979 6.85101 49.1714C8.13437 48.1733 8.63502 46.4659 8.09391 44.9327L5.52591 37.6568Z" fill="url(#paint0_linear_192_1647)"/>
</g>
<circle cx="17" cy="43.5" r="5" fill="url(#paint1_radial_192_1647)"/>
<circle cx="17" cy="43.5" r="4" fill="#766868"/>
<path d="M14.75 41.25L17 40.5L19.25 41.25L20 43.5L19.25 45.75L17 46.5L14.75 45.75L14 43.5L14.75 41.25Z" fill="#D9D9D9"/>
<defs>
<filter id="filter0_n_192_1647" x="5.12939" y="11.8965" width="28.0703" height="46.5879" filterUnits="userSpaceOnUse" color-interpolation-filters="sRGB">
<feFlood flood-opacity="0" result="BackgroundImageFix"/>
<feBlend mode="normal" in="SourceGraphic" in2="BackgroundImageFix" result="shape"/>
<feTurbulence type="fractalNoise" baseFrequency="3.3333332538604736 5" stitchTiles="stitch" numOctaves="3" result="noise" seed="9188" />
<feColorMatrix in="noise" type="luminanceToAlpha" result="alphaNoise" />
<feComponentTransfer in="alphaNoise" result="coloredNoise1">
<feFuncA type="discrete" tableValues="1 1 1 1 1 1 1 1 1 1 1 1 1 1 1 1 1 1 1 1 1 1 1 1 1 1 1 1 1 1 1 1 1 1 1 1 1 1 1 1 1 1 1 1 1 1 1 1 1 1 1 0 0 0 0 0 0 0 0 0 0 0 0 0 0 0 0 0 0 0 0 0 0 0 0 0 0 0 0 0 0 0 0 0 0 0 0 0 0 0 0 0 0 0 0 0 0 0 0 0 "/>
</feComponentTransfer>
<feComposite operator="in" in2="shape" in="coloredNoise1" result="noise1Clipped" />
<feFlood flood-color="rgba(66, 3, 3, 0.25)" result="color1Flood" />
<feComposite operator="in" in2="noise1Clipped" in="color1Flood" result="color1" />
<feMerge result="effect1_noise_192_1647">
<feMergeNode in="shape" />
<feMergeNode in="color1" />
</feMerge>
</filter>
<linearGradient id="paint0_linear_192_1647" x1="19" y1="34" x2="18.5" y2="75" gradientUnits="userSpaceOnUse">
<stop stop-color="#EF39C1"/>
<stop offset="1" stop-color="#13010F"/>
</linearGradient>
<radialGradient id="paint1_radial_192_1647" cx="0" cy="0" r="1" gradientUnits="userSpaceOnUse" gradientTransform="translate(17 43.5) rotate(90) scale(5)">
<stop offset="0.774038" stop-color="#3B2F2F"/>
<stop offset="1" stop-color="#D331A4"/>
</radialGradient>
</defs>
</svg>
