<svg width="85" height="41" viewBox="0 0 85 41" fill="none" xmlns="http://www.w3.org/2000/svg">
<g filter="url(#filter0_n_192_1629)">
<path d="M27 11L42.5 6.5L58.1042 2.59894C58.3677 2.53307 58.6357 2.48695 58.9061 2.46095C64.7766 1.89648 67.2503 9.7498 62.1161 12.6518L54.5498 16.9284C51.8287 18.4664 50.3871 21.5646 50.9631 24.6367L51.2987 26.4262C52.2557 31.5303 49.0871 36.501 44.0561 37.788L41.081 38.549C35.4081 40.0002 29.4168 37.4464 26.4556 32.3948C24.3027 28.7223 20.4949 26.2495 16.259 25.8259L9.07466 25.1075C8.36965 25.037 7.69387 24.7895 7.11002 24.3881C4.2214 22.4022 4.88638 17.9617 8.23002 16.9091L27 11Z" fill="url(#paint0_linear_192_1629)"/>
</g>
<circle cx="40" cy="20" r="5" fill="url(#paint1_radial_192_1629)"/>
<circle cx="40" cy="20" r="4" fill="#766868"/>
<path d="M37.75 17.75L40 17L42.25 17.75L43 20L42.25 22.25L40 23L37.75 22.25L37 20L37.75 17.75Z" fill="#D9D9D9"/>
<defs>
<filter id="filter0_n_192_1629" x="5.28516" y="2.43164" width="59.6196" height="36.5215" filterUnits="userSpaceOnUse" color-interpolation-filters="sRGB">
<feFlood flood-opacity="0" result="BackgroundImageFix"/>
<feBlend mode="normal" in="SourceGraphic" in2="BackgroundImageFix" result="shape"/>
<feTurbulence type="fractalNoise" baseFrequency="3.3333332538604736 5" stitchTiles="stitch" numOctaves="3" result="noise" seed="9188" />
<feColorMatrix in="noise" type="luminanceToAlpha" result="alphaNoise" />
<feComponentTransfer in="alphaNoise" result="coloredNoise1">
<feFuncA type="discrete" tableValues="1 1 1 1 1 1 1 1 1 1 1 1 1 1 1 1 1 1 1 1 1 1 1 1 1 1 1 1 1 1 1 1 1 1 1 1 1 1 1 1 1 1 1 1 1 1 1 1 1 1 1 0 0 0 0 0 0 0 0 0 0 0 0 0 0 0 0 0 0 0 0 0 0 0 0 0 0 0 0 0 0 0 0 0 0 0 0 0 0 0 0 0 0 0 0 0 0 0 0 0 "/>
</feComponentTransfer>
<feComposite operator="in" in2="shape" in="coloredNoise1" result="noise1Clipped" />
<feFlood flood-color="rgba(66, 3, 3, 0.25)" result="color1Flood" />
<feComposite operator="in" in2="noise1Clipped" in="color1Flood" result="color1" />
<feMerge result="effect1_noise_192_1629">
<feMergeNode in="shape" />
<feMergeNode in="color1" />
</feMerge>
</filter>
<linearGradient id="paint0_linear_192_1629" x1="42" y1="10.5" x2="41.5" y2="51.5" gradientUnits="userSpaceOnUse">
<stop stop-color="#9124E3"/>
<stop offset="1"/>
</linearGradient>
<radialGradient id="paint1_radial_192_1629" cx="0" cy="0" r="1" gradientUnits="userSpaceOnUse" gradientTransform="translate(40 20) rotate(174.289) scale(5.02494)">
<stop offset="0.778846" stop-color="#3B2F2F"/>
<stop offset="1" stop-color="#8A21D2"/>
</radialGradient>
</defs>
</svg>
