<svg width="41" height="49" viewBox="0 0 41 49" fill="none" xmlns="http://www.w3.org/2000/svg">
<g filter="url(#filter0_n_192_1622)">
<path d="M4.32527 24.767C2.5913 22.4551 4.31564 19.166 7.20345 19.2771L9.24806 19.3557C10.9361 19.4206 12.0763 17.6526 11.3208 16.1417C10.3828 14.2657 12.3273 12.2542 14.234 13.1281L17.0086 14.3998C18.7825 15.2128 20.8482 14.143 21.2078 12.2252L21.3819 11.2967C21.9183 8.4356 25.9382 8.22897 26.7652 11.02C27.179 12.4167 28.603 13.2549 30.0249 12.9389L33.2785 12.2159C35.8461 11.6453 37.7019 14.6227 36.0588 16.6765C35.4084 17.4895 35.2655 18.5974 35.6884 19.5488L35.8991 20.0229C36.5524 21.4928 36.1632 23.2173 34.9419 24.2641L32.7462 26.1461C31.0949 27.5616 30.4964 29.8539 31.2452 31.8959L31.5327 32.6801C33.0127 36.7164 28.9069 40.5445 24.984 38.7859L23.6409 38.1839C22.139 37.5106 20.3711 38.0782 19.5417 39.4999C17.9208 42.2787 13.6756 41.2148 13.5417 38.0007C13.5146 37.3495 13.2907 36.7209 12.8997 36.1996L4.32527 24.767Z" fill="url(#paint0_linear_192_1622)"/>
</g>
<circle cx="22.5" cy="28" r="5" fill="url(#paint1_radial_192_1622)"/>
<circle cx="22.5" cy="28" r="4" fill="#766868"/>
<path d="M20.25 25.75L22.5 25L24.75 25.75L25.5 28L24.75 30.25L22.5 31L20.25 30.25L19.5 28L20.25 25.75Z" fill="#D9D9D9"/>
<defs>
<filter id="filter0_n_192_1622" x="3.63184" y="9.03516" width="33.0479" height="32.0625" filterUnits="userSpaceOnUse" color-interpolation-filters="sRGB">
<feFlood flood-opacity="0" result="BackgroundImageFix"/>
<feBlend mode="normal" in="SourceGraphic" in2="BackgroundImageFix" result="shape"/>
<feTurbulence type="fractalNoise" baseFrequency="3.3333332538604736 5" stitchTiles="stitch" numOctaves="3" result="noise" seed="9188" />
<feColorMatrix in="noise" type="luminanceToAlpha" result="alphaNoise" />
<feComponentTransfer in="alphaNoise" result="coloredNoise1">
<feFuncA type="discrete" tableValues="1 1 1 1 1 1 1 1 1 1 1 1 1 1 1 1 1 1 1 1 1 1 1 1 1 1 1 1 1 1 1 1 1 1 1 1 1 1 1 1 1 1 1 1 1 1 1 1 1 1 1 0 0 0 0 0 0 0 0 0 0 0 0 0 0 0 0 0 0 0 0 0 0 0 0 0 0 0 0 0 0 0 0 0 0 0 0 0 0 0 0 0 0 0 0 0 0 0 0 0 "/>
</feComponentTransfer>
<feComposite operator="in" in2="shape" in="coloredNoise1" result="noise1Clipped" />
<feFlood flood-color="rgba(66, 3, 3, 0.25)" result="color1Flood" />
<feComposite operator="in" in2="noise1Clipped" in="color1Flood" result="color1" />
<feMerge result="effect1_noise_192_1622">
<feMergeNode in="shape" />
<feMergeNode in="color1" />
</feMerge>
</filter>
<linearGradient id="paint0_linear_192_1622" x1="24.5" y1="18.5" x2="24" y2="59.5" gradientUnits="userSpaceOnUse">
<stop stop-color="#D7D737"/>
<stop offset="1" stop-color="#1C1B03"/>
</linearGradient>
<radialGradient id="paint1_radial_192_1622" cx="0" cy="0" r="1" gradientUnits="userSpaceOnUse" gradientTransform="translate(22.5 28) rotate(90) scale(5)">
<stop offset="0.774038" stop-color="#3B2F2F"/>
<stop offset="1" stop-color="#C0B530"/>
</radialGradient>
</defs>
</svg>
