<svg width="115" height="140" viewBox="0 0 115 140" fill="none" xmlns="http://www.w3.org/2000/svg">
<rect x="47.0063" y="41" width="22" height="6" rx="3" fill="#48A087"/>
<rect x="50.0063" y="67" width="6" height="25" fill="url(#paint0_linear_161_137)"/>
<rect x="60.0063" y="67" width="6" height="25" fill="url(#paint1_linear_161_137)"/>
<rect x="50.0063" y="84" width="6" height="10" fill="#741F00"/>
<path d="M49.9912 93.8848H55.9912L56.3409 99.4798C56.4314 100.928 55.6193 102.282 54.2989 102.885C52.1127 102.663 50.41 100.888 50.2788 98.6948L49.9912 93.8848Z" fill="#741F00"/>
<rect x="60.0063" y="84" width="6" height="10" fill="#741F00"/>
<path d="M60.0063 94H66.0063L66.356 99.5951C66.4466 101.044 65.6344 102.398 64.314 103C62.1278 102.778 60.4251 101.004 60.294 98.81L60.0063 94Z" fill="#741F00"/>
<path d="M47.9143 50.3492C47.425 44.2332 52.2563 39 58.3918 39C64.6104 39 69.4694 44.3692 68.8507 50.5569L67.6625 62.4386C67.5593 63.4709 67.2685 64.4756 66.8046 65.4035L66.0063 67H50.0063L49.3471 65.0221C49.1207 64.3432 48.9775 63.6394 48.9204 62.926L47.9143 50.3492Z" fill="#48A087"/>
<path d="M53.0063 35H63.0063L62.5063 39C62.7681 40.5704 61.557 42 59.965 42H55.9752C54.5698 42 53.6222 40.563 54.1758 39.2712C54.3869 38.7787 54.3869 38.2213 54.1758 37.7288L53.0063 35Z" fill="#EFC6C6"/>
<path d="M69.5 25.5C69.5 32.9558 65.7383 39 58.0063 39C50.2744 39 47 31.9558 47 24.5C47 17.0442 50.768 13.5 58.5 13.5C66.232 13.5 69.5 18.0442 69.5 25.5Z" fill="#EFC6C6"/>
<line x1="57.4807" y1="26.1581" x2="56.4807" y2="29.1581" stroke="black"/>
<line x1="56.1645" y1="29.5257" x2="59.1645" y2="30.5257" stroke="black"/>
<ellipse cx="56" cy="34.5" rx="2" ry="2.5" fill="#EFA7A7"/>
<rect x="67.1465" y="48.293" width="6" height="16.2708" rx="3" transform="rotate(-121.629 67.1465 48.293)" fill="url(#paint2_linear_161_137)"/>
<rect x="78.9619" y="23" width="6" height="18.4521" rx="3" transform="rotate(15.5995 78.9619 23)" fill="#686868"/>
<rect x="30.9995" y="23.4395" width="6" height="17.0976" rx="3" transform="rotate(-13.8788 30.9995 23.4395)" fill="#686868"/>
<rect x="51.7827" y="42.9316" width="6" height="17.749" rx="3" transform="rotate(122.526 51.7827 42.9316)" fill="url(#paint3_linear_161_137)"/>
<circle cx="53.5" cy="23.5" r="1.5" fill="white"/>
<circle cx="62.5" cy="23.5" r="1.5" fill="white"/>
<circle cx="54" cy="24" r="1" fill="#100C0C"/>
<circle cx="54" cy="24" r="1" fill="#100C0C"/>
<circle cx="62" cy="24" r="1" fill="#100C0C"/>
<circle cx="62" cy="24" r="1" fill="#100C0C"/>
<path d="M49.5 14.5L51 12.5H53.5L56.5 11L59.5 12L62 11.5L64.5 13L67.5 13.5L69 16V20.5H47L47.5 17.5V15.5L49.5 14.5Z" fill="#897575"/>
<defs>
<linearGradient id="paint0_linear_161_137" x1="53.0063" y1="72" x2="53.0063" y2="92" gradientUnits="userSpaceOnUse">
<stop stop-color="#48A087"/>
<stop offset="1" stop-color="#8D8D8D"/>
</linearGradient>
<linearGradient id="paint1_linear_161_137" x1="63.0063" y1="72" x2="63.0063" y2="92" gradientUnits="userSpaceOnUse">
<stop stop-color="#48A087"/>
<stop offset="1" stop-color="#8D8D8D"/>
</linearGradient>
<linearGradient id="paint2_linear_161_137" x1="70.378" y1="58.1557" x2="71.0616" y2="49.3221" gradientUnits="userSpaceOnUse">
<stop stop-color="#686868"/>
<stop offset="1" stop-color="#48A087"/>
</linearGradient>
<linearGradient id="paint3_linear_161_137" x1="53.1354" y1="57.721" x2="54.2738" y2="44.9165" gradientUnits="userSpaceOnUse">
<stop stop-color="#686868"/>
<stop offset="1" stop-color="#48A087"/>
</linearGradient>
</defs>
</svg>
