<svg width="814" height="344" viewBox="0 0 814 344" fill="none" xmlns="http://www.w3.org/2000/svg">
<line x1="7.00049" y1="17" x2="7.00047" y2="340.932" stroke="black" stroke-width="10"/>
<line x1="807" y1="16" x2="807" y2="339.932" stroke="black" stroke-width="10"/>
<rect x="2" y="16" width="810" height="120" fill="black"/>
<rect x="32" y="46" width="30" height="30" fill="white"/>
<rect x="92" y="46" width="30" height="30" fill="white"/>
<rect x="152" y="46" width="30" height="30" fill="white"/>
<rect x="212" y="46" width="30" height="30" fill="white"/>
<rect x="272" y="46" width="30" height="30" fill="white"/>
<rect x="332" y="46" width="30" height="30" fill="white"/>
<rect x="392" y="46" width="30" height="30" fill="white"/>
<rect x="452" y="46" width="30" height="30" fill="white"/>
<rect x="512" y="46" width="30" height="30" fill="white"/>
<rect x="572" y="46" width="30" height="30" fill="white"/>
<rect x="632" y="46" width="30" height="30" fill="white"/>
<rect x="692" y="46" width="30" height="30" fill="white"/>
<rect x="752" y="46" width="30" height="30" fill="white"/>
<rect x="2" y="16" width="30" height="30" fill="white"/>
<rect x="62" y="16" width="30" height="30" fill="white"/>
<rect x="122" y="16" width="30" height="30" fill="white"/>
<rect x="182" y="16" width="30" height="30" fill="white"/>
<rect x="242" y="16" width="30" height="30" fill="white"/>
<rect x="302" y="16" width="30" height="30" fill="white"/>
<rect x="362" y="16" width="30" height="30" fill="white"/>
<rect x="422" y="16" width="30" height="30" fill="white"/>
<rect x="482" y="16" width="30" height="30" fill="white"/>
<rect x="542" y="16" width="30" height="30" fill="white"/>
<rect x="602" y="16" width="30" height="30" fill="white"/>
<rect x="662" y="16" width="30" height="30" fill="white"/>
<rect x="722" y="16" width="30" height="30" fill="white"/>
<rect x="782" y="16" width="30" height="30" fill="white"/>
<rect x="32" y="106" width="30" height="30" fill="white"/>
<rect x="92" y="106" width="30" height="30" fill="white"/>
<rect x="152" y="106" width="30" height="30" fill="white"/>
<rect x="212" y="106" width="30" height="30" fill="white"/>
<rect x="272" y="106" width="30" height="30" fill="white"/>
<rect x="332" y="106" width="30" height="30" fill="white"/>
<rect x="392" y="106" width="30" height="30" fill="white"/>
<rect x="452" y="106" width="30" height="30" fill="white"/>
<rect x="512" y="106" width="30" height="30" fill="white"/>
<rect x="572" y="106" width="30" height="30" fill="white"/>
<rect x="632" y="106" width="30" height="30" fill="white"/>
<rect x="692" y="106" width="30" height="30" fill="white"/>
<rect x="752" y="106" width="30" height="30" fill="white"/>
<rect x="2" y="76" width="30" height="30" fill="white"/>
<rect x="62" y="76" width="30" height="30" fill="white"/>
<rect x="122" y="76" width="30" height="30" fill="white"/>
<rect x="182" y="76" width="30" height="30" fill="white"/>
<rect x="242" y="76" width="30" height="30" fill="white"/>
<rect x="302" y="76" width="30" height="30" fill="white"/>
<rect x="362" y="76" width="30" height="30" fill="white"/>
<rect x="422" y="76" width="30" height="30" fill="white"/>
<rect x="482" y="76" width="30" height="30" fill="white"/>
<rect x="542" y="76" width="30" height="30" fill="white"/>
<rect x="602" y="76" width="30" height="30" fill="white"/>
<rect x="662" y="76" width="30" height="30" fill="white"/>
<rect x="722" y="76" width="30" height="30" fill="white"/>
<rect x="782" y="76" width="30" height="30" fill="white"/>
<rect x="244" y="25" width="336" height="108" fill="url(#paint0_radial_152_239)"/>
<path d="M298.9 37.2C298.433 42.8667 298.2 47.9333 298.2 52.4C298.2 55.5333 298.3 58.0667 298.5 60H296.2C294.867 52.4667 292.867 47.1667 290.2 44.1C287.533 41.0333 283.8 39.5 279 39.5H275.7C273.633 39.5 272.133 39.6667 271.2 40C270.267 40.3333 269.633 41 269.3 42C268.967 42.9333 268.8 44.4667 268.8 46.6V71.8H272.3C275.833 71.8 278.5 70.5 280.3 67.9C282.167 65.3 283.467 62.2 284.2 58.6H286.5C286.3 61.4 286.2 64.5333 286.2 68V72.8C286.2 76.2 286.4 80.9333 286.8 87H284.5C283.1 78.2 279.033 73.8 272.3 73.8H268.8V96.8C268.8 99.4667 269.067 101.433 269.6 102.7C270.2 103.9 271.2 104.7 272.6 105.1C274.067 105.5 276.367 105.733 279.5 105.8V108C271.3 107.8 265.2 107.7 261.2 107.7C257.867 107.7 253.667 107.767 248.6 107.9L245.4 108V106C247.6 105.867 249.2 105.6 250.2 105.2C251.267 104.8 251.967 104.033 252.3 102.9C252.7 101.767 252.9 99.9333 252.9 97.4V47.8C252.9 45.2667 252.7 43.4333 252.3 42.3C251.967 41.1667 251.267 40.4 250.2 40C249.2 39.6 247.6 39.3333 245.4 39.2V37.2C252.6 37.4 263.467 37.5 278 37.5C287.8 37.5 294.767 37.4 298.9 37.2ZM334.88 49.2C332.613 49.3333 330.98 49.6 329.98 50C328.98 50.4 328.28 51.1667 327.88 52.3C327.546 53.4333 327.38 55.2667 327.38 57.8V97.4C327.38 99.9333 327.546 101.767 327.88 102.9C328.28 104.033 328.98 104.8 329.98 105.2C330.98 105.6 332.613 105.867 334.88 106V108C331.48 107.8 326.546 107.7 320.08 107.7C313.08 107.7 307.913 107.8 304.58 108V106C306.846 105.867 308.48 105.6 309.48 105.2C310.48 104.8 311.146 104.033 311.48 102.9C311.88 101.767 312.08 99.9333 312.08 97.4V57.8C312.08 55.2667 311.88 53.4333 311.48 52.3C311.146 51.1667 310.446 50.4 309.38 50C308.38 49.6 306.78 49.3333 304.58 49.2V47.2C307.846 47.4 313.013 47.5 320.08 47.5C326.546 47.5 331.48 47.4 334.88 47.2V49.2ZM404.389 49.2C402.189 49.5333 400.556 50.0333 399.489 50.7C398.489 51.3667 397.789 52.4333 397.389 53.9C397.056 55.3667 396.889 57.6 396.889 60.6V108.2L394.189 108.1L391.589 108.2L351.589 58.5V94.6C351.589 97.5333 351.856 99.7667 352.389 101.3C352.922 102.767 353.889 103.833 355.289 104.5C356.689 105.167 358.889 105.667 361.889 106V108C358.889 107.8 355.089 107.7 350.489 107.7C346.822 107.7 343.922 107.8 341.789 108V106C343.989 105.667 345.589 105.167 346.589 104.5C347.656 103.833 348.356 102.767 348.689 101.3C349.089 99.8333 349.289 97.6 349.289 94.6V57.8C349.289 55.2667 349.089 53.4333 348.689 52.3C348.356 51.1667 347.656 50.4 346.589 50C345.589 49.6 343.989 49.3333 341.789 49.2V47.2C343.922 47.4 346.822 47.5 350.489 47.5C355.222 47.5 359.289 47.4 362.689 47.2L394.589 86.8V60.6C394.589 57.6667 394.322 55.4667 393.789 54C393.256 52.4667 392.256 51.3667 390.789 50.7C389.389 50.0333 387.222 49.5333 384.289 49.2V47.2C387.222 47.4 391.022 47.5 395.689 47.5C399.422 47.5 402.322 47.4 404.389 47.2V49.2ZM440.544 49.2C438.277 49.3333 436.644 49.6 435.644 50C434.644 50.4 433.944 51.1667 433.544 52.3C433.21 53.4333 433.044 55.2667 433.044 57.8V97.4C433.044 99.9333 433.21 101.767 433.544 102.9C433.944 104.033 434.644 104.8 435.644 105.2C436.644 105.6 438.277 105.867 440.544 106V108C437.144 107.8 432.21 107.7 425.744 107.7C418.744 107.7 413.577 107.8 410.244 108V106C412.51 105.867 414.144 105.6 415.144 105.2C416.144 104.8 416.81 104.033 417.144 102.9C417.544 101.767 417.744 99.9333 417.744 97.4V57.8C417.744 55.2667 417.544 53.4333 417.144 52.3C416.81 51.1667 416.11 50.4 415.044 50C414.044 49.6 412.444 49.3333 410.244 49.2V47.2C413.51 47.4 418.677 47.5 425.744 47.5C432.21 47.5 437.144 47.4 440.544 47.2V49.2ZM472.853 45.8C475.92 45.8 478.52 46.1333 480.653 46.8C482.853 47.4667 484.92 48.3667 486.853 49.5C487.586 49.9 488.22 50.2333 488.753 50.5C489.353 50.7667 489.853 50.9 490.253 50.9C490.853 50.9 491.32 50.5667 491.653 49.9C491.986 49.1667 492.253 48.0333 492.453 46.5H494.753C494.42 50.5 494.253 57.4333 494.253 67.3H491.953C491.22 61.3 489.286 56.6 486.153 53.2C483.02 49.7333 478.92 48 473.853 48C470.52 48 467.82 48.7333 465.753 50.2C463.753 51.6667 462.753 53.5667 462.753 55.9C462.753 57.7 463.286 59.3667 464.353 60.9C465.486 62.3667 466.953 63.7333 468.753 65C470.553 66.2667 473.186 67.9333 476.653 70L478.853 71.3C482.853 73.5667 486.12 75.6333 488.653 77.5C491.186 79.3 493.286 81.4667 494.953 84C496.62 86.4667 497.453 89.2667 497.453 92.4C497.453 97.8667 495.186 102.067 490.653 105C486.12 107.933 480.153 109.4 472.753 109.4C469.553 109.4 466.786 109.033 464.453 108.3C462.12 107.633 459.753 106.7 457.353 105.5C455.686 104.7 454.52 104.3 453.853 104.3C453.253 104.3 452.786 104.667 452.453 105.4C452.12 106.067 451.853 107.167 451.653 108.7H449.353C449.62 104.967 449.753 96.8333 449.753 84.3H452.053C452.52 91.3667 454.42 96.9333 457.753 101C461.153 105.067 465.92 107.1 472.053 107.1C475.053 107.1 477.653 106.333 479.853 104.8C482.053 103.267 483.153 101 483.153 98C483.153 95.3333 482.12 93.0333 480.053 91.1C477.986 89.1667 474.453 86.7333 469.453 83.8C463.12 80.2 458.253 76.7667 454.853 73.5C451.52 70.2333 449.853 66.4 449.853 62C449.853 56.8 451.986 52.8 456.253 50C460.586 47.2 466.12 45.8 472.853 45.8ZM576.466 49.2C574.199 49.3333 572.566 49.6 571.566 50C570.566 50.4 569.866 51.1667 569.466 52.3C569.132 53.4333 568.966 55.2667 568.966 57.8V97.4C568.966 99.9333 569.132 101.767 569.466 102.9C569.866 104.033 570.566 104.8 571.566 105.2C572.632 105.6 574.266 105.867 576.466 106V108C573.399 107.8 568.532 107.7 561.866 107.7C555.132 107.7 549.899 107.8 546.166 108V106C548.432 105.867 550.066 105.6 551.066 105.2C552.066 104.8 552.732 104.033 553.066 102.9C553.466 101.767 553.666 99.9333 553.666 97.4V78H527.966V97.4C527.966 99.9333 528.132 101.767 528.466 102.9C528.866 104.033 529.566 104.8 530.566 105.2C531.632 105.6 533.266 105.867 535.466 106V108C531.799 107.8 526.566 107.7 519.766 107.7C513.232 107.7 508.366 107.8 505.166 108V106C507.432 105.867 509.066 105.6 510.066 105.2C511.066 104.8 511.732 104.033 512.066 102.9C512.466 101.767 512.666 99.9333 512.666 97.4V57.8C512.666 55.2667 512.466 53.4333 512.066 52.3C511.732 51.1667 511.032 50.4 509.966 50C508.966 49.6 507.366 49.3333 505.166 49.2V47.2C508.366 47.4 513.232 47.5 519.766 47.5C526.566 47.5 531.799 47.4 535.466 47.2V49.2C533.199 49.3333 531.566 49.6 530.566 50C529.566 50.4 528.866 51.1667 528.466 52.3C528.132 53.4333 527.966 55.2667 527.966 57.8V76H553.666V57.8C553.666 55.2667 553.466 53.4333 553.066 52.3C552.732 51.1667 552.032 50.4 550.966 50C549.966 49.6 548.366 49.3333 546.166 49.2V47.2C549.899 47.4 555.132 47.5 561.866 47.5C568.532 47.5 573.399 47.4 576.466 47.2V49.2Z" fill="#DABE12"/>
<circle cx="3" cy="3" r="3" transform="matrix(1 0 0 -1 0 343)" fill="white"/>
<ellipse cx="4" cy="6" rx="4" ry="6" transform="matrix(1 0 0 -1 6 344)" fill="white"/>
<ellipse cx="3" cy="3.5" rx="3" ry="3.5" transform="matrix(1 0 0 -1 4 342)" fill="white"/>
<ellipse cx="3" cy="5.5" rx="3" ry="5.5" transform="matrix(1 0 0 -1 799 343)" fill="white"/>
<ellipse cx="3" cy="5.5" rx="3" ry="5.5" transform="matrix(1 0 0 -1 805 340)" fill="white"/>
<ellipse cx="3" cy="5.5" rx="3" ry="5.5" transform="matrix(1 0 0 -1 808 342)" fill="white"/>
<ellipse cx="3" cy="5.5" rx="3" ry="5.5" transform="matrix(1 0 0 -1 803 343)" fill="white"/>
<circle cx="3" cy="3" r="3" transform="matrix(1 0 0 -1 803 336)" fill="white"/>
<defs>
<radialGradient id="paint0_radial_152_239" cx="0" cy="0" r="1" gradientUnits="userSpaceOnUse" gradientTransform="translate(412 79) scale(178 57.2143)">
<stop offset="0.379808"/>
<stop offset="1" stop-opacity="0"/>
</radialGradient>
</defs>
</svg>
