<svg width="115" height="140" viewBox="0 0 115 140" fill="none" xmlns="http://www.w3.org/2000/svg">
<rect width="21.8799" height="5.96724" rx="2.98362" transform="matrix(-1 0 0 1 60.2505 41.8027)" fill="#272727"/>
<path d="M52.5552 71.2949L45.9341 73.4462L64.3731 130.196C64.9672 132.024 66.931 133.025 68.7593 132.431C70.5877 131.836 71.5882 129.873 70.9942 128.044L52.5552 71.2949Z" fill="url(#paint0_linear_155_698)"/>
<path d="M42.6211 70.3398L36 72.4912L54.4321 129.219C55.0261 131.047 56.9899 132.048 58.8183 131.454C60.6466 130.86 61.6472 128.896 61.0531 127.068L42.6211 70.3398Z" fill="url(#paint1_linear_155_698)"/>
<path d="M57.2766 67.6621H51.3094L57.2766 79.0993L62.7471 77.6075L57.2766 67.6621Z" fill="url(#paint2_linear_155_698)"/>
<path d="M54.3768 85.4747L59.7635 86.0598L62.7471 77.6062L57.277 78.1035L54.3768 85.4747Z" fill="url(#paint3_linear_155_698)"/>
<path d="M44.3478 87.0547L49.8175 88.0506L52.3042 79.5956L46.8342 77.6065L44.3478 87.0547Z" fill="url(#paint4_linear_155_698)"/>
<path d="M45.8402 65.6719H39.8729L46.8347 78.1036L52.3047 80.0927L45.8402 65.6719Z" fill="url(#paint5_linear_155_698)"/>
<rect width="5.96724" height="9.94541" transform="matrix(-1 0 0 1 60.2603 85.5645)" fill="url(#paint6_linear_155_698)"/>
<path d="M60.2596 95.0111L54.2927 95.5085L56.0913 101.675C56.4998 103.076 57.6907 104.107 59.1351 104.312C61.1241 103.497 62.1673 101.304 61.5438 99.247L60.2596 95.0111Z" fill="url(#paint7_linear_155_698)"/>
<rect width="5.96724" height="9.94541" transform="matrix(-1 0 0 1 50.2988 86.5586)" fill="url(#paint8_linear_155_698)"/>
<path d="M50.3805 96.3143L44.413 96.314L46.5295 102.466C47.008 103.857 48.2258 104.862 49.682 105.068C51.632 104.27 52.5868 102.059 51.8314 100.092L50.3805 96.3143Z" fill="url(#paint9_linear_155_698)"/>
<path d="M52.3032 105.454C52.3032 104.355 51.4127 103.465 50.3141 103.465C49.2156 103.465 48.3251 104.355 48.3251 105.454H52.3032Z" fill="#585656"/>
<path d="M62.249 105.454C62.249 104.355 61.3585 103.465 60.2599 103.465C59.1614 103.465 58.2709 104.355 58.2709 105.454H62.249Z" fill="#585656"/>
<path d="M59.3475 51.1017C59.8341 45.0191 55.0292 39.8145 48.9272 39.8145C42.7426 39.8145 37.91 45.1544 38.5254 51.3083L39.7071 63.1251C39.8098 64.1517 40.0989 65.151 40.5603 66.0738L41.3542 67.6616H57.2669L57.9226 65.6945C58.1476 65.0193 58.2901 64.3193 58.3469 63.6099L59.3475 51.1017Z" fill="#272727"/>
<path d="M44.3495 51.755H45.1295V53.055H46.5095V51.755H47.2895V55H46.5095V53.61H45.1295V55H44.3495V51.755ZM47.9872 51.755H50.4622V52.31H48.7672V53.055H50.2972V53.61H48.7672V54.445H50.5122V55H47.9872V51.755ZM51.899 51.755H52.849L54.019 55H53.229L52.939 54.145H51.754L51.469 55H50.699L51.899 51.755ZM52.769 53.625L52.359 52.405H52.339L51.929 53.625H52.769ZM54.3788 51.755H55.7588C56.1388 51.755 56.4388 51.785 56.6588 51.845C56.8788 51.9017 57.0405 52.0017 57.1438 52.145C57.2471 52.2883 57.2988 52.4867 57.2988 52.74V54.06C57.2988 54.3067 57.2505 54.4983 57.1538 54.635C57.0571 54.7683 56.8988 54.8633 56.6788 54.92C56.4588 54.9733 56.1538 55 55.7638 55H54.3788V51.755ZM55.7288 54.445C55.9421 54.445 56.1021 54.4367 56.2088 54.42C56.3188 54.4 56.3971 54.3633 56.4438 54.31C56.4938 54.2567 56.5188 54.1733 56.5188 54.06V52.725C56.5188 52.5717 56.4571 52.465 56.3338 52.405C56.2138 52.3417 56.0205 52.31 55.7538 52.31H55.1588V54.445H55.7288Z" fill="white"/>
<path d="M54.2832 35.8379H44.3378L44.8351 39.8161C44.5748 41.3779 45.7792 42.7997 47.3626 42.7997H51.3305C52.7283 42.7997 53.6707 41.3705 53.1201 40.0857C52.9102 39.596 52.9102 39.0416 53.1201 38.5518L54.2832 35.8379Z" fill="#EFC6C6"/>
<ellipse cx="13.9236" cy="13.4263" rx="13.9236" ry="13.4263" transform="matrix(-1 0 0 1 63.2339 12.9629)" fill="#EFC6C6"/>
<path d="M64.2285 30.3656L60.3224 34.8727C58.6477 36.8051 56.484 38.2514 54.0581 39.06C50.6839 40.1847 47.0111 40.0074 43.761 38.5629L43.3151 38.3647C41.0464 37.3564 39.0528 35.8183 37.5019 33.8797L33.895 29.3711" stroke="black"/>
<path d="M32.8773 30.2575C40.3363 29.7602 27.4073 18.323 48.2926 19.8148C71.1671 18.8203 58.7353 32.2465 65.2 31.0934C65.6971 5.39395 58.1163 6.00124 49.3968 6.00124C40.6774 6.00124 33.3745 5.90757 32.8773 30.2575Z" fill="#BC1F1F"/>
<path d="M40.0151 9L34.9824 19.2739" stroke="white" stroke-linecap="round"/>
<ellipse cx="1.98908" cy="1.49181" rx="1.98908" ry="1.49181" transform="matrix(-0.441323 -0.897348 -0.897348 0.441323 54.2827 11.5586)" fill="#871616"/>
<ellipse cx="1.98908" cy="1.49181" rx="1.98908" ry="1.49181" transform="matrix(-0.484198 0.874959 0.874959 0.484198 45.7051 7.99023)" fill="#821616"/>
<rect width="2.48635" height="3.97816" transform="matrix(-1 0 0 1 35.3872 22.9082)" fill="black"/>
<rect width="1.98908" height="3.97816" transform="matrix(-1 0 0 1 65.2231 23.9023)" fill="black"/>
<path d="M42.9268 19.4238C41.8318 19.4239 40.7439 19.6001 39.7051 19.9463L38.2129 20.4443L37.7998 20.582C36.9952 20.8503 36.3025 21.3793 35.832 22.085C35.5559 22.4994 35.3633 22.9638 35.2656 23.4521L35.0781 24.3916C34.9426 25.0695 34.9865 25.7709 35.2051 26.4268C35.6952 27.8971 36.9957 28.949 38.5361 29.1201L40.168 29.3008C40.6242 29.3515 41.0853 29.3543 41.542 29.3086L44.0029 29.0625C45.3413 28.9287 46.5328 28.1561 47.2002 26.9883L47.5127 26.4395C47.8813 25.7945 48.5677 25.3966 49.3105 25.3965C50.0534 25.3965 50.7397 25.7946 51.1084 26.4395L51.4482 27.0332C52.0987 28.1716 53.2382 28.9464 54.5361 29.1318L55.4844 29.2676C56.0023 29.3416 56.5279 29.3497 57.0479 29.292L59.9307 28.9717C60.5907 28.8983 61.2197 28.6494 61.751 28.251L62.2412 27.8828C62.868 27.4127 63.2373 26.6741 63.2373 25.8906C63.2372 24.8144 62.8879 23.7673 62.2422 22.9062L62.1523 22.7852C61.7832 22.2929 61.3322 21.8677 60.8203 21.5264L60.5947 21.376C60.191 21.1068 59.7601 20.8794 59.3096 20.6992L58.8281 20.5068C57.8757 20.1259 56.8782 19.8685 55.8604 19.7412L53.3516 19.4277L53.3203 19.4238H42.9268Z" fill="url(#paint10_linear_155_698)" stroke="black"/>
<line y1="-0.5" x2="3.08194" y2="-0.5" transform="matrix(-0.250564 0.9681 -0.918903 -0.394483 48.772 27)" stroke="black"/>
<line y1="-0.5" x2="2.52113" y2="-0.5" transform="matrix(0.918903 0.394483 -0.250564 0.9681 47.9995 30.9785)" stroke="black"/>
<ellipse cx="5.46997" cy="1.49181" rx="5.46997" ry="1.49181" transform="matrix(-1 0 0 1 54.2832 33.8477)" fill="#EFA7A7"/>
<rect width="0.994541" height="48.7325" transform="matrix(-0.473931 0.880562 0.880562 0.473931 62.1899 58.5078)" fill="#BC1F1F"/>
<rect width="1.98908" height="12.929" transform="matrix(-0.473931 0.880562 0.880562 0.473931 61.5498 57.5996)" fill="#86E962"/>
<path d="M105.54 81.8418L105.068 82.7176L107.055 83.2224L105.54 81.8418Z" fill="black"/>
<ellipse cx="1.98908" cy="0.994541" rx="1.98908" ry="0.994541" transform="matrix(-0.473931 0.880562 0.880562 0.473931 104.934 79.8203)" fill="#86E962"/>
<rect width="5.96724" height="16.182" rx="2.98362" transform="matrix(-0.687963 0.725746 0.725746 0.687963 58.8584 41.7246)" fill="url(#paint11_linear_155_698)"/>
<rect width="5.96724" height="13.0706" rx="2.98362" transform="matrix(0.95884 0.283949 0.283949 -0.95884 60.0874 62.1074)" fill="#686868"/>
<rect width="0.994541" height="48.7325" transform="matrix(-0.831311 -0.555807 -0.555807 0.831311 44.5332 60.9219)" fill="#BC1F1F"/>
<rect width="1.98908" height="12.929" transform="matrix(-0.831311 -0.555807 -0.555807 0.831311 45.5 60.3711)" fill="#86E962"/>
<path d="M17.1714 101.846L16.3446 101.293L15.6525 103.223L17.1714 101.846Z" fill="black"/>
<ellipse cx="1.98908" cy="0.994541" rx="1.98908" ry="0.994541" transform="matrix(-0.831311 -0.555807 -0.555807 0.831311 19.2407 101.436)" fill="#86E962"/>
<rect width="5.96724" height="13.5893" rx="2.98362" transform="matrix(0.580087 -0.814555 -0.814555 -0.580087 42.8662 66.4824)" fill="#686868"/>
<rect width="5.96724" height="17.6521" rx="2.98362" transform="matrix(-0.9479 -0.318569 -0.318569 0.9479 43.3369 44.7031)" fill="url(#paint12_linear_155_698)"/>
<defs>
<linearGradient id="paint0_linear_155_698" x1="65.9788" y1="123.282" x2="54.3471" y2="88.2432" gradientUnits="userSpaceOnUse">
<stop stop-color="#BC1F1F"/>
<stop offset="1" stop-color="#430F0F"/>
</linearGradient>
<linearGradient id="paint1_linear_155_698" x1="55.6355" y1="121.38" x2="48.4595" y2="100.656" gradientUnits="userSpaceOnUse">
<stop stop-color="#BC1F1F"/>
<stop offset="1" stop-color="#2F0808"/>
</linearGradient>
<linearGradient id="paint2_linear_155_698" x1="54.293" y1="69.8501" x2="54.293" y2="78.6021" gradientUnits="userSpaceOnUse">
<stop stop-color="#272727"/>
<stop offset="1" stop-color="#8D8D8D"/>
</linearGradient>
<linearGradient id="paint3_linear_155_698" x1="57.5326" y1="87.4061" x2="60.7582" y2="77.6059" gradientUnits="userSpaceOnUse">
<stop stop-color="#272727"/>
<stop offset="1" stop-color="#8D8D8D"/>
</linearGradient>
<linearGradient id="paint4_linear_155_698" x1="46.5919" y1="88.4026" x2="49.818" y2="79.597" gradientUnits="userSpaceOnUse">
<stop stop-color="#272727"/>
<stop offset="1" stop-color="#8D8D8D"/>
</linearGradient>
<linearGradient id="paint5_linear_155_698" x1="42.8566" y1="67.8599" x2="42.8566" y2="76.6118" gradientUnits="userSpaceOnUse">
<stop stop-color="#272727"/>
<stop offset="1" stop-color="#8D8D8D"/>
</linearGradient>
<linearGradient id="paint6_linear_155_698" x1="2.98362" y1="5.96724" x2="2.98362" y2="9.94541" gradientUnits="userSpaceOnUse">
<stop stop-color="#87EA63"/>
<stop offset="1" stop-color="#233A1A"/>
</linearGradient>
<linearGradient id="paint7_linear_155_698" x1="59.3041" y1="103.048" x2="57.8649" y2="95.4966" gradientUnits="userSpaceOnUse">
<stop stop-color="#87EA63"/>
<stop offset="1" stop-color="#233A1A"/>
</linearGradient>
<linearGradient id="paint8_linear_155_698" x1="2.98362" y1="5.46997" x2="2.98362" y2="9.94541" gradientUnits="userSpaceOnUse">
<stop stop-color="#87EA63"/>
<stop offset="1" stop-color="#233A1A"/>
</linearGradient>
<linearGradient id="paint9_linear_155_698" x1="49.8513" y1="103.804" x2="48.4121" y2="96.2521" gradientUnits="userSpaceOnUse">
<stop stop-color="#87EA63"/>
<stop offset="1" stop-color="#233A1A"/>
</linearGradient>
<linearGradient id="paint10_linear_155_698" x1="35.3874" y1="24.3993" x2="62.7373" y2="24.3993" gradientUnits="userSpaceOnUse">
<stop stop-color="#AD1D82"/>
<stop offset="1" stop-color="#2B6893"/>
</linearGradient>
<linearGradient id="paint11_linear_155_698" x1="3.21387" y1="9.80886" x2="3.89371" y2="1.02347" gradientUnits="userSpaceOnUse">
<stop stop-color="#686868"/>
<stop offset="1" stop-color="#272727"/>
</linearGradient>
<linearGradient id="paint12_linear_155_698" x1="1.34532" y1="14.7086" x2="2.47751" y2="1.97406" gradientUnits="userSpaceOnUse">
<stop stop-color="#686868"/>
<stop offset="1" stop-color="#272727"/>
</linearGradient>
</defs>
</svg>
