<svg width="115" height="140" viewBox="0 0 115 140" fill="none" xmlns="http://www.w3.org/2000/svg">
<rect x="48.0112" y="42" width="22" height="6" rx="3" fill="#272727"/>
<path d="M55.748 71.6543L62.4054 73.8174L43.8652 130.878C43.2679 132.717 41.2934 133.723 39.455 133.125C37.6166 132.528 36.6105 130.554 37.2078 128.715L55.748 71.6543Z" fill="url(#paint0_linear_154_628)"/>
<path d="M65.7368 70.6914L72.3942 72.8545L53.861 129.894C53.2637 131.732 51.2891 132.738 49.4507 132.141C47.6124 131.544 46.6063 129.569 47.2036 127.731L65.7368 70.6914Z" fill="url(#paint1_linear_154_628)"/>
<path d="M51.0005 68H57.0005L51.0005 79.5L45.5 78L51.0005 68Z" fill="url(#paint2_linear_154_628)"/>
<path d="M53.9165 85.912L48.5002 86.5003L45.5002 78.0003L51.0004 78.5003L53.9165 85.912Z" fill="url(#paint3_linear_154_628)"/>
<path d="M64.0002 87.4986L58.5005 88.5L56.0002 79.9986L61.5002 77.9986L64.0002 87.4986Z" fill="url(#paint4_linear_154_628)"/>
<path d="M62.5005 66H68.5005L61.5005 78.5L56.0005 80.5L62.5005 66Z" fill="url(#paint5_linear_154_628)"/>
<rect x="48.0015" y="86" width="6" height="10" fill="url(#paint6_linear_154_628)"/>
<path d="M48.0015 95.5L54.0012 96.0002L52.1927 102.201C51.782 103.609 50.5845 104.646 49.1321 104.852C47.1323 104.033 46.0833 101.827 46.7103 99.7591L48.0015 95.5Z" fill="url(#paint7_linear_154_628)"/>
<rect x="58.0166" y="87" width="6" height="10" fill="url(#paint8_linear_154_628)"/>
<path d="M57.9346 96.8086L63.9349 96.8082L61.8067 102.994C61.3256 104.393 60.1011 105.403 58.6369 105.61C56.6762 104.808 55.7162 102.585 56.4757 100.607L57.9346 96.8086Z" fill="url(#paint9_linear_154_628)"/>
<path d="M56.0015 106C56.0015 104.895 56.8969 104 58.0015 104C59.106 104 60.0015 104.895 60.0015 106H56.0015Z" fill="#585656"/>
<path d="M46.0015 106C46.0015 104.895 46.8969 104 48.0015 104C49.106 104 50.0015 104.895 50.0015 106H46.0015Z" fill="#585656"/>
<path d="M48.9192 51.3492C48.4299 45.2332 53.2612 40 59.3967 40C65.6152 40 70.4743 45.3692 69.8555 51.5569L68.6674 63.4386C68.5641 64.4709 68.2734 65.4756 67.8095 66.4035L67.0112 68H51.0112L50.3519 66.0221C50.1256 65.3432 49.9824 64.6394 49.9253 63.926L48.9192 51.3492Z" fill="#272727"/>
<path d="M53.3612 50.755H54.1412V52.055H55.5212V50.755H56.3012V54H55.5212V52.61H54.1412V54H53.3612V50.755ZM56.9989 50.755H59.4739V51.31H57.7789V52.055H59.3089V52.61H57.7789V53.445H59.5239V54H56.9989V50.755ZM60.9107 50.755H61.8607L63.0307 54H62.2407L61.9507 53.145H60.7657L60.4807 54H59.7107L60.9107 50.755ZM61.7807 52.625L61.3707 51.405H61.3507L60.9407 52.625H61.7807ZM63.3905 50.755H64.7705C65.1505 50.755 65.4505 50.785 65.6705 50.845C65.8905 50.9017 66.0522 51.0017 66.1555 51.145C66.2589 51.2883 66.3105 51.4867 66.3105 51.74V53.06C66.3105 53.3067 66.2622 53.4983 66.1655 53.635C66.0689 53.7683 65.9105 53.8633 65.6905 53.92C65.4705 53.9733 65.1655 54 64.7755 54H63.3905V50.755ZM64.7405 53.445C64.9539 53.445 65.1139 53.4367 65.2205 53.42C65.3305 53.4 65.4089 53.3633 65.4555 53.31C65.5055 53.2567 65.5305 53.1733 65.5305 53.06V51.725C65.5305 51.5717 65.4689 51.465 65.3455 51.405C65.2255 51.3417 65.0322 51.31 64.7655 51.31H64.1705V53.445H64.7405Z" fill="white"/>
<path d="M54.0112 36H64.0112L63.5112 40C63.773 41.5704 62.5619 43 60.9698 43H56.9801C55.5747 43 54.6271 41.563 55.1807 40.2712C55.3918 39.7787 55.3918 39.2213 55.1807 38.7288L54.0112 36Z" fill="#EFC6C6"/>
<ellipse cx="59.0112" cy="26.5" rx="14" ry="13.5" fill="#EFC6C6"/>
<path d="M44.0112 30.5L47.9388 35.0318C49.6227 36.9748 51.7983 38.429 54.2375 39.2421C57.6302 40.373 61.3231 40.1947 64.5911 38.7423L65.0395 38.543C67.3206 37.5292 69.3251 35.9826 70.8846 34.0333L74.5112 29.5" stroke="black"/>
<path d="M75.5347 30.3906C68.0347 29.8906 81.0347 18.3906 60.0347 19.8906C37.0347 18.8906 49.5347 32.3906 43.0345 31.2311C42.5347 5.39062 50.1571 6.00124 58.9244 6.00124C67.6918 6.00124 75.0347 5.90706 75.5347 30.3906Z" fill="#BC1F1F"/>
<path d="M51.5112 11L45.5112 19.5" stroke="white" stroke-linecap="round"/>
<ellipse cx="56.2399" cy="10.4571" rx="2" ry="1.5" transform="rotate(-63.8117 56.2399 10.4571)" fill="#871616"/>
<ellipse cx="62.2922" cy="10.4762" rx="2" ry="1.5" transform="rotate(61.0401 62.2922 10.4762)" fill="#821616"/>
<rect x="73.0112" y="23" width="2.5" height="4" fill="black"/>
<rect x="43.0112" y="24" width="2" height="4" fill="black"/>
<path d="M65.4302 19.5C66.5311 19.5 67.625 19.6772 68.6694 20.0254L70.1694 20.5254L70.5845 20.6641C71.393 20.9336 72.0892 21.4647 72.562 22.1738C72.8397 22.5904 73.0322 23.0579 73.1304 23.5488L73.3198 24.4922C73.4561 25.1735 73.4116 25.8789 73.1919 26.5381C72.6994 28.0154 71.393 29.0722 69.8452 29.2441L68.2036 29.4258C67.7452 29.4767 67.2827 29.4795 66.8237 29.4336L64.3481 29.1865C63.0034 29.052 61.8068 28.275 61.1362 27.1016L60.8218 26.5508C60.4506 25.9012 59.7594 25.5 59.0112 25.5C58.2631 25.5 57.5719 25.9012 57.2007 26.5508L56.8599 27.1475C56.2062 28.2912 55.0614 29.0694 53.7573 29.2559L52.8032 29.3916C52.2826 29.466 51.7547 29.4741 51.2319 29.416L48.3335 29.0947C47.6704 29.021 47.0392 28.7704 46.5054 28.3701L46.0112 28C45.3817 27.5279 45.0112 26.7869 45.0112 26C45.0112 24.9181 45.3621 23.8655 46.0112 23L46.1021 22.8789C46.473 22.3842 46.9255 21.9563 47.4399 21.6133L47.6665 21.4619C48.0723 21.1914 48.5056 20.9634 48.9585 20.7822L49.4429 20.5889C50.4002 20.2059 51.4031 19.9473 52.4263 19.8193L54.9487 19.5039L54.98 19.5H65.4302Z" fill="url(#paint10_linear_154_628)" stroke="black"/>
<line x1="58.4856" y1="27.1581" x2="57.4856" y2="30.1581" stroke="black"/>
<line x1="57.1693" y1="30.5257" x2="60.1693" y2="31.5257" stroke="black"/>
<ellipse cx="59.5112" cy="35.5" rx="5.5" ry="1.5" fill="#EFA7A7"/>
<rect x="46.061" y="58.7949" width="1" height="49" transform="rotate(61.7102 46.061 58.7949)" fill="#BC1F1F"/>
<rect x="46.7046" y="57.8809" width="2" height="13" transform="rotate(61.7102 46.7046 57.8809)" fill="#86E962"/>
<path d="M2.47314 82.2559L2.94708 83.1364L0.948986 83.644L2.47314 82.2559Z" fill="black"/>
<ellipse cx="3.15031" cy="82.4577" rx="2" ry="1" transform="rotate(61.7102 3.15031 82.4577)" fill="#86E962"/>
<rect x="49.4111" y="41.918" width="6" height="16.2708" rx="3" transform="rotate(46.531 49.4111 41.918)" fill="url(#paint11_linear_154_628)"/>
<rect x="48.1753" y="62.4141" width="6" height="13.1423" rx="3" transform="rotate(163.504 48.1753 62.4141)" fill="#686868"/>
<rect x="63.8145" y="61.2227" width="1" height="49" transform="rotate(-33.7663 63.8145 61.2227)" fill="#BC1F1F"/>
<rect x="62.8428" y="60.668" width="2" height="13" transform="rotate(-33.7663 62.8428 60.668)" fill="#86E962"/>
<path d="M91.3267 102.371L92.158 101.815L92.8539 103.756L91.3267 102.371Z" fill="black"/>
<ellipse cx="91.4645" cy="101.679" rx="2" ry="1" transform="rotate(-33.7663 91.4645 101.679)" fill="#86E962"/>
<rect x="65.4922" y="66.8125" width="6" height="13.6639" rx="3" transform="rotate(-125.457 65.4922 66.8125)" fill="#686868"/>
<rect x="65.0181" y="44.9121" width="6" height="17.749" rx="3" transform="rotate(-18.5764 65.0181 44.9121)" fill="url(#paint12_linear_154_628)"/>
<defs>
<linearGradient id="paint0_linear_154_628" x1="42.2507" y1="123.926" x2="53.9462" y2="88.6956" gradientUnits="userSpaceOnUse">
<stop stop-color="#BC1F1F"/>
<stop offset="1" stop-color="#430F0F"/>
</linearGradient>
<linearGradient id="paint1_linear_154_628" x1="52.651" y1="122.012" x2="59.8663" y2="101.174" gradientUnits="userSpaceOnUse">
<stop stop-color="#BC1F1F"/>
<stop offset="1" stop-color="#2F0808"/>
</linearGradient>
<linearGradient id="paint2_linear_154_628" x1="54.0005" y1="70.2" x2="54.0005" y2="79" gradientUnits="userSpaceOnUse">
<stop stop-color="#272727"/>
<stop offset="1" stop-color="#8D8D8D"/>
</linearGradient>
<linearGradient id="paint3_linear_154_628" x1="50.7433" y1="87.854" x2="47.5" y2="78" gradientUnits="userSpaceOnUse">
<stop stop-color="#272727"/>
<stop offset="1" stop-color="#8D8D8D"/>
</linearGradient>
<linearGradient id="paint4_linear_154_628" x1="61.7438" y1="88.854" x2="58.5" y2="80" gradientUnits="userSpaceOnUse">
<stop stop-color="#272727"/>
<stop offset="1" stop-color="#8D8D8D"/>
</linearGradient>
<linearGradient id="paint5_linear_154_628" x1="65.5005" y1="68.2" x2="65.5005" y2="77" gradientUnits="userSpaceOnUse">
<stop stop-color="#272727"/>
<stop offset="1" stop-color="#8D8D8D"/>
</linearGradient>
<linearGradient id="paint6_linear_154_628" x1="51.0015" y1="92" x2="51.0015" y2="96" gradientUnits="userSpaceOnUse">
<stop stop-color="#87EA63"/>
<stop offset="1" stop-color="#233A1A"/>
</linearGradient>
<linearGradient id="paint7_linear_154_628" x1="48.9622" y1="103.581" x2="50.4094" y2="95.9882" gradientUnits="userSpaceOnUse">
<stop stop-color="#87EA63"/>
<stop offset="1" stop-color="#233A1A"/>
</linearGradient>
<linearGradient id="paint8_linear_154_628" x1="61.0166" y1="92.5" x2="61.0166" y2="97" gradientUnits="userSpaceOnUse">
<stop stop-color="#87EA63"/>
<stop offset="1" stop-color="#233A1A"/>
</linearGradient>
<linearGradient id="paint9_linear_154_628" x1="58.4666" y1="104.339" x2="59.9138" y2="96.746" gradientUnits="userSpaceOnUse">
<stop stop-color="#87EA63"/>
<stop offset="1" stop-color="#233A1A"/>
</linearGradient>
<linearGradient id="paint10_linear_154_628" x1="45.5112" y1="24.5" x2="73.0112" y2="24.5" gradientUnits="userSpaceOnUse">
<stop stop-color="#AD1D82"/>
<stop offset="1" stop-color="#2B6893"/>
</linearGradient>
<linearGradient id="paint11_linear_154_628" x1="52.6426" y1="51.7807" x2="53.3262" y2="42.9471" gradientUnits="userSpaceOnUse">
<stop stop-color="#686868"/>
<stop offset="1" stop-color="#272727"/>
</linearGradient>
<linearGradient id="paint12_linear_154_628" x1="66.3708" y1="59.7015" x2="67.5092" y2="46.897" gradientUnits="userSpaceOnUse">
<stop stop-color="#686868"/>
<stop offset="1" stop-color="#272727"/>
</linearGradient>
</defs>
</svg>
