<svg width="115" height="140" viewBox="0 0 115 140" fill="none" xmlns="http://www.w3.org/2000/svg">
<rect x="47.0063" y="41" width="22" height="6" rx="3" fill="#272727"/>
<path d="M47.0063 68.6094L53.9797 67.9993L59.2088 127.768C59.3773 129.694 57.9528 131.392 56.0272 131.56C54.1016 131.729 52.4039 130.304 52.2355 128.378L47.0063 68.6094Z" fill="url(#paint0_linear_153_462)"/>
<path d="M56.9995 67.6465L63.9729 67.0364L69.2 126.783C69.3685 128.709 67.944 130.406 66.0184 130.575C64.0927 130.743 62.3951 129.319 62.2267 127.393L56.9995 67.6465Z" fill="url(#paint1_linear_153_462)"/>
<rect x="50.0063" y="67" width="6" height="25" fill="url(#paint2_linear_153_462)"/>
<rect x="60.0063" y="67" width="6" height="25" fill="url(#paint3_linear_153_462)"/>
<rect x="50.0063" y="84" width="6" height="10" fill="url(#paint4_linear_153_462)"/>
<path d="M49.9912 93.8848H55.9912L56.3409 99.4798C56.4314 100.928 55.6193 102.282 54.2989 102.885C52.1127 102.663 50.41 100.888 50.2788 98.6948L49.9912 93.8848Z" fill="url(#paint5_linear_153_462)"/>
<rect x="60.0063" y="84" width="6" height="10" fill="url(#paint6_linear_153_462)"/>
<path d="M60.0063 94H66.0063L66.356 99.5951C66.4466 101.044 65.6344 102.398 64.314 103C62.1278 102.778 60.4251 101.004 60.294 98.81L60.0063 94Z" fill="url(#paint7_linear_153_462)"/>
<path d="M62.0063 103.5C62.0063 102.395 62.9018 101.5 64.0063 101.5C65.1109 101.5 66.0063 102.395 66.0063 103.5H62.0063Z" fill="#585656"/>
<path d="M52.0063 103.5C52.0063 102.395 52.9018 101.5 54.0063 101.5C55.1109 101.5 56.0063 102.395 56.0063 103.5H52.0063Z" fill="#585656"/>
<path d="M47.9143 50.3492C47.425 44.2332 52.2563 39 58.3918 39C64.6104 39 69.4694 44.3692 68.8507 50.5569L67.6625 62.4386C67.5593 63.4709 67.2685 64.4756 66.8046 65.4035L66.0063 67H50.0063L49.3471 65.0221C49.1207 64.3432 48.9775 63.6394 48.9204 62.926L47.9143 50.3492Z" fill="#272727"/>
<path d="M53.0063 35H63.0063L62.5063 39C62.7681 40.5704 61.557 42 59.965 42H55.9752C54.5698 42 53.6222 40.563 54.1758 39.2712C54.3869 38.7787 54.3869 38.2213 54.1758 37.7288L53.0063 35Z" fill="#EFC6C6"/>
<ellipse cx="58.0063" cy="25.5" rx="14" ry="13.5" fill="#EFC6C6"/>
<path d="M43.0063 29.5L46.9339 34.0318C48.6178 35.9748 50.7934 37.429 53.2326 38.2421C56.6253 39.373 60.3182 39.1947 63.5862 37.7423L64.0346 37.543C66.3158 36.5292 68.3203 34.9826 69.8797 33.0333L73.5063 28.5" stroke="black"/>
<path d="M74.5298 29.3906C67.0298 28.8906 80.0298 17.3906 59.0298 18.8906C36.0298 17.8906 48.5298 31.3906 42.0296 30.2311C41.5298 4.39062 49.1522 5.00124 57.9196 5.00124C66.6869 5.00124 74.0298 4.90706 74.5298 29.3906Z" fill="#BC1F1F"/>
<path d="M50.5063 10L44.5063 18.5" stroke="white" stroke-linecap="round"/>
<ellipse cx="55.235" cy="9.45713" rx="2" ry="1.5" transform="rotate(-63.8117 55.235 9.45713)" fill="#871616"/>
<ellipse cx="61.2873" cy="9.47621" rx="2" ry="1.5" transform="rotate(61.0401 61.2873 9.47621)" fill="#821616"/>
<rect x="72.0063" y="22" width="2.5" height="4" fill="black"/>
<rect x="42.0063" y="23" width="2" height="4" fill="black"/>
<path d="M64.4253 18.5C65.5262 18.5 66.6201 18.6772 67.6646 19.0254L69.1646 19.5254L69.5796 19.6641C70.3882 19.9336 71.0844 20.4647 71.5571 21.1738C71.8348 21.5904 72.0273 22.0579 72.1255 22.5488L72.3149 23.4922C72.4512 24.1735 72.4067 24.8789 72.187 25.5381C71.6945 27.0154 70.3881 28.0722 68.8403 28.2441L67.1987 28.4258C66.7403 28.4767 66.2778 28.4795 65.8188 28.4336L63.3433 28.1865C61.9985 28.052 60.8019 27.275 60.1313 26.1016L59.8169 25.5508C59.4457 24.9012 58.7545 24.5 58.0063 24.5C57.2582 24.5 56.567 24.9012 56.1958 25.5508L55.855 26.1475C55.2014 27.2912 54.0565 28.0694 52.7524 28.2559L51.7983 28.3916C51.2777 28.466 50.7498 28.4741 50.2271 28.416L47.3286 28.0947C46.6655 28.021 46.0343 27.7704 45.5005 27.3701L45.0063 27C44.3768 26.5279 44.0063 25.7869 44.0063 25C44.0063 23.9181 44.3572 22.8655 45.0063 22L45.0972 21.8789C45.4682 21.3842 45.9206 20.9563 46.4351 20.6133L46.6616 20.4619C47.0675 20.1914 47.5007 19.9634 47.9536 19.7822L48.438 19.5889C49.3954 19.2059 50.3982 18.9473 51.4214 18.8193L53.9438 18.5039L53.9751 18.5H64.4253Z" fill="url(#paint8_linear_153_462)" stroke="black"/>
<line x1="57.4807" y1="26.1581" x2="56.4807" y2="29.1581" stroke="black"/>
<line x1="56.1645" y1="29.5257" x2="59.1645" y2="30.5257" stroke="black"/>
<ellipse cx="58.5063" cy="34.5" rx="5.5" ry="1.5" fill="#EFA7A7"/>
<rect x="53.2725" y="57.5625" width="1" height="49" transform="rotate(26.4385 53.2725 57.5625)" fill="#BC1F1F"/>
<rect x="53.27" y="56.4453" width="2" height="13" transform="rotate(26.4385 53.27 56.4453)" fill="#86E962"/>
<path d="M31.2334 101.885L32.1288 102.33L30.7906 103.898L31.2334 101.885Z" fill="black"/>
<ellipse cx="31.9037" cy="101.661" rx="2" ry="1" transform="rotate(26.4385 31.9037 101.661)" fill="#86E962"/>
<rect x="45.3896" y="42.6816" width="6" height="16.2708" rx="3" transform="rotate(11.9646 45.3896 42.6816)" fill="url(#paint9_linear_153_462)"/>
<rect x="56" y="60.2598" width="6" height="13.1423" rx="3" transform="rotate(128.938 56 60.2598)" fill="#686868"/>
<path d="M52.3563 49.755H53.1363V51.055H54.5163V49.755H55.2963V53H54.5163V51.61H53.1363V53H52.3563V49.755ZM55.994 49.755H58.469V50.31H56.774V51.055H58.304V51.61H56.774V52.445H58.519V53H55.994V49.755ZM59.9058 49.755H60.8558L62.0258 53H61.2358L60.9458 52.145H59.7608L59.4758 53H58.7058L59.9058 49.755ZM60.7758 51.625L60.3658 50.405H60.3458L59.9358 51.625H60.7758ZM62.3856 49.755H63.7656C64.1456 49.755 64.4456 49.785 64.6656 49.845C64.8856 49.9017 65.0473 50.0017 65.1506 50.145C65.254 50.2883 65.3056 50.4867 65.3056 50.74V52.06C65.3056 52.3067 65.2573 52.4983 65.1606 52.635C65.064 52.7683 64.9056 52.8633 64.6856 52.92C64.4656 52.9733 64.1606 53 63.7706 53H62.3856V49.755ZM63.7356 52.445C63.949 52.445 64.109 52.4367 64.2156 52.42C64.3256 52.4 64.404 52.3633 64.4506 52.31C64.5006 52.2567 64.5256 52.1733 64.5256 52.06V50.725C64.5256 50.5717 64.464 50.465 64.3406 50.405C64.2206 50.3417 64.0273 50.31 63.7606 50.31H63.1656V52.445H63.7356Z" fill="white"/>
<rect x="62.8096" y="60.2207" width="1" height="49" transform="rotate(-33.7663 62.8096 60.2207)" fill="#BC1F1F"/>
<rect x="61.8384" y="59.668" width="2" height="13" transform="rotate(-33.7663 61.8384 59.668)" fill="#86E962"/>
<path d="M90.3223 101.371L91.1536 100.815L91.8495 102.756L90.3223 101.371Z" fill="black"/>
<ellipse cx="90.4596" cy="100.677" rx="2" ry="1" transform="rotate(-33.7663 90.4596 100.677)" fill="#86E962"/>
<rect x="64.4868" y="65.8125" width="6" height="13.6639" rx="3" transform="rotate(-125.457 64.4868 65.8125)" fill="#686868"/>
<rect x="64.0127" y="43.9121" width="6" height="17.749" rx="3" transform="rotate(-18.5764 64.0127 43.9121)" fill="url(#paint10_linear_153_462)"/>
<defs>
<linearGradient id="paint0_linear_153_462" x1="55.0063" y1="122" x2="52.0063" y2="85" gradientUnits="userSpaceOnUse">
<stop stop-color="#BC1F1F"/>
<stop offset="1" stop-color="#430F0F"/>
</linearGradient>
<linearGradient id="paint1_linear_153_462" x1="65.0063" y1="120" x2="63.5063" y2="98" gradientUnits="userSpaceOnUse">
<stop stop-color="#BC1F1F"/>
<stop offset="1" stop-color="#2F0808"/>
</linearGradient>
<linearGradient id="paint2_linear_153_462" x1="53.0063" y1="72" x2="53.0063" y2="92" gradientUnits="userSpaceOnUse">
<stop stop-color="#272727"/>
<stop offset="1" stop-color="#8D8D8D"/>
</linearGradient>
<linearGradient id="paint3_linear_153_462" x1="63.0063" y1="72" x2="63.0063" y2="92" gradientUnits="userSpaceOnUse">
<stop stop-color="#272727"/>
<stop offset="1" stop-color="#8D8D8D"/>
</linearGradient>
<linearGradient id="paint4_linear_153_462" x1="53.0063" y1="90" x2="53.0063" y2="94" gradientUnits="userSpaceOnUse">
<stop stop-color="#87EA63"/>
<stop offset="1" stop-color="#233A1A"/>
</linearGradient>
<linearGradient id="paint5_linear_153_462" x1="53.7756" y1="101.714" x2="53.0103" y2="94.0226" gradientUnits="userSpaceOnUse">
<stop stop-color="#87EA63"/>
<stop offset="1" stop-color="#233A1A"/>
</linearGradient>
<linearGradient id="paint6_linear_153_462" x1="63.0063" y1="89.5" x2="63.0063" y2="94" gradientUnits="userSpaceOnUse">
<stop stop-color="#87EA63"/>
<stop offset="1" stop-color="#233A1A"/>
</linearGradient>
<linearGradient id="paint7_linear_153_462" x1="63.7907" y1="101.83" x2="63.0255" y2="94.1378" gradientUnits="userSpaceOnUse">
<stop stop-color="#87EA63"/>
<stop offset="1" stop-color="#233A1A"/>
</linearGradient>
<linearGradient id="paint8_linear_153_462" x1="44.5063" y1="23.5" x2="72.0063" y2="23.5" gradientUnits="userSpaceOnUse">
<stop stop-color="#AD1D82"/>
<stop offset="1" stop-color="#2B6893"/>
</linearGradient>
<linearGradient id="paint9_linear_153_462" x1="48.6212" y1="52.5443" x2="49.3047" y2="43.7107" gradientUnits="userSpaceOnUse">
<stop stop-color="#686868"/>
<stop offset="1" stop-color="#272727"/>
</linearGradient>
<linearGradient id="paint10_linear_153_462" x1="65.3654" y1="58.7015" x2="66.5038" y2="45.897" gradientUnits="userSpaceOnUse">
<stop stop-color="#686868"/>
<stop offset="1" stop-color="#272727"/>
</linearGradient>
</defs>
</svg>
