<svg width="1180" height="1020" viewBox="0 0 1180 1020" fill="none" xmlns="http://www.w3.org/2000/svg">
<path d="M442.774 43.0191C444.851 42.4753 446.548 41.9583 447.867 41.4682L448.222 42.8225C447.2 43.5244 446.318 44.6718 445.578 46.2647C444.837 47.8576 444.345 49.9402 444.102 52.5123L439.941 94.9203C439.433 95.0052 438.637 95.1895 437.553 95.4733C436.515 95.7452 435.753 95.9688 435.269 96.144L406.899 58.276C405.922 56.94 404.961 56.0339 404.016 55.5577C403.071 55.0816 402.232 54.9155 401.498 55.0595L401.143 53.7052C403.887 53.1312 407.336 52.3004 411.489 51.2126C416.139 49.9948 419.552 49.0286 421.729 48.3138L422.083 49.6681C420.392 50.2077 419.226 50.7301 418.586 51.2352C417.947 51.7404 417.751 52.467 418 53.4151C418.201 54.1825 418.749 55.1725 419.646 56.3849L439.509 83.6004L441.95 58.9373C442.304 55.1301 442.214 52.2108 441.682 50.1793C441.21 48.3735 440.37 47.1944 439.164 46.6419C438.003 46.0776 436.486 45.9927 434.611 46.3872L434.256 45.0329C437.362 44.3643 440.201 43.6931 442.774 43.0191ZM473.972 37.6977C472.433 38.0962 471.348 38.5005 470.715 38.9106C470.083 39.3207 469.706 39.942 469.584 40.7745C469.509 41.598 469.643 42.8797 469.986 44.6195L476.702 78.6838C477.045 80.4236 477.407 81.6601 477.79 82.3934C478.218 83.1175 478.803 83.5493 479.544 83.6886C480.284 83.8279 481.442 83.7899 483.017 83.5745L483.288 84.9481C480.788 85.2982 477.318 85.9111 472.877 86.7867C467.978 87.7525 464.374 88.5343 462.066 89.1321L461.796 87.7585C463.288 87.3691 464.351 86.9693 464.984 86.5592C465.662 86.14 466.039 85.5187 466.115 84.6952C466.236 83.8627 466.125 82.5765 465.782 80.8367L459.066 46.7724C458.723 45.0326 458.337 43.8006 457.909 43.0764C457.527 42.3432 456.942 41.9114 456.155 41.7811C455.415 41.6418 454.28 41.6753 452.751 41.8817L452.48 40.5081C454.842 40.1851 458.473 39.5406 463.372 38.5748C467.813 37.6991 471.256 36.9489 473.701 36.3241L473.972 37.6977ZM505.913 30.8512C508.689 30.4829 511.101 30.563 513.148 31.0916C515.195 31.6202 517.239 32.4788 519.28 33.6673C519.844 34.0161 520.311 34.166 520.681 34.1168C521.607 33.9941 522.024 32.5264 521.933 29.7139L523.529 29.5021C523.761 32.6724 524.412 38.2823 525.48 46.3317L523.884 46.5435C523.013 43.1755 522.111 40.6354 521.178 38.9233C520.245 37.2112 518.856 35.7949 517.013 34.6743C515.709 33.7175 514.257 33.0628 512.657 32.7103C511.05 32.3115 509.414 32.2226 507.749 32.4436C503.076 33.0637 499.911 35.814 498.252 40.6947C496.587 45.5291 496.205 51.3465 497.108 58.1469C498.004 64.901 499.933 70.3883 502.894 74.6088C505.855 78.8293 509.671 80.6295 514.344 80.0094C515.916 79.8007 517.429 79.3175 518.882 78.5598C520.375 77.7496 521.58 76.7188 522.497 75.4674C524.037 73.9449 525.001 72.1692 525.391 70.1403C525.827 68.1053 525.982 65.1896 525.855 61.3933L527.451 61.1815C528.562 69.5548 529.428 75.3714 530.049 78.6314L528.453 78.8432C528.118 77.3813 527.771 76.368 527.414 75.8035C527.097 75.1865 526.707 74.9087 526.244 74.9701C525.874 75.0192 525.413 75.2687 524.861 75.7186C522.975 77.4752 521.136 78.8726 519.344 79.9108C517.546 80.9026 515.305 81.5766 512.622 81.9327C507.718 82.5834 503.284 82.1598 499.319 80.6617C495.4 79.1574 492.175 76.6668 489.642 73.1898C487.103 69.6665 485.487 65.2911 484.793 60.0636C484.118 54.9749 484.56 50.3263 486.12 46.1178C487.68 41.9094 490.166 38.4725 493.578 35.807C497.037 33.1355 501.148 31.4836 505.913 30.8512ZM576.213 26.2752C576.119 30.7196 576.163 34.6894 576.346 38.1846C576.461 40.3749 576.623 42.1422 576.834 43.4863L575.226 43.5705C573.807 37.8969 572.059 33.9463 569.979 31.7186C567.947 29.4885 565.252 28.4613 561.897 28.6369L560.289 28.7211L562.379 68.6364C562.481 70.5937 562.742 72.0054 563.161 72.8713C563.627 73.7348 564.358 74.304 565.354 74.579C566.394 74.805 568.01 74.8839 570.203 74.8159L570.276 76.2139C564.397 76.3815 559.966 76.5434 556.983 76.6995C554.047 76.8532 549.787 77.1464 544.202 77.579L544.128 76.1809C546.316 76.0196 547.892 75.7735 548.856 75.4427C549.864 75.0628 550.532 74.4204 550.858 73.5154C551.231 72.608 551.367 71.1756 551.264 69.2183L549.175 29.303L547.637 29.3835C545.4 29.5006 543.515 30.0899 541.981 31.1515C540.495 32.2107 539.252 33.9113 538.253 36.2534C537.252 38.5489 536.457 41.6747 535.87 45.6308L534.262 45.715C534.331 44.3562 534.308 42.5816 534.194 40.3913C534.011 36.8961 533.64 32.9434 533.082 28.5332C537.33 28.451 544.534 28.144 554.694 27.6121C564.853 27.0802 572.026 26.6346 576.213 26.2752ZM609.915 25.9971C614.859 26.1468 619.143 27.2803 622.768 29.3976C626.439 31.5164 629.242 34.5193 631.179 38.4063C633.117 42.2467 634.006 46.8024 633.847 52.0733C633.691 57.2043 632.504 61.7204 630.285 65.6217C628.066 69.523 625.034 72.5126 621.189 74.5906C617.391 76.6699 613.09 77.6369 608.286 77.4914C603.341 77.3417 599.034 76.2075 595.363 74.0888C591.738 71.9715 588.957 68.9926 587.019 65.1522C585.083 61.2652 584.194 56.6862 584.354 51.4153C584.509 46.2843 585.696 41.7682 587.915 37.8668C590.134 33.9655 593.143 30.9752 596.941 28.8959C600.786 26.8179 605.11 25.8517 609.915 25.9971ZM609.597 27.2481C607.031 27.1704 604.737 28.1514 602.714 30.1912C600.693 32.1843 599.09 35.0304 597.904 38.7295C596.765 42.4301 596.122 46.6826 595.977 51.487C595.83 56.3382 596.284 60.6238 597.338 64.3441C598.44 68.0658 599.963 70.9599 601.908 73.0264C603.899 75.0943 606.131 76.1656 608.604 76.2405C611.169 76.3182 613.462 75.3604 615.484 73.3674C617.506 71.3276 619.087 68.4575 620.226 64.7569C621.412 61.0578 622.078 56.806 622.223 52.0015C622.37 47.1504 621.893 42.864 620.792 39.1423C619.737 35.422 618.214 32.528 616.222 30.4601C614.277 28.3936 612.069 27.3229 609.597 27.2481ZM664.056 31.7089C662.468 31.6491 661.312 31.7249 660.588 31.9363C659.864 32.1476 659.325 32.6347 658.97 33.3974C658.661 34.1646 658.422 35.4308 658.251 37.1959L654.911 71.7548C654.74 73.5199 654.733 74.8085 654.889 75.6206C655.091 76.4372 655.527 77.0185 656.197 77.3646C656.867 77.7106 657.987 78.0064 659.557 78.252L659.423 79.6455C656.928 79.2637 653.428 78.8551 648.922 78.4196C643.952 77.9392 640.275 77.6542 637.893 77.5646L638.028 76.1711C639.57 76.2263 640.702 76.1483 641.426 75.9369C642.196 75.7301 642.735 75.243 643.044 74.4758C643.399 73.7131 643.662 72.4492 643.832 70.6841L647.173 36.1251C647.343 34.36 647.327 33.0692 647.125 32.2526C646.969 31.4405 646.533 30.8592 645.817 30.5086C645.147 30.1626 644.05 29.869 642.526 29.628L642.661 28.2345C645.016 28.6028 648.679 29.0271 653.649 29.5075C658.155 29.943 661.669 30.2123 664.191 30.3154L664.056 31.7089ZM711.419 84.6919C709.946 85.9216 708.448 86.7218 706.923 87.0926C705.392 87.5094 703.612 87.5558 701.585 87.2317C698.912 86.8045 696.88 85.9127 695.49 84.5563C694.154 83.1612 693.472 81.0674 693.446 78.275L693.307 71.1638C693.245 67.7041 692.902 65.1209 692.277 63.4142C691.705 61.6687 690.429 60.6377 688.447 60.321L683.954 59.6029L681.413 75.5011C681.133 77.2522 681.046 78.5378 681.151 79.3581C681.302 80.1856 681.702 80.7929 682.349 81.1799C682.996 81.5669 684.095 81.9316 685.647 82.2742L685.426 83.6567C682.96 83.1207 679.492 82.4955 675.022 81.7811C670.091 80.993 666.44 80.4803 664.067 80.2429L664.288 78.8604C665.824 79.0113 666.959 79.0038 667.695 78.8377C668.476 78.6791 669.045 78.2265 669.4 77.4799C669.802 76.7407 670.143 75.4956 670.423 73.7445L675.902 39.4596C676.182 37.7085 676.247 36.4192 676.095 35.5916C675.99 34.7714 675.591 34.1641 674.898 33.7698C674.251 33.3828 673.174 33.0217 671.668 32.6865L671.889 31.304C674.217 31.8179 677.709 32.4468 682.363 33.1907L690.046 34.3479C690.975 34.4491 692.039 34.5954 693.237 34.7869C699.596 35.8033 704.2 37.6025 707.048 40.1844C709.943 42.7736 711.08 46.0037 710.462 49.8745C709.939 53.1463 708.28 55.835 705.486 57.9404C702.692 60.0458 698.479 60.9792 692.846 60.7405C696.935 61.772 699.878 63.1641 701.678 64.9167C703.477 66.6693 704.448 69.022 704.59 71.9748L705.042 79.3486C705.116 81.2508 705.325 82.6073 705.668 83.4183C706.057 84.2366 706.689 84.7158 707.565 84.8557C708.125 84.898 708.608 84.8334 709.013 84.6619C709.465 84.4978 709.988 84.1798 710.584 83.7078L711.419 84.6919ZM692.129 35.9566C690.884 35.7578 689.937 35.7718 689.286 35.9986C688.682 36.2328 688.198 36.7462 687.835 37.5388C687.472 38.3315 687.158 39.5573 686.893 41.2162L684.175 58.2204L687.147 58.6955C690.926 59.2994 693.665 58.7211 695.364 56.9605C697.117 55.1613 698.284 52.4414 698.866 48.8009C699.47 45.0222 699.258 42.0584 698.231 39.9093C697.204 37.7603 695.17 36.4427 692.129 35.9566ZM751.661 86.7342C750.653 90.9076 749.979 94.3935 749.639 97.192C746.588 96.311 741.41 94.9888 734.107 93.2252C724.218 90.8372 716.807 89.1198 711.875 88.0728L712.204 86.7119C713.722 86.9827 714.855 87.0641 715.601 86.9563C716.393 86.8594 716.995 86.4527 717.408 85.7363C717.866 85.0309 718.304 83.8162 718.72 82.0924L726.87 48.3425C727.286 46.6187 727.451 45.3384 727.365 44.5015C727.324 43.6755 726.974 43.0388 726.314 42.5914C725.699 42.1549 724.654 41.7106 723.179 41.2584L723.508 39.8975C728.374 41.2166 735.752 43.0701 745.641 45.4581C752.309 47.0683 757.066 48.1449 759.912 48.688C758.685 52.3764 757.716 55.695 757.004 58.6435C756.522 60.6395 756.217 62.1983 756.09 63.3198L754.525 62.9419C755.017 57.9238 754.614 54.2258 753.316 51.848C752.018 49.4702 749.758 47.8924 746.537 47.1147L743.748 46.4411C742.341 46.1015 741.293 45.9684 740.603 46.0419C739.914 46.1153 739.373 46.4649 738.982 47.0906C738.602 47.6709 738.236 48.6869 737.886 50.1385L733.811 67.0134L735.988 67.5392C738.393 68.1198 740.421 67.6734 742.073 66.2C743.77 64.7375 745.164 62.8418 746.255 60.5127L747.82 60.8906C747.223 62.763 746.641 64.8786 746.071 67.2375L745.282 70.5036C744.724 72.8171 744.082 76.0707 743.357 80.2645L741.792 79.8865C742.286 73.6686 740.241 70.0065 735.66 68.9001L733.482 68.3743L729.342 85.5215C728.991 86.9731 728.847 88.0665 728.91 88.8017C728.983 89.4916 729.31 90.0266 729.89 90.4068C730.471 90.7869 731.464 91.1468 732.87 91.4864L736.204 92.2915C739.425 93.0692 742.274 92.6049 744.75 90.8985C747.283 89.1577 749.593 85.7548 751.68 80.6899L753.245 81.0678C752.747 82.5319 752.219 84.4207 751.661 86.7342Z" fill="#DABE12"/>
<path d="M321.295 138.663C323.495 138.963 325.065 139.603 326.005 140.583C326.945 141.543 327.415 142.703 327.415 144.063C327.415 145.203 327.125 146.213 326.545 147.093C325.965 147.973 325.135 148.663 324.055 149.163C322.975 149.643 321.695 149.883 320.215 149.883C319.675 149.883 319.215 149.873 318.835 149.853C317.555 149.813 316.295 149.793 315.055 149.793C313.415 149.793 312.175 149.823 311.335 149.883V149.283C312.055 149.243 312.575 149.163 312.895 149.043C313.235 148.923 313.465 148.693 313.585 148.353C313.705 148.013 313.765 147.463 313.765 146.703V131.823C313.765 131.063 313.705 130.513 313.585 130.173C313.465 129.833 313.235 129.603 312.895 129.483C312.575 129.363 312.055 129.283 311.335 129.243V128.643C312.175 128.703 313.395 128.733 314.995 128.733L318.235 128.703C318.615 128.683 319.045 128.673 319.525 128.673C321.565 128.673 323.125 129.103 324.205 129.963C325.305 130.823 325.855 131.963 325.855 133.383C325.855 134.543 325.485 135.583 324.745 136.503C324.025 137.423 322.875 138.123 321.295 138.603V138.663ZM318.775 129.243C318.155 129.243 317.685 129.313 317.365 129.453C317.065 129.593 316.855 129.843 316.735 130.203C316.615 130.563 316.555 131.103 316.555 131.823V138.603H318.565C320.205 138.603 321.345 138.163 321.985 137.283C322.645 136.383 322.975 135.193 322.975 133.713C322.975 132.213 322.645 131.093 321.985 130.353C321.325 129.613 320.255 129.243 318.775 129.243ZM318.805 149.193C322.545 149.193 324.415 147.443 324.415 143.943C324.415 142.363 323.985 141.163 323.125 140.343C322.285 139.523 320.935 139.113 319.075 139.113H316.555V146.703C316.555 147.423 316.615 147.953 316.735 148.293C316.855 148.633 317.065 148.873 317.365 149.013C317.685 149.133 318.165 149.193 318.805 149.193ZM347.726 148.623C347.346 149.163 346.906 149.583 346.406 149.883C345.926 150.163 345.346 150.303 344.666 150.303C342.986 150.303 341.956 149.543 341.576 148.023L340.646 144.273C340.366 143.153 339.946 142.403 339.386 142.023C338.846 141.643 338.036 141.453 336.956 141.453H335.246V146.703C335.246 147.463 335.306 148.013 335.426 148.353C335.546 148.693 335.766 148.923 336.086 149.043C336.426 149.163 336.956 149.243 337.676 149.283V149.883C336.756 149.823 335.486 149.793 333.866 149.793C332.146 149.793 330.866 149.823 330.026 149.883V149.283C330.746 149.243 331.266 149.163 331.586 149.043C331.926 148.923 332.156 148.693 332.276 148.353C332.396 148.013 332.456 147.463 332.456 146.703V134.823C332.456 134.063 332.396 133.513 332.276 133.173C332.156 132.833 331.926 132.603 331.586 132.483C331.266 132.363 330.746 132.283 330.026 132.243V131.643C330.866 131.703 332.086 131.733 333.686 131.733L336.746 131.703C337.086 131.683 337.476 131.673 337.916 131.673C340.156 131.673 341.866 132.093 343.046 132.933C344.246 133.773 344.846 134.863 344.846 136.203C344.846 137.363 344.376 138.423 343.436 139.383C342.516 140.343 340.996 140.953 338.876 141.213C339.276 141.253 339.616 141.293 339.896 141.333C340.956 141.493 341.796 141.813 342.416 142.293C343.036 142.773 343.476 143.543 343.736 144.603L344.396 147.333C344.556 148.033 344.726 148.533 344.906 148.833C345.106 149.113 345.356 149.253 345.656 149.253C346.156 149.253 346.706 148.913 347.306 148.233L347.726 148.623ZM337.166 132.243C336.626 132.243 336.216 132.313 335.936 132.453C335.676 132.593 335.496 132.843 335.396 133.203C335.296 133.563 335.246 134.103 335.246 134.823V140.853H337.256C339.016 140.853 340.216 140.483 340.856 139.743C341.516 138.983 341.846 137.913 341.846 136.533C341.846 135.093 341.476 134.023 340.736 133.323C340.016 132.603 338.826 132.243 337.166 132.243ZM363.987 147.363C364.527 148.603 365.217 149.243 366.057 149.283V149.883C365.257 149.823 364.187 149.793 362.847 149.793C361.127 149.793 359.847 149.823 359.007 149.883V149.283C359.747 149.243 360.287 149.143 360.627 148.983C360.987 148.823 361.167 148.553 361.167 148.173C361.167 147.853 361.027 147.383 360.747 146.763L359.217 143.343H351.927L350.907 145.593C350.567 146.373 350.397 147.013 350.397 147.513C350.397 148.033 350.577 148.443 350.937 148.743C351.317 149.023 351.917 149.203 352.737 149.283V149.883C352.137 149.823 351.227 149.793 350.007 149.793C348.787 149.793 347.917 149.823 347.397 149.883V149.283C347.937 149.143 348.397 148.843 348.777 148.383C349.157 147.903 349.517 147.273 349.857 146.493L356.487 131.493H356.967L363.987 147.363ZM358.977 142.743L355.587 135.123L352.167 142.743H358.977ZM379.779 131.733C380.619 131.733 381.289 131.703 381.789 131.643V132.243C381.229 132.383 380.779 132.663 380.439 133.083C380.099 133.483 379.709 134.183 379.269 135.183L372.699 150.033H372.219L365.199 134.163C364.659 132.923 363.969 132.283 363.129 132.243V131.643C363.949 131.703 365.019 131.733 366.339 131.733C368.059 131.733 369.339 131.703 370.179 131.643V132.243C369.439 132.283 368.889 132.383 368.529 132.543C368.189 132.703 368.019 132.973 368.019 133.353C368.019 133.673 368.159 134.143 368.439 134.763L373.599 146.403L378.069 136.443C378.569 135.363 378.819 134.513 378.819 133.893C378.819 133.333 378.619 132.933 378.219 132.693C377.839 132.433 377.249 132.283 376.449 132.243V131.643C377.049 131.703 378.159 131.733 379.779 131.733ZM392.067 131.223C393.907 131.223 395.517 131.593 396.897 132.333C398.297 133.053 399.377 134.123 400.137 135.543C400.897 136.943 401.277 138.623 401.277 140.583C401.277 142.503 400.877 144.203 400.077 145.683C399.297 147.143 398.207 148.283 396.807 149.103C395.407 149.903 393.817 150.303 392.037 150.303C390.197 150.303 388.577 149.943 387.177 149.223C385.797 148.483 384.727 147.413 383.967 146.013C383.207 144.593 382.827 142.903 382.827 140.943C382.827 139.023 383.217 137.333 383.997 135.873C384.797 134.393 385.897 133.253 387.297 132.453C388.697 131.633 390.287 131.223 392.067 131.223ZM391.947 131.763C390.727 131.763 389.647 132.153 388.707 132.933C387.787 133.693 387.077 134.763 386.577 136.143C386.077 137.503 385.827 139.063 385.827 140.823C385.827 142.603 386.107 144.173 386.667 145.533C387.227 146.893 387.987 147.943 388.947 148.683C389.907 149.403 390.977 149.763 392.157 149.763C393.377 149.763 394.447 149.383 395.367 148.623C396.307 147.843 397.027 146.773 397.527 145.413C398.027 144.033 398.277 142.463 398.277 140.703C398.277 138.923 397.997 137.353 397.437 135.993C396.877 134.633 396.117 133.593 395.157 132.873C394.197 132.133 393.127 131.763 391.947 131.763ZM406.404 146.463C407.184 146.463 407.774 146.783 408.174 147.423C408.514 147.963 408.684 148.623 408.684 149.403C408.684 150.403 408.424 151.303 407.904 152.103C407.404 152.903 406.634 153.543 405.594 154.023L405.324 153.483C405.944 153.223 406.474 152.813 406.914 152.253C407.374 151.693 407.604 151.123 407.604 150.543C407.604 150.303 407.574 150.093 407.514 149.913C407.194 150.173 406.824 150.303 406.404 150.303C405.864 150.303 405.404 150.133 405.024 149.793C404.664 149.433 404.484 148.963 404.484 148.383C404.484 147.843 404.664 147.393 405.024 147.033C405.404 146.653 405.864 146.463 406.404 146.463ZM426.827 132.243C426.107 132.283 425.577 132.363 425.237 132.483C424.917 132.603 424.697 132.833 424.577 133.173C424.457 133.513 424.397 134.063 424.397 134.823V146.703C424.397 147.463 424.457 148.013 424.577 148.353C424.697 148.693 424.917 148.923 425.237 149.043C425.577 149.143 426.107 149.193 426.827 149.193H428.717C430.097 149.193 431.167 148.783 431.927 147.963C432.707 147.143 433.177 145.783 433.337 143.883H434.027C433.967 144.503 433.937 145.323 433.937 146.343C433.937 147.383 434.007 148.563 434.147 149.883C432.847 149.823 430.657 149.793 427.577 149.793C423.877 149.793 421.077 149.823 419.177 149.883V149.283C419.897 149.243 420.417 149.163 420.737 149.043C421.077 148.923 421.307 148.693 421.427 148.353C421.547 148.013 421.607 147.463 421.607 146.703V134.823C421.607 134.063 421.547 133.513 421.427 133.173C421.307 132.833 421.077 132.603 420.737 132.483C420.417 132.363 419.897 132.283 419.177 132.243V131.643C420.017 131.703 421.297 131.733 423.017 131.733C424.617 131.733 425.887 131.703 426.827 131.643V132.243ZM451.134 146.343C451.134 147.383 451.204 148.563 451.344 149.883C450.044 149.823 447.854 149.793 444.774 149.793C441.074 149.793 438.274 149.823 436.374 149.883V149.283C437.094 149.243 437.614 149.163 437.934 149.043C438.274 148.923 438.504 148.693 438.624 148.353C438.744 148.013 438.804 147.463 438.804 146.703V134.823C438.804 134.063 438.744 133.513 438.624 133.173C438.504 132.833 438.274 132.603 437.934 132.483C437.614 132.363 437.094 132.283 436.374 132.243V131.643C438.274 131.703 441.074 131.733 444.774 131.733C447.574 131.733 449.564 131.703 450.744 131.643C450.604 132.843 450.534 133.923 450.534 134.883C450.534 135.663 450.564 136.283 450.624 136.743H449.934C449.794 135.103 449.444 133.963 448.884 133.323C448.344 132.663 447.454 132.333 446.214 132.333H444.024C443.304 132.333 442.774 132.393 442.434 132.513C442.114 132.613 441.894 132.833 441.774 133.173C441.654 133.513 441.594 134.063 441.594 134.823V140.403H444.084C444.724 140.403 445.214 140.243 445.554 139.923C445.894 139.583 446.124 139.223 446.244 138.843C446.364 138.443 446.474 137.943 446.574 137.343H447.264C447.204 138.023 447.174 138.763 447.174 139.563V140.703C447.174 141.483 447.234 142.603 447.354 144.063H446.664C446.544 143.103 446.314 142.353 445.974 141.813C445.634 141.273 445.004 141.003 444.084 141.003H441.594V146.703C441.594 147.463 441.654 148.013 441.774 148.353C441.894 148.693 442.114 148.923 442.434 149.043C442.774 149.143 443.304 149.193 444.024 149.193H446.214C447.214 149.193 448.004 149.033 448.584 148.713C449.164 148.393 449.604 147.883 449.904 147.183C450.204 146.463 450.414 145.463 450.534 144.183H451.224C451.164 144.723 451.134 145.443 451.134 146.343ZM460.636 131.223C461.516 131.223 462.206 131.323 462.706 131.523C463.226 131.703 463.756 131.973 464.296 132.333C464.736 132.613 465.076 132.753 465.316 132.753C465.496 132.753 465.636 132.653 465.736 132.453C465.836 132.233 465.916 131.893 465.976 131.433H466.666C466.566 132.473 466.516 134.313 466.516 136.953H465.826C465.706 135.513 465.236 134.293 464.416 133.293C463.616 132.293 462.446 131.793 460.906 131.793C459.846 131.793 458.966 132.073 458.266 132.633C457.586 133.193 457.246 133.903 457.246 134.763C457.246 135.383 457.396 135.923 457.696 136.383C458.016 136.843 458.416 137.243 458.896 137.583C459.396 137.903 460.096 138.303 460.996 138.783L461.986 139.323C463.226 139.983 464.216 140.573 464.956 141.093C465.716 141.613 466.326 142.213 466.786 142.893C467.246 143.553 467.476 144.323 467.476 145.203C467.476 146.823 466.886 148.083 465.706 148.983C464.546 149.863 463.086 150.303 461.326 150.303C460.366 150.303 459.576 150.203 458.956 150.003C458.356 149.803 457.776 149.533 457.216 149.193C456.776 148.913 456.436 148.773 456.196 148.773C456.016 148.773 455.876 148.883 455.776 149.103C455.676 149.303 455.596 149.633 455.536 150.093H454.846C454.926 149.113 454.966 146.913 454.966 143.493H455.656C455.796 145.353 456.296 146.853 457.156 147.993C458.016 149.133 459.336 149.703 461.116 149.703C462.116 149.703 462.976 149.423 463.696 148.863C464.436 148.283 464.806 147.433 464.806 146.313C464.806 145.653 464.616 145.073 464.236 144.573C463.856 144.053 463.346 143.593 462.706 143.193C462.066 142.793 461.176 142.293 460.036 141.693C458.396 140.853 457.146 140.013 456.286 139.173C455.426 138.333 454.996 137.243 454.996 135.903C454.996 134.423 455.536 133.273 456.616 132.453C457.716 131.633 459.056 131.223 460.636 131.223ZM485.391 132.243C484.671 132.283 484.141 132.363 483.801 132.483C483.481 132.603 483.261 132.833 483.141 133.173C483.021 133.513 482.961 134.063 482.961 134.823V146.703C482.961 147.463 483.021 148.013 483.141 148.353C483.261 148.693 483.481 148.923 483.801 149.043C484.141 149.163 484.671 149.243 485.391 149.283V149.883C484.471 149.823 483.201 149.793 481.581 149.793C479.861 149.793 478.581 149.823 477.741 149.883V149.283C478.461 149.243 478.981 149.163 479.301 149.043C479.641 148.923 479.871 148.693 479.991 148.353C480.111 148.013 480.171 147.463 480.171 146.703V134.823C480.171 134.063 480.111 133.513 479.991 133.173C479.871 132.833 479.641 132.603 479.301 132.483C478.981 132.363 478.461 132.283 477.741 132.243V131.643C478.581 131.703 479.861 131.733 481.581 131.733C483.181 131.733 484.451 131.703 485.391 131.643V132.243ZM506.147 132.243C505.447 132.283 504.927 132.393 504.587 132.573C504.247 132.733 504.017 133.013 503.897 133.413C503.777 133.793 503.717 134.363 503.717 135.123V150.033H503.027L491.027 133.413V146.403C491.027 147.183 491.087 147.763 491.207 148.143C491.347 148.523 491.607 148.803 491.987 148.983C492.367 149.143 492.957 149.243 493.757 149.283V149.883C493.037 149.823 492.017 149.793 490.697 149.793C489.497 149.793 488.567 149.823 487.907 149.883V149.283C488.607 149.243 489.127 149.143 489.467 148.983C489.807 148.803 490.037 148.523 490.157 148.143C490.277 147.743 490.337 147.163 490.337 146.403V134.823C490.337 134.063 490.277 133.513 490.157 133.173C490.037 132.833 489.807 132.603 489.467 132.483C489.147 132.363 488.627 132.283 487.907 132.243V131.643C488.567 131.703 489.497 131.733 490.697 131.733C491.777 131.733 492.697 131.703 493.457 131.643L503.027 144.963V135.123C503.027 134.343 502.957 133.763 502.817 133.383C502.697 133.003 502.447 132.733 502.067 132.573C501.687 132.393 501.097 132.283 500.297 132.243V131.643C501.017 131.703 502.037 131.733 503.357 131.733C504.557 131.733 505.487 131.703 506.147 131.643V132.243ZM522.638 131.643C522.498 132.843 522.428 133.923 522.428 134.883C522.428 135.663 522.458 136.283 522.518 136.743H521.828C521.688 135.103 521.338 133.963 520.778 133.323C520.238 132.663 519.348 132.333 518.108 132.333H515.918C515.198 132.333 514.668 132.393 514.328 132.513C514.008 132.613 513.788 132.833 513.668 133.173C513.548 133.513 513.488 134.063 513.488 134.823V140.403H515.978C516.618 140.403 517.108 140.243 517.448 139.923C517.788 139.583 518.018 139.223 518.138 138.843C518.258 138.443 518.368 137.943 518.468 137.343H519.158C519.098 138.023 519.068 138.763 519.068 139.563V140.703C519.068 141.483 519.128 142.603 519.248 144.063H518.558C518.438 143.103 518.208 142.353 517.868 141.813C517.528 141.273 516.898 141.003 515.978 141.003H513.488V146.703C513.488 147.463 513.568 148.013 513.728 148.353C513.888 148.693 514.168 148.923 514.568 149.043C514.968 149.163 515.618 149.243 516.518 149.283V149.883C515.478 149.823 514.008 149.793 512.108 149.793C510.388 149.793 509.108 149.823 508.268 149.883V149.283C508.988 149.243 509.508 149.163 509.828 149.043C510.168 148.923 510.398 148.693 510.518 148.353C510.638 148.013 510.698 147.463 510.698 146.703V134.823C510.698 134.063 510.638 133.513 510.518 133.173C510.398 132.833 510.168 132.603 509.828 132.483C509.508 132.363 508.988 132.283 508.268 132.243V131.643C510.168 131.703 512.968 131.733 516.668 131.733C519.468 131.733 521.458 131.703 522.638 131.643ZM534.362 131.223C536.202 131.223 537.812 131.593 539.192 132.333C540.592 133.053 541.672 134.123 542.432 135.543C543.192 136.943 543.572 138.623 543.572 140.583C543.572 142.503 543.172 144.203 542.372 145.683C541.592 147.143 540.502 148.283 539.102 149.103C537.702 149.903 536.112 150.303 534.332 150.303C532.492 150.303 530.872 149.943 529.472 149.223C528.092 148.483 527.022 147.413 526.262 146.013C525.502 144.593 525.122 142.903 525.122 140.943C525.122 139.023 525.512 137.333 526.292 135.873C527.092 134.393 528.192 133.253 529.592 132.453C530.992 131.633 532.582 131.223 534.362 131.223ZM534.242 131.763C533.022 131.763 531.942 132.153 531.002 132.933C530.082 133.693 529.372 134.763 528.872 136.143C528.372 137.503 528.122 139.063 528.122 140.823C528.122 142.603 528.402 144.173 528.962 145.533C529.522 146.893 530.282 147.943 531.242 148.683C532.202 149.403 533.272 149.763 534.452 149.763C535.672 149.763 536.742 149.383 537.662 148.623C538.602 147.843 539.322 146.773 539.822 145.413C540.322 144.033 540.572 142.463 540.572 140.703C540.572 138.923 540.292 137.353 539.732 135.993C539.172 134.633 538.412 133.593 537.452 132.873C536.492 132.133 535.422 131.763 534.242 131.763ZM563.849 148.623C563.469 149.163 563.029 149.583 562.529 149.883C562.049 150.163 561.469 150.303 560.789 150.303C559.109 150.303 558.079 149.543 557.699 148.023L556.769 144.273C556.489 143.153 556.069 142.403 555.509 142.023C554.969 141.643 554.159 141.453 553.079 141.453H551.369V146.703C551.369 147.463 551.429 148.013 551.549 148.353C551.669 148.693 551.889 148.923 552.209 149.043C552.549 149.163 553.079 149.243 553.799 149.283V149.883C552.879 149.823 551.609 149.793 549.989 149.793C548.269 149.793 546.989 149.823 546.149 149.883V149.283C546.869 149.243 547.389 149.163 547.709 149.043C548.049 148.923 548.279 148.693 548.399 148.353C548.519 148.013 548.579 147.463 548.579 146.703V134.823C548.579 134.063 548.519 133.513 548.399 133.173C548.279 132.833 548.049 132.603 547.709 132.483C547.389 132.363 546.869 132.283 546.149 132.243V131.643C546.989 131.703 548.209 131.733 549.809 131.733L552.869 131.703C553.209 131.683 553.599 131.673 554.039 131.673C556.279 131.673 557.989 132.093 559.169 132.933C560.369 133.773 560.969 134.863 560.969 136.203C560.969 137.363 560.499 138.423 559.559 139.383C558.639 140.343 557.119 140.953 554.999 141.213C555.399 141.253 555.739 141.293 556.019 141.333C557.079 141.493 557.919 141.813 558.539 142.293C559.159 142.773 559.599 143.543 559.859 144.603L560.519 147.333C560.679 148.033 560.849 148.533 561.029 148.833C561.229 149.113 561.479 149.253 561.779 149.253C562.279 149.253 562.829 148.913 563.429 148.233L563.849 148.623ZM553.289 132.243C552.749 132.243 552.339 132.313 552.059 132.453C551.799 132.593 551.619 132.843 551.519 133.203C551.419 133.563 551.369 134.103 551.369 134.823V140.853H553.379C555.139 140.853 556.339 140.483 556.979 139.743C557.639 138.983 557.969 137.913 557.969 136.533C557.969 135.093 557.599 134.023 556.859 133.323C556.139 132.603 554.949 132.243 553.289 132.243ZM587.88 132.243C587.16 132.283 586.63 132.363 586.29 132.483C585.97 132.603 585.75 132.833 585.63 133.173C585.51 133.513 585.45 134.063 585.45 134.823V146.703C585.45 147.463 585.51 148.013 585.63 148.353C585.75 148.693 585.97 148.923 586.29 149.043C586.63 149.163 587.16 149.243 587.88 149.283V149.883C586.96 149.823 585.69 149.793 584.07 149.793C582.35 149.793 581.07 149.823 580.23 149.883V149.283C580.95 149.243 581.47 149.163 581.79 149.043C582.13 148.923 582.36 148.693 582.48 148.353C582.6 148.013 582.66 147.463 582.66 146.703V133.533L575.43 150.033H574.95L567.99 133.563V146.403C567.99 147.183 568.05 147.763 568.17 148.143C568.31 148.523 568.57 148.803 568.95 148.983C569.33 149.143 569.92 149.243 570.72 149.283V149.883C570 149.823 568.98 149.793 567.66 149.793C566.46 149.793 565.53 149.823 564.87 149.883V149.283C565.57 149.243 566.09 149.143 566.43 148.983C566.77 148.803 567 148.523 567.12 148.143C567.24 147.743 567.3 147.163 567.3 146.403V134.823C567.3 134.063 567.24 133.513 567.12 133.173C567 132.833 566.77 132.603 566.43 132.483C566.11 132.363 565.59 132.283 564.87 132.243V131.643C565.53 131.703 566.46 131.733 567.66 131.733C568.62 131.733 569.47 131.703 570.21 131.643L576.24 146.253L582.66 131.733H584.07C585.69 131.733 586.96 131.703 587.88 131.643V132.243ZM605.627 147.363C606.167 148.603 606.857 149.243 607.697 149.283V149.883C606.897 149.823 605.827 149.793 604.487 149.793C602.767 149.793 601.487 149.823 600.647 149.883V149.283C601.387 149.243 601.927 149.143 602.267 148.983C602.627 148.823 602.807 148.553 602.807 148.173C602.807 147.853 602.667 147.383 602.387 146.763L600.857 143.343H593.567L592.547 145.593C592.207 146.373 592.037 147.013 592.037 147.513C592.037 148.033 592.217 148.443 592.577 148.743C592.957 149.023 593.557 149.203 594.377 149.283V149.883C593.777 149.823 592.867 149.793 591.647 149.793C590.427 149.793 589.557 149.823 589.037 149.883V149.283C589.577 149.143 590.037 148.843 590.417 148.383C590.797 147.903 591.157 147.273 591.497 146.493L598.127 131.493H598.607L605.627 147.363ZM600.617 142.743L597.227 135.123L593.807 142.743H600.617ZM624.176 131.643C624.036 132.963 623.966 134.143 623.966 135.183C623.966 136.223 623.996 137.043 624.056 137.643H623.366C623.246 136.243 623.056 135.173 622.796 134.433C622.536 133.693 622.116 133.163 621.536 132.843C620.956 132.503 620.126 132.333 619.046 132.333H617.126V146.403C617.126 147.243 617.206 147.853 617.366 148.233C617.526 148.613 617.806 148.873 618.206 149.013C618.606 149.153 619.256 149.243 620.156 149.283V149.883C619.116 149.823 617.646 149.793 615.746 149.793C613.746 149.793 612.266 149.823 611.306 149.883V149.283C612.206 149.243 612.856 149.153 613.256 149.013C613.656 148.873 613.936 148.613 614.096 148.233C614.256 147.853 614.336 147.243 614.336 146.403V132.333H612.416C611.336 132.333 610.506 132.503 609.926 132.843C609.346 133.163 608.926 133.693 608.666 134.433C608.406 135.173 608.216 136.243 608.096 137.643H607.406C607.466 137.003 607.496 136.183 607.496 135.183C607.496 134.143 607.426 132.963 607.286 131.643C608.946 131.703 611.766 131.733 615.746 131.733C619.706 131.733 622.516 131.703 624.176 131.643ZM634.102 132.243C633.382 132.283 632.852 132.363 632.512 132.483C632.192 132.603 631.972 132.833 631.852 133.173C631.732 133.513 631.672 134.063 631.672 134.823V146.703C631.672 147.463 631.732 148.013 631.852 148.353C631.972 148.693 632.192 148.923 632.512 149.043C632.852 149.163 633.382 149.243 634.102 149.283V149.883C633.182 149.823 631.912 149.793 630.292 149.793C628.572 149.793 627.292 149.823 626.452 149.883V149.283C627.172 149.243 627.692 149.163 628.012 149.043C628.352 148.923 628.582 148.693 628.702 148.353C628.822 148.013 628.882 147.463 628.882 146.703V134.823C628.882 134.063 628.822 133.513 628.702 133.173C628.582 132.833 628.352 132.603 628.012 132.483C627.692 132.363 627.172 132.283 626.452 132.243V131.643C627.292 131.703 628.572 131.733 630.292 131.733C631.892 131.733 633.162 131.703 634.102 131.643V132.243ZM645.924 131.223C647.764 131.223 649.374 131.593 650.754 132.333C652.154 133.053 653.234 134.123 653.994 135.543C654.754 136.943 655.134 138.623 655.134 140.583C655.134 142.503 654.734 144.203 653.934 145.683C653.154 147.143 652.064 148.283 650.664 149.103C649.264 149.903 647.674 150.303 645.894 150.303C644.054 150.303 642.434 149.943 641.034 149.223C639.654 148.483 638.584 147.413 637.824 146.013C637.064 144.593 636.684 142.903 636.684 140.943C636.684 139.023 637.074 137.333 637.854 135.873C638.654 134.393 639.754 133.253 641.154 132.453C642.554 131.633 644.144 131.223 645.924 131.223ZM645.804 131.763C644.584 131.763 643.504 132.153 642.564 132.933C641.644 133.693 640.934 134.763 640.434 136.143C639.934 137.503 639.684 139.063 639.684 140.823C639.684 142.603 639.964 144.173 640.524 145.533C641.084 146.893 641.844 147.943 642.804 148.683C643.764 149.403 644.834 149.763 646.014 149.763C647.234 149.763 648.304 149.383 649.224 148.623C650.164 147.843 650.884 146.773 651.384 145.413C651.884 144.033 652.134 142.463 652.134 140.703C652.134 138.923 651.854 137.353 651.294 135.993C650.734 134.633 649.974 133.593 649.014 132.873C648.054 132.133 646.984 131.763 645.804 131.763ZM675.952 132.243C675.252 132.283 674.732 132.393 674.392 132.573C674.052 132.733 673.822 133.013 673.702 133.413C673.582 133.793 673.522 134.363 673.522 135.123V150.033H672.832L660.832 133.413V146.403C660.832 147.183 660.892 147.763 661.012 148.143C661.152 148.523 661.412 148.803 661.792 148.983C662.172 149.143 662.762 149.243 663.562 149.283V149.883C662.842 149.823 661.822 149.793 660.502 149.793C659.302 149.793 658.372 149.823 657.712 149.883V149.283C658.412 149.243 658.932 149.143 659.272 148.983C659.612 148.803 659.842 148.523 659.962 148.143C660.082 147.743 660.142 147.163 660.142 146.403V134.823C660.142 134.063 660.082 133.513 659.962 133.173C659.842 132.833 659.612 132.603 659.272 132.483C658.952 132.363 658.432 132.283 657.712 132.243V131.643C658.372 131.703 659.302 131.733 660.502 131.733C661.582 131.733 662.502 131.703 663.262 131.643L672.832 144.963V135.123C672.832 134.343 672.762 133.763 672.622 133.383C672.502 133.003 672.252 132.733 671.872 132.573C671.492 132.393 670.902 132.283 670.102 132.243V131.643C670.822 131.703 671.842 131.733 673.162 131.733C674.362 131.733 675.292 131.703 675.952 131.643V132.243ZM684.405 131.223C685.285 131.223 685.975 131.323 686.475 131.523C686.995 131.703 687.525 131.973 688.065 132.333C688.505 132.613 688.845 132.753 689.085 132.753C689.265 132.753 689.405 132.653 689.505 132.453C689.605 132.233 689.685 131.893 689.745 131.433H690.435C690.335 132.473 690.285 134.313 690.285 136.953H689.595C689.475 135.513 689.005 134.293 688.185 133.293C687.385 132.293 686.215 131.793 684.675 131.793C683.615 131.793 682.735 132.073 682.035 132.633C681.355 133.193 681.015 133.903 681.015 134.763C681.015 135.383 681.165 135.923 681.465 136.383C681.785 136.843 682.185 137.243 682.665 137.583C683.165 137.903 683.865 138.303 684.765 138.783L685.755 139.323C686.995 139.983 687.985 140.573 688.725 141.093C689.485 141.613 690.095 142.213 690.555 142.893C691.015 143.553 691.245 144.323 691.245 145.203C691.245 146.823 690.655 148.083 689.475 148.983C688.315 149.863 686.855 150.303 685.095 150.303C684.135 150.303 683.345 150.203 682.725 150.003C682.125 149.803 681.545 149.533 680.985 149.193C680.545 148.913 680.205 148.773 679.965 148.773C679.785 148.773 679.645 148.883 679.545 149.103C679.445 149.303 679.365 149.633 679.305 150.093H678.615C678.695 149.113 678.735 146.913 678.735 143.493H679.425C679.565 145.353 680.065 146.853 680.925 147.993C681.785 149.133 683.105 149.703 684.885 149.703C685.885 149.703 686.745 149.423 687.465 148.863C688.205 148.283 688.575 147.433 688.575 146.313C688.575 145.653 688.385 145.073 688.005 144.573C687.625 144.053 687.115 143.593 686.475 143.193C685.835 142.793 684.945 142.293 683.805 141.693C682.165 140.853 680.915 140.013 680.055 139.173C679.195 138.333 678.765 137.243 678.765 135.903C678.765 134.423 679.305 133.273 680.385 132.453C681.485 131.633 682.825 131.223 684.405 131.223ZM707.93 131.223C708.81 131.223 709.5 131.323 710 131.523C710.52 131.703 711.05 131.973 711.59 132.333C712.03 132.613 712.37 132.753 712.61 132.753C712.79 132.753 712.93 132.653 713.03 132.453C713.13 132.233 713.21 131.893 713.27 131.433H713.96C713.86 132.473 713.81 134.313 713.81 136.953H713.12C713 135.513 712.53 134.293 711.71 133.293C710.91 132.293 709.74 131.793 708.2 131.793C707.14 131.793 706.26 132.073 705.56 132.633C704.88 133.193 704.54 133.903 704.54 134.763C704.54 135.383 704.69 135.923 704.99 136.383C705.31 136.843 705.71 137.243 706.19 137.583C706.69 137.903 707.39 138.303 708.29 138.783L709.28 139.323C710.52 139.983 711.51 140.573 712.25 141.093C713.01 141.613 713.62 142.213 714.08 142.893C714.54 143.553 714.77 144.323 714.77 145.203C714.77 146.823 714.18 148.083 713 148.983C711.84 149.863 710.38 150.303 708.62 150.303C707.66 150.303 706.87 150.203 706.25 150.003C705.65 149.803 705.07 149.533 704.51 149.193C704.07 148.913 703.73 148.773 703.49 148.773C703.31 148.773 703.17 148.883 703.07 149.103C702.97 149.303 702.89 149.633 702.83 150.093H702.14C702.22 149.113 702.26 146.913 702.26 143.493H702.95C703.09 145.353 703.59 146.853 704.45 147.993C705.31 149.133 706.63 149.703 708.41 149.703C709.41 149.703 710.27 149.423 710.99 148.863C711.73 148.283 712.1 147.433 712.1 146.313C712.1 145.653 711.91 145.073 711.53 144.573C711.15 144.053 710.64 143.593 710 143.193C709.36 142.793 708.47 142.293 707.33 141.693C705.69 140.853 704.44 140.013 703.58 139.173C702.72 138.333 702.29 137.243 702.29 135.903C702.29 134.423 702.83 133.273 703.91 132.453C705.01 131.633 706.35 131.223 707.93 131.223ZM735.295 132.243C734.595 132.283 734.075 132.393 733.735 132.573C733.395 132.733 733.165 133.013 733.045 133.413C732.925 133.793 732.865 134.363 732.865 135.123V141.753C732.865 143.133 732.765 144.313 732.565 145.293C732.385 146.253 732.075 147.093 731.635 147.813C731.155 148.573 730.455 149.183 729.535 149.643C728.635 150.083 727.605 150.303 726.445 150.303C724.385 150.303 722.805 149.863 721.705 148.983C720.825 148.203 720.235 147.313 719.935 146.313C719.635 145.313 719.485 143.823 719.485 141.843V134.823C719.485 134.063 719.425 133.513 719.305 133.173C719.185 132.833 718.955 132.603 718.615 132.483C718.295 132.363 717.775 132.283 717.055 132.243V131.643C717.895 131.703 719.175 131.733 720.895 131.733C722.495 131.733 723.765 131.703 724.705 131.643V132.243C723.985 132.283 723.455 132.363 723.115 132.483C722.795 132.603 722.575 132.833 722.455 133.173C722.335 133.513 722.275 134.063 722.275 134.823V142.353C722.275 143.833 722.375 145.063 722.575 146.043C722.775 147.003 723.195 147.783 723.835 148.383C724.495 148.963 725.455 149.253 726.715 149.253C728.715 149.253 730.125 148.623 730.945 147.363C731.765 146.103 732.175 144.343 732.175 142.083V135.123C732.175 134.043 731.975 133.303 731.575 132.903C731.195 132.503 730.485 132.283 729.445 132.243V131.643C730.165 131.703 731.185 131.733 732.505 131.733C733.705 131.733 734.635 131.703 735.295 131.643V132.243ZM755.011 148.623C754.631 149.163 754.191 149.583 753.691 149.883C753.211 150.163 752.631 150.303 751.951 150.303C750.271 150.303 749.241 149.543 748.861 148.023L747.931 144.273C747.651 143.153 747.231 142.403 746.671 142.023C746.131 141.643 745.321 141.453 744.241 141.453H742.531V146.703C742.531 147.463 742.591 148.013 742.711 148.353C742.831 148.693 743.051 148.923 743.371 149.043C743.711 149.163 744.241 149.243 744.961 149.283V149.883C744.041 149.823 742.771 149.793 741.151 149.793C739.431 149.793 738.151 149.823 737.311 149.883V149.283C738.031 149.243 738.551 149.163 738.871 149.043C739.211 148.923 739.441 148.693 739.561 148.353C739.681 148.013 739.741 147.463 739.741 146.703V134.823C739.741 134.063 739.681 133.513 739.561 133.173C739.441 132.833 739.211 132.603 738.871 132.483C738.551 132.363 738.031 132.283 737.311 132.243V131.643C738.151 131.703 739.371 131.733 740.971 131.733L744.031 131.703C744.371 131.683 744.761 131.673 745.201 131.673C747.441 131.673 749.151 132.093 750.331 132.933C751.531 133.773 752.131 134.863 752.131 136.203C752.131 137.363 751.661 138.423 750.721 139.383C749.801 140.343 748.281 140.953 746.161 141.213C746.561 141.253 746.901 141.293 747.181 141.333C748.241 141.493 749.081 141.813 749.701 142.293C750.321 142.773 750.761 143.543 751.021 144.603L751.681 147.333C751.841 148.033 752.011 148.533 752.191 148.833C752.391 149.113 752.641 149.253 752.941 149.253C753.441 149.253 753.991 148.913 754.591 148.233L755.011 148.623ZM744.451 132.243C743.911 132.243 743.501 132.313 743.221 132.453C742.961 132.593 742.781 132.843 742.681 133.203C742.581 133.563 742.531 134.103 742.531 134.823V140.853H744.541C746.301 140.853 747.501 140.483 748.141 139.743C748.801 138.983 749.131 137.913 749.131 136.533C749.131 135.093 748.761 134.023 748.021 133.323C747.301 132.603 746.111 132.243 744.451 132.243ZM770.801 132.243C770.081 132.283 769.551 132.363 769.211 132.483C768.891 132.603 768.671 132.833 768.551 133.173C768.431 133.513 768.371 134.063 768.371 134.823V146.703C768.371 147.463 768.431 148.013 768.551 148.353C768.671 148.693 768.891 148.923 769.211 149.043C769.551 149.143 770.081 149.193 770.801 149.193H772.691C774.071 149.193 775.141 148.783 775.901 147.963C776.681 147.143 777.151 145.783 777.311 143.883H778.001C777.941 144.503 777.911 145.323 777.911 146.343C777.911 147.383 777.981 148.563 778.121 149.883C776.821 149.823 774.631 149.793 771.551 149.793C767.851 149.793 765.051 149.823 763.151 149.883V149.283C763.871 149.243 764.391 149.163 764.711 149.043C765.051 148.923 765.281 148.693 765.401 148.353C765.521 148.013 765.581 147.463 765.581 146.703V134.823C765.581 134.063 765.521 133.513 765.401 133.173C765.281 132.833 765.051 132.603 764.711 132.483C764.391 132.363 763.871 132.283 763.151 132.243V131.643C763.991 131.703 765.271 131.733 766.991 131.733C768.591 131.733 769.861 131.703 770.801 131.643V132.243ZM795.108 146.343C795.108 147.383 795.178 148.563 795.318 149.883C794.018 149.823 791.828 149.793 788.748 149.793C785.048 149.793 782.248 149.823 780.348 149.883V149.283C781.068 149.243 781.588 149.163 781.908 149.043C782.248 148.923 782.478 148.693 782.598 148.353C782.718 148.013 782.778 147.463 782.778 146.703V134.823C782.778 134.063 782.718 133.513 782.598 133.173C782.478 132.833 782.248 132.603 781.908 132.483C781.588 132.363 781.068 132.283 780.348 132.243V131.643C782.248 131.703 785.048 131.733 788.748 131.733C791.548 131.733 793.538 131.703 794.718 131.643C794.578 132.843 794.508 133.923 794.508 134.883C794.508 135.663 794.538 136.283 794.598 136.743H793.908C793.768 135.103 793.418 133.963 792.858 133.323C792.318 132.663 791.428 132.333 790.188 132.333H787.998C787.278 132.333 786.748 132.393 786.408 132.513C786.088 132.613 785.868 132.833 785.748 133.173C785.628 133.513 785.568 134.063 785.568 134.823V140.403H788.058C788.698 140.403 789.188 140.243 789.528 139.923C789.868 139.583 790.098 139.223 790.218 138.843C790.338 138.443 790.448 137.943 790.548 137.343H791.238C791.178 138.023 791.148 138.763 791.148 139.563V140.703C791.148 141.483 791.208 142.603 791.328 144.063H790.638C790.518 143.103 790.288 142.353 789.948 141.813C789.608 141.273 788.978 141.003 788.058 141.003H785.568V146.703C785.568 147.463 785.628 148.013 785.748 148.353C785.868 148.693 786.088 148.923 786.408 149.043C786.748 149.143 787.278 149.193 787.998 149.193H790.188C791.188 149.193 791.978 149.033 792.558 148.713C793.138 148.393 793.578 147.883 793.878 147.183C794.178 146.463 794.388 145.463 794.508 144.183H795.198C795.138 144.723 795.108 145.443 795.108 146.343ZM812.081 131.223C812.961 131.223 813.651 131.323 814.151 131.523C814.671 131.703 815.201 131.973 815.741 132.333C816.181 132.613 816.521 132.753 816.761 132.753C816.941 132.753 817.081 132.653 817.181 132.453C817.281 132.233 817.361 131.893 817.421 131.433H818.111C818.011 132.473 817.961 134.313 817.961 136.953H817.271C817.151 135.513 816.681 134.293 815.861 133.293C815.061 132.293 813.891 131.793 812.351 131.793C811.291 131.793 810.411 132.073 809.711 132.633C809.031 133.193 808.691 133.903 808.691 134.763C808.691 135.383 808.841 135.923 809.141 136.383C809.461 136.843 809.861 137.243 810.341 137.583C810.841 137.903 811.541 138.303 812.441 138.783L813.431 139.323C814.671 139.983 815.661 140.573 816.401 141.093C817.161 141.613 817.771 142.213 818.231 142.893C818.691 143.553 818.921 144.323 818.921 145.203C818.921 146.823 818.331 148.083 817.151 148.983C815.991 149.863 814.531 150.303 812.771 150.303C811.811 150.303 811.021 150.203 810.401 150.003C809.801 149.803 809.221 149.533 808.661 149.193C808.221 148.913 807.881 148.773 807.641 148.773C807.461 148.773 807.321 148.883 807.221 149.103C807.121 149.303 807.041 149.633 806.981 150.093H806.291C806.371 149.113 806.411 146.913 806.411 143.493H807.101C807.241 145.353 807.741 146.853 808.601 147.993C809.461 149.133 810.781 149.703 812.561 149.703C813.561 149.703 814.421 149.423 815.141 148.863C815.881 148.283 816.251 147.433 816.251 146.313C816.251 145.653 816.061 145.073 815.681 144.573C815.301 144.053 814.791 143.593 814.151 143.193C813.511 142.793 812.621 142.293 811.481 141.693C809.841 140.853 808.591 140.013 807.731 139.173C806.871 138.333 806.441 137.243 806.441 135.903C806.441 134.423 806.981 133.273 808.061 132.453C809.161 131.633 810.501 131.223 812.081 131.223ZM826.936 142.503V146.703C826.936 147.463 826.996 148.013 827.116 148.353C827.236 148.693 827.456 148.923 827.776 149.043C828.116 149.163 828.646 149.243 829.366 149.283V149.883C828.446 149.823 827.176 149.793 825.556 149.793C823.836 149.793 822.556 149.823 821.716 149.883V149.283C822.436 149.243 822.956 149.163 823.276 149.043C823.616 148.923 823.846 148.693 823.966 148.353C824.086 148.013 824.146 147.463 824.146 146.703V134.823C824.146 134.063 824.086 133.513 823.966 133.173C823.846 132.833 823.616 132.603 823.276 132.483C822.956 132.363 822.436 132.283 821.716 132.243V131.643C822.556 131.703 823.776 131.733 825.376 131.733L828.616 131.703C828.996 131.683 829.426 131.673 829.906 131.673C832.046 131.673 833.686 132.133 834.826 133.053C835.966 133.953 836.536 135.163 836.536 136.683C836.536 137.643 836.296 138.563 835.816 139.443C835.356 140.323 834.556 141.053 833.416 141.633C832.296 142.213 830.806 142.503 828.946 142.503H826.936ZM829.156 132.243C828.536 132.243 828.066 132.313 827.746 132.453C827.446 132.593 827.236 132.843 827.116 133.203C826.996 133.563 826.936 134.103 826.936 134.823V141.903H828.646C830.486 141.903 831.756 141.463 832.456 140.583C833.176 139.703 833.536 138.513 833.536 137.013C833.536 135.393 833.196 134.193 832.516 133.413C831.836 132.633 830.716 132.243 829.156 132.243ZM848.278 131.223C850.118 131.223 851.728 131.593 853.108 132.333C854.508 133.053 855.588 134.123 856.348 135.543C857.108 136.943 857.488 138.623 857.488 140.583C857.488 142.503 857.088 144.203 856.288 145.683C855.508 147.143 854.418 148.283 853.018 149.103C851.618 149.903 850.028 150.303 848.248 150.303C846.408 150.303 844.788 149.943 843.388 149.223C842.008 148.483 840.938 147.413 840.178 146.013C839.418 144.593 839.038 142.903 839.038 140.943C839.038 139.023 839.428 137.333 840.208 135.873C841.008 134.393 842.108 133.253 843.508 132.453C844.908 131.633 846.498 131.223 848.278 131.223ZM848.158 131.763C846.938 131.763 845.858 132.153 844.918 132.933C843.998 133.693 843.288 134.763 842.788 136.143C842.288 137.503 842.038 139.063 842.038 140.823C842.038 142.603 842.318 144.173 842.878 145.533C843.438 146.893 844.198 147.943 845.158 148.683C846.118 149.403 847.188 149.763 848.368 149.763C849.588 149.763 850.658 149.383 851.578 148.623C852.518 147.843 853.238 146.773 853.738 145.413C854.238 144.033 854.488 142.463 854.488 140.703C854.488 138.923 854.208 137.353 853.648 135.993C853.088 134.633 852.328 133.593 851.368 132.873C850.408 132.133 849.338 131.763 848.158 131.763ZM877.765 148.623C877.385 149.163 876.945 149.583 876.445 149.883C875.965 150.163 875.385 150.303 874.705 150.303C873.025 150.303 871.995 149.543 871.615 148.023L870.685 144.273C870.405 143.153 869.985 142.403 869.425 142.023C868.885 141.643 868.075 141.453 866.995 141.453H865.285V146.703C865.285 147.463 865.345 148.013 865.465 148.353C865.585 148.693 865.805 148.923 866.125 149.043C866.465 149.163 866.995 149.243 867.715 149.283V149.883C866.795 149.823 865.525 149.793 863.905 149.793C862.185 149.793 860.905 149.823 860.065 149.883V149.283C860.785 149.243 861.305 149.163 861.625 149.043C861.965 148.923 862.195 148.693 862.315 148.353C862.435 148.013 862.495 147.463 862.495 146.703V134.823C862.495 134.063 862.435 133.513 862.315 133.173C862.195 132.833 861.965 132.603 861.625 132.483C861.305 132.363 860.785 132.283 860.065 132.243V131.643C860.905 131.703 862.125 131.733 863.725 131.733L866.785 131.703C867.125 131.683 867.515 131.673 867.955 131.673C870.195 131.673 871.905 132.093 873.085 132.933C874.285 133.773 874.885 134.863 874.885 136.203C874.885 137.363 874.415 138.423 873.475 139.383C872.555 140.343 871.035 140.953 868.915 141.213C869.315 141.253 869.655 141.293 869.935 141.333C870.995 141.493 871.835 141.813 872.455 142.293C873.075 142.773 873.515 143.543 873.775 144.603L874.435 147.333C874.595 148.033 874.765 148.533 874.945 148.833C875.145 149.113 875.395 149.253 875.695 149.253C876.195 149.253 876.745 148.913 877.345 148.233L877.765 148.623ZM867.205 132.243C866.665 132.243 866.255 132.313 865.975 132.453C865.715 132.593 865.535 132.843 865.435 133.203C865.335 133.563 865.285 134.103 865.285 134.823V140.853H867.295C869.055 140.853 870.255 140.483 870.895 139.743C871.555 138.983 871.885 137.913 871.885 136.533C871.885 135.093 871.515 134.023 870.775 133.323C870.055 132.603 868.865 132.243 867.205 132.243ZM895.289 131.643C895.149 132.963 895.079 134.143 895.079 135.183C895.079 136.223 895.109 137.043 895.169 137.643H894.479C894.359 136.243 894.169 135.173 893.909 134.433C893.649 133.693 893.229 133.163 892.649 132.843C892.069 132.503 891.239 132.333 890.159 132.333H888.239V146.403C888.239 147.243 888.319 147.853 888.479 148.233C888.639 148.613 888.919 148.873 889.319 149.013C889.719 149.153 890.369 149.243 891.269 149.283V149.883C890.229 149.823 888.759 149.793 886.859 149.793C884.859 149.793 883.379 149.823 882.419 149.883V149.283C883.319 149.243 883.969 149.153 884.369 149.013C884.769 148.873 885.049 148.613 885.209 148.233C885.369 147.853 885.449 147.243 885.449 146.403V132.333H883.529C882.449 132.333 881.619 132.503 881.039 132.843C880.459 133.163 880.039 133.693 879.779 134.433C879.519 135.173 879.329 136.243 879.209 137.643H878.519C878.579 137.003 878.609 136.183 878.609 135.183C878.609 134.143 878.539 132.963 878.399 131.643C880.059 131.703 882.879 131.733 886.859 131.733C890.819 131.733 893.629 131.703 895.289 131.643ZM382.515 171.223C383.395 171.223 384.085 171.323 384.585 171.523C385.105 171.703 385.635 171.973 386.175 172.333C386.615 172.613 386.955 172.753 387.195 172.753C387.375 172.753 387.515 172.653 387.615 172.453C387.715 172.233 387.795 171.893 387.855 171.433H388.545C388.445 172.473 388.395 174.313 388.395 176.953H387.705C387.585 175.513 387.115 174.293 386.295 173.293C385.495 172.293 384.325 171.793 382.785 171.793C381.725 171.793 380.845 172.073 380.145 172.633C379.465 173.193 379.125 173.903 379.125 174.763C379.125 175.383 379.275 175.923 379.575 176.383C379.895 176.843 380.295 177.243 380.775 177.583C381.275 177.903 381.975 178.303 382.875 178.783L383.865 179.323C385.105 179.983 386.095 180.573 386.835 181.093C387.595 181.613 388.205 182.213 388.665 182.893C389.125 183.553 389.355 184.323 389.355 185.203C389.355 186.823 388.765 188.083 387.585 188.983C386.425 189.863 384.965 190.303 383.205 190.303C382.245 190.303 381.455 190.203 380.835 190.003C380.235 189.803 379.655 189.533 379.095 189.193C378.655 188.913 378.315 188.773 378.075 188.773C377.895 188.773 377.755 188.883 377.655 189.103C377.555 189.303 377.475 189.633 377.415 190.093H376.725C376.805 189.113 376.845 186.913 376.845 183.493H377.535C377.675 185.353 378.175 186.853 379.035 187.993C379.895 189.133 381.215 189.703 382.995 189.703C383.995 189.703 384.855 189.423 385.575 188.863C386.315 188.283 386.685 187.433 386.685 186.313C386.685 185.653 386.495 185.073 386.115 184.573C385.735 184.053 385.225 183.593 384.585 183.193C383.945 182.793 383.055 182.293 381.915 181.693C380.275 180.853 379.025 180.013 378.165 179.173C377.305 178.333 376.875 177.243 376.875 175.903C376.875 174.423 377.415 173.273 378.495 172.453C379.595 171.633 380.935 171.223 382.515 171.223ZM401.72 171.223C403.56 171.223 405.17 171.593 406.55 172.333C407.95 173.053 409.03 174.123 409.79 175.543C410.55 176.943 410.93 178.623 410.93 180.583C410.93 182.503 410.53 184.203 409.73 185.683C408.95 187.143 407.86 188.283 406.46 189.103C405.06 189.903 403.47 190.303 401.69 190.303C399.85 190.303 398.23 189.943 396.83 189.223C395.45 188.483 394.38 187.413 393.62 186.013C392.86 184.593 392.48 182.903 392.48 180.943C392.48 179.023 392.87 177.333 393.65 175.873C394.45 174.393 395.55 173.253 396.95 172.453C398.35 171.633 399.94 171.223 401.72 171.223ZM401.6 171.763C400.38 171.763 399.3 172.153 398.36 172.933C397.44 173.693 396.73 174.763 396.23 176.143C395.73 177.503 395.48 179.063 395.48 180.823C395.48 182.603 395.76 184.173 396.32 185.533C396.88 186.893 397.64 187.943 398.6 188.683C399.56 189.403 400.63 189.763 401.81 189.763C403.03 189.763 404.1 189.383 405.02 188.623C405.96 187.843 406.68 186.773 407.18 185.413C407.68 184.033 407.93 182.463 407.93 180.703C407.93 178.923 407.65 177.353 407.09 175.993C406.53 174.633 405.77 173.593 404.81 172.873C403.85 172.133 402.78 171.763 401.6 171.763ZM431.748 172.243C431.048 172.283 430.528 172.393 430.188 172.573C429.848 172.733 429.618 173.013 429.498 173.413C429.378 173.793 429.318 174.363 429.318 175.123V190.033H428.628L416.628 173.413V186.403C416.628 187.183 416.688 187.763 416.808 188.143C416.948 188.523 417.208 188.803 417.588 188.983C417.968 189.143 418.558 189.243 419.358 189.283V189.883C418.638 189.823 417.618 189.793 416.298 189.793C415.098 189.793 414.168 189.823 413.508 189.883V189.283C414.208 189.243 414.728 189.143 415.068 188.983C415.408 188.803 415.638 188.523 415.758 188.143C415.878 187.743 415.938 187.163 415.938 186.403V174.823C415.938 174.063 415.878 173.513 415.758 173.173C415.638 172.833 415.408 172.603 415.068 172.483C414.748 172.363 414.228 172.283 413.508 172.243V171.643C414.168 171.703 415.098 171.733 416.298 171.733C417.378 171.733 418.298 171.703 419.058 171.643L428.628 184.963V175.123C428.628 174.343 428.558 173.763 428.418 173.383C428.298 173.003 428.048 172.733 427.668 172.573C427.288 172.393 426.698 172.283 425.898 172.243V171.643C426.618 171.703 427.638 171.733 428.958 171.733C430.158 171.733 431.088 171.703 431.748 171.643V172.243ZM450.695 171.643C450.555 172.963 450.485 174.143 450.485 175.183C450.485 176.223 450.515 177.043 450.575 177.643H449.885C449.765 176.243 449.575 175.173 449.315 174.433C449.055 173.693 448.635 173.163 448.055 172.843C447.475 172.503 446.645 172.333 445.565 172.333H443.645V186.403C443.645 187.243 443.725 187.853 443.885 188.233C444.045 188.613 444.325 188.873 444.725 189.013C445.125 189.153 445.775 189.243 446.675 189.283V189.883C445.635 189.823 444.165 189.793 442.265 189.793C440.265 189.793 438.785 189.823 437.825 189.883V189.283C438.725 189.243 439.375 189.153 439.775 189.013C440.175 188.873 440.455 188.613 440.615 188.233C440.775 187.853 440.855 187.243 440.855 186.403V172.333H438.935C437.855 172.333 437.025 172.503 436.445 172.843C435.865 173.163 435.445 173.693 435.185 174.433C434.925 175.173 434.735 176.243 434.615 177.643H433.925C433.985 177.003 434.015 176.183 434.015 175.183C434.015 174.143 433.945 172.963 433.805 171.643C435.465 171.703 438.285 171.733 442.265 171.733C446.225 171.733 449.035 171.703 450.695 171.643ZM482.777 172.243C482.057 172.283 481.527 172.363 481.187 172.483C480.867 172.603 480.647 172.833 480.527 173.173C480.407 173.513 480.347 174.063 480.347 174.823V186.703C480.347 187.463 480.407 188.013 480.527 188.353C480.647 188.693 480.867 188.923 481.187 189.043C481.527 189.163 482.057 189.243 482.777 189.283V189.883C481.857 189.823 480.587 189.793 478.967 189.793C477.247 189.793 475.967 189.823 475.127 189.883V189.283C475.847 189.243 476.367 189.163 476.687 189.043C477.027 188.923 477.257 188.693 477.377 188.353C477.497 188.013 477.557 187.463 477.557 186.703V173.533L470.327 190.033H469.847L462.887 173.563V186.403C462.887 187.183 462.947 187.763 463.067 188.143C463.207 188.523 463.467 188.803 463.847 188.983C464.227 189.143 464.817 189.243 465.617 189.283V189.883C464.897 189.823 463.877 189.793 462.557 189.793C461.357 189.793 460.427 189.823 459.767 189.883V189.283C460.467 189.243 460.987 189.143 461.327 188.983C461.667 188.803 461.897 188.523 462.017 188.143C462.137 187.743 462.197 187.163 462.197 186.403V174.823C462.197 174.063 462.137 173.513 462.017 173.173C461.897 172.833 461.667 172.603 461.327 172.483C461.007 172.363 460.487 172.283 459.767 172.243V171.643C460.427 171.703 461.357 171.733 462.557 171.733C463.517 171.733 464.367 171.703 465.107 171.643L471.137 186.253L477.557 171.733H478.967C480.587 171.733 481.857 171.703 482.777 171.643V172.243ZM500.525 187.363C501.065 188.603 501.755 189.243 502.595 189.283V189.883C501.795 189.823 500.725 189.793 499.385 189.793C497.665 189.793 496.385 189.823 495.545 189.883V189.283C496.285 189.243 496.825 189.143 497.165 188.983C497.525 188.823 497.705 188.553 497.705 188.173C497.705 187.853 497.565 187.383 497.285 186.763L495.755 183.343H488.465L487.445 185.593C487.105 186.373 486.935 187.013 486.935 187.513C486.935 188.033 487.115 188.443 487.475 188.743C487.855 189.023 488.455 189.203 489.275 189.283V189.883C488.675 189.823 487.765 189.793 486.545 189.793C485.325 189.793 484.455 189.823 483.935 189.883V189.283C484.475 189.143 484.935 188.843 485.315 188.383C485.695 187.903 486.055 187.273 486.395 186.493L493.025 171.493H493.505L500.525 187.363ZM495.515 182.743L492.125 175.123L488.705 182.743H495.515ZM511.421 172.243C510.701 172.283 510.171 172.363 509.831 172.483C509.511 172.603 509.291 172.833 509.171 173.173C509.051 173.513 508.991 174.063 508.991 174.823V186.703C508.991 187.463 509.051 188.013 509.171 188.353C509.291 188.693 509.511 188.923 509.831 189.043C510.171 189.163 510.701 189.243 511.421 189.283V189.883C510.501 189.823 509.231 189.793 507.611 189.793C505.891 189.793 504.611 189.823 503.771 189.883V189.283C504.491 189.243 505.011 189.163 505.331 189.043C505.671 188.923 505.901 188.693 506.021 188.353C506.141 188.013 506.201 187.463 506.201 186.703V174.823C506.201 174.063 506.141 173.513 506.021 173.173C505.901 172.833 505.671 172.603 505.331 172.483C505.011 172.363 504.491 172.283 503.771 172.243V171.643C504.611 171.703 505.891 171.733 507.611 171.733C509.211 171.733 510.481 171.703 511.421 171.643V172.243ZM532.177 172.243C531.477 172.283 530.957 172.393 530.617 172.573C530.277 172.733 530.047 173.013 529.927 173.413C529.807 173.793 529.747 174.363 529.747 175.123V190.033H529.057L517.057 173.413V186.403C517.057 187.183 517.117 187.763 517.237 188.143C517.377 188.523 517.637 188.803 518.017 188.983C518.397 189.143 518.987 189.243 519.787 189.283V189.883C519.067 189.823 518.047 189.793 516.727 189.793C515.527 189.793 514.597 189.823 513.937 189.883V189.283C514.637 189.243 515.157 189.143 515.497 188.983C515.837 188.803 516.067 188.523 516.187 188.143C516.307 187.743 516.367 187.163 516.367 186.403V174.823C516.367 174.063 516.307 173.513 516.187 173.173C516.067 172.833 515.837 172.603 515.497 172.483C515.177 172.363 514.657 172.283 513.937 172.243V171.643C514.597 171.703 515.527 171.733 516.727 171.733C517.807 171.733 518.727 171.703 519.487 171.643L529.057 184.963V175.123C529.057 174.343 528.987 173.763 528.847 173.383C528.727 173.003 528.477 172.733 528.097 172.573C527.717 172.393 527.127 172.283 526.327 172.243V171.643C527.047 171.703 528.067 171.733 529.387 171.733C530.587 171.733 531.517 171.703 532.177 171.643V172.243ZM551.124 171.643C550.984 172.963 550.914 174.143 550.914 175.183C550.914 176.223 550.944 177.043 551.004 177.643H550.314C550.194 176.243 550.004 175.173 549.744 174.433C549.484 173.693 549.064 173.163 548.484 172.843C547.904 172.503 547.074 172.333 545.994 172.333H544.074V186.403C544.074 187.243 544.154 187.853 544.314 188.233C544.474 188.613 544.754 188.873 545.154 189.013C545.554 189.153 546.204 189.243 547.104 189.283V189.883C546.064 189.823 544.594 189.793 542.694 189.793C540.694 189.793 539.214 189.823 538.254 189.883V189.283C539.154 189.243 539.804 189.153 540.204 189.013C540.604 188.873 540.884 188.613 541.044 188.233C541.204 187.853 541.284 187.243 541.284 186.403V172.333H539.364C538.284 172.333 537.454 172.503 536.874 172.843C536.294 173.163 535.874 173.693 535.614 174.433C535.354 175.173 535.164 176.243 535.044 177.643H534.354C534.414 177.003 534.444 176.183 534.444 175.183C534.444 174.143 534.374 172.963 534.234 171.643C535.894 171.703 538.714 171.733 542.694 171.733C546.654 171.733 549.464 171.703 551.124 171.643ZM568.16 186.343C568.16 187.383 568.23 188.563 568.37 189.883C567.07 189.823 564.88 189.793 561.8 189.793C558.1 189.793 555.3 189.823 553.4 189.883V189.283C554.12 189.243 554.64 189.163 554.96 189.043C555.3 188.923 555.53 188.693 555.65 188.353C555.77 188.013 555.83 187.463 555.83 186.703V174.823C555.83 174.063 555.77 173.513 555.65 173.173C555.53 172.833 555.3 172.603 554.96 172.483C554.64 172.363 554.12 172.283 553.4 172.243V171.643C555.3 171.703 558.1 171.733 561.8 171.733C564.6 171.733 566.59 171.703 567.77 171.643C567.63 172.843 567.56 173.923 567.56 174.883C567.56 175.663 567.59 176.283 567.65 176.743H566.96C566.82 175.103 566.47 173.963 565.91 173.323C565.37 172.663 564.48 172.333 563.24 172.333H561.05C560.33 172.333 559.8 172.393 559.46 172.513C559.14 172.613 558.92 172.833 558.8 173.173C558.68 173.513 558.62 174.063 558.62 174.823V180.403H561.11C561.75 180.403 562.24 180.243 562.58 179.923C562.92 179.583 563.15 179.223 563.27 178.843C563.39 178.443 563.5 177.943 563.6 177.343H564.29C564.23 178.023 564.2 178.763 564.2 179.563V180.703C564.2 181.483 564.26 182.603 564.38 184.063H563.69C563.57 183.103 563.34 182.353 563 181.813C562.66 181.273 562.03 181.003 561.11 181.003H558.62V186.703C558.62 187.463 558.68 188.013 558.8 188.353C558.92 188.693 559.14 188.923 559.46 189.043C559.8 189.143 560.33 189.193 561.05 189.193H563.24C564.24 189.193 565.03 189.033 565.61 188.713C566.19 188.393 566.63 187.883 566.93 187.183C567.23 186.463 567.44 185.463 567.56 184.183H568.25C568.19 184.723 568.16 185.443 568.16 186.343ZM589.482 172.243C588.782 172.283 588.262 172.393 587.922 172.573C587.582 172.733 587.352 173.013 587.232 173.413C587.112 173.793 587.052 174.363 587.052 175.123V190.033H586.362L574.362 173.413V186.403C574.362 187.183 574.422 187.763 574.542 188.143C574.682 188.523 574.942 188.803 575.322 188.983C575.702 189.143 576.292 189.243 577.092 189.283V189.883C576.372 189.823 575.352 189.793 574.032 189.793C572.832 189.793 571.902 189.823 571.242 189.883V189.283C571.942 189.243 572.462 189.143 572.802 188.983C573.142 188.803 573.372 188.523 573.492 188.143C573.612 187.743 573.672 187.163 573.672 186.403V174.823C573.672 174.063 573.612 173.513 573.492 173.173C573.372 172.833 573.142 172.603 572.802 172.483C572.482 172.363 571.962 172.283 571.242 172.243V171.643C571.902 171.703 572.832 171.733 574.032 171.733C575.112 171.733 576.032 171.703 576.792 171.643L586.362 184.963V175.123C586.362 174.343 586.292 173.763 586.152 173.383C586.032 173.003 585.782 172.733 585.402 172.573C585.022 172.393 584.432 172.283 583.632 172.243V171.643C584.352 171.703 585.372 171.733 586.692 171.733C587.892 171.733 588.822 171.703 589.482 171.643V172.243ZM605.906 187.363C606.446 188.603 607.136 189.243 607.976 189.283V189.883C607.176 189.823 606.106 189.793 604.766 189.793C603.046 189.793 601.766 189.823 600.926 189.883V189.283C601.666 189.243 602.206 189.143 602.546 188.983C602.906 188.823 603.086 188.553 603.086 188.173C603.086 187.853 602.946 187.383 602.666 186.763L601.136 183.343H593.846L592.826 185.593C592.486 186.373 592.316 187.013 592.316 187.513C592.316 188.033 592.496 188.443 592.856 188.743C593.236 189.023 593.836 189.203 594.656 189.283V189.883C594.056 189.823 593.146 189.793 591.926 189.793C590.706 189.793 589.836 189.823 589.316 189.883V189.283C589.856 189.143 590.316 188.843 590.696 188.383C591.076 187.903 591.436 187.273 591.776 186.493L598.406 171.493H598.886L605.906 187.363ZM600.896 182.743L597.506 175.123L594.086 182.743H600.896ZM627.392 172.243C626.692 172.283 626.172 172.393 625.832 172.573C625.492 172.733 625.262 173.013 625.142 173.413C625.022 173.793 624.962 174.363 624.962 175.123V190.033H624.272L612.272 173.413V186.403C612.272 187.183 612.332 187.763 612.452 188.143C612.592 188.523 612.852 188.803 613.232 188.983C613.612 189.143 614.202 189.243 615.002 189.283V189.883C614.282 189.823 613.262 189.793 611.942 189.793C610.742 189.793 609.812 189.823 609.152 189.883V189.283C609.852 189.243 610.372 189.143 610.712 188.983C611.052 188.803 611.282 188.523 611.402 188.143C611.522 187.743 611.582 187.163 611.582 186.403V174.823C611.582 174.063 611.522 173.513 611.402 173.173C611.282 172.833 611.052 172.603 610.712 172.483C610.392 172.363 609.872 172.283 609.152 172.243V171.643C609.812 171.703 610.742 171.733 611.942 171.733C613.022 171.733 613.942 171.703 614.702 171.643L624.272 184.963V175.123C624.272 174.343 624.202 173.763 624.062 173.383C623.942 173.003 623.692 172.733 623.312 172.573C622.932 172.393 622.342 172.283 621.542 172.243V171.643C622.262 171.703 623.282 171.733 624.602 171.733C625.802 171.733 626.732 171.703 627.392 171.643V172.243ZM646.339 171.643C646.199 172.963 646.129 174.143 646.129 175.183C646.129 176.223 646.159 177.043 646.219 177.643H645.529C645.409 176.243 645.219 175.173 644.959 174.433C644.699 173.693 644.279 173.163 643.699 172.843C643.119 172.503 642.289 172.333 641.209 172.333H639.289V186.403C639.289 187.243 639.369 187.853 639.529 188.233C639.689 188.613 639.969 188.873 640.369 189.013C640.769 189.153 641.419 189.243 642.319 189.283V189.883C641.279 189.823 639.809 189.793 637.909 189.793C635.909 189.793 634.429 189.823 633.469 189.883V189.283C634.369 189.243 635.019 189.153 635.419 189.013C635.819 188.873 636.099 188.613 636.259 188.233C636.419 187.853 636.499 187.243 636.499 186.403V172.333H634.579C633.499 172.333 632.669 172.503 632.089 172.843C631.509 173.163 631.089 173.693 630.829 174.433C630.569 175.173 630.379 176.243 630.259 177.643H629.569C629.629 177.003 629.659 176.183 629.659 175.183C629.659 174.143 629.589 172.963 629.449 171.643C631.109 171.703 633.929 171.733 637.909 171.733C641.869 171.733 644.679 171.703 646.339 171.643ZM663.602 171.643C666.722 171.643 669.062 172.403 670.622 173.923C672.202 175.423 672.992 177.623 672.992 180.523C672.992 182.403 672.612 184.053 671.852 185.473C671.092 186.873 669.982 187.963 668.522 188.743C667.082 189.503 665.352 189.883 663.332 189.883L661.592 189.853C660.472 189.813 659.652 189.793 659.132 189.793C657.492 189.793 656.252 189.823 655.412 189.883V189.283C656.132 189.243 656.652 189.163 656.972 189.043C657.312 188.923 657.542 188.693 657.662 188.353C657.782 188.013 657.842 187.463 657.842 186.703V174.823C657.842 174.063 657.782 173.513 657.662 173.173C657.542 172.833 657.312 172.603 656.972 172.483C656.652 172.363 656.132 172.283 655.412 172.243V171.643C656.112 171.703 657.082 171.733 658.322 171.733L660.872 171.703C662.232 171.663 663.142 171.643 663.602 171.643ZM662.852 172.183C662.232 172.183 661.762 172.253 661.442 172.393C661.142 172.533 660.932 172.783 660.812 173.143C660.692 173.503 660.632 174.043 660.632 174.763V186.763C660.632 187.483 660.692 188.023 660.812 188.383C660.932 188.743 661.142 188.993 661.442 189.133C661.762 189.273 662.242 189.343 662.882 189.343C664.702 189.343 666.132 189.023 667.172 188.383C668.212 187.723 668.942 186.763 669.362 185.503C669.782 184.243 669.992 182.623 669.992 180.643C669.992 177.723 669.452 175.583 668.372 174.223C667.292 172.863 665.452 172.183 662.852 172.183ZM683.277 172.243C682.557 172.283 682.027 172.363 681.687 172.483C681.367 172.603 681.147 172.833 681.027 173.173C680.907 173.513 680.847 174.063 680.847 174.823V186.703C680.847 187.463 680.907 188.013 681.027 188.353C681.147 188.693 681.367 188.923 681.687 189.043C682.027 189.163 682.557 189.243 683.277 189.283V189.883C682.357 189.823 681.087 189.793 679.467 189.793C677.747 189.793 676.467 189.823 675.627 189.883V189.283C676.347 189.243 676.867 189.163 677.187 189.043C677.527 188.923 677.757 188.693 677.877 188.353C677.997 188.013 678.057 187.463 678.057 186.703V174.823C678.057 174.063 677.997 173.513 677.877 173.173C677.757 172.833 677.527 172.603 677.187 172.483C676.867 172.363 676.347 172.283 675.627 172.243V171.643C676.467 171.703 677.747 171.733 679.467 171.733C681.067 171.733 682.337 171.703 683.277 171.643V172.243ZM692.213 171.223C693.093 171.223 693.783 171.323 694.283 171.523C694.803 171.703 695.333 171.973 695.873 172.333C696.313 172.613 696.653 172.753 696.893 172.753C697.073 172.753 697.213 172.653 697.313 172.453C697.413 172.233 697.493 171.893 697.553 171.433H698.243C698.143 172.473 698.093 174.313 698.093 176.953H697.403C697.283 175.513 696.813 174.293 695.993 173.293C695.193 172.293 694.023 171.793 692.483 171.793C691.423 171.793 690.543 172.073 689.843 172.633C689.163 173.193 688.823 173.903 688.823 174.763C688.823 175.383 688.973 175.923 689.273 176.383C689.593 176.843 689.993 177.243 690.473 177.583C690.973 177.903 691.673 178.303 692.573 178.783L693.563 179.323C694.803 179.983 695.793 180.573 696.533 181.093C697.293 181.613 697.903 182.213 698.363 182.893C698.823 183.553 699.053 184.323 699.053 185.203C699.053 186.823 698.463 188.083 697.283 188.983C696.123 189.863 694.663 190.303 692.903 190.303C691.943 190.303 691.153 190.203 690.533 190.003C689.933 189.803 689.353 189.533 688.793 189.193C688.353 188.913 688.013 188.773 687.773 188.773C687.593 188.773 687.453 188.883 687.353 189.103C687.253 189.303 687.173 189.633 687.113 190.093H686.423C686.503 189.113 686.543 186.913 686.543 183.493H687.233C687.373 185.353 687.873 186.853 688.733 187.993C689.593 189.133 690.913 189.703 692.693 189.703C693.693 189.703 694.553 189.423 695.273 188.863C696.013 188.283 696.383 187.433 696.383 186.313C696.383 185.653 696.193 185.073 695.813 184.573C695.433 184.053 694.923 183.593 694.283 183.193C693.643 182.793 692.753 182.293 691.613 181.693C689.973 180.853 688.723 180.013 687.863 179.173C687.003 178.333 686.573 177.243 686.573 175.903C686.573 174.423 687.113 173.273 688.193 172.453C689.293 171.633 690.633 171.223 692.213 171.223ZM707.067 182.503V186.703C707.067 187.463 707.127 188.013 707.247 188.353C707.367 188.693 707.587 188.923 707.907 189.043C708.247 189.163 708.777 189.243 709.497 189.283V189.883C708.577 189.823 707.307 189.793 705.687 189.793C703.967 189.793 702.687 189.823 701.847 189.883V189.283C702.567 189.243 703.087 189.163 703.407 189.043C703.747 188.923 703.977 188.693 704.097 188.353C704.217 188.013 704.277 187.463 704.277 186.703V174.823C704.277 174.063 704.217 173.513 704.097 173.173C703.977 172.833 703.747 172.603 703.407 172.483C703.087 172.363 702.567 172.283 701.847 172.243V171.643C702.687 171.703 703.907 171.733 705.507 171.733L708.747 171.703C709.127 171.683 709.557 171.673 710.037 171.673C712.177 171.673 713.817 172.133 714.957 173.053C716.097 173.953 716.667 175.163 716.667 176.683C716.667 177.643 716.427 178.563 715.947 179.443C715.487 180.323 714.687 181.053 713.547 181.633C712.427 182.213 710.937 182.503 709.077 182.503H707.067ZM709.287 172.243C708.667 172.243 708.197 172.313 707.877 172.453C707.577 172.593 707.367 172.843 707.247 173.203C707.127 173.563 707.067 174.103 707.067 174.823V181.903H708.777C710.617 181.903 711.887 181.463 712.587 180.583C713.307 179.703 713.667 178.513 713.667 177.013C713.667 175.393 713.327 174.193 712.647 173.413C711.967 172.633 710.847 172.243 709.287 172.243ZM728.41 171.223C730.25 171.223 731.86 171.593 733.24 172.333C734.64 173.053 735.72 174.123 736.48 175.543C737.24 176.943 737.62 178.623 737.62 180.583C737.62 182.503 737.22 184.203 736.42 185.683C735.64 187.143 734.55 188.283 733.15 189.103C731.75 189.903 730.16 190.303 728.38 190.303C726.54 190.303 724.92 189.943 723.52 189.223C722.14 188.483 721.07 187.413 720.31 186.013C719.55 184.593 719.17 182.903 719.17 180.943C719.17 179.023 719.56 177.333 720.34 175.873C721.14 174.393 722.24 173.253 723.64 172.453C725.04 171.633 726.63 171.223 728.41 171.223ZM728.29 171.763C727.07 171.763 725.99 172.153 725.05 172.933C724.13 173.693 723.42 174.763 722.92 176.143C722.42 177.503 722.17 179.063 722.17 180.823C722.17 182.603 722.45 184.173 723.01 185.533C723.57 186.893 724.33 187.943 725.29 188.683C726.25 189.403 727.32 189.763 728.5 189.763C729.72 189.763 730.79 189.383 731.71 188.623C732.65 187.843 733.37 186.773 733.87 185.413C734.37 184.033 734.62 182.463 734.62 180.703C734.62 178.923 734.34 177.353 733.78 175.993C733.22 174.633 732.46 173.593 731.5 172.873C730.54 172.133 729.47 171.763 728.29 171.763ZM758.437 172.243C757.737 172.283 757.217 172.393 756.877 172.573C756.537 172.733 756.307 173.013 756.187 173.413C756.067 173.793 756.007 174.363 756.007 175.123V190.033H755.317L743.317 173.413V186.403C743.317 187.183 743.377 187.763 743.497 188.143C743.637 188.523 743.897 188.803 744.277 188.983C744.657 189.143 745.247 189.243 746.047 189.283V189.883C745.327 189.823 744.307 189.793 742.987 189.793C741.787 189.793 740.857 189.823 740.197 189.883V189.283C740.897 189.243 741.417 189.143 741.757 188.983C742.097 188.803 742.327 188.523 742.447 188.143C742.567 187.743 742.627 187.163 742.627 186.403V174.823C742.627 174.063 742.567 173.513 742.447 173.173C742.327 172.833 742.097 172.603 741.757 172.483C741.437 172.363 740.917 172.283 740.197 172.243V171.643C740.857 171.703 741.787 171.733 742.987 171.733C744.067 171.733 744.987 171.703 745.747 171.643L755.317 184.963V175.123C755.317 174.343 755.247 173.763 755.107 173.383C754.987 173.003 754.737 172.733 754.357 172.573C753.977 172.393 753.387 172.283 752.587 172.243V171.643C753.307 171.703 754.327 171.733 755.647 171.733C756.847 171.733 757.777 171.703 758.437 171.643V172.243ZM768.208 172.243C767.488 172.283 766.958 172.363 766.618 172.483C766.298 172.603 766.078 172.833 765.958 173.173C765.838 173.513 765.778 174.063 765.778 174.823V186.703C765.778 187.463 765.838 188.013 765.958 188.353C766.078 188.693 766.298 188.923 766.618 189.043C766.958 189.163 767.488 189.243 768.208 189.283V189.883C767.288 189.823 766.018 189.793 764.398 189.793C762.678 189.793 761.398 189.823 760.558 189.883V189.283C761.278 189.243 761.798 189.163 762.118 189.043C762.458 188.923 762.688 188.693 762.808 188.353C762.928 188.013 762.988 187.463 762.988 186.703V174.823C762.988 174.063 762.928 173.513 762.808 173.173C762.688 172.833 762.458 172.603 762.118 172.483C761.798 172.363 761.278 172.283 760.558 172.243V171.643C761.398 171.703 762.678 171.733 764.398 171.733C765.998 171.733 767.268 171.703 768.208 171.643V172.243ZM780.384 180.163C782.464 180.423 783.954 180.993 784.854 181.873C785.754 182.733 786.204 183.763 786.204 184.963C786.204 185.923 785.924 186.773 785.364 187.513C784.824 188.253 784.034 188.833 782.994 189.253C781.954 189.673 780.724 189.883 779.304 189.883C778.804 189.883 778.374 189.873 778.014 189.853C776.774 189.813 775.584 189.793 774.444 189.793C772.804 189.793 771.564 189.823 770.724 189.883V189.283C771.444 189.243 771.964 189.163 772.284 189.043C772.624 188.923 772.854 188.693 772.974 188.353C773.094 188.013 773.154 187.463 773.154 186.703V174.823C773.154 174.063 773.094 173.513 772.974 173.173C772.854 172.833 772.624 172.603 772.284 172.483C771.964 172.363 771.444 172.283 770.724 172.243V171.643C771.564 171.703 772.784 171.733 774.384 171.733L777.444 171.703C777.784 171.683 778.174 171.673 778.614 171.673C780.554 171.673 782.044 172.053 783.084 172.813C784.124 173.553 784.644 174.543 784.644 175.783C784.644 176.743 784.304 177.603 783.624 178.363C782.944 179.123 781.864 179.703 780.384 180.103V180.163ZM777.864 172.243C777.324 172.243 776.914 172.313 776.634 172.453C776.374 172.593 776.194 172.843 776.094 173.203C775.994 173.563 775.944 174.103 775.944 174.823V180.103H777.654C779.194 180.103 780.264 179.753 780.864 179.053C781.464 178.353 781.764 177.373 781.764 176.113C781.764 174.813 781.454 173.843 780.834 173.203C780.214 172.563 779.224 172.243 777.864 172.243ZM777.894 189.193C779.714 189.193 781.054 188.833 781.914 188.113C782.774 187.373 783.204 186.283 783.204 184.843C783.204 183.443 782.804 182.393 782.004 181.693C781.204 180.973 779.924 180.613 778.164 180.613H775.944V186.703C775.944 187.423 775.994 187.953 776.094 188.293C776.194 188.633 776.374 188.873 776.634 189.013C776.914 189.133 777.334 189.193 777.894 189.193ZM796.216 172.243C795.496 172.283 794.966 172.363 794.626 172.483C794.306 172.603 794.086 172.833 793.966 173.173C793.846 173.513 793.786 174.063 793.786 174.823V186.703C793.786 187.463 793.846 188.013 793.966 188.353C794.086 188.693 794.306 188.923 794.626 189.043C794.966 189.143 795.496 189.193 796.216 189.193H798.106C799.486 189.193 800.556 188.783 801.316 187.963C802.096 187.143 802.566 185.783 802.726 183.883H803.416C803.356 184.503 803.326 185.323 803.326 186.343C803.326 187.383 803.396 188.563 803.536 189.883C802.236 189.823 800.046 189.793 796.966 189.793C793.266 189.793 790.466 189.823 788.566 189.883V189.283C789.286 189.243 789.806 189.163 790.126 189.043C790.466 188.923 790.696 188.693 790.816 188.353C790.936 188.013 790.996 187.463 790.996 186.703V174.823C790.996 174.063 790.936 173.513 790.816 173.173C790.696 172.833 790.466 172.603 790.126 172.483C789.806 172.363 789.286 172.283 788.566 172.243V171.643C789.406 171.703 790.686 171.733 792.406 171.733C794.006 171.733 795.276 171.703 796.216 171.643V172.243ZM820.523 186.343C820.523 187.383 820.593 188.563 820.733 189.883C819.433 189.823 817.243 189.793 814.163 189.793C810.463 189.793 807.663 189.823 805.763 189.883V189.283C806.483 189.243 807.003 189.163 807.323 189.043C807.663 188.923 807.893 188.693 808.013 188.353C808.133 188.013 808.193 187.463 808.193 186.703V174.823C808.193 174.063 808.133 173.513 808.013 173.173C807.893 172.833 807.663 172.603 807.323 172.483C807.003 172.363 806.483 172.283 805.763 172.243V171.643C807.663 171.703 810.463 171.733 814.163 171.733C816.963 171.733 818.953 171.703 820.133 171.643C819.993 172.843 819.923 173.923 819.923 174.883C819.923 175.663 819.953 176.283 820.013 176.743H819.323C819.183 175.103 818.833 173.963 818.273 173.323C817.733 172.663 816.843 172.333 815.603 172.333H813.413C812.693 172.333 812.163 172.393 811.823 172.513C811.503 172.613 811.283 172.833 811.163 173.173C811.043 173.513 810.983 174.063 810.983 174.823V180.403H813.473C814.113 180.403 814.603 180.243 814.943 179.923C815.283 179.583 815.513 179.223 815.633 178.843C815.753 178.443 815.863 177.943 815.963 177.343H816.653C816.593 178.023 816.563 178.763 816.563 179.563V180.703C816.563 181.483 816.623 182.603 816.743 184.063H816.053C815.933 183.103 815.703 182.353 815.363 181.813C815.023 181.273 814.393 181.003 813.473 181.003H810.983V186.703C810.983 187.463 811.043 188.013 811.163 188.353C811.283 188.693 811.503 188.923 811.823 189.043C812.163 189.143 812.693 189.193 813.413 189.193H815.603C816.603 189.193 817.393 189.033 817.973 188.713C818.553 188.393 818.993 187.883 819.293 187.183C819.593 186.463 819.803 185.463 819.923 184.183H820.613C820.553 184.723 820.523 185.443 820.523 186.343ZM834.076 171.223C834.476 171.223 834.806 171.363 835.066 171.643C835.326 171.923 835.456 172.343 835.456 172.903C835.456 173.623 835.306 175.243 835.006 177.763C834.666 180.483 834.446 182.563 834.346 184.003H833.806C833.706 182.563 833.486 180.483 833.146 177.763C832.846 175.243 832.696 173.623 832.696 172.903C832.696 172.323 832.816 171.903 833.056 171.643C833.316 171.363 833.656 171.223 834.076 171.223ZM834.076 186.463C834.596 186.463 835.046 186.653 835.426 187.033C835.806 187.413 835.996 187.863 835.996 188.383C835.996 188.903 835.806 189.353 835.426 189.733C835.046 190.113 834.596 190.303 834.076 190.303C833.556 190.303 833.106 190.113 832.726 189.733C832.346 189.353 832.156 188.903 832.156 188.383C832.156 187.863 832.346 187.413 832.726 187.033C833.106 186.653 833.556 186.463 834.076 186.463Z" fill="black"/>
</svg>
