<svg width="255" height="395" viewBox="0 0 255 395" fill="none" xmlns="http://www.w3.org/2000/svg">
<rect x="113" y="171" width="57" height="200" fill="#AE6500"/>
<circle cx="56.5" cy="162.5" r="56.5" fill="#C4DECB"/>
<circle cx="92.5" cy="170.5" r="56.5" fill="#C4DECB"/>
<circle cx="92.5" cy="105.5" r="56.5" fill="#C4DECB"/>
<circle cx="146.5" cy="79.5" r="56.5" fill="#C4DECB"/>
<circle cx="155.5" cy="148.5" r="56.5" fill="#C4DECB"/>
<circle cx="180.5" cy="105.5" r="56.5" fill="#C4DECB"/>
<circle cx="198.5" cy="154.5" r="56.5" fill="#C4DECB"/>
<circle cx="189.5" cy="192.5" r="56.5" fill="#C4DECB"/>
<path d="M105.499 53.492C105.499 61.7647 65.2729 53.8347 76.1659 74.191C96.0188 74.191 165.999 57.5823 165.999 49.3096C165.999 41.0369 161.903 47.2193 142.05 47.2193C122.197 47.2193 105.499 45.2193 105.499 53.492Z" fill="white"/>
<path d="M188.003 87.435C188.003 95.7078 157.829 87.7778 166 108.134C180.892 108.134 215.421 115.055 215.421 106.783C215.421 98.5099 230.312 81.1624 215.42 81.1624C200.529 81.1624 188.003 79.1623 188.003 87.435Z" fill="white"/>
<path d="M78.9164 90.8226C78.9164 97.537 62.5748 93.3158 58.2744 109.838C50.4367 109.838 44.083 104.394 44.083 97.6801C44.083 90.9658 50.4367 85.5227 58.2744 85.5227C66.1121 85.5227 78.9164 84.1083 78.9164 90.8226Z" fill="white"/>
<path d="M11.9998 144.116C11.9998 140.759 21.4607 142.869 23.9504 134.609C28.488 134.609 32.1665 137.33 32.1665 140.687C32.1665 144.044 28.488 146.766 23.9504 146.766C19.4128 146.766 11.9998 147.473 11.9998 144.116Z" fill="white"/>
<path d="M149.238 90.5505C149.238 99.0367 121.492 93.7016 114.191 114.583C100.884 114.583 90.096 107.704 90.096 99.2176C90.096 90.7314 109.789 89.8073 123.096 89.8073C136.403 89.8073 149.238 82.0643 149.238 90.5505Z" fill="white"/>
<path d="M61.4999 192.985C61.4999 199.699 45.1583 195.478 40.8579 212C33.0202 212 26.6665 206.557 26.6665 199.842C26.6665 193.128 33.0202 187.685 40.8579 187.685C48.6956 187.685 61.4999 186.27 61.4999 192.985Z" fill="white"/>
<path d="M210.002 163.461C210.002 170.175 225.438 161.535 233.36 178.057C247.798 178.057 254 166.78 254 160.066C254 153.352 251.021 158.37 236.583 158.37C222.145 158.37 210.002 156.746 210.002 163.461Z" fill="white"/>
<path d="M134.131 135.326C116.246 136.433 141.806 140.646 99.1048 146.263C101.486 151.536 132.544 151.942 150.428 150.835C168.313 149.727 154.456 149.467 152.075 144.194C149.694 138.921 152.015 134.218 134.131 135.326Z" fill="white"/>
<path d="M33.999 162.783C16.1145 163.89 82.3855 164.148 39.6845 169.766C42.0655 175.039 59.1981 170.874 77.0826 169.766C94.967 168.659 96.8801 161.606 94.4991 156.333C92.1181 151.06 51.8834 161.676 33.999 162.783Z" fill="white"/>
<path d="M197.928 141.439C180.044 142.546 217.867 148 175.167 153.618C177.548 158.891 216.597 141.459 234.481 140.352C252.366 139.244 208.714 127.324 206.333 122.051C203.952 116.778 215.812 140.332 197.928 141.439Z" fill="white"/>
<path d="M125.399 177.495C107.514 178.603 173.785 178.86 131.084 184.478C133.465 189.751 94.9482 199.53 112.833 198.423C130.717 197.315 188.28 176.318 185.899 171.045C183.518 165.773 143.283 176.388 125.399 177.495Z" fill="white"/>
<path d="M182.232 195.825C164.347 196.933 169.667 200.086 187.917 202.808C242.732 210.982 215.949 198.852 233.833 197.745C251.718 196.638 245.113 194.648 242.732 189.375C240.351 184.102 200.116 194.718 182.232 195.825Z" fill="white"/>
<ellipse cx="128.5" cy="363" rx="28.5" ry="12" fill="white"/>
<ellipse cx="160.5" cy="364.5" rx="20.5" ry="12.5" fill="white"/>
</svg>
