<svg width="255" height="395" viewBox="0 0 255 395" fill="none" xmlns="http://www.w3.org/2000/svg">
<path d="M126 22L130.5 56.5L135.5 81.0315L138.904 96.5L246 113.5L236.5 117L138.904 113.5L221 173.5H210L138.904 128.5V197V214L197.5 208.5L219 234L192.5 216.5L138.904 226L147 387H105L110.566 185.5L60.5 220H24.5L68.7831 203.75L110.566 168.5V151L54 176L45 173.5L110.566 138.5V81.0315L126 22Z" fill="#5C411B"/>
<path d="M133 72.9901C133 82.8807 124.086 76.6628 121.74 101C117.465 101 114 92.9822 114 83.0916C114 73.201 117.465 65.1831 121.74 65.1831C126.015 65.1831 133 63.0995 133 72.9901Z" fill="white"/>
<path d="M108 146.005C108 141.06 113.16 144.169 114.518 132C116.993 132 119 136.009 119 140.954C119 145.9 116.993 149.908 114.518 149.908C112.043 149.908 108 150.95 108 146.005Z" fill="white"/>
<path d="M187.392 119.678C174.951 120.902 181.29 105.071 150.288 104.121C149.577 96.8974 159.085 90.0488 171.526 88.8242C183.966 87.5996 186.373 98.156 187.084 105.38C187.795 112.603 199.832 118.453 187.392 119.678Z" fill="white"/>
<path d="M83.3874 162.371C74.6506 167.567 77.0255 159.059 54.707 170.466C53.2117 167.952 59.0821 161.702 67.8188 156.505C76.5556 151.309 84.8502 149.134 86.3455 151.648C87.8408 154.162 92.1241 157.175 83.3874 162.371Z" fill="white"/>
<path d="M181.504 214.169C187.839 221.764 186.152 206.598 205.06 222.518C211.107 217.473 203.065 202.551 196.729 194.956C190.394 187.362 193.881 194.078 187.833 199.123C181.786 204.168 175.168 206.575 181.504 214.169Z" fill="white"/>
<path d="M109.836 43.9489C100.076 41.3257 148.757 44.8329 123.621 42.5509C121.577 50.1561 119.298 48.2614 129.057 50.8847C138.816 53.5079 124.016 27.5296 126.061 19.9244C128.105 12.3191 119.595 46.5722 109.836 43.9489Z" fill="white"/>
<path d="M58.6815 220.202C63.9056 222.044 46.7684 210.704 60.7564 212.023C62.8215 206.166 77.8384 202.477 72.6143 200.635C67.3901 198.793 41.6969 210.914 39.6317 216.771C37.5666 222.628 53.4573 218.36 58.6815 220.202Z" fill="white"/>
<ellipse cx="111" cy="383" rx="17" ry="12" fill="white"/>
<ellipse cx="137.5" cy="382.5" rx="14.5" ry="10.5" fill="white"/>
</svg>
