<svg width="46" height="113" viewBox="0 0 46 113" fill="none" xmlns="http://www.w3.org/2000/svg">
<path d="M12 38C12 36.3431 13.3431 35 15 35H32C33.6569 35 35 36.3431 35 38C35 39.6569 33.6569 41 32 41H15C13.3431 41 12 39.6569 12 38Z" fill="white"/>
<rect x="13" y="60" width="8" height="7" fill="#272727"/>
<path d="M20.6047 61.75L20 60H33V67H27.014V61.875L20.6047 61.75Z" fill="#272727"/>
<path d="M12 38H34L32.5 61H31.0063H15.0063H14L12 38Z" fill="white"/>
<line x1="28.697" y1="49.4492" x2="14.9936" y2="49.2681" stroke="#0720FF"/>
<line x1="31.9919" y1="55.3964" x2="18.2885" y2="55.2154" stroke="#FF0000"/>
<line x1="30.3445" y1="52.4199" x2="16.6411" y2="52.2388" stroke="#FBFF00"/>
<path d="M18.173 30H28.173L27.673 34C27.9348 35.5704 26.7237 37 25.1316 37H21.1419C19.7365 37 18.7889 35.563 19.3425 34.2712C19.5536 33.7787 19.5536 33.2213 19.3425 32.7288L18.173 30Z" fill="#EFC6C6"/>
<path d="M10.5 11H35.5L36 16H10L10.5 11Z" fill="#EFC6C6"/>
<ellipse cx="23.0063" cy="19.5" rx="14" ry="13.5" fill="#EFC6C6"/>
<path d="M33.7456 22.3184H25.1489L25.0122 22.0342L23.4761 18.8184H21.5972L20.0601 22.0342L19.9243 22.3184H11.7456V15.1113L13.9897 12.8672L14.1245 12.833L16.2261 12.3076L16.3296 12.3252L19.2349 12.8184H26.2622L29.2905 12.3252L29.3833 12.3096L29.4761 12.3301L31.7876 12.8301L31.9409 12.8633L32.0483 12.9775L33.6118 14.6592L33.7456 14.8037V22.3184Z" fill="url(#paint0_linear_181_872)" stroke="black"/>
<path d="M8.97934 17.998L11.8204 16.9994L12.1418 17.9464L8.97949 18.998L8.97934 17.998Z" fill="black"/>
<path d="M8.98371 18.9428L11.2026 17.9958L11.524 18.9428L8.97982 19.9979L8.98371 18.9428Z" fill="black"/>
<path d="M37.0717 17.1273L33.8631 15.9996L33.5002 17.069L37.0716 18.2567L37.0717 17.1273Z" fill="black"/>
<path d="M37.0251 18.181L34.2271 17.0124L33.8642 18.0819L37.0712 19.3868L37.0251 18.181Z" fill="black"/>
<line x1="22.4807" y1="20.1581" x2="21.4807" y2="23.1581" stroke="black"/>
<line x1="21.1645" y1="23.5257" x2="24.1645" y2="24.5257" stroke="black"/>
<ellipse cx="23.5063" cy="28.5" rx="5.5" ry="1.5" fill="#EFA7A7"/>
<path d="M27 67.0977L32.9992 67L32.9992 71.5L27.0651 71.0971L27 67.0977Z" fill="url(#paint1_linear_181_872)"/>
<path d="M14 67H19.8667L19 71.5L14 71V67Z" fill="url(#paint2_linear_181_872)"/>
<path d="M14 71H20L19 81.5H14.5L14 71Z" fill="url(#paint3_linear_181_872)"/>
<path d="M26 71L33 71.5V81.5L26 81V71Z" fill="url(#paint4_linear_181_872)"/>
<rect x="14" y="76" width="6" height="4" fill="white"/>
<path d="M14 81V79H20V81L19 84L18.5 86.5C17.5203 86.8266 16.4679 86.867 15.4661 86.6165L15 86.5L14 85V81Z" fill="black"/>
<path d="M15.4382 83.9596C15.4835 83.9569 15.5289 83.9541 15.6209 83.9527C15.713 83.9514 15.8504 83.9515 16.025 83.9654C16.1995 83.9792 16.407 84.0067 16.5839 84.0417C16.7607 84.0767 16.9007 84.1183 17.167 84.232C17.4333 84.3457 17.8216 84.5301 18.2321 84.7232" stroke="#F5E4E4" stroke-width="0.5" stroke-linecap="round"/>
<path d="M15.8422 82.6331C15.9005 82.6231 15.9588 82.6131 16.0823 82.6012C16.2058 82.5893 16.3927 82.5758 16.5742 82.5758C16.7556 82.5759 16.9259 82.5899 17.1388 82.6302C17.3516 82.6706 17.6019 82.7367 17.8585 82.8282C18.1151 82.9197 18.3705 83.0345 18.644 83.1558" stroke="#F5E4E4" stroke-width="0.5" stroke-linecap="round"/>
<path d="M15.1833 81.2951C15.2341 81.2883 15.2849 81.2815 15.3943 81.2698C15.5037 81.258 15.6701 81.2414 15.906 81.239C16.142 81.2367 16.4424 81.249 16.8107 81.2958C17.1791 81.3427 17.6061 81.4235 17.874 81.4821C18.1419 81.5407 18.2376 81.5744 18.2996 81.5976C18.3615 81.6208 18.3868 81.6323 18.4128 81.6442" stroke="#F5E4E4" stroke-width="0.5" stroke-linecap="round"/>
<path d="M17.3741 79.6029C17.3652 79.6093 17.3562 79.6157 17.3223 79.6369C17.2884 79.658 17.2298 79.6938 16.9884 79.7931C16.7471 79.8924 16.3248 80.0542 16.0696 80.1462C15.8144 80.2382 15.7392 80.2555 15.6675 80.2671C15.5957 80.2786 15.5298 80.284 15.4646 80.285C15.3994 80.2861 15.3369 80.2827 15.289 80.2772C15.2093 80.2681 15.1665 80.2525 15.1419 80.2413C15.0801 80.2131 15.0603 80.1613 15.05 80.1118C15.0476 80.0999 15.0482 80.0914 15.0549 80.0506C15.0616 80.0098 15.0754 79.9369 15.0888 79.8806C15.1022 79.8244 15.1147 79.7871 15.1289 79.7539C15.1555 79.6915 15.1932 79.6433 15.231 79.6062C15.2844 79.5537 15.3338 79.5524 15.4035 79.5463C15.4308 79.544 15.4713 79.5521 15.5464 79.574C15.6215 79.5959 15.7299 79.635 15.8602 79.7054C15.9904 79.7759 16.139 79.8764 16.2859 79.9914C16.4327 80.1064 16.5732 80.2328 16.7355 80.3561C16.8977 80.4793 17.0774 80.5955 17.1925 80.6649C17.3075 80.7342 17.3524 80.7531 17.3852 80.7657C17.4366 80.7856 17.4939 80.7933 17.5658 80.7962C17.6008 80.7976 17.633 80.7917 17.6648 80.7824C17.6967 80.773 17.7271 80.7586 17.7681 80.7326C17.8091 80.7066 17.8597 80.6695 17.9061 80.6292C17.9525 80.5888 17.9931 80.5462 18.0247 80.5107C18.0564 80.4751 18.0777 80.4477 18.1035 80.4074C18.1293 80.3672 18.1588 80.3148 18.1782 80.2753C18.2091 80.2122 18.218 80.1628 18.2231 80.1247C18.23 80.0725 18.2014 80.0043 18.1651 79.9415C18.1542 79.9227 18.1332 79.9054 18.1086 79.8867C18.084 79.8681 18.0538 79.8505 18.0059 79.8291C17.9579 79.8076 17.8931 79.7829 17.8364 79.7654C17.7797 79.748 17.7332 79.7386 17.7039 79.7333C17.6746 79.728 17.664 79.7272 17.653 79.7263" stroke="#F5E4E4" stroke-width="0.5" stroke-linecap="round"/>
<rect x="27" y="76" width="6" height="4" fill="white"/>
<path d="M27 82V80H33V82V86L32 87.5C31.0203 87.8266 29.9679 87.867 28.9661 87.6165L28.5 87.5L27 86V82Z" fill="black"/>
<path d="M29.4138 84.9575C29.4592 84.957 29.5047 84.9566 29.5967 84.96C29.6887 84.9633 29.8259 84.9705 29.9995 84.9933C30.1731 85.016 30.3789 85.0541 30.5538 85.0982C30.7286 85.1422 30.8662 85.191 31.1263 85.3181C31.3865 85.4453 31.7649 85.6494 32.1649 85.8633" stroke="#F5E4E4" stroke-width="0.5" stroke-linecap="round"/>
<path d="M29.8859 83.6541C29.9446 83.6471 30.0033 83.6402 30.1273 83.6346C30.2512 83.6291 30.4386 83.6252 30.6198 83.6345C30.801 83.6439 30.9704 83.6666 31.1809 83.7178C31.3914 83.769 31.6379 83.8479 31.8895 83.9524C32.1411 84.0569 32.3903 84.1846 32.6572 84.3198" stroke="#F5E4E4" stroke-width="0.5" stroke-linecap="round"/>
<path d="M29.296 82.2835C29.347 82.2794 29.3981 82.2752 29.508 82.2691C29.6178 82.2629 29.7849 82.2549 30.0206 82.2646C30.2564 82.2744 30.5558 82.3021 30.9212 82.3678C31.2866 82.4334 31.709 82.5361 31.9735 82.6083C32.2381 82.6805 32.3319 82.7192 32.3926 82.7455C32.4533 82.7718 32.4779 82.7846 32.5033 82.7978" stroke="#F5E4E4" stroke-width="0.5" stroke-linecap="round"/>
<path d="M31.571 80.706C31.5617 80.7119 31.5524 80.7178 31.5175 80.7372C31.4825 80.7566 31.4222 80.7893 31.1761 80.8761C30.93 80.963 30.4999 81.1029 30.2403 81.1816C29.9808 81.2604 29.9047 81.2738 29.8325 81.2817C29.7603 81.2896 29.6942 81.2916 29.629 81.2893C29.5638 81.287 29.5016 81.2803 29.4541 81.2724C29.375 81.2593 29.333 81.2415 29.309 81.229C29.2488 81.1977 29.2316 81.145 29.2239 81.095C29.222 81.083 29.2231 81.0745 29.2319 81.0341C29.2407 80.9937 29.2582 80.9216 29.2744 80.8661C29.2907 80.8107 29.3051 80.774 29.321 80.7416C29.3507 80.6807 29.3909 80.6345 29.4305 80.5994C29.4866 80.5497 29.536 80.5508 29.6058 80.5484C29.6333 80.5474 29.6733 80.5576 29.7472 80.5833C29.821 80.609 29.9273 80.6537 30.0538 80.7307C30.1802 80.8077 30.3235 80.9158 30.4643 81.0382C30.605 81.1606 30.7389 81.294 30.8946 81.4254C31.0503 81.5568 31.2238 81.6821 31.3351 81.7572C31.4465 81.8324 31.4904 81.8536 31.5224 81.8678C31.5728 81.8903 31.6295 81.9009 31.7012 81.9075C31.7361 81.9107 31.7686 81.9065 31.8009 81.8988C31.8331 81.8911 31.8643 81.8782 31.9066 81.8544C31.9488 81.8306 32.0012 81.7961 32.0496 81.7581C32.098 81.7202 32.1408 81.6798 32.1742 81.6459C32.2076 81.612 32.2303 81.5857 32.2581 81.5468C32.286 81.5079 32.3182 81.4572 32.3396 81.4187C32.3737 81.3573 32.385 81.3084 32.3921 81.2706C32.4017 81.2188 32.3767 81.1492 32.3436 81.0847C32.3337 81.0653 32.3136 81.047 32.29 81.0271C32.2664 81.0072 32.2371 80.9881 32.1903 80.9642C32.1435 80.9404 32.08 80.9123 32.0243 80.892C31.9686 80.8716 31.9226 80.8599 31.8936 80.8531C31.8647 80.8463 31.8541 80.8449 31.8432 80.8435" stroke="#F5E4E4" stroke-width="0.5" stroke-linecap="round"/>
<rect width="11.5981" height="4.83109" rx="2.41554" transform="matrix(-0.637953 0.770075 0.770075 0.637953 10.793 37.998)" fill="url(#paint5_linear_181_872)"/>
<path d="M7.44869 48.1596C7.50955 47.1966 6.93144 46.3077 6.02646 45.9728C4.69259 45.4792 3.25023 46.3715 3.09635 47.7854L2.25529 55.5133C2.11422 56.8095 3.05063 57.9746 4.34683 58.1157C5.68474 58.2613 6.87351 57.2607 6.95839 55.9176L7.44869 48.1596Z" fill="url(#paint6_linear_181_872)"/>
<rect x="8.3208" y="40.2852" width="6.32065" height="5" transform="rotate(-42.6912 8.3208 40.2852)" fill="white"/>
<rect x="35.6895" y="39" width="12.0036" height="5" rx="2.5" transform="rotate(47.5535 35.6895 39)" fill="url(#paint7_linear_181_872)"/>
<path d="M39.5246 48.6853C39.6849 47.6644 40.5138 46.8802 41.542 46.7765C42.9716 46.6325 44.1744 47.8345 44.0314 49.2642L43.4731 54.8432C43.3395 56.1786 42.1487 57.1528 40.8133 57.0192C39.4248 56.8802 38.4383 55.6029 38.6547 54.2243L39.5246 48.6853Z" fill="url(#paint8_linear_181_872)"/>
<path d="M33.7505 36.041L38 40.9998L33.5 45L29.9997 39.2553L33.7505 36.041Z" fill="white"/>
<rect x="4" y="50" width="38" height="3" fill="#767171"/>
<rect x="4.5498" y="50" width="3.27263" height="16.3631" transform="rotate(16.1447 4.5498 50)" fill="#767171"/>
<rect x="39" y="50.6426" width="3.27263" height="16.3631" transform="rotate(-11.32 39 50.6426)" fill="#767171"/>
<path d="M2.40675 53.7696C1.79853 53.6098 1.15883 53.8786 0.847375 54.4249C0.410627 55.191 0.789246 56.1649 1.62877 56.4348L5.10588 57.5527C5.88802 57.8042 6.72593 57.374 6.97739 56.5918C7.23853 55.7796 6.76442 54.9146 5.93924 54.6978L2.40675 53.7696Z" fill="url(#paint9_linear_181_872)"/>
<path d="M38.5831 56.114C38.0261 56.406 37.7349 57.0358 37.8732 57.6493C38.0671 58.5096 39.0033 58.9736 39.8053 58.607L43.1271 57.0885C43.8743 56.747 44.2031 55.8643 43.8616 55.1171C43.5068 54.3412 42.5735 54.0219 41.8179 54.4181L38.5831 56.114Z" fill="url(#paint10_linear_181_872)"/>
<rect x="20" y="53" width="7" height="13" fill="#A5BF49"/>
<rect x="18" y="63" width="3" height="33" fill="#A5BF49"/>
<rect x="26" y="63" width="3" height="33" fill="#A5BF49"/>
<rect x="22" y="69" width="3" height="44" fill="black"/>
<path d="M7.5 15.5L10.0594 25.7375C10.344 26.8761 11.0201 27.8783 11.9692 28.5685L15.4182 31.0769C15.8041 31.3575 16.2281 31.5815 16.6774 31.7419L21.2764 33.3844C22.3894 33.7819 23.6071 33.7723 24.7137 33.3574L30.287 31.2674C30.7596 31.0901 31.2027 30.8424 31.6011 30.5325L34.1167 28.5759C35.0122 27.8794 35.6442 26.8991 35.909 25.796L38.5 15" stroke="black"/>
<path d="M39 15.4286L34.3455 12.5714H23.4911H12.8182L7 16C7.57184 3.26714 13.4642 0 23.4911 0C33.5181 0 37.8563 4.28614 39 15.4286Z" fill="#BC1F1F"/>
<path d="M14.4508 11.5835L14.4291 6.85584L11.5714 3.99693" stroke="black"/>
<path d="M30.8935 10.4201L31.4022 6.2957L34.1928 4.09625" stroke="black"/>
<path d="M18.4287 11.4258L18.4295 6.286L16.143 1.7115" stroke="black"/>
<path d="M27.6924 10.9355L27.8836 5.88213L30.2063 1.4067" stroke="black"/>
<line x1="21.3569" y1="11.4277" x2="21.3569" y2="1.14202" stroke="black"/>
<line x1="24.7856" y1="11.4277" x2="24.7856" y2="1.14202" stroke="black"/>
<defs>
<linearGradient id="paint0_linear_181_872" x1="11" y1="17.5" x2="34" y2="17.5" gradientUnits="userSpaceOnUse">
<stop stop-color="#FFB300"/>
<stop offset="1" stop-color="#F7F6EB"/>
</linearGradient>
<linearGradient id="paint1_linear_181_872" x1="29.9996" y1="67.0488" x2="30.0647" y2="71.0483" gradientUnits="userSpaceOnUse">
<stop stop-color="#EFC6C6"/>
<stop offset="1" stop-color="#F5E7E7"/>
</linearGradient>
<linearGradient id="paint2_linear_181_872" x1="17.7333" y1="67" x2="17.7333" y2="71" gradientUnits="userSpaceOnUse">
<stop stop-color="#EFC6C6"/>
<stop offset="1" stop-color="#F5E7E7"/>
</linearGradient>
<linearGradient id="paint3_linear_181_872" x1="17.5" y1="81" x2="17.5" y2="71" gradientUnits="userSpaceOnUse">
<stop stop-color="#EFC6C6"/>
<stop offset="1" stop-color="#F5E4E4"/>
</linearGradient>
<linearGradient id="paint4_linear_181_872" x1="29" y1="81" x2="29" y2="71" gradientUnits="userSpaceOnUse">
<stop stop-color="#EFC6C6"/>
<stop offset="1" stop-color="#F5E4E4"/>
</linearGradient>
<linearGradient id="paint5_linear_181_872" x1="4.18851" y1="2.04869" x2="11.537" y2="2.92696" gradientUnits="userSpaceOnUse">
<stop stop-color="#EFC6C6"/>
<stop offset="1" stop-color="#987F7F"/>
</linearGradient>
<linearGradient id="paint6_linear_181_872" x1="4.22762" y1="56.4886" x2="8.46787" y2="49.417" gradientUnits="userSpaceOnUse">
<stop stop-color="#EFC6C6"/>
<stop offset="1" stop-color="#B29494"/>
</linearGradient>
<linearGradient id="paint7_linear_181_872" x1="40.0244" y1="41.1203" x2="47.6298" y2="42.0293" gradientUnits="userSpaceOnUse">
<stop stop-color="#EFC6C6"/>
<stop offset="1" stop-color="#987F7F"/>
</linearGradient>
<linearGradient id="paint8_linear_181_872" x1="41.2369" y1="55.713" x2="39.431" y2="48.8313" gradientUnits="userSpaceOnUse">
<stop stop-color="#EFC6C6"/>
<stop offset="1" stop-color="#B29494"/>
</linearGradient>
<linearGradient id="paint9_linear_181_872" x1="6.11334" y1="56.5028" x2="2.62213" y2="53.6854" gradientUnits="userSpaceOnUse">
<stop stop-color="#EFC6C6"/>
<stop offset="1" stop-color="#B29494"/>
</linearGradient>
<linearGradient id="paint10_linear_181_872" x1="43.1634" y1="55.6339" x2="38.6854" y2="55.9066" gradientUnits="userSpaceOnUse">
<stop stop-color="#EFC6C6"/>
<stop offset="1" stop-color="#B29494"/>
</linearGradient>
</defs>
</svg>
