<svg width="46" height="113" viewBox="0 0 46 113" fill="none" xmlns="http://www.w3.org/2000/svg">
<path d="M12.5309 36.8019C12.8002 35.1671 14.3438 34.0601 15.9787 34.3294L33.7095 37.2502C35.3443 37.5195 36.4513 39.0631 36.182 40.6979C35.9127 42.3327 34.3691 43.4397 32.7343 43.1704L15.0034 40.2496C13.3686 39.9803 12.2616 38.4367 12.5309 36.8019Z" fill="white"/>
<rect x="13" y="60" width="8" height="6" fill="#272727"/>
<path d="M20.5758 62.3333L19.9697 60H32.9999V69.3333H27V62.5L20.5758 62.3333Z" fill="#272727"/>
<path d="M12 38H34L32.5 61H31.0063H15.0063H14L12 38Z" fill="white"/>
<line x1="28.697" y1="49.4492" x2="14.9936" y2="49.2681" stroke="#0720FF"/>
<line x1="31.9919" y1="55.3945" x2="18.2885" y2="55.2134" stroke="#FF0000"/>
<line x1="30.3445" y1="52.4199" x2="16.6411" y2="52.2388" stroke="#FBFF00"/>
<path d="M18.8864 29.1563L28.7224 30.9599L27.5092 34.8041C27.4834 36.396 26.0344 37.5837 24.4684 37.2965L20.5441 36.577C19.1617 36.3235 18.4888 34.7391 19.2664 33.5683C19.5628 33.122 19.6633 32.5737 19.5445 32.0513L18.8864 29.1563Z" fill="#EFC6C6"/>
<path d="M12.6698 11.1661L37.6372 12.4421L37.8813 17.4611L11.9152 16.1341L12.6698 11.1661Z" fill="#EFC6C6"/>
<ellipse cx="24.7258" cy="20.2926" rx="14" ry="13.5" transform="rotate(2.92552 24.7258 20.2926)" fill="#EFC6C6"/>
<path d="M35.3074 23.6533L26.722 23.2145L26.5999 22.9237L25.2299 19.6337L23.3535 19.5378L21.6542 22.671L21.5042 22.9479L13.3361 22.5305L13.7039 15.3328L16.0597 13.2061L16.196 13.1789L18.3217 12.7614L18.4241 12.7843L21.3005 13.4251L28.3186 13.7837L31.3682 13.4458L31.4616 13.4349L31.5532 13.4601L33.8362 14.0774L33.9877 14.1184L34.0891 14.238L35.5647 15.9973L35.691 16.1484L35.3074 23.6533Z" fill="url(#paint0_linear_181_164)" stroke="black"/>
<path d="M10.7941 18.0766L13.6825 17.2244L13.9551 18.1865L10.7433 19.0754L10.7941 18.0766Z" fill="black"/>
<path d="M10.75 19.0208L13.0143 18.1884L13.2869 19.1505L10.6922 20.0745L10.75 19.0208Z" fill="black"/>
<path d="M38.8937 18.6386L35.7469 17.3485L35.3299 18.3981L38.8359 19.7665L38.8937 18.6386Z" fill="black"/>
<path d="M38.7938 19.688L36.059 18.3781L35.642 19.4277L38.7782 20.8946L38.7938 19.688Z" fill="black"/>
<line x1="24.1678" y1="20.9224" x2="23.016" y2="23.8674" stroke="black"/>
<line x1="22.6811" y1="24.2179" x2="25.6262" y2="25.3698" stroke="black"/>
<ellipse cx="24.7659" cy="29.3061" rx="5.5" ry="1.5" transform="rotate(2.92552 24.7659 29.3061)" fill="#EFA7A7"/>
<path d="M27 69.0977L32.9992 69L32.5 73.5L27.0651 73.0971L27 69.0977Z" fill="url(#paint1_linear_181_164)"/>
<path d="M13.5 65H19L21 69H13L13.5 65Z" fill="url(#paint2_linear_181_164)"/>
<path d="M13 69H21L18.5 79.5H14.5L13 69Z" fill="url(#paint3_linear_181_164)"/>
<path d="M26 73L32.5 73.5L33 83.5L26 83V73Z" fill="url(#paint4_linear_181_164)"/>
<rect x="14" y="74" width="6" height="4" fill="white"/>
<path d="M14 79V77H20V79L21 83L20 84.5C19.0203 84.8266 17.9679 84.867 16.9661 84.6165L16.5 84.5L15 83L14 79Z" fill="black"/>
<path d="M16.7852 82.486C16.8278 82.4705 16.8705 82.4549 16.9584 82.4273C17.0462 82.3997 17.178 82.3606 17.3492 82.3241C17.5204 82.2875 17.7271 82.2547 17.9066 82.2377C18.0861 82.2208 18.2322 82.2208 18.5198 82.2538C18.8075 82.2867 19.2323 82.3527 19.6808 82.4206" stroke="#F5E4E4" stroke-width="0.5" stroke-linecap="round"/>
<path d="M16.7939 81.0987C16.847 81.0725 16.9 81.0464 17.015 80.9997C17.1299 80.9531 17.3052 80.8867 17.4791 80.835C17.6531 80.7833 17.8203 80.7481 18.0358 80.726C18.2513 80.7039 18.51 80.696 18.7821 80.7104C19.0541 80.7248 19.3317 80.762 19.6285 80.8002" stroke="#F5E4E4" stroke-width="0.5" stroke-linecap="round"/>
<path d="M15.7808 80.0057C15.8275 79.9847 15.8743 79.9637 15.9758 79.9212C16.0772 79.8787 16.232 79.8153 16.4575 79.7457C16.6829 79.6761 16.9744 79.6023 17.3408 79.542C17.7071 79.4818 18.1395 79.4375 18.413 79.4171C18.6864 79.3968 18.7878 79.4019 18.8538 79.4064C18.9198 79.4109 18.9473 79.4148 18.9756 79.4187" stroke="#F5E4E4" stroke-width="0.5" stroke-linecap="round"/>
<path d="M17.3975 77.7578C17.3908 77.7665 17.384 77.7752 17.3575 77.8052C17.331 77.8351 17.2851 77.8861 17.0821 78.0502C16.8792 78.2142 16.5206 78.4898 16.3022 78.6508C16.0839 78.8118 16.0168 78.8498 15.9513 78.8814C15.8859 78.9129 15.8242 78.9368 15.762 78.9565C15.6998 78.9761 15.6389 78.9906 15.5915 78.9991C15.5125 79.0131 15.467 79.0104 15.4402 79.0066C15.373 78.9972 15.3393 78.9532 15.3153 78.9087C15.3095 78.8981 15.3077 78.8897 15.3025 78.8487C15.2973 78.8076 15.2897 78.7338 15.2865 78.6761C15.2832 78.6184 15.2846 78.5791 15.2887 78.5432C15.2964 78.4758 15.3188 78.4189 15.3444 78.3725C15.3806 78.307 15.4276 78.2916 15.4926 78.2659C15.5182 78.2559 15.5593 78.2521 15.6375 78.2516C15.7157 78.2512 15.8308 78.2577 15.9757 78.2881C16.1206 78.3184 16.2918 78.3724 16.4654 78.4407C16.6389 78.509 16.8097 78.5901 17.0004 78.6619C17.191 78.7337 17.3964 78.7938 17.5264 78.8274C17.6565 78.8611 17.705 78.8664 17.74 78.8691C17.7949 78.8734 17.852 78.8645 17.9217 78.8468C17.9557 78.8382 17.9849 78.8233 18.0127 78.8053C18.0405 78.7872 18.0656 78.7647 18.0975 78.7281C18.1294 78.6915 18.1673 78.6415 18.2002 78.5896C18.2331 78.5377 18.26 78.4853 18.2801 78.4421C18.3003 78.399 18.3129 78.3667 18.3261 78.3208C18.3393 78.2748 18.3528 78.2162 18.3601 78.1728C18.3717 78.1035 18.3661 78.0536 18.3601 78.0156C18.3519 77.9636 18.305 77.9064 18.2522 77.8566C18.2364 77.8417 18.2113 77.8311 18.1825 77.8202C18.1536 77.8094 18.1196 77.8012 18.0675 77.7943C18.0154 77.7874 17.9462 77.7822 17.8869 77.7817C17.8276 77.7811 17.7803 77.7854 17.7508 77.7887C17.7212 77.792 17.7108 77.7942 17.7001 77.7965" stroke="#F5E4E4" stroke-width="0.5" stroke-linecap="round"/>
<rect x="27" y="82" width="6" height="4" fill="white"/>
<path d="M27 87V85H33V87L34 91L33 92.5C32.0203 92.8266 30.9679 92.867 29.9661 92.6165L29.5 92.5L28 91L27 87Z" fill="black"/>
<path d="M29.7852 90.486C29.8278 90.4705 29.8705 90.4549 29.9584 90.4273C30.0462 90.3997 30.178 90.3606 30.3492 90.3241C30.5204 90.2875 30.7271 90.2547 30.9066 90.2377C31.0861 90.2208 31.2322 90.2208 31.5198 90.2538C31.8075 90.2867 32.2323 90.3527 32.6808 90.4206" stroke="#F5E4E4" stroke-width="0.5" stroke-linecap="round"/>
<path d="M29.7939 89.0987C29.847 89.0725 29.9 89.0464 30.015 88.9997C30.1299 88.9531 30.3052 88.8867 30.4791 88.835C30.6531 88.7833 30.8203 88.7481 31.0358 88.726C31.2513 88.7039 31.51 88.696 31.7821 88.7104C32.0541 88.7248 32.3317 88.762 32.6285 88.8002" stroke="#F5E4E4" stroke-width="0.5" stroke-linecap="round"/>
<path d="M28.7808 88.0057C28.8275 87.9847 28.8743 87.9637 28.9758 87.9212C29.0772 87.8787 29.232 87.8153 29.4575 87.7457C29.6829 87.6761 29.9744 87.6023 30.3408 87.542C30.7071 87.4818 31.1395 87.4375 31.413 87.4171C31.6864 87.3968 31.7878 87.4019 31.8538 87.4064C31.9198 87.4109 31.9473 87.4148 31.9756 87.4187" stroke="#F5E4E4" stroke-width="0.5" stroke-linecap="round"/>
<path d="M30.3975 85.7578C30.3908 85.7665 30.384 85.7752 30.3575 85.8052C30.331 85.8351 30.2851 85.8861 30.0821 86.0502C29.8792 86.2142 29.5206 86.4898 29.3022 86.6508C29.0839 86.8118 29.0168 86.8498 28.9513 86.8814C28.8859 86.9129 28.8242 86.9368 28.762 86.9565C28.6998 86.9761 28.6389 86.9906 28.5915 86.9991C28.5125 87.0131 28.467 87.0104 28.4402 87.0066C28.373 86.9972 28.3393 86.9532 28.3153 86.9087C28.3095 86.8981 28.3077 86.8897 28.3025 86.8487C28.2973 86.8076 28.2897 86.7338 28.2865 86.6761C28.2832 86.6184 28.2846 86.5791 28.2887 86.5432C28.2964 86.4758 28.3188 86.4189 28.3444 86.3725C28.3806 86.307 28.4276 86.2916 28.4926 86.2659C28.5182 86.2559 28.5593 86.2521 28.6375 86.2516C28.7157 86.2512 28.8308 86.2577 28.9757 86.2881C29.1206 86.3184 29.2918 86.3724 29.4654 86.4407C29.6389 86.509 29.8097 86.5901 30.0004 86.6619C30.191 86.7337 30.3964 86.7938 30.5264 86.8274C30.6565 86.8611 30.705 86.8664 30.74 86.8691C30.7949 86.8734 30.852 86.8645 30.9217 86.8468C30.9557 86.8382 30.9849 86.8233 31.0127 86.8053C31.0405 86.7872 31.0656 86.7647 31.0975 86.7281C31.1294 86.6915 31.1673 86.6415 31.2002 86.5896C31.2331 86.5377 31.26 86.4853 31.2801 86.4421C31.3003 86.399 31.3129 86.3667 31.3261 86.3208C31.3393 86.2748 31.3528 86.2162 31.3601 86.1728C31.3717 86.1035 31.3661 86.0536 31.3601 86.0156C31.3519 85.9636 31.305 85.9064 31.2522 85.8566C31.2364 85.8417 31.2113 85.8311 31.1825 85.8202C31.1536 85.8094 31.1196 85.8012 31.0675 85.7943C31.0154 85.7874 30.9462 85.7822 30.8869 85.7817C30.8276 85.7811 30.7803 85.7854 30.7508 85.7887C30.7212 85.792 30.7108 85.7942 30.7001 85.7965" stroke="#F5E4E4" stroke-width="0.5" stroke-linecap="round"/>
<rect width="11.5981" height="4.83109" rx="2.41554" transform="matrix(-0.637953 0.770075 0.770075 0.637953 10.793 38)" fill="url(#paint5_linear_181_164)"/>
<path d="M7.44869 48.1596C7.50955 47.1966 6.93144 46.3077 6.02646 45.9728C4.69259 45.4792 3.25023 46.3715 3.09635 47.7854L2.25529 55.5133C2.11422 56.8095 3.05063 57.9746 4.34683 58.1157C5.68474 58.2613 6.87351 57.2607 6.95839 55.9176L7.44869 48.1596Z" fill="url(#paint6_linear_181_164)"/>
<rect x="8.32031" y="40.2871" width="6.32065" height="5" transform="rotate(-42.6912 8.32031 40.2871)" fill="white"/>
<rect x="36.7002" y="41.7969" width="12.0036" height="5" rx="2.5" transform="rotate(56.9077 36.7002 41.7969)" fill="url(#paint7_linear_181_164)"/>
<path d="M38.4485 52.3492C38.5003 51.2757 39.2892 50.3815 40.3479 50.1962C41.7259 49.955 42.9979 50.9904 43.0414 52.3887L43.1216 54.9689C43.1628 56.2942 42.1219 57.402 40.7966 57.4432C39.3963 57.4867 38.2564 56.327 38.324 54.9278L38.4485 52.3492Z" fill="url(#paint8_linear_181_164)"/>
<path d="M35.2676 38.5625L38.6546 44.146L33.5643 47.3616L31.0442 41.1244L35.2676 38.5625Z" fill="white"/>
<rect x="4" y="50" width="38" height="3" fill="#767171"/>
<rect x="4.55029" y="50" width="3.27263" height="16.3631" transform="rotate(16.1447 4.55029 50)" fill="#767171"/>
<rect x="39" y="50.6426" width="3.27263" height="16.3631" transform="rotate(-11.32 39 50.6426)" fill="#767171"/>
<path d="M2.40675 53.7696C1.79853 53.6098 1.15883 53.8786 0.847375 54.4249C0.410627 55.191 0.789246 56.1649 1.62877 56.4348L5.10588 57.5527C5.88802 57.8042 6.72593 57.374 6.97739 56.5918C7.23853 55.7796 6.76442 54.9146 5.93924 54.6978L2.40675 53.7696Z" fill="url(#paint9_linear_181_164)"/>
<path d="M38.5831 56.114C38.0261 56.406 37.7349 57.0358 37.8732 57.6493C38.0671 58.5096 39.0033 58.9736 39.8053 58.607L43.1271 57.0885C43.8743 56.747 44.2031 55.8643 43.8616 55.1171C43.5068 54.3412 42.5735 54.0219 41.8179 54.4181L38.5831 56.114Z" fill="url(#paint10_linear_181_164)"/>
<rect x="20" y="53" width="7" height="13" fill="#A5BF49"/>
<rect x="18" y="63" width="3" height="33" fill="#A5BF49"/>
<rect x="26" y="63" width="3" height="33" fill="#A5BF49"/>
<rect x="22" y="69" width="3" height="44" fill="black"/>
<path d="M9.44421 15.5052L11.4778 25.86C11.7039 27.0116 12.328 28.047 13.2406 28.7848L16.5571 31.4659C16.9281 31.7659 17.3402 32.0112 17.7807 32.1944L22.2899 34.0694C23.3811 34.5232 24.5978 34.5758 25.7241 34.2178L31.3968 32.415C31.8778 32.2622 32.3329 32.0373 32.7467 31.7482L35.3589 29.9225C36.2887 29.2726 36.97 28.3259 37.2907 27.2377L40.4293 16.588" stroke="black"/>
<path d="M40.9067 17.0417L36.404 13.9507L25.5639 13.3967L14.9048 12.852L8.91923 15.9791C10.1402 3.29207 16.1916 0.329919 26.2055 0.841672C36.2194 1.35342 40.3332 5.85539 40.9067 17.0417Z" fill="#BC1F1F"/>
<path d="M16.5856 11.9494L16.8051 7.22675L14.0971 4.22571" stroke="black"/>
<path d="M33.0662 11.6245L33.7848 7.53145L36.6839 5.47729" stroke="black"/>
<path d="M20.5664 11.9941L20.8295 6.86109L18.7795 2.17586" stroke="black"/>
<path d="M29.8433 11.9766L30.2922 6.9395L32.8403 2.58845" stroke="black"/>
<line x1="23.4909" y1="12.1464" x2="24.0158" y2="1.87405" stroke="black"/>
<line x1="26.9152" y1="12.3221" x2="27.4402" y2="2.04983" stroke="black"/>
<defs>
<linearGradient id="paint0_linear_181_164" x1="12.8374" y1="17.6803" x2="35.8074" y2="18.8542" gradientUnits="userSpaceOnUse">
<stop stop-color="#FFB300"/>
<stop offset="1" stop-color="#F7F6EB"/>
</linearGradient>
<linearGradient id="paint1_linear_181_164" x1="29.9996" y1="69.0488" x2="30.0647" y2="73.0483" gradientUnits="userSpaceOnUse">
<stop stop-color="#EFC6C6"/>
<stop offset="1" stop-color="#F5E7E7"/>
</linearGradient>
<linearGradient id="paint2_linear_181_164" x1="17" y1="65" x2="17" y2="69" gradientUnits="userSpaceOnUse">
<stop stop-color="#EFC6C6"/>
<stop offset="1" stop-color="#F5E7E7"/>
</linearGradient>
<linearGradient id="paint3_linear_181_164" x1="17" y1="79" x2="17" y2="69" gradientUnits="userSpaceOnUse">
<stop stop-color="#EFC6C6"/>
<stop offset="1" stop-color="#F5E4E4"/>
</linearGradient>
<linearGradient id="paint4_linear_181_164" x1="29" y1="83" x2="29" y2="73" gradientUnits="userSpaceOnUse">
<stop stop-color="#EFC6C6"/>
<stop offset="1" stop-color="#F5E4E4"/>
</linearGradient>
<linearGradient id="paint5_linear_181_164" x1="4.18851" y1="2.04869" x2="11.537" y2="2.92696" gradientUnits="userSpaceOnUse">
<stop stop-color="#EFC6C6"/>
<stop offset="1" stop-color="#987F7F"/>
</linearGradient>
<linearGradient id="paint6_linear_181_164" x1="4.22762" y1="56.4886" x2="8.46787" y2="49.417" gradientUnits="userSpaceOnUse">
<stop stop-color="#EFC6C6"/>
<stop offset="1" stop-color="#B29494"/>
</linearGradient>
<linearGradient id="paint7_linear_181_164" x1="41.0351" y1="43.9172" x2="48.6406" y2="44.8262" gradientUnits="userSpaceOnUse">
<stop stop-color="#EFC6C6"/>
<stop offset="1" stop-color="#987F7F"/>
</linearGradient>
<linearGradient id="paint8_linear_181_164" x1="41.0293" y1="56.4886" x2="39.5578" y2="51.5206" gradientUnits="userSpaceOnUse">
<stop stop-color="#EFC6C6"/>
<stop offset="1" stop-color="#B29494"/>
</linearGradient>
<linearGradient id="paint9_linear_181_164" x1="6.11334" y1="56.5028" x2="2.62213" y2="53.6854" gradientUnits="userSpaceOnUse">
<stop stop-color="#EFC6C6"/>
<stop offset="1" stop-color="#B29494"/>
</linearGradient>
<linearGradient id="paint10_linear_181_164" x1="43.1634" y1="55.6339" x2="38.6854" y2="55.9066" gradientUnits="userSpaceOnUse">
<stop stop-color="#EFC6C6"/>
<stop offset="1" stop-color="#B29494"/>
</linearGradient>
</defs>
</svg>
