<svg width="46" height="111" viewBox="0 0 46 111" fill="none" xmlns="http://www.w3.org/2000/svg">
<path d="M32.2788 35.9163C32.0543 34.3057 30.5667 33.182 28.9561 33.4064L12.4306 35.7094C10.82 35.9339 9.69632 37.4215 9.92078 39.0321C10.1452 40.6427 11.6328 41.7664 13.2435 41.5419L29.7689 39.2389C31.3795 39.0145 32.5032 37.5269 32.2788 35.9163Z" fill="white"/>
<rect width="7.85185" height="5.88889" transform="matrix(-1 0 0 1 32.4271 58.8887)" fill="#272727"/>
<path d="M24.9914 61.1788L25.5862 58.8887H12.7973V68.0492H18.6862V61.3424L24.9914 61.1788Z" fill="#272727"/>
<path d="M11.6068 36.9727H33.8159L32.3017 60.1913H30.7938H14.6417H13.6258L11.6068 36.9727Z" fill="white"/>
<line x1="28.2953" y1="41.4025" x2="14.5402" y2="42.886" stroke="#0720FF" stroke-width="4"/>
<line x1="32.3202" y1="46.9631" x2="18.5651" y2="48.4466" stroke="#FF0000" stroke-width="4"/>
<line x1="30.3071" y1="44.1799" x2="16.5519" y2="45.6634" stroke="#FBFF00" stroke-width="4"/>
<path d="M27.3436 30.2285L17.5604 31.0156L18.3644 34.8895C18.2319 36.4465 19.5292 37.7498 21.0868 37.6245L24.99 37.3104C26.365 37.1998 27.1789 35.7194 26.5356 34.4991C26.2904 34.034 26.2465 33.4886 26.4142 32.9902L27.3436 30.2285Z" fill="#EFC6C6"/>
<path d="M33.3554 11.0354L8.89737 13.0032L8.80175 17.9341L34.2381 15.8877L33.3554 11.0354Z" fill="#EFC6C6"/>
<ellipse cx="13.7407" cy="13.25" rx="13.7407" ry="13.25" transform="matrix(-0.996779 0.080194 0.080194 0.996779 34.4232 6.02734)" fill="#EFC6C6"/>
<path d="M11.4955 23.9491L19.9214 23.2712L20.0339 22.977L21.2813 19.7161L23.1093 19.569L24.862 22.5886L25.0201 22.861L33.0372 22.216L32.4689 15.1529L32.3112 15.0186L30.1971 13.2185L30.0919 13.129L29.9549 13.1067L27.959 12.7744L27.8557 12.7573L27.7539 12.7831L24.9514 13.4945L18.0839 14.047L15.0771 13.803L14.9824 13.7949L14.8926 13.8227L12.6697 14.4934L12.5195 14.5388L12.4226 14.6622L11.0248 16.4304L10.9029 16.5842L11.4955 23.9491Z" fill="url(#paint0_linear_181_791)" stroke="black"/>
<path d="M35.3937 17.7626L32.5356 17.0093L32.2958 17.961L35.4722 18.741L35.3937 17.7626Z" fill="black"/>
<path d="M35.4635 18.6884L33.2182 17.9366L32.9784 18.8883L35.5504 19.7204L35.4635 18.6884Z" fill="black"/>
<path d="M7.84217 19.1226L10.8925 17.7667L11.3317 18.7845L7.93123 20.2275L7.84217 19.1226Z" fill="black"/>
<path d="M7.97041 20.1502L10.6158 18.7867L11.055 19.8045L8.0203 21.3335L7.97041 20.1502Z" fill="black"/>
<line x1="22.0932" y1="20.2817" x2="21.3339" y2="23.3648" stroke="black"/>
<line x1="21.0481" y1="23.7586" x2="24.1312" y2="24.5179" stroke="black"/>
<ellipse cx="5.39815" cy="1.47222" rx="5.39815" ry="1.47222" transform="matrix(-0.996779 0.080194 0.080194 0.996779 27.2708 27.2812)" fill="#EFA7A7"/>
<path d="M18.6863 67.8184L12.7982 67.7225L13.2882 72.1392L18.6224 71.7438L18.6863 67.8184Z" fill="url(#paint1_linear_181_791)"/>
<path d="M31.9363 63.7949H26.5382L24.5752 67.7208H32.4271L31.9363 63.7949Z" fill="url(#paint2_linear_181_791)"/>
<path d="M32.4271 67.7207H24.5752L27.0289 78.0263H30.9548L32.4271 67.7207Z" fill="url(#paint3_linear_181_791)"/>
<path d="M19.6678 71.6484L13.2882 72.1392L12.7974 81.954L19.6678 81.4633V71.6484Z" fill="url(#paint4_linear_181_791)"/>
<rect width="5.88889" height="3.92593" transform="matrix(-1 0 0 1 31.4456 72.6289)" fill="white"/>
<path d="M31.4456 77.5372V75.5742H25.5567V77.5372L24.5752 81.4631L25.5567 82.9353C26.5182 83.2558 27.5512 83.2955 28.5345 83.0497L28.9919 82.9353L30.4641 81.4631L31.4456 77.5372Z" fill="black"/>
<path d="M28.7122 80.9578C28.6703 80.9425 28.6284 80.9272 28.5422 80.9001C28.456 80.8731 28.3267 80.8347 28.1586 80.7988C27.9906 80.763 27.7877 80.7307 27.6115 80.7141C27.4353 80.6975 27.292 80.6975 27.0097 80.7298C26.7274 80.7622 26.3104 80.8269 25.8702 80.8936" stroke="#F5E4E4" stroke-width="0.5" stroke-linecap="round"/>
<path d="M28.7034 79.5973C28.6514 79.5716 28.5993 79.5459 28.4865 79.5001C28.3737 79.4543 28.2016 79.3892 28.0309 79.3384C27.8602 79.2876 27.6961 79.2532 27.4846 79.2315C27.2731 79.2098 27.0191 79.202 26.7521 79.2161C26.4851 79.2303 26.2127 79.2667 25.9214 79.3042" stroke="#F5E4E4" stroke-width="0.5" stroke-linecap="round"/>
<path d="M29.6976 78.5238C29.6517 78.5032 29.6058 78.4826 29.5062 78.4409C29.4066 78.3992 29.2547 78.337 29.0334 78.2687C28.8121 78.2004 28.526 78.1279 28.1665 78.0687C27.8069 78.0096 27.3825 77.9661 27.1141 77.9462C26.8457 77.9262 26.7462 77.9312 26.6814 77.9356C26.6167 77.9401 26.5897 77.9439 26.5619 77.9477" stroke="#F5E4E4" stroke-width="0.5" stroke-linecap="round"/>
<path d="M28.1111 76.3164C28.1178 76.3249 28.1244 76.3335 28.1504 76.3629C28.1764 76.3923 28.2215 76.4423 28.4207 76.6033C28.6199 76.7644 28.9719 77.0348 29.1861 77.1928C29.4004 77.3508 29.4663 77.3882 29.5306 77.4191C29.5948 77.4501 29.6553 77.4736 29.7164 77.4929C29.7774 77.5121 29.8372 77.5264 29.8837 77.5347C29.9612 77.5484 30.0059 77.5458 30.0322 77.5421C30.0981 77.5329 30.1313 77.4897 30.1549 77.446C30.1605 77.4355 30.1623 77.4273 30.1674 77.3871C30.1725 77.3468 30.1799 77.2743 30.1831 77.2177C30.1863 77.1611 30.1849 77.1224 30.1809 77.0873C30.1734 77.0211 30.1514 76.9652 30.1262 76.9197C30.0907 76.8554 30.0446 76.8403 29.9808 76.8151C29.9557 76.8052 29.9153 76.8015 29.8386 76.8011C29.7618 76.8006 29.6488 76.8071 29.5066 76.8368C29.3644 76.8666 29.1964 76.9196 29.026 76.9867C28.8557 77.0537 28.6881 77.1333 28.501 77.2037C28.3138 77.2742 28.1122 77.3332 27.9846 77.3662C27.857 77.3992 27.8094 77.4045 27.7751 77.4071C27.7211 77.4114 27.6651 77.4026 27.5966 77.3852C27.5633 77.3768 27.5347 77.3622 27.5074 77.3445C27.48 77.3268 27.4554 77.3047 27.4241 77.2687C27.3928 77.2328 27.3557 77.1838 27.3233 77.1328C27.291 77.0818 27.2647 77.0304 27.2449 76.9881C27.2251 76.9457 27.2127 76.914 27.1997 76.8689C27.1868 76.8238 27.1736 76.7663 27.1664 76.7237C27.155 76.6557 27.1606 76.6067 27.1664 76.5694C27.1745 76.5184 27.2205 76.4622 27.2723 76.4134C27.2878 76.3987 27.3124 76.3883 27.3407 76.3777C27.3691 76.3671 27.4024 76.359 27.4535 76.3522C27.5047 76.3455 27.5726 76.3404 27.6308 76.3398C27.689 76.3393 27.7354 76.3435 27.7645 76.3467C27.7935 76.3499 27.8037 76.3521 27.8142 76.3543" stroke="#F5E4E4" stroke-width="0.5" stroke-linecap="round"/>
<rect width="5.88889" height="3.92593" transform="matrix(-1 0 0 1 18.6863 80.4805)" fill="white"/>
<path d="M18.6863 85.3887V83.4258H12.7974V85.3887L11.816 89.3147L12.7974 90.7869C13.759 91.1074 14.7919 91.1471 15.7752 90.9013L16.2326 90.7869L17.7049 89.3147L18.6863 85.3887Z" fill="black"/>
<path d="M15.9529 88.8094C15.9111 88.7941 15.8692 88.7788 15.7829 88.7517C15.6967 88.7246 15.5674 88.6863 15.3994 88.6504C15.2313 88.6145 15.0284 88.5823 14.8522 88.5657C14.6761 88.5491 14.5327 88.549 14.2504 88.5814C13.9681 88.6137 13.5511 88.6785 13.1109 88.7451" stroke="#F5E4E4" stroke-width="0.5" stroke-linecap="round"/>
<path d="M15.9442 87.4488C15.8921 87.4231 15.8401 87.3974 15.7272 87.3516C15.6144 87.3059 15.4423 87.2408 15.2716 87.19C15.1009 87.1392 14.9368 87.1047 14.7253 87.083C14.5138 87.0613 14.2598 87.0535 13.9928 87.0677C13.7258 87.0819 13.4534 87.1183 13.1621 87.1558" stroke="#F5E4E4" stroke-width="0.5" stroke-linecap="round"/>
<path d="M16.9388 86.3754C16.8929 86.3548 16.847 86.3342 16.7474 86.2925C16.6478 86.2508 16.4959 86.1885 16.2746 86.1202C16.0533 86.0519 15.7672 85.9794 15.4077 85.9203C15.0481 85.8612 14.6237 85.8177 14.3553 85.7977C14.0869 85.7778 13.9874 85.7828 13.9227 85.7872C13.8579 85.7916 13.8309 85.7954 13.8031 85.7993" stroke="#F5E4E4" stroke-width="0.5" stroke-linecap="round"/>
<path d="M15.3519 84.1699C15.3585 84.1784 15.3652 84.187 15.3911 84.2164C15.4171 84.2458 15.4622 84.2958 15.6614 84.4569C15.8606 84.6179 16.2126 84.8883 16.4269 85.0463C16.6411 85.2043 16.7071 85.2417 16.7713 85.2727C16.8355 85.3036 16.896 85.3271 16.9571 85.3464C17.0181 85.3656 17.0779 85.3799 17.1244 85.3882C17.2019 85.4019 17.2466 85.3993 17.2729 85.3956C17.3389 85.3864 17.372 85.3432 17.3956 85.2995C17.4012 85.2891 17.403 85.2808 17.4081 85.2406C17.4132 85.2003 17.4207 85.1279 17.4238 85.0712C17.427 85.0146 17.4257 84.976 17.4216 84.9408C17.4141 84.8746 17.3921 84.8187 17.367 84.7733C17.3314 84.7089 17.2853 84.6938 17.2215 84.6686C17.1964 84.6587 17.156 84.6551 17.0793 84.6546C17.0025 84.6542 16.8895 84.6606 16.7473 84.6904C16.6051 84.7202 16.4371 84.7731 16.2668 84.8402C16.0964 84.9072 15.9288 84.9868 15.7417 85.0573C15.5546 85.1277 15.353 85.1867 15.2253 85.2197C15.0977 85.2528 15.0501 85.258 15.0158 85.2607C14.9618 85.2649 14.9059 85.2561 14.8374 85.2387C14.804 85.2303 14.7754 85.2157 14.7481 85.198C14.7208 85.1803 14.6961 85.1582 14.6648 85.1223C14.6335 85.0863 14.5964 85.0373 14.5641 84.9863C14.5317 84.9353 14.5054 84.8839 14.4856 84.8416C14.4658 84.7992 14.4534 84.7675 14.4405 84.7224C14.4275 84.6773 14.4143 84.6198 14.4072 84.5772C14.3957 84.5092 14.4013 84.4602 14.4072 84.4229C14.4152 84.3719 14.4612 84.3158 14.513 84.2669C14.5285 84.2522 14.5531 84.2418 14.5815 84.2312C14.6098 84.2206 14.6431 84.2125 14.6943 84.2057C14.7454 84.199 14.8133 84.1939 14.8715 84.1933C14.9297 84.1928 14.9762 84.197 15.0052 84.2002C15.0342 84.2035 15.0444 84.2056 15.0549 84.2079" stroke="#F5E4E4" stroke-width="0.5" stroke-linecap="round"/>
<rect x="34.5931" y="37.2949" width="11.3834" height="4.74163" rx="2.37081" transform="rotate(50.3606 34.5931 37.2949)" fill="url(#paint5_linear_181_791)"/>
<path d="M37.8756 47.269C37.8158 46.3238 38.3832 45.4514 39.2714 45.1227C40.5806 44.6383 41.9963 45.514 42.1473 46.9017L42.9728 54.4865C43.1112 55.7587 42.1922 56.9022 40.92 57.0407C39.6068 57.1836 38.4401 56.2016 38.3568 54.8833L37.8756 47.269Z" fill="url(#paint6_linear_181_791)"/>
<rect width="6.20361" height="4.90741" transform="matrix(-0.735019 -0.678046 -0.678046 0.735019 37.0193 39.5391)" fill="white"/>
<rect width="11.7814" height="4.90741" rx="2.4537" transform="matrix(-0.56659 0.824 0.824 0.56659 9.38605 40.0977)" fill="url(#paint7_linear_181_791)"/>
<path d="M7.44149 50.6389C7.53523 49.5813 6.88099 48.6007 5.8684 48.2811C4.56429 47.8696 3.19596 48.6999 2.95876 50.0466L2.61473 51.9999C2.38978 53.2771 3.24281 54.4949 4.52003 54.7198C5.87557 54.9586 7.14486 53.9856 7.26638 52.6145L7.44149 50.6389Z" fill="url(#paint8_linear_181_791)"/>
<path d="M10.8699 36.959L7.41085 42.355L12.3271 45.634L14.9514 39.5754L10.8699 36.959Z" fill="white"/>
<rect width="37.2963" height="2.94445" transform="matrix(-1 0 0 1 41.2606 49.0742)" fill="#767171"/>
<rect width="3.21202" height="16.0601" rx="1.60601" transform="matrix(-0.960563 0.278064 0.278064 0.960563 40.721 49.0742)" fill="#767171"/>
<rect width="3.21202" height="16.0601" rx="1.60601" transform="matrix(-0.980546 -0.196288 -0.196288 0.980546 6.90851 49.7051)" fill="#767171"/>
<path d="M42.8239 52.7729C43.4209 52.6161 44.0487 52.8799 44.3544 53.4161C44.7831 54.168 44.4115 55.1239 43.5875 55.3888L40.1748 56.486C39.4071 56.7328 38.5847 56.3106 38.3379 55.5429C38.0816 54.7457 38.5469 53.8967 39.3568 53.6839L42.8239 52.7729Z" fill="url(#paint9_linear_181_791)"/>
<path d="M7.31753 55.075C7.86418 55.3616 8.15002 55.9797 8.0143 56.5818C7.824 57.4262 6.90514 57.8816 6.11797 57.5218L2.8577 56.0314C2.12433 55.6962 1.80158 54.8299 2.13682 54.0966C2.48497 53.335 3.401 53.0216 4.14265 53.4105L7.31753 55.075Z" fill="url(#paint10_linear_181_791)"/>
<rect width="6.87037" height="12.7593" transform="matrix(-1 0 0 1 25.5569 52.0176)" fill="#A5BF49"/>
<rect width="2.94445" height="32.3889" transform="matrix(-1 0 0 1 27.5198 61.832)" fill="#A5BF49"/>
<rect width="2.94445" height="32.3889" transform="matrix(-1 0 0 1 19.6678 61.832)" fill="#A5BF49"/>
<rect width="2.94445" height="43.1852" rx="1.47222" transform="matrix(-1 0 0 1 23.5936 67.7207)" fill="black"/>
<path d="M36.6442 15.2021L34.9516 25.3859C34.7591 26.5436 34.1656 27.5968 33.2749 28.3609L30.1337 31.0558C29.7716 31.3665 29.3669 31.6237 28.9319 31.8197L24.605 33.7692C23.5275 34.2546 22.3129 34.3427 21.1766 34.0178L15.6058 32.425C15.1205 32.2863 14.659 32.0748 14.237 31.7979L11.6608 30.1072C10.7123 29.4848 10.0037 28.5583 9.65138 27.48L6.27686 17.1529" stroke="black"/>
<path d="M5.82101 17.6128L10.1498 14.4512L20.7688 13.5969L31.2103 12.7568L37.1722 15.6531C35.6106 3.24132 29.5888 0.508792 19.7793 1.298C9.96973 2.08721 6.06288 6.62189 5.82101 17.6128Z" fill="#BC1F1F"/>
<path d="M29.5353 11.9187L29.1844 7.29177L31.7551 4.26992" stroke="black"/>
<path d="M13.3578 12.0749L12.5354 8.07989L9.63228 6.14776" stroke="black"/>
<path d="M25.6317 12.0762L25.2263 7.04788L27.1032 2.39258" stroke="black"/>
<path d="M16.5301 12.3262L15.9452 7.39737L13.3206 3.20178" stroke="black"/>
<line y1="-0.5" x2="10.0952" y2="-0.5" transform="matrix(-0.080194 -0.996779 -0.996779 0.080194 22.2776 12.3496)" stroke="black"/>
<line y1="-0.5" x2="10.0952" y2="-0.5" transform="matrix(-0.080194 -0.996779 -0.996779 0.080194 18.9232 12.6191)" stroke="black"/>
<defs>
<linearGradient id="paint0_linear_181_791" x1="10.8761" y1="19.2455" x2="33.3774" y2="17.4352" gradientUnits="userSpaceOnUse">
<stop stop-color="#FFB300"/>
<stop offset="1" stop-color="#F7F6EB"/>
</linearGradient>
<linearGradient id="paint1_linear_181_791" x1="15.7423" y1="67.7704" x2="15.6784" y2="71.6958" gradientUnits="userSpaceOnUse">
<stop stop-color="#EFC6C6"/>
<stop offset="1" stop-color="#F5E7E7"/>
</linearGradient>
<linearGradient id="paint2_linear_181_791" x1="28.5011" y1="63.7949" x2="28.5011" y2="67.7208" gradientUnits="userSpaceOnUse">
<stop stop-color="#EFC6C6"/>
<stop offset="1" stop-color="#F5E7E7"/>
</linearGradient>
<linearGradient id="paint3_linear_181_791" x1="28.5011" y1="77.5355" x2="28.5011" y2="67.7207" gradientUnits="userSpaceOnUse">
<stop stop-color="#EFC6C6"/>
<stop offset="1" stop-color="#F5E4E4"/>
</linearGradient>
<linearGradient id="paint4_linear_181_791" x1="16.7233" y1="81.4633" x2="16.7233" y2="71.6484" gradientUnits="userSpaceOnUse">
<stop stop-color="#EFC6C6"/>
<stop offset="1" stop-color="#F5E4E4"/>
</linearGradient>
<linearGradient id="paint5_linear_181_791" x1="38.704" y1="39.3057" x2="45.9164" y2="40.1677" gradientUnits="userSpaceOnUse">
<stop stop-color="#EFC6C6"/>
<stop offset="1" stop-color="#987F7F"/>
</linearGradient>
<linearGradient id="paint6_linear_181_791" x1="41.037" y1="55.4437" x2="36.8753" y2="48.5031" gradientUnits="userSpaceOnUse">
<stop stop-color="#EFC6C6"/>
<stop offset="1" stop-color="#B29494"/>
</linearGradient>
<linearGradient id="paint7_linear_181_791" x1="4.25467" y1="2.08105" x2="11.7193" y2="2.9732" gradientUnits="userSpaceOnUse">
<stop stop-color="#EFC6C6"/>
<stop offset="1" stop-color="#987F7F"/>
</linearGradient>
<linearGradient id="paint8_linear_181_791" x1="4.42328" y1="53.832" x2="6.31207" y2="49.5116" gradientUnits="userSpaceOnUse">
<stop stop-color="#EFC6C6"/>
<stop offset="1" stop-color="#B29494"/>
</linearGradient>
<linearGradient id="paint9_linear_181_791" x1="39.186" y1="55.4555" x2="42.6125" y2="52.6902" gradientUnits="userSpaceOnUse">
<stop stop-color="#EFC6C6"/>
<stop offset="1" stop-color="#B29494"/>
</linearGradient>
<linearGradient id="paint10_linear_181_791" x1="2.8221" y1="54.6037" x2="7.21713" y2="54.8714" gradientUnits="userSpaceOnUse">
<stop stop-color="#EFC6C6"/>
<stop offset="1" stop-color="#B29494"/>
</linearGradient>
</defs>
</svg>
