<svg width="700" height="300" viewBox="0 0 700 300" fill="none" xmlns="http://www.w3.org/2000/svg">
<g clip-path="url(#clip0_254_1781)">
<path d="M212.631 96.0363C214.708 95.4925 216.405 94.9755 217.724 94.4854L218.079 95.8397C217.057 96.5416 216.175 97.689 215.435 99.2819C214.694 100.875 214.202 102.957 213.959 105.529L209.798 147.937C209.29 148.022 208.494 148.207 207.41 148.49C206.372 148.762 205.61 148.986 205.126 149.161L176.756 111.293C175.779 109.957 174.818 109.051 173.873 108.575C172.928 108.099 172.089 107.933 171.355 108.077L171 106.722C173.744 106.148 177.193 105.318 181.346 104.23C185.996 103.012 189.409 102.046 191.586 101.331L191.94 102.685C190.249 103.225 189.083 103.747 188.443 104.252C187.804 104.758 187.608 105.484 187.857 106.432C188.058 107.2 188.606 108.19 189.503 109.402L209.366 136.618L211.807 111.954C212.161 108.147 212.071 105.228 211.539 103.196C211.067 101.391 210.227 100.212 209.021 99.6591C207.86 99.0948 206.343 99.0099 204.468 99.4044L204.113 98.0501C207.219 97.3815 210.058 96.7103 212.631 96.0363ZM243.829 90.7149C242.29 91.1134 241.205 91.5177 240.572 91.9278C239.94 92.3379 239.563 92.9592 239.441 93.7917C239.366 94.6152 239.5 95.8969 239.843 97.6367L246.559 131.701C246.902 133.441 247.264 134.677 247.647 135.411C248.075 136.135 248.66 136.566 249.401 136.706C250.141 136.845 251.299 136.807 252.874 136.592L253.145 137.965C250.645 138.315 247.175 138.928 242.734 139.804C237.835 140.77 234.231 141.551 231.923 142.149L231.653 140.776C233.145 140.386 234.208 139.986 234.841 139.576C235.519 139.157 235.896 138.536 235.972 137.712C236.093 136.88 235.982 135.594 235.639 133.854L228.923 99.7896C228.58 98.0498 228.194 96.8178 227.766 96.0936C227.384 95.3604 226.799 94.9286 226.012 94.7983C225.272 94.659 224.137 94.6925 222.608 94.8989L222.337 93.5253C224.699 93.2023 228.33 92.5578 233.229 91.592C237.67 90.7163 241.113 89.9661 243.558 89.3413L243.829 90.7149ZM275.77 83.8684C278.546 83.5001 280.958 83.5802 283.005 84.1088C285.052 84.6374 287.096 85.496 289.137 86.6845C289.701 87.0333 290.168 87.1832 290.538 87.134C291.464 87.0113 291.881 85.5436 291.79 82.7311L293.386 82.5193C293.618 85.6896 294.269 91.2995 295.337 99.3489L293.741 99.5607C292.87 96.1927 291.968 93.6526 291.035 91.9405C290.102 90.2284 288.713 88.8121 286.87 87.6915C285.566 86.7347 284.114 86.08 282.514 85.7275C280.907 85.3287 279.271 85.2398 277.606 85.4608C272.933 86.0809 269.768 88.8312 268.109 93.7119C266.444 98.5463 266.062 104.364 266.965 111.164C267.861 117.918 269.79 123.405 272.751 127.626C275.712 131.846 279.528 133.647 284.201 133.027C285.773 132.818 287.286 132.335 288.739 131.577C290.232 130.767 291.437 129.736 292.354 128.485C293.894 126.962 294.858 125.186 295.248 123.157C295.684 121.122 295.839 118.207 295.712 114.41L297.308 114.199C298.419 122.572 299.285 128.389 299.906 131.649L298.31 131.86C297.975 130.398 297.628 129.385 297.271 128.821C296.954 128.204 296.564 127.926 296.101 127.987C295.731 128.036 295.27 128.286 294.718 128.736C292.832 130.492 290.993 131.89 289.201 132.928C287.403 133.92 285.162 134.594 282.479 134.95C277.575 135.601 273.141 135.177 269.176 133.679C265.257 132.175 262.032 129.684 259.499 126.207C256.96 122.684 255.344 118.308 254.65 113.081C253.975 107.992 254.417 103.343 255.977 99.135C257.537 94.9266 260.023 91.4897 263.435 88.8242C266.894 86.1527 271.005 84.5008 275.77 83.8684ZM346.07 79.2924C345.976 83.7368 346.02 87.7066 346.203 91.2018C346.318 93.3921 346.48 95.1594 346.691 96.5035L345.083 96.5877C343.664 90.9141 341.916 86.9635 339.836 84.7358C337.804 82.5057 335.109 81.4785 331.754 81.6541L330.146 81.7383L332.236 121.654C332.338 123.611 332.599 125.023 333.018 125.888C333.484 126.752 334.215 127.321 335.211 127.596C336.251 127.822 337.867 127.901 340.06 127.833L340.133 129.231C334.254 129.399 329.823 129.561 326.84 129.717C323.904 129.87 319.644 130.164 314.059 130.596L313.985 129.198C316.173 129.037 317.749 128.791 318.713 128.46C319.721 128.08 320.389 127.438 320.715 126.533C321.088 125.625 321.224 124.193 321.121 122.235L319.032 82.3202L317.494 82.4007C315.257 82.5178 313.372 83.1071 311.838 84.1687C310.352 85.2279 309.109 86.9285 308.11 89.2706C307.109 91.5661 306.314 94.6919 305.727 98.648L304.119 98.7322C304.188 97.3734 304.165 95.5988 304.051 93.4085C303.868 89.9133 303.497 85.9606 302.939 81.5504C307.187 81.4682 314.391 81.1612 324.551 80.6293C334.71 80.0974 341.883 79.6518 346.07 79.2924ZM379.772 79.0143C384.716 79.164 389 80.2975 392.625 82.4148C396.296 84.5336 399.099 87.5365 401.036 91.4235C402.974 95.2639 403.863 99.8196 403.704 105.09C403.548 110.221 402.361 114.738 400.142 118.639C397.923 122.54 394.891 125.53 391.046 127.608C387.248 129.687 382.947 130.654 378.143 130.509C373.198 130.359 368.891 129.225 365.22 127.106C361.595 124.989 358.814 122.01 356.876 118.169C354.94 114.282 354.051 109.703 354.211 104.432C354.366 99.3015 355.553 94.7854 357.772 90.884C359.991 86.9827 363 83.9924 366.798 81.9131C370.643 79.8351 374.967 78.8689 379.772 79.0143ZM379.454 80.2653C376.888 80.1876 374.594 81.1686 372.571 83.2084C370.55 85.2015 368.947 88.0476 367.761 91.7467C366.622 95.4473 365.979 99.6998 365.834 104.504C365.687 109.355 366.141 113.641 367.195 117.361C368.297 121.083 369.82 123.977 371.765 126.044C373.756 128.111 375.988 129.183 378.461 129.258C381.026 129.335 383.319 128.378 385.341 126.385C387.363 124.345 388.944 121.475 390.083 117.774C391.269 114.075 391.935 109.823 392.08 105.019C392.227 100.168 391.75 95.8812 390.649 92.1595C389.594 88.4392 388.071 85.5452 386.079 83.4773C384.134 81.4108 381.926 80.3401 379.454 80.2653ZM433.913 84.7261C432.325 84.6663 431.169 84.7421 430.445 84.9535C429.721 85.1648 429.182 85.6519 428.827 86.4146C428.518 87.1818 428.279 88.448 428.108 90.2131L424.768 124.772C424.597 126.537 424.59 127.826 424.746 128.638C424.948 129.454 425.384 130.036 426.054 130.382C426.724 130.728 427.844 131.024 429.414 131.269L429.28 132.663C426.785 132.281 423.285 131.872 418.779 131.437C413.809 130.956 410.132 130.671 407.75 130.582L407.885 129.188C409.427 129.243 410.559 129.165 411.283 128.954C412.053 128.747 412.592 128.26 412.901 127.493C413.256 126.73 413.519 125.466 413.689 123.701L417.03 89.1423C417.2 87.3772 417.184 86.0864 416.982 85.2698C416.826 84.4577 416.39 83.8764 415.674 83.5258C415.004 83.1798 413.907 82.8862 412.383 82.6452L412.518 81.2517C414.873 81.62 418.536 82.0443 423.506 82.5247C428.012 82.9602 431.526 83.2295 434.048 83.3326L433.913 84.7261ZM481.276 137.709C479.803 138.939 478.305 139.739 476.78 140.11C475.249 140.527 473.469 140.573 471.442 140.249C468.769 139.822 466.737 138.93 465.347 137.573C464.011 136.178 463.329 134.085 463.303 131.292L463.164 124.181C463.102 120.721 462.759 118.138 462.134 116.431C461.562 114.686 460.286 113.655 458.304 113.338L453.811 112.62L451.27 128.518C450.99 130.269 450.903 131.555 451.008 132.375C451.159 133.203 451.559 133.81 452.206 134.197C452.853 134.584 453.952 134.949 455.504 135.291L455.283 136.674C452.817 136.138 449.349 135.513 444.879 134.798C439.948 134.01 436.297 133.497 433.924 133.26L434.145 131.878C435.681 132.028 436.816 132.021 437.552 131.855C438.333 131.696 438.902 131.244 439.257 130.497C439.659 129.758 440 128.513 440.28 126.762L445.759 92.4768C446.039 90.7257 446.104 89.4364 445.952 88.6088C445.847 87.7886 445.448 87.1813 444.755 86.787C444.108 86.4 443.031 86.0389 441.525 85.7037L441.746 84.3212C444.074 84.8351 447.566 85.464 452.22 86.2079L459.903 87.3651C460.832 87.4663 461.896 87.6126 463.094 87.8041C469.453 88.8205 474.057 90.6197 476.905 93.2016C479.8 95.7908 480.937 99.0209 480.319 102.892C479.796 106.163 478.137 108.852 475.343 110.958C472.549 113.063 468.336 113.996 462.703 113.758C466.792 114.789 469.735 116.181 471.535 117.934C473.334 119.686 474.305 122.039 474.447 124.992L474.899 132.366C474.973 134.268 475.182 135.624 475.525 136.435C475.914 137.254 476.546 137.733 477.422 137.873C477.982 137.915 478.465 137.851 478.87 137.679C479.322 137.515 479.845 137.197 480.441 136.725L481.276 137.709ZM461.986 88.9738C460.741 88.775 459.794 88.789 459.143 89.0158C458.539 89.25 458.055 89.7634 457.692 90.556C457.329 91.3487 457.015 92.5745 456.75 94.2334L454.032 111.238L457.004 111.713C460.783 112.317 463.522 111.738 465.221 109.978C466.974 108.178 468.141 105.459 468.723 101.818C469.327 98.0394 469.115 95.0756 468.088 92.9265C467.061 90.7775 465.027 89.4599 461.986 88.9738ZM521.518 139.751C520.51 143.925 519.836 147.411 519.496 150.209C516.445 149.328 511.267 148.006 503.964 146.242C494.075 143.854 486.664 142.137 481.732 141.09L482.061 139.729C483.579 140 484.712 140.081 485.458 139.973C486.25 139.877 486.852 139.47 487.265 138.753C487.723 138.048 488.161 136.833 488.577 135.11L496.727 101.36C497.143 99.6359 497.308 98.3556 497.222 97.5187C497.181 96.6927 496.831 96.056 496.171 95.6086C495.556 95.1721 494.511 94.7278 493.036 94.2756L493.365 92.9147C498.231 94.2338 505.609 96.0873 515.498 98.4753C522.166 100.085 526.923 101.162 529.769 101.705C528.542 105.394 527.573 108.712 526.861 111.661C526.379 113.657 526.074 115.215 525.947 116.337L524.382 115.959C524.874 110.941 524.471 107.243 523.173 104.865C521.875 102.487 519.615 100.91 516.394 100.132L513.605 99.4583C512.198 99.1187 511.15 98.9856 510.46 99.0591C509.771 99.1325 509.23 99.4821 508.839 100.108C508.459 100.688 508.093 101.704 507.743 103.156L503.668 120.031L505.845 120.556C508.25 121.137 510.278 120.691 511.93 119.217C513.627 117.755 515.021 115.859 516.112 113.53L517.677 113.908C517.08 115.78 516.498 117.896 515.928 120.255L515.139 123.521C514.581 125.834 513.939 129.088 513.214 133.282L511.649 132.904C512.143 126.686 510.098 123.024 505.517 121.917L503.339 121.391L499.199 138.539C498.848 139.99 498.704 141.084 498.767 141.819C498.84 142.509 499.167 143.044 499.747 143.424C500.328 143.804 501.321 144.164 502.727 144.504L506.061 145.309C509.282 146.086 512.131 145.622 514.607 143.916C517.14 142.175 519.45 138.772 521.537 133.707L523.102 134.085C522.604 135.549 522.076 137.438 521.518 139.751Z" fill="#DABE12"/>
<path d="M67.96 180.68C70.16 180.98 71.73 181.62 72.67 182.6C73.61 183.56 74.08 184.72 74.08 186.08C74.08 187.22 73.79 188.23 73.21 189.11C72.63 189.99 71.8 190.68 70.72 191.18C69.64 191.66 68.36 191.9 66.88 191.9C66.34 191.9 65.88 191.89 65.5 191.87C64.22 191.83 62.96 191.81 61.72 191.81C60.08 191.81 58.84 191.84 58 191.9V191.3C58.72 191.26 59.24 191.18 59.56 191.06C59.9 190.94 60.13 190.71 60.25 190.37C60.37 190.03 60.43 189.48 60.43 188.72V173.84C60.43 173.08 60.37 172.53 60.25 172.19C60.13 171.85 59.9 171.62 59.56 171.5C59.24 171.38 58.72 171.3 58 171.26V170.66C58.84 170.72 60.06 170.75 61.66 170.75L64.9 170.72C65.28 170.7 65.71 170.69 66.19 170.69C68.23 170.69 69.79 171.12 70.87 171.98C71.97 172.84 72.52 173.98 72.52 175.4C72.52 176.56 72.15 177.6 71.41 178.52C70.69 179.44 69.54 180.14 67.96 180.62V180.68ZM65.44 171.26C64.82 171.26 64.35 171.33 64.03 171.47C63.73 171.61 63.52 171.86 63.4 172.22C63.28 172.58 63.22 173.12 63.22 173.84V180.62H65.23C66.87 180.62 68.01 180.18 68.65 179.3C69.31 178.4 69.64 177.21 69.64 175.73C69.64 174.23 69.31 173.11 68.65 172.37C67.99 171.63 66.92 171.26 65.44 171.26ZM65.47 191.21C69.21 191.21 71.08 189.46 71.08 185.96C71.08 184.38 70.65 183.18 69.79 182.36C68.95 181.54 67.6 181.13 65.74 181.13H63.22V188.72C63.22 189.44 63.28 189.97 63.4 190.31C63.52 190.65 63.73 190.89 64.03 191.03C64.35 191.15 64.83 191.21 65.47 191.21ZM94.391 190.64C94.011 191.18 93.571 191.6 93.071 191.9C92.591 192.18 92.011 192.32 91.331 192.32C89.651 192.32 88.621 191.56 88.241 190.04L87.311 186.29C87.031 185.17 86.611 184.42 86.051 184.04C85.511 183.66 84.701 183.47 83.621 183.47H81.911V188.72C81.911 189.48 81.971 190.03 82.091 190.37C82.211 190.71 82.431 190.94 82.751 191.06C83.091 191.18 83.621 191.26 84.341 191.3V191.9C83.421 191.84 82.151 191.81 80.531 191.81C78.811 191.81 77.531 191.84 76.691 191.9V191.3C77.411 191.26 77.931 191.18 78.251 191.06C78.591 190.94 78.821 190.71 78.941 190.37C79.061 190.03 79.121 189.48 79.121 188.72V176.84C79.121 176.08 79.061 175.53 78.941 175.19C78.821 174.85 78.591 174.62 78.251 174.5C77.931 174.38 77.411 174.3 76.691 174.26V173.66C77.531 173.72 78.751 173.75 80.351 173.75L83.411 173.72C83.751 173.7 84.141 173.69 84.581 173.69C86.821 173.69 88.531 174.11 89.711 174.95C90.911 175.79 91.511 176.88 91.511 178.22C91.511 179.38 91.041 180.44 90.101 181.4C89.181 182.36 87.661 182.97 85.541 183.23C85.941 183.27 86.281 183.31 86.561 183.35C87.621 183.51 88.461 183.83 89.081 184.31C89.701 184.79 90.141 185.56 90.401 186.62L91.061 189.35C91.221 190.05 91.391 190.55 91.571 190.85C91.771 191.13 92.021 191.27 92.321 191.27C92.821 191.27 93.371 190.93 93.971 190.25L94.391 190.64ZM83.831 174.26C83.291 174.26 82.881 174.33 82.601 174.47C82.341 174.61 82.161 174.86 82.061 175.22C81.961 175.58 81.911 176.12 81.911 176.84V182.87H83.921C85.681 182.87 86.881 182.5 87.521 181.76C88.181 181 88.511 179.93 88.511 178.55C88.511 177.11 88.141 176.04 87.401 175.34C86.681 174.62 85.491 174.26 83.831 174.26ZM110.652 189.38C111.192 190.62 111.882 191.26 112.722 191.3V191.9C111.922 191.84 110.852 191.81 109.512 191.81C107.792 191.81 106.512 191.84 105.672 191.9V191.3C106.412 191.26 106.952 191.16 107.292 191C107.652 190.84 107.832 190.57 107.832 190.19C107.832 189.87 107.692 189.4 107.412 188.78L105.882 185.36H98.592L97.572 187.61C97.232 188.39 97.062 189.03 97.062 189.53C97.062 190.05 97.242 190.46 97.602 190.76C97.982 191.04 98.582 191.22 99.402 191.3V191.9C98.802 191.84 97.892 191.81 96.672 191.81C95.452 191.81 94.582 191.84 94.062 191.9V191.3C94.602 191.16 95.062 190.86 95.442 190.4C95.822 189.92 96.182 189.29 96.522 188.51L103.152 173.51H103.632L110.652 189.38ZM105.642 184.76L102.252 177.14L98.832 184.76H105.642ZM126.444 173.75C127.284 173.75 127.954 173.72 128.454 173.66V174.26C127.894 174.4 127.444 174.68 127.104 175.1C126.764 175.5 126.374 176.2 125.934 177.2L119.364 192.05H118.884L111.864 176.18C111.324 174.94 110.634 174.3 109.794 174.26V173.66C110.614 173.72 111.684 173.75 113.004 173.75C114.724 173.75 116.004 173.72 116.844 173.66V174.26C116.104 174.3 115.554 174.4 115.194 174.56C114.854 174.72 114.684 174.99 114.684 175.37C114.684 175.69 114.824 176.16 115.104 176.78L120.264 188.42L124.734 178.46C125.234 177.38 125.484 176.53 125.484 175.91C125.484 175.35 125.284 174.95 124.884 174.71C124.504 174.45 123.914 174.3 123.114 174.26V173.66C123.714 173.72 124.824 173.75 126.444 173.75ZM138.732 173.24C140.572 173.24 142.182 173.61 143.562 174.35C144.962 175.07 146.042 176.14 146.802 177.56C147.562 178.96 147.942 180.64 147.942 182.6C147.942 184.52 147.542 186.22 146.742 187.7C145.962 189.16 144.872 190.3 143.472 191.12C142.072 191.92 140.482 192.32 138.702 192.32C136.862 192.32 135.242 191.96 133.842 191.24C132.462 190.5 131.392 189.43 130.632 188.03C129.872 186.61 129.492 184.92 129.492 182.96C129.492 181.04 129.882 179.35 130.662 177.89C131.462 176.41 132.562 175.27 133.962 174.47C135.362 173.65 136.952 173.24 138.732 173.24ZM138.612 173.78C137.392 173.78 136.312 174.17 135.372 174.95C134.452 175.71 133.742 176.78 133.242 178.16C132.742 179.52 132.492 181.08 132.492 182.84C132.492 184.62 132.772 186.19 133.332 187.55C133.892 188.91 134.652 189.96 135.612 190.7C136.572 191.42 137.642 191.78 138.822 191.78C140.042 191.78 141.112 191.4 142.032 190.64C142.972 189.86 143.692 188.79 144.192 187.43C144.692 186.05 144.942 184.48 144.942 182.72C144.942 180.94 144.662 179.37 144.102 178.01C143.542 176.65 142.782 175.61 141.822 174.89C140.862 174.15 139.792 173.78 138.612 173.78ZM153.069 188.48C153.849 188.48 154.439 188.8 154.839 189.44C155.179 189.98 155.349 190.64 155.349 191.42C155.349 192.42 155.089 193.32 154.569 194.12C154.069 194.92 153.299 195.56 152.259 196.04L151.989 195.5C152.609 195.24 153.139 194.83 153.579 194.27C154.039 193.71 154.269 193.14 154.269 192.56C154.269 192.32 154.239 192.11 154.179 191.93C153.859 192.19 153.489 192.32 153.069 192.32C152.529 192.32 152.069 192.15 151.689 191.81C151.329 191.45 151.149 190.98 151.149 190.4C151.149 189.86 151.329 189.41 151.689 189.05C152.069 188.67 152.529 188.48 153.069 188.48ZM173.492 174.26C172.772 174.3 172.242 174.38 171.902 174.5C171.582 174.62 171.362 174.85 171.242 175.19C171.122 175.53 171.062 176.08 171.062 176.84V188.72C171.062 189.48 171.122 190.03 171.242 190.37C171.362 190.71 171.582 190.94 171.902 191.06C172.242 191.16 172.772 191.21 173.492 191.21H175.382C176.762 191.21 177.832 190.8 178.592 189.98C179.372 189.16 179.842 187.8 180.002 185.9H180.692C180.632 186.52 180.602 187.34 180.602 188.36C180.602 189.4 180.672 190.58 180.812 191.9C179.512 191.84 177.322 191.81 174.242 191.81C170.542 191.81 167.742 191.84 165.842 191.9V191.3C166.562 191.26 167.082 191.18 167.402 191.06C167.742 190.94 167.972 190.71 168.092 190.37C168.212 190.03 168.272 189.48 168.272 188.72V176.84C168.272 176.08 168.212 175.53 168.092 175.19C167.972 174.85 167.742 174.62 167.402 174.5C167.082 174.38 166.562 174.3 165.842 174.26V173.66C166.682 173.72 167.962 173.75 169.682 173.75C171.282 173.75 172.552 173.72 173.492 173.66V174.26ZM197.799 188.36C197.799 189.4 197.869 190.58 198.009 191.9C196.709 191.84 194.519 191.81 191.439 191.81C187.739 191.81 184.939 191.84 183.039 191.9V191.3C183.759 191.26 184.279 191.18 184.599 191.06C184.939 190.94 185.169 190.71 185.289 190.37C185.409 190.03 185.469 189.48 185.469 188.72V176.84C185.469 176.08 185.409 175.53 185.289 175.19C185.169 174.85 184.939 174.62 184.599 174.5C184.279 174.38 183.759 174.3 183.039 174.26V173.66C184.939 173.72 187.739 173.75 191.439 173.75C194.239 173.75 196.229 173.72 197.409 173.66C197.269 174.86 197.199 175.94 197.199 176.9C197.199 177.68 197.229 178.3 197.289 178.76H196.599C196.459 177.12 196.109 175.98 195.549 175.34C195.009 174.68 194.119 174.35 192.879 174.35H190.689C189.969 174.35 189.439 174.41 189.099 174.53C188.779 174.63 188.559 174.85 188.439 175.19C188.319 175.53 188.259 176.08 188.259 176.84V182.42H190.749C191.389 182.42 191.879 182.26 192.219 181.94C192.559 181.6 192.789 181.24 192.909 180.86C193.029 180.46 193.139 179.96 193.239 179.36H193.929C193.869 180.04 193.839 180.78 193.839 181.58V182.72C193.839 183.5 193.899 184.62 194.019 186.08H193.329C193.209 185.12 192.979 184.37 192.639 183.83C192.299 183.29 191.669 183.02 190.749 183.02H188.259V188.72C188.259 189.48 188.319 190.03 188.439 190.37C188.559 190.71 188.779 190.94 189.099 191.06C189.439 191.16 189.969 191.21 190.689 191.21H192.879C193.879 191.21 194.669 191.05 195.249 190.73C195.829 190.41 196.269 189.9 196.569 189.2C196.869 188.48 197.079 187.48 197.199 186.2H197.889C197.829 186.74 197.799 187.46 197.799 188.36ZM207.301 173.24C208.181 173.24 208.871 173.34 209.371 173.54C209.891 173.72 210.421 173.99 210.961 174.35C211.401 174.63 211.741 174.77 211.981 174.77C212.161 174.77 212.301 174.67 212.401 174.47C212.501 174.25 212.581 173.91 212.641 173.45H213.331C213.231 174.49 213.181 176.33 213.181 178.97H212.491C212.371 177.53 211.901 176.31 211.081 175.31C210.281 174.31 209.111 173.81 207.571 173.81C206.511 173.81 205.631 174.09 204.931 174.65C204.251 175.21 203.911 175.92 203.911 176.78C203.911 177.4 204.061 177.94 204.361 178.4C204.681 178.86 205.081 179.26 205.561 179.6C206.061 179.92 206.761 180.32 207.661 180.8L208.651 181.34C209.891 182 210.881 182.59 211.621 183.11C212.381 183.63 212.991 184.23 213.451 184.91C213.911 185.57 214.141 186.34 214.141 187.22C214.141 188.84 213.551 190.1 212.371 191C211.211 191.88 209.751 192.32 207.991 192.32C207.031 192.32 206.241 192.22 205.621 192.02C205.021 191.82 204.441 191.55 203.881 191.21C203.441 190.93 203.101 190.79 202.861 190.79C202.681 190.79 202.541 190.9 202.441 191.12C202.341 191.32 202.261 191.65 202.201 192.11H201.511C201.591 191.13 201.631 188.93 201.631 185.51H202.321C202.461 187.37 202.961 188.87 203.821 190.01C204.681 191.15 206.001 191.72 207.781 191.72C208.781 191.72 209.641 191.44 210.361 190.88C211.101 190.3 211.471 189.45 211.471 188.33C211.471 187.67 211.281 187.09 210.901 186.59C210.521 186.07 210.011 185.61 209.371 185.21C208.731 184.81 207.841 184.31 206.701 183.71C205.061 182.87 203.811 182.03 202.951 181.19C202.091 180.35 201.661 179.26 201.661 177.92C201.661 176.44 202.201 175.29 203.281 174.47C204.381 173.65 205.721 173.24 207.301 173.24ZM232.056 174.26C231.336 174.3 230.806 174.38 230.466 174.5C230.146 174.62 229.926 174.85 229.806 175.19C229.686 175.53 229.626 176.08 229.626 176.84V188.72C229.626 189.48 229.686 190.03 229.806 190.37C229.926 190.71 230.146 190.94 230.466 191.06C230.806 191.18 231.336 191.26 232.056 191.3V191.9C231.136 191.84 229.866 191.81 228.246 191.81C226.526 191.81 225.246 191.84 224.406 191.9V191.3C225.126 191.26 225.646 191.18 225.966 191.06C226.306 190.94 226.536 190.71 226.656 190.37C226.776 190.03 226.836 189.48 226.836 188.72V176.84C226.836 176.08 226.776 175.53 226.656 175.19C226.536 174.85 226.306 174.62 225.966 174.5C225.646 174.38 225.126 174.3 224.406 174.26V173.66C225.246 173.72 226.526 173.75 228.246 173.75C229.846 173.75 231.116 173.72 232.056 173.66V174.26ZM252.812 174.26C252.112 174.3 251.592 174.41 251.252 174.59C250.912 174.75 250.682 175.03 250.562 175.43C250.442 175.81 250.382 176.38 250.382 177.14V192.05H249.692L237.692 175.43V188.42C237.692 189.2 237.752 189.78 237.872 190.16C238.012 190.54 238.272 190.82 238.652 191C239.032 191.16 239.622 191.26 240.422 191.3V191.9C239.702 191.84 238.682 191.81 237.362 191.81C236.162 191.81 235.232 191.84 234.572 191.9V191.3C235.272 191.26 235.792 191.16 236.132 191C236.472 190.82 236.702 190.54 236.822 190.16C236.942 189.76 237.002 189.18 237.002 188.42V176.84C237.002 176.08 236.942 175.53 236.822 175.19C236.702 174.85 236.472 174.62 236.132 174.5C235.812 174.38 235.292 174.3 234.572 174.26V173.66C235.232 173.72 236.162 173.75 237.362 173.75C238.442 173.75 239.362 173.72 240.122 173.66L249.692 186.98V177.14C249.692 176.36 249.622 175.78 249.482 175.4C249.362 175.02 249.112 174.75 248.732 174.59C248.352 174.41 247.762 174.3 246.962 174.26V173.66C247.682 173.72 248.702 173.75 250.022 173.75C251.222 173.75 252.152 173.72 252.812 173.66V174.26ZM269.303 173.66C269.163 174.86 269.093 175.94 269.093 176.9C269.093 177.68 269.123 178.3 269.183 178.76H268.493C268.353 177.12 268.003 175.98 267.443 175.34C266.903 174.68 266.013 174.35 264.773 174.35H262.583C261.863 174.35 261.333 174.41 260.993 174.53C260.673 174.63 260.453 174.85 260.333 175.19C260.213 175.53 260.153 176.08 260.153 176.84V182.42H262.643C263.283 182.42 263.773 182.26 264.113 181.94C264.453 181.6 264.683 181.24 264.803 180.86C264.923 180.46 265.033 179.96 265.133 179.36H265.823C265.763 180.04 265.733 180.78 265.733 181.58V182.72C265.733 183.5 265.793 184.62 265.913 186.08H265.223C265.103 185.12 264.873 184.37 264.533 183.83C264.193 183.29 263.563 183.02 262.643 183.02H260.153V188.72C260.153 189.48 260.233 190.03 260.393 190.37C260.553 190.71 260.833 190.94 261.233 191.06C261.633 191.18 262.283 191.26 263.183 191.3V191.9C262.143 191.84 260.673 191.81 258.773 191.81C257.053 191.81 255.773 191.84 254.933 191.9V191.3C255.653 191.26 256.173 191.18 256.493 191.06C256.833 190.94 257.063 190.71 257.183 190.37C257.303 190.03 257.363 189.48 257.363 188.72V176.84C257.363 176.08 257.303 175.53 257.183 175.19C257.063 174.85 256.833 174.62 256.493 174.5C256.173 174.38 255.653 174.3 254.933 174.26V173.66C256.833 173.72 259.633 173.75 263.333 173.75C266.133 173.75 268.123 173.72 269.303 173.66ZM281.027 173.24C282.867 173.24 284.477 173.61 285.857 174.35C287.257 175.07 288.337 176.14 289.097 177.56C289.857 178.96 290.237 180.64 290.237 182.6C290.237 184.52 289.837 186.22 289.037 187.7C288.257 189.16 287.167 190.3 285.767 191.12C284.367 191.92 282.777 192.32 280.997 192.32C279.157 192.32 277.537 191.96 276.137 191.24C274.757 190.5 273.687 189.43 272.927 188.03C272.167 186.61 271.787 184.92 271.787 182.96C271.787 181.04 272.177 179.35 272.957 177.89C273.757 176.41 274.857 175.27 276.257 174.47C277.657 173.65 279.247 173.24 281.027 173.24ZM280.907 173.78C279.687 173.78 278.607 174.17 277.667 174.95C276.747 175.71 276.037 176.78 275.537 178.16C275.037 179.52 274.787 181.08 274.787 182.84C274.787 184.62 275.067 186.19 275.627 187.55C276.187 188.91 276.947 189.96 277.907 190.7C278.867 191.42 279.937 191.78 281.117 191.78C282.337 191.78 283.407 191.4 284.327 190.64C285.267 189.86 285.987 188.79 286.487 187.43C286.987 186.05 287.237 184.48 287.237 182.72C287.237 180.94 286.957 179.37 286.397 178.01C285.837 176.65 285.077 175.61 284.117 174.89C283.157 174.15 282.087 173.78 280.907 173.78ZM310.514 190.64C310.134 191.18 309.694 191.6 309.194 191.9C308.714 192.18 308.134 192.32 307.454 192.32C305.774 192.32 304.744 191.56 304.364 190.04L303.434 186.29C303.154 185.17 302.734 184.42 302.174 184.04C301.634 183.66 300.824 183.47 299.744 183.47H298.034V188.72C298.034 189.48 298.094 190.03 298.214 190.37C298.334 190.71 298.554 190.94 298.874 191.06C299.214 191.18 299.744 191.26 300.464 191.3V191.9C299.544 191.84 298.274 191.81 296.654 191.81C294.934 191.81 293.654 191.84 292.814 191.9V191.3C293.534 191.26 294.054 191.18 294.374 191.06C294.714 190.94 294.944 190.71 295.064 190.37C295.184 190.03 295.244 189.48 295.244 188.72V176.84C295.244 176.08 295.184 175.53 295.064 175.19C294.944 174.85 294.714 174.62 294.374 174.5C294.054 174.38 293.534 174.3 292.814 174.26V173.66C293.654 173.72 294.874 173.75 296.474 173.75L299.534 173.72C299.874 173.7 300.264 173.69 300.704 173.69C302.944 173.69 304.654 174.11 305.834 174.95C307.034 175.79 307.634 176.88 307.634 178.22C307.634 179.38 307.164 180.44 306.224 181.4C305.304 182.36 303.784 182.97 301.664 183.23C302.064 183.27 302.404 183.31 302.684 183.35C303.744 183.51 304.584 183.83 305.204 184.31C305.824 184.79 306.264 185.56 306.524 186.62L307.184 189.35C307.344 190.05 307.514 190.55 307.694 190.85C307.894 191.13 308.144 191.27 308.444 191.27C308.944 191.27 309.494 190.93 310.094 190.25L310.514 190.64ZM299.954 174.26C299.414 174.26 299.004 174.33 298.724 174.47C298.464 174.61 298.284 174.86 298.184 175.22C298.084 175.58 298.034 176.12 298.034 176.84V182.87H300.044C301.804 182.87 303.004 182.5 303.644 181.76C304.304 181 304.634 179.93 304.634 178.55C304.634 177.11 304.264 176.04 303.524 175.34C302.804 174.62 301.614 174.26 299.954 174.26ZM334.545 174.26C333.825 174.3 333.295 174.38 332.955 174.5C332.635 174.62 332.415 174.85 332.295 175.19C332.175 175.53 332.115 176.08 332.115 176.84V188.72C332.115 189.48 332.175 190.03 332.295 190.37C332.415 190.71 332.635 190.94 332.955 191.06C333.295 191.18 333.825 191.26 334.545 191.3V191.9C333.625 191.84 332.355 191.81 330.735 191.81C329.015 191.81 327.735 191.84 326.895 191.9V191.3C327.615 191.26 328.135 191.18 328.455 191.06C328.795 190.94 329.025 190.71 329.145 190.37C329.265 190.03 329.325 189.48 329.325 188.72V175.55L322.095 192.05H321.615L314.655 175.58V188.42C314.655 189.2 314.715 189.78 314.835 190.16C314.975 190.54 315.235 190.82 315.615 191C315.995 191.16 316.585 191.26 317.385 191.3V191.9C316.665 191.84 315.645 191.81 314.325 191.81C313.125 191.81 312.195 191.84 311.535 191.9V191.3C312.235 191.26 312.755 191.16 313.095 191C313.435 190.82 313.665 190.54 313.785 190.16C313.905 189.76 313.965 189.18 313.965 188.42V176.84C313.965 176.08 313.905 175.53 313.785 175.19C313.665 174.85 313.435 174.62 313.095 174.5C312.775 174.38 312.255 174.3 311.535 174.26V173.66C312.195 173.72 313.125 173.75 314.325 173.75C315.285 173.75 316.135 173.72 316.875 173.66L322.905 188.27L329.325 173.75H330.735C332.355 173.75 333.625 173.72 334.545 173.66V174.26ZM352.292 189.38C352.832 190.62 353.522 191.26 354.362 191.3V191.9C353.562 191.84 352.492 191.81 351.152 191.81C349.432 191.81 348.152 191.84 347.312 191.9V191.3C348.052 191.26 348.592 191.16 348.932 191C349.292 190.84 349.472 190.57 349.472 190.19C349.472 189.87 349.332 189.4 349.052 188.78L347.522 185.36H340.232L339.212 187.61C338.872 188.39 338.702 189.03 338.702 189.53C338.702 190.05 338.882 190.46 339.242 190.76C339.622 191.04 340.222 191.22 341.042 191.3V191.9C340.442 191.84 339.532 191.81 338.312 191.81C337.092 191.81 336.222 191.84 335.702 191.9V191.3C336.242 191.16 336.702 190.86 337.082 190.4C337.462 189.92 337.822 189.29 338.162 188.51L344.792 173.51H345.272L352.292 189.38ZM347.282 184.76L343.892 177.14L340.472 184.76H347.282ZM370.841 173.66C370.701 174.98 370.631 176.16 370.631 177.2C370.631 178.24 370.661 179.06 370.721 179.66H370.031C369.911 178.26 369.721 177.19 369.461 176.45C369.201 175.71 368.781 175.18 368.201 174.86C367.621 174.52 366.791 174.35 365.711 174.35H363.791V188.42C363.791 189.26 363.871 189.87 364.031 190.25C364.191 190.63 364.471 190.89 364.871 191.03C365.271 191.17 365.921 191.26 366.821 191.3V191.9C365.781 191.84 364.311 191.81 362.411 191.81C360.411 191.81 358.931 191.84 357.971 191.9V191.3C358.871 191.26 359.521 191.17 359.921 191.03C360.321 190.89 360.601 190.63 360.761 190.25C360.921 189.87 361.001 189.26 361.001 188.42V174.35H359.081C358.001 174.35 357.171 174.52 356.591 174.86C356.011 175.18 355.591 175.71 355.331 176.45C355.071 177.19 354.881 178.26 354.761 179.66H354.071C354.131 179.02 354.161 178.2 354.161 177.2C354.161 176.16 354.091 174.98 353.951 173.66C355.611 173.72 358.431 173.75 362.411 173.75C366.371 173.75 369.181 173.72 370.841 173.66ZM380.767 174.26C380.047 174.3 379.517 174.38 379.177 174.5C378.857 174.62 378.637 174.85 378.517 175.19C378.397 175.53 378.337 176.08 378.337 176.84V188.72C378.337 189.48 378.397 190.03 378.517 190.37C378.637 190.71 378.857 190.94 379.177 191.06C379.517 191.18 380.047 191.26 380.767 191.3V191.9C379.847 191.84 378.577 191.81 376.957 191.81C375.237 191.81 373.957 191.84 373.117 191.9V191.3C373.837 191.26 374.357 191.18 374.677 191.06C375.017 190.94 375.247 190.71 375.367 190.37C375.487 190.03 375.547 189.48 375.547 188.72V176.84C375.547 176.08 375.487 175.53 375.367 175.19C375.247 174.85 375.017 174.62 374.677 174.5C374.357 174.38 373.837 174.3 373.117 174.26V173.66C373.957 173.72 375.237 173.75 376.957 173.75C378.557 173.75 379.827 173.72 380.767 173.66V174.26ZM392.589 173.24C394.429 173.24 396.039 173.61 397.419 174.35C398.819 175.07 399.899 176.14 400.659 177.56C401.419 178.96 401.799 180.64 401.799 182.6C401.799 184.52 401.399 186.22 400.599 187.7C399.819 189.16 398.729 190.3 397.329 191.12C395.929 191.92 394.339 192.32 392.559 192.32C390.719 192.32 389.099 191.96 387.699 191.24C386.319 190.5 385.249 189.43 384.489 188.03C383.729 186.61 383.349 184.92 383.349 182.96C383.349 181.04 383.739 179.35 384.519 177.89C385.319 176.41 386.419 175.27 387.819 174.47C389.219 173.65 390.809 173.24 392.589 173.24ZM392.469 173.78C391.249 173.78 390.169 174.17 389.229 174.95C388.309 175.71 387.599 176.78 387.099 178.16C386.599 179.52 386.349 181.08 386.349 182.84C386.349 184.62 386.629 186.19 387.189 187.55C387.749 188.91 388.509 189.96 389.469 190.7C390.429 191.42 391.499 191.78 392.679 191.78C393.899 191.78 394.969 191.4 395.889 190.64C396.829 189.86 397.549 188.79 398.049 187.43C398.549 186.05 398.799 184.48 398.799 182.72C398.799 180.94 398.519 179.37 397.959 178.01C397.399 176.65 396.639 175.61 395.679 174.89C394.719 174.15 393.649 173.78 392.469 173.78ZM422.617 174.26C421.917 174.3 421.397 174.41 421.057 174.59C420.717 174.75 420.487 175.03 420.367 175.43C420.247 175.81 420.187 176.38 420.187 177.14V192.05H419.497L407.497 175.43V188.42C407.497 189.2 407.557 189.78 407.677 190.16C407.817 190.54 408.077 190.82 408.457 191C408.837 191.16 409.427 191.26 410.227 191.3V191.9C409.507 191.84 408.487 191.81 407.167 191.81C405.967 191.81 405.037 191.84 404.377 191.9V191.3C405.077 191.26 405.597 191.16 405.937 191C406.277 190.82 406.507 190.54 406.627 190.16C406.747 189.76 406.807 189.18 406.807 188.42V176.84C406.807 176.08 406.747 175.53 406.627 175.19C406.507 174.85 406.277 174.62 405.937 174.5C405.617 174.38 405.097 174.3 404.377 174.26V173.66C405.037 173.72 405.967 173.75 407.167 173.75C408.247 173.75 409.167 173.72 409.927 173.66L419.497 186.98V177.14C419.497 176.36 419.427 175.78 419.287 175.4C419.167 175.02 418.917 174.75 418.537 174.59C418.157 174.41 417.567 174.3 416.767 174.26V173.66C417.487 173.72 418.507 173.75 419.827 173.75C421.027 173.75 421.957 173.72 422.617 173.66V174.26ZM431.07 173.24C431.95 173.24 432.64 173.34 433.14 173.54C433.66 173.72 434.19 173.99 434.73 174.35C435.17 174.63 435.51 174.77 435.75 174.77C435.93 174.77 436.07 174.67 436.17 174.47C436.27 174.25 436.35 173.91 436.41 173.45H437.1C437 174.49 436.95 176.33 436.95 178.97H436.26C436.14 177.53 435.67 176.31 434.85 175.31C434.05 174.31 432.88 173.81 431.34 173.81C430.28 173.81 429.4 174.09 428.7 174.65C428.02 175.21 427.68 175.92 427.68 176.78C427.68 177.4 427.83 177.94 428.13 178.4C428.45 178.86 428.85 179.26 429.33 179.6C429.83 179.92 430.53 180.32 431.43 180.8L432.42 181.34C433.66 182 434.65 182.59 435.39 183.11C436.15 183.63 436.76 184.23 437.22 184.91C437.68 185.57 437.91 186.34 437.91 187.22C437.91 188.84 437.32 190.1 436.14 191C434.98 191.88 433.52 192.32 431.76 192.32C430.8 192.32 430.01 192.22 429.39 192.02C428.79 191.82 428.21 191.55 427.65 191.21C427.21 190.93 426.87 190.79 426.63 190.79C426.45 190.79 426.31 190.9 426.21 191.12C426.11 191.32 426.03 191.65 425.97 192.11H425.28C425.36 191.13 425.4 188.93 425.4 185.51H426.09C426.23 187.37 426.73 188.87 427.59 190.01C428.45 191.15 429.77 191.72 431.55 191.72C432.55 191.72 433.41 191.44 434.13 190.88C434.87 190.3 435.24 189.45 435.24 188.33C435.24 187.67 435.05 187.09 434.67 186.59C434.29 186.07 433.78 185.61 433.14 185.21C432.5 184.81 431.61 184.31 430.47 183.71C428.83 182.87 427.58 182.03 426.72 181.19C425.86 180.35 425.43 179.26 425.43 177.92C425.43 176.44 425.97 175.29 427.05 174.47C428.15 173.65 429.49 173.24 431.07 173.24ZM454.595 173.24C455.475 173.24 456.165 173.34 456.665 173.54C457.185 173.72 457.715 173.99 458.255 174.35C458.695 174.63 459.035 174.77 459.275 174.77C459.455 174.77 459.595 174.67 459.695 174.47C459.795 174.25 459.875 173.91 459.935 173.45H460.625C460.525 174.49 460.475 176.33 460.475 178.97H459.785C459.665 177.53 459.195 176.31 458.375 175.31C457.575 174.31 456.405 173.81 454.865 173.81C453.805 173.81 452.925 174.09 452.225 174.65C451.545 175.21 451.205 175.92 451.205 176.78C451.205 177.4 451.355 177.94 451.655 178.4C451.975 178.86 452.375 179.26 452.855 179.6C453.355 179.92 454.055 180.32 454.955 180.8L455.945 181.34C457.185 182 458.175 182.59 458.915 183.11C459.675 183.63 460.285 184.23 460.745 184.91C461.205 185.57 461.435 186.34 461.435 187.22C461.435 188.84 460.845 190.1 459.665 191C458.505 191.88 457.045 192.32 455.285 192.32C454.325 192.32 453.535 192.22 452.915 192.02C452.315 191.82 451.735 191.55 451.175 191.21C450.735 190.93 450.395 190.79 450.155 190.79C449.975 190.79 449.835 190.9 449.735 191.12C449.635 191.32 449.555 191.65 449.495 192.11H448.805C448.885 191.13 448.925 188.93 448.925 185.51H449.615C449.755 187.37 450.255 188.87 451.115 190.01C451.975 191.15 453.295 191.72 455.075 191.72C456.075 191.72 456.935 191.44 457.655 190.88C458.395 190.3 458.765 189.45 458.765 188.33C458.765 187.67 458.575 187.09 458.195 186.59C457.815 186.07 457.305 185.61 456.665 185.21C456.025 184.81 455.135 184.31 453.995 183.71C452.355 182.87 451.105 182.03 450.245 181.19C449.385 180.35 448.955 179.26 448.955 177.92C448.955 176.44 449.495 175.29 450.575 174.47C451.675 173.65 453.015 173.24 454.595 173.24ZM481.96 174.26C481.26 174.3 480.74 174.41 480.4 174.59C480.06 174.75 479.83 175.03 479.71 175.43C479.59 175.81 479.53 176.38 479.53 177.14V183.77C479.53 185.15 479.43 186.33 479.23 187.31C479.05 188.27 478.74 189.11 478.3 189.83C477.82 190.59 477.12 191.2 476.2 191.66C475.3 192.1 474.27 192.32 473.11 192.32C471.05 192.32 469.47 191.88 468.37 191C467.49 190.22 466.9 189.33 466.6 188.33C466.3 187.33 466.15 185.84 466.15 183.86V176.84C466.15 176.08 466.09 175.53 465.97 175.19C465.85 174.85 465.62 174.62 465.28 174.5C464.96 174.38 464.44 174.3 463.72 174.26V173.66C464.56 173.72 465.84 173.75 467.56 173.75C469.16 173.75 470.43 173.72 471.37 173.66V174.26C470.65 174.3 470.12 174.38 469.78 174.5C469.46 174.62 469.24 174.85 469.12 175.19C469 175.53 468.94 176.08 468.94 176.84V184.37C468.94 185.85 469.04 187.08 469.24 188.06C469.44 189.02 469.86 189.8 470.5 190.4C471.16 190.98 472.12 191.27 473.38 191.27C475.38 191.27 476.79 190.64 477.61 189.38C478.43 188.12 478.84 186.36 478.84 184.1V177.14C478.84 176.06 478.64 175.32 478.24 174.92C477.86 174.52 477.15 174.3 476.11 174.26V173.66C476.83 173.72 477.85 173.75 479.17 173.75C480.37 173.75 481.3 173.72 481.96 173.66V174.26ZM501.676 190.64C501.296 191.18 500.856 191.6 500.356 191.9C499.876 192.18 499.296 192.32 498.616 192.32C496.936 192.32 495.906 191.56 495.526 190.04L494.596 186.29C494.316 185.17 493.896 184.42 493.336 184.04C492.796 183.66 491.986 183.47 490.906 183.47H489.196V188.72C489.196 189.48 489.256 190.03 489.376 190.37C489.496 190.71 489.716 190.94 490.036 191.06C490.376 191.18 490.906 191.26 491.626 191.3V191.9C490.706 191.84 489.436 191.81 487.816 191.81C486.096 191.81 484.816 191.84 483.976 191.9V191.3C484.696 191.26 485.216 191.18 485.536 191.06C485.876 190.94 486.106 190.71 486.226 190.37C486.346 190.03 486.406 189.48 486.406 188.72V176.84C486.406 176.08 486.346 175.53 486.226 175.19C486.106 174.85 485.876 174.62 485.536 174.5C485.216 174.38 484.696 174.3 483.976 174.26V173.66C484.816 173.72 486.036 173.75 487.636 173.75L490.696 173.72C491.036 173.7 491.426 173.69 491.866 173.69C494.106 173.69 495.816 174.11 496.996 174.95C498.196 175.79 498.796 176.88 498.796 178.22C498.796 179.38 498.326 180.44 497.386 181.4C496.466 182.36 494.946 182.97 492.826 183.23C493.226 183.27 493.566 183.31 493.846 183.35C494.906 183.51 495.746 183.83 496.366 184.31C496.986 184.79 497.426 185.56 497.686 186.62L498.346 189.35C498.506 190.05 498.676 190.55 498.856 190.85C499.056 191.13 499.306 191.27 499.606 191.27C500.106 191.27 500.656 190.93 501.256 190.25L501.676 190.64ZM491.116 174.26C490.576 174.26 490.166 174.33 489.886 174.47C489.626 174.61 489.446 174.86 489.346 175.22C489.246 175.58 489.196 176.12 489.196 176.84V182.87H491.206C492.966 182.87 494.166 182.5 494.806 181.76C495.466 181 495.796 179.93 495.796 178.55C495.796 177.11 495.426 176.04 494.686 175.34C493.966 174.62 492.776 174.26 491.116 174.26ZM517.466 174.26C516.746 174.3 516.216 174.38 515.876 174.5C515.556 174.62 515.336 174.85 515.216 175.19C515.096 175.53 515.036 176.08 515.036 176.84V188.72C515.036 189.48 515.096 190.03 515.216 190.37C515.336 190.71 515.556 190.94 515.876 191.06C516.216 191.16 516.746 191.21 517.466 191.21H519.356C520.736 191.21 521.806 190.8 522.566 189.98C523.346 189.16 523.816 187.8 523.976 185.9H524.666C524.606 186.52 524.576 187.34 524.576 188.36C524.576 189.4 524.646 190.58 524.786 191.9C523.486 191.84 521.296 191.81 518.216 191.81C514.516 191.81 511.716 191.84 509.816 191.9V191.3C510.536 191.26 511.056 191.18 511.376 191.06C511.716 190.94 511.946 190.71 512.066 190.37C512.186 190.03 512.246 189.48 512.246 188.72V176.84C512.246 176.08 512.186 175.53 512.066 175.19C511.946 174.85 511.716 174.62 511.376 174.5C511.056 174.38 510.536 174.3 509.816 174.26V173.66C510.656 173.72 511.936 173.75 513.656 173.75C515.256 173.75 516.526 173.72 517.466 173.66V174.26ZM541.773 188.36C541.773 189.4 541.843 190.58 541.983 191.9C540.683 191.84 538.493 191.81 535.413 191.81C531.713 191.81 528.913 191.84 527.013 191.9V191.3C527.733 191.26 528.253 191.18 528.573 191.06C528.913 190.94 529.143 190.71 529.263 190.37C529.383 190.03 529.443 189.48 529.443 188.72V176.84C529.443 176.08 529.383 175.53 529.263 175.19C529.143 174.85 528.913 174.62 528.573 174.5C528.253 174.38 527.733 174.3 527.013 174.26V173.66C528.913 173.72 531.713 173.75 535.413 173.75C538.213 173.75 540.203 173.72 541.383 173.66C541.243 174.86 541.173 175.94 541.173 176.9C541.173 177.68 541.203 178.3 541.263 178.76H540.573C540.433 177.12 540.083 175.98 539.523 175.34C538.983 174.68 538.093 174.35 536.853 174.35H534.663C533.943 174.35 533.413 174.41 533.073 174.53C532.753 174.63 532.533 174.85 532.413 175.19C532.293 175.53 532.233 176.08 532.233 176.84V182.42H534.723C535.363 182.42 535.853 182.26 536.193 181.94C536.533 181.6 536.763 181.24 536.883 180.86C537.003 180.46 537.113 179.96 537.213 179.36H537.903C537.843 180.04 537.813 180.78 537.813 181.58V182.72C537.813 183.5 537.873 184.62 537.993 186.08H537.303C537.183 185.12 536.953 184.37 536.613 183.83C536.273 183.29 535.643 183.02 534.723 183.02H532.233V188.72C532.233 189.48 532.293 190.03 532.413 190.37C532.533 190.71 532.753 190.94 533.073 191.06C533.413 191.16 533.943 191.21 534.663 191.21H536.853C537.853 191.21 538.643 191.05 539.223 190.73C539.803 190.41 540.243 189.9 540.543 189.2C540.843 188.48 541.053 187.48 541.173 186.2H541.863C541.803 186.74 541.773 187.46 541.773 188.36ZM558.746 173.24C559.626 173.24 560.316 173.34 560.816 173.54C561.336 173.72 561.866 173.99 562.406 174.35C562.846 174.63 563.186 174.77 563.426 174.77C563.606 174.77 563.746 174.67 563.846 174.47C563.946 174.25 564.026 173.91 564.086 173.45H564.776C564.676 174.49 564.626 176.33 564.626 178.97H563.936C563.816 177.53 563.346 176.31 562.526 175.31C561.726 174.31 560.556 173.81 559.016 173.81C557.956 173.81 557.076 174.09 556.376 174.65C555.696 175.21 555.356 175.92 555.356 176.78C555.356 177.4 555.506 177.94 555.806 178.4C556.126 178.86 556.526 179.26 557.006 179.6C557.506 179.92 558.206 180.32 559.106 180.8L560.096 181.34C561.336 182 562.326 182.59 563.066 183.11C563.826 183.63 564.436 184.23 564.896 184.91C565.356 185.57 565.586 186.34 565.586 187.22C565.586 188.84 564.996 190.1 563.816 191C562.656 191.88 561.196 192.32 559.436 192.32C558.476 192.32 557.686 192.22 557.066 192.02C556.466 191.82 555.886 191.55 555.326 191.21C554.886 190.93 554.546 190.79 554.306 190.79C554.126 190.79 553.986 190.9 553.886 191.12C553.786 191.32 553.706 191.65 553.646 192.11H552.956C553.036 191.13 553.076 188.93 553.076 185.51H553.766C553.906 187.37 554.406 188.87 555.266 190.01C556.126 191.15 557.446 191.72 559.226 191.72C560.226 191.72 561.086 191.44 561.806 190.88C562.546 190.3 562.916 189.45 562.916 188.33C562.916 187.67 562.726 187.09 562.346 186.59C561.966 186.07 561.456 185.61 560.816 185.21C560.176 184.81 559.286 184.31 558.146 183.71C556.506 182.87 555.256 182.03 554.396 181.19C553.536 180.35 553.106 179.26 553.106 177.92C553.106 176.44 553.646 175.29 554.726 174.47C555.826 173.65 557.166 173.24 558.746 173.24ZM573.601 184.52V188.72C573.601 189.48 573.661 190.03 573.781 190.37C573.901 190.71 574.121 190.94 574.441 191.06C574.781 191.18 575.311 191.26 576.031 191.3V191.9C575.111 191.84 573.841 191.81 572.221 191.81C570.501 191.81 569.221 191.84 568.381 191.9V191.3C569.101 191.26 569.621 191.18 569.941 191.06C570.281 190.94 570.511 190.71 570.631 190.37C570.751 190.03 570.811 189.48 570.811 188.72V176.84C570.811 176.08 570.751 175.53 570.631 175.19C570.511 174.85 570.281 174.62 569.941 174.5C569.621 174.38 569.101 174.3 568.381 174.26V173.66C569.221 173.72 570.441 173.75 572.041 173.75L575.281 173.72C575.661 173.7 576.091 173.69 576.571 173.69C578.711 173.69 580.351 174.15 581.491 175.07C582.631 175.97 583.201 177.18 583.201 178.7C583.201 179.66 582.961 180.58 582.481 181.46C582.021 182.34 581.221 183.07 580.081 183.65C578.961 184.23 577.471 184.52 575.611 184.52H573.601ZM575.821 174.26C575.201 174.26 574.731 174.33 574.411 174.47C574.111 174.61 573.901 174.86 573.781 175.22C573.661 175.58 573.601 176.12 573.601 176.84V183.92H575.311C577.151 183.92 578.421 183.48 579.121 182.6C579.841 181.72 580.201 180.53 580.201 179.03C580.201 177.41 579.861 176.21 579.181 175.43C578.501 174.65 577.381 174.26 575.821 174.26ZM594.943 173.24C596.783 173.24 598.393 173.61 599.773 174.35C601.173 175.07 602.253 176.14 603.013 177.56C603.773 178.96 604.153 180.64 604.153 182.6C604.153 184.52 603.753 186.22 602.953 187.7C602.173 189.16 601.083 190.3 599.683 191.12C598.283 191.92 596.693 192.32 594.913 192.32C593.073 192.32 591.453 191.96 590.053 191.24C588.673 190.5 587.603 189.43 586.843 188.03C586.083 186.61 585.703 184.92 585.703 182.96C585.703 181.04 586.093 179.35 586.873 177.89C587.673 176.41 588.773 175.27 590.173 174.47C591.573 173.65 593.163 173.24 594.943 173.24ZM594.823 173.78C593.603 173.78 592.523 174.17 591.583 174.95C590.663 175.71 589.953 176.78 589.453 178.16C588.953 179.52 588.703 181.08 588.703 182.84C588.703 184.62 588.983 186.19 589.543 187.55C590.103 188.91 590.863 189.96 591.823 190.7C592.783 191.42 593.853 191.78 595.033 191.78C596.253 191.78 597.323 191.4 598.243 190.64C599.183 189.86 599.903 188.79 600.403 187.43C600.903 186.05 601.153 184.48 601.153 182.72C601.153 180.94 600.873 179.37 600.313 178.01C599.753 176.65 598.993 175.61 598.033 174.89C597.073 174.15 596.003 173.78 594.823 173.78ZM624.43 190.64C624.05 191.18 623.61 191.6 623.11 191.9C622.63 192.18 622.05 192.32 621.37 192.32C619.69 192.32 618.66 191.56 618.28 190.04L617.35 186.29C617.07 185.17 616.65 184.42 616.09 184.04C615.55 183.66 614.74 183.47 613.66 183.47H611.95V188.72C611.95 189.48 612.01 190.03 612.13 190.37C612.25 190.71 612.47 190.94 612.79 191.06C613.13 191.18 613.66 191.26 614.38 191.3V191.9C613.46 191.84 612.19 191.81 610.57 191.81C608.85 191.81 607.57 191.84 606.73 191.9V191.3C607.45 191.26 607.97 191.18 608.29 191.06C608.63 190.94 608.86 190.71 608.98 190.37C609.1 190.03 609.16 189.48 609.16 188.72V176.84C609.16 176.08 609.1 175.53 608.98 175.19C608.86 174.85 608.63 174.62 608.29 174.5C607.97 174.38 607.45 174.3 606.73 174.26V173.66C607.57 173.72 608.79 173.75 610.39 173.75L613.45 173.72C613.79 173.7 614.18 173.69 614.62 173.69C616.86 173.69 618.57 174.11 619.75 174.95C620.95 175.79 621.55 176.88 621.55 178.22C621.55 179.38 621.08 180.44 620.14 181.4C619.22 182.36 617.7 182.97 615.58 183.23C615.98 183.27 616.32 183.31 616.6 183.35C617.66 183.51 618.5 183.83 619.12 184.31C619.74 184.79 620.18 185.56 620.44 186.62L621.1 189.35C621.26 190.05 621.43 190.55 621.61 190.85C621.81 191.13 622.06 191.27 622.36 191.27C622.86 191.27 623.41 190.93 624.01 190.25L624.43 190.64ZM613.87 174.26C613.33 174.26 612.92 174.33 612.64 174.47C612.38 174.61 612.2 174.86 612.1 175.22C612 175.58 611.95 176.12 611.95 176.84V182.87H613.96C615.72 182.87 616.92 182.5 617.56 181.76C618.22 181 618.55 179.93 618.55 178.55C618.55 177.11 618.18 176.04 617.44 175.34C616.72 174.62 615.53 174.26 613.87 174.26ZM641.954 173.66C641.814 174.98 641.744 176.16 641.744 177.2C641.744 178.24 641.774 179.06 641.834 179.66H641.144C641.024 178.26 640.834 177.19 640.574 176.45C640.314 175.71 639.894 175.18 639.314 174.86C638.734 174.52 637.904 174.35 636.824 174.35H634.904V188.42C634.904 189.26 634.984 189.87 635.144 190.25C635.304 190.63 635.584 190.89 635.984 191.03C636.384 191.17 637.034 191.26 637.934 191.3V191.9C636.894 191.84 635.424 191.81 633.524 191.81C631.524 191.81 630.044 191.84 629.084 191.9V191.3C629.984 191.26 630.634 191.17 631.034 191.03C631.434 190.89 631.714 190.63 631.874 190.25C632.034 189.87 632.114 189.26 632.114 188.42V174.35H630.194C629.114 174.35 628.284 174.52 627.704 174.86C627.124 175.18 626.704 175.71 626.444 176.45C626.184 177.19 625.994 178.26 625.874 179.66H625.184C625.244 179.02 625.274 178.2 625.274 177.2C625.274 176.16 625.204 174.98 625.064 173.66C626.724 173.72 629.544 173.75 633.524 173.75C637.484 173.75 640.294 173.72 641.954 173.66ZM129.18 213.24C130.06 213.24 130.75 213.34 131.25 213.54C131.77 213.72 132.3 213.99 132.84 214.35C133.28 214.63 133.62 214.77 133.86 214.77C134.04 214.77 134.18 214.67 134.28 214.47C134.38 214.25 134.46 213.91 134.52 213.45H135.21C135.11 214.49 135.06 216.33 135.06 218.97H134.37C134.25 217.53 133.78 216.31 132.96 215.31C132.16 214.31 130.99 213.81 129.45 213.81C128.39 213.81 127.51 214.09 126.81 214.65C126.13 215.21 125.79 215.92 125.79 216.78C125.79 217.4 125.94 217.94 126.24 218.4C126.56 218.86 126.96 219.26 127.44 219.6C127.94 219.92 128.64 220.32 129.54 220.8L130.53 221.34C131.77 222 132.76 222.59 133.5 223.11C134.26 223.63 134.87 224.23 135.33 224.91C135.79 225.57 136.02 226.34 136.02 227.22C136.02 228.84 135.43 230.1 134.25 231C133.09 231.88 131.63 232.32 129.87 232.32C128.91 232.32 128.12 232.22 127.5 232.02C126.9 231.82 126.32 231.55 125.76 231.21C125.32 230.93 124.98 230.79 124.74 230.79C124.56 230.79 124.42 230.9 124.32 231.12C124.22 231.32 124.14 231.65 124.08 232.11H123.39C123.47 231.13 123.51 228.93 123.51 225.51H124.2C124.34 227.37 124.84 228.87 125.7 230.01C126.56 231.15 127.88 231.72 129.66 231.72C130.66 231.72 131.52 231.44 132.24 230.88C132.98 230.3 133.35 229.45 133.35 228.33C133.35 227.67 133.16 227.09 132.78 226.59C132.4 226.07 131.89 225.61 131.25 225.21C130.61 224.81 129.72 224.31 128.58 223.71C126.94 222.87 125.69 222.03 124.83 221.19C123.97 220.35 123.54 219.26 123.54 217.92C123.54 216.44 124.08 215.29 125.16 214.47C126.26 213.65 127.6 213.24 129.18 213.24ZM148.385 213.24C150.225 213.24 151.835 213.61 153.215 214.35C154.615 215.07 155.695 216.14 156.455 217.56C157.215 218.96 157.595 220.64 157.595 222.6C157.595 224.52 157.195 226.22 156.395 227.7C155.615 229.16 154.525 230.3 153.125 231.12C151.725 231.92 150.135 232.32 148.355 232.32C146.515 232.32 144.895 231.96 143.495 231.24C142.115 230.5 141.045 229.43 140.285 228.03C139.525 226.61 139.145 224.92 139.145 222.96C139.145 221.04 139.535 219.35 140.315 217.89C141.115 216.41 142.215 215.27 143.615 214.47C145.015 213.65 146.605 213.24 148.385 213.24ZM148.265 213.78C147.045 213.78 145.965 214.17 145.025 214.95C144.105 215.71 143.395 216.78 142.895 218.16C142.395 219.52 142.145 221.08 142.145 222.84C142.145 224.62 142.425 226.19 142.985 227.55C143.545 228.91 144.305 229.96 145.265 230.7C146.225 231.42 147.295 231.78 148.475 231.78C149.695 231.78 150.765 231.4 151.685 230.64C152.625 229.86 153.345 228.79 153.845 227.43C154.345 226.05 154.595 224.48 154.595 222.72C154.595 220.94 154.315 219.37 153.755 218.01C153.195 216.65 152.435 215.61 151.475 214.89C150.515 214.15 149.445 213.78 148.265 213.78ZM178.413 214.26C177.713 214.3 177.193 214.41 176.853 214.59C176.513 214.75 176.283 215.03 176.163 215.43C176.043 215.81 175.983 216.38 175.983 217.14V232.05H175.293L163.293 215.43V228.42C163.293 229.2 163.353 229.78 163.473 230.16C163.613 230.54 163.873 230.82 164.253 231C164.633 231.16 165.223 231.26 166.023 231.3V231.9C165.303 231.84 164.283 231.81 162.963 231.81C161.763 231.81 160.833 231.84 160.173 231.9V231.3C160.873 231.26 161.393 231.16 161.733 231C162.073 230.82 162.303 230.54 162.423 230.16C162.543 229.76 162.603 229.18 162.603 228.42V216.84C162.603 216.08 162.543 215.53 162.423 215.19C162.303 214.85 162.073 214.62 161.733 214.5C161.413 214.38 160.893 214.3 160.173 214.26V213.66C160.833 213.72 161.763 213.75 162.963 213.75C164.043 213.75 164.963 213.72 165.723 213.66L175.293 226.98V217.14C175.293 216.36 175.223 215.78 175.083 215.4C174.963 215.02 174.713 214.75 174.333 214.59C173.953 214.41 173.363 214.3 172.563 214.26V213.66C173.283 213.72 174.303 213.75 175.623 213.75C176.823 213.75 177.753 213.72 178.413 213.66V214.26ZM197.36 213.66C197.22 214.98 197.15 216.16 197.15 217.2C197.15 218.24 197.18 219.06 197.24 219.66H196.55C196.43 218.26 196.24 217.19 195.98 216.45C195.72 215.71 195.3 215.18 194.72 214.86C194.14 214.52 193.31 214.35 192.23 214.35H190.31V228.42C190.31 229.26 190.39 229.87 190.55 230.25C190.71 230.63 190.99 230.89 191.39 231.03C191.79 231.17 192.44 231.26 193.34 231.3V231.9C192.3 231.84 190.83 231.81 188.93 231.81C186.93 231.81 185.45 231.84 184.49 231.9V231.3C185.39 231.26 186.04 231.17 186.44 231.03C186.84 230.89 187.12 230.63 187.28 230.25C187.44 229.87 187.52 229.26 187.52 228.42V214.35H185.6C184.52 214.35 183.69 214.52 183.11 214.86C182.53 215.18 182.11 215.71 181.85 216.45C181.59 217.19 181.4 218.26 181.28 219.66H180.59C180.65 219.02 180.68 218.2 180.68 217.2C180.68 216.16 180.61 214.98 180.47 213.66C182.13 213.72 184.95 213.75 188.93 213.75C192.89 213.75 195.7 213.72 197.36 213.66ZM229.442 214.26C228.722 214.3 228.192 214.38 227.852 214.5C227.532 214.62 227.312 214.85 227.192 215.19C227.072 215.53 227.012 216.08 227.012 216.84V228.72C227.012 229.48 227.072 230.03 227.192 230.37C227.312 230.71 227.532 230.94 227.852 231.06C228.192 231.18 228.722 231.26 229.442 231.3V231.9C228.522 231.84 227.252 231.81 225.632 231.81C223.912 231.81 222.632 231.84 221.792 231.9V231.3C222.512 231.26 223.032 231.18 223.352 231.06C223.692 230.94 223.922 230.71 224.042 230.37C224.162 230.03 224.222 229.48 224.222 228.72V215.55L216.992 232.05H216.512L209.552 215.58V228.42C209.552 229.2 209.612 229.78 209.732 230.16C209.872 230.54 210.132 230.82 210.512 231C210.892 231.16 211.482 231.26 212.282 231.3V231.9C211.562 231.84 210.542 231.81 209.222 231.81C208.022 231.81 207.092 231.84 206.432 231.9V231.3C207.132 231.26 207.652 231.16 207.992 231C208.332 230.82 208.562 230.54 208.682 230.16C208.802 229.76 208.862 229.18 208.862 228.42V216.84C208.862 216.08 208.802 215.53 208.682 215.19C208.562 214.85 208.332 214.62 207.992 214.5C207.672 214.38 207.152 214.3 206.432 214.26V213.66C207.092 213.72 208.022 213.75 209.222 213.75C210.182 213.75 211.032 213.72 211.772 213.66L217.802 228.27L224.222 213.75H225.632C227.252 213.75 228.522 213.72 229.442 213.66V214.26ZM247.19 229.38C247.73 230.62 248.42 231.26 249.26 231.3V231.9C248.46 231.84 247.39 231.81 246.05 231.81C244.33 231.81 243.05 231.84 242.21 231.9V231.3C242.95 231.26 243.49 231.16 243.83 231C244.19 230.84 244.37 230.57 244.37 230.19C244.37 229.87 244.23 229.4 243.95 228.78L242.42 225.36H235.13L234.11 227.61C233.77 228.39 233.6 229.03 233.6 229.53C233.6 230.05 233.78 230.46 234.14 230.76C234.52 231.04 235.12 231.22 235.94 231.3V231.9C235.34 231.84 234.43 231.81 233.21 231.81C231.99 231.81 231.12 231.84 230.6 231.9V231.3C231.14 231.16 231.6 230.86 231.98 230.4C232.36 229.92 232.72 229.29 233.06 228.51L239.69 213.51H240.17L247.19 229.38ZM242.18 224.76L238.79 217.14L235.37 224.76H242.18ZM258.086 214.26C257.366 214.3 256.836 214.38 256.496 214.5C256.176 214.62 255.956 214.85 255.836 215.19C255.716 215.53 255.656 216.08 255.656 216.84V228.72C255.656 229.48 255.716 230.03 255.836 230.37C255.956 230.71 256.176 230.94 256.496 231.06C256.836 231.18 257.366 231.26 258.086 231.3V231.9C257.166 231.84 255.896 231.81 254.276 231.81C252.556 231.81 251.276 231.84 250.436 231.9V231.3C251.156 231.26 251.676 231.18 251.996 231.06C252.336 230.94 252.566 230.71 252.686 230.37C252.806 230.03 252.866 229.48 252.866 228.72V216.84C252.866 216.08 252.806 215.53 252.686 215.19C252.566 214.85 252.336 214.62 251.996 214.5C251.676 214.38 251.156 214.3 250.436 214.26V213.66C251.276 213.72 252.556 213.75 254.276 213.75C255.876 213.75 257.146 213.72 258.086 213.66V214.26ZM278.842 214.26C278.142 214.3 277.622 214.41 277.282 214.59C276.942 214.75 276.712 215.03 276.592 215.43C276.472 215.81 276.412 216.38 276.412 217.14V232.05H275.722L263.722 215.43V228.42C263.722 229.2 263.782 229.78 263.902 230.16C264.042 230.54 264.302 230.82 264.682 231C265.062 231.16 265.652 231.26 266.452 231.3V231.9C265.732 231.84 264.712 231.81 263.392 231.81C262.192 231.81 261.262 231.84 260.602 231.9V231.3C261.302 231.26 261.822 231.16 262.162 231C262.502 230.82 262.732 230.54 262.852 230.16C262.972 229.76 263.032 229.18 263.032 228.42V216.84C263.032 216.08 262.972 215.53 262.852 215.19C262.732 214.85 262.502 214.62 262.162 214.5C261.842 214.38 261.322 214.3 260.602 214.26V213.66C261.262 213.72 262.192 213.75 263.392 213.75C264.472 213.75 265.392 213.72 266.152 213.66L275.722 226.98V217.14C275.722 216.36 275.652 215.78 275.512 215.4C275.392 215.02 275.142 214.75 274.762 214.59C274.382 214.41 273.792 214.3 272.992 214.26V213.66C273.712 213.72 274.732 213.75 276.052 213.75C277.252 213.75 278.182 213.72 278.842 213.66V214.26ZM297.789 213.66C297.649 214.98 297.579 216.16 297.579 217.2C297.579 218.24 297.609 219.06 297.669 219.66H296.979C296.859 218.26 296.669 217.19 296.409 216.45C296.149 215.71 295.729 215.18 295.149 214.86C294.569 214.52 293.739 214.35 292.659 214.35H290.739V228.42C290.739 229.26 290.819 229.87 290.979 230.25C291.139 230.63 291.419 230.89 291.819 231.03C292.219 231.17 292.869 231.26 293.769 231.3V231.9C292.729 231.84 291.259 231.81 289.359 231.81C287.359 231.81 285.879 231.84 284.919 231.9V231.3C285.819 231.26 286.469 231.17 286.869 231.03C287.269 230.89 287.549 230.63 287.709 230.25C287.869 229.87 287.949 229.26 287.949 228.42V214.35H286.029C284.949 214.35 284.119 214.52 283.539 214.86C282.959 215.18 282.539 215.71 282.279 216.45C282.019 217.19 281.829 218.26 281.709 219.66H281.019C281.079 219.02 281.109 218.2 281.109 217.2C281.109 216.16 281.039 214.98 280.899 213.66C282.559 213.72 285.379 213.75 289.359 213.75C293.319 213.75 296.129 213.72 297.789 213.66ZM314.825 228.36C314.825 229.4 314.895 230.58 315.035 231.9C313.735 231.84 311.545 231.81 308.465 231.81C304.765 231.81 301.965 231.84 300.065 231.9V231.3C300.785 231.26 301.305 231.18 301.625 231.06C301.965 230.94 302.195 230.71 302.315 230.37C302.435 230.03 302.495 229.48 302.495 228.72V216.84C302.495 216.08 302.435 215.53 302.315 215.19C302.195 214.85 301.965 214.62 301.625 214.5C301.305 214.38 300.785 214.3 300.065 214.26V213.66C301.965 213.72 304.765 213.75 308.465 213.75C311.265 213.75 313.255 213.72 314.435 213.66C314.295 214.86 314.225 215.94 314.225 216.9C314.225 217.68 314.255 218.3 314.315 218.76H313.625C313.485 217.12 313.135 215.98 312.575 215.34C312.035 214.68 311.145 214.35 309.905 214.35H307.715C306.995 214.35 306.465 214.41 306.125 214.53C305.805 214.63 305.585 214.85 305.465 215.19C305.345 215.53 305.285 216.08 305.285 216.84V222.42H307.775C308.415 222.42 308.905 222.26 309.245 221.94C309.585 221.6 309.815 221.24 309.935 220.86C310.055 220.46 310.165 219.96 310.265 219.36H310.955C310.895 220.04 310.865 220.78 310.865 221.58V222.72C310.865 223.5 310.925 224.62 311.045 226.08H310.355C310.235 225.12 310.005 224.37 309.665 223.83C309.325 223.29 308.695 223.02 307.775 223.02H305.285V228.72C305.285 229.48 305.345 230.03 305.465 230.37C305.585 230.71 305.805 230.94 306.125 231.06C306.465 231.16 306.995 231.21 307.715 231.21H309.905C310.905 231.21 311.695 231.05 312.275 230.73C312.855 230.41 313.295 229.9 313.595 229.2C313.895 228.48 314.105 227.48 314.225 226.2H314.915C314.855 226.74 314.825 227.46 314.825 228.36ZM336.147 214.26C335.447 214.3 334.927 214.41 334.587 214.59C334.247 214.75 334.017 215.03 333.897 215.43C333.777 215.81 333.717 216.38 333.717 217.14V232.05H333.027L321.027 215.43V228.42C321.027 229.2 321.087 229.78 321.207 230.16C321.347 230.54 321.607 230.82 321.987 231C322.367 231.16 322.957 231.26 323.757 231.3V231.9C323.037 231.84 322.017 231.81 320.697 231.81C319.497 231.81 318.567 231.84 317.907 231.9V231.3C318.607 231.26 319.127 231.16 319.467 231C319.807 230.82 320.037 230.54 320.157 230.16C320.277 229.76 320.337 229.18 320.337 228.42V216.84C320.337 216.08 320.277 215.53 320.157 215.19C320.037 214.85 319.807 214.62 319.467 214.5C319.147 214.38 318.627 214.3 317.907 214.26V213.66C318.567 213.72 319.497 213.75 320.697 213.75C321.777 213.75 322.697 213.72 323.457 213.66L333.027 226.98V217.14C333.027 216.36 332.957 215.78 332.817 215.4C332.697 215.02 332.447 214.75 332.067 214.59C331.687 214.41 331.097 214.3 330.297 214.26V213.66C331.017 213.72 332.037 213.75 333.357 213.75C334.557 213.75 335.487 213.72 336.147 213.66V214.26ZM352.571 229.38C353.111 230.62 353.801 231.26 354.641 231.3V231.9C353.841 231.84 352.771 231.81 351.431 231.81C349.711 231.81 348.431 231.84 347.591 231.9V231.3C348.331 231.26 348.871 231.16 349.211 231C349.571 230.84 349.751 230.57 349.751 230.19C349.751 229.87 349.611 229.4 349.331 228.78L347.801 225.36H340.511L339.491 227.61C339.151 228.39 338.981 229.03 338.981 229.53C338.981 230.05 339.161 230.46 339.521 230.76C339.901 231.04 340.501 231.22 341.321 231.3V231.9C340.721 231.84 339.811 231.81 338.591 231.81C337.371 231.81 336.501 231.84 335.981 231.9V231.3C336.521 231.16 336.981 230.86 337.361 230.4C337.741 229.92 338.101 229.29 338.441 228.51L345.071 213.51H345.551L352.571 229.38ZM347.561 224.76L344.171 217.14L340.751 224.76H347.561ZM374.057 214.26C373.357 214.3 372.837 214.41 372.497 214.59C372.157 214.75 371.927 215.03 371.807 215.43C371.687 215.81 371.627 216.38 371.627 217.14V232.05H370.937L358.937 215.43V228.42C358.937 229.2 358.997 229.78 359.117 230.16C359.257 230.54 359.517 230.82 359.897 231C360.277 231.16 360.867 231.26 361.667 231.3V231.9C360.947 231.84 359.927 231.81 358.607 231.81C357.407 231.81 356.477 231.84 355.817 231.9V231.3C356.517 231.26 357.037 231.16 357.377 231C357.717 230.82 357.947 230.54 358.067 230.16C358.187 229.76 358.247 229.18 358.247 228.42V216.84C358.247 216.08 358.187 215.53 358.067 215.19C357.947 214.85 357.717 214.62 357.377 214.5C357.057 214.38 356.537 214.3 355.817 214.26V213.66C356.477 213.72 357.407 213.75 358.607 213.75C359.687 213.75 360.607 213.72 361.367 213.66L370.937 226.98V217.14C370.937 216.36 370.867 215.78 370.727 215.4C370.607 215.02 370.357 214.75 369.977 214.59C369.597 214.41 369.007 214.3 368.207 214.26V213.66C368.927 213.72 369.947 213.75 371.267 213.75C372.467 213.75 373.397 213.72 374.057 213.66V214.26ZM393.004 213.66C392.864 214.98 392.794 216.16 392.794 217.2C392.794 218.24 392.824 219.06 392.884 219.66H392.194C392.074 218.26 391.884 217.19 391.624 216.45C391.364 215.71 390.944 215.18 390.364 214.86C389.784 214.52 388.954 214.35 387.874 214.35H385.954V228.42C385.954 229.26 386.034 229.87 386.194 230.25C386.354 230.63 386.634 230.89 387.034 231.03C387.434 231.17 388.084 231.26 388.984 231.3V231.9C387.944 231.84 386.474 231.81 384.574 231.81C382.574 231.81 381.094 231.84 380.134 231.9V231.3C381.034 231.26 381.684 231.17 382.084 231.03C382.484 230.89 382.764 230.63 382.924 230.25C383.084 229.87 383.164 229.26 383.164 228.42V214.35H381.244C380.164 214.35 379.334 214.52 378.754 214.86C378.174 215.18 377.754 215.71 377.494 216.45C377.234 217.19 377.044 218.26 376.924 219.66H376.234C376.294 219.02 376.324 218.2 376.324 217.2C376.324 216.16 376.254 214.98 376.114 213.66C377.774 213.72 380.594 213.75 384.574 213.75C388.534 213.75 391.344 213.72 393.004 213.66ZM410.267 213.66C413.387 213.66 415.727 214.42 417.287 215.94C418.867 217.44 419.657 219.64 419.657 222.54C419.657 224.42 419.277 226.07 418.517 227.49C417.757 228.89 416.647 229.98 415.187 230.76C413.747 231.52 412.017 231.9 409.997 231.9L408.257 231.87C407.137 231.83 406.317 231.81 405.797 231.81C404.157 231.81 402.917 231.84 402.077 231.9V231.3C402.797 231.26 403.317 231.18 403.637 231.06C403.977 230.94 404.207 230.71 404.327 230.37C404.447 230.03 404.507 229.48 404.507 228.72V216.84C404.507 216.08 404.447 215.53 404.327 215.19C404.207 214.85 403.977 214.62 403.637 214.5C403.317 214.38 402.797 214.3 402.077 214.26V213.66C402.777 213.72 403.747 213.75 404.987 213.75L407.537 213.72C408.897 213.68 409.807 213.66 410.267 213.66ZM409.517 214.2C408.897 214.2 408.427 214.27 408.107 214.41C407.807 214.55 407.597 214.8 407.477 215.16C407.357 215.52 407.297 216.06 407.297 216.78V228.78C407.297 229.5 407.357 230.04 407.477 230.4C407.597 230.76 407.807 231.01 408.107 231.15C408.427 231.29 408.907 231.36 409.547 231.36C411.367 231.36 412.797 231.04 413.837 230.4C414.877 229.74 415.607 228.78 416.027 227.52C416.447 226.26 416.657 224.64 416.657 222.66C416.657 219.74 416.117 217.6 415.037 216.24C413.957 214.88 412.117 214.2 409.517 214.2ZM429.942 214.26C429.222 214.3 428.692 214.38 428.352 214.5C428.032 214.62 427.812 214.85 427.692 215.19C427.572 215.53 427.512 216.08 427.512 216.84V228.72C427.512 229.48 427.572 230.03 427.692 230.37C427.812 230.71 428.032 230.94 428.352 231.06C428.692 231.18 429.222 231.26 429.942 231.3V231.9C429.022 231.84 427.752 231.81 426.132 231.81C424.412 231.81 423.132 231.84 422.292 231.9V231.3C423.012 231.26 423.532 231.18 423.852 231.06C424.192 230.94 424.422 230.71 424.542 230.37C424.662 230.03 424.722 229.48 424.722 228.72V216.84C424.722 216.08 424.662 215.53 424.542 215.19C424.422 214.85 424.192 214.62 423.852 214.5C423.532 214.38 423.012 214.3 422.292 214.26V213.66C423.132 213.72 424.412 213.75 426.132 213.75C427.732 213.75 429.002 213.72 429.942 213.66V214.26ZM438.878 213.24C439.758 213.24 440.448 213.34 440.948 213.54C441.468 213.72 441.998 213.99 442.538 214.35C442.978 214.63 443.318 214.77 443.558 214.77C443.738 214.77 443.878 214.67 443.978 214.47C444.078 214.25 444.158 213.91 444.218 213.45H444.908C444.808 214.49 444.758 216.33 444.758 218.97H444.068C443.948 217.53 443.478 216.31 442.658 215.31C441.858 214.31 440.688 213.81 439.148 213.81C438.088 213.81 437.208 214.09 436.508 214.65C435.828 215.21 435.488 215.92 435.488 216.78C435.488 217.4 435.638 217.94 435.938 218.4C436.258 218.86 436.658 219.26 437.138 219.6C437.638 219.92 438.338 220.32 439.238 220.8L440.228 221.34C441.468 222 442.458 222.59 443.198 223.11C443.958 223.63 444.568 224.23 445.028 224.91C445.488 225.57 445.718 226.34 445.718 227.22C445.718 228.84 445.128 230.1 443.948 231C442.788 231.88 441.328 232.32 439.568 232.32C438.608 232.32 437.818 232.22 437.198 232.02C436.598 231.82 436.018 231.55 435.458 231.21C435.018 230.93 434.678 230.79 434.438 230.79C434.258 230.79 434.118 230.9 434.018 231.12C433.918 231.32 433.838 231.65 433.778 232.11H433.088C433.168 231.13 433.208 228.93 433.208 225.51H433.898C434.038 227.37 434.538 228.87 435.398 230.01C436.258 231.15 437.578 231.72 439.358 231.72C440.358 231.72 441.218 231.44 441.938 230.88C442.678 230.3 443.048 229.45 443.048 228.33C443.048 227.67 442.858 227.09 442.478 226.59C442.098 226.07 441.588 225.61 440.948 225.21C440.308 224.81 439.418 224.31 438.278 223.71C436.638 222.87 435.388 222.03 434.528 221.19C433.668 220.35 433.238 219.26 433.238 217.92C433.238 216.44 433.778 215.29 434.858 214.47C435.958 213.65 437.298 213.24 438.878 213.24ZM453.732 224.52V228.72C453.732 229.48 453.792 230.03 453.912 230.37C454.032 230.71 454.252 230.94 454.572 231.06C454.912 231.18 455.442 231.26 456.162 231.3V231.9C455.242 231.84 453.972 231.81 452.352 231.81C450.632 231.81 449.352 231.84 448.512 231.9V231.3C449.232 231.26 449.752 231.18 450.072 231.06C450.412 230.94 450.642 230.71 450.762 230.37C450.882 230.03 450.942 229.48 450.942 228.72V216.84C450.942 216.08 450.882 215.53 450.762 215.19C450.642 214.85 450.412 214.62 450.072 214.5C449.752 214.38 449.232 214.3 448.512 214.26V213.66C449.352 213.72 450.572 213.75 452.172 213.75L455.412 213.72C455.792 213.7 456.222 213.69 456.702 213.69C458.842 213.69 460.482 214.15 461.622 215.07C462.762 215.97 463.332 217.18 463.332 218.7C463.332 219.66 463.092 220.58 462.612 221.46C462.152 222.34 461.352 223.07 460.212 223.65C459.092 224.23 457.602 224.52 455.742 224.52H453.732ZM455.952 214.26C455.332 214.26 454.862 214.33 454.542 214.47C454.242 214.61 454.032 214.86 453.912 215.22C453.792 215.58 453.732 216.12 453.732 216.84V223.92H455.442C457.282 223.92 458.552 223.48 459.252 222.6C459.972 221.72 460.332 220.53 460.332 219.03C460.332 217.41 459.992 216.21 459.312 215.43C458.632 214.65 457.512 214.26 455.952 214.26ZM475.075 213.24C476.915 213.24 478.525 213.61 479.905 214.35C481.305 215.07 482.385 216.14 483.145 217.56C483.905 218.96 484.285 220.64 484.285 222.6C484.285 224.52 483.885 226.22 483.085 227.7C482.305 229.16 481.215 230.3 479.815 231.12C478.415 231.92 476.825 232.32 475.045 232.32C473.205 232.32 471.585 231.96 470.185 231.24C468.805 230.5 467.735 229.43 466.975 228.03C466.215 226.61 465.835 224.92 465.835 222.96C465.835 221.04 466.225 219.35 467.005 217.89C467.805 216.41 468.905 215.27 470.305 214.47C471.705 213.65 473.295 213.24 475.075 213.24ZM474.955 213.78C473.735 213.78 472.655 214.17 471.715 214.95C470.795 215.71 470.085 216.78 469.585 218.16C469.085 219.52 468.835 221.08 468.835 222.84C468.835 224.62 469.115 226.19 469.675 227.55C470.235 228.91 470.995 229.96 471.955 230.7C472.915 231.42 473.985 231.78 475.165 231.78C476.385 231.78 477.455 231.4 478.375 230.64C479.315 229.86 480.035 228.79 480.535 227.43C481.035 226.05 481.285 224.48 481.285 222.72C481.285 220.94 481.005 219.37 480.445 218.01C479.885 216.65 479.125 215.61 478.165 214.89C477.205 214.15 476.135 213.78 474.955 213.78ZM505.102 214.26C504.402 214.3 503.882 214.41 503.542 214.59C503.202 214.75 502.972 215.03 502.852 215.43C502.732 215.81 502.672 216.38 502.672 217.14V232.05H501.982L489.982 215.43V228.42C489.982 229.2 490.042 229.78 490.162 230.16C490.302 230.54 490.562 230.82 490.942 231C491.322 231.16 491.912 231.26 492.712 231.3V231.9C491.992 231.84 490.972 231.81 489.652 231.81C488.452 231.81 487.522 231.84 486.862 231.9V231.3C487.562 231.26 488.082 231.16 488.422 231C488.762 230.82 488.992 230.54 489.112 230.16C489.232 229.76 489.292 229.18 489.292 228.42V216.84C489.292 216.08 489.232 215.53 489.112 215.19C488.992 214.85 488.762 214.62 488.422 214.5C488.102 214.38 487.582 214.3 486.862 214.26V213.66C487.522 213.72 488.452 213.75 489.652 213.75C490.732 213.75 491.652 213.72 492.412 213.66L501.982 226.98V217.14C501.982 216.36 501.912 215.78 501.772 215.4C501.652 215.02 501.402 214.75 501.022 214.59C500.642 214.41 500.052 214.3 499.252 214.26V213.66C499.972 213.72 500.992 213.75 502.312 213.75C503.512 213.75 504.442 213.72 505.102 213.66V214.26ZM514.873 214.26C514.153 214.3 513.623 214.38 513.283 214.5C512.963 214.62 512.743 214.85 512.623 215.19C512.503 215.53 512.443 216.08 512.443 216.84V228.72C512.443 229.48 512.503 230.03 512.623 230.37C512.743 230.71 512.963 230.94 513.283 231.06C513.623 231.18 514.153 231.26 514.873 231.3V231.9C513.953 231.84 512.683 231.81 511.063 231.81C509.343 231.81 508.063 231.84 507.223 231.9V231.3C507.943 231.26 508.463 231.18 508.783 231.06C509.123 230.94 509.353 230.71 509.473 230.37C509.593 230.03 509.653 229.48 509.653 228.72V216.84C509.653 216.08 509.593 215.53 509.473 215.19C509.353 214.85 509.123 214.62 508.783 214.5C508.463 214.38 507.943 214.3 507.223 214.26V213.66C508.063 213.72 509.343 213.75 511.063 213.75C512.663 213.75 513.933 213.72 514.873 213.66V214.26ZM527.049 222.18C529.129 222.44 530.619 223.01 531.519 223.89C532.419 224.75 532.869 225.78 532.869 226.98C532.869 227.94 532.589 228.79 532.029 229.53C531.489 230.27 530.699 230.85 529.659 231.27C528.619 231.69 527.389 231.9 525.969 231.9C525.469 231.9 525.039 231.89 524.679 231.87C523.439 231.83 522.249 231.81 521.109 231.81C519.469 231.81 518.229 231.84 517.389 231.9V231.3C518.109 231.26 518.629 231.18 518.949 231.06C519.289 230.94 519.519 230.71 519.639 230.37C519.759 230.03 519.819 229.48 519.819 228.72V216.84C519.819 216.08 519.759 215.53 519.639 215.19C519.519 214.85 519.289 214.62 518.949 214.5C518.629 214.38 518.109 214.3 517.389 214.26V213.66C518.229 213.72 519.449 213.75 521.049 213.75L524.109 213.72C524.449 213.7 524.839 213.69 525.279 213.69C527.219 213.69 528.709 214.07 529.749 214.83C530.789 215.57 531.309 216.56 531.309 217.8C531.309 218.76 530.969 219.62 530.289 220.38C529.609 221.14 528.529 221.72 527.049 222.12V222.18ZM524.529 214.26C523.989 214.26 523.579 214.33 523.299 214.47C523.039 214.61 522.859 214.86 522.759 215.22C522.659 215.58 522.609 216.12 522.609 216.84V222.12H524.319C525.859 222.12 526.929 221.77 527.529 221.07C528.129 220.37 528.429 219.39 528.429 218.13C528.429 216.83 528.119 215.86 527.499 215.22C526.879 214.58 525.889 214.26 524.529 214.26ZM524.559 231.21C526.379 231.21 527.719 230.85 528.579 230.13C529.439 229.39 529.869 228.3 529.869 226.86C529.869 225.46 529.469 224.41 528.669 223.71C527.869 222.99 526.589 222.63 524.829 222.63H522.609V228.72C522.609 229.44 522.659 229.97 522.759 230.31C522.859 230.65 523.039 230.89 523.299 231.03C523.579 231.15 523.999 231.21 524.559 231.21ZM542.881 214.26C542.161 214.3 541.631 214.38 541.291 214.5C540.971 214.62 540.751 214.85 540.631 215.19C540.511 215.53 540.451 216.08 540.451 216.84V228.72C540.451 229.48 540.511 230.03 540.631 230.37C540.751 230.71 540.971 230.94 541.291 231.06C541.631 231.16 542.161 231.21 542.881 231.21H544.771C546.151 231.21 547.221 230.8 547.981 229.98C548.761 229.16 549.231 227.8 549.391 225.9H550.081C550.021 226.52 549.991 227.34 549.991 228.36C549.991 229.4 550.061 230.58 550.201 231.9C548.901 231.84 546.711 231.81 543.631 231.81C539.931 231.81 537.131 231.84 535.231 231.9V231.3C535.951 231.26 536.471 231.18 536.791 231.06C537.131 230.94 537.361 230.71 537.481 230.37C537.601 230.03 537.661 229.48 537.661 228.72V216.84C537.661 216.08 537.601 215.53 537.481 215.19C537.361 214.85 537.131 214.62 536.791 214.5C536.471 214.38 535.951 214.3 535.231 214.26V213.66C536.071 213.72 537.351 213.75 539.071 213.75C540.671 213.75 541.941 213.72 542.881 213.66V214.26ZM567.188 228.36C567.188 229.4 567.258 230.58 567.398 231.9C566.098 231.84 563.908 231.81 560.828 231.81C557.128 231.81 554.328 231.84 552.428 231.9V231.3C553.148 231.26 553.668 231.18 553.988 231.06C554.328 230.94 554.558 230.71 554.678 230.37C554.798 230.03 554.858 229.48 554.858 228.72V216.84C554.858 216.08 554.798 215.53 554.678 215.19C554.558 214.85 554.328 214.62 553.988 214.5C553.668 214.38 553.148 214.3 552.428 214.26V213.66C554.328 213.72 557.128 213.75 560.828 213.75C563.628 213.75 565.618 213.72 566.798 213.66C566.658 214.86 566.588 215.94 566.588 216.9C566.588 217.68 566.618 218.3 566.678 218.76H565.988C565.848 217.12 565.498 215.98 564.938 215.34C564.398 214.68 563.508 214.35 562.268 214.35H560.078C559.358 214.35 558.828 214.41 558.488 214.53C558.168 214.63 557.948 214.85 557.828 215.19C557.708 215.53 557.648 216.08 557.648 216.84V222.42H560.138C560.778 222.42 561.268 222.26 561.608 221.94C561.948 221.6 562.178 221.24 562.298 220.86C562.418 220.46 562.528 219.96 562.628 219.36H563.318C563.258 220.04 563.228 220.78 563.228 221.58V222.72C563.228 223.5 563.288 224.62 563.408 226.08H562.718C562.598 225.12 562.368 224.37 562.028 223.83C561.688 223.29 561.058 223.02 560.138 223.02H557.648V228.72C557.648 229.48 557.708 230.03 557.828 230.37C557.948 230.71 558.168 230.94 558.488 231.06C558.828 231.16 559.358 231.21 560.078 231.21H562.268C563.268 231.21 564.058 231.05 564.638 230.73C565.218 230.41 565.658 229.9 565.958 229.2C566.258 228.48 566.468 227.48 566.588 226.2H567.278C567.218 226.74 567.188 227.46 567.188 228.36ZM580.741 213.24C581.141 213.24 581.471 213.38 581.731 213.66C581.991 213.94 582.121 214.36 582.121 214.92C582.121 215.64 581.971 217.26 581.671 219.78C581.331 222.5 581.111 224.58 581.011 226.02H580.471C580.371 224.58 580.151 222.5 579.811 219.78C579.511 217.26 579.361 215.64 579.361 214.92C579.361 214.34 579.481 213.92 579.721 213.66C579.981 213.38 580.321 213.24 580.741 213.24ZM580.741 228.48C581.261 228.48 581.711 228.67 582.091 229.05C582.471 229.43 582.661 229.88 582.661 230.4C582.661 230.92 582.471 231.37 582.091 231.75C581.711 232.13 581.261 232.32 580.741 232.32C580.221 232.32 579.771 232.13 579.391 231.75C579.011 231.37 578.821 230.92 578.821 230.4C578.821 229.88 579.011 229.43 579.391 229.05C579.771 228.67 580.221 228.48 580.741 228.48Z" fill="black"/>
</g>
<defs>
<clipPath id="clip0_254_1781">
<rect width="700" height="300" fill="white"/>
</clipPath>
</defs>
</svg>
