<svg width="222" height="373" viewBox="0 0 222 373" fill="none" xmlns="http://www.w3.org/2000/svg">
<path d="M101.5 0L106 34.5L111 59.0315L114.404 74.5L221.5 91.5L212 95L114.404 91.5L196.5 151.5H185.5L114.404 106.5V175V192L173 186.5L194.5 212L168 194.5L114.404 204L122.5 365H80.5L86.0663 163.5L36 198H0L44.2831 181.75L86.0663 146.5V129L29.5 154L20.5 151.5L86.0663 116.5V59.0315L101.5 0Z" fill="#5C411B"/>
<ellipse cx="86.5" cy="361" rx="17" ry="12" fill="#309E1A"/>
<ellipse cx="113" cy="360.5" rx="14.5" ry="10.5" fill="#309E1A"/>
<line x1="152.993" y1="182.918" x2="153.993" y2="188.918" stroke="black"/>
<line x1="156.974" y1="182.842" x2="158.974" y2="188.842" stroke="black"/>
<path d="M160.5 176L162.5 177L160.5 178V176Z" fill="#F98A22"/>
<ellipse cx="154.5" cy="180" rx="5" ry="4" fill="#F9E722"/>
<circle cx="159.5" cy="177" r="2" fill="#F9E722"/>
<circle cx="160" cy="176.5" r="0.5" fill="#2B5D78"/>
<line x1="155.724" y1="178.447" x2="151.724" y2="180.447" stroke="black"/>
<path d="M145.5 178L151 179.5L151.5 182L146.5 184L147.5 183L146 182L146.5 180.5L146 180L146.5 179L145.5 178Z" fill="#F9E722"/>
</svg>
