<svg width="115" height="140" viewBox="0 0 115 140" fill="none" xmlns="http://www.w3.org/2000/svg">
<path d="M47 44C47 42.3431 48.3431 41 50 41H67C68.6569 41 70 42.3431 70 44C70 45.6569 68.6569 47 67 47H50C48.3431 47 47 45.6569 47 44Z" fill="white"/>
<rect x="49.75" y="67" width="6.5" height="8" fill="#272727"/>
<path d="M56 69L55.5 67H66.25V75H59.75V69H56Z" fill="#272727"/>
<path d="M47 44H69L67.5 67H66.0063H50.0063H49L47 44Z" fill="white"/>
<line x1="57.4341" y1="47.2481" x2="53.4341" y2="54.2481" stroke="#0720FF"/>
<line x1="61.4341" y1="47.2481" x2="57.4341" y2="54.2481" stroke="#FF0000"/>
<line x1="59.4341" y1="47.2481" x2="55.4341" y2="54.2481" stroke="#FBFF00"/>
<path d="M53.9155 49.9638C53.9098 49.9065 53.8854 49.862 53.8423 49.8303C53.7992 49.7985 53.7408 49.7827 53.6669 49.7827C53.6167 49.7827 53.5743 49.7898 53.5398 49.804C53.5052 49.8177 53.4787 49.8369 53.4602 49.8615C53.4422 49.8861 53.4332 49.9141 53.4332 49.9453C53.4323 49.9714 53.4377 49.9941 53.4496 50.0135C53.4619 50.0329 53.4787 50.0497 53.5 50.0639C53.5213 50.0777 53.5459 50.0897 53.5739 50.1001C53.6018 50.1101 53.6316 50.1186 53.6634 50.1257L53.794 50.157C53.8575 50.1712 53.9157 50.1901 53.9688 50.2138C54.0218 50.2375 54.0677 50.2666 54.1065 50.3011C54.1454 50.3357 54.1754 50.3764 54.1967 50.4233C54.2185 50.4702 54.2296 50.5239 54.2301 50.5845C54.2296 50.6735 54.2069 50.7507 54.1619 50.8161C54.1174 50.8809 54.053 50.9313 53.9688 50.9673C53.8849 51.0028 53.7839 51.0206 53.6655 51.0206C53.5481 51.0206 53.4458 51.0026 53.3587 50.9666C53.272 50.9306 53.2043 50.8774 53.1555 50.8068C53.1072 50.7358 53.0819 50.648 53.0795 50.5433H53.3771C53.3804 50.5921 53.3944 50.6328 53.419 50.6655C53.4441 50.6977 53.4775 50.7221 53.5192 50.7386C53.5613 50.7547 53.6089 50.7628 53.6619 50.7628C53.714 50.7628 53.7592 50.7552 53.7976 50.7401C53.8364 50.7249 53.8665 50.7038 53.8878 50.6768C53.9091 50.6499 53.9197 50.6188 53.9197 50.5838C53.9197 50.5511 53.91 50.5237 53.8906 50.5014C53.8717 50.4792 53.8438 50.4602 53.8068 50.4446C53.7704 50.429 53.7256 50.4148 53.6726 50.402L53.5142 50.3622C53.3916 50.3324 53.2947 50.2857 53.2237 50.2223C53.1527 50.1589 53.1174 50.0734 53.1179 49.9659C53.1174 49.8778 53.1409 49.8009 53.1882 49.7351C53.236 49.6693 53.3016 49.6179 53.3849 49.581C53.4683 49.544 53.563 49.5256 53.669 49.5256C53.777 49.5256 53.8712 49.544 53.9517 49.581C54.0327 49.6179 54.0956 49.6693 54.1406 49.7351C54.1856 49.8009 54.2088 49.8771 54.2102 49.9638H53.9155ZM54.6545 51H54.3249L54.8271 49.5455H55.2234L55.7248 51H55.3952L55.0309 49.8778H55.0195L54.6545 51ZM54.6339 50.4283H55.4123V50.6683H54.6339V50.4283ZM55.8999 51V49.5455H56.2074V50.7464H56.831V51H55.8999ZM58.3146 50.2727C58.3146 50.4313 58.2846 50.5663 58.2244 50.6776C58.1648 50.7888 58.0833 50.8738 57.9801 50.9325C57.8774 50.9908 57.7618 51.0199 57.6335 51.0199C57.5043 51.0199 57.3883 50.9905 57.2855 50.9318C57.1828 50.8731 57.1016 50.7881 57.0419 50.6768C56.9822 50.5656 56.9524 50.4309 56.9524 50.2727C56.9524 50.1141 56.9822 49.9792 57.0419 49.8679C57.1016 49.7566 57.1828 49.6719 57.2855 49.6136C57.3883 49.5549 57.5043 49.5256 57.6335 49.5256C57.7618 49.5256 57.8774 49.5549 57.9801 49.6136C58.0833 49.6719 58.1648 49.7566 58.2244 49.8679C58.2846 49.9792 58.3146 50.1141 58.3146 50.2727ZM58.0028 50.2727C58.0028 50.17 57.9875 50.0833 57.9567 50.0128C57.9264 49.9422 57.8835 49.8887 57.8281 49.8523C57.7727 49.8158 57.7079 49.7976 57.6335 49.7976C57.5592 49.7976 57.4943 49.8158 57.4389 49.8523C57.3835 49.8887 57.3404 49.9422 57.3097 50.0128C57.2794 50.0833 57.2642 50.17 57.2642 50.2727C57.2642 50.3755 57.2794 50.4621 57.3097 50.5327C57.3404 50.6032 57.3835 50.6567 57.4389 50.6932C57.4943 50.7296 57.5592 50.7479 57.6335 50.7479C57.7079 50.7479 57.7727 50.7296 57.8281 50.6932C57.8835 50.6567 57.9264 50.6032 57.9567 50.5327C57.9875 50.4621 58.0028 50.3755 58.0028 50.2727ZM58.5424 49.5455H58.9217L59.3223 50.5227H59.3393L59.7399 49.5455H60.1191V51H59.8208V50.0533H59.8088L59.4324 50.9929H59.2292L58.8528 50.0497H58.8407V51H58.5424V49.5455ZM61.7092 50.2727C61.7092 50.4313 61.6791 50.5663 61.619 50.6776C61.5593 50.7888 61.4779 50.8738 61.3746 50.9325C61.2719 50.9908 61.1564 51.0199 61.0281 51.0199C60.8988 51.0199 60.7828 50.9905 60.68 50.9318C60.5773 50.8731 60.4961 50.7881 60.4364 50.6768C60.3768 50.5656 60.3469 50.4309 60.3469 50.2727C60.3469 50.1141 60.3768 49.9792 60.4364 49.8679C60.4961 49.7566 60.5773 49.6719 60.68 49.6136C60.7828 49.5549 60.8988 49.5256 61.0281 49.5256C61.1564 49.5256 61.2719 49.5549 61.3746 49.6136C61.4779 49.6719 61.5593 49.7566 61.619 49.8679C61.6791 49.9792 61.7092 50.1141 61.7092 50.2727ZM61.3974 50.2727C61.3974 50.17 61.382 50.0833 61.3512 50.0128C61.3209 49.9422 61.2781 49.8887 61.2227 49.8523C61.1673 49.8158 61.1024 49.7976 61.0281 49.7976C60.9537 49.7976 60.8888 49.8158 60.8335 49.8523C60.7781 49.8887 60.735 49.9422 60.7042 50.0128C60.6739 50.0833 60.6587 50.17 60.6587 50.2727C60.6587 50.3755 60.6739 50.4621 60.7042 50.5327C60.735 50.6032 60.7781 50.6567 60.8335 50.6932C60.8888 50.7296 60.9537 50.7479 61.0281 50.7479C61.1024 50.7479 61.1673 50.7296 61.2227 50.6932C61.2781 50.6567 61.3209 50.6032 61.3512 50.5327C61.382 50.4621 61.3974 50.3755 61.3974 50.2727ZM63.1536 49.5455V51H62.888L62.2551 50.0845H62.2445V51H61.937V49.5455H62.2069L62.8347 50.4602H62.8475V49.5455H63.1536Z" fill="black"/>
<path d="M53.173 36H63.173L62.673 40C62.9348 41.5704 61.7237 43 60.1316 43H56.1419C54.7365 43 53.7889 41.563 54.3425 40.2712C54.5536 39.7787 54.5536 39.2213 54.3425 38.7288L53.173 36Z" fill="#EFC6C6"/>
<path d="M45.5 17H70.5L71 22H45L45.5 17Z" fill="#EFC6C6"/>
<ellipse cx="58.0063" cy="25.5" rx="14" ry="13.5" fill="#EFC6C6"/>
<path d="M68.7456 28.3184H60.1489L60.0122 28.0342L58.4761 24.8184H56.5972L55.0601 28.0342L54.9243 28.3184H46.7456V21.1113L48.9897 18.8672L49.1245 18.833L51.2261 18.3076L51.3296 18.3252L54.2349 18.8184H61.2622L64.2905 18.3252L64.3833 18.3096L64.4761 18.3301L66.7876 18.8301L66.9409 18.8633L67.0483 18.9775L68.6118 20.6592L68.7456 20.8037V28.3184Z" fill="url(#paint0_linear_166_417)" stroke="black"/>
<path d="M43.9793 23.998L46.8204 22.9994L47.1418 23.9464L43.9795 24.998L43.9793 23.998Z" fill="black"/>
<path d="M43.9837 24.9428L46.2026 23.9958L46.524 24.9428L43.9798 25.9979L43.9837 24.9428Z" fill="black"/>
<path d="M72.0717 23.1273L68.8631 21.9996L68.5002 23.069L72.0716 24.2567L72.0717 23.1273Z" fill="black"/>
<path d="M72.0251 24.1791L69.2271 23.0105L68.8642 24.08L72.0712 25.3849L72.0251 24.1791Z" fill="black"/>
<line x1="57.4807" y1="26.1581" x2="56.4807" y2="29.1581" stroke="black"/>
<line x1="56.1645" y1="29.5257" x2="59.1645" y2="30.5257" stroke="black"/>
<ellipse cx="58.5063" cy="34.5" rx="5.5" ry="1.5" fill="#EFA7A7"/>
<path d="M47.6 9.5L58 7L68.92 9.5L71 17H45L47.6 9.5Z" fill="#5C7780"/>
<path d="M47.7083 14L58 12.5L68.8333 14L71 17H45L47.7083 14Z" fill="#283134"/>
<rect x="60" y="75" width="6" height="4" fill="url(#paint1_linear_166_417)"/>
<rect x="50" y="75" width="6" height="4" fill="url(#paint2_linear_166_417)"/>
<rect x="50" y="79" width="6" height="10" fill="url(#paint3_linear_166_417)"/>
<rect x="60" y="79" width="6" height="10" fill="url(#paint4_linear_166_417)"/>
<rect x="50" y="84" width="6" height="4" fill="white"/>
<path d="M50 89V87H56V89L57 93L56 94.5C55.0203 94.8266 53.9679 94.867 52.9661 94.6165L52.5 94.5L51 93L50 89Z" fill="black"/>
<path d="M52.7852 92.486C52.8278 92.4705 52.8705 92.4549 52.9584 92.4273C53.0462 92.3997 53.178 92.3606 53.3492 92.3241C53.5204 92.2875 53.7271 92.2547 53.9066 92.2377C54.0861 92.2208 54.2322 92.2208 54.5198 92.2538C54.8075 92.2867 55.2323 92.3527 55.6808 92.4206" stroke="#F5E4E4" stroke-width="0.5" stroke-linecap="round"/>
<path d="M52.7939 91.0987C52.847 91.0725 52.9 91.0464 53.015 90.9997C53.1299 90.9531 53.3052 90.8867 53.4791 90.835C53.6531 90.7833 53.8203 90.7481 54.0358 90.726C54.2513 90.7039 54.51 90.696 54.7821 90.7104C55.0541 90.7248 55.3317 90.762 55.6285 90.8002" stroke="#F5E4E4" stroke-width="0.5" stroke-linecap="round"/>
<path d="M51.7808 90.0057C51.8275 89.9847 51.8743 89.9637 51.9758 89.9212C52.0772 89.8787 52.232 89.8153 52.4575 89.7457C52.6829 89.6761 52.9744 89.6023 53.3408 89.542C53.7071 89.4818 54.1395 89.4375 54.413 89.4171C54.6864 89.3968 54.7878 89.4019 54.8538 89.4064C54.9198 89.4109 54.9473 89.4148 54.9756 89.4187" stroke="#F5E4E4" stroke-width="0.5" stroke-linecap="round"/>
<path d="M53.3975 87.7578C53.3908 87.7665 53.384 87.7752 53.3575 87.8052C53.331 87.8351 53.2851 87.8861 53.0821 88.0502C52.8792 88.2142 52.5206 88.4898 52.3022 88.6508C52.0839 88.8118 52.0168 88.8498 51.9513 88.8814C51.8859 88.9129 51.8242 88.9368 51.762 88.9565C51.6998 88.9761 51.6389 88.9906 51.5915 88.9991C51.5125 89.0131 51.467 89.0104 51.4402 89.0066C51.373 88.9972 51.3393 88.9532 51.3153 88.9087C51.3095 88.8981 51.3077 88.8897 51.3025 88.8487C51.2973 88.8076 51.2897 88.7338 51.2865 88.6761C51.2832 88.6184 51.2846 88.5791 51.2887 88.5432C51.2964 88.4758 51.3188 88.4189 51.3444 88.3725C51.3806 88.307 51.4276 88.2916 51.4926 88.2659C51.5182 88.2559 51.5593 88.2521 51.6375 88.2516C51.7157 88.2512 51.8308 88.2577 51.9757 88.2881C52.1206 88.3184 52.2918 88.3724 52.4654 88.4407C52.6389 88.509 52.8097 88.5901 53.0004 88.6619C53.191 88.7337 53.3964 88.7938 53.5264 88.8274C53.6565 88.8611 53.705 88.8664 53.74 88.8691C53.7949 88.8734 53.852 88.8645 53.9217 88.8468C53.9557 88.8382 53.9849 88.8233 54.0127 88.8053C54.0405 88.7872 54.0656 88.7647 54.0975 88.7281C54.1294 88.6915 54.1673 88.6415 54.2002 88.5896C54.2331 88.5377 54.26 88.4853 54.2801 88.4421C54.3003 88.399 54.3129 88.3667 54.3261 88.3208C54.3393 88.2748 54.3528 88.2162 54.3601 88.1728C54.3717 88.1035 54.3661 88.0536 54.3601 88.0156C54.3519 87.9636 54.305 87.9064 54.2522 87.8566C54.2364 87.8417 54.2113 87.8311 54.1825 87.8202C54.1536 87.8094 54.1196 87.8012 54.0675 87.7943C54.0154 87.7874 53.9462 87.7822 53.8869 87.7817C53.8276 87.7811 53.7803 87.7854 53.7508 87.7887C53.7212 87.792 53.7108 87.7942 53.7001 87.7965" stroke="#F5E4E4" stroke-width="0.5" stroke-linecap="round"/>
<rect x="60" y="84" width="6" height="4" fill="white"/>
<path d="M60 89V87H66V89L67 93L66 94.5C65.0203 94.8266 63.9679 94.867 62.9661 94.6165L62.5 94.5L61 93L60 89Z" fill="black"/>
<path d="M62.7852 92.486C62.8278 92.4705 62.8705 92.4549 62.9584 92.4273C63.0462 92.3997 63.178 92.3606 63.3492 92.3241C63.5204 92.2875 63.7271 92.2547 63.9066 92.2377C64.0861 92.2208 64.2322 92.2208 64.5198 92.2538C64.8075 92.2867 65.2323 92.3527 65.6808 92.4206" stroke="#F5E4E4" stroke-width="0.5" stroke-linecap="round"/>
<path d="M62.7939 91.0987C62.847 91.0725 62.9 91.0464 63.015 90.9997C63.1299 90.9531 63.3052 90.8867 63.4791 90.835C63.6531 90.7833 63.8203 90.7481 64.0358 90.726C64.2513 90.7039 64.51 90.696 64.7821 90.7104C65.0541 90.7248 65.3317 90.762 65.6285 90.8002" stroke="#F5E4E4" stroke-width="0.5" stroke-linecap="round"/>
<path d="M61.7808 90.0057C61.8275 89.9847 61.8743 89.9637 61.9758 89.9212C62.0772 89.8787 62.232 89.8153 62.4575 89.7457C62.6829 89.6761 62.9744 89.6023 63.3408 89.542C63.7071 89.4818 64.1395 89.4375 64.413 89.4171C64.6864 89.3968 64.7878 89.4019 64.8538 89.4064C64.9198 89.4109 64.9473 89.4148 64.9756 89.4187" stroke="#F5E4E4" stroke-width="0.5" stroke-linecap="round"/>
<path d="M63.3975 87.7578C63.3908 87.7665 63.384 87.7752 63.3575 87.8052C63.331 87.8351 63.2851 87.8861 63.0821 88.0502C62.8792 88.2142 62.5206 88.4898 62.3022 88.6508C62.0839 88.8118 62.0168 88.8498 61.9513 88.8814C61.8859 88.9129 61.8242 88.9368 61.762 88.9565C61.6998 88.9761 61.6389 88.9906 61.5915 88.9991C61.5125 89.0131 61.467 89.0104 61.4402 89.0066C61.373 88.9972 61.3393 88.9532 61.3153 88.9087C61.3095 88.8981 61.3077 88.8897 61.3025 88.8487C61.2973 88.8076 61.2897 88.7338 61.2865 88.6761C61.2832 88.6184 61.2846 88.5791 61.2887 88.5432C61.2964 88.4758 61.3188 88.4189 61.3444 88.3725C61.3806 88.307 61.4276 88.2916 61.4926 88.2659C61.5182 88.2559 61.5593 88.2521 61.6375 88.2516C61.7157 88.2512 61.8308 88.2577 61.9757 88.2881C62.1206 88.3184 62.2918 88.3724 62.4654 88.4407C62.6389 88.509 62.8097 88.5901 63.0004 88.6619C63.191 88.7337 63.3964 88.7938 63.5264 88.8274C63.6565 88.8611 63.705 88.8664 63.74 88.8691C63.7949 88.8734 63.852 88.8645 63.9217 88.8468C63.9557 88.8382 63.9849 88.8233 64.0127 88.8053C64.0405 88.7872 64.0656 88.7647 64.0975 88.7281C64.1294 88.6915 64.1673 88.6415 64.2002 88.5896C64.2331 88.5377 64.26 88.4853 64.2801 88.4421C64.3003 88.399 64.3129 88.3667 64.3261 88.3208C64.3393 88.2748 64.3528 88.2162 64.3601 88.1728C64.3717 88.1035 64.3661 88.0536 64.3601 88.0156C64.3519 87.9636 64.305 87.9064 64.2522 87.8566C64.2364 87.8417 64.2113 87.8311 64.1825 87.8202C64.1536 87.8094 64.1196 87.8012 64.0675 87.7943C64.0154 87.7874 63.9462 87.7822 63.8869 87.7817C63.8276 87.7811 63.7803 87.7854 63.7508 87.7887C63.7212 87.792 63.7108 87.7942 63.7001 87.7965" stroke="#F5E4E4" stroke-width="0.5" stroke-linecap="round"/>
<rect width="11.5981" height="4.83109" rx="2.41554" transform="matrix(-0.397217 0.917725 0.917725 0.397217 44.6069 43.998)" fill="url(#paint5_linear_166_417)"/>
<path d="M45.0704 53.4739C44.7045 52.5811 43.7962 52.034 42.8358 52.128C41.4203 52.2667 40.5126 53.6994 40.9918 55.0385L43.6108 62.3575C44.0501 63.5851 45.4014 64.2242 46.629 63.7849C47.8961 63.3315 48.5284 61.9121 48.0181 60.6668L45.0704 53.4739Z" fill="url(#paint6_linear_166_417)"/>
<rect x="43.3208" y="46.2852" width="6.32065" height="5" transform="rotate(-42.6912 43.3208 46.2852)" fill="white"/>
<rect x="72.9165" y="45.4141" width="12.0036" height="5" rx="2.5" transform="rotate(84.2297 72.9165 45.4141)" fill="url(#paint7_linear_166_417)"/>
<path d="M69.4883 54.6166C70.1292 53.8507 71.1966 53.5958 72.1143 53.9897C73.467 54.5703 73.9131 56.268 73.0207 57.4385L68.1427 63.8364C67.3246 64.9095 65.7914 65.1161 64.7183 64.298C63.6106 63.4535 63.4319 61.8553 64.3257 60.787L69.4883 54.6166Z" fill="url(#paint8_linear_166_417)"/>
<path d="M68.7505 42.041L73 46.9998L68.5 51L64.9997 45.2553L68.7505 42.041Z" fill="white"/>
<defs>
<linearGradient id="paint0_linear_166_417" x1="46" y1="23.5" x2="69" y2="23.5" gradientUnits="userSpaceOnUse">
<stop stop-color="#FFB300"/>
<stop offset="1" stop-color="#F7F6EB"/>
</linearGradient>
<linearGradient id="paint1_linear_166_417" x1="63" y1="75" x2="63" y2="79" gradientUnits="userSpaceOnUse">
<stop stop-color="#EFC6C6"/>
<stop offset="1" stop-color="#F5E7E7"/>
</linearGradient>
<linearGradient id="paint2_linear_166_417" x1="53" y1="75" x2="53" y2="79" gradientUnits="userSpaceOnUse">
<stop stop-color="#EFC6C6"/>
<stop offset="1" stop-color="#F5E7E7"/>
</linearGradient>
<linearGradient id="paint3_linear_166_417" x1="53" y1="89" x2="53" y2="79" gradientUnits="userSpaceOnUse">
<stop stop-color="#EFC6C6"/>
<stop offset="1" stop-color="#F5E4E4"/>
</linearGradient>
<linearGradient id="paint4_linear_166_417" x1="63" y1="89" x2="63" y2="79" gradientUnits="userSpaceOnUse">
<stop stop-color="#EFC6C6"/>
<stop offset="1" stop-color="#F5E4E4"/>
</linearGradient>
<linearGradient id="paint5_linear_166_417" x1="4.18851" y1="2.04869" x2="11.537" y2="2.92696" gradientUnits="userSpaceOnUse">
<stop stop-color="#EFC6C6"/>
<stop offset="1" stop-color="#987F7F"/>
</linearGradient>
<linearGradient id="paint6_linear_166_417" x1="45.811" y1="62.3733" x2="46.5365" y2="54.1599" gradientUnits="userSpaceOnUse">
<stop stop-color="#EFC6C6"/>
<stop offset="1" stop-color="#B29494"/>
</linearGradient>
<linearGradient id="paint7_linear_166_417" x1="77.2515" y1="47.5344" x2="84.8569" y2="48.4434" gradientUnits="userSpaceOnUse">
<stop stop-color="#EFC6C6"/>
<stop offset="1" stop-color="#987F7F"/>
</linearGradient>
<linearGradient id="paint8_linear_166_417" x1="65.9676" y1="63.1621" x2="67.8272" y2="54.8335" gradientUnits="userSpaceOnUse">
<stop stop-color="#EFC6C6"/>
<stop offset="1" stop-color="#B29494"/>
</linearGradient>
</defs>
</svg>
