<svg width="119" height="144" viewBox="0 0 119 144" fill="none" xmlns="http://www.w3.org/2000/svg">
<path d="M69.7805 45.1528C69.7805 43.4525 68.4022 42.0742 66.7019 42.0742H49.2569C47.5567 42.0742 46.1784 43.4525 46.1784 45.1528C46.1784 46.853 47.5567 48.2313 49.2569 48.2313H66.7019C68.4022 48.2313 69.7805 46.853 69.7805 45.1528Z" fill="white"/>
<rect width="6.15707" height="4.10471" transform="matrix(-0.874369 -0.485262 -0.485262 0.874369 53.3615 75.8457)" fill="url(#paint0_linear_166_1057)"/>
<rect width="6.15707" height="4.10471" transform="matrix(-0.978148 0.207912 0.207912 0.978148 66.3625 75.4277)" fill="url(#paint1_linear_166_1057)"/>
<path d="M66.7094 78.7406C65.5715 77.4773 63.625 77.3755 62.3616 78.5134C61.0983 79.6512 60.9965 81.5978 62.1344 82.8611L66.9416 88.1987L71.5166 84.0782L66.7094 78.7406Z" fill="url(#paint2_linear_166_1057)"/>
<path d="M50.8645 77.6162C50.31 76.1629 48.7772 75.3325 47.257 75.6618C45.3514 76.0745 44.2755 78.1026 45.0023 79.9119L47.9719 87.3039L53.6873 85.0139L50.8645 77.6162Z" fill="url(#paint3_linear_166_1057)"/>
<rect width="6.67016" height="8.20942" transform="matrix(-0.981627 0.190809 0.190809 0.981627 65.1355 67.7285)" fill="#272727"/>
<path d="M60.5436 70.8079L60.544 67.729L51.6029 65.6762L47.6862 72.891L53.5483 76.0734L56.439 70.8083L60.5436 70.8079Z" fill="#272727"/>
<path d="M69.7805 45.1504H47.2046L48.7438 68.7525H50.2766H66.6954H67.7281L69.7805 45.1504Z" fill="white"/>
<line x1="57.5852" y1="49.1172" x2="53.4444" y2="56.3636" stroke="#0720FF"/>
<line x1="61.7268" y1="49.1172" x2="57.586" y2="56.3636" stroke="#FF0000"/>
<line x1="59.6565" y1="49.1172" x2="55.5157" y2="56.3636" stroke="#FBFF00"/>
<path d="M53.9259 51.9052C53.9203 51.8479 53.8959 51.8034 53.8528 51.7717C53.8097 51.7399 53.7512 51.7241 53.6774 51.7241C53.6272 51.7241 53.5848 51.7312 53.5502 51.7454C53.5157 51.7591 53.4892 51.7783 53.4707 51.8029C53.4527 51.8275 53.4437 51.8555 53.4437 51.8867C53.4428 51.9128 53.4482 51.9355 53.46 51.9549C53.4723 51.9743 53.4892 51.9911 53.5105 52.0053C53.5318 52.0191 53.5564 52.0311 53.5843 52.0415C53.6123 52.0515 53.6421 52.06 53.6738 52.0671L53.8045 52.0984C53.8679 52.1126 53.9262 52.1315 53.9792 52.1552C54.0322 52.1789 54.0782 52.208 54.117 52.2425C54.1558 52.2771 54.1859 52.3178 54.2072 52.3647C54.229 52.4116 54.2401 52.4653 54.2406 52.5259C54.2401 52.6149 54.2174 52.6921 54.1724 52.7575C54.1279 52.8223 54.0635 52.8728 53.9792 52.9087C53.8954 52.9442 53.7943 52.962 53.6759 52.962C53.5585 52.962 53.4562 52.944 53.3691 52.908C53.2825 52.872 53.2148 52.8188 53.166 52.7482C53.1177 52.6772 53.0924 52.5894 53.09 52.4847H53.3876C53.3909 52.5335 53.4049 52.5742 53.4295 52.6069C53.4546 52.6391 53.488 52.6635 53.5296 52.68C53.5718 52.6961 53.6194 52.7042 53.6724 52.7042C53.7245 52.7042 53.7697 52.6966 53.808 52.6815C53.8469 52.6663 53.8769 52.6452 53.8982 52.6183C53.9196 52.5913 53.9302 52.5603 53.9302 52.5252C53.9302 52.4925 53.9205 52.4651 53.9011 52.4428C53.8821 52.4206 53.8542 52.4016 53.8173 52.386C53.7808 52.3704 53.7361 52.3562 53.683 52.3434L53.5247 52.3036C53.402 52.2738 53.3052 52.2272 53.2342 52.1637C53.1632 52.1003 53.1279 52.0148 53.1284 51.9073C53.1279 51.8192 53.1513 51.7423 53.1987 51.6765C53.2465 51.6107 53.3121 51.5593 53.3954 51.5224C53.4787 51.4854 53.5734 51.467 53.6795 51.467C53.7874 51.467 53.8817 51.4854 53.9622 51.5224C54.0431 51.5593 54.1061 51.6107 54.1511 51.6765C54.1961 51.7423 54.2193 51.8185 54.2207 51.9052H53.9259ZM54.6649 52.9414H54.3354L54.8375 51.4869H55.2338L55.7352 52.9414H55.4057L55.0414 51.8192H55.03L54.6649 52.9414ZM54.6443 52.3697H55.4227V52.6097H54.6443V52.3697ZM55.9103 52.9414V51.4869H56.2178V52.6879H56.8414V52.9414H55.9103ZM58.3251 52.2141C58.3251 52.3728 58.295 52.5077 58.2349 52.619C58.1752 52.7302 58.0938 52.8152 57.9906 52.8739C57.8878 52.9322 57.7723 52.9613 57.644 52.9613C57.5147 52.9613 57.3987 52.9319 57.296 52.8732C57.1932 52.8145 57.112 52.7295 57.0524 52.6183C56.9927 52.507 56.9629 52.3723 56.9629 52.2141C56.9629 52.0555 56.9927 51.9206 57.0524 51.8093C57.112 51.698 57.1932 51.6133 57.296 51.555C57.3987 51.4963 57.5147 51.467 57.644 51.467C57.7723 51.467 57.8878 51.4963 57.9906 51.555C58.0938 51.6133 58.1752 51.698 58.2349 51.8093C58.295 51.9206 58.3251 52.0555 58.3251 52.2141ZM58.0133 52.2141C58.0133 52.1114 57.9979 52.0247 57.9671 51.9542C57.9368 51.8836 57.894 51.8301 57.8386 51.7937C57.7832 51.7572 57.7183 51.739 57.644 51.739C57.5696 51.739 57.5048 51.7572 57.4494 51.7937C57.394 51.8301 57.3509 51.8836 57.3201 51.9542C57.2898 52.0247 57.2747 52.1114 57.2747 52.2141C57.2747 52.3169 57.2898 52.4035 57.3201 52.4741C57.3509 52.5446 57.394 52.5981 57.4494 52.6346C57.5048 52.671 57.5696 52.6893 57.644 52.6893C57.7183 52.6893 57.7832 52.671 57.8386 52.6346C57.894 52.5981 57.9368 52.5446 57.9671 52.4741C57.9979 52.4035 58.0133 52.3169 58.0133 52.2141ZM58.5529 51.4869H58.9322L59.3327 52.4641H59.3498L59.7503 51.4869H60.1296V52.9414H59.8313V51.9947H59.8192L59.4428 52.9343H59.2397L58.8633 51.9911H58.8512V52.9414H58.5529V51.4869ZM61.7196 52.2141C61.7196 52.3728 61.6896 52.5077 61.6294 52.619C61.5698 52.7302 61.4883 52.8152 61.3851 52.8739C61.2824 52.9322 61.1668 52.9613 61.0385 52.9613C60.9093 52.9613 60.7932 52.9319 60.6905 52.8732C60.5878 52.8145 60.5066 52.7295 60.4469 52.6183C60.3872 52.507 60.3574 52.3723 60.3574 52.2141C60.3574 52.0555 60.3872 51.9206 60.4469 51.8093C60.5066 51.698 60.5878 51.6133 60.6905 51.555C60.7932 51.4963 60.9093 51.467 61.0385 51.467C61.1668 51.467 61.2824 51.4963 61.3851 51.555C61.4883 51.6133 61.5698 51.698 61.6294 51.8093C61.6896 51.9206 61.7196 52.0555 61.7196 52.2141ZM61.4078 52.2141C61.4078 52.1114 61.3924 52.0247 61.3617 51.9542C61.3314 51.8836 61.2885 51.8301 61.2331 51.7937C61.1777 51.7572 61.1129 51.739 61.0385 51.739C60.9642 51.739 60.8993 51.7572 60.8439 51.7937C60.7885 51.8301 60.7454 51.8836 60.7147 51.9542C60.6843 52.0247 60.6692 52.1114 60.6692 52.2141C60.6692 52.3169 60.6843 52.4035 60.7147 52.4741C60.7454 52.5446 60.7885 52.5981 60.8439 52.6346C60.8993 52.671 60.9642 52.6893 61.0385 52.6893C61.1129 52.6893 61.1777 52.671 61.2331 52.6346C61.2885 52.5981 61.3314 52.5446 61.3617 52.4741C61.3924 52.4035 61.4078 52.3169 61.4078 52.2141ZM63.164 51.4869V52.9414H62.8984L62.2656 52.0259H62.255V52.9414H61.9474V51.4869H62.2173L62.8452 52.4016H62.8579V51.4869H63.164Z" fill="black"/>
<path d="M63.4458 36.9414H53.1841L53.6971 41.0461C53.4286 42.6576 54.6713 44.1247 56.3051 44.1247H60.3992C61.8415 44.1247 62.8138 42.65 62.2457 41.3244C62.0291 40.819 62.0291 40.247 62.2457 39.7417L63.4458 36.9414Z" fill="#EFC6C6"/>
<path d="M71.3196 17.4473H45.6652L45.1521 22.5782H71.8327L71.3196 17.4473Z" fill="#EFC6C6"/>
<ellipse cx="14.3665" cy="13.8534" rx="14.3665" ry="13.8534" transform="matrix(-1 0 0 1 72.8523 12.3145)" fill="#EFC6C6"/>
<path d="M47.4773 29.0459H56.278L56.4138 28.7617L57.9948 25.4541H59.9392L61.5192 28.7617L61.655 29.0459H70.0271V21.6689L67.7302 19.3721L67.5964 19.3389L65.5437 18.8252L65.4421 18.7998L65.3386 18.8174L62.362 19.3232H55.1433L52.0339 18.8174L51.9411 18.8018L51.8484 18.8223L49.4763 19.335L49.323 19.3682L49.2155 19.4834L47.611 21.209L47.4773 21.3525V29.0459Z" fill="url(#paint4_linear_166_1057)" stroke="black"/>
<path d="M72.8793 24.6289L69.9639 23.6042L69.6341 24.576L72.8792 25.6551L72.8793 24.6289Z" fill="black"/>
<path d="M72.8746 25.5987L70.5976 24.627L70.2679 25.5987L72.8786 26.6815L72.8746 25.5987Z" fill="black"/>
<path d="M44.0511 23.7326L47.3437 22.5753L47.7161 23.6728L44.0512 24.8916L44.0511 23.7326Z" fill="black"/>
<path d="M44.0993 24.8154L46.9706 23.6162L47.343 24.7137L44.0521 26.0527L44.0993 24.8154Z" fill="black"/>
<line y1="-0.5" x2="3.24506" y2="-0.5" transform="matrix(0.316228 0.948683 0.948683 -0.316228 59.5114 26.6816)" stroke="black"/>
<line y1="-0.5" x2="3.24506" y2="-0.5" transform="matrix(-0.948683 0.316228 0.316228 0.948683 60.5378 30.7871)" stroke="black"/>
<ellipse cx="5.64398" cy="1.53927" rx="5.64398" ry="1.53927" transform="matrix(-1 0 0 1 63.6159 33.8652)" fill="#EFA7A7"/>
<path d="M69.1647 9.74904L58.4924 7.18359L47.2865 9.74904L45.1521 17.4454H71.8327L69.1647 9.74904Z" fill="#5C7780"/>
<path d="M69.0535 14.3674L58.4924 12.8281L47.3755 14.3674L45.1521 17.4459H71.8327L69.0535 14.3674Z" fill="#283134"/>
<rect width="6.15707" height="4.10471" transform="matrix(-0.743028 0.66926 0.66926 0.743028 70.4353 83.1211)" fill="white"/>
<path d="M73.8689 86.9351L72.4953 85.4102L67.9204 89.5308L69.294 91.0558L71.2787 94.7925L73.0713 95.2494C74.0425 94.8256 74.8728 94.1336 75.4646 93.2546L75.74 92.8457L75.8535 90.6718L73.8689 86.9351Z" fill="black"/>
<path d="M74.1389 91.5025C74.0956 91.52 74.0524 91.5374 73.9664 91.5767C73.8805 91.616 73.7532 91.6767 73.5976 91.7664C73.4419 91.8561 73.2617 91.9731 73.1132 92.0834C72.9647 92.1938 72.8534 92.2941 72.6567 92.5168C72.46 92.7394 72.1814 93.0815 71.886 93.4413" stroke="#F5E4E4" stroke-width="0.5" stroke-linecap="round"/>
<path d="M73.1796 90.454C73.1212 90.4704 73.0628 90.4869 72.9431 90.5303C72.8234 90.5737 72.6442 90.6435 72.476 90.7235C72.3079 90.8035 72.1563 90.8915 71.9768 91.0227C71.7973 91.1539 71.5945 91.3255 71.397 91.5233C71.1995 91.7212 71.0133 91.9401 70.8133 92.173" stroke="#F5E4E4" stroke-width="0.5" stroke-linecap="round"/>
<path d="M73.2007 88.9229C73.1506 88.939 73.1006 88.9552 72.994 88.9924C72.8875 89.0297 72.7259 89.0877 72.5062 89.1895C72.2865 89.2913 72.0135 89.4351 71.6928 89.6408C71.3721 89.8465 71.012 90.1096 70.7895 90.2819C70.5671 90.4542 70.4932 90.5277 70.446 90.5765C70.3988 90.6253 70.3805 90.6471 70.3616 90.6696" stroke="#F5E4E4" stroke-width="0.5" stroke-linecap="round"/>
<path d="M70.4248 88.3202C70.436 88.3222 70.4471 88.3241 70.4879 88.3288C70.5286 88.3335 70.5987 88.3408 70.8661 88.3265C71.1335 88.3122 71.5962 88.276 71.8732 88.2489C72.1503 88.2217 72.2276 88.2045 72.2992 88.1837C72.3707 88.1628 72.4342 88.1387 72.4951 88.1109C72.556 88.0832 72.6124 88.0525 72.6543 88.0263C72.7242 87.9827 72.757 87.9494 72.7749 87.9282C72.8197 87.8749 72.8152 87.8181 72.8029 87.7677C72.8 87.7556 72.7956 87.748 72.7714 87.7131C72.7472 87.6783 72.7023 87.6168 72.6652 87.5706C72.628 87.5243 72.5999 87.4953 72.5722 87.4708C72.52 87.4247 72.4639 87.3966 72.4125 87.3789C72.3398 87.3538 72.2934 87.3743 72.2262 87.3994C72.1998 87.4093 72.1659 87.4347 72.106 87.488C72.046 87.5414 71.9627 87.6254 71.8731 87.7481C71.7835 87.8707 71.69 88.0294 71.6046 88.2007C71.5192 88.372 71.4446 88.5511 71.3486 88.7368C71.2525 88.9225 71.1372 89.1094 71.0611 89.2243C70.9851 89.3393 70.9518 89.3766 70.927 89.4027C70.888 89.4438 70.8384 89.4761 70.773 89.5106C70.7412 89.5273 70.7087 89.536 70.6751 89.5414C70.6415 89.5467 70.6069 89.5468 70.5575 89.5408C70.5081 89.5348 70.4448 89.5227 70.3841 89.5057C70.3233 89.4887 70.2669 89.4672 70.2219 89.4481C70.1769 89.4291 70.1451 89.4131 70.1034 89.3872C70.0618 89.3612 70.0113 89.3258 69.9759 89.2977C69.9195 89.2528 69.8895 89.2109 69.868 89.1778C69.8385 89.1325 69.835 89.0567 69.841 88.9825C69.8428 88.9603 69.8547 88.935 69.8692 88.9069C69.8838 88.8788 69.904 88.8492 69.939 88.8082C69.974 88.7672 70.0232 88.7157 70.0681 88.6745C70.1129 88.6334 70.1519 88.6041 70.1767 88.5863C70.2015 88.5685 70.211 88.5631 70.2207 88.5575" stroke="#F5E4E4" stroke-width="0.5" stroke-linecap="round"/>
<rect width="6.15707" height="4.10471" transform="matrix(-0.928291 0.371854 0.371854 0.928291 53.3405 84.1465)" fill="white"/>
<path d="M55.2482 88.9091L54.4851 87.0039L48.7695 89.2934L49.5327 91.1986L50.1065 95.3906L51.6314 96.4379C52.6892 96.3751 53.7072 96.012 54.566 95.3912L54.9655 95.1023L55.822 93.101L55.2482 88.9091Z" fill="black"/>
<path d="M53.9259 93.2921C53.8793 93.2935 53.8327 93.295 53.7385 93.3022C53.6443 93.3095 53.5038 93.3225 53.3268 93.3531C53.1497 93.3836 52.9403 93.4312 52.7628 93.4835C52.5854 93.5359 52.4463 93.5916 52.1848 93.7328C51.9234 93.8739 51.5438 94.0989 51.1425 94.3347" stroke="#F5E4E4" stroke-width="0.5" stroke-linecap="round"/>
<path d="M53.3875 91.9745C53.327 91.9698 53.2665 91.9651 53.1392 91.9645C53.0119 91.964 52.8196 91.9677 52.6341 91.9848C52.4487 92.0018 52.276 92.0322 52.0623 92.0934C51.8486 92.1545 51.5991 92.2457 51.3454 92.3632C51.0918 92.4808 50.8415 92.6221 50.5734 92.7717" stroke="#F5E4E4" stroke-width="0.5" stroke-linecap="round"/>
<path d="M53.9355 90.5474C53.883 90.5453 53.8304 90.5431 53.7175 90.5413C53.6047 90.5396 53.433 90.5383 53.1917 90.558C52.9504 90.5777 52.6445 90.6186 52.2725 90.701C51.9006 90.7834 51.4718 90.9062 51.2035 90.9912C50.9353 91.0762 50.8406 91.1197 50.7795 91.1492C50.7184 91.1787 50.6936 91.1928 50.6681 91.2074" stroke="#F5E4E4" stroke-width="0.5" stroke-linecap="round"/>
<path d="M51.5373 89.023C51.5471 89.0287 51.5569 89.0344 51.5935 89.0529C51.6301 89.0713 51.6934 89.1024 51.9493 89.1812C52.2053 89.26 52.652 89.3857 52.9214 89.4557C53.1908 89.5258 53.2693 89.5364 53.3437 89.5415C53.4181 89.5466 53.4859 89.5458 53.5527 89.5408C53.6194 89.5357 53.683 89.5264 53.7314 89.5163C53.8119 89.4995 53.8542 89.4796 53.8783 89.4658C53.9388 89.4312 53.9541 89.3764 53.96 89.3248C53.9614 89.3125 53.96 89.3038 53.9493 89.2627C53.9386 89.2217 53.9177 89.1485 53.8987 89.0923C53.8798 89.036 53.8635 88.9991 53.8459 88.9665C53.8128 88.9053 53.7698 88.8595 53.7277 88.8252C53.6681 88.7766 53.6175 88.7798 53.5458 88.7802C53.5176 88.7803 53.477 88.7925 53.4023 88.8219C53.3277 88.8513 53.2205 88.9014 53.094 88.9856C52.9676 89.0698 52.8251 89.1866 52.6859 89.3179C52.5466 89.4492 52.4149 89.5915 52.2606 89.7327C52.1064 89.8739 51.9337 90.0095 51.8227 90.0912C51.7116 90.1728 51.6675 90.1964 51.6352 90.2123C51.5845 90.2374 51.5267 90.2507 51.4535 90.2604C51.4178 90.2652 51.3844 90.2621 51.351 90.2556C51.3176 90.249 51.2851 90.2371 51.2408 90.2144C51.1964 90.1918 51.1413 90.1586 51.0901 90.1217C51.0389 90.0848 50.9934 90.0451 50.9577 90.0117C50.9221 89.9783 50.8977 89.9524 50.8676 89.9136C50.8374 89.8749 50.8023 89.8242 50.7788 89.7857C50.7412 89.7241 50.7276 89.6744 50.7188 89.6359C50.7068 89.5833 50.7296 89.5109 50.7608 89.4433C50.7702 89.423 50.7901 89.4034 50.8134 89.382C50.8368 89.3607 50.866 89.3399 50.913 89.3135C50.96 89.2871 51.0239 89.2557 51.0802 89.2325C51.1365 89.2094 51.1832 89.1954 51.2126 89.1872C51.242 89.1791 51.2528 89.1772 51.2639 89.1753" stroke="#F5E4E4" stroke-width="0.5" stroke-linecap="round"/>
<rect x="72.2356" y="45.1523" width="11.9017" height="4.95756" rx="2.47878" transform="rotate(66.5957 72.2356 45.1523)" fill="url(#paint5_linear_166_1057)"/>
<path d="M71.7602 54.8766C72.1357 53.9604 73.0678 53.399 74.0533 53.4955C75.5058 53.6378 76.4373 55.108 75.9456 56.4821L73.258 63.9928C72.8072 65.2525 71.4205 65.9083 70.1608 65.4575C68.8605 64.9922 68.2116 63.5358 68.7353 62.2579L71.7602 54.8766Z" fill="url(#paint6_linear_166_1057)"/>
<rect width="6.48612" height="5.13089" transform="matrix(-0.735019 -0.678046 -0.678046 0.735019 73.5554 47.5)" fill="white"/>
<rect width="12.0036" height="5" rx="2.5" transform="matrix(-0.10054 0.994933 0.994933 0.10054 43.4172 46.5156)" fill="url(#paint7_linear_166_1057)"/>
<path d="M44.2324 59.6897C45.2318 59.9165 46.2616 59.4607 46.7659 58.5686C47.5091 57.2535 46.8177 55.5902 45.3612 55.1896L37.401 53C36.0658 52.6328 34.6857 53.4174 34.3185 54.7526C33.9394 56.1307 34.7873 57.5464 36.1812 57.8627L44.2324 59.6897Z" fill="url(#paint8_linear_166_1057)"/>
<path d="M47.4602 43.1426L43.0995 48.2311L47.7172 52.3361L51.3091 46.441L47.4602 43.1426Z" fill="white"/>
<defs>
<linearGradient id="paint0_linear_166_1057" x1="3.07853" y1="0" x2="3.07853" y2="4.10471" gradientUnits="userSpaceOnUse">
<stop stop-color="#EFC6C6"/>
<stop offset="1" stop-color="#F5E7E7"/>
</linearGradient>
<linearGradient id="paint1_linear_166_1057" x1="3.07853" y1="0" x2="3.07853" y2="4.10471" gradientUnits="userSpaceOnUse">
<stop stop-color="#EFC6C6"/>
<stop offset="1" stop-color="#F5E7E7"/>
</linearGradient>
<linearGradient id="paint2_linear_166_1057" x1="70.5715" y1="86.6515" x2="63.704" y2="79.0265" gradientUnits="userSpaceOnUse">
<stop stop-color="#EFC6C6"/>
<stop offset="1" stop-color="#F5E4E4"/>
</linearGradient>
<linearGradient id="paint3_linear_166_1057" x1="52.3814" y1="86.958" x2="47.9948" y2="76.0097" gradientUnits="userSpaceOnUse">
<stop stop-color="#EFC6C6"/>
<stop offset="1" stop-color="#F5E4E4"/>
</linearGradient>
<linearGradient id="paint4_linear_166_1057" x1="47.2032" y1="24.1147" x2="70.8053" y2="24.1147" gradientUnits="userSpaceOnUse">
<stop stop-color="#FFB300"/>
<stop offset="1" stop-color="#F7F6EB"/>
</linearGradient>
<linearGradient id="paint5_linear_166_1057" x1="76.5337" y1="47.2547" x2="84.0746" y2="48.1559" gradientUnits="userSpaceOnUse">
<stop stop-color="#EFC6C6"/>
<stop offset="1" stop-color="#987F7F"/>
</linearGradient>
<linearGradient id="paint6_linear_166_1057" x1="71.0002" y1="64.009" x2="70.2557" y2="55.5806" gradientUnits="userSpaceOnUse">
<stop stop-color="#EFC6C6"/>
<stop offset="1" stop-color="#B29494"/>
</linearGradient>
<linearGradient id="paint7_linear_166_1057" x1="4.33495" y1="2.12032" x2="11.9404" y2="3.0293" gradientUnits="userSpaceOnUse">
<stop stop-color="#EFC6C6"/>
<stop offset="1" stop-color="#987F7F"/>
</linearGradient>
<linearGradient id="paint8_linear_166_1057" x1="36.0446" y1="54.9029" x2="42.7415" y2="60.5455" gradientUnits="userSpaceOnUse">
<stop stop-color="#EFC6C6"/>
<stop offset="1" stop-color="#B29494"/>
</linearGradient>
</defs>
</svg>
