<svg width="50" height="90" viewBox="0 0 50 90" fill="none" xmlns="http://www.w3.org/2000/svg">
<path d="M36.1578 37.9692C36.1578 36.2689 34.7795 34.8906 33.0793 34.8906H15.6342C13.934 34.8906 12.5557 36.2689 12.5557 37.9692C12.5557 39.6694 13.934 41.0477 15.6342 41.0477H33.0793C34.7795 41.0477 36.1578 39.6694 36.1578 37.9692Z" fill="white"/>
<rect width="6.15707" height="4.10471" transform="matrix(-0.874369 -0.485262 -0.485262 0.874369 19.7286 68.7617)" fill="url(#paint0_linear_166_1057)"/>
<rect width="6.15707" height="4.10471" transform="matrix(-0.803969 0.594672 0.594672 0.803969 33.3321 66.7344)" fill="url(#paint1_linear_166_1057)"/>
<path d="M34.7793 69.0133C33.2382 68.2951 31.4067 68.9622 30.6885 70.5033C29.9703 72.0444 30.6374 73.8759 32.1785 74.5941L38.6895 77.6283L41.2902 72.0474L34.7793 69.0133Z" fill="url(#paint2_linear_166_1057)"/>
<path d="M18.0235 71.0116C18.188 69.4649 17.1981 68.0299 15.6938 67.6343C13.8081 67.1384 11.9297 68.4586 11.7575 70.4007L11.0538 78.3358L17.1863 78.8853L18.0235 71.0116Z" fill="url(#paint3_linear_166_1057)"/>
<rect width="6.67016" height="8.20942" transform="matrix(-0.863815 0.503809 0.503809 0.863815 30.1505 59.6836)" fill="#272727"/>
<path d="M26.9141 63.6165L26.9145 60.5376L17.9734 58.4848L14.0567 65.6996L19.9187 68.882L22.8095 63.6169L26.9141 63.6165Z" fill="#272727"/>
<path d="M36.1578 37.9668H13.5819L15.1212 61.5689H16.6539H33.0728H34.1054L36.1578 37.9668Z" fill="white"/>
<line x1="23.9625" y1="41.9336" x2="19.8217" y2="49.18" stroke="#0720FF"/>
<line x1="28.1041" y1="41.9336" x2="23.9633" y2="49.18" stroke="#FF0000"/>
<line x1="26.0338" y1="41.9336" x2="21.893" y2="49.18" stroke="#FBFF00"/>
<path d="M20.3033 44.7216C20.2976 44.6643 20.2732 44.6198 20.2301 44.5881C20.187 44.5563 20.1286 44.5405 20.0547 44.5405C20.0045 44.5405 19.9621 44.5476 19.9276 44.5618C19.893 44.5755 19.8665 44.5947 19.848 44.6193C19.83 44.6439 19.821 44.6719 19.821 44.7031C19.8201 44.7292 19.8255 44.7519 19.8374 44.7713C19.8497 44.7907 19.8665 44.8075 19.8878 44.8217C19.9091 44.8355 19.9337 44.8475 19.9616 44.858C19.9896 44.8679 20.0194 44.8764 20.0511 44.8835L20.1818 44.9148C20.2453 44.929 20.3035 44.9479 20.3565 44.9716C20.4096 44.9953 20.4555 45.0244 20.4943 45.0589C20.5331 45.0935 20.5632 45.1342 20.5845 45.1811C20.6063 45.228 20.6174 45.2817 20.6179 45.3423C20.6174 45.4313 20.5947 45.5085 20.5497 45.5739C20.5052 45.6387 20.4408 45.6892 20.3565 45.7251C20.2727 45.7607 20.1716 45.7784 20.0533 45.7784C19.9358 45.7784 19.8336 45.7604 19.7464 45.7244C19.6598 45.6884 19.5921 45.6352 19.5433 45.5646C19.495 45.4936 19.4697 45.4058 19.4673 45.3011H19.7649C19.7682 45.3499 19.7822 45.3906 19.8068 45.4233C19.8319 45.4555 19.8653 45.4799 19.907 45.4964C19.9491 45.5125 19.9967 45.5206 20.0497 45.5206C20.1018 45.5206 20.147 45.513 20.1854 45.4979C20.2242 45.4827 20.2543 45.4616 20.2756 45.4347C20.2969 45.4077 20.3075 45.3767 20.3075 45.3416C20.3075 45.3089 20.2978 45.2815 20.2784 45.2592C20.2595 45.237 20.2315 45.218 20.1946 45.2024C20.1581 45.1868 20.1134 45.1726 20.0604 45.1598L19.902 45.12C19.7794 45.0902 19.6825 45.0436 19.6115 44.9801C19.5405 44.9167 19.5052 44.8312 19.5057 44.7237C19.5052 44.6357 19.5286 44.5587 19.576 44.4929C19.6238 44.4271 19.6894 44.3757 19.7727 44.3388C19.8561 44.3018 19.9508 44.2834 20.0568 44.2834C20.1648 44.2834 20.259 44.3018 20.3395 44.3388C20.4205 44.3757 20.4834 44.4271 20.5284 44.4929C20.5734 44.5587 20.5966 44.6349 20.598 44.7216H20.3033ZM21.0423 45.7578H20.7127L21.2148 44.3033H21.6111L22.1126 45.7578H21.783L21.4187 44.6357H21.4073L21.0423 45.7578ZM21.0217 45.1861H21.8001V45.4261H21.0217V45.1861ZM22.2876 45.7578V44.3033H22.5952V45.5043H23.2187V45.7578H22.2876ZM24.7024 45.0305C24.7024 45.1892 24.6723 45.3241 24.6122 45.4354C24.5526 45.5466 24.4711 45.6316 24.3679 45.6903C24.2652 45.7486 24.1496 45.7777 24.0213 45.7777C23.892 45.7777 23.776 45.7483 23.6733 45.6896C23.5705 45.6309 23.4893 45.5459 23.4297 45.4347C23.37 45.3234 23.3402 45.1887 23.3402 45.0305C23.3402 44.8719 23.37 44.737 23.4297 44.6257C23.4893 44.5144 23.5705 44.4297 23.6733 44.3714C23.776 44.3127 23.892 44.2834 24.0213 44.2834C24.1496 44.2834 24.2652 44.3127 24.3679 44.3714C24.4711 44.4297 24.5526 44.5144 24.6122 44.6257C24.6723 44.737 24.7024 44.8719 24.7024 45.0305ZM24.3906 45.0305C24.3906 44.9278 24.3752 44.8411 24.3445 44.7706C24.3142 44.7 24.2713 44.6465 24.2159 44.6101C24.1605 44.5736 24.0956 44.5554 24.0213 44.5554C23.947 44.5554 23.8821 44.5736 23.8267 44.6101C23.7713 44.6465 23.7282 44.7 23.6974 44.7706C23.6671 44.8411 23.652 44.9278 23.652 45.0305C23.652 45.1333 23.6671 45.2199 23.6974 45.2905C23.7282 45.361 23.7713 45.4145 23.8267 45.451C23.8821 45.4875 23.947 45.5057 24.0213 45.5057C24.0956 45.5057 24.1605 45.4875 24.2159 45.451C24.2713 45.4145 24.3142 45.361 24.3445 45.2905C24.3752 45.2199 24.3906 45.1333 24.3906 45.0305ZM24.9302 44.3033H25.3095L25.71 45.2805H25.7271L26.1277 44.3033H26.5069V45.7578H26.2086V44.8111H26.1966L25.8201 45.7507H25.617L25.2406 44.8075H25.2285V45.7578H24.9302V44.3033ZM28.0969 45.0305C28.0969 45.1892 28.0669 45.3241 28.0067 45.4354C27.9471 45.5466 27.8656 45.6316 27.7624 45.6903C27.6597 45.7486 27.5442 45.7777 27.4158 45.7777C27.2866 45.7777 27.1706 45.7483 27.0678 45.6896C26.9651 45.6309 26.8839 45.5459 26.8242 45.4347C26.7646 45.3234 26.7347 45.1887 26.7347 45.0305C26.7347 44.8719 26.7646 44.737 26.8242 44.6257C26.8839 44.5144 26.9651 44.4297 27.0678 44.3714C27.1706 44.3127 27.2866 44.2834 27.4158 44.2834C27.5442 44.2834 27.6597 44.3127 27.7624 44.3714C27.8656 44.4297 27.9471 44.5144 28.0067 44.6257C28.0669 44.737 28.0969 44.8719 28.0969 45.0305ZM27.7852 45.0305C27.7852 44.9278 27.7698 44.8411 27.739 44.7706C27.7087 44.7 27.6658 44.6465 27.6104 44.6101C27.555 44.5736 27.4902 44.5554 27.4158 44.5554C27.3415 44.5554 27.2766 44.5736 27.2212 44.6101C27.1658 44.6465 27.1227 44.7 27.092 44.7706C27.0617 44.8411 27.0465 44.9278 27.0465 45.0305C27.0465 45.1333 27.0617 45.2199 27.092 45.2905C27.1227 45.361 27.1658 45.4145 27.2212 45.451C27.2766 45.4875 27.3415 45.5057 27.4158 45.5057C27.4902 45.5057 27.555 45.4875 27.6104 45.451C27.6658 45.4145 27.7087 45.361 27.739 45.2905C27.7698 45.2199 27.7852 45.1333 27.7852 45.0305ZM29.5414 44.3033V45.7578H29.2757L28.6429 44.8423H28.6323V45.7578H28.3248V44.3033H28.5946L29.2225 45.218H29.2353V44.3033H29.5414Z" fill="black"/>
<path d="M29.8232 29.7578H19.5614L20.0745 33.8625C19.8059 35.4741 21.0486 36.9411 22.6824 36.9411H26.7766C28.2188 36.9411 29.1912 35.4664 28.623 34.1408C28.4065 33.6354 28.4065 33.0634 28.623 32.5581L29.8232 29.7578Z" fill="#EFC6C6"/>
<path d="M37.6974 10.2637H12.043L11.5299 15.3946H38.2105L37.6974 10.2637Z" fill="#EFC6C6"/>
<ellipse cx="14.3665" cy="13.8534" rx="14.3665" ry="13.8534" transform="matrix(-1 0 0 1 39.2301 5.13086)" fill="#EFC6C6"/>
<path d="M13.8546 21.8623H22.6554L22.7911 21.5781L24.3722 18.2705H26.3165L27.8966 21.5781L28.0323 21.8623H36.4044V14.4854L34.1075 12.1885L33.9737 12.1553L31.921 11.6416L31.8194 11.6162L31.7159 11.6338L28.7393 12.1396H21.5206L18.4112 11.6338L18.3184 11.6182L18.2257 11.6387L15.8536 12.1514L15.7003 12.1846L15.5929 12.2998L13.9884 14.0254L13.8546 14.1689V21.8623Z" fill="url(#paint4_linear_166_1057)" stroke="black"/>
<path d="M39.2566 17.4453L36.3412 16.4206L36.0114 17.3924L39.2565 18.4716L39.2566 17.4453Z" fill="black"/>
<path d="M39.2519 18.4151L36.9749 17.4434L36.6452 18.4151L39.2559 19.4979L39.2519 18.4151Z" fill="black"/>
<path d="M10.4284 16.549L13.721 15.3917L14.0934 16.4892L10.4286 17.708L10.4284 16.549Z" fill="black"/>
<path d="M10.4766 17.6318L13.3479 16.4326L13.7203 17.5301L10.4294 18.8691L10.4766 17.6318Z" fill="black"/>
<line x1="25.679" y1="19.8437" x2="24.8627" y2="22.2925" stroke="black"/>
<line x1="24.5464" y1="22.4768" x2="26.9952" y2="23.2931" stroke="black"/>
<ellipse cx="5.64398" cy="1.53927" rx="5.64398" ry="1.53927" transform="matrix(-1 0 0 1 29.9937 26.6816)" fill="#EFA7A7"/>
<path d="M35.542 2.56544L24.8697 0L13.6639 2.56544L11.5294 10.2618H38.21L35.542 2.56544Z" fill="#5C7780"/>
<path d="M35.4308 7.1838L24.8697 5.64453L13.7528 7.1838L11.5294 10.2623H38.21L35.4308 7.1838Z" fill="#283134"/>
<rect width="6.15707" height="4.10471" transform="matrix(-0.536493 0.843905 0.843905 0.536493 39.8404 71.4766)" fill="white"/>
<path d="M44.1701 74.23L42.4381 73.1289L39.1349 78.3249L40.8668 79.426L43.7803 82.4941L45.6298 82.4539C46.452 81.7853 47.0664 80.8961 47.401 79.8907L47.5567 79.4229L47.0835 77.2981L44.1701 74.23Z" fill="black"/>
<path d="M45.6545 78.5589C45.6175 78.5872 45.5805 78.6156 45.5082 78.6765C45.436 78.7374 45.3296 78.83 45.2037 78.9582C45.0778 79.0863 44.9355 79.2472 44.822 79.3934C44.7086 79.5395 44.6282 79.6659 44.4984 79.9332C44.3685 80.2004 44.1917 80.6047 44.0036 81.0305" stroke="#F5E4E4" stroke-width="0.5" stroke-linecap="round"/>
<path d="M44.4491 77.8057C44.3972 77.8372 44.3454 77.8687 44.2417 77.9426C44.138 78.0165 43.9841 78.1317 43.8435 78.2539C43.703 78.376 43.5805 78.5015 43.4427 78.676C43.3049 78.8504 43.1556 79.0701 43.0183 79.3136C42.881 79.5572 42.7603 79.818 42.6301 80.096" stroke="#F5E4E4" stroke-width="0.5" stroke-linecap="round"/>
<path d="M44.0597 76.3244C44.0158 76.3533 43.9719 76.3822 43.8792 76.4467C43.7865 76.5112 43.6464 76.6103 43.462 76.7673C43.2776 76.9242 43.0532 77.1359 42.7993 77.42C42.5455 77.7041 42.269 78.0542 42.1009 78.2798C41.9328 78.5054 41.8813 78.596 41.8489 78.6557C41.8165 78.7153 41.8047 78.7412 41.7925 78.768" stroke="#F5E4E4" stroke-width="0.5" stroke-linecap="round"/>
<path d="M41.2236 76.4879C41.2348 76.4868 41.2461 76.4858 41.2866 76.4793C41.3271 76.4729 41.3966 76.4612 41.6504 76.3758C41.9042 76.2903 42.3403 76.1315 42.5999 76.031C42.8595 75.9306 42.9294 75.8934 42.9928 75.8541C43.0561 75.8148 43.1108 75.7746 43.162 75.7315C43.2133 75.6884 43.2594 75.6437 43.2928 75.6073C43.3484 75.5466 43.3711 75.5057 43.3826 75.4804C43.4115 75.4171 43.392 75.3636 43.3666 75.3183C43.3606 75.3075 43.3543 75.3013 43.3217 75.2742C43.289 75.2471 43.2293 75.1999 43.1811 75.1653C43.1329 75.1308 43.098 75.1103 43.0648 75.0941C43.0022 75.0637 42.9405 75.0517 42.8863 75.0484C42.8096 75.0437 42.7703 75.0759 42.7123 75.118C42.6895 75.1346 42.6636 75.1682 42.6202 75.2356C42.5768 75.3031 42.519 75.4064 42.4655 75.5486C42.4121 75.6908 42.3646 75.8687 42.3282 76.0567C42.2918 76.2446 42.268 76.4371 42.2252 76.6417C42.1824 76.8464 42.1214 77.0573 42.0789 77.1885C42.0365 77.3196 42.0144 77.3645 41.9975 77.3963C41.971 77.4463 41.9318 77.4907 41.8781 77.5414C41.8519 77.5661 41.8229 77.5832 41.792 77.5973C41.7611 77.6115 41.7277 77.6209 41.6785 77.6283C41.6293 77.6358 41.5651 77.641 41.502 77.641C41.4389 77.6409 41.3788 77.6353 41.3303 77.629C41.2819 77.6227 41.2469 77.6159 41.1999 77.602C41.1528 77.5882 41.0947 77.5675 41.0531 77.5499C40.9867 77.5219 40.9465 77.4895 40.9169 77.4634C40.8764 77.4277 40.8527 77.3556 40.8386 77.2825C40.8344 77.2606 40.839 77.233 40.8455 77.2021C40.852 77.1711 40.8636 77.1371 40.8863 77.0883C40.9091 77.0394 40.9427 76.9766 40.9748 76.9249C41.007 76.8732 41.0367 76.8346 41.0559 76.8108C41.075 76.787 41.0826 76.7792 41.0905 76.7712" stroke="#F5E4E4" stroke-width="0.5" stroke-linecap="round"/>
<rect width="6.15707" height="4.10471" transform="matrix(-0.996003 -0.0893209 -0.0893209 0.996003 17.3121 77.8926)" fill="white"/>
<path d="M16.8529 83.0031L17.0362 80.959L10.9038 80.409L10.7204 82.4532L9.33173 86.4498L10.2163 88.0746C11.1877 88.4982 12.2597 88.6359 13.3065 88.4718L13.7936 88.3954L15.4642 86.9998L16.8529 83.0031Z" fill="black"/>
<path d="M13.6877 86.3082C13.6455 86.2883 13.6033 86.2685 13.5161 86.2323C13.4288 86.196 13.2977 86.144 13.1261 86.091C12.9544 86.0379 12.7462 85.9854 12.5643 85.9516C12.3823 85.9179 12.2331 85.9045 11.9361 85.9118C11.6391 85.9191 11.1988 85.9476 10.7341 85.9759" stroke="#F5E4E4" stroke-width="0.5" stroke-linecap="round"/>
<path d="M13.8051 84.8907C13.7533 84.859 13.7015 84.8274 13.5883 84.7692C13.4751 84.711 13.302 84.6271 13.129 84.5583C12.956 84.4895 12.7883 84.4383 12.57 84.3959C12.3518 84.3536 12.0881 84.3217 11.8087 84.3115C11.5293 84.3014 11.2422 84.3138 10.9354 84.3257" stroke="#F5E4E4" stroke-width="0.5" stroke-linecap="round"/>
<path d="M14.9404 83.8686C14.8945 83.8429 14.8487 83.8172 14.7488 83.7644C14.649 83.7117 14.4966 83.6327 14.2726 83.5409C14.0485 83.4491 13.7574 83.3469 13.3885 83.2517C13.0195 83.1566 12.5816 83.0716 12.304 83.0258C12.0264 82.98 11.9223 82.9759 11.8544 82.9745C11.7866 82.973 11.7581 82.9744 11.7288 82.9759" stroke="#F5E4E4" stroke-width="0.5" stroke-linecap="round"/>
<path d="M13.4939 81.4216C13.5 81.4311 13.5062 81.4406 13.5305 81.4736C13.5548 81.5067 13.597 81.563 13.7895 81.7493C13.9819 81.9356 14.3231 82.2501 14.5315 82.4346C14.7399 82.6192 14.8051 82.6642 14.869 82.7025C14.933 82.7407 14.9939 82.7708 15.0556 82.7966C15.1174 82.8223 15.1783 82.8428 15.226 82.8558C15.3054 82.8773 15.3522 82.8787 15.3799 82.8774C15.4495 82.8739 15.488 82.832 15.5167 82.7887C15.5235 82.7784 15.5261 82.77 15.5352 82.7285C15.5443 82.6871 15.5588 82.6123 15.5674 82.5536C15.576 82.495 15.5782 82.4546 15.5773 82.4176C15.5756 82.348 15.558 82.2878 15.536 82.2381C15.505 82.1677 15.4584 82.1477 15.3943 82.1155C15.3691 82.1029 15.3274 82.0953 15.2475 82.0876C15.1676 82.08 15.0494 82.0761 14.8985 82.0939C14.7476 82.1116 14.5677 82.1511 14.384 82.205C14.2004 82.2589 14.0184 82.3261 13.817 82.382C13.6155 82.4379 13.4001 82.4805 13.2641 82.503C13.1281 82.5255 13.0781 82.5265 13.0421 82.526C12.9855 82.5254 12.928 82.5111 12.8583 82.4866C12.8244 82.4746 12.7959 82.4567 12.7691 82.4358C12.7423 82.4148 12.7187 82.3895 12.6895 82.3491C12.6603 82.3088 12.6262 82.2542 12.5973 82.1981C12.5684 82.142 12.5457 82.0861 12.5291 82.0401C12.5125 81.9942 12.5025 81.96 12.4932 81.9118C12.4839 81.8637 12.4756 81.8025 12.4721 81.7575C12.4665 81.6856 12.4769 81.6351 12.4865 81.5968C12.4996 81.5445 12.5528 81.4903 12.6113 81.4442C12.6288 81.4304 12.6554 81.4219 12.6859 81.4134C12.7164 81.405 12.7519 81.3997 12.8058 81.3975C12.8596 81.3952 12.9308 81.3962 12.9915 81.4011C13.0522 81.406 13.1001 81.4147 13.13 81.4207C13.16 81.4268 13.1704 81.43 13.1812 81.4334" stroke="#F5E4E4" stroke-width="0.5" stroke-linecap="round"/>
<rect x="38.6129" y="37.9688" width="11.9017" height="4.95756" rx="2.47878" transform="rotate(66.5957 38.6129 37.9688)" fill="url(#paint5_linear_166_1057)"/>
<path d="M38.1375 47.6931C38.513 46.7768 39.4451 46.2154 40.4306 46.3119C41.8831 46.4542 42.8146 47.9244 42.3229 49.2986L39.6353 56.8092C39.1845 58.0689 37.7979 58.7247 36.5381 58.2739C35.2378 57.8086 34.5889 56.3522 35.1126 55.0743L38.1375 47.6931Z" fill="url(#paint6_linear_166_1057)"/>
<rect width="6.48612" height="5.13089" transform="matrix(-0.735019 -0.678046 -0.678046 0.735019 39.9327 40.3164)" fill="white"/>
<rect width="12.0036" height="5" rx="2.5" transform="matrix(-0.10054 0.994933 0.994933 0.10054 9.79452 39.332)" fill="url(#paint7_linear_166_1057)"/>
<path d="M10.6097 52.5061C11.6091 52.7329 12.6389 52.2771 13.1432 51.385C13.8864 50.0699 13.195 48.4066 11.7386 48.006L3.77834 45.8164C2.44317 45.4492 1.06307 46.2338 0.695807 47.569C0.316724 48.9471 1.16462 50.3628 2.5585 50.6791L10.6097 52.5061Z" fill="url(#paint8_linear_166_1057)"/>
<path d="M13.8375 35.959L9.47678 41.0475L14.0945 45.1525L17.6864 39.2574L13.8375 35.959Z" fill="white"/>
<defs>
<linearGradient id="paint0_linear_166_1057" x1="3.07853" y1="0" x2="3.07853" y2="4.10471" gradientUnits="userSpaceOnUse">
<stop stop-color="#EFC6C6"/>
<stop offset="1" stop-color="#F5E7E7"/>
</linearGradient>
<linearGradient id="paint1_linear_166_1057" x1="3.07853" y1="0" x2="3.07853" y2="4.10471" gradientUnits="userSpaceOnUse">
<stop stop-color="#EFC6C6"/>
<stop offset="1" stop-color="#F5E7E7"/>
</linearGradient>
<linearGradient id="paint2_linear_166_1057" x1="41.426" y1="74.7855" x2="32.1246" y2="70.451" gradientUnits="userSpaceOnUse">
<stop stop-color="#EFC6C6"/>
<stop offset="1" stop-color="#F5E4E4"/>
</linearGradient>
<linearGradient id="paint3_linear_166_1057" x1="15.1411" y1="80.0263" x2="16.1937" y2="68.2789" gradientUnits="userSpaceOnUse">
<stop stop-color="#EFC6C6"/>
<stop offset="1" stop-color="#F5E4E4"/>
</linearGradient>
<linearGradient id="paint4_linear_166_1057" x1="13.5805" y1="16.9311" x2="37.1826" y2="16.9311" gradientUnits="userSpaceOnUse">
<stop stop-color="#FFB300"/>
<stop offset="1" stop-color="#F7F6EB"/>
</linearGradient>
<linearGradient id="paint5_linear_166_1057" x1="42.911" y1="40.0711" x2="50.4519" y2="40.9723" gradientUnits="userSpaceOnUse">
<stop stop-color="#EFC6C6"/>
<stop offset="1" stop-color="#987F7F"/>
</linearGradient>
<linearGradient id="paint6_linear_166_1057" x1="37.3775" y1="56.8254" x2="36.6331" y2="48.397" gradientUnits="userSpaceOnUse">
<stop stop-color="#EFC6C6"/>
<stop offset="1" stop-color="#B29494"/>
</linearGradient>
<linearGradient id="paint7_linear_166_1057" x1="4.33495" y1="2.12032" x2="11.9404" y2="3.0293" gradientUnits="userSpaceOnUse">
<stop stop-color="#EFC6C6"/>
<stop offset="1" stop-color="#987F7F"/>
</linearGradient>
<linearGradient id="paint8_linear_166_1057" x1="2.42196" y1="47.7193" x2="9.11882" y2="53.3619" gradientUnits="userSpaceOnUse">
<stop stop-color="#EFC6C6"/>
<stop offset="1" stop-color="#B29494"/>
</linearGradient>
</defs>
</svg>
