<svg width="45" height="91" viewBox="0 0 45 91" fill="none" xmlns="http://www.w3.org/2000/svg">
<path d="M36.1582 37.9692C36.1582 36.2689 34.7799 34.8906 33.0797 34.8906H15.6346C13.9344 34.8906 12.5561 36.2689 12.5561 37.9692C12.5561 39.6694 13.9344 41.0477 15.6346 41.0477H33.0797C34.7799 41.0477 36.1582 39.6694 36.1582 37.9692Z" fill="white"/>
<rect width="6.15707" height="4.10471" transform="matrix(-0.874369 -0.485262 -0.485262 0.874369 19.7393 68.6621)" fill="url(#paint0_linear_166_1057)"/>
<rect width="6.15707" height="4.10471" transform="matrix(-0.978148 0.207912 0.207912 0.978148 32.7402 68.2441)" fill="url(#paint1_linear_166_1057)"/>
<path d="M33.0871 71.557C31.9493 70.2937 30.0027 70.1919 28.7393 71.3298C27.476 72.4676 27.3742 74.4142 28.5121 75.6776L33.3193 81.0151L37.8944 76.8946L33.0871 71.557Z" fill="url(#paint2_linear_166_1057)"/>
<path d="M17.2422 70.4326C16.6877 68.9793 15.155 68.1489 13.6348 68.4782C11.7291 68.8909 10.6532 70.919 11.38 72.7283L14.3496 80.1203L20.065 77.8303L17.2422 70.4326Z" fill="url(#paint3_linear_166_1057)"/>
<rect width="6.67016" height="8.20942" transform="matrix(-0.981627 0.190809 0.190809 0.981627 31.5132 60.5449)" fill="#272727"/>
<path d="M26.9213 63.6243L26.9217 60.5454L17.9806 58.4926L14.0639 65.7074L19.926 68.8898L22.8167 63.6247L26.9213 63.6243Z" fill="#272727"/>
<path d="M36.1582 37.9668H13.5823L15.1216 61.5689H16.6543H33.0732H34.1058L36.1582 37.9668Z" fill="white"/>
<line x1="23.9629" y1="41.9336" x2="19.8221" y2="49.18" stroke="#0720FF"/>
<line x1="28.1045" y1="41.9336" x2="23.9637" y2="49.18" stroke="#FF0000"/>
<line x1="26.0342" y1="41.9336" x2="21.8934" y2="49.18" stroke="#FBFF00"/>
<path d="M20.3037 44.7216C20.298 44.6643 20.2736 44.6198 20.2305 44.5881C20.1874 44.5563 20.129 44.5405 20.0551 44.5405C20.0049 44.5405 19.9625 44.5476 19.928 44.5618C19.8934 44.5755 19.8669 44.5947 19.8484 44.6193C19.8304 44.6439 19.8214 44.6719 19.8214 44.7031C19.8205 44.7292 19.8259 44.7519 19.8378 44.7713C19.8501 44.7907 19.8669 44.8075 19.8882 44.8217C19.9095 44.8355 19.9341 44.8475 19.962 44.858C19.99 44.8679 20.0198 44.8764 20.0515 44.8835L20.1822 44.9148C20.2457 44.929 20.3039 44.9479 20.3569 44.9716C20.41 44.9953 20.4559 45.0244 20.4947 45.0589C20.5335 45.0935 20.5636 45.1342 20.5849 45.1811C20.6067 45.228 20.6178 45.2817 20.6183 45.3423C20.6178 45.4313 20.5951 45.5085 20.5501 45.5739C20.5056 45.6387 20.4412 45.6892 20.3569 45.7251C20.2731 45.7607 20.172 45.7784 20.0537 45.7784C19.9362 45.7784 19.834 45.7604 19.7468 45.7244C19.6602 45.6884 19.5925 45.6352 19.5437 45.5646C19.4954 45.4936 19.4701 45.4058 19.4677 45.3011H19.7653C19.7686 45.3499 19.7826 45.3906 19.8072 45.4233C19.8323 45.4555 19.8657 45.4799 19.9074 45.4964C19.9495 45.5125 19.9971 45.5206 20.0501 45.5206C20.1022 45.5206 20.1474 45.513 20.1858 45.4979C20.2246 45.4827 20.2547 45.4616 20.276 45.4347C20.2973 45.4077 20.3079 45.3767 20.3079 45.3416C20.3079 45.3089 20.2982 45.2815 20.2788 45.2592C20.2599 45.237 20.2319 45.218 20.195 45.2024C20.1585 45.1868 20.1138 45.1726 20.0608 45.1598L19.9024 45.12C19.7798 45.0902 19.6829 45.0436 19.6119 44.9801C19.5409 44.9167 19.5056 44.8312 19.5061 44.7237C19.5056 44.6357 19.529 44.5587 19.5764 44.4929C19.6242 44.4271 19.6898 44.3757 19.7731 44.3388C19.8565 44.3018 19.9512 44.2834 20.0572 44.2834C20.1652 44.2834 20.2594 44.3018 20.3399 44.3388C20.4209 44.3757 20.4838 44.4271 20.5288 44.4929C20.5738 44.5587 20.597 44.6349 20.5984 44.7216H20.3037ZM21.0427 45.7578H20.7131L21.2152 44.3033H21.6116L22.113 45.7578H21.7834L21.4191 44.6357H21.4077L21.0427 45.7578ZM21.0221 45.1861H21.8005V45.4261H21.0221V45.1861ZM22.288 45.7578V44.3033H22.5956V45.5043H23.2191V45.7578H22.288ZM24.7028 45.0305C24.7028 45.1892 24.6727 45.3241 24.6126 45.4354C24.553 45.5466 24.4715 45.6316 24.3683 45.6903C24.2656 45.7486 24.15 45.7777 24.0217 45.7777C23.8924 45.7777 23.7764 45.7483 23.6737 45.6896C23.5709 45.6309 23.4897 45.5459 23.4301 45.4347C23.3704 45.3234 23.3406 45.1887 23.3406 45.0305C23.3406 44.8719 23.3704 44.737 23.4301 44.6257C23.4897 44.5144 23.5709 44.4297 23.6737 44.3714C23.7764 44.3127 23.8924 44.2834 24.0217 44.2834C24.15 44.2834 24.2656 44.3127 24.3683 44.3714C24.4715 44.4297 24.553 44.5144 24.6126 44.6257C24.6727 44.737 24.7028 44.8719 24.7028 45.0305ZM24.391 45.0305C24.391 44.9278 24.3756 44.8411 24.3449 44.7706C24.3146 44.7 24.2717 44.6465 24.2163 44.6101C24.1609 44.5736 24.096 44.5554 24.0217 44.5554C23.9474 44.5554 23.8825 44.5736 23.8271 44.6101C23.7717 44.6465 23.7286 44.7 23.6978 44.7706C23.6675 44.8411 23.6524 44.9278 23.6524 45.0305C23.6524 45.1333 23.6675 45.2199 23.6978 45.2905C23.7286 45.361 23.7717 45.4145 23.8271 45.451C23.8825 45.4875 23.9474 45.5057 24.0217 45.5057C24.096 45.5057 24.1609 45.4875 24.2163 45.451C24.2717 45.4145 24.3146 45.361 24.3449 45.2905C24.3756 45.2199 24.391 45.1333 24.391 45.0305ZM24.9306 44.3033H25.3099L25.7104 45.2805H25.7275L26.1281 44.3033H26.5073V45.7578H26.209V44.8111H26.197L25.8205 45.7507H25.6174L25.241 44.8075H25.2289V45.7578H24.9306V44.3033ZM28.0973 45.0305C28.0973 45.1892 28.0673 45.3241 28.0071 45.4354C27.9475 45.5466 27.866 45.6316 27.7628 45.6903C27.6601 45.7486 27.5446 45.7777 27.4162 45.7777C27.287 45.7777 27.171 45.7483 27.0682 45.6896C26.9655 45.6309 26.8843 45.5459 26.8246 45.4347C26.765 45.3234 26.7351 45.1887 26.7351 45.0305C26.7351 44.8719 26.765 44.737 26.8246 44.6257C26.8843 44.5144 26.9655 44.4297 27.0682 44.3714C27.171 44.3127 27.287 44.2834 27.4162 44.2834C27.5446 44.2834 27.6601 44.3127 27.7628 44.3714C27.866 44.4297 27.9475 44.5144 28.0071 44.6257C28.0673 44.737 28.0973 44.8719 28.0973 45.0305ZM27.7856 45.0305C27.7856 44.9278 27.7702 44.8411 27.7394 44.7706C27.7091 44.7 27.6662 44.6465 27.6108 44.6101C27.5554 44.5736 27.4906 44.5554 27.4162 44.5554C27.3419 44.5554 27.277 44.5736 27.2216 44.6101C27.1662 44.6465 27.1232 44.7 27.0924 44.7706C27.0621 44.8411 27.0469 44.9278 27.0469 45.0305C27.0469 45.1333 27.0621 45.2199 27.0924 45.2905C27.1232 45.361 27.1662 45.4145 27.2216 45.451C27.277 45.4875 27.3419 45.5057 27.4162 45.5057C27.4906 45.5057 27.5554 45.4875 27.6108 45.451C27.6662 45.4145 27.7091 45.361 27.7394 45.2905C27.7702 45.2199 27.7856 45.1333 27.7856 45.0305ZM29.5418 44.3033V45.7578H29.2761L28.6433 44.8423H28.6327V45.7578H28.3252V44.3033H28.595L29.2229 45.218H29.2357V44.3033H29.5418Z" fill="black"/>
<path d="M29.8236 29.7578H19.5618L20.0749 33.8625C19.8063 35.4741 21.049 36.9411 22.6828 36.9411H26.777C28.2192 36.9411 29.1916 35.4664 28.6234 34.1408C28.4069 33.6354 28.4069 33.0634 28.6234 32.5581L29.8236 29.7578Z" fill="#EFC6C6"/>
<path d="M37.6974 10.2637H12.0429L11.5298 15.3946H38.2104L37.6974 10.2637Z" fill="#EFC6C6"/>
<ellipse cx="14.3665" cy="13.8534" rx="14.3665" ry="13.8534" transform="matrix(-1 0 0 1 39.23 5.13086)" fill="#EFC6C6"/>
<path d="M13.855 21.8623H22.6558L22.7915 21.5781L24.3726 18.2705H26.3169L27.897 21.5781L28.0327 21.8623H36.4048V14.4854L34.1079 12.1885L33.9741 12.1553L31.9214 11.6416L31.8198 11.6162L31.7163 11.6338L28.7397 12.1396H21.521L18.4116 11.6338L18.3188 11.6182L18.2261 11.6387L15.854 12.1514L15.7007 12.1846L15.5933 12.2998L13.9888 14.0254L13.855 14.1689V21.8623Z" fill="url(#paint4_linear_166_1057)" stroke="black"/>
<path d="M39.257 17.4453L36.3416 16.4206L36.0118 17.3924L39.2569 18.4716L39.257 17.4453Z" fill="black"/>
<path d="M39.2523 18.4151L36.9753 17.4434L36.6456 18.4151L39.2563 19.4979L39.2523 18.4151Z" fill="black"/>
<path d="M10.4288 16.549L13.7214 15.3917L14.0938 16.4892L10.429 17.708L10.4288 16.549Z" fill="black"/>
<path d="M10.477 17.6318L13.3483 16.4326L13.7207 17.5301L10.4298 18.8691L10.477 17.6318Z" fill="black"/>
<line x1="25.6789" y1="19.8437" x2="24.8627" y2="22.2925" stroke="black"/>
<line x1="24.5463" y1="22.4768" x2="26.9951" y2="23.2931" stroke="black"/>
<ellipse cx="5.64398" cy="1.53927" rx="5.64398" ry="1.53927" transform="matrix(-1 0 0 1 29.9937 26.6816)" fill="#EFA7A7"/>
<path d="M35.5424 2.56544L24.8701 0L13.6643 2.56544L11.5298 10.2618H38.2104L35.5424 2.56544Z" fill="#5C7780"/>
<path d="M35.4312 7.1838L24.8701 5.64453L13.7532 7.1838L11.5298 10.2623H38.2104L35.4312 7.1838Z" fill="#283134"/>
<rect width="6.15707" height="4.10471" transform="matrix(-0.743028 0.66926 0.66926 0.743028 36.813 75.9375)" fill="white"/>
<path d="M40.2466 79.7515L38.873 78.2266L34.2982 82.3472L35.6717 83.8722L37.6564 87.6089L39.449 88.0658C40.4203 87.642 41.2505 86.95 41.8424 86.071L42.1177 85.6621L42.2312 83.4882L40.2466 79.7515Z" fill="black"/>
<path d="M40.5166 84.3189C40.4733 84.3364 40.4301 84.3538 40.3442 84.3931C40.2582 84.4324 40.131 84.4931 39.9753 84.5828C39.8196 84.6725 39.6395 84.7895 39.491 84.8998C39.3425 85.0102 39.2311 85.1105 39.0344 85.3332C38.8377 85.5559 38.5591 85.8979 38.2637 86.2577" stroke="#F5E4E4" stroke-width="0.5" stroke-linecap="round"/>
<path d="M39.5573 83.2704C39.4989 83.2868 39.4405 83.3033 39.3208 83.3467C39.2011 83.3901 39.0219 83.4599 38.8538 83.5399C38.6856 83.6199 38.534 83.7079 38.3545 83.8391C38.175 83.9703 37.9723 84.1419 37.7747 84.3397C37.5772 84.5376 37.3911 84.7565 37.191 84.9894" stroke="#F5E4E4" stroke-width="0.5" stroke-linecap="round"/>
<path d="M39.5784 81.7393C39.5284 81.7555 39.4783 81.7716 39.3717 81.8089C39.2652 81.8461 39.1036 81.9041 38.8839 82.0059C38.6642 82.1077 38.3912 82.2515 38.0705 82.4572C37.7498 82.6629 37.3897 82.926 37.1672 83.0983C36.9448 83.2706 36.8709 83.3441 36.8237 83.3929C36.7765 83.4417 36.7582 83.4635 36.7393 83.486" stroke="#F5E4E4" stroke-width="0.5" stroke-linecap="round"/>
<path d="M36.8026 81.1366C36.8137 81.1386 36.8248 81.1406 36.8656 81.1452C36.9063 81.1499 36.9764 81.1572 37.2438 81.1429C37.5112 81.1286 37.9739 81.0925 38.251 81.0653C38.528 81.0381 38.6053 81.0209 38.6769 81.0001C38.7485 80.9792 38.8119 80.9551 38.8728 80.9273C38.9337 80.8996 38.9901 80.8689 39.0321 80.8427C39.1019 80.7992 39.1347 80.7658 39.1526 80.7446C39.1974 80.6913 39.1929 80.6345 39.1807 80.5841C39.1777 80.572 39.1734 80.5644 39.1492 80.5295C39.125 80.4947 39.08 80.4332 39.0429 80.387C39.0057 80.3407 38.9776 80.3117 38.9499 80.2872C38.8978 80.2411 38.8416 80.213 38.7902 80.1953C38.7176 80.1702 38.6711 80.1907 38.604 80.2158C38.5776 80.2257 38.5436 80.2511 38.4837 80.3044C38.4237 80.3578 38.3404 80.4418 38.2508 80.5645C38.1612 80.6871 38.0677 80.8458 37.9823 81.0171C37.8969 81.1884 37.8224 81.3675 37.7263 81.5532C37.6302 81.7389 37.5149 81.9258 37.4389 82.0407C37.3628 82.1557 37.3295 82.193 37.3047 82.2191C37.2658 82.2602 37.2161 82.2925 37.1508 82.327C37.1189 82.3437 37.0865 82.3524 37.0529 82.3578C37.0193 82.3631 36.9847 82.3632 36.9352 82.3572C36.8858 82.3512 36.8226 82.3391 36.7618 82.3221C36.701 82.3051 36.6446 82.2836 36.5996 82.2646C36.5546 82.2455 36.5228 82.2295 36.4811 82.2036C36.4395 82.1776 36.389 82.1422 36.3537 82.1141C36.2972 82.0693 36.2672 82.0273 36.2457 81.9942C36.2163 81.949 36.2127 81.8731 36.2187 81.7989C36.2205 81.7767 36.2324 81.7514 36.2469 81.7233C36.2615 81.6952 36.2817 81.6656 36.3168 81.6246C36.3518 81.5836 36.401 81.5321 36.4458 81.4909C36.4906 81.4498 36.5296 81.4205 36.5544 81.4027C36.5792 81.3849 36.5887 81.3795 36.5984 81.3739" stroke="#F5E4E4" stroke-width="0.5" stroke-linecap="round"/>
<rect width="6.15707" height="4.10471" transform="matrix(-0.928291 0.371854 0.371854 0.928291 19.7183 76.9629)" fill="white"/>
<path d="M21.626 81.7255L20.8628 79.8203L15.1472 82.1098L15.9104 84.015L16.4842 88.207L18.0092 89.2543C19.067 89.1915 20.085 88.8284 20.9437 88.2076L21.3432 87.9187L22.1997 85.9175L21.626 81.7255Z" fill="black"/>
<path d="M20.3036 86.1085C20.257 86.1099 20.2104 86.1114 20.1162 86.1186C20.022 86.1259 19.8816 86.1389 19.7045 86.1695C19.5275 86.2 19.318 86.2476 19.1405 86.2999C18.9631 86.3523 18.824 86.408 18.5626 86.5492C18.3011 86.6903 17.9216 86.9153 17.5202 87.1511" stroke="#F5E4E4" stroke-width="0.5" stroke-linecap="round"/>
<path d="M19.7652 84.7909C19.7047 84.7862 19.6442 84.7815 19.5169 84.7809C19.3896 84.7804 19.1973 84.7841 19.0119 84.8012C18.8264 84.8182 18.6537 84.8486 18.44 84.9098C18.2263 84.971 17.9768 85.0621 17.7231 85.1797C17.4695 85.2972 17.2193 85.4385 16.9512 85.5881" stroke="#F5E4E4" stroke-width="0.5" stroke-linecap="round"/>
<path d="M20.3132 83.3638C20.2607 83.3617 20.2081 83.3595 20.0953 83.3578C19.9824 83.356 19.8108 83.3547 19.5694 83.3744C19.3281 83.3941 19.0222 83.435 18.6503 83.5174C18.2783 83.5998 17.8495 83.7226 17.5812 83.8076C17.313 83.8926 17.2184 83.9361 17.1572 83.9656C17.0961 83.9951 17.0713 84.0092 17.0458 84.0238" stroke="#F5E4E4" stroke-width="0.5" stroke-linecap="round"/>
<path d="M17.915 81.8395C17.9248 81.8451 17.9346 81.8508 17.9712 81.8693C18.0079 81.8877 18.0711 81.9188 18.327 81.9976C18.583 82.0764 19.0297 82.2021 19.2991 82.2721C19.5685 82.3422 19.647 82.3528 19.7214 82.3579C19.7958 82.363 19.8637 82.3622 19.9304 82.3572C19.9971 82.3521 20.0607 82.3428 20.1091 82.3327C20.1896 82.3159 20.232 82.296 20.2561 82.2822C20.3165 82.2476 20.3319 82.1928 20.3378 82.1412C20.3392 82.1289 20.3377 82.1202 20.327 82.0791C20.3163 82.0381 20.2954 81.9649 20.2764 81.9087C20.2575 81.8525 20.2412 81.8155 20.2236 81.7829C20.1906 81.7217 20.1475 81.6759 20.1054 81.6416C20.0459 81.593 19.9952 81.5962 19.9235 81.5966C19.8953 81.5967 19.8547 81.6089 19.78 81.6383C19.7054 81.6677 19.5982 81.7178 19.4718 81.802C19.3453 81.8862 19.2028 82.003 19.0636 82.1343C18.9243 82.2656 18.7926 82.4079 18.6384 82.5491C18.4841 82.6903 18.3114 82.8259 18.2004 82.9076C18.0893 82.9892 18.0452 83.0128 18.0129 83.0287C17.9622 83.0538 17.9045 83.0671 17.8312 83.0768C17.7956 83.0816 17.7621 83.0785 17.7287 83.072C17.6953 83.0654 17.6628 83.0536 17.6185 83.0309C17.5742 83.0082 17.519 82.975 17.4678 82.9381C17.4166 82.9012 17.3711 82.8615 17.3354 82.8281C17.2998 82.7947 17.2754 82.7688 17.2453 82.73C17.2152 82.6913 17.18 82.6406 17.1565 82.6021C17.119 82.5405 17.1053 82.4908 17.0965 82.4523C17.0845 82.3997 17.1073 82.3273 17.1386 82.2597C17.1479 82.2394 17.1678 82.2198 17.1911 82.1984C17.2145 82.1771 17.2437 82.1563 17.2907 82.1299C17.3377 82.1035 17.4017 82.0721 17.4579 82.0489C17.5142 82.0258 17.5609 82.0118 17.5903 82.0036C17.6198 81.9955 17.6305 81.9936 17.6416 81.9917" stroke="#F5E4E4" stroke-width="0.5" stroke-linecap="round"/>
<rect x="38.6128" y="37.9688" width="11.9017" height="4.95756" rx="2.47878" transform="rotate(66.5957 38.6128 37.9688)" fill="url(#paint5_linear_166_1057)"/>
<path d="M38.1374 47.6931C38.5129 46.7768 39.445 46.2154 40.4305 46.3119C41.883 46.4542 42.8145 47.9244 42.3228 49.2986L39.6352 56.8092C39.1844 58.0689 37.7978 58.7247 36.538 58.2739C35.2377 57.8086 34.5889 56.3522 35.1125 55.0743L38.1374 47.6931Z" fill="url(#paint6_linear_166_1057)"/>
<rect width="6.48612" height="5.13089" transform="matrix(-0.735019 -0.678046 -0.678046 0.735019 39.9326 40.3164)" fill="white"/>
<rect width="12.0036" height="5" rx="2.5" transform="matrix(-0.10054 0.994933 0.994933 0.10054 9.79443 39.332)" fill="url(#paint7_linear_166_1057)"/>
<path d="M10.6096 52.5061C11.609 52.7329 12.6389 52.2771 13.1431 51.385C13.8863 50.0699 13.1949 48.4066 11.7385 48.006L3.77826 45.8164C2.44308 45.4492 1.06298 46.2338 0.695719 47.569C0.316636 48.9471 1.16453 50.3628 2.55842 50.6791L10.6096 52.5061Z" fill="url(#paint8_linear_166_1057)"/>
<path d="M13.8374 35.959L9.47669 41.0475L14.0944 45.1525L17.6864 39.2574L13.8374 35.959Z" fill="white"/>
<defs>
<linearGradient id="paint0_linear_166_1057" x1="3.07853" y1="0" x2="3.07853" y2="4.10471" gradientUnits="userSpaceOnUse">
<stop stop-color="#EFC6C6"/>
<stop offset="1" stop-color="#F5E7E7"/>
</linearGradient>
<linearGradient id="paint1_linear_166_1057" x1="3.07853" y1="0" x2="3.07853" y2="4.10471" gradientUnits="userSpaceOnUse">
<stop stop-color="#EFC6C6"/>
<stop offset="1" stop-color="#F5E7E7"/>
</linearGradient>
<linearGradient id="paint2_linear_166_1057" x1="36.9492" y1="79.4679" x2="30.0817" y2="71.8429" gradientUnits="userSpaceOnUse">
<stop stop-color="#EFC6C6"/>
<stop offset="1" stop-color="#F5E4E4"/>
</linearGradient>
<linearGradient id="paint3_linear_166_1057" x1="18.7592" y1="79.7744" x2="14.3725" y2="68.8261" gradientUnits="userSpaceOnUse">
<stop stop-color="#EFC6C6"/>
<stop offset="1" stop-color="#F5E4E4"/>
</linearGradient>
<linearGradient id="paint4_linear_166_1057" x1="13.5809" y1="16.9311" x2="37.183" y2="16.9311" gradientUnits="userSpaceOnUse">
<stop stop-color="#FFB300"/>
<stop offset="1" stop-color="#F7F6EB"/>
</linearGradient>
<linearGradient id="paint5_linear_166_1057" x1="42.9109" y1="40.0711" x2="50.4518" y2="40.9723" gradientUnits="userSpaceOnUse">
<stop stop-color="#EFC6C6"/>
<stop offset="1" stop-color="#987F7F"/>
</linearGradient>
<linearGradient id="paint6_linear_166_1057" x1="37.3774" y1="56.8254" x2="36.633" y2="48.397" gradientUnits="userSpaceOnUse">
<stop stop-color="#EFC6C6"/>
<stop offset="1" stop-color="#B29494"/>
</linearGradient>
<linearGradient id="paint7_linear_166_1057" x1="4.33495" y1="2.12032" x2="11.9404" y2="3.0293" gradientUnits="userSpaceOnUse">
<stop stop-color="#EFC6C6"/>
<stop offset="1" stop-color="#987F7F"/>
</linearGradient>
<linearGradient id="paint8_linear_166_1057" x1="2.42187" y1="47.7193" x2="9.11873" y2="53.3619" gradientUnits="userSpaceOnUse">
<stop stop-color="#EFC6C6"/>
<stop offset="1" stop-color="#B29494"/>
</linearGradient>
</defs>
</svg>
