<svg width="45" height="90" viewBox="0 0 45 90" fill="none" xmlns="http://www.w3.org/2000/svg">
<path d="M36.1577 37.9692C36.1577 36.2689 34.7794 34.8906 33.0792 34.8906H15.6342C13.9339 34.8906 12.5556 36.2689 12.5556 37.9692C12.5556 39.6694 13.9339 41.0477 15.6342 41.0477H33.0792C34.7794 41.0477 36.1577 39.6694 36.1577 37.9692Z" fill="white"/>
<rect width="6.15707" height="4.10471" transform="matrix(-0.987103 0.160088 0.160088 0.987103 22.0771 67)" fill="url(#paint0_linear_211_5)"/>
<rect width="6.15707" height="4.10471" transform="matrix(-0.949766 0.31296 0.31296 0.949766 32.8472 68)" fill="url(#paint1_linear_211_5)"/>
<path d="M33.635 71.2875C32.4971 70.0242 30.5506 69.9224 29.2872 71.0603C28.0238 72.1981 27.9221 74.1447 29.0599 75.408L33.8672 80.7456L38.4422 76.6251L33.635 71.2875Z" fill="url(#paint2_linear_211_5)"/>
<path d="M22.675 71.7609C22.5299 70.2122 21.2754 69.0017 19.7226 68.9118C17.776 68.7992 16.1963 70.4652 16.4121 72.403L17.2939 80.3202L23.4137 79.6443L22.675 71.7609Z" fill="url(#paint3_linear_211_5)"/>
<rect width="6.67016" height="8.20942" transform="matrix(-0.972599 0.232488 0.232488 0.972599 31.3115 60.4512)" fill="#272727"/>
<path d="M29.0015 62.9031L25.1376 58.3755L16.1677 60.2987L15.6717 68.4931L22.3297 68.8961L22.3297 63.5L29.0015 62.9031Z" fill="#272727"/>
<path d="M36.1577 37.9668H13.5818L15.1211 61.5689H16.6538H33.0727H34.1054L36.1577 37.9668Z" fill="white"/>
<line x1="23.9624" y1="41.9336" x2="19.8216" y2="49.18" stroke="#0720FF"/>
<line x1="28.104" y1="41.9336" x2="23.9632" y2="49.18" stroke="#FF0000"/>
<line x1="26.0337" y1="41.9336" x2="21.8929" y2="49.18" stroke="#FBFF00"/>
<path d="M20.3032 44.7216C20.2975 44.6643 20.2731 44.6198 20.23 44.5881C20.1869 44.5563 20.1285 44.5405 20.0546 44.5405C20.0044 44.5405 19.962 44.5476 19.9275 44.5618C19.8929 44.5755 19.8664 44.5947 19.8479 44.6193C19.8299 44.6439 19.8209 44.6719 19.8209 44.7031C19.82 44.7292 19.8254 44.7519 19.8373 44.7713C19.8496 44.7907 19.8664 44.8075 19.8877 44.8217C19.909 44.8355 19.9336 44.8475 19.9616 44.858C19.9895 44.8679 20.0193 44.8764 20.051 44.8835L20.1817 44.9148C20.2452 44.929 20.3034 44.9479 20.3564 44.9716C20.4095 44.9953 20.4554 45.0244 20.4942 45.0589C20.5331 45.0935 20.5631 45.1342 20.5844 45.1811C20.6062 45.228 20.6173 45.2817 20.6178 45.3423C20.6173 45.4313 20.5946 45.5085 20.5496 45.5739C20.5051 45.6387 20.4407 45.6892 20.3564 45.7251C20.2726 45.7607 20.1715 45.7784 20.0532 45.7784C19.9358 45.7784 19.8335 45.7604 19.7464 45.7244C19.6597 45.6884 19.592 45.6352 19.5432 45.5646C19.4949 45.4936 19.4696 45.4058 19.4672 45.3011H19.7648C19.7681 45.3499 19.7821 45.3906 19.8067 45.4233C19.8318 45.4555 19.8652 45.4799 19.9069 45.4964C19.949 45.5125 19.9966 45.5206 20.0496 45.5206C20.1017 45.5206 20.1469 45.513 20.1853 45.4979C20.2241 45.4827 20.2542 45.4616 20.2755 45.4347C20.2968 45.4077 20.3074 45.3767 20.3074 45.3416C20.3074 45.3089 20.2977 45.2815 20.2783 45.2592C20.2594 45.237 20.2314 45.218 20.1945 45.2024C20.1581 45.1868 20.1133 45.1726 20.0603 45.1598L19.9019 45.12C19.7793 45.0902 19.6824 45.0436 19.6114 44.9801C19.5404 44.9167 19.5051 44.8312 19.5056 44.7237C19.5051 44.6357 19.5286 44.5587 19.5759 44.4929C19.6237 44.4271 19.6893 44.3757 19.7726 44.3388C19.856 44.3018 19.9507 44.2834 20.0567 44.2834C20.1647 44.2834 20.2589 44.3018 20.3394 44.3388C20.4204 44.3757 20.4833 44.4271 20.5283 44.4929C20.5733 44.5587 20.5965 44.6349 20.5979 44.7216H20.3032ZM21.0422 45.7578H20.7126L21.2148 44.3033H21.6111L22.1125 45.7578H21.7829L21.4186 44.6357H21.4072L21.0422 45.7578ZM21.0216 45.1861H21.8V45.4261H21.0216V45.1861ZM22.2876 45.7578V44.3033H22.5951V45.5043H23.2187V45.7578H22.2876ZM24.7023 45.0305C24.7023 45.1892 24.6723 45.3241 24.6121 45.4354C24.5525 45.5466 24.471 45.6316 24.3678 45.6903C24.2651 45.7486 24.1495 45.7777 24.0212 45.7777C23.892 45.7777 23.776 45.7483 23.6732 45.6896C23.5705 45.6309 23.4893 45.5459 23.4296 45.4347C23.3699 45.3234 23.3401 45.1887 23.3401 45.0305C23.3401 44.8719 23.3699 44.737 23.4296 44.6257C23.4893 44.5144 23.5705 44.4297 23.6732 44.3714C23.776 44.3127 23.892 44.2834 24.0212 44.2834C24.1495 44.2834 24.2651 44.3127 24.3678 44.3714C24.471 44.4297 24.5525 44.5144 24.6121 44.6257C24.6723 44.737 24.7023 44.8719 24.7023 45.0305ZM24.3905 45.0305C24.3905 44.9278 24.3751 44.8411 24.3444 44.7706C24.3141 44.7 24.2712 44.6465 24.2158 44.6101C24.1604 44.5736 24.0956 44.5554 24.0212 44.5554C23.9469 44.5554 23.882 44.5736 23.8266 44.6101C23.7712 44.6465 23.7281 44.7 23.6974 44.7706C23.6671 44.8411 23.6519 44.9278 23.6519 45.0305C23.6519 45.1333 23.6671 45.2199 23.6974 45.2905C23.7281 45.361 23.7712 45.4145 23.8266 45.451C23.882 45.4875 23.9469 45.5057 24.0212 45.5057C24.0956 45.5057 24.1604 45.4875 24.2158 45.451C24.2712 45.4145 24.3141 45.361 24.3444 45.2905C24.3751 45.2199 24.3905 45.1333 24.3905 45.0305ZM24.9301 44.3033H25.3094L25.71 45.2805H25.727L26.1276 44.3033H26.5068V45.7578H26.2085V44.8111H26.1965L25.82 45.7507H25.6169L25.2405 44.8075H25.2284V45.7578H24.9301V44.3033ZM28.0969 45.0305C28.0969 45.1892 28.0668 45.3241 28.0067 45.4354C27.947 45.5466 27.8656 45.6316 27.7623 45.6903C27.6596 45.7486 27.5441 45.7777 27.4157 45.7777C27.2865 45.7777 27.1705 45.7483 27.0677 45.6896C26.965 45.6309 26.8838 45.5459 26.8241 45.4347C26.7645 45.3234 26.7346 45.1887 26.7346 45.0305C26.7346 44.8719 26.7645 44.737 26.8241 44.6257C26.8838 44.5144 26.965 44.4297 27.0677 44.3714C27.1705 44.3127 27.2865 44.2834 27.4157 44.2834C27.5441 44.2834 27.6596 44.3127 27.7623 44.3714C27.8656 44.4297 27.947 44.5144 28.0067 44.6257C28.0668 44.737 28.0969 44.8719 28.0969 45.0305ZM27.7851 45.0305C27.7851 44.9278 27.7697 44.8411 27.7389 44.7706C27.7086 44.7 27.6657 44.6465 27.6104 44.6101C27.555 44.5736 27.4901 44.5554 27.4157 44.5554C27.3414 44.5554 27.2765 44.5736 27.2211 44.6101C27.1657 44.6465 27.1227 44.7 27.0919 44.7706C27.0616 44.8411 27.0464 44.9278 27.0464 45.0305C27.0464 45.1333 27.0616 45.2199 27.0919 45.2905C27.1227 45.361 27.1657 45.4145 27.2211 45.451C27.2765 45.4875 27.3414 45.5057 27.4157 45.5057C27.4901 45.5057 27.555 45.4875 27.6104 45.451C27.6657 45.4145 27.7086 45.361 27.7389 45.2905C27.7697 45.2199 27.7851 45.1333 27.7851 45.0305ZM29.5413 44.3033V45.7578H29.2757L28.6428 44.8423H28.6322V45.7578H28.3247V44.3033H28.5945L29.2224 45.218H29.2352V44.3033H29.5413Z" fill="black"/>
<path d="M29.8231 29.7578H19.5613L20.0744 33.8625C19.8058 35.4741 21.0485 36.9411 22.6823 36.9411H26.7765C28.2187 36.9411 29.1911 35.4664 28.623 34.1408C28.4064 33.6354 28.4064 33.0634 28.623 32.5581L29.8231 29.7578Z" fill="#EFC6C6"/>
<path d="M37.6969 10.2637H12.0424L11.5293 15.3946H38.21L37.6969 10.2637Z" fill="#EFC6C6"/>
<ellipse cx="14.3665" cy="13.8534" rx="14.3665" ry="13.8534" transform="matrix(-1 0 0 1 39.2295 5.13086)" fill="#EFC6C6"/>
<path d="M13.8545 21.8623H22.6553L22.791 21.5781L24.3721 18.2705H26.3164L27.8965 21.5781L28.0322 21.8623H36.4043V14.4854L34.1074 12.1885L33.9736 12.1553L31.9209 11.6416L31.8193 11.6162L31.7158 11.6338L28.7393 12.1396H21.5205L18.4111 11.6338L18.3184 11.6182L18.2256 11.6387L15.8535 12.1514L15.7002 12.1846L15.5928 12.2998L13.9883 14.0254L13.8545 14.1689V21.8623Z" fill="url(#paint4_linear_211_5)" stroke="black"/>
<path d="M39.2566 17.4453L36.3411 16.4206L36.0113 17.3924L39.2564 18.4716L39.2566 17.4453Z" fill="black"/>
<path d="M39.2519 18.4132L36.9749 17.4414L36.6451 18.4132L39.2558 19.496L39.2519 18.4132Z" fill="black"/>
<path d="M10.4283 16.547L13.7209 15.3898L14.0933 16.4872L10.4285 17.706L10.4283 16.547Z" fill="black"/>
<path d="M10.4765 17.6298L13.3478 16.4306L13.7202 17.5281L10.4293 18.8672L10.4765 17.6298Z" fill="black"/>
<line x1="25.6784" y1="19.8437" x2="24.8622" y2="22.2925" stroke="black"/>
<line x1="24.5458" y1="22.4768" x2="26.9946" y2="23.2931" stroke="black"/>
<ellipse cx="5.64398" cy="1.53927" rx="5.64398" ry="1.53927" transform="matrix(-1 0 0 1 29.9932 26.6816)" fill="#EFA7A7"/>
<path d="M35.5419 2.56544L24.8696 0L13.6638 2.56544L11.5293 10.2618H38.21L35.5419 2.56544Z" fill="#5C7780"/>
<path d="M35.4307 7.1838L24.8696 5.64453L13.7527 7.1838L11.5293 10.2623H38.21L35.4307 7.1838Z" fill="#283134"/>
<rect width="6.15707" height="4.10471" transform="matrix(-0.743028 0.66926 0.66926 0.743028 36.813 74.9375)" fill="white"/>
<path d="M40.2466 78.7515L38.873 77.2266L34.2982 81.3472L35.6717 82.8722L37.6564 86.6089L39.449 87.0658C40.4203 86.642 41.2505 85.95 41.8424 85.071L42.1177 84.6621L42.2312 82.4882L40.2466 78.7515Z" fill="black"/>
<path d="M40.5166 83.3189C40.4733 83.3364 40.4301 83.3538 40.3442 83.3931C40.2582 83.4324 40.131 83.4931 39.9753 83.5828C39.8196 83.6725 39.6395 83.7895 39.491 83.8998C39.3425 84.0102 39.2311 84.1105 39.0344 84.3332C38.8377 84.5559 38.5591 84.8979 38.2637 85.2577" stroke="#F5E4E4" stroke-width="0.5" stroke-linecap="round"/>
<path d="M39.5573 82.2704C39.4989 82.2868 39.4405 82.3033 39.3208 82.3467C39.2011 82.3901 39.0219 82.4599 38.8538 82.5399C38.6856 82.6199 38.534 82.7079 38.3545 82.8391C38.175 82.9703 37.9723 83.1419 37.7747 83.3397C37.5772 83.5376 37.3911 83.7565 37.191 83.9894" stroke="#F5E4E4" stroke-width="0.5" stroke-linecap="round"/>
<path d="M39.5784 80.7393C39.5284 80.7555 39.4783 80.7716 39.3717 80.8089C39.2652 80.8461 39.1036 80.9041 38.8839 81.0059C38.6642 81.1077 38.3912 81.2515 38.0705 81.4572C37.7498 81.6629 37.3897 81.926 37.1672 82.0983C36.9448 82.2706 36.8709 82.3441 36.8237 82.3929C36.7765 82.4417 36.7582 82.4635 36.7393 82.486" stroke="#F5E4E4" stroke-width="0.5" stroke-linecap="round"/>
<path d="M36.8026 80.1366C36.8137 80.1386 36.8248 80.1406 36.8656 80.1452C36.9063 80.1499 36.9764 80.1572 37.2438 80.1429C37.5112 80.1286 37.9739 80.0925 38.251 80.0653C38.528 80.0381 38.6053 80.0209 38.6769 80.0001C38.7485 79.9792 38.8119 79.9551 38.8728 79.9273C38.9337 79.8996 38.9901 79.8689 39.0321 79.8427C39.1019 79.7992 39.1347 79.7658 39.1526 79.7446C39.1974 79.6913 39.1929 79.6345 39.1807 79.5841C39.1777 79.572 39.1734 79.5644 39.1492 79.5295C39.125 79.4947 39.08 79.4332 39.0429 79.387C39.0057 79.3407 38.9776 79.3117 38.9499 79.2872C38.8978 79.2411 38.8416 79.213 38.7902 79.1953C38.7176 79.1702 38.6711 79.1907 38.604 79.2158C38.5776 79.2257 38.5436 79.2511 38.4837 79.3044C38.4237 79.3578 38.3404 79.4418 38.2508 79.5645C38.1612 79.6871 38.0677 79.8458 37.9823 80.0171C37.8969 80.1884 37.8224 80.3675 37.7263 80.5532C37.6302 80.7389 37.5149 80.9258 37.4389 81.0407C37.3628 81.1557 37.3295 81.193 37.3047 81.2191C37.2658 81.2602 37.2161 81.2925 37.1508 81.327C37.1189 81.3437 37.0865 81.3524 37.0529 81.3578C37.0193 81.3631 36.9847 81.3632 36.9352 81.3572C36.8858 81.3512 36.8226 81.3391 36.7618 81.3221C36.701 81.3051 36.6446 81.2836 36.5996 81.2646C36.5546 81.2455 36.5228 81.2295 36.4811 81.2036C36.4395 81.1776 36.389 81.1422 36.3537 81.1141C36.2972 81.0693 36.2672 81.0273 36.2457 80.9942C36.2163 80.949 36.2127 80.8731 36.2187 80.7989C36.2205 80.7767 36.2324 80.7514 36.2469 80.7233C36.2615 80.6952 36.2817 80.6656 36.3168 80.6246C36.3518 80.5836 36.401 80.5321 36.4458 80.4909C36.4906 80.4498 36.5296 80.4205 36.5544 80.4027C36.5792 80.3849 36.5887 80.3795 36.5984 80.3739" stroke="#F5E4E4" stroke-width="0.5" stroke-linecap="round"/>
<rect width="6.15707" height="4.10471" transform="matrix(-0.999653 0.0263333 0.0263333 0.999653 23.1812 78)" fill="white"/>
<path d="M23.3158 83.1298L23.2617 81.0781L17.1068 81.2403L17.1608 83.2919L16.2431 87.4222L17.3095 88.9339C18.3232 89.2424 19.404 89.2555 20.4249 88.9715L20.8998 88.8393L22.398 87.2601L23.3158 83.1298Z" fill="black"/>
<path d="M20.5544 86.7799C20.5102 86.765 20.466 86.7502 20.3751 86.7243C20.2842 86.6984 20.148 86.6618 19.9714 86.629C19.7948 86.5961 19.5818 86.568 19.3972 86.5555C19.2126 86.5429 19.0628 86.5469 18.7687 86.5885C18.4745 86.63 18.0404 86.7092 17.5822 86.791" stroke="#F5E4E4" stroke-width="0.5" stroke-linecap="round"/>
<path d="M20.5068 85.3589C20.4517 85.3335 20.3966 85.3081 20.2774 85.2633C20.1582 85.2186 19.9766 85.1553 19.7968 85.1069C19.617 85.0586 19.4445 85.027 19.2228 85.0102C19.0011 84.9933 18.7355 84.9922 18.4568 85.0143C18.1781 85.0365 17.8944 85.082 17.591 85.1293" stroke="#F5E4E4" stroke-width="0.5" stroke-linecap="round"/>
<path d="M21.5163 84.2107C21.4678 84.1905 21.4192 84.1702 21.314 84.1293C21.2088 84.0885 21.0483 84.0276 20.8151 83.9624C20.5819 83.8971 20.2809 83.8291 19.9035 83.7773C19.5261 83.7254 19.0813 83.6916 18.8002 83.6781C18.5192 83.6647 18.4153 83.6726 18.3477 83.679C18.2802 83.6854 18.252 83.6901 18.2231 83.6949" stroke="#F5E4E4" stroke-width="0.5" stroke-linecap="round"/>
<path d="M19.7969 81.9477C19.8041 81.9564 19.8113 81.9652 19.8393 81.9952C19.8672 82.0252 19.9157 82.0763 20.1284 82.2391C20.341 82.4019 20.7163 82.6749 20.9446 82.8341C21.1729 82.9934 21.2429 83.0306 21.3108 83.0612C21.3788 83.0918 21.4427 83.1147 21.5071 83.1331C21.5714 83.1516 21.6343 83.1649 21.6831 83.1722C21.7645 83.1844 21.8111 83.1805 21.8385 83.1759C21.9072 83.1644 21.9406 83.1184 21.9641 83.0721C21.9697 83.061 21.9713 83.0523 21.9756 83.0101C21.9798 82.9679 21.9856 82.892 21.9873 82.8327C21.9891 82.7734 21.9866 82.7331 21.9815 82.6964C21.9717 82.6275 21.9472 82.5697 21.9197 82.5228C21.8807 82.4566 21.8321 82.442 21.7647 82.4175C21.7383 82.4078 21.696 82.4051 21.6157 82.4067C21.5355 82.4084 21.4176 82.4182 21.2698 82.4533C21.1219 82.4883 20.9478 82.5483 20.7716 82.6231C20.5954 82.6978 20.4224 82.7856 20.2288 82.8644C20.0352 82.9432 19.8261 83.0104 19.6936 83.0485C19.5611 83.0865 19.5115 83.0932 19.4757 83.097C19.4194 83.1029 19.3607 83.0953 19.2886 83.079C19.2535 83.0711 19.2232 83.0566 19.1942 83.0388C19.1651 83.0211 19.1388 82.9987 19.1051 82.962C19.0714 82.9253 19.0312 82.8751 18.996 82.8227C18.9608 82.7703 18.9319 82.7173 18.91 82.6736C18.8882 82.6299 18.8744 82.5971 18.8596 82.5503C18.8448 82.5035 18.8294 82.4438 18.8208 82.3994C18.807 82.3287 18.8114 82.2773 18.8165 82.2382C18.8235 82.1846 18.8701 82.1247 18.9228 82.0721C18.9387 82.0564 18.9641 82.0449 18.9934 82.033C19.0227 82.0211 19.0573 82.0117 19.1106 82.0033C19.1639 81.9948 19.2347 81.9876 19.2955 81.9854C19.3564 81.9832 19.405 81.9863 19.4354 81.9889C19.4658 81.9915 19.4766 81.9935 19.4876 81.9956" stroke="#F5E4E4" stroke-width="0.5" stroke-linecap="round"/>
<rect x="38.6128" y="37.9668" width="11.9017" height="4.95756" rx="2.47878" transform="rotate(66.5957 38.6128 37.9668)" fill="url(#paint5_linear_211_5)"/>
<path d="M40.3074 46.1307C41.278 45.9349 42.2622 46.3991 42.7285 47.2726C43.4158 48.5601 42.7092 50.1507 41.2931 50.5037L33.5531 52.4335C32.2548 52.7572 30.94 51.9672 30.6163 50.669C30.2822 49.3289 31.1341 47.9812 32.4879 47.7081L40.3074 46.1307Z" fill="url(#paint6_linear_211_5)"/>
<rect width="6.48612" height="5.13089" transform="matrix(-0.735019 -0.678046 -0.678046 0.735019 39.9321 40.3145)" fill="white"/>
<rect width="12.0036" height="5" rx="2.5" transform="matrix(-0.10054 0.994933 0.994933 0.10054 9.79443 39.332)" fill="url(#paint7_linear_211_5)"/>
<path d="M10.6096 52.5061C11.609 52.7329 12.6389 52.2771 13.1431 51.385C13.8863 50.0699 13.1949 48.4066 11.7385 48.006L3.77826 45.8164C2.44308 45.4492 1.06298 46.2338 0.695719 47.569C0.316637 48.9471 1.16453 50.3628 2.55842 50.6791L10.6096 52.5061Z" fill="url(#paint8_linear_211_5)"/>
<path d="M13.8374 35.959L9.47669 41.0475L14.0944 45.1525L17.6864 39.2574L13.8374 35.959Z" fill="white"/>
<defs>
<linearGradient id="paint0_linear_211_5" x1="3.07853" y1="0" x2="3.07853" y2="4.10471" gradientUnits="userSpaceOnUse">
<stop stop-color="#EFC6C6"/>
<stop offset="1" stop-color="#F5E7E7"/>
</linearGradient>
<linearGradient id="paint1_linear_211_5" x1="3.07853" y1="0" x2="3.07853" y2="4.10471" gradientUnits="userSpaceOnUse">
<stop stop-color="#EFC6C6"/>
<stop offset="1" stop-color="#F5E7E7"/>
</linearGradient>
<linearGradient id="paint2_linear_211_5" x1="37.497" y1="79.1984" x2="30.6295" y2="71.5733" gradientUnits="userSpaceOnUse">
<stop stop-color="#EFC6C6"/>
<stop offset="1" stop-color="#F5E4E4"/>
</linearGradient>
<linearGradient id="paint3_linear_211_5" x1="21.635" y1="81.1678" x2="20.3402" y2="69.4446" gradientUnits="userSpaceOnUse">
<stop stop-color="#EFC6C6"/>
<stop offset="1" stop-color="#F5E4E4"/>
</linearGradient>
<linearGradient id="paint4_linear_211_5" x1="13.5804" y1="16.9311" x2="37.1825" y2="16.9311" gradientUnits="userSpaceOnUse">
<stop stop-color="#FFB300"/>
<stop offset="1" stop-color="#F7F6EB"/>
</linearGradient>
<linearGradient id="paint5_linear_211_5" x1="42.9109" y1="40.0691" x2="50.4518" y2="40.9704" gradientUnits="userSpaceOnUse">
<stop stop-color="#EFC6C6"/>
<stop offset="1" stop-color="#987F7F"/>
</linearGradient>
<linearGradient id="paint6_linear_211_5" x1="32.2871" y1="50.5639" x2="38.8872" y2="45.2694" gradientUnits="userSpaceOnUse">
<stop stop-color="#EFC6C6"/>
<stop offset="1" stop-color="#B29494"/>
</linearGradient>
<linearGradient id="paint7_linear_211_5" x1="4.33495" y1="2.12032" x2="11.9404" y2="3.0293" gradientUnits="userSpaceOnUse">
<stop stop-color="#EFC6C6"/>
<stop offset="1" stop-color="#987F7F"/>
</linearGradient>
<linearGradient id="paint8_linear_211_5" x1="2.42187" y1="47.7193" x2="9.11873" y2="53.3619" gradientUnits="userSpaceOnUse">
<stop stop-color="#EFC6C6"/>
<stop offset="1" stop-color="#B29494"/>
</linearGradient>
</defs>
</svg>
