<svg width="44" height="88" viewBox="0 0 44 88" fill="none" xmlns="http://www.w3.org/2000/svg">
<path d="M8.00098 37C8.00098 35.3431 9.34412 34 11.001 34H28.001C29.6578 34 31.001 35.3431 31.001 37C31.001 38.6569 29.6578 40 28.001 40H11.001C9.34412 40 8.00098 38.6569 8.00098 37Z" fill="white"/>
<rect x="24.0005" y="66.9082" width="6" height="4" transform="rotate(-29.0297 24.0005 66.9082)" fill="url(#paint0_linear_166_922)"/>
<rect x="11.3315" y="66.5" width="6" height="4" transform="rotate(12 11.3315 66.5)" fill="url(#paint1_linear_166_922)"/>
<path d="M10.9933 69.7292C12.1021 68.498 13.999 68.3989 15.2301 69.5077C16.4613 70.6165 16.5604 72.5134 15.4516 73.7446L10.767 78.9459L6.30866 74.9305L10.9933 69.7292Z" fill="url(#paint2_linear_166_922)"/>
<path d="M26.4337 68.6337C26.974 67.2175 28.4677 66.4083 29.9491 66.7291C31.8061 67.1313 32.8546 69.1077 32.1463 70.8708L29.2525 78.0743L23.6829 75.8427L26.4337 68.6337Z" fill="url(#paint3_linear_166_922)"/>
<rect x="12.5269" y="59" width="6.5" height="8" transform="rotate(11 12.5269 59)" fill="#272727"/>
<path d="M17.0008 61.9992L17.0004 58.9988L25.7134 56.9984L29.5302 64.0292L23.8177 67.1303L21.0007 61.9996L17.0008 61.9992Z" fill="#272727"/>
<path d="M8.00098 37H30.001L28.501 60H27.0073H11.0073H10.001L8.00098 37Z" fill="white"/>
<line x1="18.4351" y1="40.2481" x2="14.4351" y2="47.2481" stroke="#0720FF"/>
<line x1="22.4351" y1="40.2481" x2="18.4351" y2="47.2481" stroke="#FF0000"/>
<line x1="20.4351" y1="40.2481" x2="16.4351" y2="47.2481" stroke="#FBFF00"/>
<path d="M14.9165 42.9638C14.9108 42.9065 14.8864 42.862 14.8433 42.8303C14.8002 42.7985 14.7417 42.7827 14.6679 42.7827C14.6177 42.7827 14.5753 42.7898 14.5407 42.804C14.5062 42.8177 14.4797 42.8369 14.4612 42.8615C14.4432 42.8861 14.4342 42.9141 14.4342 42.9453C14.4333 42.9714 14.4387 42.9941 14.4506 43.0135C14.4629 43.0329 14.4797 43.0497 14.501 43.0639C14.5223 43.0777 14.5469 43.0897 14.5748 43.1001C14.6028 43.1101 14.6326 43.1186 14.6643 43.1257L14.795 43.157C14.8585 43.1712 14.9167 43.1901 14.9697 43.2138C15.0228 43.2375 15.0687 43.2666 15.1075 43.3011C15.1463 43.3357 15.1764 43.3764 15.1977 43.4233C15.2195 43.4702 15.2306 43.5239 15.2311 43.5845C15.2306 43.6735 15.2079 43.7507 15.1629 43.8161C15.1184 43.8809 15.054 43.9313 14.9697 43.9673C14.8859 44.0028 14.7848 44.0206 14.6665 44.0206C14.549 44.0206 14.4468 44.0026 14.3596 43.9666C14.273 43.9306 14.2053 43.8774 14.1565 43.8068C14.1082 43.7358 14.0829 43.648 14.0805 43.5433H14.3781C14.3814 43.5921 14.3954 43.6328 14.42 43.6655C14.4451 43.6977 14.4785 43.7221 14.5202 43.7386C14.5623 43.7547 14.6099 43.7628 14.6629 43.7628C14.715 43.7628 14.7602 43.7552 14.7986 43.7401C14.8374 43.7249 14.8675 43.7038 14.8888 43.6768C14.9101 43.6499 14.9207 43.6188 14.9207 43.5838C14.9207 43.5511 14.911 43.5237 14.8916 43.5014C14.8727 43.4792 14.8447 43.4602 14.8078 43.4446C14.7713 43.429 14.7266 43.4148 14.6736 43.402L14.5152 43.3622C14.3925 43.3324 14.2957 43.2857 14.2247 43.2223C14.1537 43.1589 14.1184 43.0734 14.1189 42.9659C14.1184 42.8778 14.1418 42.8009 14.1892 42.7351C14.237 42.6693 14.3026 42.6179 14.3859 42.581C14.4693 42.544 14.564 42.5256 14.67 42.5256C14.778 42.5256 14.8722 42.544 14.9527 42.581C15.0336 42.6179 15.0966 42.6693 15.1416 42.7351C15.1866 42.8009 15.2098 42.8771 15.2112 42.9638H14.9165ZM15.6555 44H15.3259L15.828 42.5455H16.2243L16.7258 44H16.3962L16.0319 42.8778H16.0205L15.6555 44ZM15.6349 43.4283H16.4133V43.6683H15.6349V43.4283ZM16.9008 44V42.5455H17.2084V43.7464H17.8319V44H16.9008ZM19.3156 43.2727C19.3156 43.4313 19.2855 43.5663 19.2254 43.6776C19.1657 43.7888 19.0843 43.8738 18.9811 43.9325C18.8783 43.9908 18.7628 44.0199 18.6345 44.0199C18.5052 44.0199 18.3892 43.9905 18.2865 43.9318C18.1837 43.8731 18.1025 43.7881 18.0429 43.6768C17.9832 43.5656 17.9534 43.4309 17.9534 43.2727C17.9534 43.1141 17.9832 42.9792 18.0429 42.8679C18.1025 42.7566 18.1837 42.6719 18.2865 42.6136C18.3892 42.5549 18.5052 42.5256 18.6345 42.5256C18.7628 42.5256 18.8783 42.5549 18.9811 42.6136C19.0843 42.6719 19.1657 42.7566 19.2254 42.8679C19.2855 42.9792 19.3156 43.1141 19.3156 43.2727ZM19.0038 43.2727C19.0038 43.17 18.9884 43.0833 18.9577 43.0128C18.9273 42.9422 18.8845 42.8887 18.8291 42.8523C18.7737 42.8158 18.7088 42.7976 18.6345 42.7976C18.5602 42.7976 18.4953 42.8158 18.4399 42.8523C18.3845 42.8887 18.3414 42.9422 18.3106 43.0128C18.2803 43.0833 18.2652 43.17 18.2652 43.2727C18.2652 43.3755 18.2803 43.4621 18.3106 43.5327C18.3414 43.6032 18.3845 43.6567 18.4399 43.6932C18.4953 43.7296 18.5602 43.7479 18.6345 43.7479C18.7088 43.7479 18.7737 43.7296 18.8291 43.6932C18.8845 43.6567 18.9273 43.6032 18.9577 43.5327C18.9884 43.4621 19.0038 43.3755 19.0038 43.2727ZM19.5434 42.5455H19.9227L20.3232 43.5227H20.3403L20.7409 42.5455H21.1201V44H20.8218V43.0533H20.8097L20.4333 43.9929H20.2302L19.8538 43.0497H19.8417V44H19.5434V42.5455ZM22.7101 43.2727C22.7101 43.4313 22.6801 43.5663 22.6199 43.6776C22.5603 43.7888 22.4788 43.8738 22.3756 43.9325C22.2729 43.9908 22.1573 44.0199 22.029 44.0199C21.8998 44.0199 21.7838 43.9905 21.681 43.9318C21.5783 43.8731 21.4971 43.7881 21.4374 43.6768C21.3778 43.5656 21.3479 43.4309 21.3479 43.2727C21.3479 43.1141 21.3778 42.9792 21.4374 42.8679C21.4971 42.7566 21.5783 42.6719 21.681 42.6136C21.7838 42.5549 21.8998 42.5256 22.029 42.5256C22.1573 42.5256 22.2729 42.5549 22.3756 42.6136C22.4788 42.6719 22.5603 42.7566 22.6199 42.8679C22.6801 42.9792 22.7101 43.1141 22.7101 43.2727ZM22.3983 43.2727C22.3983 43.17 22.383 43.0833 22.3522 43.0128C22.3219 42.9422 22.279 42.8887 22.2236 42.8523C22.1682 42.8158 22.1034 42.7976 22.029 42.7976C21.9547 42.7976 21.8898 42.8158 21.8344 42.8523C21.779 42.8887 21.7359 42.9422 21.7052 43.0128C21.6749 43.0833 21.6597 43.17 21.6597 43.2727C21.6597 43.3755 21.6749 43.4621 21.7052 43.5327C21.7359 43.6032 21.779 43.6567 21.8344 43.6932C21.8898 43.7296 21.9547 43.7479 22.029 43.7479C22.1034 43.7479 22.1682 43.7296 22.2236 43.6932C22.279 43.6567 22.3219 43.6032 22.3522 43.5327C22.383 43.4621 22.3983 43.3755 22.3983 43.2727ZM24.1546 42.5455V44H23.8889L23.2561 43.0845H23.2455V44H22.9379V42.5455H23.2078L23.8357 43.4602H23.8485V42.5455H24.1546Z" fill="black"/>
<path d="M14.174 29H24.174L23.674 33C23.9357 34.5704 22.7247 36 21.1326 36H17.1429C15.7374 36 14.7899 34.563 15.3435 33.2712C15.5545 32.7787 15.5545 32.2213 15.3435 31.7288L14.174 29Z" fill="#EFC6C6"/>
<path d="M6.50098 10H31.501L32.001 15H6.00098L6.50098 10Z" fill="#EFC6C6"/>
<ellipse cx="19.0073" cy="18.5" rx="14" ry="13.5" fill="#EFC6C6"/>
<path d="M29.7466 21.3184H21.1499L21.0132 21.0342L19.4771 17.8184H17.5981L16.061 21.0342L15.9253 21.3184H7.74658V14.1113L9.99072 11.8672L10.1255 11.833L12.2271 11.3076L12.3306 11.3252L15.2358 11.8184H22.2632L25.2915 11.3252L25.3843 11.3096L25.4771 11.3301L27.7886 11.8301L27.9419 11.8633L28.0493 11.9775L29.6128 13.6592L29.7466 13.8037V21.3184Z" fill="url(#paint4_linear_166_922)" stroke="black"/>
<path d="M4.98032 16.998L7.82141 15.9994L8.14274 16.9464L4.98047 17.998L4.98032 16.998Z" fill="black"/>
<path d="M4.98469 17.9428L7.2036 16.9958L7.52493 17.9428L4.9808 18.9979L4.98469 17.9428Z" fill="black"/>
<path d="M33.0727 16.1273L29.8641 14.9996L29.5012 16.069L33.0725 17.2567L33.0727 16.1273Z" fill="black"/>
<path d="M33.0261 17.181L30.2281 16.0124L29.8652 17.0819L33.0721 18.3868L33.0261 17.181Z" fill="black"/>
<line x1="18.4817" y1="19.1581" x2="17.4817" y2="22.1581" stroke="black"/>
<line x1="17.1654" y1="22.5257" x2="20.1654" y2="23.5257" stroke="black"/>
<ellipse cx="19.5073" cy="27.5" rx="5.5" ry="1.5" fill="#EFA7A7"/>
<path d="M8.60098 2.5L19.001 0L29.921 2.5L32.001 10H6.00098L8.60098 2.5Z" fill="#5C7780"/>
<path d="M8.70931 7L19.001 5.5L29.8343 7L32.001 10H6.00098L8.70931 7Z" fill="#283134"/>
<rect x="7.3623" y="74" width="6" height="4" transform="rotate(42.01 7.3623 74)" fill="white"/>
<path d="M4.01597 77.7165L5.35449 76.2305L9.81266 80.246L8.47414 81.7321L6.54013 85.3735L4.79321 85.8187C3.84675 85.4057 3.03769 84.7314 2.46093 83.8748L2.19261 83.4763L2.08196 81.3579L4.01597 77.7165Z" fill="black"/>
<path d="M3.75261 82.1694C3.79475 82.1863 3.8369 82.2033 3.92063 82.2416C4.00436 82.2799 4.1284 82.3391 4.28009 82.4265C4.43178 82.5139 4.60737 82.6279 4.75207 82.7354C4.89678 82.843 5.00528 82.9407 5.19695 83.1577C5.38862 83.3747 5.66018 83.7081 5.94798 84.0587" stroke="#F5E4E4" stroke-width="0.5" stroke-linecap="round"/>
<path d="M4.68788 81.1455C4.7448 81.1615 4.80173 81.1776 4.91837 81.2199C5.03501 81.2621 5.20964 81.3302 5.3735 81.4081C5.53735 81.4861 5.68513 81.5719 5.86004 81.6997C6.03495 81.8275 6.23253 81.9947 6.42501 82.1876C6.61749 82.3804 6.7989 82.5937 6.99381 82.8207" stroke="#F5E4E4" stroke-width="0.5" stroke-linecap="round"/>
<path d="M4.66652 79.6553C4.7153 79.671 4.76409 79.6867 4.86793 79.7231C4.97177 79.7594 5.12919 79.8159 5.3433 79.9151C5.5574 80.0143 5.82342 80.1544 6.13594 80.3549C6.44846 80.5553 6.79943 80.8117 7.01621 80.9797C7.23298 81.1476 7.30493 81.2192 7.35093 81.2667C7.39693 81.3142 7.41481 81.3355 7.43323 81.3574" stroke="#F5E4E4" stroke-width="0.5" stroke-linecap="round"/>
<path d="M7.37217 79.0664C7.36132 79.0683 7.35046 79.0702 7.31074 79.0748C7.27102 79.0793 7.20277 79.0865 6.94216 79.0725C6.68155 79.0586 6.23066 79.0234 5.96071 78.9969C5.69075 78.9704 5.61539 78.9537 5.54565 78.9333C5.47591 78.913 5.41408 78.8895 5.35473 78.8624C5.29538 78.8354 5.2404 78.8055 5.19953 78.78C5.13148 78.7375 5.09947 78.7051 5.08206 78.6844C5.03841 78.6324 5.04278 78.5771 5.05473 78.528C5.05759 78.5162 5.06184 78.5088 5.08543 78.4748C5.10901 78.4408 5.15277 78.3809 5.18899 78.3359C5.22521 78.2908 5.25257 78.2625 5.27959 78.2386C5.33041 78.1937 5.38516 78.1664 5.43522 78.1491C5.50602 78.1246 5.55125 78.1446 5.61671 78.1691C5.64244 78.1787 5.67553 78.2034 5.73393 78.2554C5.79233 78.3074 5.87351 78.3893 5.96085 78.5089C6.0482 78.6284 6.13927 78.783 6.22251 78.95C6.30574 79.1169 6.37838 79.2914 6.47199 79.4723C6.5656 79.6533 6.67797 79.8354 6.75209 79.9474C6.8262 80.0595 6.85866 80.0959 6.88283 80.1213C6.92078 80.1613 6.96913 80.1928 7.03284 80.2264C7.06387 80.2427 7.09549 80.2512 7.12824 80.2564C7.16098 80.2616 7.19472 80.2617 7.24289 80.2558C7.29107 80.25 7.35266 80.2382 7.41189 80.2216C7.47112 80.2051 7.52611 80.1841 7.56995 80.1656C7.61379 80.147 7.6448 80.1314 7.68538 80.1061C7.72595 80.0809 7.77514 80.0463 7.8096 80.0189C7.86463 79.9752 7.89384 79.9344 7.91481 79.9021C7.94351 79.858 7.94697 79.7841 7.94112 79.7118C7.93936 79.6901 7.9278 79.6655 7.91361 79.6381C7.89941 79.6107 7.8797 79.5819 7.84558 79.5419C7.81146 79.502 7.76352 79.4518 7.71983 79.4117C7.67615 79.3716 7.63815 79.3431 7.61397 79.3257C7.58979 79.3084 7.58057 79.3031 7.57107 79.2976" stroke="#F5E4E4" stroke-width="0.5" stroke-linecap="round"/>
<rect x="24.021" y="75" width="6" height="4" transform="rotate(21.83 24.021 75)" fill="white"/>
<path d="M22.1621 79.6417L22.9058 77.7852L28.4755 80.0163L27.7318 81.8729L27.1727 85.9579L25.6866 86.9785C24.6558 86.9173 23.6637 86.5635 22.8269 85.9584L22.4376 85.677L21.6029 83.7268L22.1621 79.6417Z" fill="black"/>
<path d="M23.4509 83.9128C23.4963 83.9141 23.5417 83.9155 23.6335 83.9226C23.7253 83.9297 23.8621 83.9424 24.0347 83.9721C24.2072 84.0019 24.4113 84.0483 24.5843 84.0993C24.7572 84.1503 24.8927 84.2046 25.1475 84.3422C25.4023 84.4797 25.7722 84.6989 26.1632 84.9288" stroke="#F5E4E4" stroke-width="0.5" stroke-linecap="round"/>
<path d="M23.975 82.627C24.0339 82.6224 24.0929 82.6178 24.217 82.6173C24.341 82.6167 24.5284 82.6203 24.7091 82.637C24.8898 82.6536 25.0581 82.6832 25.2664 82.7428C25.4746 82.8025 25.7178 82.8913 25.9649 83.0058C26.2121 83.1204 26.456 83.2581 26.7172 83.4039" stroke="#F5E4E4" stroke-width="0.5" stroke-linecap="round"/>
<path d="M23.4412 81.2359C23.4924 81.2338 23.5436 81.2317 23.6536 81.23C23.7636 81.2282 23.9308 81.227 24.166 81.2462C24.4012 81.2654 24.6992 81.3052 25.0617 81.3856C25.4242 81.4659 25.8421 81.5855 26.1035 81.6683C26.3649 81.7511 26.4571 81.7935 26.5167 81.8223C26.5763 81.851 26.6004 81.8648 26.6252 81.879" stroke="#F5E4E4" stroke-width="0.5" stroke-linecap="round"/>
<path d="M25.7778 79.7505C25.7682 79.7561 25.7587 79.7616 25.723 79.7796C25.6873 79.7976 25.6257 79.8278 25.3763 79.9046C25.1269 79.9814 24.6915 80.1039 24.429 80.1722C24.1664 80.2404 24.0899 80.2508 24.0175 80.2557C23.945 80.2607 23.8789 80.26 23.8138 80.255C23.7488 80.2501 23.6868 80.241 23.6397 80.2312C23.5612 80.2148 23.5199 80.1954 23.4965 80.182C23.4376 80.1483 23.4226 80.0948 23.4168 80.0446C23.4155 80.0326 23.4169 80.0241 23.4273 79.9841C23.4377 79.9441 23.4581 79.8727 23.4766 79.818C23.4951 79.7632 23.511 79.7272 23.5281 79.6954C23.5603 79.6357 23.6022 79.5912 23.6433 79.5577C23.7013 79.5103 23.7506 79.5135 23.8205 79.5139C23.848 79.514 23.8876 79.5258 23.9603 79.5545C24.0331 79.5831 24.1375 79.632 24.2607 79.7141C24.384 79.7961 24.5228 79.9099 24.6585 80.0378C24.7942 80.1658 24.9226 80.3045 25.0729 80.4421C25.2232 80.5796 25.3915 80.7118 25.4997 80.7914C25.6079 80.871 25.6509 80.8939 25.6824 80.9095C25.7318 80.9339 25.7881 80.9468 25.8594 80.9563C25.8942 80.961 25.9268 80.958 25.9593 80.9516C25.9919 80.9452 26.0235 80.9337 26.0667 80.9115C26.1099 80.8894 26.1637 80.8571 26.2136 80.8211C26.2635 80.7852 26.3078 80.7465 26.3426 80.714C26.3773 80.6814 26.4011 80.6561 26.4304 80.6184C26.4598 80.5807 26.494 80.5312 26.5169 80.4937C26.5535 80.4337 26.5668 80.3852 26.5754 80.3477C26.5871 80.2964 26.5649 80.2259 26.5344 80.16C26.5253 80.1403 26.506 80.1212 26.4832 80.1004C26.4604 80.0796 26.432 80.0593 26.3862 80.0335C26.3403 80.0078 26.278 79.9772 26.2232 79.9547C26.1684 79.9321 26.1229 79.9184 26.0942 79.9105C26.0655 79.9026 26.055 79.9008 26.0442 79.8989" stroke="#F5E4E4" stroke-width="0.5" stroke-linecap="round"/>
<rect width="11.5981" height="4.83109" rx="2.41554" transform="matrix(-0.397217 0.917725 0.917725 0.397217 5.60791 37)" fill="url(#paint5_linear_166_922)"/>
<path d="M6.07137 46.4759C5.70547 45.583 4.79715 45.0359 3.8368 45.13C2.42132 45.2686 1.51358 46.7013 1.99276 48.0404L4.61177 55.3594C5.05105 56.587 6.40235 57.2261 7.62997 56.7868C8.8971 56.3334 9.52941 54.9141 9.01908 53.6688L6.07137 46.4759Z" fill="url(#paint6_linear_166_922)"/>
<rect x="4.32178" y="39.2852" width="6.32065" height="5" transform="rotate(-42.6912 4.32178 39.2852)" fill="white"/>
<rect x="33.917" y="38.4141" width="12.0036" height="5" rx="2.5" transform="rotate(84.2297 33.917 38.4141)" fill="url(#paint7_linear_166_922)"/>
<path d="M32.8964 51.1665C31.9224 51.3875 30.9189 50.9434 30.4275 50.074C29.7032 48.7925 30.377 47.1717 31.7963 46.7813L39.5535 44.6475C40.8546 44.2896 42.1995 45.0543 42.5574 46.3554C42.9268 47.6983 42.1005 49.078 40.7422 49.3862L32.8964 51.1665Z" fill="url(#paint8_linear_166_922)"/>
<path d="M29.7515 35.041L34.0009 39.9998L29.501 44L26.0007 38.2553L29.7515 35.041Z" fill="white"/>
<defs>
<linearGradient id="paint0_linear_166_922" x1="27.0005" y1="66.9082" x2="27.0005" y2="70.9082" gradientUnits="userSpaceOnUse">
<stop stop-color="#EFC6C6"/>
<stop offset="1" stop-color="#F5E7E7"/>
</linearGradient>
<linearGradient id="paint1_linear_166_922" x1="14.3315" y1="66.5" x2="14.3315" y2="70.5" gradientUnits="userSpaceOnUse">
<stop stop-color="#EFC6C6"/>
<stop offset="1" stop-color="#F5E7E7"/>
</linearGradient>
<linearGradient id="paint2_linear_166_922" x1="7.22972" y1="77.4382" x2="13.922" y2="70.0077" gradientUnits="userSpaceOnUse">
<stop stop-color="#EFC6C6"/>
<stop offset="1" stop-color="#F5E4E4"/>
</linearGradient>
<linearGradient id="paint3_linear_166_922" x1="24.9554" y1="77.7372" x2="29.2302" y2="67.0682" gradientUnits="userSpaceOnUse">
<stop stop-color="#EFC6C6"/>
<stop offset="1" stop-color="#F5E4E4"/>
</linearGradient>
<linearGradient id="paint4_linear_166_922" x1="7.00098" y1="16.5" x2="30.001" y2="16.5" gradientUnits="userSpaceOnUse">
<stop stop-color="#FFB300"/>
<stop offset="1" stop-color="#F7F6EB"/>
</linearGradient>
<linearGradient id="paint5_linear_166_922" x1="4.18851" y1="2.04869" x2="11.537" y2="2.92696" gradientUnits="userSpaceOnUse">
<stop stop-color="#EFC6C6"/>
<stop offset="1" stop-color="#987F7F"/>
</linearGradient>
<linearGradient id="paint6_linear_166_922" x1="6.81201" y1="55.3753" x2="7.53744" y2="47.1618" gradientUnits="userSpaceOnUse">
<stop stop-color="#EFC6C6"/>
<stop offset="1" stop-color="#B29494"/>
</linearGradient>
<linearGradient id="paint7_linear_166_922" x1="38.2519" y1="40.5344" x2="45.8574" y2="41.4434" gradientUnits="userSpaceOnUse">
<stop stop-color="#EFC6C6"/>
<stop offset="1" stop-color="#987F7F"/>
</linearGradient>
<linearGradient id="paint8_linear_166_922" x1="40.8752" y1="46.5019" x2="34.3492" y2="52.0005" gradientUnits="userSpaceOnUse">
<stop stop-color="#EFC6C6"/>
<stop offset="1" stop-color="#B29494"/>
</linearGradient>
</defs>
</svg>
