<svg width="115" height="140" viewBox="0 0 115 140" fill="none" xmlns="http://www.w3.org/2000/svg">
<path d="M47 44C47 42.3431 48.3431 41 50 41H67C68.6569 41 70 42.3431 70 44C70 45.6569 68.6569 47 67 47H50C48.3431 47 47 45.6569 47 44Z" fill="white"/>
<rect x="63" y="73.9082" width="6" height="4" transform="rotate(-29.0297 63 73.9082)" fill="url(#paint0_linear_166_922)"/>
<rect x="50.3311" y="73.5" width="6" height="4" transform="rotate(12 50.3311 73.5)" fill="url(#paint1_linear_166_922)"/>
<path d="M49.9928 76.7292C51.1016 75.498 52.9985 75.3989 54.2296 76.5077C55.4608 77.6165 55.5599 79.5134 54.4511 80.7446L49.7665 85.9459L45.3082 81.9305L49.9928 76.7292Z" fill="url(#paint2_linear_166_922)"/>
<path d="M65.4332 75.6337C65.9735 74.2175 67.4672 73.4083 68.9486 73.7291C70.8056 74.1313 71.8541 76.1077 71.1458 77.8708L68.252 85.0743L62.6824 82.8427L65.4332 75.6337Z" fill="url(#paint3_linear_166_922)"/>
<rect x="51.5259" y="66" width="6.5" height="8" transform="rotate(11 51.5259 66)" fill="#272727"/>
<path d="M55.9998 68.9992L55.9995 65.9988L64.7125 63.9984L68.5293 71.0292L62.8167 74.1303L59.9997 68.9996L55.9998 68.9992Z" fill="#272727"/>
<path d="M47 44H69L67.5 67H66.0063H50.0063H49L47 44Z" fill="white"/>
<line x1="57.4341" y1="47.2481" x2="53.4341" y2="54.2481" stroke="#0720FF"/>
<line x1="61.4341" y1="47.2481" x2="57.4341" y2="54.2481" stroke="#FF0000"/>
<line x1="59.4341" y1="47.2481" x2="55.4341" y2="54.2481" stroke="#FBFF00"/>
<path d="M53.9155 49.9638C53.9098 49.9065 53.8854 49.862 53.8423 49.8303C53.7992 49.7985 53.7408 49.7827 53.6669 49.7827C53.6167 49.7827 53.5743 49.7898 53.5398 49.804C53.5052 49.8177 53.4787 49.8369 53.4602 49.8615C53.4422 49.8861 53.4332 49.9141 53.4332 49.9453C53.4323 49.9714 53.4377 49.9941 53.4496 50.0135C53.4619 50.0329 53.4787 50.0497 53.5 50.0639C53.5213 50.0777 53.5459 50.0897 53.5739 50.1001C53.6018 50.1101 53.6316 50.1186 53.6634 50.1257L53.794 50.157C53.8575 50.1712 53.9157 50.1901 53.9688 50.2138C54.0218 50.2375 54.0677 50.2666 54.1065 50.3011C54.1454 50.3357 54.1754 50.3764 54.1967 50.4233C54.2185 50.4702 54.2296 50.5239 54.2301 50.5845C54.2296 50.6735 54.2069 50.7507 54.1619 50.8161C54.1174 50.8809 54.053 50.9313 53.9688 50.9673C53.8849 51.0028 53.7839 51.0206 53.6655 51.0206C53.5481 51.0206 53.4458 51.0026 53.3587 50.9666C53.272 50.9306 53.2043 50.8774 53.1555 50.8068C53.1072 50.7358 53.0819 50.648 53.0795 50.5433H53.3771C53.3804 50.5921 53.3944 50.6328 53.419 50.6655C53.4441 50.6977 53.4775 50.7221 53.5192 50.7386C53.5613 50.7547 53.6089 50.7628 53.6619 50.7628C53.714 50.7628 53.7592 50.7552 53.7976 50.7401C53.8364 50.7249 53.8665 50.7038 53.8878 50.6768C53.9091 50.6499 53.9197 50.6188 53.9197 50.5838C53.9197 50.5511 53.91 50.5237 53.8906 50.5014C53.8717 50.4792 53.8438 50.4602 53.8068 50.4446C53.7704 50.429 53.7256 50.4148 53.6726 50.402L53.5142 50.3622C53.3916 50.3324 53.2947 50.2857 53.2237 50.2223C53.1527 50.1589 53.1174 50.0734 53.1179 49.9659C53.1174 49.8778 53.1409 49.8009 53.1882 49.7351C53.236 49.6693 53.3016 49.6179 53.3849 49.581C53.4683 49.544 53.563 49.5256 53.669 49.5256C53.777 49.5256 53.8712 49.544 53.9517 49.581C54.0327 49.6179 54.0956 49.6693 54.1406 49.7351C54.1856 49.8009 54.2088 49.8771 54.2102 49.9638H53.9155ZM54.6545 51H54.3249L54.8271 49.5455H55.2234L55.7248 51H55.3952L55.0309 49.8778H55.0195L54.6545 51ZM54.6339 50.4283H55.4123V50.6683H54.6339V50.4283ZM55.8999 51V49.5455H56.2074V50.7464H56.831V51H55.8999ZM58.3146 50.2727C58.3146 50.4313 58.2846 50.5663 58.2244 50.6776C58.1648 50.7888 58.0833 50.8738 57.9801 50.9325C57.8774 50.9908 57.7618 51.0199 57.6335 51.0199C57.5043 51.0199 57.3883 50.9905 57.2855 50.9318C57.1828 50.8731 57.1016 50.7881 57.0419 50.6768C56.9822 50.5656 56.9524 50.4309 56.9524 50.2727C56.9524 50.1141 56.9822 49.9792 57.0419 49.8679C57.1016 49.7566 57.1828 49.6719 57.2855 49.6136C57.3883 49.5549 57.5043 49.5256 57.6335 49.5256C57.7618 49.5256 57.8774 49.5549 57.9801 49.6136C58.0833 49.6719 58.1648 49.7566 58.2244 49.8679C58.2846 49.9792 58.3146 50.1141 58.3146 50.2727ZM58.0028 50.2727C58.0028 50.17 57.9875 50.0833 57.9567 50.0128C57.9264 49.9422 57.8835 49.8887 57.8281 49.8523C57.7727 49.8158 57.7079 49.7976 57.6335 49.7976C57.5592 49.7976 57.4943 49.8158 57.4389 49.8523C57.3835 49.8887 57.3404 49.9422 57.3097 50.0128C57.2794 50.0833 57.2642 50.17 57.2642 50.2727C57.2642 50.3755 57.2794 50.4621 57.3097 50.5327C57.3404 50.6032 57.3835 50.6567 57.4389 50.6932C57.4943 50.7296 57.5592 50.7479 57.6335 50.7479C57.7079 50.7479 57.7727 50.7296 57.8281 50.6932C57.8835 50.6567 57.9264 50.6032 57.9567 50.5327C57.9875 50.4621 58.0028 50.3755 58.0028 50.2727ZM58.5424 49.5455H58.9217L59.3223 50.5227H59.3393L59.7399 49.5455H60.1191V51H59.8208V50.0533H59.8088L59.4324 50.9929H59.2292L58.8528 50.0497H58.8407V51H58.5424V49.5455ZM61.7092 50.2727C61.7092 50.4313 61.6791 50.5663 61.619 50.6776C61.5593 50.7888 61.4779 50.8738 61.3746 50.9325C61.2719 50.9908 61.1564 51.0199 61.0281 51.0199C60.8988 51.0199 60.7828 50.9905 60.68 50.9318C60.5773 50.8731 60.4961 50.7881 60.4364 50.6768C60.3768 50.5656 60.3469 50.4309 60.3469 50.2727C60.3469 50.1141 60.3768 49.9792 60.4364 49.8679C60.4961 49.7566 60.5773 49.6719 60.68 49.6136C60.7828 49.5549 60.8988 49.5256 61.0281 49.5256C61.1564 49.5256 61.2719 49.5549 61.3746 49.6136C61.4779 49.6719 61.5593 49.7566 61.619 49.8679C61.6791 49.9792 61.7092 50.1141 61.7092 50.2727ZM61.3974 50.2727C61.3974 50.17 61.382 50.0833 61.3512 50.0128C61.3209 49.9422 61.2781 49.8887 61.2227 49.8523C61.1673 49.8158 61.1024 49.7976 61.0281 49.7976C60.9537 49.7976 60.8888 49.8158 60.8335 49.8523C60.7781 49.8887 60.735 49.9422 60.7042 50.0128C60.6739 50.0833 60.6587 50.17 60.6587 50.2727C60.6587 50.3755 60.6739 50.4621 60.7042 50.5327C60.735 50.6032 60.7781 50.6567 60.8335 50.6932C60.8888 50.7296 60.9537 50.7479 61.0281 50.7479C61.1024 50.7479 61.1673 50.7296 61.2227 50.6932C61.2781 50.6567 61.3209 50.6032 61.3512 50.5327C61.382 50.4621 61.3974 50.3755 61.3974 50.2727ZM63.1536 49.5455V51H62.888L62.2551 50.0845H62.2445V51H61.937V49.5455H62.2069L62.8347 50.4602H62.8475V49.5455H63.1536Z" fill="black"/>
<path d="M53.173 36H63.173L62.673 40C62.9348 41.5704 61.7237 43 60.1316 43H56.1419C54.7365 43 53.7889 41.563 54.3425 40.2712C54.5536 39.7787 54.5536 39.2213 54.3425 38.7288L53.173 36Z" fill="#EFC6C6"/>
<path d="M45.5 17H70.5L71 22H45L45.5 17Z" fill="#EFC6C6"/>
<ellipse cx="58.0063" cy="25.5" rx="14" ry="13.5" fill="#EFC6C6"/>
<path d="M68.7461 28.3184H60.1494L60.0127 28.0342L58.4766 24.8184H56.5977L55.0605 28.0342L54.9248 28.3184H46.7461V21.1113L48.9902 18.8672L49.125 18.833L51.2266 18.3076L51.3301 18.3252L54.2354 18.8184H61.2627L64.291 18.3252L64.3838 18.3096L64.4766 18.3301L66.7881 18.8301L66.9414 18.8633L67.0488 18.9775L68.6123 20.6592L68.7461 20.8037V28.3184Z" fill="url(#paint4_linear_166_922)" stroke="black"/>
<path d="M43.9798 23.998L46.8209 22.9994L47.1423 23.9464L43.98 24.998L43.9798 23.998Z" fill="black"/>
<path d="M43.9842 24.9428L46.2031 23.9958L46.5244 24.9428L43.9803 25.9979L43.9842 24.9428Z" fill="black"/>
<path d="M72.0722 23.1273L68.8636 21.9996L68.5007 23.069L72.0721 24.2567L72.0722 23.1273Z" fill="black"/>
<path d="M72.0256 24.181L69.2276 23.0124L68.8647 24.0819L72.0716 25.3868L72.0256 24.181Z" fill="black"/>
<line x1="57.4812" y1="26.1581" x2="56.4812" y2="29.1581" stroke="black"/>
<line x1="56.1649" y1="29.5257" x2="59.165" y2="30.5257" stroke="black"/>
<ellipse cx="58.5068" cy="34.5" rx="5.5" ry="1.5" fill="#EFA7A7"/>
<path d="M47.6 9.5L58 7L68.92 9.5L71 17H45L47.6 9.5Z" fill="#5C7780"/>
<path d="M47.7083 14L58 12.5L68.8333 14L71 17H45L47.7083 14Z" fill="#283134"/>
<rect x="46.3618" y="81" width="6" height="4" transform="rotate(42.01 46.3618 81)" fill="white"/>
<path d="M43.0155 84.7165L44.354 83.2305L48.8122 87.246L47.4737 88.7321L45.5396 92.3735L43.7927 92.8187C42.8463 92.4057 42.0372 91.7314 41.4604 90.8748L41.1921 90.4763L41.0815 88.3579L43.0155 84.7165Z" fill="black"/>
<path d="M42.7521 89.1694C42.7943 89.1863 42.8364 89.2033 42.9201 89.2416C43.0039 89.2799 43.1279 89.3391 43.2796 89.4265C43.4313 89.5139 43.6069 89.6279 43.7516 89.7354C43.8963 89.843 44.0048 89.9407 44.1965 90.1577C44.3881 90.3747 44.6597 90.7081 44.9475 91.0587" stroke="#F5E4E4" stroke-width="0.5" stroke-linecap="round"/>
<path d="M43.6874 88.1455C43.7443 88.1615 43.8012 88.1776 43.9179 88.2199C44.0345 88.2621 44.2092 88.3302 44.373 88.4081C44.5369 88.4861 44.6846 88.5719 44.8596 88.6997C45.0345 88.8275 45.232 88.9947 45.4245 89.1876C45.617 89.3804 45.7984 89.5937 45.9933 89.8207" stroke="#F5E4E4" stroke-width="0.5" stroke-linecap="round"/>
<path d="M43.666 86.6553C43.7148 86.671 43.7636 86.6867 43.8674 86.7231C43.9713 86.7594 44.1287 86.8159 44.3428 86.9151C44.5569 87.0143 44.8229 87.1544 45.1355 87.3549C45.448 87.5553 45.7989 87.8117 46.0157 87.9797C46.2325 88.1476 46.3044 88.2192 46.3504 88.2667C46.3964 88.3142 46.4143 88.3355 46.4327 88.3574" stroke="#F5E4E4" stroke-width="0.5" stroke-linecap="round"/>
<path d="M46.3717 86.0664C46.3608 86.0683 46.35 86.0702 46.3103 86.0748C46.2705 86.0793 46.2023 86.0865 45.9417 86.0725C45.6811 86.0586 45.2302 86.0234 44.9602 85.9969C44.6903 85.9704 44.6149 85.9537 44.5452 85.9333C44.4754 85.913 44.4136 85.8895 44.3542 85.8624C44.2949 85.8354 44.2399 85.8055 44.199 85.78C44.131 85.7375 44.099 85.7051 44.0816 85.6844C44.0379 85.6324 44.0423 85.5771 44.0542 85.528C44.0571 85.5162 44.0614 85.5088 44.0849 85.4748C44.1085 85.4408 44.1523 85.3809 44.1885 85.3359C44.2247 85.2908 44.2521 85.2625 44.2791 85.2386C44.3299 85.1937 44.3847 85.1664 44.4347 85.1491C44.5055 85.1246 44.5508 85.1446 44.6162 85.1691C44.642 85.1787 44.675 85.2034 44.7334 85.2554C44.7918 85.3074 44.873 85.3893 44.9604 85.5089C45.0477 85.6284 45.1388 85.783 45.222 85.95C45.3053 86.1169 45.3779 86.2914 45.4715 86.4723C45.5651 86.6533 45.6775 86.8354 45.7516 86.9474C45.8257 87.0595 45.8582 87.0959 45.8823 87.1213C45.9203 87.1613 45.9686 87.1928 46.0324 87.2264C46.0634 87.2427 46.095 87.2512 46.1278 87.2564C46.1605 87.2616 46.1942 87.2617 46.2424 87.2558C46.2906 87.25 46.3522 87.2382 46.4114 87.2216C46.4706 87.2051 46.5256 87.1841 46.5695 87.1656C46.6133 87.147 46.6443 87.1314 46.6849 87.1061C46.7255 87.0809 46.7747 87.0463 46.8091 87.0189C46.8641 86.9752 46.8934 86.9344 46.9143 86.9021C46.943 86.858 46.9465 86.7841 46.9406 86.7118C46.9389 86.6901 46.9273 86.6655 46.9131 86.6381C46.8989 86.6107 46.8792 86.5819 46.8451 86.5419C46.811 86.502 46.763 86.4518 46.7193 86.4117C46.6757 86.3716 46.6377 86.3431 46.6135 86.3257C46.5893 86.3084 46.5801 86.3031 46.5706 86.2976" stroke="#F5E4E4" stroke-width="0.5" stroke-linecap="round"/>
<rect x="63.0205" y="82" width="6" height="4" transform="rotate(21.83 63.0205 82)" fill="white"/>
<path d="M61.1616 86.6417L61.9053 84.7852L67.475 87.0163L66.7313 88.8729L66.1722 92.9579L64.6861 93.9785C63.6553 93.9173 62.6633 93.5635 61.8264 92.9584L61.4371 92.677L60.6024 90.7268L61.1616 86.6417Z" fill="black"/>
<path d="M62.4504 90.9128C62.4958 90.9141 62.5412 90.9155 62.633 90.9226C62.7248 90.9297 62.8617 90.9424 63.0342 90.9721C63.2067 91.0019 63.4108 91.0483 63.5838 91.0993C63.7567 91.1503 63.8922 91.2046 64.147 91.3422C64.4018 91.4797 64.7717 91.6989 65.1628 91.9288" stroke="#F5E4E4" stroke-width="0.5" stroke-linecap="round"/>
<path d="M62.9745 89.627C63.0334 89.6224 63.0924 89.6178 63.2165 89.6173C63.3405 89.6167 63.5279 89.6203 63.7086 89.637C63.8893 89.6536 64.0576 89.6832 64.2659 89.7428C64.4741 89.8025 64.7173 89.8913 64.9644 90.0058C65.2116 90.1204 65.4555 90.2581 65.7167 90.4039" stroke="#F5E4E4" stroke-width="0.5" stroke-linecap="round"/>
<path d="M62.4407 88.2359C62.4919 88.2338 62.5431 88.2317 62.6531 88.23C62.7631 88.2282 62.9303 88.227 63.1655 88.2462C63.4007 88.2654 63.6987 88.3052 64.0612 88.3856C64.4237 88.4659 64.8416 88.5855 65.103 88.6683C65.3644 88.7511 65.4566 88.7935 65.5162 88.8223C65.5758 88.851 65.5999 88.8648 65.6247 88.879" stroke="#F5E4E4" stroke-width="0.5" stroke-linecap="round"/>
<path d="M64.7773 86.7505C64.7678 86.7561 64.7582 86.7616 64.7225 86.7796C64.6868 86.7976 64.6252 86.8278 64.3758 86.9046C64.1264 86.9814 63.691 87.1039 63.4285 87.1722C63.1659 87.2404 63.0895 87.2508 63.017 87.2557C62.9445 87.2607 62.8784 87.26 62.8133 87.255C62.7483 87.2501 62.6864 87.241 62.6392 87.2312C62.5607 87.2148 62.5195 87.1954 62.496 87.182C62.4371 87.1483 62.4221 87.0948 62.4164 87.0446C62.415 87.0326 62.4164 87.0241 62.4268 86.9841C62.4373 86.9441 62.4576 86.8727 62.4761 86.818C62.4946 86.7632 62.5105 86.7272 62.5276 86.6954C62.5598 86.6357 62.6018 86.5912 62.6428 86.5577C62.7008 86.5103 62.7501 86.5135 62.82 86.5139C62.8475 86.514 62.8871 86.5258 62.9598 86.5545C63.0326 86.5831 63.137 86.632 63.2603 86.7141C63.3835 86.7961 63.5223 86.9099 63.658 87.0378C63.7937 87.1658 63.9221 87.3045 64.0724 87.4421C64.2227 87.5796 64.391 87.7118 64.4992 87.7914C64.6074 87.871 64.6504 87.8939 64.6819 87.9095C64.7313 87.9339 64.7876 87.9468 64.8589 87.9563C64.8937 87.961 64.9263 87.958 64.9588 87.9516C64.9914 87.9452 65.0231 87.9337 65.0663 87.9115C65.1095 87.8894 65.1632 87.8571 65.2131 87.8211C65.263 87.7852 65.3074 87.7465 65.3421 87.714C65.3768 87.6814 65.4006 87.6561 65.4299 87.6184C65.4593 87.5807 65.4935 87.5312 65.5165 87.4937C65.553 87.4337 65.5664 87.3852 65.5749 87.3477C65.5866 87.2964 65.5644 87.2259 65.5339 87.16C65.5248 87.1403 65.5055 87.1212 65.4827 87.1004C65.4599 87.0796 65.4315 87.0593 65.3857 87.0335C65.3399 87.0078 65.2775 86.9772 65.2227 86.9547C65.1679 86.9321 65.1224 86.9184 65.0937 86.9105C65.065 86.9026 65.0545 86.9008 65.0437 86.8989" stroke="#F5E4E4" stroke-width="0.5" stroke-linecap="round"/>
<rect width="11.5981" height="4.83109" rx="2.41554" transform="matrix(-0.397217 0.917725 0.917725 0.397217 44.6069 44)" fill="url(#paint5_linear_166_922)"/>
<path d="M45.0704 53.4759C44.7045 52.583 43.7962 52.0359 42.8358 52.13C41.4203 52.2686 40.5126 53.7013 40.9918 55.0404L43.6108 62.3594C44.0501 63.587 45.4014 64.2261 46.629 63.7868C47.8961 63.3334 48.5284 61.9141 48.0181 60.6688L45.0704 53.4759Z" fill="url(#paint6_linear_166_922)"/>
<rect x="43.3208" y="46.2852" width="6.32065" height="5" transform="rotate(-42.6912 43.3208 46.2852)" fill="white"/>
<rect x="72.916" y="45.4141" width="12.0036" height="5" rx="2.5" transform="rotate(84.2297 72.916 45.4141)" fill="url(#paint7_linear_166_922)"/>
<path d="M71.8954 58.1665C70.9215 58.3875 69.9179 57.9434 69.4265 57.074C68.7023 55.7925 69.3761 54.1717 70.7953 53.7813L78.5525 51.6475C79.8536 51.2896 81.1985 52.0543 81.5564 53.3554C81.9258 54.6983 81.0995 56.078 79.7412 56.3862L71.8954 58.1665Z" fill="url(#paint8_linear_166_922)"/>
<path d="M68.7505 42.041L73 46.9998L68.5 51L64.9997 45.2553L68.7505 42.041Z" fill="white"/>
<defs>
<linearGradient id="paint0_linear_166_922" x1="66" y1="73.9082" x2="66" y2="77.9082" gradientUnits="userSpaceOnUse">
<stop stop-color="#EFC6C6"/>
<stop offset="1" stop-color="#F5E7E7"/>
</linearGradient>
<linearGradient id="paint1_linear_166_922" x1="53.3311" y1="73.5" x2="53.3311" y2="77.5" gradientUnits="userSpaceOnUse">
<stop stop-color="#EFC6C6"/>
<stop offset="1" stop-color="#F5E7E7"/>
</linearGradient>
<linearGradient id="paint2_linear_166_922" x1="46.2292" y1="84.4382" x2="52.9215" y2="77.0077" gradientUnits="userSpaceOnUse">
<stop stop-color="#EFC6C6"/>
<stop offset="1" stop-color="#F5E4E4"/>
</linearGradient>
<linearGradient id="paint3_linear_166_922" x1="63.9549" y1="84.7372" x2="68.2297" y2="74.0682" gradientUnits="userSpaceOnUse">
<stop stop-color="#EFC6C6"/>
<stop offset="1" stop-color="#F5E4E4"/>
</linearGradient>
<linearGradient id="paint4_linear_166_922" x1="46.0005" y1="23.5" x2="69.0005" y2="23.5" gradientUnits="userSpaceOnUse">
<stop stop-color="#FFB300"/>
<stop offset="1" stop-color="#F7F6EB"/>
</linearGradient>
<linearGradient id="paint5_linear_166_922" x1="4.18851" y1="2.04869" x2="11.537" y2="2.92696" gradientUnits="userSpaceOnUse">
<stop stop-color="#EFC6C6"/>
<stop offset="1" stop-color="#987F7F"/>
</linearGradient>
<linearGradient id="paint6_linear_166_922" x1="45.811" y1="62.3753" x2="46.5365" y2="54.1618" gradientUnits="userSpaceOnUse">
<stop stop-color="#EFC6C6"/>
<stop offset="1" stop-color="#B29494"/>
</linearGradient>
<linearGradient id="paint7_linear_166_922" x1="77.251" y1="47.5344" x2="84.8564" y2="48.4434" gradientUnits="userSpaceOnUse">
<stop stop-color="#EFC6C6"/>
<stop offset="1" stop-color="#987F7F"/>
</linearGradient>
<linearGradient id="paint8_linear_166_922" x1="79.8743" y1="53.5019" x2="73.3482" y2="59.0005" gradientUnits="userSpaceOnUse">
<stop stop-color="#EFC6C6"/>
<stop offset="1" stop-color="#B29494"/>
</linearGradient>
</defs>
</svg>
