<svg width="45" height="91" viewBox="0 0 45 91" fill="none" xmlns="http://www.w3.org/2000/svg">
<path d="M36.1577 37.9692C36.1577 36.2689 34.7794 34.8906 33.0792 34.8906H15.6342C13.9339 34.8906 12.5556 36.2689 12.5556 37.9692C12.5556 39.6694 13.9339 41.0477 15.6342 41.0477H33.0792C34.7794 41.0477 36.1577 39.6694 36.1577 37.9692Z" fill="white"/>
<rect width="6.15707" height="4.10471" transform="matrix(-0.874369 -0.485262 -0.485262 0.874369 19.7388 68.6621)" fill="url(#paint0_linear_166_1057)"/>
<rect width="6.15707" height="4.10471" transform="matrix(-0.978148 0.207912 0.207912 0.978148 32.7397 68.2441)" fill="url(#paint1_linear_166_1057)"/>
<path d="M33.0866 71.557C31.9488 70.2937 30.0022 70.1919 28.7389 71.3298C27.4755 72.4676 27.3737 74.4142 28.5116 75.6776L33.3188 81.0151L37.8939 76.8946L33.0866 71.557Z" fill="url(#paint2_linear_166_1057)"/>
<path d="M17.2418 70.4326C16.6872 68.9793 15.1545 68.1489 13.6343 68.4782C11.7287 68.8909 10.6527 70.919 11.3795 72.7283L14.3491 80.1203L20.0645 77.8303L17.2418 70.4326Z" fill="url(#paint3_linear_166_1057)"/>
<rect width="6.67016" height="8.20942" transform="matrix(-0.981627 0.190809 0.190809 0.981627 31.5127 60.5449)" fill="#272727"/>
<path d="M26.9208 63.6243L26.9212 60.5454L17.9801 58.4926L14.0634 65.7074L19.9255 68.8898L22.8162 63.6247L26.9208 63.6243Z" fill="#272727"/>
<path d="M36.1577 37.9668H13.5818L15.1211 61.5689H16.6538H33.0727H34.1054L36.1577 37.9668Z" fill="white"/>
<line x1="23.9624" y1="41.9336" x2="19.8216" y2="49.18" stroke="#0720FF"/>
<line x1="28.104" y1="41.9336" x2="23.9632" y2="49.18" stroke="#FF0000"/>
<line x1="26.0337" y1="41.9336" x2="21.8929" y2="49.18" stroke="#FBFF00"/>
<path d="M20.3032 44.7216C20.2975 44.6643 20.2731 44.6198 20.23 44.5881C20.1869 44.5563 20.1285 44.5405 20.0546 44.5405C20.0044 44.5405 19.962 44.5476 19.9275 44.5618C19.8929 44.5755 19.8664 44.5947 19.8479 44.6193C19.8299 44.6439 19.8209 44.6719 19.8209 44.7031C19.82 44.7292 19.8254 44.7519 19.8373 44.7713C19.8496 44.7907 19.8664 44.8075 19.8877 44.8217C19.909 44.8355 19.9336 44.8475 19.9616 44.858C19.9895 44.8679 20.0193 44.8764 20.051 44.8835L20.1817 44.9148C20.2452 44.929 20.3034 44.9479 20.3564 44.9716C20.4095 44.9953 20.4554 45.0244 20.4942 45.0589C20.5331 45.0935 20.5631 45.1342 20.5844 45.1811C20.6062 45.228 20.6173 45.2817 20.6178 45.3423C20.6173 45.4313 20.5946 45.5085 20.5496 45.5739C20.5051 45.6387 20.4407 45.6892 20.3564 45.7251C20.2726 45.7607 20.1715 45.7784 20.0532 45.7784C19.9358 45.7784 19.8335 45.7604 19.7464 45.7244C19.6597 45.6884 19.592 45.6352 19.5432 45.5646C19.4949 45.4936 19.4696 45.4058 19.4672 45.3011H19.7648C19.7681 45.3499 19.7821 45.3906 19.8067 45.4233C19.8318 45.4555 19.8652 45.4799 19.9069 45.4964C19.949 45.5125 19.9966 45.5206 20.0496 45.5206C20.1017 45.5206 20.1469 45.513 20.1853 45.4979C20.2241 45.4827 20.2542 45.4616 20.2755 45.4347C20.2968 45.4077 20.3074 45.3767 20.3074 45.3416C20.3074 45.3089 20.2977 45.2815 20.2783 45.2592C20.2594 45.237 20.2314 45.218 20.1945 45.2024C20.1581 45.1868 20.1133 45.1726 20.0603 45.1598L19.9019 45.12C19.7793 45.0902 19.6824 45.0436 19.6114 44.9801C19.5404 44.9167 19.5051 44.8312 19.5056 44.7237C19.5051 44.6357 19.5286 44.5587 19.5759 44.4929C19.6237 44.4271 19.6893 44.3757 19.7726 44.3388C19.856 44.3018 19.9507 44.2834 20.0567 44.2834C20.1647 44.2834 20.2589 44.3018 20.3394 44.3388C20.4204 44.3757 20.4833 44.4271 20.5283 44.4929C20.5733 44.5587 20.5965 44.6349 20.5979 44.7216H20.3032ZM21.0422 45.7578H20.7126L21.2148 44.3033H21.6111L22.1125 45.7578H21.7829L21.4186 44.6357H21.4072L21.0422 45.7578ZM21.0216 45.1861H21.8V45.4261H21.0216V45.1861ZM22.2876 45.7578V44.3033H22.5951V45.5043H23.2187V45.7578H22.2876ZM24.7023 45.0305C24.7023 45.1892 24.6723 45.3241 24.6121 45.4354C24.5525 45.5466 24.471 45.6316 24.3678 45.6903C24.2651 45.7486 24.1495 45.7777 24.0212 45.7777C23.892 45.7777 23.776 45.7483 23.6732 45.6896C23.5705 45.6309 23.4893 45.5459 23.4296 45.4347C23.3699 45.3234 23.3401 45.1887 23.3401 45.0305C23.3401 44.8719 23.3699 44.737 23.4296 44.6257C23.4893 44.5144 23.5705 44.4297 23.6732 44.3714C23.776 44.3127 23.892 44.2834 24.0212 44.2834C24.1495 44.2834 24.2651 44.3127 24.3678 44.3714C24.471 44.4297 24.5525 44.5144 24.6121 44.6257C24.6723 44.737 24.7023 44.8719 24.7023 45.0305ZM24.3905 45.0305C24.3905 44.9278 24.3751 44.8411 24.3444 44.7706C24.3141 44.7 24.2712 44.6465 24.2158 44.6101C24.1604 44.5736 24.0956 44.5554 24.0212 44.5554C23.9469 44.5554 23.882 44.5736 23.8266 44.6101C23.7712 44.6465 23.7281 44.7 23.6974 44.7706C23.6671 44.8411 23.6519 44.9278 23.6519 45.0305C23.6519 45.1333 23.6671 45.2199 23.6974 45.2905C23.7281 45.361 23.7712 45.4145 23.8266 45.451C23.882 45.4875 23.9469 45.5057 24.0212 45.5057C24.0956 45.5057 24.1604 45.4875 24.2158 45.451C24.2712 45.4145 24.3141 45.361 24.3444 45.2905C24.3751 45.2199 24.3905 45.1333 24.3905 45.0305ZM24.9301 44.3033H25.3094L25.71 45.2805H25.727L26.1276 44.3033H26.5068V45.7578H26.2085V44.8111H26.1965L25.82 45.7507H25.6169L25.2405 44.8075H25.2284V45.7578H24.9301V44.3033ZM28.0969 45.0305C28.0969 45.1892 28.0668 45.3241 28.0067 45.4354C27.947 45.5466 27.8656 45.6316 27.7623 45.6903C27.6596 45.7486 27.5441 45.7777 27.4157 45.7777C27.2865 45.7777 27.1705 45.7483 27.0677 45.6896C26.965 45.6309 26.8838 45.5459 26.8241 45.4347C26.7645 45.3234 26.7346 45.1887 26.7346 45.0305C26.7346 44.8719 26.7645 44.737 26.8241 44.6257C26.8838 44.5144 26.965 44.4297 27.0677 44.3714C27.1705 44.3127 27.2865 44.2834 27.4157 44.2834C27.5441 44.2834 27.6596 44.3127 27.7623 44.3714C27.8656 44.4297 27.947 44.5144 28.0067 44.6257C28.0668 44.737 28.0969 44.8719 28.0969 45.0305ZM27.7851 45.0305C27.7851 44.9278 27.7697 44.8411 27.7389 44.7706C27.7086 44.7 27.6657 44.6465 27.6104 44.6101C27.555 44.5736 27.4901 44.5554 27.4157 44.5554C27.3414 44.5554 27.2765 44.5736 27.2211 44.6101C27.1657 44.6465 27.1227 44.7 27.0919 44.7706C27.0616 44.8411 27.0464 44.9278 27.0464 45.0305C27.0464 45.1333 27.0616 45.2199 27.0919 45.2905C27.1227 45.361 27.1657 45.4145 27.2211 45.451C27.2765 45.4875 27.3414 45.5057 27.4157 45.5057C27.4901 45.5057 27.555 45.4875 27.6104 45.451C27.6657 45.4145 27.7086 45.361 27.7389 45.2905C27.7697 45.2199 27.7851 45.1333 27.7851 45.0305ZM29.5413 44.3033V45.7578H29.2757L28.6428 44.8423H28.6322V45.7578H28.3247V44.3033H28.5945L29.2224 45.218H29.2352V44.3033H29.5413Z" fill="black"/>
<path d="M29.8231 29.7578H19.5613L20.0744 33.8625C19.8058 35.4741 21.0485 36.9411 22.6823 36.9411H26.7765C28.2187 36.9411 29.1911 35.4664 28.623 34.1408C28.4064 33.6354 28.4064 33.0634 28.623 32.5581L29.8231 29.7578Z" fill="#EFC6C6"/>
<path d="M37.6969 10.2637H12.0424L11.5293 15.3946H38.21L37.6969 10.2637Z" fill="#EFC6C6"/>
<ellipse cx="14.3665" cy="13.8534" rx="14.3665" ry="13.8534" transform="matrix(-1 0 0 1 39.2295 5.13086)" fill="#EFC6C6"/>
<path d="M13.8545 21.8623H22.6553L22.791 21.5781L24.3721 18.2705H26.3164L27.8965 21.5781L28.0322 21.8623H36.4043V14.4854L34.1074 12.1885L33.9736 12.1553L31.9209 11.6416L31.8193 11.6162L31.7158 11.6338L28.7393 12.1396H21.5205L18.4111 11.6338L18.3184 11.6182L18.2256 11.6387L15.8535 12.1514L15.7002 12.1846L15.5928 12.2998L13.9883 14.0254L13.8545 14.1689V21.8623Z" fill="url(#paint4_linear_166_1057)" stroke="black"/>
<path d="M39.2566 17.4453L36.3411 16.4206L36.0113 17.3924L39.2564 18.4716L39.2566 17.4453Z" fill="black"/>
<path d="M39.2519 18.4151L36.9749 17.4434L36.6451 18.4151L39.2558 19.4979L39.2519 18.4151Z" fill="black"/>
<path d="M10.4283 16.549L13.7209 15.3917L14.0933 16.4892L10.4285 17.708L10.4283 16.549Z" fill="black"/>
<path d="M10.4765 17.6318L13.3478 16.4326L13.7202 17.5301L10.4293 18.8691L10.4765 17.6318Z" fill="black"/>
<line y1="-0.5" x2="3.24506" y2="-0.5" transform="matrix(0.316228 0.948683 0.948683 -0.316228 25.8887 19.498)" stroke="black"/>
<line y1="-0.5" x2="3.24506" y2="-0.5" transform="matrix(-0.948683 0.316228 0.316228 0.948683 26.915 23.6035)" stroke="black"/>
<ellipse cx="5.64398" cy="1.53927" rx="5.64398" ry="1.53927" transform="matrix(-1 0 0 1 29.9932 26.6816)" fill="#EFA7A7"/>
<path d="M35.5419 2.56544L24.8696 0L13.6638 2.56544L11.5293 10.2618H38.21L35.5419 2.56544Z" fill="#5C7780"/>
<path d="M35.4307 7.1838L24.8696 5.64453L13.7527 7.1838L11.5293 10.2623H38.21L35.4307 7.1838Z" fill="#283134"/>
<rect width="6.15707" height="4.10471" transform="matrix(-0.743028 0.66926 0.66926 0.743028 36.8125 75.9375)" fill="white"/>
<path d="M40.2461 79.7515L38.8726 78.2266L34.2977 82.3472L35.6712 83.8722L37.6559 87.6089L39.4485 88.0658C40.4198 87.642 41.25 86.95 41.8419 86.071L42.1172 85.6621L42.2308 83.4882L40.2461 79.7515Z" fill="black"/>
<path d="M40.5161 84.3189C40.4728 84.3364 40.4296 84.3538 40.3437 84.3931C40.2578 84.4324 40.1305 84.4931 39.9748 84.5828C39.8191 84.6725 39.639 84.7895 39.4905 84.8998C39.342 85.0102 39.2306 85.1105 39.0339 85.3332C38.8373 85.5559 38.5586 85.8979 38.2633 86.2577" stroke="#F5E4E4" stroke-width="0.5" stroke-linecap="round"/>
<path d="M39.5568 83.2704C39.4984 83.2868 39.44 83.3033 39.3203 83.3467C39.2006 83.3901 39.0214 83.4599 38.8533 83.5399C38.6851 83.6199 38.5335 83.7079 38.354 83.8391C38.1745 83.9703 37.9718 84.1419 37.7742 84.3397C37.5767 84.5376 37.3906 84.7565 37.1906 84.9894" stroke="#F5E4E4" stroke-width="0.5" stroke-linecap="round"/>
<path d="M39.5779 81.7393C39.5279 81.7555 39.4778 81.7716 39.3713 81.8089C39.2647 81.8461 39.1032 81.9041 38.8834 82.0059C38.6637 82.1077 38.3908 82.2515 38.07 82.4572C37.7493 82.6629 37.3892 82.926 37.1667 83.0983C36.9443 83.2706 36.8705 83.3441 36.8233 83.3929C36.776 83.4417 36.7577 83.4635 36.7388 83.486" stroke="#F5E4E4" stroke-width="0.5" stroke-linecap="round"/>
<path d="M36.8021 81.1366C36.8132 81.1386 36.8243 81.1406 36.8651 81.1452C36.9059 81.1499 36.9759 81.1572 37.2433 81.1429C37.5108 81.1286 37.9735 81.0925 38.2505 81.0653C38.5275 81.0381 38.6048 81.0209 38.6764 81.0001C38.748 80.9792 38.8114 80.9551 38.8723 80.9273C38.9332 80.8996 38.9896 80.8689 39.0316 80.8427C39.1014 80.7992 39.1343 80.7658 39.1521 80.7446C39.1969 80.6913 39.1924 80.6345 39.1802 80.5841C39.1772 80.572 39.1729 80.5644 39.1487 80.5295C39.1245 80.4947 39.0796 80.4332 39.0424 80.387C39.0052 80.3407 38.9772 80.3117 38.9494 80.2872C38.8973 80.2411 38.8411 80.213 38.7897 80.1953C38.7171 80.1702 38.6707 80.1907 38.6035 80.2158C38.5771 80.2257 38.5431 80.2511 38.4832 80.3044C38.4233 80.3578 38.34 80.4418 38.2503 80.5645C38.1607 80.6871 38.0672 80.8458 37.9818 81.0171C37.8964 81.1884 37.8219 81.3675 37.7258 81.5532C37.6298 81.7389 37.5144 81.9258 37.4384 82.0407C37.3623 82.1557 37.329 82.193 37.3042 82.2191C37.2653 82.2602 37.2157 82.2925 37.1503 82.327C37.1184 82.3437 37.086 82.3524 37.0524 82.3578C37.0188 82.3631 36.9842 82.3632 36.9347 82.3572C36.8853 82.3512 36.8221 82.3391 36.7613 82.3221C36.7005 82.3051 36.6441 82.2836 36.5991 82.2646C36.5541 82.2455 36.5223 82.2295 36.4807 82.2036C36.439 82.1776 36.3885 82.1422 36.3532 82.1141C36.2967 82.0693 36.2667 82.0273 36.2452 81.9942C36.2158 81.949 36.2122 81.8731 36.2182 81.7989C36.22 81.7767 36.2319 81.7514 36.2465 81.7233C36.261 81.6952 36.2813 81.6656 36.3163 81.6246C36.3513 81.5836 36.4005 81.5321 36.4453 81.4909C36.4901 81.4498 36.5291 81.4205 36.5539 81.4027C36.5788 81.3849 36.5882 81.3795 36.598 81.3739" stroke="#F5E4E4" stroke-width="0.5" stroke-linecap="round"/>
<rect width="6.15707" height="4.10471" transform="matrix(-0.928291 0.371854 0.371854 0.928291 19.7178 76.9629)" fill="white"/>
<path d="M21.6255 81.7255L20.8623 79.8203L15.1468 82.1098L15.9099 84.015L16.4837 88.207L18.0087 89.2543C19.0665 89.1915 20.0845 88.8284 20.9432 88.2076L21.3427 87.9187L22.1992 85.9175L21.6255 81.7255Z" fill="black"/>
<path d="M20.3031 86.1085C20.2565 86.1099 20.2099 86.1114 20.1157 86.1186C20.0215 86.1259 19.8811 86.1389 19.704 86.1695C19.527 86.2 19.3175 86.2476 19.1401 86.2999C18.9626 86.3523 18.8235 86.408 18.5621 86.5492C18.3006 86.6903 17.9211 86.9153 17.5197 87.1511" stroke="#F5E4E4" stroke-width="0.5" stroke-linecap="round"/>
<path d="M19.7647 84.7909C19.7042 84.7862 19.6437 84.7815 19.5164 84.7809C19.3891 84.7804 19.1968 84.7841 19.0114 84.8012C18.826 84.8182 18.6532 84.8486 18.4395 84.9098C18.2258 84.971 17.9763 85.0621 17.7227 85.1797C17.469 85.2972 17.2188 85.4385 16.9507 85.5881" stroke="#F5E4E4" stroke-width="0.5" stroke-linecap="round"/>
<path d="M20.3127 83.3638C20.2602 83.3617 20.2077 83.3595 20.0948 83.3578C19.9819 83.356 19.8103 83.3547 19.5689 83.3744C19.3276 83.3941 19.0218 83.435 18.6498 83.5174C18.2778 83.5998 17.849 83.7226 17.5808 83.8076C17.3125 83.8926 17.2179 83.9361 17.1567 83.9656C17.0956 83.9951 17.0709 84.0092 17.0454 84.0238" stroke="#F5E4E4" stroke-width="0.5" stroke-linecap="round"/>
<path d="M17.9145 81.8395C17.9243 81.8451 17.9341 81.8508 17.9707 81.8693C18.0074 81.8877 18.0706 81.9188 18.3265 81.9976C18.5825 82.0764 19.0293 82.2021 19.2987 82.2721C19.5681 82.3422 19.6466 82.3528 19.7209 82.3579C19.7953 82.363 19.8632 82.3622 19.9299 82.3572C19.9966 82.3521 20.0602 82.3428 20.1086 82.3327C20.1892 82.3159 20.2315 82.296 20.2556 82.2822C20.316 82.2476 20.3314 82.1928 20.3373 82.1412C20.3387 82.1289 20.3372 82.1202 20.3265 82.0791C20.3158 82.0381 20.2949 81.9649 20.276 81.9087C20.257 81.8525 20.2407 81.8155 20.2231 81.7829C20.1901 81.7217 20.147 81.6759 20.1049 81.6416C20.0454 81.593 19.9947 81.5962 19.923 81.5966C19.8948 81.5967 19.8542 81.6089 19.7796 81.6383C19.7049 81.6677 19.5977 81.7178 19.4713 81.802C19.3448 81.8862 19.2024 82.003 19.0631 82.1343C18.9238 82.2656 18.7921 82.4079 18.6379 82.5491C18.4837 82.6903 18.3109 82.8259 18.1999 82.9076C18.0889 82.9892 18.0447 83.0128 18.0124 83.0287C17.9617 83.0538 17.904 83.0671 17.8307 83.0768C17.7951 83.0816 17.7616 83.0785 17.7282 83.072C17.6948 83.0654 17.6623 83.0536 17.618 83.0309C17.5737 83.0082 17.5185 82.975 17.4673 82.9381C17.4161 82.9012 17.3706 82.8615 17.3349 82.8281C17.2993 82.7947 17.2749 82.7688 17.2448 82.73C17.2147 82.6913 17.1795 82.6406 17.156 82.6021C17.1185 82.5405 17.1048 82.4908 17.096 82.4523C17.084 82.3997 17.1068 82.3273 17.1381 82.2597C17.1474 82.2394 17.1673 82.2198 17.1906 82.1984C17.214 82.1771 17.2432 82.1563 17.2902 82.1299C17.3372 82.1035 17.4012 82.0721 17.4575 82.0489C17.5137 82.0258 17.5604 82.0118 17.5898 82.0036C17.6193 81.9955 17.63 81.9936 17.6411 81.9917" stroke="#F5E4E4" stroke-width="0.5" stroke-linecap="round"/>
<rect x="38.6123" y="37.9688" width="11.9017" height="4.95756" rx="2.47878" transform="rotate(66.5957 38.6123 37.9688)" fill="url(#paint5_linear_166_1057)"/>
<path d="M38.1369 47.6931C38.5124 46.7768 39.4445 46.2154 40.43 46.3119C41.8825 46.4542 42.814 47.9244 42.3223 49.2986L39.6347 56.8092C39.184 58.0689 37.7973 58.7247 36.5375 58.2739C35.2372 57.8086 34.5884 56.3522 35.1121 55.0743L38.1369 47.6931Z" fill="url(#paint6_linear_166_1057)"/>
<rect width="6.48612" height="5.13089" transform="matrix(-0.735019 -0.678046 -0.678046 0.735019 39.9321 40.3164)" fill="white"/>
<rect width="12.0036" height="5" rx="2.5" transform="matrix(-0.10054 0.994933 0.994933 0.10054 9.79395 39.332)" fill="url(#paint7_linear_166_1057)"/>
<path d="M10.6091 52.5061C11.6085 52.7329 12.6384 52.2771 13.1426 51.385C13.8859 50.0699 13.1944 48.4066 11.738 48.006L3.77777 45.8164C2.4426 45.4492 1.06249 46.2338 0.695231 47.569C0.316149 48.9471 1.16404 50.3628 2.55793 50.6791L10.6091 52.5061Z" fill="url(#paint8_linear_166_1057)"/>
<path d="M13.8369 35.959L9.4762 41.0475L14.094 45.1525L17.6859 39.2574L13.8369 35.959Z" fill="white"/>
<defs>
<linearGradient id="paint0_linear_166_1057" x1="3.07853" y1="0" x2="3.07853" y2="4.10471" gradientUnits="userSpaceOnUse">
<stop stop-color="#EFC6C6"/>
<stop offset="1" stop-color="#F5E7E7"/>
</linearGradient>
<linearGradient id="paint1_linear_166_1057" x1="3.07853" y1="0" x2="3.07853" y2="4.10471" gradientUnits="userSpaceOnUse">
<stop stop-color="#EFC6C6"/>
<stop offset="1" stop-color="#F5E7E7"/>
</linearGradient>
<linearGradient id="paint2_linear_166_1057" x1="36.9487" y1="79.4679" x2="30.0812" y2="71.8429" gradientUnits="userSpaceOnUse">
<stop stop-color="#EFC6C6"/>
<stop offset="1" stop-color="#F5E4E4"/>
</linearGradient>
<linearGradient id="paint3_linear_166_1057" x1="18.7587" y1="79.7744" x2="14.372" y2="68.8261" gradientUnits="userSpaceOnUse">
<stop stop-color="#EFC6C6"/>
<stop offset="1" stop-color="#F5E4E4"/>
</linearGradient>
<linearGradient id="paint4_linear_166_1057" x1="13.5804" y1="16.9311" x2="37.1825" y2="16.9311" gradientUnits="userSpaceOnUse">
<stop stop-color="#FFB300"/>
<stop offset="1" stop-color="#F7F6EB"/>
</linearGradient>
<linearGradient id="paint5_linear_166_1057" x1="42.9105" y1="40.0711" x2="50.4513" y2="40.9723" gradientUnits="userSpaceOnUse">
<stop stop-color="#EFC6C6"/>
<stop offset="1" stop-color="#987F7F"/>
</linearGradient>
<linearGradient id="paint6_linear_166_1057" x1="37.3769" y1="56.8254" x2="36.6325" y2="48.397" gradientUnits="userSpaceOnUse">
<stop stop-color="#EFC6C6"/>
<stop offset="1" stop-color="#B29494"/>
</linearGradient>
<linearGradient id="paint7_linear_166_1057" x1="4.33495" y1="2.12032" x2="11.9404" y2="3.0293" gradientUnits="userSpaceOnUse">
<stop stop-color="#EFC6C6"/>
<stop offset="1" stop-color="#987F7F"/>
</linearGradient>
<linearGradient id="paint8_linear_166_1057" x1="2.42138" y1="47.7193" x2="9.11824" y2="53.3619" gradientUnits="userSpaceOnUse">
<stop stop-color="#EFC6C6"/>
<stop offset="1" stop-color="#B29494"/>
</linearGradient>
</defs>
</svg>
