<svg width="41" height="90" viewBox="0 0 41 90" fill="none" xmlns="http://www.w3.org/2000/svg">
<path d="M7.4043 37C7.4043 35.3431 8.74744 34 10.4043 34H27.4043C29.0611 34 30.4043 35.3431 30.4043 37C30.4043 38.6569 29.0612 40 27.4043 40H10.4043C8.74744 40 7.4043 38.6569 7.4043 37Z" fill="white"/>
<rect x="16.4043" y="69.2207" width="6" height="9.74233" transform="rotate(-60.466 16.4043 69.2207)" fill="url(#paint0_linear_166_991)"/>
<rect x="16.7358" y="66" width="6" height="4" transform="rotate(12 16.7358 66)" fill="url(#paint1_linear_166_991)"/>
<path d="M13.0885 67.2292C14.1973 65.998 16.0942 65.8989 17.3254 67.0077C18.5565 68.1165 18.6556 70.0134 17.5468 71.2446L12.8622 76.4459L8.40387 72.4305L13.0885 67.2292Z" fill="url(#paint2_linear_166_991)"/>
<path d="M23.314 70.4344C23.8544 69.0183 25.3481 68.2091 26.8295 68.5299C28.6865 68.9321 29.735 70.9085 29.0267 72.6716L26.1329 79.875L20.5633 77.6435L23.314 70.4344Z" fill="url(#paint3_linear_166_991)"/>
<path d="M11.9312 59L18.3117 60.2403L23.9048 67L16.9048 68.5L13.4048 65L11.9312 59Z" fill="#272727"/>
<path d="M16.5034 63.319L16.5034 59.3178L25.2164 57.3173L25.2164 63.319L23.0034 67.3203L16.5038 66.8204L20.4048 63L16.5034 63.319Z" fill="#272727"/>
<path d="M7.4043 37H29.4043L27.9043 60H26.4106H10.4106H9.4043L7.4043 37Z" fill="white"/>
<line x1="17.8384" y1="40.2481" x2="13.8384" y2="47.2481" stroke="#0720FF"/>
<line x1="21.8384" y1="40.2481" x2="17.8384" y2="47.2481" stroke="#FF0000"/>
<line x1="19.8384" y1="40.2481" x2="15.8384" y2="47.2481" stroke="#FBFF00"/>
<path d="M14.3198 42.9638C14.3141 42.9065 14.2897 42.862 14.2466 42.8303C14.2035 42.7985 14.1451 42.7827 14.0712 42.7827C14.021 42.7827 13.9786 42.7898 13.9441 42.804C13.9095 42.8177 13.883 42.8369 13.8645 42.8615C13.8465 42.8861 13.8375 42.9141 13.8375 42.9453C13.8366 42.9714 13.842 42.9941 13.8539 43.0135C13.8662 43.0329 13.883 43.0497 13.9043 43.0639C13.9256 43.0777 13.9502 43.0897 13.9782 43.1001C14.0061 43.1101 14.0359 43.1186 14.0676 43.1257L14.1983 43.157C14.2618 43.1712 14.32 43.1901 14.373 43.2138C14.4261 43.2375 14.472 43.2666 14.5108 43.3011C14.5497 43.3357 14.5797 43.3764 14.601 43.4233C14.6228 43.4702 14.6339 43.5239 14.6344 43.5845C14.6339 43.6735 14.6112 43.7507 14.5662 43.8161C14.5217 43.8809 14.4573 43.9313 14.373 43.9673C14.2892 44.0028 14.1882 44.0206 14.0698 44.0206C13.9524 44.0206 13.8501 44.0026 13.763 43.9666C13.6763 43.9306 13.6086 43.8774 13.5598 43.8068C13.5115 43.7358 13.4862 43.648 13.4838 43.5433H13.7814C13.7847 43.5921 13.7987 43.6328 13.8233 43.6655C13.8484 43.6977 13.8818 43.7221 13.9235 43.7386C13.9656 43.7547 14.0132 43.7628 14.0662 43.7628C14.1183 43.7628 14.1635 43.7552 14.2019 43.7401C14.2407 43.7249 14.2708 43.7038 14.2921 43.6768C14.3134 43.6499 14.324 43.6188 14.324 43.5838C14.324 43.5511 14.3143 43.5237 14.2949 43.5014C14.276 43.4792 14.248 43.4602 14.2111 43.4446C14.1747 43.429 14.1299 43.4148 14.0769 43.402L13.9185 43.3622C13.7959 43.3324 13.699 43.2857 13.628 43.2223C13.557 43.1589 13.5217 43.0734 13.5222 42.9659C13.5217 42.8778 13.5452 42.8009 13.5925 42.7351C13.6403 42.6693 13.7059 42.6179 13.7892 42.581C13.8726 42.544 13.9673 42.5256 14.0733 42.5256C14.1813 42.5256 14.2755 42.544 14.356 42.581C14.437 42.6179 14.4999 42.6693 14.5449 42.7351C14.5899 42.8009 14.6131 42.8771 14.6145 42.9638H14.3198ZM15.0588 44H14.7292L15.2314 42.5455H15.6277L16.1291 44H15.7995L15.4352 42.8778H15.4238L15.0588 44ZM15.0382 43.4283H15.8166V43.6683H15.0382V43.4283ZM16.3042 44V42.5455H16.6117V43.7464H17.2353V44H16.3042ZM18.7189 43.2727C18.7189 43.4313 18.6889 43.5663 18.6287 43.6776C18.5691 43.7888 18.4876 43.8738 18.3844 43.9325C18.2817 43.9908 18.1661 44.0199 18.0378 44.0199C17.9086 44.0199 17.7926 43.9905 17.6898 43.9318C17.5871 43.8731 17.5059 43.7881 17.4462 43.6768C17.3865 43.5656 17.3567 43.4309 17.3567 43.2727C17.3567 43.1141 17.3865 42.9792 17.4462 42.8679C17.5059 42.7566 17.5871 42.6719 17.6898 42.6136C17.7926 42.5549 17.9086 42.5256 18.0378 42.5256C18.1661 42.5256 18.2817 42.5549 18.3844 42.6136C18.4876 42.6719 18.5691 42.7566 18.6287 42.8679C18.6889 42.9792 18.7189 43.1141 18.7189 43.2727ZM18.4071 43.2727C18.4071 43.17 18.3917 43.0833 18.361 43.0128C18.3307 42.9422 18.2878 42.8887 18.2324 42.8523C18.177 42.8158 18.1122 42.7976 18.0378 42.7976C17.9635 42.7976 17.8986 42.8158 17.8432 42.8523C17.7878 42.8887 17.7447 42.9422 17.714 43.0128C17.6837 43.0833 17.6685 43.17 17.6685 43.2727C17.6685 43.3755 17.6837 43.4621 17.714 43.5327C17.7447 43.6032 17.7878 43.6567 17.8432 43.6932C17.8986 43.7296 17.9635 43.7479 18.0378 43.7479C18.1122 43.7479 18.177 43.7296 18.2324 43.6932C18.2878 43.6567 18.3307 43.6032 18.361 43.5327C18.3917 43.4621 18.4071 43.3755 18.4071 43.2727ZM18.9467 42.5455H19.326L19.7266 43.5227H19.7436L20.1442 42.5455H20.5234V44H20.2251V43.0533H20.2131L19.8366 43.9929H19.6335L19.2571 43.0497H19.245V44H18.9467V42.5455ZM22.1135 43.2727C22.1135 43.4313 22.0834 43.5663 22.0233 43.6776C21.9636 43.7888 21.8822 43.8738 21.7789 43.9325C21.6762 43.9908 21.5607 44.0199 21.4324 44.0199C21.3031 44.0199 21.1871 43.9905 21.0843 43.9318C20.9816 43.8731 20.9004 43.7881 20.8407 43.6768C20.7811 43.5656 20.7512 43.4309 20.7512 43.2727C20.7512 43.1141 20.7811 42.9792 20.8407 42.8679C20.9004 42.7566 20.9816 42.6719 21.0843 42.6136C21.1871 42.5549 21.3031 42.5256 21.4324 42.5256C21.5607 42.5256 21.6762 42.5549 21.7789 42.6136C21.8822 42.6719 21.9636 42.7566 22.0233 42.8679C22.0834 42.9792 22.1135 43.1141 22.1135 43.2727ZM21.8017 43.2727C21.8017 43.17 21.7863 43.0833 21.7555 43.0128C21.7252 42.9422 21.6824 42.8887 21.627 42.8523C21.5716 42.8158 21.5067 42.7976 21.4324 42.7976C21.358 42.7976 21.2931 42.8158 21.2377 42.8523C21.1824 42.8887 21.1393 42.9422 21.1085 43.0128C21.0782 43.0833 21.063 43.17 21.063 43.2727C21.063 43.3755 21.0782 43.4621 21.1085 43.5327C21.1393 43.6032 21.1824 43.6567 21.2377 43.6932C21.2931 43.7296 21.358 43.7479 21.4324 43.7479C21.5067 43.7479 21.5716 43.7296 21.627 43.6932C21.6824 43.6567 21.7252 43.6032 21.7555 43.5327C21.7863 43.4621 21.8017 43.3755 21.8017 43.2727ZM23.5579 42.5455V44H23.2923L22.6594 43.0845H22.6488V44H22.3413V42.5455H22.6112L23.239 43.4602H23.2518V42.5455H23.5579Z" fill="black"/>
<path d="M13.5773 29H23.5773L23.0773 33C23.339 34.5704 22.128 36 20.5359 36H16.5462C15.1408 36 14.1932 34.563 14.7468 33.2712C14.9579 32.7787 14.9579 32.2213 14.7468 31.7288L13.5773 29Z" fill="#EFC6C6"/>
<path d="M5.9043 10H30.9043L31.4043 15H5.4043L5.9043 10Z" fill="#EFC6C6"/>
<ellipse cx="18.4106" cy="18.5" rx="14" ry="13.5" fill="#EFC6C6"/>
<path d="M29.1504 21.3184H20.5537L20.417 21.0342L18.8809 17.8184H17.002L15.4648 21.0342L15.3291 21.3184H7.15039V14.1113L9.39453 11.8672L9.5293 11.833L11.6309 11.3076L11.7344 11.3252L14.6396 11.8184H21.667L24.6953 11.3252L24.7881 11.3096L24.8809 11.3301L27.1924 11.8301L27.3457 11.8633L27.4531 11.9775L29.0166 13.6592L29.1504 13.8037V21.3184Z" fill="url(#paint4_linear_166_991)" stroke="black"/>
<path d="M4.38413 16.998L7.22521 15.9994L7.54655 16.9464L4.38428 17.998L4.38413 16.998Z" fill="black"/>
<path d="M4.3885 17.9428L6.60741 16.9958L6.92874 17.9428L4.38461 18.9979L4.3885 17.9428Z" fill="black"/>
<path d="M32.4765 16.1273L29.2679 14.9996L28.905 16.069L32.4763 17.2567L32.4765 16.1273Z" fill="black"/>
<path d="M32.4299 17.181L29.6319 16.0124L29.269 17.0819L32.4759 18.3868L32.4299 17.181Z" fill="black"/>
<line x1="17.8855" y1="19.1581" x2="16.8855" y2="22.1581" stroke="black"/>
<line x1="16.5692" y1="22.5257" x2="19.5692" y2="23.5257" stroke="black"/>
<ellipse cx="18.9111" cy="27.5" rx="5.5" ry="1.5" fill="#EFA7A7"/>
<path d="M8.0043 2.5L18.4043 0L29.3243 2.5L31.4043 10H5.4043L8.0043 2.5Z" fill="#5C7780"/>
<path d="M8.11263 7L18.4043 5.5L29.2376 7L31.4043 10H5.4043L8.11263 7Z" fill="#283134"/>
<rect x="8.76758" y="72" width="6" height="4" transform="rotate(42.01 8.76758 72)" fill="white"/>
<path d="M5.42124 75.7146L6.75977 74.2285L11.2179 78.2441L9.87941 79.7301L6.19848 83.8168L3.43691 83.3451C2.3404 83.1578 1.63499 82.0772 1.90479 80.998L3.40479 79.5L5.42124 75.7146Z" fill="black"/>
<path d="M5.15739 80.1694C5.19954 80.1863 5.24168 80.2033 5.32542 80.2416C5.40915 80.2799 5.53318 80.3391 5.68487 80.4265C5.83657 80.5139 6.01215 80.6279 6.15686 80.7354C6.30156 80.843 6.41006 80.9407 6.60174 81.1577C6.79341 81.3747 7.06497 81.7081 7.35276 82.0587" stroke="#F5E4E4" stroke-width="0.5" stroke-linecap="round"/>
<path d="M6.09267 79.1455C6.14959 79.1615 6.20651 79.1776 6.32315 79.2199C6.43979 79.2621 6.61443 79.3302 6.77828 79.4081C6.94213 79.4861 7.08991 79.5719 7.26483 79.6997C7.43974 79.8275 7.63731 79.9947 7.82979 80.1876C8.02228 80.3804 8.20368 80.5937 8.39859 80.8207" stroke="#F5E4E4" stroke-width="0.5" stroke-linecap="round"/>
<path d="M6.0713 77.6553C6.12009 77.671 6.16887 77.6867 6.27271 77.7231C6.37656 77.7594 6.53398 77.8159 6.74808 77.9151C6.96219 78.0143 7.22821 78.1544 7.54073 78.3549C7.85325 78.5553 8.20422 78.8117 8.42099 78.9797C8.63777 79.1476 8.70971 79.2192 8.75572 79.2667C8.80172 79.3142 8.81959 79.3355 8.83801 79.3574" stroke="#F5E4E4" stroke-width="0.5" stroke-linecap="round"/>
<path d="M8.77695 77.0664C8.7661 77.0683 8.75525 77.0702 8.71553 77.0748C8.67581 77.0793 8.60755 77.0865 8.34695 77.0725C8.08634 77.0586 7.63545 77.0234 7.36549 76.9969C7.09553 76.9704 7.02017 76.9537 6.95044 76.9333C6.8807 76.913 6.81886 76.8895 6.75952 76.8624C6.70017 76.8354 6.64518 76.8055 6.60431 76.78C6.53626 76.7375 6.50426 76.7051 6.48685 76.6844C6.4432 76.6324 6.44756 76.5771 6.45952 76.528C6.46237 76.5162 6.46663 76.5088 6.49021 76.4748C6.5138 76.4408 6.55756 76.3809 6.59378 76.3359C6.63 76.2908 6.65735 76.2625 6.68438 76.2386C6.7352 76.1937 6.78995 76.1664 6.84001 76.1491C6.9108 76.1246 6.95603 76.1446 7.0215 76.1691C7.04722 76.1787 7.08031 76.2034 7.13871 76.2554C7.19712 76.3074 7.27829 76.3893 7.36564 76.5089C7.45299 76.6284 7.54406 76.783 7.62729 76.95C7.71052 77.1169 7.78317 77.2914 7.87677 77.4723C7.97038 77.6533 8.08276 77.8354 8.15687 77.9474C8.23099 78.0595 8.26344 78.0959 8.28761 78.1213C8.32557 78.1613 8.37392 78.1928 8.43762 78.2264C8.46866 78.2427 8.50028 78.2512 8.53302 78.2564C8.56577 78.2616 8.5995 78.2617 8.64768 78.2558C8.69585 78.25 8.75745 78.2382 8.81668 78.2216C8.87591 78.2051 8.9309 78.1841 8.97474 78.1656C9.01857 78.147 9.04959 78.1314 9.09016 78.1061C9.13073 78.0809 9.17993 78.0463 9.21439 78.0189C9.26941 77.9752 9.29863 77.9344 9.3196 77.9021C9.34829 77.858 9.35175 77.7841 9.3459 77.7118C9.34415 77.6901 9.33259 77.6655 9.31839 77.6381C9.3042 77.6107 9.28448 77.5819 9.25036 77.5419C9.21624 77.502 9.16831 77.4518 9.12462 77.4117C9.08093 77.3716 9.04294 77.3431 9.01875 77.3257C8.99457 77.3084 8.98535 77.3031 8.97586 77.2976" stroke="#F5E4E4" stroke-width="0.5" stroke-linecap="round"/>
<rect x="21.6113" y="75.8164" width="6" height="4" transform="rotate(33.3885 21.6113 75.8164)" fill="white"/>
<path d="M19.8602 79.3216L21.3682 78.0078L25.3097 82.5316L23.8018 83.8454L21.4428 87.2271L19.655 87.4585C18.7652 86.9344 18.0433 86.1674 17.5741 85.2475L17.3557 84.8196L17.5013 82.7033L19.8602 79.3216Z" fill="black"/>
<path d="M19.2664 84.4354C19.3106 84.4459 19.3548 84.4563 19.4433 84.4817C19.5319 84.507 19.6634 84.5469 19.8265 84.6106C19.9895 84.6743 20.1802 84.7606 20.3394 84.8453C20.4986 84.9299 20.6205 85.0103 20.8426 85.1961C21.0646 85.3819 21.3831 85.6707 21.7202 85.9743" stroke="#F5E4E4" stroke-width="0.5" stroke-linecap="round"/>
<path d="M20.0377 83.2795C20.0964 83.2868 20.155 83.2942 20.2767 83.3185C20.3984 83.3428 20.5812 83.3839 20.7549 83.4364C20.9286 83.4889 21.0876 83.5516 21.2797 83.6518C21.4718 83.7519 21.6922 83.8876 21.9114 84.0494C22.1306 84.2112 22.3419 84.3949 22.5687 84.5901" stroke="#F5E4E4" stroke-width="0.5" stroke-linecap="round"/>
<path d="M19.7935 81.8104C19.844 81.8186 19.8946 81.8268 20.0028 81.8472C20.1109 81.8676 20.275 81.8998 20.5015 81.9658C20.7281 82.0317 21.0121 82.1304 21.3511 82.2818C21.6902 82.4331 22.0756 82.634 22.3151 82.7675C22.5546 82.9011 22.6365 82.9611 22.6891 83.0012C22.7417 83.0413 22.7626 83.0596 22.7841 83.0785" stroke="#F5E4E4" stroke-width="0.5" stroke-linecap="round"/>
<path d="M22.3804 80.8229C22.3699 80.8264 22.3595 80.8299 22.3209 80.8404C22.2823 80.8509 22.2159 80.8682 21.9561 80.8934C21.6964 80.9187 21.2453 80.9515 20.9744 80.9657C20.7036 80.98 20.6265 80.9748 20.5545 80.9651C20.4825 80.9555 20.4179 80.9415 20.3552 80.9237C20.2924 80.9058 20.2336 80.8845 20.1893 80.8654C20.1157 80.8336 20.0792 80.8064 20.0589 80.7885C20.0079 80.7437 20.004 80.6883 20.0084 80.6379C20.0095 80.6259 20.0126 80.6179 20.0308 80.5808C20.049 80.5437 20.0833 80.4779 20.1124 80.4279C20.1414 80.3779 20.1642 80.3458 20.1873 80.3182C20.2309 80.2661 20.2809 80.2309 20.3278 80.2063C20.3941 80.1715 20.4418 80.1845 20.5102 80.1989C20.5371 80.2045 20.5735 80.224 20.6391 80.2667C20.7046 80.3093 20.7971 80.3781 20.9014 80.4832C21.0057 80.5883 21.1189 80.7276 21.2262 80.8801C21.3336 81.0327 21.4315 81.1943 21.5512 81.3592C21.6709 81.5241 21.8093 81.6873 21.8994 81.7869C21.9894 81.8866 22.027 81.9177 22.0547 81.9392C22.0982 81.9731 22.1507 81.997 22.2188 82.0206C22.2519 82.0321 22.2844 82.0358 22.3176 82.036C22.3507 82.0363 22.3841 82.0313 22.4309 82.0183C22.4776 82.0053 22.5367 81.9844 22.5928 81.9591C22.6489 81.9339 22.7001 81.9049 22.7407 81.88C22.7812 81.8551 22.8096 81.835 22.8459 81.8039C22.8822 81.7729 22.9257 81.7313 22.9556 81.6991C23.0035 81.6476 23.0263 81.6029 23.0422 81.5678C23.0639 81.5199 23.0563 81.4463 23.0396 81.3757C23.0347 81.3545 23.0195 81.3319 23.0014 81.307C22.9833 81.2821 22.9594 81.2565 22.9197 81.2221C22.88 81.1877 22.8251 81.1452 22.7759 81.1121C22.7267 81.079 22.6848 81.0566 22.6583 81.043C22.6318 81.0295 22.6219 81.0257 22.6117 81.0217" stroke="#F5E4E4" stroke-width="0.5" stroke-linecap="round"/>
<rect width="11.5981" height="4.83109" rx="2.41554" transform="matrix(-0.397217 0.917725 0.917725 0.397217 5.01172 36.998)" fill="url(#paint5_linear_166_991)"/>
<path d="M4.12584 44.959C3.16514 45.0495 2.37756 45.7594 2.18829 46.7056C1.90932 48.1003 3.0161 49.3854 4.43668 49.3163L12.201 48.9389C13.5033 48.8756 14.5077 47.7686 14.4444 46.4663C14.3791 45.122 13.205 44.1043 11.8651 44.2304L4.12584 44.959Z" fill="url(#paint6_linear_166_991)"/>
<rect x="3.7251" y="39.2852" width="6.32065" height="5" transform="rotate(-42.6912 3.7251 39.2852)" fill="white"/>
<rect x="33.3203" y="38.4141" width="12.0036" height="5" rx="2.5" transform="rotate(84.2297 33.3203 38.4141)" fill="url(#paint7_linear_166_991)"/>
<path d="M29.762 50.202C29.0701 49.4819 28.9325 48.3931 29.4236 47.5235C30.1475 46.2418 31.8835 45.9824 32.9504 46.9966L38.7814 52.5397C39.7594 53.4694 39.7986 55.016 38.8688 55.994C37.9092 57.0035 36.3011 57.0078 35.336 56.0034L29.762 50.202Z" fill="url(#paint8_linear_166_991)"/>
<path d="M29.1548 35.041L33.4043 39.9998L28.9043 44L25.404 38.2553L29.1548 35.041Z" fill="white"/>
<defs>
<linearGradient id="paint0_linear_166_991" x1="19.4043" y1="69.2207" x2="19.4043" y2="78.963" gradientUnits="userSpaceOnUse">
<stop stop-color="#EFC6C6"/>
<stop offset="1" stop-color="#F5E7E7"/>
</linearGradient>
<linearGradient id="paint1_linear_166_991" x1="19.7358" y1="66" x2="19.7358" y2="70" gradientUnits="userSpaceOnUse">
<stop stop-color="#EFC6C6"/>
<stop offset="1" stop-color="#F5E7E7"/>
</linearGradient>
<linearGradient id="paint2_linear_166_991" x1="9.32493" y1="74.9382" x2="16.0172" y2="67.5077" gradientUnits="userSpaceOnUse">
<stop stop-color="#EFC6C6"/>
<stop offset="1" stop-color="#F5E4E4"/>
</linearGradient>
<linearGradient id="paint3_linear_166_991" x1="21.8358" y1="79.538" x2="26.1105" y2="68.8689" gradientUnits="userSpaceOnUse">
<stop stop-color="#EFC6C6"/>
<stop offset="1" stop-color="#F5E4E4"/>
</linearGradient>
<linearGradient id="paint4_linear_166_991" x1="6.40479" y1="16.5" x2="29.4048" y2="16.5" gradientUnits="userSpaceOnUse">
<stop stop-color="#FFB300"/>
<stop offset="1" stop-color="#F7F6EB"/>
</linearGradient>
<linearGradient id="paint5_linear_166_991" x1="4.18851" y1="2.04869" x2="11.537" y2="2.92696" gradientUnits="userSpaceOnUse">
<stop stop-color="#EFC6C6"/>
<stop offset="1" stop-color="#987F7F"/>
</linearGradient>
<linearGradient id="paint6_linear_166_991" x1="12.856" y1="46.8384" x2="5.20848" y2="43.7558" gradientUnits="userSpaceOnUse">
<stop stop-color="#EFC6C6"/>
<stop offset="1" stop-color="#B29494"/>
</linearGradient>
<linearGradient id="paint7_linear_166_991" x1="37.6553" y1="40.5344" x2="45.2607" y2="41.4434" gradientUnits="userSpaceOnUse">
<stop stop-color="#EFC6C6"/>
<stop offset="1" stop-color="#987F7F"/>
</linearGradient>
<linearGradient id="paint8_linear_166_991" x1="37.8752" y1="54.6288" x2="29.7975" y2="51.8768" gradientUnits="userSpaceOnUse">
<stop stop-color="#EFC6C6"/>
<stop offset="1" stop-color="#B29494"/>
</linearGradient>
</defs>
</svg>
