<svg width="36" height="94" viewBox="0 0 36 94" fill="none" xmlns="http://www.w3.org/2000/svg">
<path d="M7.99951 37C7.99951 35.3431 9.34266 34 10.9995 34H27.9995C29.6564 34 30.9995 35.3431 30.9995 37C30.9995 38.6569 29.6564 40 27.9995 40H10.9995C9.34266 40 7.99951 38.6569 7.99951 37Z" fill="white"/>
<path d="M10.7495 60H17.2495L16.4995 68H11.9995L10.7495 60Z" fill="#272727"/>
<path d="M16.9995 62L16.4995 60H27.2495L27.9995 68H19.4995L20.7495 62H16.9995Z" fill="#272727"/>
<path d="M7.99951 37H29.9995L28.4995 60H27.0059H11.0059H9.99951L7.99951 37Z" fill="white"/>
<line x1="18.4336" y1="40.2481" x2="14.4336" y2="47.2481" stroke="#0720FF"/>
<line x1="22.4336" y1="40.2481" x2="18.4336" y2="47.2481" stroke="#FF0000"/>
<line x1="20.4336" y1="40.2481" x2="16.4336" y2="47.2481" stroke="#FBFF00"/>
<path d="M14.915 42.9638C14.9093 42.9065 14.8849 42.862 14.8418 42.8303C14.7988 42.7985 14.7403 42.7827 14.6664 42.7827C14.6162 42.7827 14.5738 42.7898 14.5393 42.804C14.5047 42.8177 14.4782 42.8369 14.4597 42.8615C14.4417 42.8861 14.4328 42.9141 14.4328 42.9453C14.4318 42.9714 14.4372 42.9941 14.4491 43.0135C14.4614 43.0329 14.4782 43.0497 14.4995 43.0639C14.5208 43.0777 14.5454 43.0897 14.5734 43.1001C14.6013 43.1101 14.6311 43.1186 14.6629 43.1257L14.7935 43.157C14.857 43.1712 14.9152 43.1901 14.9683 43.2138C15.0213 43.2375 15.0672 43.2666 15.106 43.3011C15.1449 43.3357 15.1749 43.3764 15.1962 43.4233C15.218 43.4702 15.2292 43.5239 15.2296 43.5845C15.2292 43.6735 15.2064 43.7507 15.1614 43.8161C15.1169 43.8809 15.0525 43.9313 14.9683 43.9673C14.8845 44.0028 14.7834 44.0206 14.665 44.0206C14.5476 44.0206 14.4453 44.0026 14.3582 43.9666C14.2715 43.9306 14.2038 43.8774 14.1551 43.8068C14.1068 43.7358 14.0814 43.648 14.0791 43.5433H14.3766C14.38 43.5921 14.3939 43.6328 14.4185 43.6655C14.4436 43.6977 14.477 43.7221 14.5187 43.7386C14.5608 43.7547 14.6084 43.7628 14.6614 43.7628C14.7135 43.7628 14.7587 43.7552 14.7971 43.7401C14.8359 43.7249 14.866 43.7038 14.8873 43.6768C14.9086 43.6499 14.9193 43.6188 14.9193 43.5838C14.9193 43.5511 14.9095 43.5237 14.8901 43.5014C14.8712 43.4792 14.8433 43.4602 14.8063 43.4446C14.7699 43.429 14.7251 43.4148 14.6721 43.402L14.5137 43.3622C14.3911 43.3324 14.2943 43.2857 14.2232 43.2223C14.1522 43.1589 14.1169 43.0734 14.1174 42.9659C14.1169 42.8778 14.1404 42.8009 14.1877 42.7351C14.2355 42.6693 14.3011 42.6179 14.3845 42.581C14.4678 42.544 14.5625 42.5256 14.6685 42.5256C14.7765 42.5256 14.8707 42.544 14.9512 42.581C15.0322 42.6179 15.0952 42.6693 15.1401 42.7351C15.1851 42.8009 15.2083 42.8771 15.2097 42.9638H14.915ZM15.654 44H15.3244L15.8266 42.5455H16.2229L16.7243 44H16.3948L16.0304 42.8778H16.019L15.654 44ZM15.6334 43.4283H16.4118V43.6683H15.6334V43.4283ZM16.8994 44V42.5455H17.2069V43.7464H17.8305V44H16.8994ZM19.3141 43.2727C19.3141 43.4313 19.2841 43.5663 19.2239 43.6776C19.1643 43.7888 19.0828 43.8738 18.9796 43.9325C18.8769 43.9908 18.7613 44.0199 18.633 44.0199C18.5038 44.0199 18.3878 43.9905 18.285 43.9318C18.1823 43.8731 18.1011 43.7881 18.0414 43.6768C17.9818 43.5656 17.9519 43.4309 17.9519 43.2727C17.9519 43.1141 17.9818 42.9792 18.0414 42.8679C18.1011 42.7566 18.1823 42.6719 18.285 42.6136C18.3878 42.5549 18.5038 42.5256 18.633 42.5256C18.7613 42.5256 18.8769 42.5549 18.9796 42.6136C19.0828 42.6719 19.1643 42.7566 19.2239 42.8679C19.2841 42.9792 19.3141 43.1141 19.3141 43.2727ZM19.0024 43.2727C19.0024 43.17 18.987 43.0833 18.9562 43.0128C18.9259 42.9422 18.883 42.8887 18.8276 42.8523C18.7722 42.8158 18.7074 42.7976 18.633 42.7976C18.5587 42.7976 18.4938 42.8158 18.4384 42.8523C18.383 42.8887 18.3399 42.9422 18.3092 43.0128C18.2789 43.0833 18.2637 43.17 18.2637 43.2727C18.2637 43.3755 18.2789 43.4621 18.3092 43.5327C18.3399 43.6032 18.383 43.6567 18.4384 43.6932C18.4938 43.7296 18.5587 43.7479 18.633 43.7479C18.7074 43.7479 18.7722 43.7296 18.8276 43.6932C18.883 43.6567 18.9259 43.6032 18.9562 43.5327C18.987 43.4621 19.0024 43.3755 19.0024 43.2727ZM19.5419 42.5455H19.9212L20.3218 43.5227H20.3388L20.7394 42.5455H21.1187V44H20.8204V43.0533H20.8083L20.4319 43.9929H20.2287L19.8523 43.0497H19.8402V44H19.5419V42.5455ZM22.7087 43.2727C22.7087 43.4313 22.6786 43.5663 22.6185 43.6776C22.5588 43.7888 22.4774 43.8738 22.3742 43.9325C22.2714 43.9908 22.1559 44.0199 22.0276 44.0199C21.8983 44.0199 21.7823 43.9905 21.6796 43.9318C21.5768 43.8731 21.4956 43.7881 21.4359 43.6768C21.3763 43.5656 21.3465 43.4309 21.3465 43.2727C21.3465 43.1141 21.3763 42.9792 21.4359 42.8679C21.4956 42.7566 21.5768 42.6719 21.6796 42.6136C21.7823 42.5549 21.8983 42.5256 22.0276 42.5256C22.1559 42.5256 22.2714 42.5549 22.3742 42.6136C22.4774 42.6719 22.5588 42.7566 22.6185 42.8679C22.6786 42.9792 22.7087 43.1141 22.7087 43.2727ZM22.3969 43.2727C22.3969 43.17 22.3815 43.0833 22.3507 43.0128C22.3204 42.9422 22.2776 42.8887 22.2222 42.8523C22.1668 42.8158 22.1019 42.7976 22.0276 42.7976C21.9532 42.7976 21.8884 42.8158 21.833 42.8523C21.7776 42.8887 21.7345 42.9422 21.7037 43.0128C21.6734 43.0833 21.6582 43.17 21.6582 43.2727C21.6582 43.3755 21.6734 43.4621 21.7037 43.5327C21.7345 43.6032 21.7776 43.6567 21.833 43.6932C21.8884 43.7296 21.9532 43.7479 22.0276 43.7479C22.1019 43.7479 22.1668 43.7296 22.2222 43.6932C22.2776 43.6567 22.3204 43.6032 22.3507 43.5327C22.3815 43.4621 22.3969 43.3755 22.3969 43.2727ZM24.1531 42.5455V44H23.8875L23.2547 43.0845H23.244V44H22.9365V42.5455H23.2064L23.8342 43.4602H23.847V42.5455H24.1531Z" fill="black"/>
<path d="M14.1725 29H24.1725L23.6725 33C23.9343 34.5704 22.7232 36 21.1311 36H17.1414C15.736 36 14.7884 34.563 15.342 33.2712C15.5531 32.7787 15.5531 32.2213 15.342 31.7288L14.1725 29Z" fill="#EFC6C6"/>
<path d="M6.49951 10H31.4995L31.9995 15H5.99951L6.49951 10Z" fill="#EFC6C6"/>
<ellipse cx="19.0059" cy="18.5" rx="14" ry="13.5" fill="#EFC6C6"/>
<path d="M29.7451 21.3184H21.1484L21.0117 21.0342L19.4756 17.8184H17.5967L16.0596 21.0342L15.9238 21.3184H7.74512V14.1113L9.98926 11.8672L10.124 11.833L12.2256 11.3076L12.3291 11.3252L15.2344 11.8184H22.2617L25.29 11.3252L25.3828 11.3096L25.4756 11.3301L27.7871 11.8301L27.9404 11.8633L28.0479 11.9775L29.6113 13.6592L29.7451 13.8037V21.3184Z" fill="url(#paint0_linear_166_1186)" stroke="black"/>
<path d="M4.97885 16.998L7.81994 15.9994L8.14128 16.9464L4.979 17.998L4.97885 16.998Z" fill="black"/>
<path d="M4.98322 17.9428L7.20213 16.9958L7.52347 17.9428L4.97933 18.9979L4.98322 17.9428Z" fill="black"/>
<path d="M33.0712 16.1273L29.8626 14.9996L29.4997 16.069L33.0711 17.2567L33.0712 16.1273Z" fill="black"/>
<path d="M33.0247 17.181L30.2266 16.0124L29.8637 17.0819L33.0707 18.3868L33.0247 17.181Z" fill="black"/>
<line x1="18.4802" y1="19.1581" x2="17.4802" y2="22.1581" stroke="black"/>
<line x1="17.164" y1="22.5257" x2="20.164" y2="23.5257" stroke="black"/>
<ellipse cx="19.5059" cy="27.5" rx="5.5" ry="1.5" fill="#EFA7A7"/>
<path d="M8.59951 2.5L18.9995 0L29.9195 2.5L31.9995 10H5.99951L8.59951 2.5Z" fill="#5C7780"/>
<path d="M8.70785 7L18.9995 5.5L29.8328 7L31.9995 10H5.99951L8.70785 7Z" fill="#283134"/>
<path d="M19.9995 68H27.4995L27.9995 73H19.4995L19.9995 68Z" fill="url(#paint1_linear_166_1186)"/>
<path d="M11.9995 68H16.4995L15.9995 72H12.4995L11.9995 68Z" fill="url(#paint2_linear_166_1186)"/>
<path d="M12.4995 72H15.9995L15.4995 78H12.9995L12.4995 72Z" fill="url(#paint3_linear_166_1186)"/>
<path d="M19.4995 73H27.9995L26.9995 83H20.9995L19.4995 73Z" fill="url(#paint4_linear_166_1186)"/>
<rect x="12.9995" y="77" width="2.7273" height="1.8182" fill="white"/>
<path d="M12.9995 79.2724V78.3633H15.7268V79.2724L16.1814 81.0906L15.7268 81.7724C15.2815 81.9208 14.8031 81.9392 14.3477 81.8254L14.1359 81.7724L13.4541 81.0906L12.9995 79.2724Z" fill="black"/>
<path d="M14.2656 80.8562C14.285 80.8491 14.3044 80.8421 14.3444 80.8295C14.3843 80.817 14.4442 80.7992 14.522 80.7826C14.5998 80.766 14.6938 80.7511 14.7754 80.7434C14.857 80.7357 14.9234 80.7357 15.0541 80.7507C15.1849 80.7656 15.378 80.7956 15.5819 80.8265" stroke="#F5E4E4" stroke-width="0.5" stroke-linecap="round"/>
<path d="M14.2695 80.2267C14.2936 80.2148 14.3177 80.2029 14.37 80.1817C14.4223 80.1605 14.5019 80.1303 14.581 80.1068C14.66 80.0833 14.7361 80.0673 14.834 80.0573C14.932 80.0472 15.0496 80.0436 15.1732 80.0502C15.2969 80.0568 15.4231 80.0736 15.558 80.091" stroke="#F5E4E4" stroke-width="0.5" stroke-linecap="round"/>
<path d="M13.8091 79.7313C13.8303 79.7217 13.8516 79.7122 13.8977 79.6929C13.9438 79.6736 14.0142 79.6448 14.1167 79.6131C14.2192 79.5815 14.3517 79.5479 14.5182 79.5205C14.6847 79.4932 14.8813 79.473 15.0056 79.4638C15.1298 79.4545 15.1759 79.4568 15.2059 79.4589C15.2359 79.4609 15.2484 79.4627 15.2613 79.4645" stroke="#F5E4E4" stroke-width="0.5" stroke-linecap="round"/>
<path d="M14.5439 78.707C14.5408 78.711 14.5377 78.7149 14.5257 78.7285C14.5137 78.7422 14.4928 78.7653 14.4005 78.8399C14.3083 78.9145 14.1453 79.0398 14.046 79.1129C13.9468 79.1861 13.9163 79.2034 13.8865 79.2177C13.8568 79.2321 13.8288 79.243 13.8005 79.2519C13.7722 79.2608 13.7445 79.2674 13.723 79.2712C13.6871 79.2776 13.6664 79.2764 13.6542 79.2747C13.6237 79.2704 13.6083 79.2504 13.5974 79.2302C13.5948 79.2253 13.594 79.2215 13.5916 79.2029C13.5892 79.1842 13.5858 79.1507 13.5843 79.1244C13.5828 79.0982 13.5835 79.0803 13.5853 79.064C13.5888 79.0334 13.599 79.0075 13.6106 78.9865C13.6271 78.9567 13.6485 78.9496 13.678 78.938C13.6896 78.9334 13.7083 78.9317 13.7439 78.9315C13.7794 78.9313 13.8318 78.9343 13.8976 78.9481C13.9635 78.9619 14.0413 78.9864 14.1202 79.0174C14.1991 79.0485 14.2767 79.0853 14.3634 79.118C14.45 79.1506 14.5434 79.1779 14.6025 79.1932C14.6616 79.2085 14.6836 79.2109 14.6995 79.2122C14.7245 79.2141 14.7505 79.2101 14.7822 79.202C14.7976 79.1981 14.8109 79.1913 14.8235 79.1832C14.8362 79.175 14.8476 79.1647 14.8621 79.1481C14.8766 79.1314 14.8938 79.1087 14.9088 79.0851C14.9237 79.0615 14.9359 79.0377 14.9451 79.0181C14.9542 78.9985 14.96 78.9838 14.966 78.9629C14.972 78.942 14.9781 78.9154 14.9814 78.8957C14.9867 78.8642 14.9841 78.8415 14.9814 78.8242C14.9777 78.8006 14.9564 78.7746 14.9324 78.7519C14.9252 78.7451 14.9138 78.7403 14.9007 78.7354C14.8876 78.7305 14.8721 78.7267 14.8485 78.7236C14.8248 78.7205 14.7933 78.7181 14.7664 78.7179C14.7394 78.7176 14.7179 78.7196 14.7045 78.7211C14.691 78.7226 14.6863 78.7236 14.6814 78.7246" stroke="#F5E4E4" stroke-width="0.5" stroke-linecap="round"/>
<rect x="20.9995" y="83" width="6" height="4" fill="white"/>
<path d="M20.9995 88V86H26.9995V88L27.9995 92L26.9995 93.5C26.0199 93.8266 24.9674 93.867 23.9656 93.6165L23.4995 93.5L21.9995 92L20.9995 88Z" fill="black"/>
<path d="M23.7847 91.486C23.8273 91.4705 23.87 91.4549 23.9579 91.4273C24.0457 91.3997 24.1775 91.3606 24.3487 91.3241C24.5199 91.2875 24.7266 91.2547 24.9061 91.2377C25.0856 91.2208 25.2317 91.2208 25.5193 91.2538C25.807 91.2867 26.2318 91.3527 26.6803 91.4206" stroke="#F5E4E4" stroke-width="0.5" stroke-linecap="round"/>
<path d="M23.7935 90.0987C23.8465 90.0725 23.8995 90.0464 24.0145 89.9997C24.1294 89.9531 24.3047 89.8867 24.4787 89.835C24.6526 89.7833 24.8198 89.7481 25.0353 89.726C25.2508 89.7039 25.5095 89.696 25.7816 89.7104C26.0537 89.7248 26.3312 89.762 26.628 89.8002" stroke="#F5E4E4" stroke-width="0.5" stroke-linecap="round"/>
<path d="M22.7803 89.0057C22.827 88.9847 22.8738 88.9637 22.9753 88.9212C23.0767 88.8787 23.2315 88.8153 23.457 88.7457C23.6824 88.6761 23.9739 88.6023 24.3403 88.542C24.7066 88.4818 25.139 88.4375 25.4125 88.4171C25.6859 88.3968 25.7873 88.4019 25.8533 88.4064C25.9193 88.4109 25.9468 88.4148 25.9752 88.4187" stroke="#F5E4E4" stroke-width="0.5" stroke-linecap="round"/>
<path d="M24.3971 86.7578C24.3903 86.7665 24.3835 86.7752 24.357 86.8052C24.3306 86.8351 24.2846 86.8861 24.0817 87.0502C23.8787 87.2142 23.5201 87.4898 23.3018 87.6508C23.0834 87.8118 23.0163 87.8498 22.9508 87.8814C22.8854 87.9129 22.8237 87.9368 22.7615 87.9565C22.6993 87.9761 22.6385 87.9906 22.591 87.9991C22.5121 88.0131 22.4666 88.0104 22.4398 88.0066C22.3726 87.9972 22.3388 87.9532 22.3148 87.9087C22.309 87.8981 22.3072 87.8897 22.302 87.8487C22.2968 87.8076 22.2892 87.7338 22.286 87.6761C22.2827 87.6184 22.2841 87.5791 22.2882 87.5432C22.2959 87.4758 22.3183 87.4189 22.3439 87.3725C22.3802 87.307 22.4271 87.2916 22.4922 87.2659C22.5177 87.2559 22.5588 87.2521 22.637 87.2516C22.7152 87.2512 22.8304 87.2577 22.9753 87.2881C23.1202 87.3184 23.2913 87.3724 23.4649 87.4407C23.6384 87.509 23.8092 87.5901 23.9999 87.6619C24.1905 87.7337 24.3959 87.7938 24.526 87.8274C24.656 87.8611 24.7045 87.8664 24.7395 87.8691C24.7944 87.8734 24.8515 87.8645 24.9212 87.8468C24.9552 87.8382 24.9844 87.8233 25.0122 87.8053C25.04 87.7872 25.0652 87.7647 25.097 87.7281C25.1289 87.6915 25.1668 87.6415 25.1997 87.5896C25.2326 87.5377 25.2595 87.4853 25.2796 87.4421C25.2998 87.399 25.3124 87.3667 25.3256 87.3208C25.3389 87.2748 25.3523 87.2162 25.3596 87.1728C25.3712 87.1035 25.3656 87.0536 25.3596 87.0156C25.3514 86.9636 25.3045 86.9064 25.2517 86.8566C25.2359 86.8417 25.2108 86.8311 25.182 86.8202C25.1531 86.8094 25.1192 86.8012 25.0671 86.7943C25.015 86.7874 24.9457 86.7822 24.8864 86.7817C24.8271 86.7811 24.7798 86.7854 24.7503 86.7887C24.7207 86.792 24.7103 86.7942 24.6996 86.7965" stroke="#F5E4E4" stroke-width="0.5" stroke-linecap="round"/>
<rect width="11.5981" height="4.83109" rx="2.41554" transform="matrix(-0.397217 0.917725 0.917725 0.397217 5.60693 37)" fill="url(#paint5_linear_166_1186)"/>
<path d="M4.25463 45.5307C3.35748 45.1754 2.3335 45.4508 1.73554 46.2081C0.854195 47.3244 1.25745 48.9718 2.55473 49.5548L9.64518 52.7411C10.8345 53.2755 12.2318 52.7447 12.7663 51.5554C13.3179 50.3278 12.7334 48.8882 11.4821 48.3927L4.25463 45.5307Z" fill="url(#paint6_linear_166_1186)"/>
<rect x="4.32031" y="39.2852" width="6.32065" height="5" transform="rotate(-42.6912 4.32031 39.2852)" fill="white"/>
<rect x="33.916" y="38.4141" width="12.0036" height="5" rx="2.5" transform="rotate(84.2297 33.916 38.4141)" fill="url(#paint7_linear_166_1186)"/>
<path d="M30.0888 49.1473C30.0374 47.911 30.8936 46.8212 32.1069 46.5785C33.6229 46.2753 35.0505 47.3998 35.1109 48.9446L35.421 56.877C35.475 58.2584 34.399 59.422 33.0176 59.476C31.6386 59.5299 30.4762 58.4576 30.4188 57.0788L30.0888 49.1473Z" fill="url(#paint8_linear_166_1186)"/>
<path d="M29.75 35.041L33.9995 39.9998L29.4995 44L25.9992 38.2553L29.75 35.041Z" fill="white"/>
<defs>
<linearGradient id="paint0_linear_166_1186" x1="6.99951" y1="16.5" x2="29.9995" y2="16.5" gradientUnits="userSpaceOnUse">
<stop stop-color="#FFB300"/>
<stop offset="1" stop-color="#F7F6EB"/>
</linearGradient>
<linearGradient id="paint1_linear_166_1186" x1="23.9995" y1="68" x2="23.9995" y2="73" gradientUnits="userSpaceOnUse">
<stop stop-color="#EFC6C6"/>
<stop offset="1" stop-color="#F5E7E7"/>
</linearGradient>
<linearGradient id="paint2_linear_166_1186" x1="13.9995" y1="68" x2="13.9995" y2="72" gradientUnits="userSpaceOnUse">
<stop stop-color="#EFC6C6"/>
<stop offset="1" stop-color="#F5E7E7"/>
</linearGradient>
<linearGradient id="paint3_linear_166_1186" x1="14.2852" y1="78" x2="14.2852" y2="72" gradientUnits="userSpaceOnUse">
<stop stop-color="#EFC6C6"/>
<stop offset="1" stop-color="#F5E4E4"/>
</linearGradient>
<linearGradient id="paint4_linear_166_1186" x1="22.9995" y1="83" x2="22.9995" y2="73" gradientUnits="userSpaceOnUse">
<stop stop-color="#EFC6C6"/>
<stop offset="1" stop-color="#F5E4E4"/>
</linearGradient>
<linearGradient id="paint5_linear_166_1186" x1="4.18851" y1="2.04869" x2="11.537" y2="2.92696" gradientUnits="userSpaceOnUse">
<stop stop-color="#EFC6C6"/>
<stop offset="1" stop-color="#987F7F"/>
</linearGradient>
<linearGradient id="paint6_linear_166_1186" x1="11.1819" y1="51.1663" x2="5.76535" y2="44.9496" gradientUnits="userSpaceOnUse">
<stop stop-color="#EFC6C6"/>
<stop offset="1" stop-color="#B29494"/>
</linearGradient>
<linearGradient id="paint7_linear_166_1186" x1="38.251" y1="40.5344" x2="45.8564" y2="41.4434" gradientUnits="userSpaceOnUse">
<stop stop-color="#EFC6C6"/>
<stop offset="1" stop-color="#987F7F"/>
</linearGradient>
<linearGradient id="paint8_linear_166_1186" x1="33.3169" y1="57.8016" x2="29.446" y2="50.1963" gradientUnits="userSpaceOnUse">
<stop stop-color="#EFC6C6"/>
<stop offset="1" stop-color="#B29494"/>
</linearGradient>
</defs>
</svg>
