<svg width="42" height="93" viewBox="0 0 42 93" fill="none" xmlns="http://www.w3.org/2000/svg">
<path d="M34.0158 37.9653C34.0158 36.265 32.6375 34.8867 30.9373 34.8867H13.4922C11.792 34.8867 10.4137 36.265 10.4137 37.9653C10.4137 39.6655 11.792 41.0438 13.4922 41.0438H30.9373C32.6375 41.0438 34.0158 39.6655 34.0158 37.9653Z" fill="white"/>
<rect width="6.15707" height="9.99737" transform="matrix(-0.49294 -0.870064 -0.870064 0.49294 24.7795 71.0312)" fill="url(#paint0_linear_166_1121)"/>
<rect width="6.15707" height="4.10471" transform="matrix(-0.978148 0.207912 0.207912 0.978148 24.4406 67.7266)" fill="url(#paint1_linear_166_1121)"/>
<path d="M28.183 68.9848C27.0451 67.7214 25.0986 67.6197 23.8352 68.7575C22.5719 69.8954 22.4701 71.8419 23.608 73.1053L28.4152 78.4428L32.9902 74.3223L28.183 68.9848Z" fill="url(#paint2_linear_166_1121)"/>
<path d="M17.6897 72.2763C17.1352 70.8231 15.6024 69.9927 14.0822 70.3219C12.1766 70.7346 11.1006 72.7628 11.8275 74.572L14.797 81.964L20.5124 79.6741L17.6897 72.2763Z" fill="url(#paint3_linear_166_1121)"/>
<path d="M29.3703 60.543L22.8227 61.8157L17.0832 68.7524L24.2665 70.2917L27.8581 66.7L29.3703 60.543Z" fill="#272727"/>
<path d="M24.6786 64.9767L24.6786 60.8708L15.7375 58.8179L15.7375 64.9767L18.0084 69.0828L24.6782 68.5697L20.6751 64.6493L24.6786 64.9767Z" fill="#272727"/>
<path d="M34.0158 37.9668H11.4399L12.9792 61.5689H14.5119H30.9308H31.9634L34.0158 37.9668Z" fill="white"/>
<line x1="22.0334" y1="42.0625" x2="17.6698" y2="49.6989" stroke="#0720FF"/>
<line x1="26.3982" y1="42.0625" x2="22.0345" y2="49.6989" stroke="#FF0000"/>
<line x1="24.216" y1="42.0625" x2="19.8524" y2="49.6989" stroke="#FBFF00"/>
<path d="M18.151 44.9599C18.1453 44.9026 18.1209 44.8581 18.0779 44.8263C18.0348 44.7946 17.9763 44.7788 17.9024 44.7788C17.8522 44.7788 17.8099 44.7859 17.7753 44.8001C17.7407 44.8138 17.7142 44.833 17.6958 44.8576C17.6778 44.8822 17.6688 44.9102 17.6688 44.9414C17.6678 44.9674 17.6733 44.9902 17.6851 45.0096C17.6974 45.029 17.7142 45.0458 17.7355 45.06C17.7568 45.0737 17.7815 45.0858 17.8094 45.0962C17.8373 45.1062 17.8672 45.1147 17.8989 45.1218L18.0296 45.1531C18.093 45.1673 18.1512 45.1862 18.2043 45.2099C18.2573 45.2335 18.3032 45.2627 18.3421 45.2972C18.3809 45.3318 18.411 45.3725 18.4323 45.4194C18.454 45.4663 18.4652 45.52 18.4656 45.5806C18.4652 45.6696 18.4424 45.7468 18.3975 45.8121C18.353 45.877 18.2886 45.9274 18.2043 45.9634C18.1205 45.9989 18.0194 46.0167 17.901 46.0167C17.7836 46.0167 17.6813 45.9987 17.5942 45.9627C17.5075 45.9267 17.4398 45.8735 17.3911 45.8029C17.3428 45.7319 17.3174 45.6441 17.3151 45.5394H17.6127C17.616 45.5882 17.6299 45.6289 17.6546 45.6616C17.6797 45.6938 17.713 45.7182 17.7547 45.7347C17.7968 45.7508 17.8444 45.7589 17.8975 45.7589C17.9495 45.7589 17.9948 45.7513 18.0331 45.7362C18.0719 45.721 18.102 45.6999 18.1233 45.6729C18.1446 45.646 18.1553 45.6149 18.1553 45.5799C18.1553 45.5472 18.1456 45.5198 18.1262 45.4975C18.1072 45.4753 18.0793 45.4563 18.0423 45.4407C18.0059 45.4251 17.9611 45.4109 17.9081 45.3981L17.7497 45.3583C17.6271 45.3285 17.5303 45.2818 17.4592 45.2184C17.3882 45.1549 17.353 45.0695 17.3534 44.962C17.353 44.8739 17.3764 44.797 17.4237 44.7312C17.4716 44.6654 17.5371 44.614 17.6205 44.5771C17.7038 44.5401 17.7985 44.5217 17.9046 44.5217C18.0125 44.5217 18.1067 44.5401 18.1872 44.5771C18.2682 44.614 18.3312 44.6654 18.3762 44.7312C18.4211 44.797 18.4443 44.8732 18.4458 44.9599H18.151ZM18.89 45.9961H18.5605L19.0626 44.5415H19.4589L19.9603 45.9961H19.6308L19.2664 44.8739H19.2551L18.89 45.9961ZM18.8694 45.4244H19.6478V45.6644H18.8694V45.4244ZM20.1354 45.9961V44.5415H20.4429V45.7425H21.0665V45.9961H20.1354ZM22.5502 45.2688C22.5502 45.4274 22.5201 45.5624 22.46 45.6737C22.4003 45.7849 22.3189 45.8699 22.2156 45.9286C22.1129 45.9869 21.9974 46.016 21.869 46.016C21.7398 46.016 21.6238 45.9866 21.521 45.9279C21.4183 45.8692 21.3371 45.7842 21.2774 45.6729C21.2178 45.5617 21.1879 45.427 21.1879 45.2688C21.1879 45.1102 21.2178 44.9753 21.2774 44.864C21.3371 44.7527 21.4183 44.668 21.521 44.6097C21.6238 44.551 21.7398 44.5217 21.869 44.5217C21.9974 44.5217 22.1129 44.551 22.2156 44.6097C22.3189 44.668 22.4003 44.7527 22.46 44.864C22.5201 44.9753 22.5502 45.1102 22.5502 45.2688ZM22.2384 45.2688C22.2384 45.1661 22.223 45.0794 22.1922 45.0089C22.1619 44.9383 22.119 44.8848 22.0637 44.8484C22.0083 44.8119 21.9434 44.7937 21.869 44.7937C21.7947 44.7937 21.7298 44.8119 21.6744 44.8484C21.619 44.8848 21.576 44.9383 21.5452 45.0089C21.5149 45.0794 21.4997 45.1661 21.4997 45.2688C21.4997 45.3716 21.5149 45.4582 21.5452 45.5288C21.576 45.5993 21.619 45.6528 21.6744 45.6893C21.7298 45.7257 21.7947 45.744 21.869 45.744C21.9434 45.744 22.0083 45.7257 22.0637 45.6893C22.119 45.6528 22.1619 45.5993 22.1922 45.5288C22.223 45.4582 22.2384 45.3716 22.2384 45.2688ZM22.778 44.5415H23.1572L23.5578 45.5188H23.5748L23.9754 44.5415H24.3547V45.9961H24.0564V45.0494H24.0443L23.6679 45.989H23.4648L23.0883 45.0458H23.0763V45.9961H22.778V44.5415ZM25.9447 45.2688C25.9447 45.4274 25.9146 45.5624 25.8545 45.6737C25.7948 45.7849 25.7134 45.8699 25.6102 45.9286C25.5074 45.9869 25.3919 46.016 25.2636 46.016C25.1343 46.016 25.0183 45.9866 24.9156 45.9279C24.8128 45.8692 24.7316 45.7842 24.672 45.6729C24.6123 45.5617 24.5825 45.427 24.5825 45.2688C24.5825 45.1102 24.6123 44.9753 24.672 44.864C24.7316 44.7527 24.8128 44.668 24.9156 44.6097C25.0183 44.551 25.1343 44.5217 25.2636 44.5217C25.3919 44.5217 25.5074 44.551 25.6102 44.6097C25.7134 44.668 25.7948 44.7527 25.8545 44.864C25.9146 44.9753 25.9447 45.1102 25.9447 45.2688ZM25.6329 45.2688C25.6329 45.1661 25.6175 45.0794 25.5867 45.0089C25.5564 44.9383 25.5136 44.8848 25.4582 44.8484C25.4028 44.8119 25.3379 44.7937 25.2636 44.7937C25.1892 44.7937 25.1244 44.8119 25.069 44.8484C25.0136 44.8848 24.9705 44.9383 24.9397 45.0089C24.9094 45.0794 24.8943 45.1661 24.8943 45.2688C24.8943 45.3716 24.9094 45.4582 24.9397 45.5288C24.9705 45.5993 25.0136 45.6528 25.069 45.6893C25.1244 45.7257 25.1892 45.744 25.2636 45.744C25.3379 45.744 25.4028 45.7257 25.4582 45.6893C25.5136 45.6528 25.5564 45.5993 25.5867 45.5288C25.6175 45.4582 25.6329 45.3716 25.6329 45.2688ZM27.3891 44.5415V45.9961H27.1235L26.4907 45.0806H26.48V45.9961H26.1725V44.5415H26.4424L27.0702 45.4563H27.083V44.5415H27.3891Z" fill="black"/>
<path d="M27.6812 29.7559H17.4194L17.9325 33.8606C17.6639 35.4721 18.9066 36.9391 20.5404 36.9391H24.6346C26.0768 36.9391 27.0492 35.4645 26.481 34.1388C26.2645 33.6335 26.2645 33.0615 26.481 32.5561L27.6812 29.7559Z" fill="#EFC6C6"/>
<path d="M35.555 10.2598H9.90051L9.38742 15.3907H36.068L35.555 10.2598Z" fill="#EFC6C6"/>
<ellipse cx="14.3665" cy="13.8534" rx="14.3665" ry="13.8534" transform="matrix(-1 0 0 1 37.0881 5.12891)" fill="#EFC6C6"/>
<path d="M11.7136 21.8623H20.5143L20.6501 21.5781L22.2311 18.2705H24.1755L25.7555 21.5781L25.8913 21.8623H34.2634V14.4854L31.9665 12.1885L31.8327 12.1553L29.78 11.6416L29.6784 11.6162L29.5749 11.6338L26.5983 12.1396H19.3796L16.2702 11.6338L16.1774 11.6182L16.0846 11.6387L13.7126 12.1514L13.5593 12.1846L13.4518 12.2998L11.8473 14.0254L11.7136 14.1689V21.8623Z" fill="url(#paint4_linear_166_1121)" stroke="black"/>
<path d="M37.1151 17.4414L34.1997 16.4167L33.8699 17.3885L37.115 18.4676L37.1151 17.4414Z" fill="black"/>
<path d="M37.1104 18.4112L34.8334 17.4395L34.5037 18.4112L37.1144 19.494L37.1104 18.4112Z" fill="black"/>
<path d="M8.28736 16.5451L11.58 15.3878L11.9524 16.4853L8.28753 17.7041L8.28736 16.5451Z" fill="black"/>
<path d="M8.33512 17.624L11.2064 16.4248L11.5788 17.5222L8.2879 18.8613L8.33512 17.624Z" fill="black"/>
<line y1="-0.5" x2="3.24506" y2="-0.5" transform="matrix(0.316228 0.948683 0.948683 -0.316228 23.7468 19.498)" stroke="black"/>
<line y1="-0.5" x2="3.24506" y2="-0.5" transform="matrix(-0.948683 0.316228 0.316228 0.948683 24.7731 23.6016)" stroke="black"/>
<ellipse cx="5.64398" cy="1.53927" rx="5.64398" ry="1.53927" transform="matrix(-1 0 0 1 27.8517 26.6777)" fill="#EFA7A7"/>
<path d="M33.4005 2.56544L22.7282 0L11.5224 2.56544L9.38791 10.2618H36.0685L33.4005 2.56544Z" fill="#5C7780"/>
<path d="M33.2893 7.1838L22.7282 5.64453L11.6113 7.1838L9.38791 10.2623H36.0685L33.2893 7.1838Z" fill="#283134"/>
<rect width="6.15707" height="4.10471" transform="matrix(-0.743028 0.66926 0.66926 0.743028 32.6179 73.8828)" fill="white"/>
<path d="M36.0515 77.6949L34.6779 76.1699L30.103 80.2906L31.4766 81.8156L35.2539 86.0092L38.0877 85.5252C39.213 85.333 39.9368 84.2241 39.66 83.1167L38.1207 81.5794L36.0515 77.6949Z" fill="black"/>
<path d="M36.3224 82.2682C36.2792 82.2856 36.2359 82.303 36.15 82.3423C36.0641 82.3816 35.9368 82.4423 35.7811 82.532C35.6255 82.6218 35.4453 82.7387 35.2968 82.8491C35.1483 82.9594 35.037 83.0597 34.8403 83.2824C34.6436 83.5051 34.3649 83.8471 34.0696 84.207" stroke="#F5E4E4" stroke-width="0.5" stroke-linecap="round"/>
<path d="M35.3632 81.2157C35.3048 81.2321 35.2463 81.2486 35.1267 81.292C35.007 81.3354 34.8277 81.4052 34.6596 81.4852C34.4915 81.5652 34.3398 81.6533 34.1603 81.7844C33.9808 81.9156 33.7781 82.0872 33.5806 82.285C33.383 82.4829 33.1969 82.7018 32.9969 82.9347" stroke="#F5E4E4" stroke-width="0.5" stroke-linecap="round"/>
<path d="M35.3848 79.6846C35.3347 79.7008 35.2846 79.7169 35.1781 79.7542C35.0715 79.7914 34.91 79.8494 34.6903 79.9512C34.4705 80.053 34.1976 80.1968 33.8769 80.4025C33.5562 80.6082 33.196 80.8713 32.9736 81.0436C32.7511 81.216 32.6773 81.2894 32.6301 81.3382C32.5829 81.387 32.5645 81.4088 32.5456 81.4313" stroke="#F5E4E4" stroke-width="0.5" stroke-linecap="round"/>
<path d="M32.6084 79.08C32.6195 79.0819 32.6307 79.0839 32.6714 79.0886C32.7122 79.0933 32.7822 79.1006 33.0497 79.0863C33.3171 79.072 33.7798 79.0358 34.0568 79.0086C34.3338 78.9814 34.4112 78.9643 34.4827 78.9434C34.5543 78.9226 34.6177 78.8985 34.6786 78.8707C34.7395 78.8429 34.796 78.8122 34.8379 78.7861C34.9077 78.7425 34.9406 78.7092 34.9584 78.6879C35.0032 78.6346 34.9988 78.5779 34.9865 78.5274C34.9836 78.5154 34.9792 78.5077 34.955 78.4729C34.9308 78.4381 34.8859 78.3765 34.8487 78.3303C34.8116 78.2841 34.7835 78.255 34.7558 78.2305C34.7036 78.1844 34.6474 78.1564 34.596 78.1386C34.5234 78.1136 34.477 78.1341 34.4098 78.1592C34.3834 78.169 34.3495 78.1944 34.2895 78.2478C34.2296 78.3011 34.1463 78.3852 34.0567 78.5078C33.967 78.6305 33.8736 78.7892 33.7882 78.9605C33.7027 79.1318 33.6282 79.3108 33.5321 79.4965C33.4361 79.6822 33.3208 79.8691 33.2447 79.9841C33.1687 80.099 33.1353 80.1364 33.1105 80.1625C33.0716 80.2035 33.022 80.2359 32.9566 80.2703C32.9248 80.2871 32.8923 80.2958 32.8587 80.3011C32.8251 80.3065 32.7905 80.3066 32.7411 80.3006C32.6916 80.2945 32.6284 80.2824 32.5676 80.2655C32.5069 80.2485 32.4504 80.227 32.4054 80.2079C32.3604 80.1889 32.3286 80.1729 32.287 80.1469C32.2454 80.121 32.1949 80.0855 32.1595 80.0574C32.103 80.0126 32.0731 79.9707 32.0515 79.9376C32.0221 79.8923 32.0185 79.8165 32.0245 79.7423C32.0263 79.72 32.0382 79.6948 32.0528 79.6667C32.0673 79.6386 32.0876 79.609 32.1226 79.568C32.1576 79.5269 32.2068 79.4754 32.2516 79.4343C32.2965 79.3931 32.3354 79.3639 32.3603 79.3461C32.3851 79.3283 32.3945 79.3228 32.4043 79.3172" stroke="#F5E4E4" stroke-width="0.5" stroke-linecap="round"/>
<rect width="6.15707" height="4.10471" transform="matrix(-0.834958 0.550313 0.550313 0.834958 19.4377 77.7949)" fill="white"/>
<path d="M21.2336 81.3971L19.6862 80.0488L15.6415 84.691L17.1889 86.0393L19.6096 89.5094L21.4443 89.7469C22.3573 89.2091 23.0981 88.422 23.5796 87.4781L23.8037 87.0389L23.6543 84.8672L21.2336 81.3971Z" fill="black"/>
<path d="M21.8425 86.6442C21.7971 86.6549 21.7518 86.6657 21.6609 86.6917C21.5701 86.7177 21.4351 86.7586 21.2678 86.824C21.1004 86.8893 20.9048 86.9779 20.7414 87.0648C20.578 87.1516 20.4529 87.2341 20.2251 87.4248C19.9972 87.6155 19.6704 87.9119 19.3245 88.2234" stroke="#F5E4E4" stroke-width="0.5" stroke-linecap="round"/>
<path d="M21.0507 85.4581C20.9905 85.4656 20.9303 85.4731 20.8054 85.4981C20.6806 85.523 20.4929 85.5652 20.3147 85.6191C20.1365 85.673 19.9733 85.7373 19.7762 85.8401C19.5791 85.9428 19.3529 86.0821 19.128 86.2481C18.903 86.4141 18.6861 86.6027 18.4535 86.803" stroke="#F5E4E4" stroke-width="0.5" stroke-linecap="round"/>
<path d="M21.3009 83.9486C21.2489 83.957 21.197 83.9655 21.0861 83.9863C20.9751 84.0072 20.8067 84.0403 20.5743 84.108C20.3418 84.1757 20.0503 84.277 19.7024 84.4323C19.3545 84.5876 18.9589 84.7938 18.7132 84.9308C18.4674 85.0678 18.3834 85.1294 18.3294 85.1705C18.2754 85.2117 18.254 85.2305 18.232 85.2499" stroke="#F5E4E4" stroke-width="0.5" stroke-linecap="round"/>
<path d="M18.6469 82.9354C18.6576 82.939 18.6683 82.9426 18.7079 82.9533C18.7475 82.9641 18.8156 82.9818 19.0822 83.0077C19.3488 83.0337 19.8116 83.0673 20.0896 83.0819C20.3676 83.0966 20.4466 83.0912 20.5205 83.0813C20.5944 83.0714 20.6607 83.0571 20.7251 83.0388C20.7895 83.0205 20.8499 82.9986 20.8952 82.979C20.9708 82.9464 21.0083 82.9184 21.0291 82.9C21.0814 82.854 21.0855 82.7973 21.0809 82.7456C21.0798 82.7332 21.0767 82.725 21.058 82.6869C21.0393 82.6488 21.0041 82.5813 20.9743 82.53C20.9444 82.4788 20.921 82.4458 20.8973 82.4174C20.8526 82.364 20.8013 82.3279 20.7532 82.3026C20.6851 82.2669 20.6361 82.2802 20.566 82.295C20.5384 82.3008 20.501 82.3208 20.4337 82.3646C20.3665 82.4083 20.2715 82.479 20.1645 82.5868C20.0575 82.6946 19.9413 82.8375 19.8312 82.9941C19.7211 83.1506 19.6205 83.3165 19.4977 83.4857C19.3749 83.6549 19.2329 83.8224 19.1405 83.9246C19.048 84.0269 19.0095 84.0588 18.9811 84.0809C18.9364 84.1157 18.8825 84.1402 18.8127 84.1645C18.7787 84.1763 18.7453 84.18 18.7113 84.1802C18.6773 84.1805 18.643 84.1754 18.5951 84.162C18.5471 84.1487 18.4864 84.1272 18.4289 84.1013C18.3713 84.0754 18.3187 84.0457 18.2771 84.0201C18.2355 83.9945 18.2064 83.974 18.1691 83.9421C18.1319 83.9102 18.0873 83.8676 18.0565 83.8345C18.0074 83.7817 17.9841 83.7357 17.9677 83.6998C17.9454 83.6506 17.9533 83.5751 17.9703 83.5027C17.9755 83.4809 17.991 83.4577 18.0096 83.4321C18.0282 83.4065 18.0526 83.3803 18.0934 83.345C18.1342 83.3097 18.1905 83.2661 18.241 83.2322C18.2915 83.1982 18.3344 83.1751 18.3616 83.1613C18.3888 83.1474 18.399 83.1434 18.4095 83.1393" stroke="#F5E4E4" stroke-width="0.5" stroke-linecap="round"/>
<rect x="36.4714" y="37.9648" width="11.9017" height="4.95756" rx="2.47878" transform="rotate(66.5957 36.4714 37.9648)" fill="url(#paint5_linear_166_1121)"/>
<path d="M37.3798 46.1318C38.3656 46.2246 39.1738 46.9531 39.368 47.9241C39.6543 49.3552 38.5185 50.674 37.0608 50.6032L29.0932 50.2159C27.7568 50.1509 26.7261 49.0149 26.7911 47.6785C26.8581 46.2991 28.0629 45.2547 29.4379 45.3841L37.3798 46.1318Z" fill="url(#paint6_linear_166_1121)"/>
<rect width="6.48612" height="5.13089" transform="matrix(-0.735019 -0.678046 -0.678046 0.735019 37.7907 40.3086)" fill="white"/>
<rect width="12.0036" height="5" rx="2.5" transform="matrix(-0.10054 0.994933 0.994933 0.10054 7.64812 39.332)" fill="url(#paint7_linear_166_1121)"/>
<path d="M11.0725 51.5129C11.7825 50.7739 11.9236 49.6566 11.4197 48.7643C10.6769 47.449 8.89538 47.1828 7.80059 48.2235L1.81694 53.9117C0.813301 54.8658 0.773123 56.4529 1.72721 57.4565C2.71199 58.4924 4.3622 58.4968 5.35249 57.4662L11.0725 51.5129Z" fill="url(#paint8_linear_166_1121)"/>
<path d="M11.696 35.959L7.33527 41.0475L11.953 45.1525L15.5449 39.2574L11.696 35.959Z" fill="white"/>
<defs>
<linearGradient id="paint0_linear_166_1121" x1="3.07853" y1="0" x2="3.07853" y2="9.99737" gradientUnits="userSpaceOnUse">
<stop stop-color="#EFC6C6"/>
<stop offset="1" stop-color="#F5E7E7"/>
</linearGradient>
<linearGradient id="paint1_linear_166_1121" x1="3.07853" y1="0" x2="3.07853" y2="4.10471" gradientUnits="userSpaceOnUse">
<stop stop-color="#EFC6C6"/>
<stop offset="1" stop-color="#F5E7E7"/>
</linearGradient>
<linearGradient id="paint2_linear_166_1121" x1="32.0451" y1="76.8957" x2="25.1776" y2="69.2706" gradientUnits="userSpaceOnUse">
<stop stop-color="#EFC6C6"/>
<stop offset="1" stop-color="#F5E4E4"/>
</linearGradient>
<linearGradient id="paint3_linear_166_1121" x1="19.2066" y1="81.6182" x2="14.82" y2="70.6698" gradientUnits="userSpaceOnUse">
<stop stop-color="#EFC6C6"/>
<stop offset="1" stop-color="#F5E4E4"/>
</linearGradient>
<linearGradient id="paint4_linear_166_1121" x1="11.4395" y1="16.9311" x2="35.0416" y2="16.9311" gradientUnits="userSpaceOnUse">
<stop stop-color="#FFB300"/>
<stop offset="1" stop-color="#F7F6EB"/>
</linearGradient>
<linearGradient id="paint5_linear_166_1121" x1="40.7695" y1="40.0672" x2="48.3104" y2="40.9684" gradientUnits="userSpaceOnUse">
<stop stop-color="#EFC6C6"/>
<stop offset="1" stop-color="#987F7F"/>
</linearGradient>
<linearGradient id="paint6_linear_166_1121" x1="28.4211" y1="48.0603" x2="36.2688" y2="44.8971" gradientUnits="userSpaceOnUse">
<stop stop-color="#EFC6C6"/>
<stop offset="1" stop-color="#B29494"/>
</linearGradient>
<linearGradient id="paint7_linear_166_1121" x1="4.33495" y1="2.12032" x2="11.9404" y2="3.0293" gradientUnits="userSpaceOnUse">
<stop stop-color="#EFC6C6"/>
<stop offset="1" stop-color="#987F7F"/>
</linearGradient>
<linearGradient id="paint8_linear_166_1121" x1="2.74684" y1="56.0556" x2="11.0361" y2="53.2315" gradientUnits="userSpaceOnUse">
<stop stop-color="#EFC6C6"/>
<stop offset="1" stop-color="#B29494"/>
</linearGradient>
</defs>
</svg>
