<svg width="115" height="140" viewBox="0 0 115 140" fill="none" xmlns="http://www.w3.org/2000/svg">
<path d="M47 44C47 42.3431 48.3431 41 50 41H67C68.6569 41 70 42.3431 70 44C70 45.6569 68.6569 47 67 47H50C48.3431 47 47 45.6569 47 44Z" fill="white"/>
<rect x="56" y="76.2207" width="6" height="9.74233" transform="rotate(-60.466 56 76.2207)" fill="url(#paint0_linear_166_991)"/>
<rect x="56.3315" y="73" width="6" height="4" transform="rotate(12 56.3315 73)" fill="url(#paint1_linear_166_991)"/>
<path d="M52.6842 74.2292C53.793 72.998 55.6899 72.8989 56.9211 74.0077C58.1522 75.1165 58.2513 77.0134 57.1425 78.2446L52.4579 83.4459L47.9996 79.4305L52.6842 74.2292Z" fill="url(#paint2_linear_166_991)"/>
<path d="M62.9097 77.4344C63.4501 76.0183 64.9438 75.2091 66.4252 75.5299C68.2822 75.9321 69.3307 77.9085 68.6224 79.6716L65.7286 86.875L60.159 84.6435L62.9097 77.4344Z" fill="url(#paint3_linear_166_991)"/>
<path d="M51.5264 66L57.9069 67.2403L63.5 74L56.5 75.5L53 72L51.5264 66Z" fill="#272727"/>
<path d="M56.0986 70.319L56.0986 66.3178L64.8116 64.3173L64.8116 70.319L62.5986 74.3203L56.099 73.8204L60 70L56.0986 70.319Z" fill="#272727"/>
<path d="M47 44H69L67.5 67H66.0063H50.0063H49L47 44Z" fill="white"/>
<line x1="57.4341" y1="47.2481" x2="53.4341" y2="54.2481" stroke="#0720FF"/>
<line x1="61.4341" y1="47.2481" x2="57.4341" y2="54.2481" stroke="#FF0000"/>
<line x1="59.4341" y1="47.2481" x2="55.4341" y2="54.2481" stroke="#FBFF00"/>
<path d="M53.9155 49.9638C53.9098 49.9065 53.8854 49.862 53.8423 49.8303C53.7992 49.7985 53.7408 49.7827 53.6669 49.7827C53.6167 49.7827 53.5743 49.7898 53.5398 49.804C53.5052 49.8177 53.4787 49.8369 53.4602 49.8615C53.4422 49.8861 53.4332 49.9141 53.4332 49.9453C53.4323 49.9714 53.4377 49.9941 53.4496 50.0135C53.4619 50.0329 53.4787 50.0497 53.5 50.0639C53.5213 50.0777 53.5459 50.0897 53.5739 50.1001C53.6018 50.1101 53.6316 50.1186 53.6634 50.1257L53.794 50.157C53.8575 50.1712 53.9157 50.1901 53.9688 50.2138C54.0218 50.2375 54.0677 50.2666 54.1065 50.3011C54.1454 50.3357 54.1754 50.3764 54.1967 50.4233C54.2185 50.4702 54.2296 50.5239 54.2301 50.5845C54.2296 50.6735 54.2069 50.7507 54.1619 50.8161C54.1174 50.8809 54.053 50.9313 53.9688 50.9673C53.8849 51.0028 53.7839 51.0206 53.6655 51.0206C53.5481 51.0206 53.4458 51.0026 53.3587 50.9666C53.272 50.9306 53.2043 50.8774 53.1555 50.8068C53.1072 50.7358 53.0819 50.648 53.0795 50.5433H53.3771C53.3804 50.5921 53.3944 50.6328 53.419 50.6655C53.4441 50.6977 53.4775 50.7221 53.5192 50.7386C53.5613 50.7547 53.6089 50.7628 53.6619 50.7628C53.714 50.7628 53.7592 50.7552 53.7976 50.7401C53.8364 50.7249 53.8665 50.7038 53.8878 50.6768C53.9091 50.6499 53.9197 50.6188 53.9197 50.5838C53.9197 50.5511 53.91 50.5237 53.8906 50.5014C53.8717 50.4792 53.8438 50.4602 53.8068 50.4446C53.7704 50.429 53.7256 50.4148 53.6726 50.402L53.5142 50.3622C53.3916 50.3324 53.2947 50.2857 53.2237 50.2223C53.1527 50.1589 53.1174 50.0734 53.1179 49.9659C53.1174 49.8778 53.1409 49.8009 53.1882 49.7351C53.236 49.6693 53.3016 49.6179 53.3849 49.581C53.4683 49.544 53.563 49.5256 53.669 49.5256C53.777 49.5256 53.8712 49.544 53.9517 49.581C54.0327 49.6179 54.0956 49.6693 54.1406 49.7351C54.1856 49.8009 54.2088 49.8771 54.2102 49.9638H53.9155ZM54.6545 51H54.3249L54.8271 49.5455H55.2234L55.7248 51H55.3952L55.0309 49.8778H55.0195L54.6545 51ZM54.6339 50.4283H55.4123V50.6683H54.6339V50.4283ZM55.8999 51V49.5455H56.2074V50.7464H56.831V51H55.8999ZM58.3146 50.2727C58.3146 50.4313 58.2846 50.5663 58.2244 50.6776C58.1648 50.7888 58.0833 50.8738 57.9801 50.9325C57.8774 50.9908 57.7618 51.0199 57.6335 51.0199C57.5043 51.0199 57.3883 50.9905 57.2855 50.9318C57.1828 50.8731 57.1016 50.7881 57.0419 50.6768C56.9822 50.5656 56.9524 50.4309 56.9524 50.2727C56.9524 50.1141 56.9822 49.9792 57.0419 49.8679C57.1016 49.7566 57.1828 49.6719 57.2855 49.6136C57.3883 49.5549 57.5043 49.5256 57.6335 49.5256C57.7618 49.5256 57.8774 49.5549 57.9801 49.6136C58.0833 49.6719 58.1648 49.7566 58.2244 49.8679C58.2846 49.9792 58.3146 50.1141 58.3146 50.2727ZM58.0028 50.2727C58.0028 50.17 57.9875 50.0833 57.9567 50.0128C57.9264 49.9422 57.8835 49.8887 57.8281 49.8523C57.7727 49.8158 57.7079 49.7976 57.6335 49.7976C57.5592 49.7976 57.4943 49.8158 57.4389 49.8523C57.3835 49.8887 57.3404 49.9422 57.3097 50.0128C57.2794 50.0833 57.2642 50.17 57.2642 50.2727C57.2642 50.3755 57.2794 50.4621 57.3097 50.5327C57.3404 50.6032 57.3835 50.6567 57.4389 50.6932C57.4943 50.7296 57.5592 50.7479 57.6335 50.7479C57.7079 50.7479 57.7727 50.7296 57.8281 50.6932C57.8835 50.6567 57.9264 50.6032 57.9567 50.5327C57.9875 50.4621 58.0028 50.3755 58.0028 50.2727ZM58.5424 49.5455H58.9217L59.3223 50.5227H59.3393L59.7399 49.5455H60.1191V51H59.8208V50.0533H59.8088L59.4324 50.9929H59.2292L58.8528 50.0497H58.8407V51H58.5424V49.5455ZM61.7092 50.2727C61.7092 50.4313 61.6791 50.5663 61.619 50.6776C61.5593 50.7888 61.4779 50.8738 61.3746 50.9325C61.2719 50.9908 61.1564 51.0199 61.0281 51.0199C60.8988 51.0199 60.7828 50.9905 60.68 50.9318C60.5773 50.8731 60.4961 50.7881 60.4364 50.6768C60.3768 50.5656 60.3469 50.4309 60.3469 50.2727C60.3469 50.1141 60.3768 49.9792 60.4364 49.8679C60.4961 49.7566 60.5773 49.6719 60.68 49.6136C60.7828 49.5549 60.8988 49.5256 61.0281 49.5256C61.1564 49.5256 61.2719 49.5549 61.3746 49.6136C61.4779 49.6719 61.5593 49.7566 61.619 49.8679C61.6791 49.9792 61.7092 50.1141 61.7092 50.2727ZM61.3974 50.2727C61.3974 50.17 61.382 50.0833 61.3512 50.0128C61.3209 49.9422 61.2781 49.8887 61.2227 49.8523C61.1673 49.8158 61.1024 49.7976 61.0281 49.7976C60.9537 49.7976 60.8888 49.8158 60.8335 49.8523C60.7781 49.8887 60.735 49.9422 60.7042 50.0128C60.6739 50.0833 60.6587 50.17 60.6587 50.2727C60.6587 50.3755 60.6739 50.4621 60.7042 50.5327C60.735 50.6032 60.7781 50.6567 60.8335 50.6932C60.8888 50.7296 60.9537 50.7479 61.0281 50.7479C61.1024 50.7479 61.1673 50.7296 61.2227 50.6932C61.2781 50.6567 61.3209 50.6032 61.3512 50.5327C61.382 50.4621 61.3974 50.3755 61.3974 50.2727ZM63.1536 49.5455V51H62.888L62.2551 50.0845H62.2445V51H61.937V49.5455H62.2069L62.8347 50.4602H62.8475V49.5455H63.1536Z" fill="black"/>
<path d="M53.173 36H63.173L62.673 40C62.9348 41.5704 61.7237 43 60.1316 43H56.1419C54.7365 43 53.7889 41.563 54.3425 40.2712C54.5536 39.7787 54.5536 39.2213 54.3425 38.7288L53.173 36Z" fill="#EFC6C6"/>
<path d="M45.5 17H70.5L71 22H45L45.5 17Z" fill="#EFC6C6"/>
<ellipse cx="58.0063" cy="25.5" rx="14" ry="13.5" fill="#EFC6C6"/>
<path d="M68.7461 28.3184H60.1494L60.0127 28.0342L58.4766 24.8184H56.5977L55.0605 28.0342L54.9248 28.3184H46.7461V21.1113L48.9902 18.8672L49.125 18.833L51.2266 18.3076L51.3301 18.3252L54.2354 18.8184H61.2627L64.291 18.3252L64.3838 18.3096L64.4766 18.3301L66.7881 18.8301L66.9414 18.8633L67.0488 18.9775L68.6123 20.6592L68.7461 20.8037V28.3184Z" fill="url(#paint4_linear_166_991)" stroke="black"/>
<path d="M43.9798 23.998L46.8209 22.9994L47.1423 23.9464L43.98 24.998L43.9798 23.998Z" fill="black"/>
<path d="M43.9842 24.9428L46.2031 23.9958L46.5244 24.9428L43.9803 25.9979L43.9842 24.9428Z" fill="black"/>
<path d="M72.0722 23.1273L68.8636 21.9996L68.5007 23.069L72.0721 24.2567L72.0722 23.1273Z" fill="black"/>
<path d="M72.0256 24.181L69.2276 23.0124L68.8647 24.0819L72.0716 25.3868L72.0256 24.181Z" fill="black"/>
<line x1="57.4812" y1="26.1581" x2="56.4812" y2="29.1581" stroke="black"/>
<line x1="56.1649" y1="29.5257" x2="59.165" y2="30.5257" stroke="black"/>
<ellipse cx="58.5068" cy="34.5" rx="5.5" ry="1.5" fill="#EFA7A7"/>
<path d="M47.6 9.5L58 7L68.92 9.5L71 17H45L47.6 9.5Z" fill="#5C7780"/>
<path d="M47.7083 14L58 12.5L68.8333 14L71 17H45L47.7083 14Z" fill="#283134"/>
<rect x="48.3628" y="79" width="6" height="4" transform="rotate(42.01 48.3628 79)" fill="white"/>
<path d="M45.0165 82.7146L46.355 81.2285L50.8131 85.2441L49.4746 86.7301L45.7937 90.8168L43.0321 90.3451C41.9356 90.1578 41.2302 89.0772 41.5 87.998L43 86.5L45.0165 82.7146Z" fill="black"/>
<path d="M44.7526 87.1694C44.7948 87.1863 44.8369 87.2033 44.9206 87.2416C45.0044 87.2799 45.1284 87.3391 45.2801 87.4265C45.4318 87.5139 45.6074 87.6279 45.7521 87.7354C45.8968 87.843 46.0053 87.9407 46.1969 88.1577C46.3886 88.3747 46.6602 88.7081 46.948 89.0587" stroke="#F5E4E4" stroke-width="0.5" stroke-linecap="round"/>
<path d="M45.6879 86.1455C45.7448 86.1615 45.8017 86.1776 45.9184 86.2199C46.035 86.2621 46.2096 86.3302 46.3735 86.4081C46.5373 86.4861 46.6851 86.5719 46.86 86.6997C47.035 86.8275 47.2325 86.9947 47.425 87.1876C47.6175 87.3804 47.7989 87.5937 47.9938 87.8207" stroke="#F5E4E4" stroke-width="0.5" stroke-linecap="round"/>
<path d="M45.6665 84.6553C45.7153 84.671 45.7641 84.6867 45.8679 84.7231C45.9718 84.7594 46.1292 84.8159 46.3433 84.9151C46.5574 85.0143 46.8234 85.1544 47.1359 85.3549C47.4485 85.5553 47.7994 85.8117 48.0162 85.9797C48.233 86.1476 48.3049 86.2192 48.3509 86.2667C48.3969 86.3142 48.4148 86.3355 48.4332 86.3574" stroke="#F5E4E4" stroke-width="0.5" stroke-linecap="round"/>
<path d="M48.3722 84.0664C48.3613 84.0683 48.3505 84.0702 48.3107 84.0748C48.271 84.0793 48.2028 84.0865 47.9422 84.0725C47.6816 84.0586 47.2307 84.0234 46.9607 83.9969C46.6907 83.9704 46.6154 83.9537 46.5456 83.9333C46.4759 83.913 46.4141 83.8895 46.3547 83.8624C46.2954 83.8354 46.2404 83.8055 46.1995 83.78C46.1315 83.7375 46.0995 83.7051 46.0821 83.6844C46.0384 83.6324 46.0428 83.5771 46.0547 83.528C46.0576 83.5162 46.0618 83.5088 46.0854 83.4748C46.109 83.4408 46.1528 83.3809 46.189 83.3359C46.2252 83.2908 46.2526 83.2625 46.2796 83.2386C46.3304 83.1937 46.3852 83.1664 46.4352 83.1491C46.506 83.1246 46.5512 83.1446 46.6167 83.1691C46.6424 83.1787 46.6755 83.2034 46.7339 83.2554C46.7923 83.3074 46.8735 83.3893 46.9609 83.5089C47.0482 83.6284 47.1393 83.783 47.2225 83.95C47.3057 84.1169 47.3784 84.2914 47.472 84.4723C47.5656 84.6533 47.678 84.8354 47.7521 84.9474C47.8262 85.0595 47.8587 85.0959 47.8828 85.1213C47.9208 85.1613 47.9691 85.1928 48.0328 85.2264C48.0639 85.2427 48.0955 85.2512 48.1282 85.2564C48.161 85.2616 48.1947 85.2617 48.2429 85.2558C48.2911 85.25 48.3527 85.2382 48.4119 85.2216C48.4711 85.2051 48.5261 85.1841 48.57 85.1656C48.6138 85.147 48.6448 85.1314 48.6854 85.1061C48.7259 85.0809 48.7751 85.0463 48.8096 85.0189C48.8646 84.9752 48.8938 84.9344 48.9148 84.9021C48.9435 84.858 48.947 84.7841 48.9411 84.7118C48.9394 84.6901 48.9278 84.6655 48.9136 84.6381C48.8994 84.6107 48.8797 84.5819 48.8456 84.5419C48.8115 84.502 48.7635 84.4518 48.7198 84.4117C48.6761 84.3716 48.6381 84.3431 48.614 84.3257C48.5898 84.3084 48.5806 84.3031 48.5711 84.2976" stroke="#F5E4E4" stroke-width="0.5" stroke-linecap="round"/>
<rect x="61.207" y="82.8164" width="6" height="4" transform="rotate(33.3885 61.207 82.8164)" fill="white"/>
<path d="M59.4559 86.3216L60.9639 85.0078L64.9054 89.5316L63.3975 90.8454L61.0385 94.2271L59.2507 94.4585C58.3609 93.9344 57.6391 93.1674 57.1698 92.2475L56.9515 91.8196L57.097 89.7033L59.4559 86.3216Z" fill="black"/>
<path d="M58.8621 91.4354C58.9063 91.4459 58.9505 91.4563 59.039 91.4817C59.1276 91.507 59.2591 91.5469 59.4222 91.6106C59.5852 91.6743 59.7759 91.7606 59.9351 91.8453C60.0943 91.9299 60.2162 92.0103 60.4383 92.1961C60.6603 92.3819 60.9788 92.6707 61.3159 92.9743" stroke="#F5E4E4" stroke-width="0.5" stroke-linecap="round"/>
<path d="M59.6334 90.2795C59.6921 90.2868 59.7507 90.2942 59.8724 90.3185C59.9941 90.3428 60.1769 90.3839 60.3506 90.4364C60.5243 90.4889 60.6833 90.5516 60.8754 90.6518C61.0675 90.7519 61.2879 90.8876 61.5071 91.0494C61.7263 91.2112 61.9376 91.3949 62.1644 91.5901" stroke="#F5E4E4" stroke-width="0.5" stroke-linecap="round"/>
<path d="M59.3892 88.8104C59.4398 88.8186 59.4903 88.8268 59.5985 88.8472C59.7066 88.8676 59.8707 88.8998 60.0972 88.9658C60.3238 89.0317 60.6078 89.1304 60.9468 89.2818C61.2859 89.4331 61.6713 89.634 61.9108 89.7675C62.1503 89.9011 62.2322 89.9611 62.2848 90.0012C62.3374 90.0413 62.3583 90.0596 62.3798 90.0785" stroke="#F5E4E4" stroke-width="0.5" stroke-linecap="round"/>
<path d="M61.9761 87.8229C61.9656 87.8264 61.9552 87.8299 61.9166 87.8404C61.878 87.8509 61.8116 87.8682 61.5518 87.8934C61.2921 87.9187 60.841 87.9515 60.5701 87.9657C60.2993 87.98 60.2222 87.9748 60.1502 87.9651C60.0782 87.9555 60.0136 87.9415 59.9509 87.9237C59.8881 87.9058 59.8293 87.8845 59.785 87.8654C59.7114 87.8336 59.6749 87.8064 59.6546 87.7885C59.6036 87.7437 59.5997 87.6883 59.6041 87.6379C59.6052 87.6259 59.6083 87.6179 59.6265 87.5808C59.6447 87.5437 59.679 87.4779 59.7081 87.4279C59.7371 87.3779 59.7599 87.3458 59.7831 87.3182C59.8266 87.2661 59.8766 87.2309 59.9235 87.2063C59.9898 87.1715 60.0375 87.1845 60.1059 87.1989C60.1328 87.2045 60.1692 87.224 60.2348 87.2667C60.3003 87.3093 60.3928 87.3781 60.4971 87.4832C60.6014 87.5883 60.7146 87.7276 60.8219 87.8801C60.9293 88.0327 61.0272 88.1943 61.1469 88.3592C61.2666 88.5241 61.405 88.6873 61.4951 88.7869C61.5851 88.8866 61.6227 88.9177 61.6504 88.9392C61.6939 88.9731 61.7465 88.997 61.8145 89.0206C61.8476 89.0321 61.8801 89.0358 61.9133 89.036C61.9464 89.0363 61.9798 89.0313 62.0266 89.0183C62.0733 89.0053 62.1324 88.9844 62.1885 88.9591C62.2446 88.9339 62.2958 88.9049 62.3364 88.88C62.377 88.8551 62.4053 88.835 62.4416 88.8039C62.4779 88.7729 62.5214 88.7313 62.5514 88.6991C62.5992 88.6476 62.622 88.6029 62.6379 88.5678C62.6596 88.5199 62.652 88.4463 62.6353 88.3757C62.6304 88.3545 62.6152 88.3319 62.5971 88.307C62.579 88.2821 62.5551 88.2565 62.5154 88.2221C62.4757 88.1877 62.4208 88.1452 62.3716 88.1121C62.3224 88.079 62.2805 88.0566 62.254 88.043C62.2275 88.0295 62.2176 88.0257 62.2074 88.0217" stroke="#F5E4E4" stroke-width="0.5" stroke-linecap="round"/>
<rect width="11.5981" height="4.83109" rx="2.41554" transform="matrix(-0.397217 0.917725 0.917725 0.397217 44.6074 43.998)" fill="url(#paint5_linear_166_991)"/>
<path d="M43.7215 51.959C42.7608 52.0495 41.9733 52.7594 41.784 53.7056C41.505 55.1003 42.6118 56.3854 44.0324 56.3163L51.7967 55.9389C53.099 55.8756 54.1034 54.7686 54.0401 53.4663C53.9748 52.122 52.8007 51.1043 51.4608 51.2304L43.7215 51.959Z" fill="url(#paint6_linear_166_991)"/>
<rect x="43.3208" y="46.2852" width="6.32065" height="5" transform="rotate(-42.6912 43.3208 46.2852)" fill="white"/>
<rect x="72.916" y="45.4141" width="12.0036" height="5" rx="2.5" transform="rotate(84.2297 72.916 45.4141)" fill="url(#paint7_linear_166_991)"/>
<path d="M69.3577 57.202C68.6658 56.4819 68.5282 55.3931 69.0193 54.5235C69.7432 53.2418 71.4792 52.9824 72.5461 53.9966L78.3771 59.5397C79.3551 60.4694 79.3943 62.016 78.4645 62.994C77.5049 64.0035 75.8968 64.0078 74.9317 63.0034L69.3577 57.202Z" fill="url(#paint8_linear_166_991)"/>
<path d="M68.7505 42.041L73 46.9998L68.5 51L64.9997 45.2553L68.7505 42.041Z" fill="white"/>
<defs>
<linearGradient id="paint0_linear_166_991" x1="59" y1="76.2207" x2="59" y2="85.963" gradientUnits="userSpaceOnUse">
<stop stop-color="#EFC6C6"/>
<stop offset="1" stop-color="#F5E7E7"/>
</linearGradient>
<linearGradient id="paint1_linear_166_991" x1="59.3315" y1="73" x2="59.3315" y2="77" gradientUnits="userSpaceOnUse">
<stop stop-color="#EFC6C6"/>
<stop offset="1" stop-color="#F5E7E7"/>
</linearGradient>
<linearGradient id="paint2_linear_166_991" x1="48.9206" y1="81.9382" x2="55.613" y2="74.5077" gradientUnits="userSpaceOnUse">
<stop stop-color="#EFC6C6"/>
<stop offset="1" stop-color="#F5E4E4"/>
</linearGradient>
<linearGradient id="paint3_linear_166_991" x1="61.4315" y1="86.538" x2="65.7062" y2="75.8689" gradientUnits="userSpaceOnUse">
<stop stop-color="#EFC6C6"/>
<stop offset="1" stop-color="#F5E4E4"/>
</linearGradient>
<linearGradient id="paint4_linear_166_991" x1="46.0005" y1="23.5" x2="69.0005" y2="23.5" gradientUnits="userSpaceOnUse">
<stop stop-color="#FFB300"/>
<stop offset="1" stop-color="#F7F6EB"/>
</linearGradient>
<linearGradient id="paint5_linear_166_991" x1="4.18851" y1="2.04869" x2="11.537" y2="2.92696" gradientUnits="userSpaceOnUse">
<stop stop-color="#EFC6C6"/>
<stop offset="1" stop-color="#987F7F"/>
</linearGradient>
<linearGradient id="paint6_linear_166_991" x1="52.4517" y1="53.8384" x2="44.8042" y2="50.7558" gradientUnits="userSpaceOnUse">
<stop stop-color="#EFC6C6"/>
<stop offset="1" stop-color="#B29494"/>
</linearGradient>
<linearGradient id="paint7_linear_166_991" x1="77.251" y1="47.5344" x2="84.8564" y2="48.4434" gradientUnits="userSpaceOnUse">
<stop stop-color="#EFC6C6"/>
<stop offset="1" stop-color="#987F7F"/>
</linearGradient>
<linearGradient id="paint8_linear_166_991" x1="77.4709" y1="61.6288" x2="69.3932" y2="58.8768" gradientUnits="userSpaceOnUse">
<stop stop-color="#EFC6C6"/>
<stop offset="1" stop-color="#B29494"/>
</linearGradient>
</defs>
</svg>
