<svg width="45" height="90" viewBox="0 0 45 90" fill="none" xmlns="http://www.w3.org/2000/svg">
<path d="M8.21045 37.9692C8.21045 36.2689 9.58876 34.8906 11.289 34.8906H28.734C30.4342 34.8906 31.8125 36.2689 31.8125 37.9692C31.8125 39.6694 30.4342 41.0477 28.734 41.0477H11.289C9.58875 41.0477 8.21045 39.6694 8.21045 37.9692Z" fill="white"/>
<rect x="22.291" y="67" width="6.15707" height="4.10471" transform="rotate(9.21202 22.291 67)" fill="url(#paint0_linear_211_133)"/>
<rect x="11.521" y="68" width="6.15707" height="4.10471" transform="rotate(18.2377 11.521 68)" fill="url(#paint1_linear_211_133)"/>
<path d="M10.7332 71.2875C11.871 70.0242 13.8176 69.9224 15.081 71.0603C16.3443 72.1981 16.4461 74.1447 15.3082 75.408L10.501 80.7456L5.92595 76.6251L10.7332 71.2875Z" fill="url(#paint2_linear_211_133)"/>
<path d="M21.6932 71.7609C21.8383 70.2122 23.0927 69.0017 24.6456 68.9118C26.5921 68.7992 28.1719 70.4652 27.956 72.403L27.0743 80.3202L20.9544 79.6443L21.6932 71.7609Z" fill="url(#paint3_linear_211_133)"/>
<rect x="13.0566" y="60.4512" width="6.67016" height="8.20942" transform="rotate(13.4436 13.0566 60.4512)" fill="#272727"/>
<path d="M15.3667 62.9031L19.2306 58.3755L28.2005 60.2987L28.6965 68.4931L22.0385 68.8961L22.0385 63.5L15.3667 62.9031Z" fill="#272727"/>
<path d="M8.21045 37.9668H30.7864L29.2471 61.5689H27.7143H11.2955H10.2628L8.21045 37.9668Z" fill="white"/>
<line x1="18.168" y1="41.9336" x2="14.0272" y2="49.18" stroke="#0720FF"/>
<line x1="22.3096" y1="41.9336" x2="18.1688" y2="49.18" stroke="#FF0000"/>
<line x1="20.2393" y1="41.9336" x2="16.0985" y2="49.18" stroke="#FBFF00"/>
<path d="M14.5087 44.7216C14.5031 44.6643 14.4787 44.6198 14.4356 44.5881C14.3925 44.5563 14.334 44.5405 14.2602 44.5405C14.21 44.5405 14.1676 44.5476 14.133 44.5618C14.0985 44.5755 14.072 44.5947 14.0535 44.6193C14.0355 44.6439 14.0265 44.6719 14.0265 44.7031C14.0256 44.7292 14.031 44.7519 14.0428 44.7713C14.0551 44.7907 14.072 44.8075 14.0933 44.8217C14.1146 44.8355 14.1392 44.8475 14.1671 44.858C14.1951 44.8679 14.2249 44.8764 14.2566 44.8835L14.3873 44.9148C14.4507 44.929 14.509 44.9479 14.562 44.9716C14.615 44.9953 14.661 45.0244 14.6998 45.0589C14.7386 45.0935 14.7687 45.1342 14.79 45.1811C14.8118 45.228 14.8229 45.2817 14.8234 45.3423C14.8229 45.4313 14.8002 45.5085 14.7552 45.5739C14.7107 45.6387 14.6463 45.6892 14.562 45.7251C14.4782 45.7607 14.3771 45.7784 14.2587 45.7784C14.1413 45.7784 14.039 45.7604 13.9519 45.7244C13.8653 45.6884 13.7976 45.6352 13.7488 45.5646C13.7005 45.4936 13.6752 45.4058 13.6728 45.3011H13.9704C13.9737 45.3499 13.9877 45.3906 14.0123 45.4233C14.0374 45.4555 14.0708 45.4799 14.1124 45.4964C14.1546 45.5125 14.2022 45.5206 14.2552 45.5206C14.3073 45.5206 14.3525 45.513 14.3908 45.4979C14.4297 45.4827 14.4597 45.4616 14.481 45.4347C14.5024 45.4077 14.513 45.3767 14.513 45.3416C14.513 45.3089 14.5033 45.2815 14.4839 45.2592C14.4649 45.237 14.437 45.218 14.4001 45.2024C14.3636 45.1868 14.3189 45.1726 14.2658 45.1598L14.1075 45.12C13.9848 45.0902 13.888 45.0436 13.817 44.9801C13.746 44.9167 13.7107 44.8312 13.7112 44.7237C13.7107 44.6357 13.7341 44.5587 13.7815 44.4929C13.8293 44.4271 13.8949 44.3757 13.9782 44.3388C14.0615 44.3018 14.1562 44.2834 14.2623 44.2834C14.3703 44.2834 14.4645 44.3018 14.545 44.3388C14.6259 44.3757 14.6889 44.4271 14.7339 44.4929C14.7789 44.5587 14.8021 44.6349 14.8035 44.7216H14.5087ZM15.2477 45.7578H14.9182L15.4203 44.3033H15.8166L16.318 45.7578H15.9885L15.6242 44.6357H15.6128L15.2477 45.7578ZM15.2271 45.1861H16.0055V45.4261H15.2271V45.1861ZM16.4931 45.7578V44.3033H16.8006V45.5043H17.4242V45.7578H16.4931ZM18.9079 45.0305C18.9079 45.1892 18.8778 45.3241 18.8177 45.4354C18.758 45.5466 18.6766 45.6316 18.5734 45.6903C18.4706 45.7486 18.3551 45.7777 18.2268 45.7777C18.0975 45.7777 17.9815 45.7483 17.8788 45.6896C17.776 45.6309 17.6948 45.5459 17.6352 45.4347C17.5755 45.3234 17.5457 45.1887 17.5457 45.0305C17.5457 44.8719 17.5755 44.737 17.6352 44.6257C17.6948 44.5144 17.776 44.4297 17.8788 44.3714C17.9815 44.3127 18.0975 44.2834 18.2268 44.2834C18.3551 44.2834 18.4706 44.3127 18.5734 44.3714C18.6766 44.4297 18.758 44.5144 18.8177 44.6257C18.8778 44.737 18.9079 44.8719 18.9079 45.0305ZM18.5961 45.0305C18.5961 44.9278 18.5807 44.8411 18.5499 44.7706C18.5196 44.7 18.4768 44.6465 18.4214 44.6101C18.366 44.5736 18.3011 44.5554 18.2268 44.5554C18.1524 44.5554 18.0876 44.5736 18.0322 44.6101C17.9768 44.6465 17.9337 44.7 17.9029 44.7706C17.8726 44.8411 17.8575 44.9278 17.8575 45.0305C17.8575 45.1333 17.8726 45.2199 17.9029 45.2905C17.9337 45.361 17.9768 45.4145 18.0322 45.451C18.0876 45.4875 18.1524 45.5057 18.2268 45.5057C18.3011 45.5057 18.366 45.4875 18.4214 45.451C18.4768 45.4145 18.5196 45.361 18.5499 45.2905C18.5807 45.2199 18.5961 45.1333 18.5961 45.0305ZM19.1357 44.3033H19.515L19.9155 45.2805H19.9326L20.3331 44.3033H20.7124V45.7578H20.4141V44.8111H20.402L20.0256 45.7507H19.8225L19.4461 44.8075H19.434V45.7578H19.1357V44.3033ZM22.3024 45.0305C22.3024 45.1892 22.2724 45.3241 22.2122 45.4354C22.1526 45.5466 22.0711 45.6316 21.9679 45.6903C21.8652 45.7486 21.7496 45.7777 21.6213 45.7777C21.4921 45.7777 21.3761 45.7483 21.2733 45.6896C21.1706 45.6309 21.0894 45.5459 21.0297 45.4347C20.97 45.3234 20.9402 45.1887 20.9402 45.0305C20.9402 44.8719 20.97 44.737 21.0297 44.6257C21.0894 44.5144 21.1706 44.4297 21.2733 44.3714C21.3761 44.3127 21.4921 44.2834 21.6213 44.2834C21.7496 44.2834 21.8652 44.3127 21.9679 44.3714C22.0711 44.4297 22.1526 44.5144 22.2122 44.6257C22.2724 44.737 22.3024 44.8719 22.3024 45.0305ZM21.9906 45.0305C21.9906 44.9278 21.9752 44.8411 21.9445 44.7706C21.9142 44.7 21.8713 44.6465 21.8159 44.6101C21.7605 44.5736 21.6957 44.5554 21.6213 44.5554C21.547 44.5554 21.4821 44.5736 21.4267 44.6101C21.3713 44.6465 21.3282 44.7 21.2975 44.7706C21.2671 44.8411 21.252 44.9278 21.252 45.0305C21.252 45.1333 21.2671 45.2199 21.2975 45.2905C21.3282 45.361 21.3713 45.4145 21.4267 45.451C21.4821 45.4875 21.547 45.5057 21.6213 45.5057C21.6957 45.5057 21.7605 45.4875 21.8159 45.451C21.8713 45.4145 21.9142 45.361 21.9445 45.2905C21.9752 45.2199 21.9906 45.1333 21.9906 45.0305ZM23.7468 44.3033V45.7578H23.4812L22.8484 44.8423H22.8378V45.7578H22.5302V44.3033H22.8001L23.428 45.218H23.4407V44.3033H23.7468Z" fill="black"/>
<path d="M14.5451 29.7578H24.8069L24.2938 33.8625C24.5624 35.4741 23.3196 36.9411 21.6859 36.9411H17.5917C16.1495 36.9411 15.1771 35.4664 15.7452 34.1408C15.9618 33.6354 15.9618 33.0634 15.7452 32.5581L14.5451 29.7578Z" fill="#EFC6C6"/>
<path d="M6.67129 10.2637H32.3257L32.8388 15.3946H6.1582L6.67129 10.2637Z" fill="#EFC6C6"/>
<ellipse cx="19.5052" cy="18.9843" rx="14.3665" ry="13.8534" fill="#EFC6C6"/>
<path d="M30.5137 21.8623H21.7129L21.5771 21.5781L19.9961 18.2705H18.0518L16.4717 21.5781L16.3359 21.8623H7.96387V14.4854L10.2607 12.1885L10.3945 12.1553L12.4473 11.6416L12.5488 11.6162L12.6523 11.6338L15.6289 12.1396H22.8477L25.957 11.6338L26.0498 11.6182L26.1426 11.6387L28.5146 12.1514L28.668 12.1846L28.7754 12.2998L30.3799 14.0254L30.5137 14.1689V21.8623Z" fill="url(#paint4_linear_211_133)" stroke="black"/>
<path d="M5.1116 17.4453L8.02707 16.4206L8.35681 17.3924L5.11176 18.4716L5.1116 17.4453Z" fill="black"/>
<path d="M5.11631 18.4151L7.39331 17.4434L7.72306 18.4151L5.11232 19.4979L5.11631 18.4151Z" fill="black"/>
<path d="M33.9399 16.549L30.6473 15.3917L30.2748 16.4892L33.9397 17.708L33.9399 16.549Z" fill="black"/>
<path d="M33.8916 17.6318L31.0203 16.4326L30.6479 17.5301L33.9388 18.8691L33.8916 17.6318Z" fill="black"/>
<line x1="18.8225" y1="19.8437" x2="18.0062" y2="22.2925" stroke="black"/>
<line x1="17.6899" y1="22.4768" x2="20.1387" y2="23.2931" stroke="black"/>
<ellipse cx="20.019" cy="28.2209" rx="5.64398" ry="1.53927" fill="#EFA7A7"/>
<path d="M8.82627 2.56544L19.4985 0L30.7044 2.56544L32.8388 10.2618H6.1582L8.82627 2.56544Z" fill="#5C7780"/>
<path d="M8.93744 7.1838L19.4985 5.64453L30.6154 7.1838L32.8388 10.2623H6.1582L8.93744 7.1838Z" fill="#283134"/>
<rect x="7.55518" y="74.9375" width="6.15707" height="4.10471" transform="rotate(42.01 7.55518 74.9375)" fill="white"/>
<path d="M4.12156 78.7515L5.49512 77.2266L10.07 81.3472L8.69643 82.8722L6.71179 86.6089L4.91914 87.0658C3.94791 86.642 3.11767 85.95 2.52581 85.071L2.25046 84.6621L2.13691 82.4882L4.12156 78.7515Z" fill="black"/>
<path d="M3.85158 83.3189C3.89483 83.3364 3.93808 83.3538 4.024 83.3931C4.10992 83.4324 4.2372 83.4931 4.39287 83.5828C4.54853 83.6725 4.72871 83.7895 4.8772 83.8998C5.0257 84.0102 5.13704 84.1105 5.33373 84.3332C5.53042 84.5559 5.80909 84.8979 6.10442 85.2577" stroke="#F5E4E4" stroke-width="0.5" stroke-linecap="round"/>
<path d="M4.81083 82.2704C4.86925 82.2868 4.92766 82.3033 5.04735 82.3467C5.16705 82.3901 5.34625 82.4599 5.5144 82.5399C5.68254 82.6199 5.83418 82.7079 6.01368 82.8391C6.19317 82.9703 6.39591 83.1419 6.59343 83.3397C6.79096 83.5376 6.97711 83.7565 7.17712 83.9894" stroke="#F5E4E4" stroke-width="0.5" stroke-linecap="round"/>
<path d="M4.78974 80.7393C4.8398 80.7555 4.88986 80.7716 4.99642 80.8089C5.10298 80.8461 5.26452 80.9041 5.48423 81.0059C5.70394 81.1077 5.97692 81.2515 6.29763 81.4572C6.61833 81.6629 6.97848 81.926 7.20093 82.0983C7.42338 82.2706 7.49722 82.3441 7.54442 82.3929C7.59163 82.4417 7.60997 82.4635 7.62887 82.486" stroke="#F5E4E4" stroke-width="0.5" stroke-linecap="round"/>
<path d="M7.56561 80.1366C7.55447 80.1386 7.54334 80.1406 7.50258 80.1452C7.46182 80.1499 7.39177 80.1572 7.12434 80.1429C6.85691 80.1286 6.39422 80.0925 6.1172 80.0653C5.84017 80.0381 5.76284 80.0209 5.69128 80.0001C5.61971 79.9792 5.55626 79.9551 5.49536 79.9273C5.43446 79.8996 5.37803 79.8689 5.33609 79.8427C5.26626 79.7992 5.23342 79.7658 5.21555 79.7446C5.17076 79.6913 5.17524 79.6345 5.18751 79.5841C5.19044 79.572 5.1948 79.5644 5.21901 79.5295C5.24321 79.4947 5.28812 79.4332 5.32528 79.387C5.36245 79.3407 5.39052 79.3117 5.41825 79.2872C5.47041 79.2411 5.52659 79.213 5.57796 79.1953C5.6506 79.1702 5.69702 79.1907 5.7642 79.2158C5.7906 79.2257 5.82455 79.2511 5.88449 79.3044C5.94442 79.3578 6.02771 79.4418 6.11735 79.5645C6.20699 79.6871 6.30044 79.8458 6.38585 80.0171C6.47126 80.1884 6.54581 80.3675 6.64187 80.5532C6.73793 80.7389 6.85324 80.9258 6.9293 81.0407C7.00535 81.1557 7.03865 81.193 7.06346 81.2191C7.10241 81.2602 7.15202 81.2925 7.2174 81.327C7.24924 81.3437 7.28169 81.3524 7.31529 81.3578C7.3489 81.3631 7.38351 81.3632 7.43295 81.3572C7.48239 81.3512 7.54559 81.3391 7.60637 81.3221C7.66715 81.3051 7.72359 81.2836 7.76857 81.2646C7.81356 81.2455 7.84538 81.2295 7.88702 81.2036C7.92865 81.1776 7.97913 81.1422 8.01449 81.1141C8.07096 81.0693 8.10094 81.0273 8.12246 80.9942C8.15191 80.949 8.15545 80.8731 8.14945 80.7989C8.14765 80.7767 8.13579 80.7514 8.12122 80.7233C8.10665 80.6952 8.08642 80.6656 8.05141 80.6246C8.0164 80.5836 7.96721 80.5321 7.92238 80.4909C7.87754 80.4498 7.83855 80.4205 7.81374 80.4027C7.78892 80.3849 7.77947 80.3795 7.76972 80.3739" stroke="#F5E4E4" stroke-width="0.5" stroke-linecap="round"/>
<rect x="21.187" y="78" width="6.15707" height="4.10471" transform="rotate(1.50896 21.187 78)" fill="white"/>
<path d="M21.0524 83.1298L21.1064 81.0781L27.2614 81.2403L27.2073 83.2919L28.1251 87.4222L27.0587 88.9339C26.0449 89.2424 24.9642 89.2555 23.9433 88.9715L23.4683 88.8393L21.9701 87.2601L21.0524 83.1298Z" fill="black"/>
<path d="M23.8138 86.7799C23.858 86.765 23.9022 86.7502 23.9931 86.7243C24.0839 86.6984 24.2201 86.6618 24.3968 86.629C24.5734 86.5961 24.7863 86.568 24.9709 86.5555C25.1555 86.5429 25.3053 86.5469 25.5995 86.5885C25.8937 86.63 26.3277 86.7092 26.786 86.791" stroke="#F5E4E4" stroke-width="0.5" stroke-linecap="round"/>
<path d="M23.8614 85.3589C23.9165 85.3335 23.9716 85.3081 24.0908 85.2633C24.21 85.2186 24.3916 85.1553 24.5714 85.1069C24.7512 85.0586 24.9237 85.027 25.1454 85.0102C25.367 84.9933 25.6327 84.9922 25.9114 85.0143C26.19 85.0365 26.4738 85.082 26.7772 85.1293" stroke="#F5E4E4" stroke-width="0.5" stroke-linecap="round"/>
<path d="M22.8519 84.2107C22.9004 84.1905 22.9489 84.1702 23.0542 84.1293C23.1594 84.0885 23.3199 84.0276 23.5531 83.9624C23.7862 83.8971 24.0872 83.8291 24.4647 83.7773C24.8421 83.7254 25.2869 83.6916 25.5679 83.6781C25.849 83.6647 25.9529 83.6726 26.0204 83.679C26.088 83.6854 26.1161 83.6901 26.1451 83.6949" stroke="#F5E4E4" stroke-width="0.5" stroke-linecap="round"/>
<path d="M24.5712 81.9477C24.564 81.9564 24.5569 81.9652 24.5289 81.9952C24.5009 82.0252 24.4524 82.0763 24.2398 82.2391C24.0272 82.4019 23.6518 82.6749 23.4235 82.8341C23.1952 82.9934 23.1253 83.0306 23.0573 83.0612C22.9894 83.0918 22.9254 83.1147 22.8611 83.1331C22.7968 83.1516 22.7339 83.1649 22.685 83.1722C22.6037 83.1844 22.5571 83.1805 22.5297 83.1759C22.461 83.1644 22.4275 83.1184 22.4041 83.0721C22.3985 83.061 22.3968 83.0523 22.3926 83.0101C22.3884 82.9679 22.3826 82.892 22.3808 82.8327C22.3791 82.7734 22.3815 82.7331 22.3867 82.6964C22.3964 82.6275 22.4209 82.5697 22.4485 82.5228C22.4874 82.4566 22.536 82.442 22.6034 82.4175C22.6299 82.4078 22.6722 82.4051 22.7524 82.4067C22.8327 82.4084 22.9506 82.4182 23.0984 82.4533C23.2462 82.4883 23.4204 82.5483 23.5966 82.6231C23.7727 82.6978 23.9457 82.7856 24.1394 82.8644C24.333 82.9432 24.5421 83.0104 24.6746 83.0485C24.8071 83.0865 24.8566 83.0932 24.8925 83.097C24.9487 83.1029 25.0075 83.0953 25.0795 83.079C25.1146 83.0711 25.145 83.0566 25.174 83.0388C25.203 83.0211 25.2294 82.9987 25.2631 82.962C25.2968 82.9253 25.337 82.8751 25.3722 82.8227C25.4073 82.7703 25.4363 82.7173 25.4581 82.6736C25.4799 82.6299 25.4938 82.5971 25.5086 82.5503C25.5234 82.5035 25.5387 82.4438 25.5474 82.3994C25.5612 82.3287 25.5568 82.2773 25.5516 82.2382C25.5446 82.1846 25.4981 82.1247 25.4453 82.0721C25.4295 82.0564 25.4041 82.0449 25.3748 82.033C25.3454 82.0211 25.3108 82.0117 25.2576 82.0033C25.2043 81.9948 25.1334 81.9876 25.0726 81.9854C25.0118 81.9832 24.9632 81.9863 24.9327 81.9889C24.9023 81.9915 24.8916 81.9935 24.8805 81.9956" stroke="#F5E4E4" stroke-width="0.5" stroke-linecap="round"/>
<rect width="11.9017" height="4.95756" rx="2.47878" transform="matrix(-0.397217 0.917725 0.917725 0.397217 5.75537 37.9668)" fill="url(#paint5_linear_211_133)"/>
<path d="M5.57649 45.9944C4.59693 45.8496 3.63842 46.3647 3.21846 47.2614C2.59947 48.5831 3.38833 50.1345 4.82101 50.413L12.6514 51.9351C13.9648 52.1904 15.2365 51.3326 15.4918 50.0192C15.7553 48.6635 14.834 47.3622 13.4678 47.1603L5.57649 45.9944Z" fill="url(#paint6_linear_211_133)"/>
<rect x="4.43604" y="40.3145" width="6.48612" height="5.13089" transform="rotate(-42.6912 4.43604 40.3145)" fill="white"/>
<rect x="34.5737" y="39.332" width="12.0036" height="5" rx="2.5" transform="rotate(84.2297 34.5737 39.332)" fill="url(#paint7_linear_211_133)"/>
<path d="M33.7585 52.5061C32.7591 52.7329 31.7293 52.2771 31.2251 51.385C30.4818 50.0699 31.1733 48.4066 32.6297 48.006L40.5899 45.8164C41.9251 45.4492 43.3052 46.2338 43.6724 47.569C44.0515 48.9471 43.2036 50.3628 41.8097 50.6791L33.7585 52.5061Z" fill="url(#paint8_linear_211_133)"/>
<path d="M30.5308 35.959L34.8915 41.0475L30.2737 45.1525L26.6818 39.2574L30.5308 35.959Z" fill="white"/>
<defs>
<linearGradient id="paint0_linear_211_133" x1="25.3695" y1="67" x2="25.3695" y2="71.1047" gradientUnits="userSpaceOnUse">
<stop stop-color="#EFC6C6"/>
<stop offset="1" stop-color="#F5E7E7"/>
</linearGradient>
<linearGradient id="paint1_linear_211_133" x1="14.5995" y1="68" x2="14.5995" y2="72.1047" gradientUnits="userSpaceOnUse">
<stop stop-color="#EFC6C6"/>
<stop offset="1" stop-color="#F5E7E7"/>
</linearGradient>
<linearGradient id="paint2_linear_211_133" x1="6.87112" y1="79.1984" x2="13.7386" y2="71.5733" gradientUnits="userSpaceOnUse">
<stop stop-color="#EFC6C6"/>
<stop offset="1" stop-color="#F5E4E4"/>
</linearGradient>
<linearGradient id="paint3_linear_211_133" x1="22.7331" y1="81.1678" x2="24.0279" y2="69.4446" gradientUnits="userSpaceOnUse">
<stop stop-color="#EFC6C6"/>
<stop offset="1" stop-color="#F5E4E4"/>
</linearGradient>
<linearGradient id="paint4_linear_211_133" x1="7.18566" y1="16.9311" x2="30.7877" y2="16.9311" gradientUnits="userSpaceOnUse">
<stop stop-color="#FFB300"/>
<stop offset="1" stop-color="#F7F6EB"/>
</linearGradient>
<linearGradient id="paint5_linear_211_133" x1="4.29815" y1="2.10232" x2="11.839" y2="3.00358" gradientUnits="userSpaceOnUse">
<stop stop-color="#EFC6C6"/>
<stop offset="1" stop-color="#987F7F"/>
</linearGradient>
<linearGradient id="paint6_linear_211_133" x1="13.8177" y1="50.0017" x2="6.94966" y2="45.0599" gradientUnits="userSpaceOnUse">
<stop stop-color="#EFC6C6"/>
<stop offset="1" stop-color="#B29494"/>
</linearGradient>
<linearGradient id="paint7_linear_211_133" x1="38.9087" y1="41.4523" x2="46.5141" y2="42.3613" gradientUnits="userSpaceOnUse">
<stop stop-color="#EFC6C6"/>
<stop offset="1" stop-color="#987F7F"/>
</linearGradient>
<linearGradient id="paint8_linear_211_133" x1="41.9463" y1="47.7193" x2="35.2494" y2="53.3619" gradientUnits="userSpaceOnUse">
<stop stop-color="#EFC6C6"/>
<stop offset="1" stop-color="#B29494"/>
</linearGradient>
</defs>
</svg>
