<svg width="119" height="144" viewBox="0 0 119 144" fill="none" xmlns="http://www.w3.org/2000/svg">
<path d="M69.7805 45.1508C69.7805 43.4506 68.4022 42.0723 66.7019 42.0723H49.2569C47.5567 42.0723 46.1784 43.4506 46.1784 45.1508C46.1784 46.851 47.5567 48.2293 49.2569 48.2293H66.7019C68.4022 48.2293 69.7805 46.851 69.7805 45.1508Z" fill="white"/>
<rect width="6.15707" height="9.99737" transform="matrix(-0.49294 -0.870064 -0.870064 0.49294 60.5442 78.2168)" fill="url(#paint0_linear_166_1121)"/>
<rect width="6.15707" height="4.10471" transform="matrix(-0.978148 0.207912 0.207912 0.978148 60.2053 74.9121)" fill="url(#paint1_linear_166_1121)"/>
<path d="M63.9477 76.1703C62.8098 74.907 60.8633 74.8052 59.5999 75.9431C58.3365 77.0809 58.2348 79.0275 59.3726 80.2908L64.1799 85.6284L68.7549 81.5079L63.9477 76.1703Z" fill="url(#paint2_linear_166_1121)"/>
<path d="M53.4544 79.4619C52.8999 78.0086 51.3671 77.1782 49.8469 77.5075C47.9413 77.9202 46.8653 79.9483 47.5921 81.7576L50.5617 89.1496L56.2771 86.8596L53.4544 79.4619Z" fill="url(#paint3_linear_166_1121)"/>
<path d="M65.1345 67.7285L58.5869 69.0012L52.8474 75.9379L60.0307 77.4772L63.6223 73.8856L65.1345 67.7285Z" fill="#272727"/>
<path d="M60.4428 72.1623L60.4428 68.0563L51.5017 66.0035L51.5017 72.1623L53.7726 76.2683L60.4423 75.7553L56.4393 71.8349L60.4428 72.1623Z" fill="#272727"/>
<path d="M69.7805 45.1523H47.2046L48.7438 68.7544H50.2766H66.6954H67.7281L69.7805 45.1523Z" fill="white"/>
<line x1="57.7981" y1="49.2481" x2="53.4345" y2="56.8844" stroke="#0720FF"/>
<line x1="62.1628" y1="49.2481" x2="57.7992" y2="56.8844" stroke="#FF0000"/>
<line x1="59.9807" y1="49.2481" x2="55.6171" y2="56.8844" stroke="#FBFF00"/>
<path d="M53.9157 52.1454C53.91 52.0881 53.8856 52.0436 53.8425 52.0119C53.7994 51.9802 53.741 51.9643 53.6671 51.9643C53.6169 51.9643 53.5745 51.9714 53.54 51.9856C53.5054 51.9993 53.4789 52.0185 53.4604 52.0431C53.4424 52.0678 53.4334 52.0957 53.4334 52.127C53.4325 52.153 53.4379 52.1757 53.4498 52.1951C53.4621 52.2145 53.4789 52.2314 53.5002 52.2456C53.5215 52.2593 53.5461 52.2714 53.5741 52.2818C53.602 52.2917 53.6318 52.3002 53.6636 52.3074L53.7942 52.3386C53.8577 52.3528 53.9159 52.3717 53.969 52.3954C54.022 52.4191 54.0679 52.4482 54.1067 52.4828C54.1456 52.5173 54.1756 52.5581 54.1969 52.6049C54.2187 52.6518 54.2298 52.7056 54.2303 52.7662C54.2298 52.8552 54.2071 52.9324 54.1621 52.9977C54.1176 53.0626 54.0532 53.113 53.969 53.149C53.8851 53.1845 53.7841 53.2022 53.6657 53.2022C53.5483 53.2022 53.446 53.1842 53.3589 53.1483C53.2722 53.1123 53.2045 53.059 53.1557 52.9885C53.1075 52.9174 53.0821 52.8296 53.0798 52.725H53.3773C53.3807 52.7737 53.3946 52.8145 53.4192 52.8471C53.4443 52.8793 53.4777 52.9037 53.5194 52.9203C53.5615 52.9364 53.6091 52.9444 53.6621 52.9444C53.7142 52.9444 53.7594 52.9368 53.7978 52.9217C53.8366 52.9065 53.8667 52.8855 53.888 52.8585C53.9093 52.8315 53.92 52.8005 53.92 52.7654C53.92 52.7328 53.9102 52.7053 53.8908 52.6831C53.8719 52.6608 53.844 52.6419 53.807 52.6262C53.7706 52.6106 53.7258 52.5964 53.6728 52.5836L53.5144 52.5439C53.3918 52.514 53.295 52.4674 53.2239 52.4039C53.1529 52.3405 53.1176 52.255 53.1181 52.1475C53.1176 52.0595 53.1411 51.9825 53.1884 51.9167C53.2362 51.8509 53.3018 51.7995 53.3851 51.7626C53.4685 51.7257 53.5632 51.7072 53.6692 51.7072C53.7772 51.7072 53.8714 51.7257 53.9519 51.7626C54.0329 51.7995 54.0958 51.8509 54.1408 51.9167C54.1858 51.9825 54.209 52.0588 54.2104 52.1454H53.9157ZM54.6547 53.1816H54.3251L54.8273 51.7271H55.2236L55.725 53.1816H55.3954L55.0311 52.0595H55.0197L54.6547 53.1816ZM54.6341 52.6099H55.4125V52.85H54.6341V52.6099ZM55.9001 53.1816V51.7271H56.2076V52.9281H56.8312V53.1816H55.9001ZM58.3148 52.4544C58.3148 52.613 58.2848 52.7479 58.2246 52.8592C58.165 52.9705 58.0835 53.0555 57.9803 53.1142C57.8776 53.1724 57.762 53.2015 57.6337 53.2015C57.5045 53.2015 57.3885 53.1722 57.2857 53.1135C57.183 53.0547 57.1018 52.9698 57.0421 52.8585C56.9825 52.7472 56.9526 52.6125 56.9526 52.4544C56.9526 52.2958 56.9825 52.1608 57.0421 52.0495C57.1018 51.9383 57.183 51.8535 57.2857 51.7953C57.3885 51.7366 57.5045 51.7072 57.6337 51.7072C57.762 51.7072 57.8776 51.7366 57.9803 51.7953C58.0835 51.8535 58.165 51.9383 58.2246 52.0495C58.2848 52.1608 58.3148 52.2958 58.3148 52.4544ZM58.003 52.4544C58.003 52.3516 57.9877 52.265 57.9569 52.1944C57.9266 52.1239 57.8837 52.0704 57.8283 52.0339C57.7729 51.9975 57.7081 51.9792 57.6337 51.9792C57.5594 51.9792 57.4945 51.9975 57.4391 52.0339C57.3837 52.0704 57.3406 52.1239 57.3099 52.1944C57.2796 52.265 57.2644 52.3516 57.2644 52.4544C57.2644 52.5571 57.2796 52.6438 57.3099 52.7143C57.3406 52.7849 57.3837 52.8384 57.4391 52.8748C57.4945 52.9113 57.5594 52.9295 57.6337 52.9295C57.7081 52.9295 57.7729 52.9113 57.8283 52.8748C57.8837 52.8384 57.9266 52.7849 57.9569 52.7143C57.9877 52.6438 58.003 52.5571 58.003 52.4544ZM58.5426 51.7271H58.9219L59.3225 52.7044H59.3395L59.7401 51.7271H60.1193V53.1816H59.8211V52.2349H59.809L59.4326 53.1745H59.2294L58.853 52.2314H58.8409V53.1816H58.5426V51.7271ZM61.7094 52.4544C61.7094 52.613 61.6793 52.7479 61.6192 52.8592C61.5595 52.9705 61.4781 53.0555 61.3749 53.1142C61.2721 53.1724 61.1566 53.2015 61.0283 53.2015C60.899 53.2015 60.783 53.1722 60.6802 53.1135C60.5775 53.0547 60.4963 52.9698 60.4366 52.8585C60.377 52.7472 60.3472 52.6125 60.3472 52.4544C60.3472 52.2958 60.377 52.1608 60.4366 52.0495C60.4963 51.9383 60.5775 51.8535 60.6802 51.7953C60.783 51.7366 60.899 51.7072 61.0283 51.7072C61.1566 51.7072 61.2721 51.7366 61.3749 51.7953C61.4781 51.8535 61.5595 51.9383 61.6192 52.0495C61.6793 52.1608 61.7094 52.2958 61.7094 52.4544ZM61.3976 52.4544C61.3976 52.3516 61.3822 52.265 61.3514 52.1944C61.3211 52.1239 61.2783 52.0704 61.2229 52.0339C61.1675 51.9975 61.1026 51.9792 61.0283 51.9792C60.9539 51.9792 60.8891 51.9975 60.8337 52.0339C60.7783 52.0704 60.7352 52.1239 60.7044 52.1944C60.6741 52.265 60.6589 52.3516 60.6589 52.4544C60.6589 52.5571 60.6741 52.6438 60.7044 52.7143C60.7352 52.7849 60.7783 52.8384 60.8337 52.8748C60.8891 52.9113 60.9539 52.9295 61.0283 52.9295C61.1026 52.9295 61.1675 52.9113 61.2229 52.8748C61.2783 52.8384 61.3211 52.7849 61.3514 52.7143C61.3822 52.6438 61.3976 52.5571 61.3976 52.4544ZM63.1538 51.7271V53.1816H62.8882L62.2554 52.2662H62.2447V53.1816H61.9372V51.7271H62.2071L62.8349 52.6419H62.8477V51.7271H63.1538Z" fill="black"/>
<path d="M63.4458 36.9414H53.1841L53.6971 41.0461C53.4286 42.6576 54.6713 44.1247 56.3051 44.1247H60.3992C61.8415 44.1247 62.8138 42.65 62.2457 41.3244C62.0291 40.819 62.0291 40.247 62.2457 39.7417L63.4458 36.9414Z" fill="#EFC6C6"/>
<path d="M71.3196 17.4453H45.6652L45.1521 22.5762H71.8327L71.3196 17.4453Z" fill="#EFC6C6"/>
<ellipse cx="14.3665" cy="13.8534" rx="14.3665" ry="13.8534" transform="matrix(-1 0 0 1 72.8527 12.3145)" fill="#EFC6C6"/>
<path d="M47.4777 29.0479H56.2785L56.4143 28.7637L57.9953 25.4561H59.9397L61.5197 28.7637L61.6555 29.0479H70.0275V21.6709L67.7307 19.374L67.5969 19.3408L65.5442 18.8271L65.4426 18.8018L65.3391 18.8193L62.3625 19.3252H55.1438L52.0344 18.8193L51.9416 18.8037L51.8488 18.8242L49.4768 19.3369L49.3234 19.3701L49.216 19.4854L47.6115 21.2109L47.4777 21.3545V29.0479Z" fill="url(#paint4_linear_166_1121)" stroke="black"/>
<path d="M72.8793 24.627L69.9639 23.6022L69.6341 24.574L72.8792 25.6532L72.8793 24.627Z" fill="black"/>
<path d="M72.8746 25.5968L70.5976 24.625L70.2679 25.5968L72.8786 26.6796L72.8746 25.5968Z" fill="black"/>
<path d="M44.0515 23.7306L47.3442 22.5734L47.7166 23.6708L44.0517 24.8896L44.0515 23.7306Z" fill="black"/>
<path d="M44.0993 24.8095L46.9706 23.6103L47.343 24.7078L44.0521 26.0469L44.0993 24.8095Z" fill="black"/>
<line y1="-0.5" x2="3.24506" y2="-0.5" transform="matrix(0.316228 0.948683 0.948683 -0.316228 59.5114 26.6836)" stroke="black"/>
<line y1="-0.5" x2="3.24506" y2="-0.5" transform="matrix(-0.948683 0.316228 0.316228 0.948683 60.5378 30.7871)" stroke="black"/>
<ellipse cx="5.64398" cy="1.53927" rx="5.64398" ry="1.53927" transform="matrix(-1 0 0 1 63.6164 33.8633)" fill="#EFA7A7"/>
<path d="M69.1647 9.75099L58.4924 7.18555L47.2865 9.75099L45.1521 17.4473H71.8327L69.1647 9.75099Z" fill="#5C7780"/>
<path d="M69.0535 14.3693L58.4924 12.8301L47.3755 14.3693L45.1521 17.4479H71.8327L69.0535 14.3693Z" fill="#283134"/>
<rect width="6.15707" height="4.10471" transform="matrix(-0.743028 0.66926 0.66926 0.743028 68.382 81.0684)" fill="white"/>
<path d="M71.8157 84.8804L70.4421 83.3555L65.8672 87.4762L67.2408 89.0011L71.0181 93.1947L73.8519 92.7107C74.9772 92.5186 75.701 91.4096 75.4242 90.3022L73.8849 88.765L71.8157 84.8804Z" fill="black"/>
<path d="M72.0866 89.4537C72.0434 89.4711 72.0001 89.4886 71.9142 89.5279C71.8283 89.5672 71.701 89.6279 71.5453 89.7176C71.3897 89.8073 71.2095 89.9242 71.061 90.0346C70.9125 90.145 70.8012 90.2452 70.6045 90.4679C70.4078 90.6906 70.1291 91.0327 69.8338 91.3925" stroke="#F5E4E4" stroke-width="0.5" stroke-linecap="round"/>
<path d="M71.1274 88.4012C71.0689 88.4177 71.0105 88.4341 70.8908 88.4775C70.7711 88.5209 70.5919 88.5908 70.4238 88.6708C70.2557 88.7507 70.104 88.8388 69.9245 88.97C69.745 89.1011 69.5423 89.2727 69.3448 89.4706C69.1472 89.6684 68.9611 89.8873 68.7611 90.1203" stroke="#F5E4E4" stroke-width="0.5" stroke-linecap="round"/>
<path d="M71.1489 86.8702C71.0989 86.8863 71.0488 86.9024 70.9423 86.9397C70.8357 86.977 70.6742 87.035 70.4544 87.1367C70.2347 87.2385 69.9618 87.3824 69.6411 87.588C69.3204 87.7937 68.9602 88.0569 68.7377 88.2292C68.5153 88.4015 68.4415 88.475 68.3943 88.5238C68.3471 88.5725 68.3287 88.5944 68.3098 88.6168" stroke="#F5E4E4" stroke-width="0.5" stroke-linecap="round"/>
<path d="M68.3726 86.2655C68.3837 86.2675 68.3949 86.2695 68.4356 86.2741C68.4764 86.2788 68.5464 86.2861 68.8138 86.2718C69.0813 86.2575 69.544 86.2214 69.821 86.1942C70.098 86.167 70.1754 86.1499 70.2469 86.129C70.3185 86.1081 70.3819 86.084 70.4428 86.0562C70.5037 86.0285 70.5602 85.9978 70.6021 85.9716C70.6719 85.9281 70.7048 85.8948 70.7226 85.8735C70.7674 85.8202 70.763 85.7634 70.7507 85.713C70.7478 85.7009 70.7434 85.6933 70.7192 85.6584C70.695 85.6236 70.6501 85.5621 70.6129 85.5159C70.5757 85.4697 70.5477 85.4406 70.5199 85.4161C70.4678 85.37 70.4116 85.3419 70.3602 85.3242C70.2876 85.2991 70.2412 85.3196 70.174 85.3447C70.1476 85.3546 70.1136 85.38 70.0537 85.4333C69.9938 85.4867 69.9105 85.5707 69.8208 85.6934C69.7312 85.816 69.6378 85.9748 69.5523 86.146C69.4669 86.3173 69.3924 86.4964 69.2963 86.6821C69.2003 86.8678 69.085 87.0547 69.0089 87.1696C68.9328 87.2846 68.8995 87.3219 68.8747 87.3481C68.8358 87.3891 68.7862 87.4215 68.7208 87.4559C68.6889 87.4726 68.6565 87.4813 68.6229 87.4867C68.5893 87.492 68.5547 87.4921 68.5052 87.4861C68.4558 87.4801 68.3926 87.468 68.3318 87.451C68.271 87.434 68.2146 87.4125 68.1696 87.3935C68.1246 87.3744 68.0928 87.3584 68.0512 87.3325C68.0095 87.3065 67.9591 87.2711 67.9237 87.243C67.8672 87.1982 67.8373 87.1562 67.8157 87.1231C67.7863 87.0779 67.7827 87.002 67.7887 86.9278C67.7905 86.9056 67.8024 86.8803 67.817 86.8522C67.8315 86.8241 67.8518 86.7945 67.8868 86.7535C67.9218 86.7125 67.971 86.661 68.0158 86.6198C68.0607 86.5787 68.0996 86.5494 68.1245 86.5316C68.1493 86.5139 68.1587 86.5084 68.1685 86.5028" stroke="#F5E4E4" stroke-width="0.5" stroke-linecap="round"/>
<rect width="6.15707" height="4.10471" transform="matrix(-0.834958 0.550313 0.550313 0.834958 55.2019 84.9805)" fill="white"/>
<path d="M56.9978 88.5826L55.4504 87.2344L51.4057 91.8766L52.9531 93.2248L55.3738 96.695L57.2084 96.9324C58.1215 96.3946 58.8623 95.6076 59.3438 94.6636L59.5679 94.2245L59.4185 92.0528L56.9978 88.5826Z" fill="black"/>
<path d="M57.6067 93.8298C57.5613 93.8405 57.516 93.8512 57.4251 93.8772C57.3343 93.9032 57.1993 93.9441 57.032 94.0095C56.8646 94.0749 56.6689 94.1635 56.5056 94.2503C56.3422 94.3372 56.2171 94.4196 55.9893 94.6103C55.7614 94.801 55.4346 95.0974 55.0887 95.4089" stroke="#F5E4E4" stroke-width="0.5" stroke-linecap="round"/>
<path d="M56.8149 92.6436C56.7547 92.6512 56.6945 92.6587 56.5696 92.6836C56.4448 92.7086 56.2571 92.7507 56.0789 92.8046C55.9007 92.8585 55.7375 92.9228 55.5404 93.0256C55.3433 93.1284 55.1171 93.2677 54.8922 93.4337C54.6672 93.5997 54.4503 93.7882 54.2177 93.9885" stroke="#F5E4E4" stroke-width="0.5" stroke-linecap="round"/>
<path d="M57.065 91.1341C57.0131 91.1426 56.9612 91.151 56.8503 91.1719C56.7393 91.1928 56.5709 91.2259 56.3384 91.2936C56.106 91.3613 55.8145 91.4626 55.4666 91.6178C55.1187 91.7731 54.7231 91.9793 54.4774 92.1163C54.2316 92.2533 54.1476 92.3149 54.0936 92.3561C54.0396 92.3972 54.0182 92.416 53.9962 92.4354" stroke="#F5E4E4" stroke-width="0.5" stroke-linecap="round"/>
<path d="M54.4111 90.1209C54.4218 90.1245 54.4325 90.1281 54.4721 90.1389C54.5117 90.1496 54.5798 90.1674 54.8464 90.1933C55.1129 90.2192 55.5758 90.2528 55.8538 90.2675C56.1318 90.2821 56.2108 90.2768 56.2847 90.2669C56.3586 90.257 56.4249 90.2427 56.4893 90.2243C56.5537 90.206 56.6141 90.1841 56.6594 90.1645C56.735 90.1319 56.7725 90.1039 56.7933 90.0856C56.8456 90.0396 56.8497 89.9828 56.8451 89.9311C56.844 89.9188 56.8409 89.9105 56.8222 89.8725C56.8034 89.8344 56.7683 89.7668 56.7384 89.7156C56.7086 89.6643 56.6852 89.6314 56.6615 89.603C56.6168 89.5496 56.5655 89.5134 56.5174 89.4882C56.4493 89.4525 56.4003 89.4658 56.3301 89.4805C56.3026 89.4863 56.2652 89.5064 56.1979 89.5501C56.1307 89.5939 56.0357 89.6645 55.9287 89.7723C55.8217 89.8802 55.7055 90.0231 55.5954 90.1796C55.4853 90.3362 55.3847 90.502 55.2619 90.6712C55.1391 90.8404 54.9971 91.0079 54.9046 91.1102C54.8122 91.2124 54.7737 91.2444 54.7453 91.2665C54.7006 91.3012 54.6467 91.3258 54.5769 91.35C54.5429 91.3618 54.5095 91.3655 54.4755 91.3658C54.4415 91.366 54.4072 91.3609 54.3592 91.3476C54.3113 91.3342 54.2506 91.3128 54.193 91.2869C54.1355 91.261 54.0829 91.2313 54.0413 91.2057C53.9997 91.1801 53.9706 91.1595 53.9333 91.1276C53.8961 91.0957 53.8515 91.0531 53.8207 91.02C53.7716 90.9672 53.7483 90.9213 53.7319 90.8853C53.7096 90.8362 53.7175 90.7607 53.7345 90.6882C53.7396 90.6665 53.7552 90.6433 53.7738 90.6177C53.7924 90.5921 53.8168 90.5658 53.8576 90.5305C53.8984 90.4952 53.9547 90.4517 54.0052 90.4177C54.0557 90.3838 54.0986 90.3607 54.1258 90.3468C54.153 90.333 54.1632 90.329 54.1737 90.3249" stroke="#F5E4E4" stroke-width="0.5" stroke-linecap="round"/>
<rect x="72.236" y="45.1504" width="11.9017" height="4.95756" rx="2.47878" transform="rotate(66.5957 72.236 45.1504)" fill="url(#paint5_linear_166_1121)"/>
<path d="M73.1444 53.3173C74.1303 53.4101 74.9385 54.1387 75.1327 55.1097C75.419 56.5408 74.2832 57.8596 72.8255 57.7887L64.8579 57.4014C63.5215 57.3364 62.4908 56.2004 62.5557 54.864C62.6228 53.4846 63.8276 52.4402 65.2026 52.5697L73.1444 53.3173Z" fill="url(#paint6_linear_166_1121)"/>
<rect width="6.48612" height="5.13089" transform="matrix(-0.735019 -0.678046 -0.678046 0.735019 73.5554 47.4941)" fill="white"/>
<rect width="12.0036" height="5" rx="2.5" transform="matrix(-0.10054 0.994933 0.994933 0.10054 43.4128 46.5176)" fill="url(#paint7_linear_166_1121)"/>
<path d="M46.8371 58.6984C47.5472 57.9594 47.6883 56.8422 47.1844 55.9498C46.4416 54.6345 44.6601 54.3684 43.5653 55.4091L37.5816 61.0973C36.578 62.0514 36.5378 63.6384 37.4919 64.6421C38.4767 65.678 40.1269 65.6824 41.1172 64.6517L46.8371 58.6984Z" fill="url(#paint8_linear_166_1121)"/>
<path d="M47.4607 43.1445L43.0999 48.2331L47.7177 52.338L51.3096 46.4429L47.4607 43.1445Z" fill="white"/>
<defs>
<linearGradient id="paint0_linear_166_1121" x1="3.07853" y1="0" x2="3.07853" y2="9.99737" gradientUnits="userSpaceOnUse">
<stop stop-color="#EFC6C6"/>
<stop offset="1" stop-color="#F5E7E7"/>
</linearGradient>
<linearGradient id="paint1_linear_166_1121" x1="3.07853" y1="0" x2="3.07853" y2="4.10471" gradientUnits="userSpaceOnUse">
<stop stop-color="#EFC6C6"/>
<stop offset="1" stop-color="#F5E7E7"/>
</linearGradient>
<linearGradient id="paint2_linear_166_1121" x1="67.8098" y1="84.0812" x2="60.9422" y2="76.4562" gradientUnits="userSpaceOnUse">
<stop stop-color="#EFC6C6"/>
<stop offset="1" stop-color="#F5E4E4"/>
</linearGradient>
<linearGradient id="paint3_linear_166_1121" x1="54.9713" y1="88.8037" x2="50.5846" y2="77.8554" gradientUnits="userSpaceOnUse">
<stop stop-color="#EFC6C6"/>
<stop offset="1" stop-color="#F5E4E4"/>
</linearGradient>
<linearGradient id="paint4_linear_166_1121" x1="47.2037" y1="24.1167" x2="70.8058" y2="24.1167" gradientUnits="userSpaceOnUse">
<stop stop-color="#FFB300"/>
<stop offset="1" stop-color="#F7F6EB"/>
</linearGradient>
<linearGradient id="paint5_linear_166_1121" x1="76.5342" y1="47.2527" x2="84.0751" y2="48.154" gradientUnits="userSpaceOnUse">
<stop stop-color="#EFC6C6"/>
<stop offset="1" stop-color="#987F7F"/>
</linearGradient>
<linearGradient id="paint6_linear_166_1121" x1="64.1858" y1="55.2459" x2="72.0334" y2="52.0826" gradientUnits="userSpaceOnUse">
<stop stop-color="#EFC6C6"/>
<stop offset="1" stop-color="#B29494"/>
</linearGradient>
<linearGradient id="paint7_linear_166_1121" x1="4.33495" y1="2.12032" x2="11.9404" y2="3.0293" gradientUnits="userSpaceOnUse">
<stop stop-color="#EFC6C6"/>
<stop offset="1" stop-color="#987F7F"/>
</linearGradient>
<linearGradient id="paint8_linear_166_1121" x1="38.5115" y1="63.2411" x2="46.8007" y2="60.4171" gradientUnits="userSpaceOnUse">
<stop stop-color="#EFC6C6"/>
<stop offset="1" stop-color="#B29494"/>
</linearGradient>
</defs>
</svg>
