<svg width="115" height="140" viewBox="0 0 115 140" fill="none" xmlns="http://www.w3.org/2000/svg">
<path d="M67.9995 44.002C67.9995 42.3451 66.6564 41.002 64.9995 41.002H47.9995C46.3427 41.002 44.9995 42.3451 44.9995 44.002C44.9995 45.6588 46.3427 47.002 47.9995 47.002H64.9995C66.6564 47.002 67.9995 45.6588 67.9995 44.002Z" fill="white"/>
<path d="M65.25 66.9961H58.75L59.5 74.9961H64L65.25 66.9961Z" fill="#272727"/>
<path d="M59 68.9961L59.5 66.9961H48.75L48 74.9961H56.5L55.25 68.9961H59Z" fill="#272727"/>
<path d="M67.9995 44H45.9995L47.4995 67H48.9932H64.9932H65.9995L67.9995 44Z" fill="white"/>
<line x1="56.7705" y1="48.3203" x2="52.2787" y2="56.181" stroke="#0720FF"/>
<line x1="61.2622" y1="48.3203" x2="56.7704" y2="56.181" stroke="#FF0000"/>
<line x1="59.0162" y1="48.3203" x2="54.5243" y2="56.181" stroke="#FBFF00"/>
<path d="M52.7597 51.2821C52.754 51.2248 52.7297 51.1803 52.6866 51.1486C52.6435 51.1169 52.585 51.101 52.5111 51.101C52.461 51.101 52.4186 51.1081 52.384 51.1223C52.3494 51.1361 52.3229 51.1552 52.3045 51.1799C52.2865 51.2045 52.2775 51.2324 52.2775 51.2637C52.2765 51.2897 52.282 51.3124 52.2938 51.3319C52.3061 51.3513 52.3229 51.3681 52.3442 51.3823C52.3655 51.396 52.3902 51.4081 52.4181 51.4185C52.446 51.4284 52.4759 51.437 52.5076 51.4441L52.6383 51.4753C52.7017 51.4895 52.76 51.5085 52.813 51.5321C52.866 51.5558 52.9119 51.5849 52.9508 51.6195C52.9896 51.6541 53.0197 51.6948 53.041 51.7417C53.0628 51.7885 53.0739 51.8423 53.0744 51.9029C53.0739 51.9919 53.0512 52.0691 53.0062 52.1344C52.9617 52.1993 52.8973 52.2497 52.813 52.2857C52.7292 52.3212 52.6281 52.339 52.5097 52.339C52.3923 52.339 52.29 52.321 52.2029 52.285C52.1163 52.249 52.0485 52.1957 51.9998 52.1252C51.9515 52.0542 51.9262 51.9663 51.9238 51.8617H52.2214C52.2247 51.9105 52.2387 51.9512 52.2633 51.9838C52.2884 52.016 52.3217 52.0404 52.3634 52.057C52.4056 52.0731 52.4531 52.0811 52.5062 52.0811C52.5583 52.0811 52.6035 52.0736 52.6418 52.0584C52.6806 52.0433 52.7107 52.0222 52.732 51.9952C52.7533 51.9682 52.764 51.9372 52.764 51.9022C52.764 51.8695 52.7543 51.842 52.7349 51.8198C52.7159 51.7975 52.688 51.7786 52.6511 51.763C52.6146 51.7473 52.5699 51.7331 52.5168 51.7203L52.3584 51.6806C52.2358 51.6507 52.139 51.6041 52.068 51.5407C51.9969 51.4772 51.9617 51.3917 51.9621 51.2843C51.9617 51.1962 51.9851 51.1193 52.0324 51.0534C52.0803 50.9876 52.1458 50.9363 52.2292 50.8993C52.3125 50.8624 52.4072 50.8439 52.5133 50.8439C52.6212 50.8439 52.7155 50.8624 52.7959 50.8993C52.8769 50.9363 52.9399 50.9876 52.9849 51.0534C53.0298 51.1193 53.053 51.1955 53.0545 51.2821H52.7597ZM53.4987 52.3184H53.1692L53.6713 50.8638H54.0676L54.569 52.3184H54.2395L53.8751 51.1962H53.8638L53.4987 52.3184ZM53.4781 51.7466H54.2565V51.9867H53.4781V51.7466ZM54.7441 52.3184V50.8638H55.0516V52.0648H55.6752V52.3184H54.7441ZM57.1589 51.5911C57.1589 51.7497 57.1288 51.8846 57.0687 51.9959C57.009 52.1072 56.9276 52.1922 56.8244 52.2509C56.7216 52.3091 56.6061 52.3382 56.4778 52.3382C56.3485 52.3382 56.2325 52.3089 56.1297 52.2502C56.027 52.1915 55.9458 52.1065 55.8861 51.9952C55.8265 51.8839 55.7967 51.7492 55.7967 51.5911C55.7967 51.4325 55.8265 51.2975 55.8861 51.1863C55.9458 51.075 56.027 50.9902 56.1297 50.932C56.2325 50.8733 56.3485 50.8439 56.4778 50.8439C56.6061 50.8439 56.7216 50.8733 56.8244 50.932C56.9276 50.9902 57.009 51.075 57.0687 51.1863C57.1288 51.2975 57.1589 51.4325 57.1589 51.5911ZM56.8471 51.5911C56.8471 51.4883 56.8317 51.4017 56.8009 51.3311C56.7706 51.2606 56.7278 51.2071 56.6724 51.1706C56.617 51.1342 56.5521 51.1159 56.4778 51.1159C56.4034 51.1159 56.3386 51.1342 56.2832 51.1706C56.2278 51.2071 56.1847 51.2606 56.1539 51.3311C56.1236 51.4017 56.1084 51.4883 56.1084 51.5911C56.1084 51.6938 56.1236 51.7805 56.1539 51.851C56.1847 51.9216 56.2278 51.9751 56.2832 52.0115C56.3386 52.048 56.4034 52.0662 56.4778 52.0662C56.5521 52.0662 56.617 52.048 56.6724 52.0115C56.7278 51.9751 56.7706 51.9216 56.8009 51.851C56.8317 51.7805 56.8471 51.6938 56.8471 51.5911ZM57.3867 50.8638H57.7659L58.1665 51.8411H58.1835L58.5841 50.8638H58.9634V52.3184H58.6651V51.3716H58.653L58.2766 52.3113H58.0735L57.697 51.3681H57.685V52.3184H57.3867V50.8638ZM60.5534 51.5911C60.5534 51.7497 60.5233 51.8846 60.4632 51.9959C60.4035 52.1072 60.3221 52.1922 60.2189 52.2509C60.1161 52.3091 60.0006 52.3382 59.8723 52.3382C59.743 52.3382 59.627 52.3089 59.5243 52.2502C59.4215 52.1915 59.3403 52.1065 59.2807 51.9952C59.221 51.8839 59.1912 51.7492 59.1912 51.5911C59.1912 51.4325 59.221 51.2975 59.2807 51.1863C59.3403 51.075 59.4215 50.9902 59.5243 50.932C59.627 50.8733 59.743 50.8439 59.8723 50.8439C60.0006 50.8439 60.1161 50.8733 60.2189 50.932C60.3221 50.9902 60.4035 51.075 60.4632 51.1863C60.5233 51.2975 60.5534 51.4325 60.5534 51.5911ZM60.2416 51.5911C60.2416 51.4883 60.2262 51.4017 60.1954 51.3311C60.1651 51.2606 60.1223 51.2071 60.0669 51.1706C60.0115 51.1342 59.9466 51.1159 59.8723 51.1159C59.798 51.1159 59.7331 51.1342 59.6777 51.1706C59.6223 51.2071 59.5792 51.2606 59.5484 51.3311C59.5181 51.4017 59.503 51.4883 59.503 51.5911C59.503 51.6938 59.5181 51.7805 59.5484 51.851C59.5792 51.9216 59.6223 51.9751 59.6777 52.0115C59.7331 52.048 59.798 52.0662 59.8723 52.0662C59.9466 52.0662 60.0115 52.048 60.0669 52.0115C60.1223 51.9751 60.1651 51.9216 60.1954 51.851C60.2262 51.7805 60.2416 51.6938 60.2416 51.5911ZM61.9978 50.8638V52.3184H61.7322L61.0994 51.4029H61.0887V52.3184H60.7812V50.8638H61.0511L61.6789 51.7786H61.6917V50.8638H61.9978Z" fill="black"/>
<path d="M61.8275 36.002H51.8275L52.3275 40.002C52.0657 41.5724 53.2768 43.002 54.8689 43.002H58.8586C60.264 43.002 61.2116 41.5649 60.658 40.2731C60.4469 39.7807 60.4469 39.2232 60.658 38.7308L61.8275 36.002Z" fill="#EFC6C6"/>
<path d="M69.5 17.002H44.5L44 22.002H70L69.5 17.002Z" fill="#EFC6C6"/>
<ellipse cx="14" cy="13.5" rx="14" ry="13.5" transform="matrix(-1 0 0 1 70.9941 12.002)" fill="#EFC6C6"/>
<path d="M46.2544 28.3203H54.8511L54.9878 28.0361L56.5239 24.8203H58.4028L59.9399 28.0361L60.0757 28.3203H68.2544V21.1133L66.0103 18.8691L65.8755 18.835L63.7739 18.3096L63.6704 18.3271L60.7651 18.8203H53.7378L50.7095 18.3271L50.6167 18.3115L50.5239 18.332L48.2124 18.832L48.0591 18.8652L47.9517 18.9795L46.3882 20.6611L46.2544 20.8057V28.3203Z" fill="url(#paint0_linear_166_1388)" stroke="black"/>
<path d="M71.0207 23.998L68.1796 22.9994L67.8582 23.9464L71.0205 24.998L71.0207 23.998Z" fill="black"/>
<path d="M71.0163 24.9408L68.7974 23.9938L68.476 24.9408L71.0202 25.996L71.0163 24.9408Z" fill="black"/>
<path d="M42.9283 23.1273L46.1369 21.9996L46.4998 23.069L42.9284 24.2567L42.9283 23.1273Z" fill="black"/>
<path d="M42.9744 24.183L45.7724 23.0144L46.1353 24.0839L42.9284 25.3888L42.9744 24.183Z" fill="black"/>
<line y1="-0.5" x2="3.16228" y2="-0.5" transform="matrix(0.316228 0.948683 0.948683 -0.316228 57.9932 25.998)" stroke="black"/>
<line y1="-0.5" x2="3.16228" y2="-0.5" transform="matrix(-0.948683 0.316228 0.316228 0.948683 58.9941 30.002)" stroke="black"/>
<ellipse cx="5.5" cy="1.5" rx="5.5" ry="1.5" transform="matrix(-1 0 0 1 61.9937 33)" fill="#EFA7A7"/>
<path d="M67.4 9.5L57 7L46.08 9.5L44 17H70L67.4 9.5Z" fill="#5C7780"/>
<path d="M67.2917 14L57 12.5L46.1667 14L44 17H70L67.2917 14Z" fill="#283134"/>
<path d="M56 75H48.5L48 80H56.5L56 75Z" fill="url(#paint1_linear_166_1388)"/>
<path d="M64 75H59.5L60 79H63.5L64 75Z" fill="url(#paint2_linear_166_1388)"/>
<path d="M63.5 79H60L60.5 85H63L63.5 79Z" fill="url(#paint3_linear_166_1388)"/>
<path d="M56.5 79.998H48L49 89.998H55L56.5 79.998Z" fill="url(#paint4_linear_166_1388)"/>
<rect width="2.7273" height="1.8182" transform="matrix(-1 0 0 1 63 84.002)" fill="white"/>
<path d="M63 86.2704V85.3613H60.2727V86.2704L59.8181 88.0886L60.2727 88.7705C60.718 88.9189 61.1964 88.9373 61.6518 88.8234L61.8636 88.7705L62.5454 88.0886L63 86.2704Z" fill="black"/>
<path d="M61.7334 87.8562C61.714 87.8491 61.6946 87.8421 61.6547 87.8295C61.6147 87.817 61.5548 87.7992 61.477 87.7826C61.3992 87.766 61.3052 87.7511 61.2236 87.7434C61.142 87.7357 61.0757 87.7357 60.9449 87.7507C60.8142 87.7656 60.621 87.7956 60.4172 87.8265" stroke="#F5E4E4" stroke-width="0.5" stroke-linecap="round"/>
<path d="M61.7305 87.2286C61.7064 87.2167 61.6823 87.2048 61.63 87.1836C61.5777 87.1624 61.4981 87.1323 61.419 87.1088C61.34 87.0853 61.2639 87.0693 61.166 87.0592C61.068 87.0492 60.9504 87.0456 60.8268 87.0521C60.7031 87.0587 60.5769 87.0756 60.442 87.0929" stroke="#F5E4E4" stroke-width="0.5" stroke-linecap="round"/>
<path d="M62.1904 86.7313C62.1692 86.7217 62.1479 86.7122 62.1018 86.6929C62.0557 86.6736 61.9853 86.6448 61.8828 86.6131C61.7803 86.5815 61.6479 86.5479 61.4813 86.5205C61.3148 86.4932 61.1183 86.473 60.994 86.4638C60.8697 86.4545 60.8236 86.4568 60.7936 86.4589C60.7636 86.4609 60.7511 86.4627 60.7382 86.4645" stroke="#F5E4E4" stroke-width="0.5" stroke-linecap="round"/>
<path d="M61.4551 85.7051C61.4582 85.709 61.4613 85.713 61.4733 85.7266C61.4853 85.7402 61.5062 85.7634 61.5985 85.838C61.6907 85.9125 61.8538 86.0378 61.953 86.111C62.0522 86.1841 62.0828 86.2014 62.1125 86.2158C62.1422 86.2301 62.1703 86.241 62.1985 86.2499C62.2268 86.2588 62.2545 86.2655 62.276 86.2693C62.3119 86.2757 62.3326 86.2744 62.3448 86.2727C62.3754 86.2685 62.3907 86.2485 62.4016 86.2282C62.4042 86.2234 62.4051 86.2196 62.4074 86.2009C62.4098 86.1823 62.4132 86.1487 62.4147 86.1225C62.4162 86.0963 62.4156 86.0784 62.4137 86.0621C62.4102 86.0315 62.4 86.0056 62.3884 85.9845C62.3719 85.9547 62.3505 85.9477 62.321 85.936C62.3094 85.9315 62.2907 85.9298 62.2551 85.9295C62.2196 85.9293 62.1673 85.9323 62.1014 85.9461C62.0355 85.9599 61.9577 85.9844 61.8788 86.0155C61.7999 86.0465 61.7223 86.0834 61.6357 86.116C61.549 86.1487 61.4556 86.176 61.3965 86.1913C61.3374 86.2066 61.3154 86.209 61.2995 86.2102C61.2745 86.2122 61.2486 86.2081 61.2168 86.2001C61.2014 86.1962 61.1881 86.1894 61.1755 86.1812C61.1628 86.173 61.1514 86.1628 61.1369 86.1461C61.1225 86.1295 61.1052 86.1068 61.0903 86.0832C61.0753 86.0596 61.0631 86.0358 61.0539 86.0161C61.0448 85.9965 61.039 85.9818 61.033 85.961C61.027 85.9401 61.0209 85.9134 61.0176 85.8937C61.0123 85.8622 61.0149 85.8395 61.0176 85.8223C61.0213 85.7986 61.0426 85.7726 61.0666 85.75C61.0738 85.7432 61.0852 85.7384 61.0983 85.7335C61.1115 85.7285 61.1269 85.7248 61.1506 85.7217C61.1743 85.7185 61.2057 85.7162 61.2327 85.7159C61.2596 85.7157 61.2811 85.7176 61.2946 85.7191C61.308 85.7206 61.3127 85.7216 61.3176 85.7227" stroke="#F5E4E4" stroke-width="0.5" stroke-linecap="round"/>
<rect width="6" height="4" transform="matrix(-1 0 0 1 55.0005 90.002)" fill="white"/>
<path d="M55.0005 94.998V92.998H49.0005V94.998L48.0005 98.998L49.0005 100.498C49.9801 100.825 51.0326 100.865 52.0344 100.615L52.5005 100.498L54.0005 98.998L55.0005 94.998Z" fill="black"/>
<path d="M52.2148 98.4841C52.1722 98.4685 52.1295 98.4529 52.0416 98.4253C51.9538 98.3978 51.822 98.3587 51.6508 98.3221C51.4796 98.2856 51.2729 98.2527 51.0934 98.2358C50.9139 98.2189 50.7678 98.2189 50.4802 98.2518C50.1925 98.2848 49.7677 98.3507 49.3192 98.4186" stroke="#F5E4E4" stroke-width="0.5" stroke-linecap="round"/>
<path d="M52.2056 97.1007C52.1525 97.0745 52.0995 97.0483 51.9845 97.0017C51.8696 96.955 51.6943 96.8887 51.5204 96.837C51.3464 96.7852 51.1792 96.7501 50.9637 96.728C50.7482 96.7059 50.4895 96.6979 50.2174 96.7124C49.9454 96.7268 49.6678 96.7639 49.3711 96.8021" stroke="#F5E4E4" stroke-width="0.5" stroke-linecap="round"/>
<path d="M53.2192 96.0057C53.1725 95.9847 53.1257 95.9637 53.0242 95.9212C52.9228 95.8787 52.768 95.8153 52.5425 95.7457C52.3171 95.6761 52.0256 95.6023 51.6592 95.542C51.2929 95.4818 50.8605 95.4375 50.587 95.4171C50.3136 95.3968 50.2122 95.4019 50.1462 95.4064C50.0802 95.4109 50.0527 95.4148 50.0244 95.4187" stroke="#F5E4E4" stroke-width="0.5" stroke-linecap="round"/>
<path d="M51.6029 93.7598C51.6097 93.7685 51.6165 93.7771 51.643 93.8071C51.6694 93.8371 51.7154 93.8881 51.9183 94.0521C52.1213 94.2162 52.4799 94.4917 52.6982 94.6527C52.9166 94.8137 52.9837 94.8518 53.0492 94.8833C53.1146 94.9149 53.1763 94.9388 53.2385 94.9584C53.3007 94.978 53.3615 94.9926 53.409 95.001C53.4879 95.015 53.5334 95.0123 53.5602 95.0086C53.6274 94.9992 53.6612 94.9552 53.6852 94.9106C53.691 94.9 53.6928 94.8916 53.698 94.8506C53.7032 94.8096 53.7108 94.7358 53.714 94.6781C53.7173 94.6204 53.7159 94.581 53.7118 94.5452C53.7041 94.4778 53.6817 94.4208 53.6561 94.3745C53.6198 94.3089 53.5729 94.2935 53.5078 94.2679C53.4823 94.2578 53.4412 94.254 53.363 94.2536C53.2848 94.2531 53.1696 94.2597 53.0247 94.29C52.8798 94.3204 52.7087 94.3743 52.5351 94.4427C52.3616 94.511 52.1908 94.592 52.0001 94.6638C51.8095 94.7356 51.6041 94.7958 51.474 94.8294C51.344 94.863 51.2955 94.8683 51.2605 94.8711C51.2056 94.8754 51.1485 94.8665 51.0788 94.8488C51.0448 94.8401 51.0156 94.8252 50.9878 94.8072C50.96 94.7892 50.9348 94.7667 50.903 94.7301C50.8711 94.6935 50.8332 94.6435 50.8003 94.5915C50.7674 94.5396 50.7405 94.4872 50.7204 94.4441C50.7002 94.401 50.6876 94.3687 50.6744 94.3227C50.6611 94.2768 50.6477 94.2182 50.6404 94.1748C50.6288 94.1055 50.6344 94.0556 50.6404 94.0176C50.6486 93.9656 50.6955 93.9084 50.7483 93.8585C50.7641 93.8436 50.7892 93.833 50.818 93.8222C50.8469 93.8114 50.8808 93.8031 50.9329 93.7963C50.985 93.7894 51.0543 93.7842 51.1136 93.7836C51.1729 93.7831 51.2202 93.7873 51.2497 93.7906C51.2793 93.7939 51.2897 93.7961 51.3004 93.7984" stroke="#F5E4E4" stroke-width="0.5" stroke-linecap="round"/>
<rect x="70.3931" y="43.998" width="11.5981" height="4.83109" rx="2.41554" transform="rotate(66.5957 70.3931 43.998)" fill="url(#paint5_linear_166_1388)"/>
<path d="M71.7449 52.5287C72.642 52.1735 73.666 52.4488 74.264 53.2062C75.1453 54.3224 74.7421 55.9698 73.4448 56.5528L66.3543 59.7391C65.165 60.2736 63.7677 59.7427 63.2332 58.5534C62.6816 57.3259 63.2662 55.8862 64.5174 55.3907L71.7449 52.5287Z" fill="url(#paint6_linear_166_1388)"/>
<rect width="6.32065" height="5" transform="matrix(-0.735019 -0.678046 -0.678046 0.735019 71.6792 46.2812)" fill="white"/>
<rect width="12.0036" height="5" rx="2.5" transform="matrix(-0.10054 0.994933 0.994933 0.10054 42.0923 45.4121)" fill="url(#paint7_linear_166_1388)"/>
<path d="M45.9097 56.1473C45.9611 54.911 45.105 53.8212 43.8916 53.5785C42.3757 53.2753 40.948 54.3998 40.8876 55.9446L40.5775 63.877C40.5235 65.2584 41.5996 66.422 42.981 66.476C44.3599 66.5299 45.5223 65.4576 45.5797 64.0788L45.9097 56.1473Z" fill="url(#paint8_linear_166_1388)"/>
<path d="M46.249 42.0391L41.9996 46.9978L46.4995 50.998L49.9998 45.2533L46.249 42.0391Z" fill="white"/>
<defs>
<linearGradient id="paint0_linear_166_1388" x1="46" y1="23.502" x2="69" y2="23.502" gradientUnits="userSpaceOnUse">
<stop stop-color="#FFB300"/>
<stop offset="1" stop-color="#F7F6EB"/>
</linearGradient>
<linearGradient id="paint1_linear_166_1388" x1="52" y1="75" x2="52" y2="80" gradientUnits="userSpaceOnUse">
<stop stop-color="#EFC6C6"/>
<stop offset="1" stop-color="#F5E7E7"/>
</linearGradient>
<linearGradient id="paint2_linear_166_1388" x1="62" y1="75" x2="62" y2="79" gradientUnits="userSpaceOnUse">
<stop stop-color="#EFC6C6"/>
<stop offset="1" stop-color="#F5E7E7"/>
</linearGradient>
<linearGradient id="paint3_linear_166_1388" x1="61.7143" y1="85" x2="61.7143" y2="79" gradientUnits="userSpaceOnUse">
<stop stop-color="#EFC6C6"/>
<stop offset="1" stop-color="#F5E4E4"/>
</linearGradient>
<linearGradient id="paint4_linear_166_1388" x1="53" y1="89.998" x2="53" y2="79.998" gradientUnits="userSpaceOnUse">
<stop stop-color="#EFC6C6"/>
<stop offset="1" stop-color="#F5E4E4"/>
</linearGradient>
<linearGradient id="paint5_linear_166_1388" x1="74.5816" y1="46.0467" x2="81.9301" y2="46.925" gradientUnits="userSpaceOnUse">
<stop stop-color="#EFC6C6"/>
<stop offset="1" stop-color="#987F7F"/>
</linearGradient>
<linearGradient id="paint6_linear_166_1388" x1="64.8176" y1="58.1644" x2="70.2342" y2="51.9477" gradientUnits="userSpaceOnUse">
<stop stop-color="#EFC6C6"/>
<stop offset="1" stop-color="#B29494"/>
</linearGradient>
<linearGradient id="paint7_linear_166_1388" x1="4.33495" y1="2.12032" x2="11.9404" y2="3.0293" gradientUnits="userSpaceOnUse">
<stop stop-color="#EFC6C6"/>
<stop offset="1" stop-color="#987F7F"/>
</linearGradient>
<linearGradient id="paint8_linear_166_1388" x1="42.6816" y1="64.8016" x2="46.5526" y2="57.1963" gradientUnits="userSpaceOnUse">
<stop stop-color="#EFC6C6"/>
<stop offset="1" stop-color="#B29494"/>
</linearGradient>
</defs>
</svg>
