<svg width="115" height="140" viewBox="0 0 115 140" fill="none" xmlns="http://www.w3.org/2000/svg">
<path d="M47 44C47 42.3431 48.3431 41 50 41H67C68.6569 41 70 42.3431 70 44C70 45.6569 68.6569 47 67 47H50C48.3431 47 47 45.6569 47 44Z" fill="white"/>
<path d="M49.75 67H56.25L55.5 75H51L49.75 67Z" fill="#272727"/>
<path d="M56 69L55.5 67H66.25L67 75H58.5L59.75 69H56Z" fill="#272727"/>
<path d="M47 44H69L67.5 67H66.0063H50.0063H49L47 44Z" fill="white"/>
<line x1="57.4341" y1="47.2481" x2="53.4341" y2="54.2481" stroke="#0720FF"/>
<line x1="61.4341" y1="47.2481" x2="57.4341" y2="54.2481" stroke="#FF0000"/>
<line x1="59.4341" y1="47.2481" x2="55.4341" y2="54.2481" stroke="#FBFF00"/>
<path d="M53.9155 49.9638C53.9098 49.9065 53.8854 49.862 53.8423 49.8303C53.7992 49.7985 53.7408 49.7827 53.6669 49.7827C53.6167 49.7827 53.5743 49.7898 53.5398 49.804C53.5052 49.8177 53.4787 49.8369 53.4602 49.8615C53.4422 49.8861 53.4332 49.9141 53.4332 49.9453C53.4323 49.9714 53.4377 49.9941 53.4496 50.0135C53.4619 50.0329 53.4787 50.0497 53.5 50.0639C53.5213 50.0777 53.5459 50.0897 53.5739 50.1001C53.6018 50.1101 53.6316 50.1186 53.6634 50.1257L53.794 50.157C53.8575 50.1712 53.9157 50.1901 53.9688 50.2138C54.0218 50.2375 54.0677 50.2666 54.1065 50.3011C54.1454 50.3357 54.1754 50.3764 54.1967 50.4233C54.2185 50.4702 54.2296 50.5239 54.2301 50.5845C54.2296 50.6735 54.2069 50.7507 54.1619 50.8161C54.1174 50.8809 54.053 50.9313 53.9688 50.9673C53.8849 51.0028 53.7839 51.0206 53.6655 51.0206C53.5481 51.0206 53.4458 51.0026 53.3587 50.9666C53.272 50.9306 53.2043 50.8774 53.1555 50.8068C53.1072 50.7358 53.0819 50.648 53.0795 50.5433H53.3771C53.3804 50.5921 53.3944 50.6328 53.419 50.6655C53.4441 50.6977 53.4775 50.7221 53.5192 50.7386C53.5613 50.7547 53.6089 50.7628 53.6619 50.7628C53.714 50.7628 53.7592 50.7552 53.7976 50.7401C53.8364 50.7249 53.8665 50.7038 53.8878 50.6768C53.9091 50.6499 53.9197 50.6188 53.9197 50.5838C53.9197 50.5511 53.91 50.5237 53.8906 50.5014C53.8717 50.4792 53.8438 50.4602 53.8068 50.4446C53.7704 50.429 53.7256 50.4148 53.6726 50.402L53.5142 50.3622C53.3916 50.3324 53.2947 50.2857 53.2237 50.2223C53.1527 50.1589 53.1174 50.0734 53.1179 49.9659C53.1174 49.8778 53.1409 49.8009 53.1882 49.7351C53.236 49.6693 53.3016 49.6179 53.3849 49.581C53.4683 49.544 53.563 49.5256 53.669 49.5256C53.777 49.5256 53.8712 49.544 53.9517 49.581C54.0327 49.6179 54.0956 49.6693 54.1406 49.7351C54.1856 49.8009 54.2088 49.8771 54.2102 49.9638H53.9155ZM54.6545 51H54.3249L54.8271 49.5455H55.2234L55.7248 51H55.3952L55.0309 49.8778H55.0195L54.6545 51ZM54.6339 50.4283H55.4123V50.6683H54.6339V50.4283ZM55.8999 51V49.5455H56.2074V50.7464H56.831V51H55.8999ZM58.3146 50.2727C58.3146 50.4313 58.2846 50.5663 58.2244 50.6776C58.1648 50.7888 58.0833 50.8738 57.9801 50.9325C57.8774 50.9908 57.7618 51.0199 57.6335 51.0199C57.5043 51.0199 57.3883 50.9905 57.2855 50.9318C57.1828 50.8731 57.1016 50.7881 57.0419 50.6768C56.9822 50.5656 56.9524 50.4309 56.9524 50.2727C56.9524 50.1141 56.9822 49.9792 57.0419 49.8679C57.1016 49.7566 57.1828 49.6719 57.2855 49.6136C57.3883 49.5549 57.5043 49.5256 57.6335 49.5256C57.7618 49.5256 57.8774 49.5549 57.9801 49.6136C58.0833 49.6719 58.1648 49.7566 58.2244 49.8679C58.2846 49.9792 58.3146 50.1141 58.3146 50.2727ZM58.0028 50.2727C58.0028 50.17 57.9875 50.0833 57.9567 50.0128C57.9264 49.9422 57.8835 49.8887 57.8281 49.8523C57.7727 49.8158 57.7079 49.7976 57.6335 49.7976C57.5592 49.7976 57.4943 49.8158 57.4389 49.8523C57.3835 49.8887 57.3404 49.9422 57.3097 50.0128C57.2794 50.0833 57.2642 50.17 57.2642 50.2727C57.2642 50.3755 57.2794 50.4621 57.3097 50.5327C57.3404 50.6032 57.3835 50.6567 57.4389 50.6932C57.4943 50.7296 57.5592 50.7479 57.6335 50.7479C57.7079 50.7479 57.7727 50.7296 57.8281 50.6932C57.8835 50.6567 57.9264 50.6032 57.9567 50.5327C57.9875 50.4621 58.0028 50.3755 58.0028 50.2727ZM58.5424 49.5455H58.9217L59.3223 50.5227H59.3393L59.7399 49.5455H60.1191V51H59.8208V50.0533H59.8088L59.4324 50.9929H59.2292L58.8528 50.0497H58.8407V51H58.5424V49.5455ZM61.7092 50.2727C61.7092 50.4313 61.6791 50.5663 61.619 50.6776C61.5593 50.7888 61.4779 50.8738 61.3746 50.9325C61.2719 50.9908 61.1564 51.0199 61.0281 51.0199C60.8988 51.0199 60.7828 50.9905 60.68 50.9318C60.5773 50.8731 60.4961 50.7881 60.4364 50.6768C60.3768 50.5656 60.3469 50.4309 60.3469 50.2727C60.3469 50.1141 60.3768 49.9792 60.4364 49.8679C60.4961 49.7566 60.5773 49.6719 60.68 49.6136C60.7828 49.5549 60.8988 49.5256 61.0281 49.5256C61.1564 49.5256 61.2719 49.5549 61.3746 49.6136C61.4779 49.6719 61.5593 49.7566 61.619 49.8679C61.6791 49.9792 61.7092 50.1141 61.7092 50.2727ZM61.3974 50.2727C61.3974 50.17 61.382 50.0833 61.3512 50.0128C61.3209 49.9422 61.2781 49.8887 61.2227 49.8523C61.1673 49.8158 61.1024 49.7976 61.0281 49.7976C60.9537 49.7976 60.8888 49.8158 60.8335 49.8523C60.7781 49.8887 60.735 49.9422 60.7042 50.0128C60.6739 50.0833 60.6587 50.17 60.6587 50.2727C60.6587 50.3755 60.6739 50.4621 60.7042 50.5327C60.735 50.6032 60.7781 50.6567 60.8335 50.6932C60.8888 50.7296 60.9537 50.7479 61.0281 50.7479C61.1024 50.7479 61.1673 50.7296 61.2227 50.6932C61.2781 50.6567 61.3209 50.6032 61.3512 50.5327C61.382 50.4621 61.3974 50.3755 61.3974 50.2727ZM63.1536 49.5455V51H62.888L62.2551 50.0845H62.2445V51H61.937V49.5455H62.2069L62.8347 50.4602H62.8475V49.5455H63.1536Z" fill="black"/>
<path d="M53.173 36H63.173L62.673 40C62.9348 41.5704 61.7237 43 60.1316 43H56.1419C54.7365 43 53.7889 41.563 54.3425 40.2712C54.5536 39.7787 54.5536 39.2213 54.3425 38.7288L53.173 36Z" fill="#EFC6C6"/>
<path d="M45.5 17H70.5L71 22H45L45.5 17Z" fill="#EFC6C6"/>
<ellipse cx="58.0063" cy="25.5" rx="14" ry="13.5" fill="#EFC6C6"/>
<path d="M68.7456 28.3184H60.1489L60.0122 28.0342L58.4761 24.8184H56.5972L55.0601 28.0342L54.9243 28.3184H46.7456V21.1113L48.9897 18.8672L49.1245 18.833L51.2261 18.3076L51.3296 18.3252L54.2349 18.8184H61.2622L64.2905 18.3252L64.3833 18.3096L64.4761 18.3301L66.7876 18.8301L66.9409 18.8633L67.0483 18.9775L68.6118 20.6592L68.7456 20.8037V28.3184Z" fill="url(#paint0_linear_166_1187)" stroke="black"/>
<path d="M43.9793 23.998L46.8204 22.9994L47.1418 23.9464L43.9795 24.998L43.9793 23.998Z" fill="black"/>
<path d="M43.9837 24.9428L46.2026 23.9958L46.524 24.9428L43.9798 25.9979L43.9837 24.9428Z" fill="black"/>
<path d="M72.0717 23.1273L68.8631 21.9996L68.5002 23.069L72.0716 24.2567L72.0717 23.1273Z" fill="black"/>
<path d="M72.0251 24.181L69.2271 23.0124L68.8642 24.0819L72.0712 25.3868L72.0251 24.181Z" fill="black"/>
<line x1="57.4807" y1="26.1581" x2="56.4807" y2="29.1581" stroke="black"/>
<line x1="56.1645" y1="29.5257" x2="59.1645" y2="30.5257" stroke="black"/>
<ellipse cx="58.5063" cy="34.5" rx="5.5" ry="1.5" fill="#EFA7A7"/>
<path d="M47.6 9.5L58 7L68.92 9.5L71 17H45L47.6 9.5Z" fill="#5C7780"/>
<path d="M47.7083 14L58 12.5L68.8333 14L71 17H45L47.7083 14Z" fill="#283134"/>
<path d="M59 75H66.5L67 80H58.5L59 75Z" fill="url(#paint1_linear_166_1187)"/>
<path d="M51 75H55.5L55 79H51.5L51 75Z" fill="url(#paint2_linear_166_1187)"/>
<path d="M51.5 79H55L54.5 85H52L51.5 79Z" fill="url(#paint3_linear_166_1187)"/>
<path d="M58.5 80H67L66 90H60L58.5 80Z" fill="url(#paint4_linear_166_1187)"/>
<rect x="52" y="84" width="2.7273" height="1.8182" fill="white"/>
<path d="M52 86.2724V85.3633H54.7273V86.2724L55.1819 88.0906L54.7273 88.7724C54.282 88.9208 53.8036 88.9392 53.3482 88.8254L53.1364 88.7724L52.4546 88.0906L52 86.2724Z" fill="black"/>
<path d="M53.2661 87.8562C53.2855 87.8491 53.3049 87.8421 53.3448 87.8295C53.3848 87.817 53.4447 87.7992 53.5225 87.7826C53.6003 87.766 53.6943 87.7511 53.7759 87.7434C53.8575 87.7357 53.9238 87.7357 54.0546 87.7507C54.1854 87.7656 54.3785 87.7956 54.5823 87.8265" stroke="#F5E4E4" stroke-width="0.5" stroke-linecap="round"/>
<path d="M53.27 87.2267C53.2941 87.2148 53.3182 87.2029 53.3705 87.1817C53.4227 87.1605 53.5024 87.1303 53.5815 87.1068C53.6605 87.0833 53.7365 87.0673 53.8345 87.0573C53.9325 87.0472 54.0501 87.0436 54.1737 87.0502C54.2974 87.0568 54.4236 87.0736 54.5584 87.091" stroke="#F5E4E4" stroke-width="0.5" stroke-linecap="round"/>
<path d="M52.8096 86.7313C52.8308 86.7217 52.8521 86.7122 52.8982 86.6929C52.9443 86.6736 53.0147 86.6448 53.1172 86.6131C53.2197 86.5815 53.3521 86.5479 53.5187 86.5205C53.6852 86.4932 53.8817 86.473 54.006 86.4638C54.1303 86.4545 54.1764 86.4568 54.2064 86.4589C54.2364 86.4609 54.2489 86.4627 54.2618 86.4645" stroke="#F5E4E4" stroke-width="0.5" stroke-linecap="round"/>
<path d="M53.5444 85.707C53.5413 85.711 53.5382 85.7149 53.5262 85.7285C53.5142 85.7422 53.4933 85.7653 53.401 85.8399C53.3088 85.9145 53.1458 86.0398 53.0465 86.1129C52.9473 86.1861 52.9168 86.2034 52.887 86.2177C52.8573 86.2321 52.8292 86.243 52.801 86.2519C52.7727 86.2608 52.745 86.2674 52.7235 86.2712C52.6876 86.2776 52.6669 86.2764 52.6547 86.2747C52.6242 86.2704 52.6088 86.2504 52.5979 86.2302C52.5953 86.2253 52.5944 86.2215 52.5921 86.2029C52.5897 86.1842 52.5863 86.1507 52.5848 86.1244C52.5833 86.0982 52.584 86.0803 52.5858 86.064C52.5893 86.0334 52.5995 86.0075 52.6111 85.9865C52.6276 85.9567 52.649 85.9496 52.6785 85.938C52.6901 85.9334 52.7088 85.9317 52.7444 85.9315C52.7799 85.9313 52.8323 85.9343 52.8981 85.9481C52.964 85.9619 53.0418 85.9864 53.1207 86.0174C53.1996 86.0485 53.2772 86.0853 53.3639 86.118C53.4505 86.1506 53.5439 86.1779 53.603 86.1932C53.6621 86.2085 53.6841 86.2109 53.7 86.2122C53.725 86.2141 53.7509 86.2101 53.7827 86.202C53.7981 86.1981 53.8114 86.1913 53.824 86.1832C53.8367 86.175 53.8481 86.1647 53.8626 86.1481C53.8771 86.1314 53.8943 86.1087 53.9092 86.0851C53.9242 86.0615 53.9364 86.0377 53.9456 86.0181C53.9547 85.9985 53.9605 85.9838 53.9665 85.9629C53.9725 85.942 53.9786 85.9154 53.9819 85.8957C53.9872 85.8642 53.9846 85.8415 53.9819 85.8242C53.9782 85.8006 53.9569 85.7746 53.9329 85.7519C53.9257 85.7451 53.9143 85.7403 53.9012 85.7354C53.8881 85.7305 53.8726 85.7267 53.8489 85.7236C53.8253 85.7205 53.7938 85.7181 53.7668 85.7179C53.7399 85.7176 53.7184 85.7196 53.7049 85.7211C53.6915 85.7226 53.6868 85.7236 53.6819 85.7246" stroke="#F5E4E4" stroke-width="0.5" stroke-linecap="round"/>
<rect x="60" y="90" width="6" height="4" fill="white"/>
<path d="M60 95V93H66V95L67 99L66 100.5C65.0203 100.827 63.9679 100.867 62.9661 100.617L62.5 100.5L61 99L60 95Z" fill="black"/>
<path d="M62.7852 98.486C62.8278 98.4705 62.8705 98.4549 62.9584 98.4273C63.0462 98.3997 63.178 98.3606 63.3492 98.3241C63.5204 98.2875 63.7271 98.2547 63.9066 98.2377C64.0861 98.2208 64.2322 98.2208 64.5198 98.2538C64.8075 98.2867 65.2323 98.3527 65.6808 98.4206" stroke="#F5E4E4" stroke-width="0.5" stroke-linecap="round"/>
<path d="M62.7939 97.0987C62.847 97.0725 62.9 97.0464 63.015 96.9997C63.1299 96.9531 63.3052 96.8867 63.4791 96.835C63.6531 96.7833 63.8203 96.7481 64.0358 96.726C64.2513 96.7039 64.51 96.696 64.7821 96.7104C65.0541 96.7248 65.3317 96.762 65.6285 96.8002" stroke="#F5E4E4" stroke-width="0.5" stroke-linecap="round"/>
<path d="M61.7808 96.0057C61.8275 95.9847 61.8743 95.9637 61.9758 95.9212C62.0772 95.8787 62.232 95.8153 62.4575 95.7457C62.6829 95.6761 62.9744 95.6023 63.3408 95.542C63.7071 95.4818 64.1395 95.4375 64.413 95.4171C64.6864 95.3968 64.7878 95.4019 64.8538 95.4064C64.9198 95.4109 64.9473 95.4148 64.9756 95.4187" stroke="#F5E4E4" stroke-width="0.5" stroke-linecap="round"/>
<path d="M63.3975 93.7578C63.3908 93.7665 63.384 93.7752 63.3575 93.8052C63.331 93.8351 63.2851 93.8861 63.0821 94.0502C62.8792 94.2142 62.5206 94.4898 62.3022 94.6508C62.0839 94.8118 62.0168 94.8498 61.9513 94.8814C61.8859 94.9129 61.8242 94.9368 61.762 94.9565C61.6998 94.9761 61.6389 94.9906 61.5915 94.9991C61.5125 95.0131 61.467 95.0104 61.4402 95.0066C61.373 94.9972 61.3393 94.9532 61.3153 94.9087C61.3095 94.8981 61.3077 94.8897 61.3025 94.8487C61.2973 94.8076 61.2897 94.7338 61.2865 94.6761C61.2832 94.6184 61.2846 94.5791 61.2887 94.5432C61.2964 94.4758 61.3188 94.4189 61.3444 94.3725C61.3806 94.307 61.4276 94.2916 61.4926 94.2659C61.5182 94.2559 61.5593 94.2521 61.6375 94.2516C61.7157 94.2512 61.8308 94.2577 61.9757 94.2881C62.1206 94.3184 62.2918 94.3724 62.4654 94.4407C62.6389 94.509 62.8097 94.5901 63.0004 94.6619C63.191 94.7337 63.3964 94.7938 63.5264 94.8274C63.6565 94.8611 63.705 94.8664 63.74 94.8691C63.7949 94.8734 63.852 94.8645 63.9217 94.8468C63.9557 94.8382 63.9849 94.8233 64.0127 94.8053C64.0405 94.7872 64.0656 94.7647 64.0975 94.7281C64.1294 94.6915 64.1673 94.6415 64.2002 94.5896C64.2331 94.5377 64.26 94.4853 64.2801 94.4421C64.3003 94.399 64.3129 94.3667 64.3261 94.3208C64.3393 94.2748 64.3528 94.2162 64.3601 94.1728C64.3717 94.1035 64.3661 94.0536 64.3601 94.0156C64.3519 93.9636 64.305 93.9064 64.2522 93.8566C64.2364 93.8417 64.2113 93.8311 64.1825 93.8202C64.1536 93.8094 64.1196 93.8012 64.0675 93.7943C64.0154 93.7874 63.9462 93.7822 63.8869 93.7817C63.8276 93.7811 63.7803 93.7854 63.7508 93.7887C63.7212 93.792 63.7108 93.7942 63.7001 93.7965" stroke="#F5E4E4" stroke-width="0.5" stroke-linecap="round"/>
<rect width="11.5981" height="4.83109" rx="2.41554" transform="matrix(-0.397217 0.917725 0.917725 0.397217 44.6074 44)" fill="url(#paint5_linear_166_1187)"/>
<path d="M43.2551 52.5307C42.358 52.1754 41.334 52.4508 40.736 53.2081C39.8547 54.3244 40.2579 55.9718 41.5552 56.5548L48.6457 59.7411C49.835 60.2755 51.2323 59.7447 51.7668 58.5554C52.3184 57.3278 51.7338 55.8882 50.4826 55.3927L43.2551 52.5307Z" fill="url(#paint6_linear_166_1187)"/>
<rect x="43.3208" y="46.2852" width="6.32065" height="5" transform="rotate(-42.6912 43.3208 46.2852)" fill="white"/>
<rect x="72.9165" y="45.4141" width="12.0036" height="5" rx="2.5" transform="rotate(84.2297 72.9165 45.4141)" fill="url(#paint7_linear_166_1187)"/>
<path d="M69.0893 56.1473C69.0379 54.911 69.8941 53.8212 71.1074 53.5785C72.6234 53.2753 74.051 54.3998 74.1114 55.9446L74.4215 63.877C74.4755 65.2584 73.3995 66.422 72.0181 66.476C70.6391 66.5299 69.4767 65.4576 69.4193 64.0788L69.0893 56.1473Z" fill="url(#paint8_linear_166_1187)"/>
<path d="M68.7505 42.041L73 46.9998L68.5 51L64.9997 45.2553L68.7505 42.041Z" fill="white"/>
<defs>
<linearGradient id="paint0_linear_166_1187" x1="46" y1="23.5" x2="69" y2="23.5" gradientUnits="userSpaceOnUse">
<stop stop-color="#FFB300"/>
<stop offset="1" stop-color="#F7F6EB"/>
</linearGradient>
<linearGradient id="paint1_linear_166_1187" x1="63" y1="75" x2="63" y2="80" gradientUnits="userSpaceOnUse">
<stop stop-color="#EFC6C6"/>
<stop offset="1" stop-color="#F5E7E7"/>
</linearGradient>
<linearGradient id="paint2_linear_166_1187" x1="53" y1="75" x2="53" y2="79" gradientUnits="userSpaceOnUse">
<stop stop-color="#EFC6C6"/>
<stop offset="1" stop-color="#F5E7E7"/>
</linearGradient>
<linearGradient id="paint3_linear_166_1187" x1="53.2857" y1="85" x2="53.2857" y2="79" gradientUnits="userSpaceOnUse">
<stop stop-color="#EFC6C6"/>
<stop offset="1" stop-color="#F5E4E4"/>
</linearGradient>
<linearGradient id="paint4_linear_166_1187" x1="62" y1="90" x2="62" y2="80" gradientUnits="userSpaceOnUse">
<stop stop-color="#EFC6C6"/>
<stop offset="1" stop-color="#F5E4E4"/>
</linearGradient>
<linearGradient id="paint5_linear_166_1187" x1="4.18851" y1="2.04869" x2="11.537" y2="2.92696" gradientUnits="userSpaceOnUse">
<stop stop-color="#EFC6C6"/>
<stop offset="1" stop-color="#987F7F"/>
</linearGradient>
<linearGradient id="paint6_linear_166_1187" x1="50.1824" y1="58.1663" x2="44.7658" y2="51.9496" gradientUnits="userSpaceOnUse">
<stop stop-color="#EFC6C6"/>
<stop offset="1" stop-color="#B29494"/>
</linearGradient>
<linearGradient id="paint7_linear_166_1187" x1="77.2515" y1="47.5344" x2="84.8569" y2="48.4434" gradientUnits="userSpaceOnUse">
<stop stop-color="#EFC6C6"/>
<stop offset="1" stop-color="#987F7F"/>
</linearGradient>
<linearGradient id="paint8_linear_166_1187" x1="72.3174" y1="64.8016" x2="68.4465" y2="57.1963" gradientUnits="userSpaceOnUse">
<stop stop-color="#EFC6C6"/>
<stop offset="1" stop-color="#B29494"/>
</linearGradient>
</defs>
</svg>
