<svg width="35" height="88" viewBox="0 0 35 88" fill="none" xmlns="http://www.w3.org/2000/svg">
<path d="M7 37C7 35.3431 8.34315 34 10 34H27C28.6569 34 30 35.3431 30 37C30 38.6569 28.6569 40 27 40H10C8.34315 40 7 38.6569 7 37Z" fill="white"/>
<rect x="9.75" y="60" width="6.5" height="8" fill="#272727"/>
<path d="M16 62L15.5 60H26.25V68H19.75V62H16Z" fill="#272727"/>
<path d="M7 37H29L27.5 60H26.0063H10.0063H9L7 37Z" fill="white"/>
<line x1="17.4341" y1="40.2481" x2="13.4341" y2="47.2481" stroke="#0720FF"/>
<line x1="21.4341" y1="40.2481" x2="17.4341" y2="47.2481" stroke="#FF0000"/>
<line x1="19.4341" y1="40.2481" x2="15.4341" y2="47.2481" stroke="#FBFF00"/>
<path d="M13.9155 42.9638C13.9098 42.9065 13.8854 42.862 13.8423 42.8303C13.7992 42.7985 13.7408 42.7827 13.6669 42.7827C13.6167 42.7827 13.5743 42.7898 13.5398 42.804C13.5052 42.8177 13.4787 42.8369 13.4602 42.8615C13.4422 42.8861 13.4332 42.9141 13.4332 42.9453C13.4323 42.9714 13.4377 42.9941 13.4496 43.0135C13.4619 43.0329 13.4787 43.0497 13.5 43.0639C13.5213 43.0777 13.5459 43.0897 13.5739 43.1001C13.6018 43.1101 13.6316 43.1186 13.6634 43.1257L13.794 43.157C13.8575 43.1712 13.9157 43.1901 13.9688 43.2138C14.0218 43.2375 14.0677 43.2666 14.1065 43.3011C14.1454 43.3357 14.1754 43.3764 14.1967 43.4233C14.2185 43.4702 14.2296 43.5239 14.2301 43.5845C14.2296 43.6735 14.2069 43.7507 14.1619 43.8161C14.1174 43.8809 14.053 43.9313 13.9688 43.9673C13.8849 44.0028 13.7839 44.0206 13.6655 44.0206C13.5481 44.0206 13.4458 44.0026 13.3587 43.9666C13.272 43.9306 13.2043 43.8774 13.1555 43.8068C13.1072 43.7358 13.0819 43.648 13.0795 43.5433H13.3771C13.3804 43.5921 13.3944 43.6328 13.419 43.6655C13.4441 43.6977 13.4775 43.7221 13.5192 43.7386C13.5613 43.7547 13.6089 43.7628 13.6619 43.7628C13.714 43.7628 13.7592 43.7552 13.7976 43.7401C13.8364 43.7249 13.8665 43.7038 13.8878 43.6768C13.9091 43.6499 13.9197 43.6188 13.9197 43.5838C13.9197 43.5511 13.91 43.5237 13.8906 43.5014C13.8717 43.4792 13.8438 43.4602 13.8068 43.4446C13.7704 43.429 13.7256 43.4148 13.6726 43.402L13.5142 43.3622C13.3916 43.3324 13.2947 43.2857 13.2237 43.2223C13.1527 43.1589 13.1174 43.0734 13.1179 42.9659C13.1174 42.8778 13.1409 42.8009 13.1882 42.7351C13.236 42.6693 13.3016 42.6179 13.3849 42.581C13.4683 42.544 13.563 42.5256 13.669 42.5256C13.777 42.5256 13.8712 42.544 13.9517 42.581C14.0327 42.6179 14.0956 42.6693 14.1406 42.7351C14.1856 42.8009 14.2088 42.8771 14.2102 42.9638H13.9155ZM14.6545 44H14.3249L14.8271 42.5455H15.2234L15.7248 44H15.3952L15.0309 42.8778H15.0195L14.6545 44ZM14.6339 43.4283H15.4123V43.6683H14.6339V43.4283ZM15.8999 44V42.5455H16.2074V43.7464H16.831V44H15.8999ZM18.3146 43.2727C18.3146 43.4313 18.2846 43.5663 18.2244 43.6776C18.1648 43.7888 18.0833 43.8738 17.9801 43.9325C17.8774 43.9908 17.7618 44.0199 17.6335 44.0199C17.5043 44.0199 17.3883 43.9905 17.2855 43.9318C17.1828 43.8731 17.1016 43.7881 17.0419 43.6768C16.9822 43.5656 16.9524 43.4309 16.9524 43.2727C16.9524 43.1141 16.9822 42.9792 17.0419 42.8679C17.1016 42.7566 17.1828 42.6719 17.2855 42.6136C17.3883 42.5549 17.5043 42.5256 17.6335 42.5256C17.7618 42.5256 17.8774 42.5549 17.9801 42.6136C18.0833 42.6719 18.1648 42.7566 18.2244 42.8679C18.2846 42.9792 18.3146 43.1141 18.3146 43.2727ZM18.0028 43.2727C18.0028 43.17 17.9875 43.0833 17.9567 43.0128C17.9264 42.9422 17.8835 42.8887 17.8281 42.8523C17.7727 42.8158 17.7079 42.7976 17.6335 42.7976C17.5592 42.7976 17.4943 42.8158 17.4389 42.8523C17.3835 42.8887 17.3404 42.9422 17.3097 43.0128C17.2794 43.0833 17.2642 43.17 17.2642 43.2727C17.2642 43.3755 17.2794 43.4621 17.3097 43.5327C17.3404 43.6032 17.3835 43.6567 17.4389 43.6932C17.4943 43.7296 17.5592 43.7479 17.6335 43.7479C17.7079 43.7479 17.7727 43.7296 17.8281 43.6932C17.8835 43.6567 17.9264 43.6032 17.9567 43.5327C17.9875 43.4621 18.0028 43.3755 18.0028 43.2727ZM18.5424 42.5455H18.9217L19.3223 43.5227H19.3393L19.7399 42.5455H20.1191V44H19.8208V43.0533H19.8088L19.4324 43.9929H19.2292L18.8528 43.0497H18.8407V44H18.5424V42.5455ZM21.7092 43.2727C21.7092 43.4313 21.6791 43.5663 21.619 43.6776C21.5593 43.7888 21.4779 43.8738 21.3746 43.9325C21.2719 43.9908 21.1564 44.0199 21.0281 44.0199C20.8988 44.0199 20.7828 43.9905 20.68 43.9318C20.5773 43.8731 20.4961 43.7881 20.4364 43.6768C20.3768 43.5656 20.3469 43.4309 20.3469 43.2727C20.3469 43.1141 20.3768 42.9792 20.4364 42.8679C20.4961 42.7566 20.5773 42.6719 20.68 42.6136C20.7828 42.5549 20.8988 42.5256 21.0281 42.5256C21.1564 42.5256 21.2719 42.5549 21.3746 42.6136C21.4779 42.6719 21.5593 42.7566 21.619 42.8679C21.6791 42.9792 21.7092 43.1141 21.7092 43.2727ZM21.3974 43.2727C21.3974 43.17 21.382 43.0833 21.3512 43.0128C21.3209 42.9422 21.2781 42.8887 21.2227 42.8523C21.1673 42.8158 21.1024 42.7976 21.0281 42.7976C20.9537 42.7976 20.8888 42.8158 20.8335 42.8523C20.7781 42.8887 20.735 42.9422 20.7042 43.0128C20.6739 43.0833 20.6587 43.17 20.6587 43.2727C20.6587 43.3755 20.6739 43.4621 20.7042 43.5327C20.735 43.6032 20.7781 43.6567 20.8335 43.6932C20.8888 43.7296 20.9537 43.7479 21.0281 43.7479C21.1024 43.7479 21.1673 43.7296 21.2227 43.6932C21.2781 43.6567 21.3209 43.6032 21.3512 43.5327C21.382 43.4621 21.3974 43.3755 21.3974 43.2727ZM23.1536 42.5455V44H22.888L22.2551 43.0845H22.2445V44H21.937V42.5455H22.2069L22.8347 43.4602H22.8475V42.5455H23.1536Z" fill="black"/>
<path d="M13.173 29H23.173L22.673 33C22.9348 34.5704 21.7237 36 20.1316 36H16.1419C14.7365 36 13.7889 34.563 14.3425 33.2712C14.5536 32.7787 14.5536 32.2213 14.3425 31.7288L13.173 29Z" fill="#EFC6C6"/>
<path d="M5.5 10H30.5L31 15H5L5.5 10Z" fill="#EFC6C6"/>
<ellipse cx="18.0063" cy="18.5" rx="14" ry="13.5" fill="#EFC6C6"/>
<path d="M28.7456 21.3184H20.1489L20.0122 21.0342L18.4761 17.8184H16.5972L15.0601 21.0342L14.9243 21.3184H6.74561V14.1113L8.98975 11.8672L9.12451 11.833L11.2261 11.3076L11.3296 11.3252L14.2349 11.8184H21.2622L24.2905 11.3252L24.3833 11.3096L24.4761 11.3301L26.7876 11.8301L26.9409 11.8633L27.0483 11.9775L28.6118 13.6592L28.7456 13.8037V21.3184Z" fill="url(#paint0_linear_166_417)" stroke="black"/>
<path d="M3.97934 16.998L6.82043 15.9994L7.14176 16.9464L3.97949 17.998L3.97934 16.998Z" fill="black"/>
<path d="M3.98371 17.9428L6.20262 16.9958L6.52396 17.9428L3.97982 18.9979L3.98371 17.9428Z" fill="black"/>
<path d="M32.0717 16.1273L28.8631 14.9996L28.5002 16.069L32.0716 17.2567L32.0717 16.1273Z" fill="black"/>
<path d="M32.0251 17.1791L29.2271 16.0105L28.8642 17.08L32.0712 18.3849L32.0251 17.1791Z" fill="black"/>
<line x1="17.4807" y1="19.1581" x2="16.4807" y2="22.1581" stroke="black"/>
<line x1="16.1645" y1="22.5257" x2="19.1645" y2="23.5257" stroke="black"/>
<ellipse cx="18.5063" cy="27.5" rx="5.5" ry="1.5" fill="#EFA7A7"/>
<path d="M7.6 2.5L18 0L28.92 2.5L31 10H5L7.6 2.5Z" fill="#5C7780"/>
<path d="M7.70833 7L18 5.5L28.8333 7L31 10H5L7.70833 7Z" fill="#283134"/>
<rect x="20" y="68" width="6" height="4" fill="url(#paint1_linear_166_417)"/>
<rect x="10" y="68" width="6" height="4" fill="url(#paint2_linear_166_417)"/>
<rect x="10" y="72" width="6" height="10" fill="url(#paint3_linear_166_417)"/>
<rect x="20" y="72" width="6" height="10" fill="url(#paint4_linear_166_417)"/>
<rect x="10" y="77" width="6" height="4" fill="white"/>
<path d="M10 82V80H16V82L17 86L16 87.5C15.0203 87.8266 13.9679 87.867 12.9661 87.6165L12.5 87.5L11 86L10 82Z" fill="black"/>
<path d="M12.7852 85.486C12.8278 85.4705 12.8705 85.4549 12.9584 85.4273C13.0462 85.3997 13.178 85.3606 13.3492 85.3241C13.5204 85.2875 13.7271 85.2547 13.9066 85.2377C14.0861 85.2208 14.2322 85.2208 14.5198 85.2538C14.8075 85.2867 15.2323 85.3527 15.6808 85.4206" stroke="#F5E4E4" stroke-width="0.5" stroke-linecap="round"/>
<path d="M12.7939 84.0987C12.847 84.0725 12.9 84.0464 13.015 83.9997C13.1299 83.9531 13.3052 83.8867 13.4791 83.835C13.6531 83.7833 13.8203 83.7481 14.0358 83.726C14.2513 83.7039 14.51 83.696 14.7821 83.7104C15.0541 83.7248 15.3317 83.762 15.6285 83.8002" stroke="#F5E4E4" stroke-width="0.5" stroke-linecap="round"/>
<path d="M11.7808 83.0057C11.8275 82.9847 11.8743 82.9637 11.9758 82.9212C12.0772 82.8787 12.232 82.8153 12.4575 82.7457C12.6829 82.6761 12.9744 82.6023 13.3408 82.542C13.7071 82.4818 14.1395 82.4375 14.413 82.4171C14.6864 82.3968 14.7878 82.4019 14.8538 82.4064C14.9198 82.4109 14.9473 82.4148 14.9756 82.4187" stroke="#F5E4E4" stroke-width="0.5" stroke-linecap="round"/>
<path d="M13.3975 80.7578C13.3908 80.7665 13.384 80.7752 13.3575 80.8052C13.331 80.8351 13.2851 80.8861 13.0821 81.0502C12.8792 81.2142 12.5206 81.4898 12.3022 81.6508C12.0839 81.8118 12.0168 81.8498 11.9513 81.8814C11.8859 81.9129 11.8242 81.9368 11.762 81.9565C11.6998 81.9761 11.6389 81.9906 11.5915 81.9991C11.5125 82.0131 11.467 82.0104 11.4402 82.0066C11.373 81.9972 11.3393 81.9532 11.3153 81.9087C11.3095 81.8981 11.3077 81.8897 11.3025 81.8487C11.2973 81.8076 11.2897 81.7338 11.2865 81.6761C11.2832 81.6184 11.2846 81.5791 11.2887 81.5432C11.2964 81.4758 11.3188 81.4189 11.3444 81.3725C11.3806 81.307 11.4276 81.2916 11.4926 81.2659C11.5182 81.2559 11.5593 81.2521 11.6375 81.2516C11.7157 81.2512 11.8308 81.2577 11.9757 81.2881C12.1206 81.3184 12.2918 81.3724 12.4654 81.4407C12.6389 81.509 12.8097 81.5901 13.0004 81.6619C13.191 81.7337 13.3964 81.7938 13.5264 81.8274C13.6565 81.8611 13.705 81.8664 13.74 81.8691C13.7949 81.8734 13.852 81.8645 13.9217 81.8468C13.9557 81.8382 13.9849 81.8233 14.0127 81.8053C14.0405 81.7872 14.0656 81.7647 14.0975 81.7281C14.1294 81.6915 14.1673 81.6415 14.2002 81.5896C14.2331 81.5377 14.26 81.4853 14.2801 81.4421C14.3003 81.399 14.3129 81.3667 14.3261 81.3208C14.3393 81.2748 14.3528 81.2162 14.3601 81.1728C14.3717 81.1035 14.3661 81.0536 14.3601 81.0156C14.3519 80.9636 14.305 80.9064 14.2522 80.8566C14.2364 80.8417 14.2113 80.8311 14.1825 80.8202C14.1536 80.8094 14.1196 80.8012 14.0675 80.7943C14.0154 80.7874 13.9462 80.7822 13.8869 80.7817C13.8276 80.7811 13.7803 80.7854 13.7508 80.7887C13.7212 80.792 13.7108 80.7942 13.7001 80.7965" stroke="#F5E4E4" stroke-width="0.5" stroke-linecap="round"/>
<rect x="20" y="77" width="6" height="4" fill="white"/>
<path d="M20 82V80H26V82L27 86L26 87.5C25.0203 87.8266 23.9679 87.867 22.9661 87.6165L22.5 87.5L21 86L20 82Z" fill="black"/>
<path d="M22.7852 85.486C22.8278 85.4705 22.8705 85.4549 22.9584 85.4273C23.0462 85.3997 23.178 85.3606 23.3492 85.3241C23.5204 85.2875 23.7271 85.2547 23.9066 85.2377C24.0861 85.2208 24.2322 85.2208 24.5198 85.2538C24.8075 85.2867 25.2323 85.3527 25.6808 85.4206" stroke="#F5E4E4" stroke-width="0.5" stroke-linecap="round"/>
<path d="M22.7939 84.0987C22.847 84.0725 22.9 84.0464 23.015 83.9997C23.1299 83.9531 23.3052 83.8867 23.4791 83.835C23.6531 83.7833 23.8203 83.7481 24.0358 83.726C24.2513 83.7039 24.51 83.696 24.7821 83.7104C25.0541 83.7248 25.3317 83.762 25.6285 83.8002" stroke="#F5E4E4" stroke-width="0.5" stroke-linecap="round"/>
<path d="M21.7808 83.0057C21.8275 82.9847 21.8743 82.9637 21.9758 82.9212C22.0772 82.8787 22.232 82.8153 22.4575 82.7457C22.6829 82.6761 22.9744 82.6023 23.3408 82.542C23.7071 82.4818 24.1395 82.4375 24.413 82.4171C24.6864 82.3968 24.7878 82.4019 24.8538 82.4064C24.9198 82.4109 24.9473 82.4148 24.9756 82.4187" stroke="#F5E4E4" stroke-width="0.5" stroke-linecap="round"/>
<path d="M23.3975 80.7578C23.3908 80.7665 23.384 80.7752 23.3575 80.8052C23.331 80.8351 23.2851 80.8861 23.0821 81.0502C22.8792 81.2142 22.5206 81.4898 22.3022 81.6508C22.0839 81.8118 22.0168 81.8498 21.9513 81.8814C21.8859 81.9129 21.8242 81.9368 21.762 81.9565C21.6998 81.9761 21.6389 81.9906 21.5915 81.9991C21.5125 82.0131 21.467 82.0104 21.4402 82.0066C21.373 81.9972 21.3393 81.9532 21.3153 81.9087C21.3095 81.8981 21.3077 81.8897 21.3025 81.8487C21.2973 81.8076 21.2897 81.7338 21.2865 81.6761C21.2832 81.6184 21.2846 81.5791 21.2887 81.5432C21.2964 81.4758 21.3188 81.4189 21.3444 81.3725C21.3806 81.307 21.4276 81.2916 21.4926 81.2659C21.5182 81.2559 21.5593 81.2521 21.6375 81.2516C21.7157 81.2512 21.8308 81.2577 21.9757 81.2881C22.1206 81.3184 22.2918 81.3724 22.4654 81.4407C22.6389 81.509 22.8097 81.5901 23.0004 81.6619C23.191 81.7337 23.3964 81.7938 23.5264 81.8274C23.6565 81.8611 23.705 81.8664 23.74 81.8691C23.7949 81.8734 23.852 81.8645 23.9217 81.8468C23.9557 81.8382 23.9849 81.8233 24.0127 81.8053C24.0405 81.7872 24.0656 81.7647 24.0975 81.7281C24.1294 81.6915 24.1673 81.6415 24.2002 81.5896C24.2331 81.5377 24.26 81.4853 24.2801 81.4421C24.3003 81.399 24.3129 81.3667 24.3261 81.3208C24.3393 81.2748 24.3528 81.2162 24.3601 81.1728C24.3717 81.1035 24.3661 81.0536 24.3601 81.0156C24.3519 80.9636 24.305 80.9064 24.2522 80.8566C24.2364 80.8417 24.2113 80.8311 24.1825 80.8202C24.1536 80.8094 24.1196 80.8012 24.0675 80.7943C24.0154 80.7874 23.9462 80.7822 23.8869 80.7817C23.8276 80.7811 23.7803 80.7854 23.7508 80.7887C23.7212 80.792 23.7108 80.7942 23.7001 80.7965" stroke="#F5E4E4" stroke-width="0.5" stroke-linecap="round"/>
<rect width="11.5981" height="4.83109" rx="2.41554" transform="matrix(-0.397217 0.917725 0.917725 0.397217 4.60693 36.998)" fill="url(#paint5_linear_166_417)"/>
<path d="M5.0704 46.4739C4.70449 45.5811 3.79617 45.034 2.83582 45.128C1.42034 45.2667 0.512602 46.6994 0.991783 48.0385L3.61079 55.3575C4.05008 56.5851 5.40137 57.2242 6.62899 56.7849C7.89612 56.3315 8.52844 54.9121 8.0181 53.6668L5.0704 46.4739Z" fill="url(#paint6_linear_166_417)"/>
<rect x="3.3208" y="39.2852" width="6.32065" height="5" transform="rotate(-42.6912 3.3208 39.2852)" fill="white"/>
<rect x="32.9165" y="38.4141" width="12.0036" height="5" rx="2.5" transform="rotate(84.2297 32.9165 38.4141)" fill="url(#paint7_linear_166_417)"/>
<path d="M29.4883 47.6166C30.1292 46.8507 31.1966 46.5958 32.1143 46.9897C33.467 47.5703 33.9131 49.268 33.0207 50.4385L28.1427 56.8364C27.3246 57.9095 25.7914 58.1161 24.7183 57.298C23.6106 56.4535 23.4319 54.8553 24.3257 53.787L29.4883 47.6166Z" fill="url(#paint8_linear_166_417)"/>
<path d="M28.7505 35.041L33 39.9998L28.5 44L24.9997 38.2553L28.7505 35.041Z" fill="white"/>
<defs>
<linearGradient id="paint0_linear_166_417" x1="6" y1="16.5" x2="29" y2="16.5" gradientUnits="userSpaceOnUse">
<stop stop-color="#FFB300"/>
<stop offset="1" stop-color="#F7F6EB"/>
</linearGradient>
<linearGradient id="paint1_linear_166_417" x1="23" y1="68" x2="23" y2="72" gradientUnits="userSpaceOnUse">
<stop stop-color="#EFC6C6"/>
<stop offset="1" stop-color="#F5E7E7"/>
</linearGradient>
<linearGradient id="paint2_linear_166_417" x1="13" y1="68" x2="13" y2="72" gradientUnits="userSpaceOnUse">
<stop stop-color="#EFC6C6"/>
<stop offset="1" stop-color="#F5E7E7"/>
</linearGradient>
<linearGradient id="paint3_linear_166_417" x1="13" y1="82" x2="13" y2="72" gradientUnits="userSpaceOnUse">
<stop stop-color="#EFC6C6"/>
<stop offset="1" stop-color="#F5E4E4"/>
</linearGradient>
<linearGradient id="paint4_linear_166_417" x1="23" y1="82" x2="23" y2="72" gradientUnits="userSpaceOnUse">
<stop stop-color="#EFC6C6"/>
<stop offset="1" stop-color="#F5E4E4"/>
</linearGradient>
<linearGradient id="paint5_linear_166_417" x1="4.18851" y1="2.04869" x2="11.537" y2="2.92696" gradientUnits="userSpaceOnUse">
<stop stop-color="#EFC6C6"/>
<stop offset="1" stop-color="#987F7F"/>
</linearGradient>
<linearGradient id="paint6_linear_166_417" x1="5.81104" y1="55.3733" x2="6.53646" y2="47.1599" gradientUnits="userSpaceOnUse">
<stop stop-color="#EFC6C6"/>
<stop offset="1" stop-color="#B29494"/>
</linearGradient>
<linearGradient id="paint7_linear_166_417" x1="37.2515" y1="40.5344" x2="44.8569" y2="41.4434" gradientUnits="userSpaceOnUse">
<stop stop-color="#EFC6C6"/>
<stop offset="1" stop-color="#987F7F"/>
</linearGradient>
<linearGradient id="paint8_linear_166_417" x1="25.9676" y1="56.1621" x2="27.8272" y2="47.8335" gradientUnits="userSpaceOnUse">
<stop stop-color="#EFC6C6"/>
<stop offset="1" stop-color="#B29494"/>
</linearGradient>
</defs>
</svg>
