<svg width="50" height="89" viewBox="0 0 50 89" fill="none" xmlns="http://www.w3.org/2000/svg">
<path d="M13.2085 37.9692C13.2085 36.2689 14.5868 34.8906 16.287 34.8906H33.7321C35.4323 34.8906 36.8106 36.2689 36.8106 37.9692C36.8106 39.6694 35.4323 41.0477 33.7321 41.0477H16.287C14.5868 41.0477 13.2085 39.6694 13.2085 37.9692Z" fill="white"/>
<rect x="29.6367" y="68.7129" width="6.15707" height="4.10471" transform="rotate(-29.0297 29.6367 68.7129)" fill="url(#paint0_linear_211_69)"/>
<rect x="16.0332" y="66.6875" width="6.15707" height="4.10471" transform="rotate(36.4892 16.0332 66.6875)" fill="url(#paint1_linear_211_69)"/>
<path d="M14.5865 68.9664C16.1276 68.2482 17.9591 68.9153 18.6773 70.4564C19.3955 71.9975 18.7284 73.829 17.1873 74.5472L10.6763 77.5814L8.07557 72.0006L14.5865 68.9664Z" fill="url(#paint2_linear_211_69)"/>
<path d="M31.3372 71.7054C30.781 70.2528 31.369 68.6117 32.7212 67.843C34.4163 66.8794 36.5707 67.6727 37.2361 69.5055L39.9544 76.9935L34.1688 79.0998L31.3372 71.7054Z" fill="url(#paint3_linear_211_69)"/>
<rect x="19.2158" y="59.6855" width="6.67016" height="8.20942" transform="rotate(30.2523 19.2158 59.6855)" fill="#272727"/>
<path d="M22.4522 63.6185L22.4518 60.5396L31.3929 58.4867L35.3096 65.7016L29.4476 68.8839L26.5568 63.6189L22.4522 63.6185Z" fill="#272727"/>
<path d="M13.2085 37.9668H35.7844L34.2451 61.5689H32.7124H16.2935H15.2609L13.2085 37.9668Z" fill="white"/>
<line x1="23.1661" y1="41.9336" x2="19.0253" y2="49.18" stroke="#0720FF"/>
<line x1="27.3077" y1="41.9336" x2="23.1669" y2="49.18" stroke="#FF0000"/>
<line x1="25.2373" y1="41.9336" x2="21.0965" y2="49.18" stroke="#FBFF00"/>
<path d="M19.5068 44.7216C19.5011 44.6643 19.4767 44.6198 19.4336 44.5881C19.3906 44.5563 19.3321 44.5405 19.2582 44.5405C19.208 44.5405 19.1656 44.5476 19.1311 44.5618C19.0965 44.5755 19.07 44.5947 19.0515 44.6193C19.0335 44.6439 19.0245 44.6719 19.0245 44.7031C19.0236 44.7292 19.029 44.7519 19.0409 44.7713C19.0532 44.7907 19.07 44.8075 19.0913 44.8217C19.1126 44.8355 19.1372 44.8475 19.1652 44.858C19.1931 44.8679 19.2229 44.8764 19.2547 44.8835L19.3853 44.9148C19.4488 44.929 19.507 44.9479 19.5601 44.9716C19.6131 44.9953 19.659 45.0244 19.6978 45.0589C19.7367 45.0935 19.7667 45.1342 19.788 45.1811C19.8098 45.228 19.8209 45.2817 19.8214 45.3423C19.8209 45.4313 19.7982 45.5085 19.7532 45.5739C19.7087 45.6387 19.6443 45.6892 19.5601 45.7251C19.4763 45.7607 19.3752 45.7784 19.2568 45.7784C19.1394 45.7784 19.0371 45.7604 18.95 45.7244C18.8633 45.6884 18.7956 45.6352 18.7468 45.5646C18.6986 45.4936 18.6732 45.4058 18.6709 45.3011H18.9684C18.9718 45.3499 18.9857 45.3906 19.0103 45.4233C19.0354 45.4555 19.0688 45.4799 19.1105 45.4964C19.1526 45.5125 19.2002 45.5206 19.2532 45.5206C19.3053 45.5206 19.3505 45.513 19.3889 45.4979C19.4277 45.4827 19.4578 45.4616 19.4791 45.4347C19.5004 45.4077 19.5111 45.3767 19.5111 45.3416C19.5111 45.3089 19.5013 45.2815 19.4819 45.2592C19.463 45.237 19.4351 45.218 19.3981 45.2024C19.3617 45.1868 19.3169 45.1726 19.2639 45.1598L19.1055 45.12C18.9829 45.0902 18.8861 45.0436 18.815 44.9801C18.744 44.9167 18.7087 44.8312 18.7092 44.7237C18.7087 44.6357 18.7322 44.5587 18.7795 44.4929C18.8273 44.4271 18.8929 44.3757 18.9763 44.3388C19.0596 44.3018 19.1543 44.2834 19.2603 44.2834C19.3683 44.2834 19.4625 44.3018 19.543 44.3388C19.624 44.3757 19.687 44.4271 19.7319 44.4929C19.7769 44.5587 19.8001 44.6349 19.8015 44.7216H19.5068ZM20.2458 45.7578H19.9162L20.4184 44.3033H20.8147L21.3161 45.7578H20.9866L20.6222 44.6357H20.6108L20.2458 45.7578ZM20.2252 45.1861H21.0036V45.4261H20.2252V45.1861ZM21.4912 45.7578V44.3033H21.7987V45.5043H22.4223V45.7578H21.4912ZM23.9059 45.0305C23.9059 45.1892 23.8759 45.3241 23.8157 45.4354C23.7561 45.5466 23.6746 45.6316 23.5714 45.6903C23.4687 45.7486 23.3531 45.7777 23.2248 45.7777C23.0956 45.7777 22.9796 45.7483 22.8768 45.6896C22.7741 45.6309 22.6929 45.5459 22.6332 45.4347C22.5736 45.3234 22.5437 45.1887 22.5437 45.0305C22.5437 44.8719 22.5736 44.737 22.6332 44.6257C22.6929 44.5144 22.7741 44.4297 22.8768 44.3714C22.9796 44.3127 23.0956 44.2834 23.2248 44.2834C23.3531 44.2834 23.4687 44.3127 23.5714 44.3714C23.6746 44.4297 23.7561 44.5144 23.8157 44.6257C23.8759 44.737 23.9059 44.8719 23.9059 45.0305ZM23.5941 45.0305C23.5941 44.9278 23.5788 44.8411 23.548 44.7706C23.5177 44.7 23.4748 44.6465 23.4194 44.6101C23.364 44.5736 23.2992 44.5554 23.2248 44.5554C23.1505 44.5554 23.0856 44.5736 23.0302 44.6101C22.9748 44.6465 22.9317 44.7 22.901 44.7706C22.8707 44.8411 22.8555 44.9278 22.8555 45.0305C22.8555 45.1333 22.8707 45.2199 22.901 45.2905C22.9317 45.361 22.9748 45.4145 23.0302 45.451C23.0856 45.4875 23.1505 45.5057 23.2248 45.5057C23.2992 45.5057 23.364 45.4875 23.4194 45.451C23.4748 45.4145 23.5177 45.361 23.548 45.2905C23.5788 45.2199 23.5941 45.1333 23.5941 45.0305ZM24.1337 44.3033H24.513L24.9136 45.2805H24.9306L25.3312 44.3033H25.7104V45.7578H25.4122V44.8111H25.4001L25.0237 45.7507H24.8205L24.4441 44.8075H24.432V45.7578H24.1337V44.3033ZM27.3005 45.0305C27.3005 45.1892 27.2704 45.3241 27.2103 45.4354C27.1506 45.5466 27.0692 45.6316 26.966 45.6903C26.8632 45.7486 26.7477 45.7777 26.6194 45.7777C26.4901 45.7777 26.3741 45.7483 26.2714 45.6896C26.1686 45.6309 26.0874 45.5459 26.0277 45.4347C25.9681 45.3234 25.9383 45.1887 25.9383 45.0305C25.9383 44.8719 25.9681 44.737 26.0277 44.6257C26.0874 44.5144 26.1686 44.4297 26.2714 44.3714C26.3741 44.3127 26.4901 44.2834 26.6194 44.2834C26.7477 44.2834 26.8632 44.3127 26.966 44.3714C27.0692 44.4297 27.1506 44.5144 27.2103 44.6257C27.2704 44.737 27.3005 44.8719 27.3005 45.0305ZM26.9887 45.0305C26.9887 44.9278 26.9733 44.8411 26.9425 44.7706C26.9122 44.7 26.8694 44.6465 26.814 44.6101C26.7586 44.5736 26.6937 44.5554 26.6194 44.5554C26.545 44.5554 26.4802 44.5736 26.4248 44.6101C26.3694 44.6465 26.3263 44.7 26.2955 44.7706C26.2652 44.8411 26.25 44.9278 26.25 45.0305C26.25 45.1333 26.2652 45.2199 26.2955 45.2905C26.3263 45.361 26.3694 45.4145 26.4248 45.451C26.4802 45.4875 26.545 45.5057 26.6194 45.5057C26.6937 45.5057 26.7586 45.4875 26.814 45.451C26.8694 45.4145 26.9122 45.361 26.9425 45.2905C26.9733 45.2199 26.9887 45.1333 26.9887 45.0305ZM28.7449 44.3033V45.7578H28.4793L27.8465 44.8423H27.8358V45.7578H27.5283V44.3033H27.7982L28.426 45.218H28.4388V44.3033H28.7449Z" fill="black"/>
<path d="M19.5431 29.7578H29.8049L29.2918 33.8625C29.5604 35.4741 28.3177 36.9411 26.6839 36.9411H22.5897C21.1475 36.9411 20.1751 35.4664 20.7433 34.1408C20.9598 33.6354 20.9598 33.0634 20.7433 32.5581L19.5431 29.7578Z" fill="#EFC6C6"/>
<path d="M11.6689 10.2637H37.3233L37.8364 15.3946H11.1558L11.6689 10.2637Z" fill="#EFC6C6"/>
<ellipse cx="24.5027" cy="18.9843" rx="14.3665" ry="13.8534" fill="#EFC6C6"/>
<path d="M35.5117 21.8623H26.7109L26.5752 21.5781L24.9941 18.2705H23.0498L21.4697 21.5781L21.334 21.8623H12.9619V14.4854L15.2588 12.1885L15.3926 12.1553L17.4453 11.6416L17.5469 11.6162L17.6504 11.6338L20.627 12.1396H27.8457L30.9551 11.6338L31.0479 11.6182L31.1406 11.6387L33.5127 12.1514L33.666 12.1846L33.7734 12.2998L35.3779 14.0254L35.5117 14.1689V21.8623Z" fill="url(#paint4_linear_211_69)" stroke="black"/>
<path d="M10.1097 17.4453L13.0251 16.4206L13.3549 17.3924L10.1098 18.4716L10.1097 17.4453Z" fill="black"/>
<path d="M10.1144 18.4132L12.3914 17.4414L12.7211 18.4132L10.1104 19.496L10.1144 18.4132Z" fill="black"/>
<path d="M38.9379 16.547L35.6453 15.3898L35.2729 16.4872L38.9377 17.706L38.9379 16.547Z" fill="black"/>
<path d="M38.8897 17.6298L36.0184 16.4306L35.646 17.5281L38.9369 18.8672L38.8897 17.6298Z" fill="black"/>
<line x1="23.82" y1="19.8437" x2="23.0038" y2="22.2925" stroke="black"/>
<line x1="22.6874" y1="22.4768" x2="25.1362" y2="23.2931" stroke="black"/>
<ellipse cx="25.0165" cy="28.2209" rx="5.64398" ry="1.53927" fill="#EFA7A7"/>
<path d="M13.8243 2.56544L24.4966 0L35.7024 2.56544L37.8369 10.2618H11.1562L13.8243 2.56544Z" fill="#5C7780"/>
<path d="M13.9355 7.1838L24.4966 5.64453L35.6135 7.1838L37.8369 10.2623H11.1562L13.9355 7.1838Z" fill="#283134"/>
<rect x="9.52588" y="71.4766" width="6.15707" height="4.10471" transform="rotate(57.5548 9.52588 71.4766)" fill="white"/>
<path d="M5.19623 74.23L6.92822 73.1289L10.2314 78.3249L8.49945 79.426L5.58601 82.4941L3.73647 82.4539C2.91434 81.7853 2.29992 80.8961 1.96528 79.8907L1.80959 79.4229L2.28278 77.2981L5.19623 74.23Z" fill="black"/>
<path d="M3.71181 78.5589C3.74881 78.5872 3.78581 78.6156 3.85805 78.6765C3.9303 78.7374 4.03666 78.83 4.16258 78.9582C4.28851 79.0863 4.43077 79.2472 4.54425 79.3934C4.65773 79.5395 4.73813 79.6659 4.86795 79.9332C4.99777 80.2004 5.17457 80.6047 5.36267 81.0305" stroke="#F5E4E4" stroke-width="0.5" stroke-linecap="round"/>
<path d="M4.91718 77.8057C4.96905 77.8372 5.02092 77.8687 5.1246 77.9426C5.22829 78.0165 5.38223 78.1317 5.52278 78.2539C5.66334 78.376 5.78584 78.5015 5.92362 78.676C6.06139 78.8504 6.21073 79.0701 6.34801 79.3136C6.48528 79.5572 6.60596 79.818 6.73622 80.096" stroke="#F5E4E4" stroke-width="0.5" stroke-linecap="round"/>
<path d="M5.30661 76.3244C5.35052 76.3533 5.39443 76.3822 5.4871 76.4467C5.57977 76.5112 5.71987 76.6103 5.90427 76.7673C6.08867 76.9242 6.31311 77.1359 6.56696 77.42C6.82082 77.7041 7.09727 78.0542 7.26541 78.2798C7.43354 78.5054 7.48498 78.596 7.51739 78.6557C7.5498 78.7153 7.56162 78.7412 7.5738 78.768" stroke="#F5E4E4" stroke-width="0.5" stroke-linecap="round"/>
<path d="M8.14271 76.4879C8.13145 76.4868 8.1202 76.4858 8.07967 76.4793C8.03915 76.4729 7.96971 76.4612 7.71589 76.3758C7.46208 76.2903 7.026 76.1315 6.7664 76.031C6.5068 75.9306 6.43688 75.8934 6.37353 75.8541C6.31018 75.8148 6.2555 75.7746 6.20427 75.7315C6.15304 75.6884 6.10691 75.6437 6.07351 75.6073C6.0179 75.5466 5.99519 75.5057 5.98368 75.4804C5.95481 75.4171 5.97433 75.3636 5.99967 75.3183C6.00572 75.3075 6.01198 75.3013 6.04463 75.2742C6.07729 75.2471 6.13704 75.1999 6.18523 75.1653C6.23343 75.1308 6.26826 75.1103 6.30154 75.0941C6.36414 75.0637 6.42579 75.0517 6.48003 75.0484C6.55674 75.0437 6.59597 75.0759 6.65396 75.118C6.67675 75.1346 6.70266 75.1682 6.7461 75.2356C6.78954 75.3031 6.84727 75.4064 6.90075 75.5486C6.95424 75.6908 7.00174 75.8687 7.03812 76.0567C7.07451 76.2446 7.09834 76.4371 7.14112 76.6417C7.1839 76.8464 7.24491 77.0573 7.28738 77.1885C7.32984 77.3196 7.35192 77.3645 7.36882 77.3963C7.39535 77.4463 7.43447 77.4907 7.48823 77.5414C7.51442 77.5661 7.54335 77.5832 7.57429 77.5973C7.60523 77.6115 7.63856 77.6209 7.6878 77.6283C7.73704 77.6358 7.80118 77.641 7.86428 77.641C7.92739 77.6409 7.98752 77.6353 8.03597 77.629C8.08441 77.6227 8.11935 77.6159 8.16642 77.602C8.21349 77.5882 8.27163 77.5675 8.31322 77.5499C8.37964 77.5219 8.41976 77.4895 8.44936 77.4634C8.48986 77.4277 8.5136 77.3556 8.5277 77.2825C8.53193 77.2606 8.52728 77.233 8.52077 77.2021C8.51426 77.1711 8.50271 77.1371 8.47997 77.0883C8.45722 77.0394 8.42364 76.9766 8.39147 76.9249C8.35931 76.8732 8.32958 76.8346 8.31044 76.8108C8.2913 76.787 8.28365 76.7792 8.27577 76.7712" stroke="#F5E4E4" stroke-width="0.5" stroke-linecap="round"/>
<rect x="33.7915" y="78.1738" width="6.15707" height="4.10471" transform="rotate(-20.0085 33.7915 78.1738)" fill="white"/>
<path d="M35.5479 82.9949L34.8457 81.0664L40.6311 78.9597L41.3334 80.8882L43.7021 84.394L43.2645 86.1915C42.4346 86.8503 41.4339 87.2589 40.38 87.3691L39.8897 87.4204L37.9166 86.5007L35.5479 82.9949Z" fill="black"/>
<path d="M39.4559 85.3772C39.4915 85.3471 39.5272 85.3171 39.6022 85.2597C39.6773 85.2023 39.7906 85.1183 39.9429 85.023C40.0951 84.9276 40.2829 84.8233 40.45 84.744C40.6172 84.6646 40.758 84.6133 41.0469 84.5441C41.3359 84.4749 41.7687 84.3893 42.225 84.2973" stroke="#F5E4E4" stroke-width="0.5" stroke-linecap="round"/>
<path d="M38.9787 84.0377C39.0207 83.9938 39.0626 83.95 39.1571 83.8646C39.2516 83.7793 39.3973 83.6538 39.5468 83.5428C39.6964 83.4319 39.8453 83.3393 40.0453 83.2423C40.2454 83.1453 40.492 83.0468 40.7594 82.9652C41.0268 82.8836 41.3075 82.8219 41.6071 82.7546" stroke="#F5E4E4" stroke-width="0.5" stroke-linecap="round"/>
<path d="M37.6186 83.3396C37.6563 83.3029 37.694 83.2663 37.7769 83.1897C37.8599 83.1131 37.9868 82.9976 38.1798 82.8513C38.3728 82.7051 38.6279 82.5315 38.96 82.3448C39.2921 82.1581 39.6935 81.9635 39.95 81.8479C40.2065 81.7323 40.3061 81.7016 40.3713 81.6828C40.4365 81.6639 40.4644 81.658 40.4931 81.6518" stroke="#F5E4E4" stroke-width="0.5" stroke-linecap="round"/>
<path d="M38.3879 80.6038C38.3844 80.6146 38.3809 80.6253 38.3659 80.6635C38.3509 80.7017 38.3245 80.767 38.1864 80.9965C38.0483 81.2259 37.7993 81.6176 37.6453 81.8494C37.4913 82.0813 37.4399 82.1416 37.3879 82.195C37.3359 82.2484 37.2848 82.2931 37.2317 82.3339C37.1786 82.3746 37.1251 82.4101 37.0823 82.4348C37.0111 82.4761 36.9662 82.4894 36.9391 82.4952C36.871 82.5098 36.823 82.4792 36.7842 82.4447C36.7749 82.4365 36.7702 82.429 36.7508 82.3913C36.7314 82.3536 36.6981 82.285 36.6747 82.2305C36.6514 82.176 36.6389 82.1376 36.6302 82.1016C36.614 82.0339 36.6156 81.9712 36.624 81.9175C36.636 81.8415 36.6758 81.8102 36.7295 81.7626C36.7506 81.7439 36.789 81.7259 36.8642 81.698C36.9394 81.6701 37.0528 81.636 37.2031 81.6144C37.3535 81.5927 37.5375 81.5847 37.7289 81.5896C37.9202 81.5946 38.1133 81.6127 38.3224 81.615C38.5314 81.6173 38.7506 81.6032 38.8878 81.59C39.025 81.5767 39.0736 81.5648 39.1083 81.5552C39.1628 81.54 39.2146 81.5114 39.2757 81.4698C39.3055 81.4496 39.3283 81.425 39.3488 81.3978C39.3693 81.3707 39.3857 81.3401 39.4035 81.2937C39.4214 81.2472 39.4404 81.1857 39.4539 81.124C39.4674 81.0624 39.4749 81.0025 39.4792 80.9538C39.4835 80.9051 39.4843 80.8696 39.4809 80.8206C39.4775 80.7717 39.4699 80.7104 39.4617 80.666C39.4486 80.5951 39.4256 80.549 39.4065 80.5145C39.3803 80.4672 39.315 80.4285 39.2467 80.399C39.2262 80.3901 39.1983 80.3888 39.1667 80.3884C39.135 80.3881 39.0994 80.3921 39.0468 80.4038C38.9941 80.4155 38.9255 80.4347 38.8682 80.455C38.8108 80.4753 38.7667 80.496 38.7393 80.5096C38.712 80.5231 38.7027 80.5289 38.6932 80.5349" stroke="#F5E4E4" stroke-width="0.5" stroke-linecap="round"/>
<rect width="11.9017" height="4.95756" rx="2.47878" transform="matrix(-0.397217 0.917725 0.917725 0.397217 10.7534 37.9668)" fill="url(#paint5_linear_211_69)"/>
<path d="M11.2288 47.6931C10.8533 46.7768 9.92121 46.2154 8.93573 46.3119C7.48319 46.4542 6.55168 47.9244 7.04341 49.2986L9.73098 56.8092C10.1818 58.0689 11.5684 58.7247 12.8282 58.2739C14.1285 57.8086 14.7774 56.3522 14.2537 55.0743L11.2288 47.6931Z" fill="url(#paint6_linear_211_69)"/>
<rect x="9.43359" y="40.3164" width="6.48612" height="5.13089" transform="rotate(-42.6912 9.43359 40.3164)" fill="white"/>
<rect x="39.5718" y="39.332" width="12.0036" height="5" rx="2.5" transform="rotate(84.2297 39.5718 39.332)" fill="url(#paint7_linear_211_69)"/>
<path d="M38.7566 52.5061C37.7572 52.7329 36.7273 52.2771 36.2231 51.385C35.4799 50.0699 36.1713 48.4066 37.6277 48.006L45.588 45.8164C46.9231 45.4492 48.3032 46.2338 48.6705 47.569C49.0496 48.9471 48.2017 50.3628 46.8078 50.6791L38.7566 52.5061Z" fill="url(#paint8_linear_211_69)"/>
<path d="M35.5288 35.959L39.8895 41.0475L35.2718 45.1525L31.6799 39.2574L35.5288 35.959Z" fill="white"/>
<defs>
<linearGradient id="paint0_linear_211_69" x1="32.7153" y1="68.7129" x2="32.7153" y2="72.8176" gradientUnits="userSpaceOnUse">
<stop stop-color="#EFC6C6"/>
<stop offset="1" stop-color="#F5E7E7"/>
</linearGradient>
<linearGradient id="paint1_linear_211_69" x1="19.1117" y1="66.6875" x2="19.1117" y2="70.7922" gradientUnits="userSpaceOnUse">
<stop stop-color="#EFC6C6"/>
<stop offset="1" stop-color="#F5E7E7"/>
</linearGradient>
<linearGradient id="paint2_linear_211_69" x1="7.93982" y1="74.7386" x2="17.2412" y2="70.4041" gradientUnits="userSpaceOnUse">
<stop stop-color="#EFC6C6"/>
<stop offset="1" stop-color="#F5E4E4"/>
</linearGradient>
<linearGradient id="paint3_linear_211_69" x1="36.4384" y1="79.6772" x2="32.4037" y2="68.5943" gradientUnits="userSpaceOnUse">
<stop stop-color="#EFC6C6"/>
<stop offset="1" stop-color="#F5E4E4"/>
</linearGradient>
<linearGradient id="paint4_linear_211_69" x1="12.1837" y1="16.9311" x2="35.7858" y2="16.9311" gradientUnits="userSpaceOnUse">
<stop stop-color="#FFB300"/>
<stop offset="1" stop-color="#F7F6EB"/>
</linearGradient>
<linearGradient id="paint5_linear_211_69" x1="4.29815" y1="2.10232" x2="11.839" y2="3.00358" gradientUnits="userSpaceOnUse">
<stop stop-color="#EFC6C6"/>
<stop offset="1" stop-color="#987F7F"/>
</linearGradient>
<linearGradient id="paint6_linear_211_69" x1="11.9888" y1="56.8254" x2="12.7332" y2="48.397" gradientUnits="userSpaceOnUse">
<stop stop-color="#EFC6C6"/>
<stop offset="1" stop-color="#B29494"/>
</linearGradient>
<linearGradient id="paint7_linear_211_69" x1="43.9067" y1="41.4523" x2="51.5122" y2="42.3613" gradientUnits="userSpaceOnUse">
<stop stop-color="#EFC6C6"/>
<stop offset="1" stop-color="#987F7F"/>
</linearGradient>
<linearGradient id="paint8_linear_211_69" x1="46.9443" y1="47.7193" x2="40.2475" y2="53.3619" gradientUnits="userSpaceOnUse">
<stop stop-color="#EFC6C6"/>
<stop offset="1" stop-color="#B29494"/>
</linearGradient>
</defs>
</svg>
