<svg width="36" height="94" viewBox="0 0 36 94" fill="none" xmlns="http://www.w3.org/2000/svg">
<path d="M27.5196 37.002C27.5196 35.3451 26.1764 34.002 24.5196 34.002H7.51957C5.86272 34.002 4.51957 35.3451 4.51957 37.002C4.51957 38.6588 5.86272 40.002 7.51957 40.002H24.5196C26.1764 40.002 27.5196 38.6588 27.5196 37.002Z" fill="white"/>
<path d="M24.7701 59.9961H18.2701L19.0201 67.9961H23.5201L24.7701 59.9961Z" fill="#272727"/>
<path d="M18.5201 61.9961L19.0201 59.9961H8.27006L7.52006 67.9961H16.0201L14.7701 61.9961H18.5201Z" fill="#272727"/>
<path d="M27.5196 37H5.51957L7.01957 60H8.51323H24.5132H25.5196L27.5196 37Z" fill="white"/>
<line x1="16.2906" y1="41.3203" x2="11.7988" y2="49.181" stroke="#0720FF"/>
<line x1="20.7823" y1="41.3203" x2="16.2905" y2="49.181" stroke="#FF0000"/>
<line x1="18.5362" y1="41.3203" x2="14.0444" y2="49.181" stroke="#FBFF00"/>
<path d="M12.2798 44.2821C12.2741 44.2248 12.2497 44.1803 12.2066 44.1486C12.1635 44.1169 12.1051 44.101 12.0312 44.101C11.981 44.101 11.9386 44.1081 11.9041 44.1223C11.8695 44.1361 11.843 44.1552 11.8245 44.1799C11.8065 44.2045 11.7975 44.2324 11.7975 44.2637C11.7966 44.2897 11.802 44.3124 11.8139 44.3319C11.8262 44.3513 11.843 44.3681 11.8643 44.3823C11.8856 44.396 11.9102 44.4081 11.9382 44.4185C11.9661 44.4284 11.9959 44.437 12.0277 44.4441L12.1583 44.4753C12.2218 44.4895 12.28 44.5085 12.333 44.5321C12.3861 44.5558 12.432 44.5849 12.4708 44.6195C12.5097 44.6541 12.5397 44.6948 12.561 44.7417C12.5828 44.7885 12.5939 44.8423 12.5944 44.9029C12.5939 44.9919 12.5712 45.0691 12.5262 45.1344C12.4817 45.1993 12.4173 45.2497 12.333 45.2857C12.2492 45.3212 12.1482 45.339 12.0298 45.339C11.9124 45.339 11.8101 45.321 11.723 45.285C11.6363 45.249 11.5686 45.1957 11.5198 45.1252C11.4715 45.0542 11.4462 44.9663 11.4438 44.8617H11.7414C11.7447 44.9105 11.7587 44.9512 11.7833 44.9838C11.8084 45.016 11.8418 45.0404 11.8835 45.057C11.9256 45.0731 11.9732 45.0811 12.0262 45.0811C12.0783 45.0811 12.1235 45.0736 12.1619 45.0584C12.2007 45.0433 12.2308 45.0222 12.2521 44.9952C12.2734 44.9682 12.284 44.9372 12.284 44.9022C12.284 44.8695 12.2743 44.842 12.2549 44.8198C12.236 44.7975 12.208 44.7786 12.1711 44.763C12.1347 44.7473 12.0899 44.7331 12.0369 44.7203L11.8785 44.6806C11.7559 44.6507 11.659 44.6041 11.588 44.5407C11.517 44.4772 11.4817 44.3917 11.4822 44.2843C11.4817 44.1962 11.5052 44.1193 11.5525 44.0534C11.6003 43.9876 11.6659 43.9363 11.7492 43.8993C11.8326 43.8624 11.9273 43.8439 12.0333 43.8439C12.1413 43.8439 12.2355 43.8624 12.316 43.8993C12.397 43.9363 12.4599 43.9876 12.5049 44.0534C12.5499 44.1193 12.5731 44.1955 12.5745 44.2821H12.2798ZM13.0188 45.3184H12.6892L13.1914 43.8638H13.5877L14.0891 45.3184H13.7595L13.3952 44.1962H13.3838L13.0188 45.3184ZM12.9982 44.7466H13.7766V44.9867H12.9982V44.7466ZM14.2642 45.3184V43.8638H14.5717V45.0648H15.1953V45.3184H14.2642ZM16.6789 44.5911C16.6789 44.7497 16.6489 44.8846 16.5887 44.9959C16.5291 45.1072 16.4476 45.1922 16.3444 45.2509C16.2417 45.3091 16.1261 45.3382 15.9978 45.3382C15.8686 45.3382 15.7526 45.3089 15.6498 45.2502C15.5471 45.1915 15.4659 45.1065 15.4062 44.9952C15.3465 44.8839 15.3167 44.7492 15.3167 44.5911C15.3167 44.4325 15.3465 44.2975 15.4062 44.1863C15.4659 44.075 15.5471 43.9902 15.6498 43.932C15.7526 43.8733 15.8686 43.8439 15.9978 43.8439C16.1261 43.8439 16.2417 43.8733 16.3444 43.932C16.4476 43.9902 16.5291 44.075 16.5887 44.1863C16.6489 44.2975 16.6789 44.4325 16.6789 44.5911ZM16.3671 44.5911C16.3671 44.4883 16.3518 44.4017 16.321 44.3311C16.2907 44.2606 16.2478 44.2071 16.1924 44.1706C16.137 44.1342 16.0722 44.1159 15.9978 44.1159C15.9235 44.1159 15.8586 44.1342 15.8032 44.1706C15.7478 44.2071 15.7047 44.2606 15.674 44.3311C15.6437 44.4017 15.6285 44.4883 15.6285 44.5911C15.6285 44.6938 15.6437 44.7805 15.674 44.851C15.7047 44.9216 15.7478 44.9751 15.8032 45.0115C15.8586 45.048 15.9235 45.0662 15.9978 45.0662C16.0722 45.0662 16.137 45.048 16.1924 45.0115C16.2478 44.9751 16.2907 44.9216 16.321 44.851C16.3518 44.7805 16.3671 44.6938 16.3671 44.5911ZM16.9067 43.8638H17.286L17.6866 44.8411H17.7036L18.1042 43.8638H18.4834V45.3184H18.1851V44.3716H18.1731L17.7967 45.3113H17.5935L17.2171 44.3681H17.205V45.3184H16.9067V43.8638ZM20.0735 44.5911C20.0735 44.7497 20.0434 44.8846 19.9833 44.9959C19.9236 45.1072 19.8422 45.1922 19.7389 45.2509C19.6362 45.3091 19.5207 45.3382 19.3924 45.3382C19.2631 45.3382 19.1471 45.3089 19.0443 45.2502C18.9416 45.1915 18.8604 45.1065 18.8007 44.9952C18.7411 44.8839 18.7112 44.7492 18.7112 44.5911C18.7112 44.4325 18.7411 44.2975 18.8007 44.1863C18.8604 44.075 18.9416 43.9902 19.0443 43.932C19.1471 43.8733 19.2631 43.8439 19.3924 43.8439C19.5207 43.8439 19.6362 43.8733 19.7389 43.932C19.8422 43.9902 19.9236 44.075 19.9833 44.1863C20.0434 44.2975 20.0735 44.4325 20.0735 44.5911ZM19.7617 44.5911C19.7617 44.4883 19.7463 44.4017 19.7155 44.3311C19.6852 44.2606 19.6424 44.2071 19.587 44.1706C19.5316 44.1342 19.4667 44.1159 19.3924 44.1159C19.318 44.1159 19.2531 44.1342 19.1978 44.1706C19.1424 44.2071 19.0993 44.2606 19.0685 44.3311C19.0382 44.4017 19.023 44.4883 19.023 44.5911C19.023 44.6938 19.0382 44.7805 19.0685 44.851C19.0993 44.9216 19.1424 44.9751 19.1978 45.0115C19.2531 45.048 19.318 45.0662 19.3924 45.0662C19.4667 45.0662 19.5316 45.048 19.587 45.0115C19.6424 44.9751 19.6852 44.9216 19.7155 44.851C19.7463 44.7805 19.7617 44.6938 19.7617 44.5911ZM21.5179 43.8638V45.3184H21.2523L20.6194 44.4029H20.6088V45.3184H20.3013V43.8638H20.5712L21.199 44.7786H21.2118V43.8638H21.5179Z" fill="black"/>
<path d="M21.3475 29.002H11.3475L11.8475 33.002C11.5858 34.5724 12.7968 36.002 14.3889 36.002H18.3787C19.7841 36.002 20.7317 34.5649 20.178 33.2731C19.967 32.7807 19.967 32.2232 20.178 31.7308L21.3475 29.002Z" fill="#EFC6C6"/>
<path d="M29.0201 10.002H4.02006L3.52006 15.002H29.5201L29.0201 10.002Z" fill="#EFC6C6"/>
<ellipse cx="14" cy="13.5" rx="14" ry="13.5" transform="matrix(-1 0 0 1 30.5142 5.00195)" fill="#EFC6C6"/>
<path d="M5.77446 21.3203H14.3711L14.5079 21.0361L16.044 17.8203H17.9229L19.46 21.0361L19.5957 21.3203H27.7745V14.1133L25.5303 11.8691L25.3955 11.835L23.294 11.3096L23.1905 11.3271L20.2852 11.8203H13.2579L10.2295 11.3271L10.1368 11.3115L10.044 11.332L7.73246 11.832L7.57914 11.8652L7.47172 11.9795L5.90825 13.6611L5.77446 13.8057V21.3203Z" fill="url(#paint0_linear_166_1387)" stroke="black"/>
<path d="M30.5407 16.998L27.6996 15.9994L27.3783 16.9464L30.5406 17.998L30.5407 16.998Z" fill="black"/>
<path d="M30.5364 17.9408L28.3174 16.9938L27.9961 17.9408L30.5402 18.996L30.5364 17.9408Z" fill="black"/>
<path d="M2.44833 16.1273L5.65695 14.9996L6.01986 16.069L2.4485 17.2567L2.44833 16.1273Z" fill="black"/>
<path d="M2.49443 17.183L5.29247 16.0144L5.65537 17.0839L2.44842 18.3888L2.49443 17.183Z" fill="black"/>
<line x1="16.9934" y1="18.8964" x2="15.9954" y2="21.8905" stroke="black"/>
<line x1="15.6782" y1="22.2581" x2="18.6723" y2="23.2561" stroke="black"/>
<ellipse cx="5.5" cy="1.5" rx="5.5" ry="1.5" transform="matrix(-1 0 0 1 21.5137 26)" fill="#EFA7A7"/>
<path d="M26.9201 2.5L16.5201 0L5.60006 2.5L3.52006 10H29.5201L26.9201 2.5Z" fill="#5C7780"/>
<path d="M26.8117 7L16.5201 5.5L5.68673 7L3.52006 10H29.5201L26.8117 7Z" fill="#283134"/>
<path d="M15.5201 68H8.02006L7.52006 73H16.0201L15.5201 68Z" fill="url(#paint1_linear_166_1387)"/>
<path d="M23.5201 68H19.0201L19.5201 72H23.0201L23.5201 68Z" fill="url(#paint2_linear_166_1387)"/>
<path d="M23.0201 72H19.5201L20.0201 78H22.5201L23.0201 72Z" fill="url(#paint3_linear_166_1387)"/>
<path d="M16.0201 72.998H7.52006L8.52006 82.998H14.5201L16.0201 72.998Z" fill="url(#paint4_linear_166_1387)"/>
<rect width="2.7273" height="1.8182" transform="matrix(-1 0 0 1 22.5201 77.002)" fill="white"/>
<path d="M22.5201 79.2704V78.3613H19.7928V79.2704L19.3382 81.0886L19.7928 81.7705C20.2381 81.9189 20.7165 81.9373 21.1718 81.8234L21.3837 81.7705L22.0655 81.0886L22.5201 79.2704Z" fill="black"/>
<path d="M21.2535 80.8562C21.2341 80.8491 21.2147 80.8421 21.1747 80.8295C21.1348 80.817 21.0749 80.7992 20.9971 80.7826C20.9192 80.766 20.8253 80.7511 20.7437 80.7434C20.6621 80.7357 20.5957 80.7357 20.465 80.7507C20.3342 80.7656 20.1411 80.7956 19.9372 80.8265" stroke="#F5E4E4" stroke-width="0.5" stroke-linecap="round"/>
<path d="M21.2505 80.2286C21.2264 80.2167 21.2023 80.2048 21.1501 80.1836C21.0978 80.1624 21.0181 80.1323 20.9391 80.1088C20.86 80.0853 20.784 80.0693 20.686 80.0592C20.5881 80.0492 20.4705 80.0456 20.3468 80.0521C20.2232 80.0587 20.097 80.0756 19.9621 80.0929" stroke="#F5E4E4" stroke-width="0.5" stroke-linecap="round"/>
<path d="M21.7105 79.7313C21.6892 79.7217 21.668 79.7122 21.6219 79.6929C21.5757 79.6736 21.5054 79.6448 21.4029 79.6131C21.3004 79.5815 21.1679 79.5479 21.0014 79.5205C20.8349 79.4932 20.6383 79.473 20.514 79.4638C20.3897 79.4545 20.3436 79.4568 20.3136 79.4589C20.2836 79.4609 20.2711 79.4627 20.2583 79.4645" stroke="#F5E4E4" stroke-width="0.5" stroke-linecap="round"/>
<path d="M20.9752 78.7051C20.9783 78.709 20.9813 78.713 20.9934 78.7266C21.0054 78.7402 21.0263 78.7634 21.1185 78.838C21.2108 78.9125 21.3738 79.0378 21.4731 79.111C21.5723 79.1841 21.6028 79.2014 21.6326 79.2158C21.6623 79.2301 21.6903 79.241 21.7186 79.2499C21.7469 79.2588 21.7746 79.2655 21.7961 79.2693C21.832 79.2757 21.8527 79.2744 21.8649 79.2727C21.8954 79.2685 21.9108 79.2485 21.9217 79.2282C21.9243 79.2234 21.9251 79.2196 21.9275 79.2009C21.9299 79.1823 21.9333 79.1487 21.9348 79.1225C21.9362 79.0963 21.9356 79.0784 21.9338 79.0621C21.9303 79.0315 21.9201 79.0056 21.9084 78.9845C21.892 78.9547 21.8706 78.9477 21.8411 78.936C21.8294 78.9315 21.8107 78.9298 21.7752 78.9295C21.7397 78.9293 21.6873 78.9323 21.6215 78.9461C21.5556 78.9599 21.4778 78.9844 21.3989 79.0155C21.32 79.0465 21.2424 79.0834 21.1557 79.116C21.0691 79.1487 20.9757 79.176 20.9166 79.1913C20.8575 79.2066 20.8354 79.209 20.8195 79.2102C20.7946 79.2122 20.7686 79.2081 20.7369 79.2001C20.7215 79.1962 20.7082 79.1894 20.6956 79.1812C20.6829 79.173 20.6715 79.1628 20.657 79.1461C20.6425 79.1295 20.6253 79.1068 20.6103 79.0832C20.5954 79.0596 20.5832 79.0358 20.574 79.0161C20.5648 78.9965 20.5591 78.9818 20.5531 78.961C20.5471 78.9401 20.541 78.9134 20.5377 78.8937C20.5324 78.8622 20.5349 78.8395 20.5377 78.8223C20.5414 78.7986 20.5627 78.7726 20.5867 78.75C20.5939 78.7432 20.6053 78.7384 20.6184 78.7335C20.6315 78.7285 20.6469 78.7248 20.6706 78.7217C20.6943 78.7185 20.7258 78.7162 20.7527 78.7159C20.7797 78.7157 20.8012 78.7176 20.8146 78.7191C20.8281 78.7206 20.8328 78.7216 20.8377 78.7227" stroke="#F5E4E4" stroke-width="0.5" stroke-linecap="round"/>
<rect width="6" height="4" transform="matrix(-1 0 0 1 14.5205 83.002)" fill="white"/>
<path d="M14.5205 87.998V85.998H8.52055V87.998L7.52055 91.998L8.52055 93.498C9.5002 93.8246 10.5527 93.865 11.5545 93.6146L12.0205 93.498L13.5205 91.998L14.5205 87.998Z" fill="black"/>
<path d="M11.7349 91.4841C11.6922 91.4685 11.6496 91.4529 11.5617 91.4253C11.4738 91.3978 11.3421 91.3587 11.1709 91.3221C10.9996 91.2856 10.7929 91.2527 10.6134 91.2358C10.4339 91.2189 10.2879 91.2189 10.0003 91.2518C9.7126 91.2848 9.28774 91.3507 8.83923 91.4186" stroke="#F5E4E4" stroke-width="0.5" stroke-linecap="round"/>
<path d="M11.7256 90.1007C11.6726 90.0745 11.6196 90.0483 11.5046 90.0017C11.3896 89.955 11.2143 89.8887 11.0404 89.837C10.8665 89.7852 10.6993 89.7501 10.4838 89.728C10.2683 89.7059 10.0095 89.6979 9.73749 89.7124C9.46543 89.7268 9.18786 89.7639 8.89112 89.8021" stroke="#F5E4E4" stroke-width="0.5" stroke-linecap="round"/>
<path d="M12.7393 89.0057C12.6925 88.9847 12.6458 88.9637 12.5443 88.9212C12.4428 88.8787 12.2881 88.8153 12.0626 88.7457C11.8371 88.6761 11.5457 88.6023 11.1793 88.542C10.8129 88.4818 10.3805 88.4375 10.1071 88.4171C9.83365 88.3968 9.73226 88.4019 9.66627 88.4064C9.60028 88.4109 9.57277 88.4148 9.54442 88.4187" stroke="#F5E4E4" stroke-width="0.5" stroke-linecap="round"/>
<path d="M11.123 86.7598C11.1298 86.7685 11.1366 86.7771 11.163 86.8071C11.1895 86.8371 11.2354 86.8881 11.4384 87.0521C11.6414 87.2162 12 87.4917 12.2183 87.6527C12.4366 87.8137 12.5038 87.8518 12.5692 87.8833C12.6347 87.9149 12.6963 87.9388 12.7585 87.9584C12.8207 87.978 12.8816 87.9926 12.929 88.001C13.008 88.015 13.0535 88.0123 13.0803 88.0086C13.1475 87.9992 13.1813 87.9552 13.2053 87.9106C13.211 87.9 13.2129 87.8916 13.2181 87.8506C13.2233 87.8096 13.2309 87.7358 13.2341 87.6781C13.2373 87.6204 13.236 87.581 13.2319 87.5452C13.2242 87.4778 13.2018 87.4208 13.1761 87.3745C13.1399 87.3089 13.0929 87.2935 13.0279 87.2679C13.0024 87.2578 12.9612 87.254 12.883 87.2536C12.8048 87.2531 12.6897 87.2597 12.5448 87.29C12.3999 87.3204 12.2287 87.3743 12.0552 87.4427C11.8816 87.511 11.7109 87.592 11.5202 87.6638C11.3295 87.7356 11.1241 87.7958 10.9941 87.8294C10.8641 87.863 10.8156 87.8683 10.7806 87.8711C10.7256 87.8754 10.6686 87.8665 10.5988 87.8488C10.5648 87.8401 10.5357 87.8252 10.5078 87.8072C10.48 87.7892 10.4549 87.7667 10.423 87.7301C10.3912 87.6935 10.3533 87.6435 10.3203 87.5915C10.2874 87.5396 10.2606 87.4872 10.2404 87.4441C10.2203 87.401 10.2076 87.3687 10.1944 87.3227C10.1812 87.2768 10.1678 87.2182 10.1605 87.1748C10.1489 87.1055 10.1545 87.0556 10.1605 87.0176C10.1687 86.9656 10.2156 86.9084 10.2683 86.8585C10.2841 86.8436 10.3092 86.833 10.3381 86.8222C10.3669 86.8114 10.4009 86.8031 10.453 86.7963C10.5051 86.7894 10.5743 86.7842 10.6336 86.7836C10.6929 86.7831 10.7402 86.7873 10.7698 86.7906C10.7994 86.7939 10.8098 86.7961 10.8205 86.7984" stroke="#F5E4E4" stroke-width="0.5" stroke-linecap="round"/>
<rect x="29.9131" y="36.998" width="11.5981" height="4.83109" rx="2.41554" transform="rotate(66.5957 29.9131 36.998)" fill="url(#paint5_linear_166_1387)"/>
<path d="M31.2649 45.5287C32.1621 45.1735 33.1861 45.4488 33.784 46.2062C34.6654 47.3224 34.2621 48.9698 32.9648 49.5528L25.8744 52.7391C24.6851 53.2736 23.2878 52.7427 22.7533 51.5534C22.2017 50.3259 22.7862 48.8862 24.0375 48.3907L31.2649 45.5287Z" fill="url(#paint6_linear_166_1387)"/>
<rect width="6.32065" height="5" transform="matrix(-0.735019 -0.678046 -0.678046 0.735019 31.1993 39.2812)" fill="white"/>
<rect width="12.0036" height="5" rx="2.5" transform="matrix(-0.10054 0.994933 0.994933 0.10054 1.61235 38.4121)" fill="url(#paint7_linear_166_1387)"/>
<path d="M5.42975 49.1473C5.48118 47.911 4.62503 46.8212 3.41169 46.5785C1.89571 46.2753 0.468048 47.3998 0.407658 48.9446L0.0975652 56.877C0.0435638 58.2584 1.11962 59.422 2.50101 59.476C3.87995 59.5299 5.0424 58.4576 5.09976 57.0788L5.42975 49.1473Z" fill="url(#paint8_linear_166_1387)"/>
<path d="M5.76908 35.0391L1.51962 39.9978L6.01957 43.998L9.51985 38.2533L5.76908 35.0391Z" fill="white"/>
<defs>
<linearGradient id="paint0_linear_166_1387" x1="5.52006" y1="16.502" x2="28.5201" y2="16.502" gradientUnits="userSpaceOnUse">
<stop stop-color="#FFB300"/>
<stop offset="1" stop-color="#F7F6EB"/>
</linearGradient>
<linearGradient id="paint1_linear_166_1387" x1="11.5201" y1="68" x2="11.5201" y2="73" gradientUnits="userSpaceOnUse">
<stop stop-color="#EFC6C6"/>
<stop offset="1" stop-color="#F5E7E7"/>
</linearGradient>
<linearGradient id="paint2_linear_166_1387" x1="21.5201" y1="68" x2="21.5201" y2="72" gradientUnits="userSpaceOnUse">
<stop stop-color="#EFC6C6"/>
<stop offset="1" stop-color="#F5E7E7"/>
</linearGradient>
<linearGradient id="paint3_linear_166_1387" x1="21.2343" y1="78" x2="21.2343" y2="72" gradientUnits="userSpaceOnUse">
<stop stop-color="#EFC6C6"/>
<stop offset="1" stop-color="#F5E4E4"/>
</linearGradient>
<linearGradient id="paint4_linear_166_1387" x1="12.5201" y1="82.998" x2="12.5201" y2="72.998" gradientUnits="userSpaceOnUse">
<stop stop-color="#EFC6C6"/>
<stop offset="1" stop-color="#F5E4E4"/>
</linearGradient>
<linearGradient id="paint5_linear_166_1387" x1="34.1016" y1="39.0467" x2="41.4501" y2="39.925" gradientUnits="userSpaceOnUse">
<stop stop-color="#EFC6C6"/>
<stop offset="1" stop-color="#987F7F"/>
</linearGradient>
<linearGradient id="paint6_linear_166_1387" x1="24.3377" y1="51.1644" x2="29.7542" y2="44.9477" gradientUnits="userSpaceOnUse">
<stop stop-color="#EFC6C6"/>
<stop offset="1" stop-color="#B29494"/>
</linearGradient>
<linearGradient id="paint7_linear_166_1387" x1="4.33495" y1="2.12032" x2="11.9404" y2="3.0293" gradientUnits="userSpaceOnUse">
<stop stop-color="#EFC6C6"/>
<stop offset="1" stop-color="#987F7F"/>
</linearGradient>
<linearGradient id="paint8_linear_166_1387" x1="2.20171" y1="57.8016" x2="6.07261" y2="50.1963" gradientUnits="userSpaceOnUse">
<stop stop-color="#EFC6C6"/>
<stop offset="1" stop-color="#B29494"/>
</linearGradient>
</defs>
</svg>
