<svg width="218" height="396" viewBox="0 0 218 396" fill="none" xmlns="http://www.w3.org/2000/svg">
<path d="M100 58H110.5L118.904 105.568L127 388H85L90.5663 105.568L100 58Z" fill="#7F4F0B"/>
<path d="M105.5 0L179 150H32L105.5 0Z" fill="#147117"/>
<path d="M106 58L200 208H12L106 58Z" fill="#147117"/>
<path d="M109 107L218 257H0L109 107Z" fill="#147117"/>
<path d="M106 148L196 298H16L106 148Z" fill="#147117"/>
<path d="M87.9998 60.5092C87.9998 72.6954 66.0582 61.0141 71.9998 91C82.8286 91 121 66.5344 121 54.3483C121 42.1621 118.766 51.2692 107.937 51.2692C97.1079 51.2692 87.9998 48.3231 87.9998 60.5092Z" fill="#108E27"/>
<path d="M133.002 110.509C133.002 122.695 116.543 111.014 121 141C129.123 141 147.957 151.195 147.957 139.009C147.957 126.823 156.079 101.269 147.957 101.269C139.834 101.269 133.002 98.3231 133.002 110.509Z" fill="#108E27"/>
<path d="M73.5 115.5C73.5 125.391 64.5864 119.173 62.2407 143.51C57.9656 143.51 54.5 135.492 54.5 125.601C54.5 115.711 57.9656 107.693 62.2407 107.693C66.5158 107.693 73.5 105.609 73.5 115.5Z" fill="#108E27"/>
<path d="M37 194.005C37 189.06 42.1605 192.169 43.5185 180C45.9936 180 48 184.009 48 188.954C48 193.9 45.9936 197.908 43.5185 197.908C41.0435 197.908 37 198.95 37 194.005Z" fill="#108E27"/>
<path d="M111.857 115.099C111.857 127.599 96.7233 119.74 92.7407 150.5C85.4822 150.5 79.5981 140.366 79.5981 127.866C79.5981 115.365 90.3396 114.004 97.5981 114.004C104.857 114.004 111.857 102.598 111.857 115.099Z" fill="#108E27"/>
<path d="M64 265.99C64 275.881 55.0864 269.663 52.7407 294C48.4656 294 45 285.982 45 276.092C45 266.201 48.4656 258.183 52.7407 258.183C57.0158 258.183 64 256.1 64 265.99Z" fill="#108E27"/>
<path d="M145.001 222.5C145.001 232.391 153.421 219.664 157.742 244.001C165.617 244.001 169 227.391 169 217.5C169 207.609 167.375 215.001 159.5 215.001C151.625 215.001 145.001 212.61 145.001 222.5Z" fill="#108E27"/>
<path d="M103.617 181.055C93.8617 182.686 107.803 188.891 84.5119 197.167C85.8106 204.934 102.751 205.532 112.507 203.9C122.262 202.269 114.703 201.886 113.405 194.118C112.106 186.351 113.372 179.424 103.617 181.055Z" fill="#108E27"/>
<path d="M48.9996 221.501C39.2444 223.132 75.3922 223.512 52.1008 231.787C53.3995 239.555 62.7445 233.419 72.4997 231.788C82.2548 230.157 83.2983 219.767 81.9996 212C80.7009 204.233 58.7547 219.87 48.9996 221.501Z" fill="#108E27"/>
<path d="M138.415 190.059C128.66 191.691 149.291 199.724 126 208C127.299 215.767 148.598 190.089 158.353 188.458C168.109 186.827 144.299 169.267 143 161.5C141.701 153.732 148.17 188.428 138.415 190.059Z" fill="#108E27"/>
<path d="M98.8538 243.172C89.0987 244.803 125.246 245.183 101.955 253.458C103.254 261.226 82.2446 275.63 91.9997 273.999C101.755 272.368 133.153 241.438 131.854 233.671C130.555 225.904 108.609 241.541 98.8538 243.172Z" fill="#108E27"/>
<path d="M129.854 270.173C120.099 271.804 123 276.45 132.955 280.459C162.854 292.5 148.245 274.632 158 273.001C167.755 271.37 164.153 268.439 162.854 260.671C161.555 252.904 139.609 268.542 129.854 270.173Z" fill="#108E27"/>
<ellipse cx="91" cy="384" rx="17" ry="12" fill="#309E1A"/>
<ellipse cx="117.5" cy="383.5" rx="14.5" ry="10.5" fill="#309E1A"/>
</svg>
