<svg width="255" height="396" viewBox="0 0 255 396" fill="none" xmlns="http://www.w3.org/2000/svg">
<path d="M120 58H130.5L138.904 105.568L147 388H105L110.566 105.568L120 58Z" fill="#7F4F0B"/>
<path d="M125.5 0L199 150H52L125.5 0Z" fill="#147117"/>
<path d="M126 58L220 208H32L126 58Z" fill="#147117"/>
<path d="M129 107L238 257H20L129 107Z" fill="#147117"/>
<path d="M126 148L216 298H36L126 148Z" fill="#147117"/>
<path d="M108 60.5092C108 72.6954 86.0582 61.0141 91.9998 91C102.829 91 141 66.5344 141 54.3483C141 42.1621 138.766 51.2692 127.937 51.2692C117.108 51.2692 108 48.3231 108 60.5092Z" fill="#108E27"/>
<path d="M153.002 110.509C153.002 122.695 136.543 111.014 141 141C149.123 141 167.957 151.195 167.957 139.009C167.957 126.823 176.079 101.269 167.957 101.269C159.834 101.269 153.002 98.3231 153.002 110.509Z" fill="#108E27"/>
<path d="M93.5 115.5C93.5 125.391 84.5864 119.173 82.2407 143.51C77.9656 143.51 74.5 135.492 74.5 125.601C74.5 115.711 77.9656 107.693 82.2407 107.693C86.5158 107.693 93.5 105.609 93.5 115.5Z" fill="#108E27"/>
<path d="M57 194.005C57 189.06 62.1605 192.169 63.5185 180C65.9936 180 68 184.009 68 188.954C68 193.9 65.9936 197.908 63.5185 197.908C61.0435 197.908 57 198.95 57 194.005Z" fill="#108E27"/>
<path d="M131.857 115.099C131.857 127.599 116.723 119.74 112.741 150.5C105.482 150.5 99.5981 140.366 99.5981 127.866C99.5981 115.365 110.34 114.004 117.598 114.004C124.857 114.004 131.857 102.598 131.857 115.099Z" fill="#108E27"/>
<path d="M84 265.99C84 275.881 75.0864 269.663 72.7407 294C68.4656 294 65 285.982 65 276.092C65 266.201 68.4656 258.183 72.7407 258.183C77.0158 258.183 84 256.1 84 265.99Z" fill="#108E27"/>
<path d="M165.001 222.5C165.001 232.391 173.421 219.664 177.742 244.001C185.617 244.001 189 227.391 189 217.5C189 207.609 187.375 215.001 179.5 215.001C171.625 215.001 165.001 212.61 165.001 222.5Z" fill="#108E27"/>
<path d="M123.617 181.055C113.862 182.686 127.803 188.891 104.512 197.167C105.811 204.934 122.751 205.532 132.507 203.9C142.262 202.269 134.703 201.886 133.405 194.118C132.106 186.351 133.372 179.424 123.617 181.055Z" fill="#108E27"/>
<path d="M68.9996 221.501C59.2444 223.132 95.3922 223.512 72.1008 231.787C73.3995 239.555 82.7445 233.419 92.4997 231.788C102.255 230.157 103.298 219.767 102 212C100.701 204.233 78.7547 219.87 68.9996 221.501Z" fill="#108E27"/>
<path d="M158.415 190.059C148.66 191.691 169.291 199.724 146 208C147.299 215.767 168.598 190.089 178.353 188.458C188.109 186.827 164.299 169.267 163 161.5C161.701 153.732 168.17 188.428 158.415 190.059Z" fill="#108E27"/>
<path d="M118.854 243.172C109.099 244.803 145.246 245.183 121.955 253.458C123.254 261.226 102.245 275.63 112 273.999C121.755 272.368 153.153 241.438 151.854 233.671C150.555 225.904 128.609 241.541 118.854 243.172Z" fill="#108E27"/>
<path d="M149.854 270.173C140.099 271.804 143 276.45 152.955 280.459C182.854 292.5 168.245 274.632 178 273.001C187.755 271.37 184.153 268.439 182.854 260.671C181.555 252.904 159.609 268.542 149.854 270.173Z" fill="#108E27"/>
<ellipse cx="111" cy="384" rx="17" ry="12" fill="#309E1A"/>
<ellipse cx="137.5" cy="383.5" rx="14.5" ry="10.5" fill="#309E1A"/>
</svg>
