<svg width="255" height="354" viewBox="0 0 255 354" fill="none" xmlns="http://www.w3.org/2000/svg">
<rect x="113" y="148" width="57" height="200" fill="#AE6500"/>
<circle cx="56.5" cy="139.5" r="56.5" fill="#119735"/>
<circle cx="92.5" cy="147.5" r="56.5" fill="#119735"/>
<circle cx="92.5" cy="82.5" r="56.5" fill="#119735"/>
<circle cx="146.5" cy="56.5" r="56.5" fill="#119735"/>
<circle cx="155.5" cy="125.5" r="56.5" fill="#119735"/>
<circle cx="180.5" cy="82.5" r="56.5" fill="#119735"/>
<circle cx="198.5" cy="131.5" r="56.5" fill="#119735"/>
<circle cx="189.5" cy="169.5" r="56.5" fill="#119735"/>
<path d="M105.499 30.492C105.499 38.7647 65.2729 30.8347 76.1659 51.191C96.0188 51.191 165.999 34.5823 165.999 26.3096C165.999 18.0369 161.903 24.2193 142.05 24.2193C122.197 24.2193 105.499 22.2193 105.499 30.492Z" fill="#178C1D"/>
<path d="M188.003 64.435C188.003 72.7078 157.829 64.7778 166 85.134C180.892 85.134 215.421 92.0553 215.421 83.7826C215.421 75.5099 230.312 58.1624 215.42 58.1624C200.529 58.1624 188.003 56.1623 188.003 64.435Z" fill="#178C1D"/>
<path d="M78.9164 67.8226C78.9164 74.537 62.5748 70.3158 58.2744 86.8375C50.4367 86.8375 44.083 81.3945 44.083 74.6801C44.083 67.9658 50.4367 62.5227 58.2744 62.5227C66.1121 62.5227 78.9164 61.1083 78.9164 67.8226Z" fill="#178C1D"/>
<path d="M11.9998 121.116C11.9998 117.759 21.4607 119.869 23.9504 111.609C28.488 111.609 32.1665 114.33 32.1665 117.687C32.1665 121.044 28.488 123.766 23.9504 123.766C19.4128 123.766 11.9998 124.473 11.9998 121.116Z" fill="#178C1D"/>
<path d="M149.238 67.5505C149.238 76.0367 121.492 70.7016 114.191 91.5831C100.884 91.5831 90.096 84.7038 90.096 76.2176C90.096 67.7314 109.789 66.8073 123.096 66.8073C136.403 66.8073 149.238 59.0643 149.238 67.5505Z" fill="#178C1D"/>
<path d="M61.4999 169.985C61.4999 176.699 45.1583 172.478 40.8579 189C33.0202 189 26.6665 183.557 26.6665 176.842C26.6665 170.128 33.0202 164.685 40.8579 164.685C48.6956 164.685 61.4999 163.27 61.4999 169.985Z" fill="#178C1D"/>
<path d="M210.002 140.461C210.002 147.175 225.438 138.535 233.36 155.057C247.798 155.057 254 143.78 254 137.066C254 130.352 251.021 135.37 236.583 135.37C222.145 135.37 210.002 133.746 210.002 140.461Z" fill="#178C1D"/>
<path d="M134.131 112.326C116.246 113.433 141.806 117.646 99.1048 123.263C101.486 128.536 132.544 128.942 150.428 127.835C168.313 126.727 154.456 126.467 152.075 121.194C149.694 115.921 152.015 111.218 134.131 112.326Z" fill="#178C1D"/>
<path d="M33.999 139.783C16.1145 140.89 82.3855 141.148 39.6845 146.766C42.0655 152.039 59.1981 147.874 77.0826 146.766C94.967 145.659 96.8801 138.606 94.4991 133.333C92.1181 128.06 51.8834 138.676 33.999 139.783Z" fill="#178C1D"/>
<path d="M197.928 118.439C180.044 119.546 217.867 125 175.167 130.618C177.548 135.891 216.597 118.459 234.481 117.352C252.366 116.244 208.714 104.324 206.333 99.0507C203.952 93.7777 215.812 117.332 197.928 118.439Z" fill="#178C1D"/>
<path d="M125.399 154.495C107.514 155.603 173.785 155.86 131.084 161.478C133.465 166.751 94.9482 176.53 112.833 175.423C130.717 174.315 188.28 153.318 185.899 148.045C183.518 142.773 143.283 153.388 125.399 154.495Z" fill="#178C1D"/>
<path d="M182.232 172.825C164.347 173.933 169.667 177.086 187.917 179.808C242.732 187.982 215.949 175.852 233.833 174.745C251.718 173.638 245.113 171.648 242.732 166.375C240.351 161.102 200.116 171.718 182.232 172.825Z" fill="#178C1D"/>
<ellipse cx="128.5" cy="340" rx="28.5" ry="12" fill="#309E1A"/>
<ellipse cx="160.5" cy="341.5" rx="20.5" ry="12.5" fill="#309E1A"/>
<path d="M137 318.5V333.5L146 342H124L137 318.5Z" fill="#5FB232"/>
<path d="M126.175 319.034L133.704 331.638L146.399 333.745L125.794 346.052L126.175 319.034Z" fill="#5FB232"/>
<path d="M119.985 321.21L129.27 332.582L142.137 332.816L123.547 347.995L119.985 321.21Z" fill="#5FB232"/>
</svg>
