<svg width="255" height="395" viewBox="0 0 255 395" fill="none" xmlns="http://www.w3.org/2000/svg">
<path d="M126 22L130.5 56.5L135.5 81.0315L138.904 96.5L246 113.5L236.5 117L138.904 113.5L221 173.5H210L138.904 128.5V197V214L197.5 208.5L219 234L192.5 216.5L138.904 226L147 387H105L110.566 185.5L60.5 220H24.5L68.7831 203.75L110.566 168.5V151L54 176L45 173.5L110.566 138.5V81.0315L126 22Z" fill="#5C411B"/>
<ellipse cx="111" cy="383" rx="17" ry="12" fill="#309E1A"/>
<ellipse cx="137.5" cy="382.5" rx="14.5" ry="10.5" fill="#309E1A"/>
<line x1="177.493" y1="204.918" x2="178.493" y2="210.918" stroke="black"/>
<line x1="181.474" y1="204.842" x2="183.474" y2="210.842" stroke="black"/>
<path d="M185 198L187 199L185 200V198Z" fill="#F98A22"/>
<ellipse cx="179" cy="202" rx="5" ry="4" fill="#F9E722"/>
<circle cx="184" cy="199" r="2" fill="#F9E722"/>
<circle cx="184.5" cy="198.5" r="0.5" fill="#2B5D78"/>
<line x1="180.224" y1="200.447" x2="176.224" y2="202.447" stroke="black"/>
<path d="M170 200L175.5 201.5L176 204L171 206L172 205L170.5 204L171 202.5L170.5 202L171 201L170 200Z" fill="#F9E722"/>
</svg>
